<svg width="274" height="377" viewBox="0 0 274 377" fill="none" xmlns="http://www.w3.org/2000/svg">
<mask id="mask0_914_23" style="mask-type:alpha" maskUnits="userSpaceOnUse" x="0" y="0" width="274" height="377">
<path fill-rule="evenodd" clip-rule="evenodd" d="M127.275 15.4952C120.62 26.1144 110.387 40.7215 98.79 57.2785V57.2785C58.0243 115.492 0.551758 197.559 0.551758 249.826V249.826C0.551758 284.667 15.8217 316.252 40.5164 339.133V339.133C65.2116 362.031 99.3226 376.192 136.998 376.192C174.671 376.192 208.783 362.031 233.481 339.133V339.133C258.172 316.252 273.442 284.667 273.442 249.826C273.442 197.559 215.97 115.492 175.204 57.2785V57.2785C163.606 40.7215 153.377 26.1144 146.718 15.4952V15.4952L136.998 0L127.275 15.4952ZM56.4357 324.611C35.8188 305.5 23.0664 279.065 23.0664 249.826V249.826C23.0664 203.547 78.4282 124.49 117.702 68.4125V68.4125C124.742 58.3552 131.273 49.0294 136.998 40.5676V40.5676C142.724 49.0294 149.252 58.3552 156.296 68.4125V68.4125C195.564 124.49 250.93 203.547 250.93 249.826V249.826C250.93 279.065 238.179 305.5 217.562 324.611V324.611C196.949 343.716 168.468 355.534 136.998 355.534V355.534C105.528 355.534 77.0441 343.716 56.4357 324.611Z" fill="white"/>
</mask>
<g mask="url(#mask0_914_23)">
<path fill-rule="evenodd" clip-rule="evenodd" d="M127.275 15.4952C120.62 26.1144 110.387 40.7215 98.79 57.2785V57.2785C58.0243 115.492 0.551758 197.559 0.551758 249.826V249.826C0.551758 284.667 15.8217 316.252 40.5164 339.133V339.133C65.2116 362.031 99.3226 376.192 136.998 376.192C174.671 376.192 208.783 362.031 233.481 339.133V339.133C258.172 316.252 273.442 284.667 273.442 249.826C273.442 197.559 215.97 115.492 175.204 57.2785V57.2785C163.606 40.7215 153.377 26.1144 146.718 15.4952V15.4952L136.998 0L127.275 15.4952ZM56.4357 324.611C35.8188 305.5 23.0664 279.065 23.0664 249.826V249.826C23.0664 203.547 78.4282 124.49 117.702 68.4125V68.4125C124.742 58.3552 131.273 49.0294 136.998 40.5676V40.5676C142.724 49.0294 149.252 58.3552 156.296 68.4125V68.4125C195.564 124.49 250.93 203.547 250.93 249.826V249.826C250.93 279.065 238.179 305.5 217.562 324.611V324.611C196.949 343.716 168.468 355.534 136.998 355.534V355.534C105.528 355.534 77.0441 343.716 56.4357 324.611Z" fill="white"/>
</g>
<mask id="mask1_914_23" style="mask-type:alpha" maskUnits="userSpaceOnUse" x="42" y="130" width="190" height="163">
<path fill-rule="evenodd" clip-rule="evenodd" d="M137 147.66C159.089 166.547 163.543 178.273 159.738 210.616V210.616C172.133 205.274 176.994 195.849 179.251 184.865V184.865C185.701 189.239 189.076 202.09 187.917 214.021V214.021C221.217 227.357 213.632 281.381 175.158 281.519V281.519C160.231 281.575 145.288 273.701 148.706 250.25V250.25C150.267 239.536 158.7 231.834 169.386 235.006V235.006C184.265 239.418 180.315 268.563 159.636 261.786V261.786C173.251 281.231 194.331 270.316 197.283 251.213V251.213C201.565 223.562 173.139 210.35 150.657 220.995V220.995C150.657 220.995 151.826 204.102 150.657 191.744V191.744C149.793 182.604 142.599 170.915 137 163.626C131.403 170.915 124.209 182.604 123.341 191.744V191.744C122.172 204.102 123.341 220.995 123.341 220.995V220.995C100.858 210.35 72.4325 223.562 76.7152 251.213V251.213C79.6707 270.316 100.749 281.231 114.365 261.786V261.786C93.6833 268.563 89.7317 239.418 104.612 235.006V235.006C115.299 231.834 123.731 239.536 125.294 250.25V250.25C128.709 273.701 113.767 281.575 98.84 281.519V281.519C60.3663 281.381 52.7852 227.357 86.0848 214.021V214.021C84.9221 202.09 88.2996 189.239 94.7472 184.865V184.865C97.0072 195.849 101.865 205.274 114.26 210.616V210.616C110.455 178.273 114.912 166.547 137 147.66ZM137.001 267.658C139.48 271.897 141.961 275.476 144.279 278.493V278.493C155.913 293.618 179.691 297.051 195.815 287.267V287.267C200.669 284.327 205.126 280.983 210.133 279.497V279.497C219.886 276.616 227.693 288.152 227.693 288.152V288.152C236.501 278.799 227.427 265.839 218.717 265.904V265.904C224.533 245.663 225.633 217.172 197.262 203.281V203.281C195.844 180.833 186.82 174.413 174.389 167.544V167.544C175.497 175.805 173.412 183.235 169.677 188.242V188.242C169.441 165.773 164.377 162.662 154.086 148.92L149.349 143.745L137.001 130.193L124.654 143.745L119.917 148.92C109.624 162.662 104.558 165.773 104.322 188.242V188.242C100.587 183.235 98.5014 175.805 99.6096 167.544V167.544C87.1788 174.413 78.1548 180.833 76.7411 203.281V203.281C48.3656 217.172 49.4699 245.663 55.2859 265.904V265.904C46.5756 265.839 37.497 278.799 46.3062 288.152V288.152C46.3062 288.152 54.1166 276.616 63.8682 279.497V279.497C68.8728 280.983 73.3287 284.327 78.184 287.267V287.267C94.3097 297.051 118.086 293.618 129.723 278.493V278.493C132.037 275.476 134.519 271.897 137.001 267.658V267.658Z" fill="white"/>
</mask>
<g mask="url(#mask1_914_23)">
<path fill-rule="evenodd" clip-rule="evenodd" d="M137 147.66C159.089 166.547 163.543 178.273 159.738 210.616V210.616C172.133 205.274 176.994 195.849 179.251 184.865V184.865C185.701 189.239 189.076 202.09 187.917 214.021V214.021C221.217 227.357 213.632 281.381 175.158 281.519V281.519C160.231 281.575 145.288 273.701 148.706 250.25V250.25C150.267 239.536 158.7 231.834 169.386 235.006V235.006C184.265 239.418 180.315 268.563 159.636 261.786V261.786C173.251 281.231 194.331 270.316 197.283 251.213V251.213C201.565 223.562 173.139 210.35 150.657 220.995V220.995C150.657 220.995 151.826 204.102 150.657 191.744V191.744C149.793 182.604 142.599 170.915 137 163.626C131.403 170.915 124.209 182.604 123.341 191.744V191.744C122.172 204.102 123.341 220.995 123.341 220.995V220.995C100.858 210.35 72.4325 223.562 76.7152 251.213V251.213C79.6707 270.316 100.749 281.231 114.365 261.786V261.786C93.6833 268.563 89.7317 239.418 104.612 235.006V235.006C115.299 231.834 123.731 239.536 125.294 250.25V250.25C128.709 273.701 113.767 281.575 98.84 281.519V281.519C60.3663 281.381 52.7852 227.357 86.0848 214.021V214.021C84.9221 202.09 88.2996 189.239 94.7472 184.865V184.865C97.0072 195.849 101.865 205.274 114.26 210.616V210.616C110.455 178.273 114.912 166.547 137 147.66ZM137.001 267.658C139.48 271.897 141.961 275.476 144.279 278.493V278.493C155.913 293.618 179.691 297.051 195.815 287.267V287.267C200.669 284.327 205.126 280.983 210.133 279.497V279.497C219.886 276.616 227.693 288.152 227.693 288.152V288.152C236.501 278.799 227.427 265.839 218.717 265.904V265.904C224.533 245.663 225.633 217.172 197.262 203.281V203.281C195.844 180.833 186.82 174.413 174.389 167.544V167.544C175.497 175.805 173.412 183.235 169.677 188.242V188.242C169.441 165.773 164.377 162.662 154.086 148.92L149.349 143.745L137.001 130.193L124.654 143.745L119.917 148.92C109.624 162.662 104.558 165.773 104.322 188.242V188.242C100.587 183.235 98.5014 175.805 99.6096 167.544V167.544C87.1788 174.413 78.1548 180.833 76.7411 203.281V203.281C48.3656 217.172 49.4699 245.663 55.2859 265.904V265.904C46.5756 265.839 37.497 278.799 46.3062 288.152V288.152C46.3062 288.152 54.1166 276.616 63.8682 279.497V279.497C68.8728 280.983 73.3287 284.327 78.184 287.267V287.267C94.3097 297.051 118.086 293.618 129.723 278.493V278.493C132.037 275.476 134.519 271.897 137.001 267.658V267.658Z" fill="white"/>
</g>
</svg>
