<svg width="12" height="12" viewBox="0 0 12 12" fill="none" xmlns="http://www.w3.org/2000/svg">
    <path d="M8.19995 10.3394C6.87237 10.6948 6.04238 11.1658 5 11.1992V11.9992H11.9999V9.93942C10.3439 9.87222 9.06914 10.1068 8.19995 10.3394ZM8.65154 11.3992L8.54815 11.0128C9.39093 10.7872 10.2801 10.6514 11.1905 10.609L11.2091 11.0086C10.3273 11.0496 9.46693 11.181 8.65154 11.3992Z" fill="#868BB2"/>
    <path d="M2.99995 10.801C2.88496 10.7752 2.75396 10.7496 2.59996 10.725C1.52318 10.5532 0.610191 10.6304 0 10.725V12.0009H2.99995V10.801Z" fill="#868BB2"/>
    <path d="M4.80156 9.59921C4.91201 9.59921 5.00156 9.50967 5.00156 9.39922C5.00156 9.28876 4.91201 9.19922 4.80156 9.19922C4.6911 9.19922 4.60156 9.28876 4.60156 9.39922C4.60156 9.50967 4.6911 9.59921 4.80156 9.59921Z" fill="#868BB2"/>
    <path d="M6.2 9.20078C6.31045 9.20078 6.39999 9.11123 6.39999 9.00078C6.39999 8.89032 6.31045 8.80078 6.2 8.80078C6.08954 8.80078 6 8.89032 6 9.00078C6 9.11123 6.08954 9.20078 6.2 9.20078Z" fill="#868BB2"/>
    <path d="M5.39922 10.4C5.50967 10.4 5.59921 10.3105 5.59921 10.2C5.59921 10.0895 5.50967 10 5.39922 10C5.28876 10 5.19922 10.0895 5.19922 10.2C5.19922 10.3105 5.28876 10.4 5.39922 10.4Z" fill="#868BB2"/>
    <path d="M7.2 9.9996C7.31045 9.9996 7.4 9.91006 7.4 9.79961C7.4 9.68915 7.31045 9.59961 7.2 9.59961C7.08954 9.59961 7 9.68915 7 9.79961C7 9.91006 7.08954 9.9996 7.2 9.9996Z" fill="#868BB2"/>
    <path d="M8.2 9.20078C8.31045 9.20078 8.39999 9.11123 8.39999 9.00078C8.39999 8.89032 8.31045 8.80078 8.2 8.80078C8.08954 8.80078 8 8.89032 8 9.00078C8 9.11123 8.08954 9.20078 8.2 9.20078Z" fill="#868BB2"/>
    <path d="M11.2 9.20078C11.3105 9.20078 11.4 9.11123 11.4 9.00078C11.4 8.89032 11.3105 8.80078 11.2 8.80078C11.0895 8.80078 11 8.89032 11 9.00078C11 9.11123 11.0895 9.20078 11.2 9.20078Z" fill="#868BB2"/>
    <path d="M9.79765 9.39999C9.90811 9.39999 9.99765 9.31045 9.99765 9.2C9.99765 9.08954 9.90811 9 9.79765 9C9.6872 9 9.59766 9.08954 9.59766 9.2C9.59766 9.31045 9.6872 9.39999 9.79765 9.39999Z" fill="#868BB2"/>
    <path d="M0.399216 9.20078C0.509671 9.20078 0.599213 9.11123 0.599213 9.00078C0.599213 8.89032 0.509671 8.80078 0.399216 8.80078C0.28876 8.80078 0.199219 8.89032 0.199219 9.00078C0.199219 9.11123 0.28876 9.20078 0.399216 9.20078Z" fill="#868BB2"/>
    <path d="M1.59843 9.9996C1.70889 9.9996 1.79843 9.91006 1.79843 9.79961C1.79843 9.68915 1.70889 9.59961 1.59843 9.59961C1.48798 9.59961 1.39844 9.68915 1.39844 9.79961C1.39844 9.91006 1.48798 9.9996 1.59843 9.9996Z" fill="#868BB2"/>
    <path d="M3.00078 9.59921C3.11123 9.59921 3.20078 9.50967 3.20078 9.39922C3.20078 9.28876 3.11123 9.19922 3.00078 9.19922C2.89032 9.19922 2.80078 9.28876 2.80078 9.39922C2.80078 9.50967 2.89032 9.59921 3.00078 9.59921Z" fill="#868BB2"/>
    <path d="M11.1983 6.19991H9.59834V6.5999H9.15315L8.22216 2.09857L10.1983 1.71617V5.19992H9.59834V5.79991H11.1983V5.19992H10.5983V1.63858L10.6113 1.63598C10.7159 1.61578 10.7863 1.51698 10.7713 1.41138L10.6281 0.409194C10.6119 0.295595 10.5035 0.218797 10.3909 0.241396L4.59842 1.39998V0.599991L3.99843 0L3.39844 0.599991V3.19995L3.79843 3.73334V4.79993H3.59843C3.48804 4.79993 3.39844 4.88953 3.39844 4.99992V5.79991C3.39844 5.91031 3.48804 5.99991 3.59843 5.99991H3.79843V10.8388C3.56563 10.9234 3.39844 11.142 3.39844 11.3998C3.39844 11.7306 3.67223 11.9998 4.00883 11.9998C4.34542 11.9998 4.61922 11.7306 4.61922 11.3998C4.61922 11.1344 4.44182 10.9114 4.19843 10.8324V5.99991H4.39842C4.50882 5.99991 4.59842 5.91031 4.59842 5.79991V4.99992C4.59842 4.88953 4.50882 4.79993 4.39842 4.79993H4.19843V3.73334L4.59842 3.19995V2.79996L6.54519 2.42316L5.6372 6.5999H4.59842V8.39987H11.9983V6.5999H11.1983V6.19991ZM10.1591 0.803988L10.2377 1.19618L9.23775 1.39618L9.15915 1.00398L10.1591 0.803988ZM4.21923 11.3998C4.21923 11.51 4.12483 11.5998 4.00883 11.5998C3.89283 11.5998 3.79843 11.51 3.79843 11.3998C3.79843 11.2896 3.89283 11.1998 4.00883 11.1998C4.12483 11.1998 4.21923 11.2896 4.21923 11.3998ZM4.19843 5.59992H3.79843V5.19992H4.19843V5.59992ZM4.19843 2.19997H3.79843V1.79997H4.19843V2.19997ZM8.23376 4.19694L8.45296 5.29272L6.96198 4.47953L8.23376 4.19694ZM6.97238 2.34036L7.82917 2.17457L8.13477 3.70234L6.88078 2.76176L6.97238 2.34036ZM6.78739 3.19175L7.73037 3.89914L6.57779 4.15534L6.78739 3.19175ZM6.46719 4.66533L8.08617 5.54832L6.1454 6.14551L6.46719 4.66533ZM6.0466 6.5999L6.0522 6.5743L6.0574 6.5909L8.55896 5.82111L8.75256 6.5999H6.0466Z" fill="#868BB2"/>
    <path d="M3.39995 6.59961H0V8.39958H3.39995V6.59961Z" fill="#868BB2"/>
</svg>