<svg width="14" height="15" viewBox="0 0 14 15" fill="none" xmlns="http://www.w3.org/2000/svg">
<path d="M0.73636 8.09869L0.548828 8.72922H14V8.09869H0.73636Z" fill="white"/>
<path d="M0.855701 11.1543C0.702266 11.0897 0.173766 10.8148 0.0373787 11.0735C-0.0819599 11.2675 0.122621 11.316 0.122621 11.6232C0.122621 11.9304 -0.0649116 11.995 0.0373787 12.1729C0.173766 12.4316 0.702266 12.1729 0.855701 12.092C1.07733 11.995 1.21372 11.8172 1.21372 11.607C1.21372 11.4453 1.07733 11.2513 0.855701 11.1543Z" fill="white"/>
<path d="M0.855701 13.3693C0.702266 13.3046 0.173766 13.0298 0.0373787 13.2884C-0.0819599 13.4824 0.122621 13.5309 0.122621 13.8381C0.122621 14.1453 -0.0649116 14.21 0.0373787 14.3878C0.173766 14.6465 0.702266 14.3878 0.855701 14.307C1.07733 14.21 1.21372 14.0321 1.21372 13.822C1.21372 13.6441 1.07733 13.4663 0.855701 13.3693Z" fill="white"/>
<path d="M1.55468 13.2723C1.21372 13.2723 1.50354 13.5309 1.50354 13.8705C1.50354 14.1938 1.21372 14.4687 1.55468 14.4687H12.6873V9.00406H11.4427V13.2723H1.55468Z" fill="white"/>
<path d="M9.95954 9.00406V9.7801L9.07302 9.10107V8.9879H8.83434V11.0088H1.65698C1.62288 11.0088 1.48649 11.0088 1.4183 11.0897C1.3501 11.1705 1.3842 11.2837 1.43535 11.3968C1.46944 11.4777 1.48649 11.5585 1.48649 11.6555C1.48649 11.7525 1.45239 11.8334 1.43535 11.9142C1.43535 11.9304 1.43535 11.9304 1.4183 11.9465C1.40125 12.0274 1.3842 12.092 1.40125 12.1567C1.40125 12.1729 1.4183 12.189 1.43535 12.2214C1.50354 12.3022 1.62288 12.3022 1.67402 12.3022H10.1982V9.02023H9.95954V9.00406ZM1.65698 12.0597C1.63993 12.0597 1.63993 12.0597 1.62288 12.0597C1.62288 12.0274 1.63993 11.995 1.65698 11.9627C1.69107 11.8657 1.72517 11.7687 1.72517 11.6394C1.72517 11.51 1.69107 11.3968 1.65698 11.316C1.63993 11.2837 1.63993 11.2513 1.62288 11.219C1.62288 11.219 1.63993 11.219 1.65698 11.219H2.01499L3.10609 12.0597H1.65698ZM3.4641 12.0597L2.37301 11.219H3.89031L4.98141 12.0597H3.4641ZM5.35647 12.0597L4.26538 11.219H5.86793L6.95902 12.0597H5.35647ZM7.2318 12.0597L6.1407 11.219H7.74325L8.83434 12.0597H7.2318ZM9.95954 12.0597H9.19236L8.49337 11.5262L8.08421 11.219H9.07302V10.8148L9.95954 11.4938V12.0597ZM9.95954 11.219L9.07302 10.54V9.37592L9.95954 10.0549V11.219Z" fill="white"/>
<path d="M13.0282 8.11486H12.96L11.9201 1.2437H11.1018V0.5H10.5903V1.2437H9.53332L8.47633 8.13102L13.0282 8.11486ZM11.1018 1.72872H11.545L11.6985 2.24608L11.1018 2.87661V1.72872ZM9.89134 1.72872H10.5733V2.47243L11.2211 3.10295L11.6985 2.65027L11.9371 4.23467L9.82315 2.22991L9.89134 1.72872ZM12.0053 4.62269L11.0847 5.49573V3.76582L12.0053 4.62269ZM9.772 2.61793L10.5733 3.36163V5.09155L11.2211 5.72208L12.0565 4.92987L12.4315 7.32265L9.51628 4.62269L10.0618 4.0245V3.58798L9.43103 4.26701L9.772 2.61793ZM8.90253 8.11486L8.85139 7.92085L10.0618 6.64362V6.2071L8.93663 7.33882L9.37989 4.89754L10.5733 5.98076V8.13102H8.90253V8.11486ZM11.1018 6.38494L12.5679 7.90468L12.5338 8.13102H11.1018V6.38494Z" fill="white"/>
</svg>

