<svg width="16" height="16" viewBox="0 0 16 16" fill="none" xmlns="http://www.w3.org/2000/svg">
    <path fill-rule="evenodd" clip-rule="evenodd" d="M2.13937 2.27209V13.1888H13.0559V9.93689C13.0559 8.53243 15.0977 8.51731 15.0977 9.93689V14.1654C15.0977 14.7909 14.6581 15.2305 14.0326 15.2305H1.16267C0.537161 15.2305 0.0976562 14.7909 0.0976562 14.1654V1.29548C0.0976562 0.669974 0.537161 0.230469 1.16267 0.230469H5.55631C6.96114 0.230469 6.97626 2.27209 5.55631 2.27209H2.13937ZM13.0568 3.73931L11.0472 5.7145C10.4859 6.27651 8.78365 8.26639 8.03872 8.26639C7.26317 8.26639 7.06174 7.786 7.06174 7.11363C7.06174 6.58828 9.19413 4.70007 9.65561 4.23897L11.5892 2.27135C11.1402 2.27097 10.6923 2.27096 10.2433 2.27209C9.4205 2.27398 8.38419 2.35907 8.38419 1.20708C8.38419 0.636379 8.90119 0.230469 9.44846 0.230469H14.0326C14.6581 0.230469 15.0977 0.669974 15.0977 1.29548V5.87967C15.0977 6.50442 14.6581 6.94394 14.0326 6.94394C12.946 6.94394 13.0552 5.7473 13.0559 4.99745C13.0567 4.57793 13.0568 4.15846 13.0568 3.73931Z" fill="#82BAFF"/>
</svg>