<svg width="14" height="8" viewBox="0 0 14 8" fill="none" xmlns="http://www.w3.org/2000/svg">
<path d="M12.4932 1.13289V3.28054H2.57097L4.74075 1.21879C5.03458 0.939597 5.03458 0.488591 4.74075 0.209396C4.44693 -0.0697987 3.97229 -0.0697987 3.67846 0.209396L0.220369 3.4953C-0.0734562 3.7745 -0.0734562 4.2255 0.220369 4.5047L3.67846 7.7906C3.97229 8.0698 4.44693 8.0698 4.74075 7.7906C5.03458 7.51141 5.03458 7.0604 4.74075 6.78121L2.57097 4.7123H13.2466C13.661 4.7123 14 4.39016 14 3.99642V1.13289C14 0.73915 13.661 0.417002 13.2466 0.417002C12.8322 0.417002 12.4932 0.73915 12.4932 1.13289Z" fill="white" fill-opacity="0.6"/>
</svg>
