<svg width="78" height="23" viewBox="0 0 78 23" fill="none" xmlns="http://www.w3.org/2000/svg">
<path fill-rule="evenodd" clip-rule="evenodd" d="M12.9553 6.4773L18.0716 14.7073C19.507 17.5669 19.3345 20.0957 17.4741 22.2744L16.4716 20.7015L10.397 10.9881L12.9553 6.4773Z" fill="#1D70B7"/>
<path fill-rule="evenodd" clip-rule="evenodd" d="M8.42906 11.0173L6.89489 13.7731C6.39656 14.6602 6.05031 15.1998 6.30781 16.2769C6.60906 17.5373 7.74906 18.4811 9.09197 18.4811C10.0861 18.4811 10.9486 17.961 11.427 17.1793C11.4599 17.1585 11.4857 17.1419 11.5132 17.131C11.6124 17.9673 11.5674 18.7394 11.3878 19.4152C10.9853 20.9165 9.76739 22.179 8.15156 22.3844C3.87155 23.0802 0.182803 19.0323 1.1228 14.9377C1.3578 13.9102 1.94989 12.8352 2.44822 11.9102C3.0303 10.8356 3.65989 9.75849 4.19156 8.92224L5.78239 6.4123L8.42906 11.0173Z" fill="#FEFEFE"/>
<path fill-rule="evenodd" clip-rule="evenodd" d="M6.68408 4.87817L9.19367 0.463161L11.9374 4.87817L9.41242 9.33691L6.68408 4.87817Z" fill="#1D70B7"/>
<path fill-rule="evenodd" clip-rule="evenodd" d="M30.7478 5.95264H36.2044L41.314 16.2397H37.6053L36.6224 14.513H30.3294L29.3469 16.2397H25.6382L30.7478 5.95264ZM33.7219 8.27216H33.2315L31.5132 11.8451H35.4249L33.7219 8.27216ZM46.0182 12.1355H51.5199C51.8161 12.1355 52.044 12.1922 52.2049 12.3138C52.3644 12.4343 52.4399 12.6589 52.4399 12.9847C52.4399 13.5022 52.134 13.7618 51.5199 13.7618H46.0182V12.1355ZM42.8411 5.92511V16.2397H52.4399C53.5774 16.2397 54.3911 16.0247 54.8811 15.5926C55.3736 15.1601 55.6157 14.4243 55.6157 13.3814C55.6157 12.1805 55.1386 11.3701 54.1857 10.946C54.4857 10.8101 54.7361 10.5622 54.939 10.1926C55.1386 9.83011 55.2415 9.37634 55.2415 8.83801C55.2415 7.61551 54.9049 6.78971 54.234 6.35388C53.777 6.0668 53.0599 5.92511 52.0653 5.92511H42.8411ZM46.0182 8.43264H51.6474C51.9107 8.43264 52.1069 8.48345 52.2403 8.58637C52.3736 8.69595 52.4399 8.87092 52.4399 9.12259C52.4399 9.36092 52.3736 9.53717 52.2307 9.648C52.0949 9.758 51.899 9.8147 51.6474 9.8147H46.0182V8.43264ZM61.8686 5.95264H67.3228L72.429 16.2397H68.7203L67.7411 14.513H61.4482L60.4653 16.2397H56.7569L61.8686 5.95264ZM64.839 8.27216H64.349L62.6315 11.8451H66.5424L64.839 8.27216ZM73.859 16.2705V5.96675H77.0361V16.2705H73.859Z" fill="#FEFEFE"/>
</svg>
