<svg width="28" height="25" viewBox="0 0 28 25" fill="none" xmlns="http://www.w3.org/2000/svg">
<path d="M10.0323 23.5894C11.2907 24.0529 12.619 24.2668 13.9124 24.2668C17.9673 24.2668 21.8823 22.1632 24.0846 18.5265C24.2593 18.2413 24.1545 17.8847 23.9098 17.7065C23.6301 17.5282 23.2806 17.6351 23.1058 17.8847C20.4841 22.1989 15.1708 24.1242 10.4518 22.4484C6.43187 21.0223 3.67036 17.2786 3.3208 13.0714L5.45311 13.1071L2.79646 8.79297L0 13.0358L2.09735 13.0714C2.44691 17.7778 5.52302 22.0206 10.0323 23.5894Z" fill="white"/>
<path d="M17.8627 0.663629C12.6542 -1.19038 6.74671 0.94886 3.81042 5.72649C3.63564 6.01172 3.74051 6.36826 3.9852 6.54653C4.26485 6.7248 4.61441 6.61784 4.78919 6.36826C7.41087 2.05413 12.7242 0.128819 17.4432 1.80455C21.3582 3.1594 24.0848 6.7248 24.5742 10.7537H22.5817L25.2733 14.9965L27.9998 10.7537H25.7627C25.2383 6.22565 22.2321 2.19675 17.8627 0.663629Z" fill="white"/>
<path d="M19.4008 13.8203C19.4008 10.8966 14.9614 5.61985 14.437 5.01373C14.3322 4.87111 14.1574 4.7998 13.9826 4.7998C13.8078 4.7998 13.633 4.87111 13.5282 5.01373C13.0038 5.61985 8.56445 10.8966 8.56445 13.8203C8.56445 16.9221 10.9764 19.4179 13.9826 19.4179C16.9888 19.4179 19.4008 16.9221 19.4008 13.8203Z" fill="white"/>
</svg>
