<svg width="24" height="24" viewBox="0 0 24 24" fill="none" xmlns="http://www.w3.org/2000/svg">
<path fill-rule="evenodd" clip-rule="evenodd" d="M24 24C22.4699 24 21.6906 23.5516 21.0433 23.1915C20.4962 22.8869 20.1009 22.6667 19.2103 22.6667C18.3203 22.6667 17.9248 22.8869 17.3777 23.1915C16.7304 23.5516 15.9256 24 14.421 24C12.9165 24 12.1116 23.5516 11.4643 23.1915C10.9172 22.8869 10.5219 22.6667 9.63181 22.6667C8.74174 22.6667 8.34637 22.8869 7.7993 23.1915C7.15248 23.5516 6.34715 24 4.84259 24C3.33849 24 2.50624 23.5516 1.85941 23.1915C1.31234 22.8869 0.88597 22.6667 0 22.6667V21C1.53006 21 2.33635 21.4484 2.98318 21.8085C3.53025 22.1131 3.93929 22.3333 4.82936 22.3333C5.71943 22.3333 6.12157 22.1131 6.66864 21.8085C7.31547 21.4484 8.12403 21 9.62858 21C11.1327 21 11.9395 21.4484 12.5867 21.8085C13.1338 22.1131 13.5301 22.3333 14.4201 22.3333C15.3107 22.3333 15.706 22.1131 16.2535 21.8085C16.9003 21.4484 17.7058 21 19.2103 21C20.7149 21 21.5202 21.4484 22.1671 21.8085C22.7141 22.1131 23.114 22.3333 24 22.3333V24Z" fill="white"/>
<path fill-rule="evenodd" clip-rule="evenodd" d="M24.001 20C22.4709 20 21.6915 19.4022 21.0443 18.9221C20.4972 18.5158 20.1018 18.2222 19.2113 18.2222C18.3212 18.2222 17.9258 18.5158 17.3787 18.9221C16.7314 19.4022 15.9265 20 14.422 20C12.9174 20 12.1126 19.4022 11.4653 18.9221C10.9182 18.5158 10.5229 18.2222 9.63278 18.2222C8.74271 18.2222 8.34735 18.5158 7.80028 18.9221C7.15345 19.4022 6.34812 20 4.84357 20C3.33947 20 2.50722 19.4022 1.86039 18.9221C1.31332 18.5158 0.886947 18.2222 0.000976562 18.2222V16C1.53104 16 2.33733 16.5978 2.98416 17.0779C3.53123 17.4842 3.94027 17.7778 4.83034 17.7778C5.72041 17.7778 6.12255 17.4842 6.66962 17.0779C7.31645 16.5978 8.125 16 9.62956 16C11.1337 16 11.9404 16.5978 12.5877 17.0779C13.1348 17.4842 13.531 17.7778 14.4211 17.7778C15.3116 17.7778 15.707 17.4842 16.2545 17.0779C16.9013 16.5978 17.7068 16 19.2113 16C20.7159 16 21.5212 16.5978 22.168 17.0779C22.7151 17.4842 23.115 17.7778 24.001 17.7778V20Z" fill="white"/>
<path d="M12 0C18.621 0 24 5.20087 24 11.6025C24 11.7424 23.9425 11.8765 23.8402 11.9754C23.7379 12.0743 23.5992 12.1299 23.4545 12.1299H21C20.9277 12.1309 20.856 12.118 20.7889 12.0919C20.7218 12.0659 20.6608 12.0272 20.6093 11.9781C20.5578 11.929 20.5169 11.8706 20.489 11.8061C20.4612 11.7416 20.4468 11.6724 20.4468 11.6025C20.4468 11.5326 20.4612 11.4634 20.489 11.399C20.5169 11.3345 20.5578 11.276 20.6093 11.2269C20.6608 11.1779 20.7218 11.1392 20.7889 11.1131C20.856 11.0871 20.9277 11.0742 21 11.0751H22.858C22.7281 8.56258 21.6962 6.28925 20.071 4.54048L19.2017 5.381C19.1511 5.43129 19.0907 5.47131 19.024 5.49874C18.9572 5.52617 18.8855 5.54046 18.8129 5.54076C18.7404 5.54105 18.6685 5.52736 18.6015 5.50048C18.5345 5.4736 18.4737 5.43407 18.4227 5.38421C18.3717 5.33435 18.3315 5.27515 18.3045 5.21008C18.2774 5.14501 18.264 5.07537 18.2652 5.00525C18.2663 4.93512 18.2818 4.86591 18.3109 4.80168C18.34 4.73744 18.3821 4.67945 18.4347 4.63112L19.304 3.7906C17.5024 2.20288 15.1511 1.19504 12.5455 1.07126V2.90063C12.5465 2.97052 12.5331 3.0399 12.5062 3.10475C12.4792 3.1696 12.4392 3.22863 12.3885 3.2784C12.3377 3.32817 12.2772 3.36769 12.2105 3.39466C12.1439 3.42164 12.0723 3.43553 12 3.43553C11.9277 3.43553 11.8562 3.42164 11.7895 3.39466C11.7228 3.36769 11.6623 3.32817 11.6116 3.2784C11.5608 3.22863 11.5208 3.1696 11.4938 3.10475C11.4669 3.0399 11.4535 2.97052 11.4546 2.90063V1.07126C8.84896 1.19504 6.49761 2.20288 4.69604 3.7906L5.56536 4.63112C5.61792 4.67945 5.65998 4.73744 5.68909 4.80168C5.71819 4.86591 5.73376 4.93512 5.73487 5.00525C5.73598 5.07537 5.72261 5.14501 5.69555 5.21008C5.6685 5.27515 5.62829 5.33435 5.57728 5.38421C5.52628 5.43407 5.4655 5.4736 5.3985 5.50048C5.3315 5.52736 5.25964 5.54105 5.1871 5.54076C5.11456 5.54046 5.04282 5.52617 4.97606 5.49874C4.90931 5.47131 4.84888 5.43129 4.79831 5.381L3.929 4.54048C2.30377 6.28925 1.27189 8.56258 1.14207 11.0751H3.00002C3.0723 11.0742 3.14406 11.0871 3.21113 11.1131C3.2782 11.1392 3.33925 11.1779 3.39072 11.2269C3.4422 11.276 3.48307 11.3345 3.51097 11.399C3.53887 11.4634 3.55324 11.5326 3.55324 11.6025C3.55324 11.6724 3.53887 11.7416 3.51097 11.8061C3.48307 11.8706 3.4422 11.929 3.39072 11.9781C3.33925 12.0272 3.2782 12.0659 3.21113 12.0919C3.14406 12.118 3.0723 12.1309 3.00002 12.1299H0.545475C0.400816 12.1299 0.262085 12.0743 0.159796 11.9754C0.0575066 11.8765 3.43323e-05 11.7424 2.09808e-05 11.6025C3.05176e-05 5.20087 5.37906 0 12 0ZM16.4744 6.78188C16.5632 6.78722 16.6492 6.81345 16.7251 6.85829C16.8009 6.90312 16.8643 6.96521 16.9097 7.03913C16.955 7.11306 16.981 7.19659 16.9854 7.28244C16.9897 7.3683 16.9723 7.45389 16.9347 7.53176C16.9347 7.53176 16.3582 8.74203 15.6818 10.0533C15.3436 10.709 14.9764 11.3914 14.6421 11.9651C14.3077 12.5388 14.0469 12.9772 13.7386 13.2753C12.7846 14.1977 11.2153 14.1977 10.2614 13.2753C9.30739 12.3529 9.3074 10.8439 10.2614 9.92148C10.5697 9.62343 11.0316 9.36302 11.625 9.03975C12.2184 8.71652 12.9242 8.36967 13.6023 8.04266C14.9585 7.38868 16.2102 6.83132 16.2102 6.83132C16.2926 6.79376 16.3835 6.77677 16.4744 6.78188ZM15.2727 8.42996C14.8097 8.64224 14.7038 8.68515 14.0881 8.98207C13.4196 9.30441 12.7282 9.65421 12.1619 9.96268C11.5957 10.2712 11.1279 10.5752 11.0369 10.6631C10.4999 11.1824 10.4998 12.0144 11.0369 12.5337C11.574 13.053 12.426 13.053 12.9631 12.5337C13.054 12.4458 13.377 11.9935 13.696 11.446C14.0151 10.8985 14.3683 10.2299 14.7017 9.58362C15.0098 8.98638 15.0529 8.87824 15.2727 8.42996Z" fill="white"/>
</svg>
