<svg viewBox="0 0 78 80" fill="none" xmlns="http://www.w3.org/2000/svg">
<path d="M37.4974 78.5909L37.4374 75.9523H37.4974C37.7747 75.9523 38.0507 75.9484 38.328 75.942L38.3868 78.5806C38.0916 78.587 37.7939 78.5909 37.4974 78.5909ZM34.7182 78.4883C34.4 78.4665 34.0831 78.4383 33.7675 78.4075L34.0218 75.7818C34.3144 75.81 34.6083 75.8356 34.9035 75.8587L34.7182 78.4883ZM41.106 78.4178L40.853 75.792C41.1507 75.7625 41.4459 75.7305 41.7398 75.6958L42.049 78.3165C41.7359 78.3537 41.4216 78.3883 41.106 78.4178ZM31.07 78.0396C30.7544 77.9857 30.4401 77.9254 30.127 77.8626L30.6445 75.2766C30.932 75.333 31.2208 75.3881 31.5096 75.4369L31.07 78.0396ZM44.7426 77.8883L44.2379 75.2984C44.5292 75.242 44.818 75.1817 45.1042 75.1176L45.678 77.6908C45.3688 77.7613 45.057 77.8267 44.7426 77.8883ZM27.4768 77.2331C27.1714 77.1472 26.866 77.0575 26.5645 76.9664L27.326 74.4407C27.6084 74.5278 27.8934 74.6099 28.1796 74.6894L27.4768 77.2331ZM48.3116 77.0023L47.5564 74.474C47.84 74.3894 48.1224 74.2996 48.4036 74.206L49.2265 76.7139C48.9223 76.8139 48.6182 76.91 48.3116 77.0023ZM23.9858 76.0728C23.6907 75.9587 23.398 75.8394 23.1067 75.7189L24.1136 73.2816C24.3858 73.3957 24.6605 73.506 24.9352 73.6124L23.9858 76.0728ZM51.7808 75.7638L50.7828 73.3239C51.055 73.2111 51.3272 73.0944 51.5968 72.9752L52.6638 75.3869C52.3724 75.5163 52.0773 75.6433 51.7808 75.7638ZM20.6341 74.5791C20.3505 74.4355 20.0668 74.2881 19.7869 74.1368L21.0328 71.8136C21.2922 71.9534 21.5516 72.0893 21.8148 72.2213L20.6341 74.5791ZM55.1146 74.1868L53.8764 71.861C54.1384 71.72 54.3965 71.5777 54.6533 71.4303L55.9516 73.7265C55.6756 73.8829 55.3957 74.0368 55.1146 74.1868ZM17.4383 72.7585C17.17 72.588 16.9042 72.4149 16.641 72.2367L18.1066 70.0469C18.3507 70.2122 18.5986 70.3725 18.8477 70.5328L17.4383 72.7585ZM58.2734 72.2918L56.8116 70.0994C57.0595 69.934 57.3035 69.7661 57.5463 69.5955L59.0567 71.7533C58.7986 71.9354 58.5366 72.1162 58.2734 72.2918ZM14.438 70.6366C14.1863 70.4417 13.9384 70.2417 13.693 70.0379L15.3644 68.0019C15.5919 68.1903 15.8219 68.375 16.0544 68.557L14.438 70.6366ZM61.2277 70.0994L59.564 68.057C59.7927 67.8685 60.0189 67.6775 60.2425 67.4839L61.9586 69.484C61.7171 69.693 61.473 69.8994 61.2277 70.0994ZM11.6537 68.2262C11.4236 68.007 11.1962 67.7852 10.9726 67.5595L12.8318 65.6941C13.0414 65.9043 13.2522 66.1133 13.4669 66.3172L11.6537 68.2262ZM63.9584 67.6236L62.0992 65.7582C62.31 65.5466 62.5183 65.3338 62.724 65.1184L64.6216 66.9454C64.4031 67.1736 64.182 67.3993 63.9584 67.6236ZM9.11975 65.5594C8.91019 65.3184 8.70446 65.0735 8.50257 64.8248L10.5368 63.1529C10.7234 63.3811 10.9125 63.6068 11.1055 63.8286L9.11975 65.5594ZM66.4309 64.8992L64.4031 63.2196C64.5909 62.9914 64.7762 62.7606 64.9576 62.5272L67.0277 64.153C66.8322 64.4043 66.6341 64.653 66.4309 64.8992ZM6.85036 62.6516C6.66763 62.3901 6.48746 62.1272 6.30984 61.8618L8.49618 60.3951C8.66102 60.6425 8.82969 60.8874 9.00091 61.131L6.85036 62.6516ZM68.6301 61.9439L66.4476 60.4733C66.6124 60.2258 66.7747 59.9771 66.9344 59.7271L69.1488 61.149C68.9789 61.4144 68.8064 61.681 68.6301 61.9439ZM4.87997 59.5399C4.72152 59.2617 4.56818 58.9809 4.4174 58.6976L6.73407 57.4526C6.87336 57.7142 7.01647 57.9745 7.16214 58.2283L4.87997 59.5399ZM70.5289 58.7886L68.2135 57.5398C68.354 57.2783 68.4895 57.0154 68.6237 56.7513L70.9697 57.9437C70.8253 58.2283 70.6784 58.5104 70.5289 58.7886ZM3.21753 56.2398C3.08847 55.9474 2.96325 55.6551 2.84058 55.3589L5.2697 54.3486C5.3847 54.6243 5.50099 54.8987 5.62238 55.1705L3.21753 56.2398ZM72.1095 55.4654L69.683 54.4474C69.7967 54.1755 69.9066 53.9012 70.0139 53.6242L72.4635 54.5833C72.3485 54.8781 72.2309 55.173 72.1095 55.4654ZM1.88989 52.7921C1.79022 52.4896 1.69438 52.1844 1.6011 51.8767L4.11839 51.1139C4.204 51.3985 4.29345 51.6831 4.38673 51.9652L1.88989 52.7921ZM73.3567 51.9998L70.8432 51.2241C70.9288 50.9421 71.0119 50.6587 71.0911 50.3741L73.625 51.078C73.5394 51.3882 73.45 51.6947 73.3567 51.9998ZM0.907247 49.2317C0.839523 48.9227 0.773077 48.6125 0.711742 48.2996L3.29165 47.7868C3.34915 48.0791 3.41048 48.3714 3.47437 48.6599L0.907247 49.2317ZM74.2588 48.4214L71.6815 47.9009C71.739 47.6098 71.7939 47.3175 71.845 47.0252L74.4352 47.4842C74.3802 47.797 74.3214 48.1099 74.2588 48.4214ZM0.282397 45.6008C0.242784 45.2841 0.207006 44.9661 0.177616 44.6482L2.79458 44.3943C2.82269 44.6879 2.85463 44.9815 2.89041 45.2751L0.282397 45.6008ZM74.8057 44.7751L72.1888 44.5097C72.2194 44.2161 72.245 43.9212 72.2667 43.625L74.8888 43.8186C74.8658 44.1379 74.8377 44.4584 74.8057 44.7751ZM0.0115003 41.9237C0.00383344 41.6057 0 41.2877 0 40.9659V40.7082L2.62974 40.7287V40.9659C2.62974 41.2647 2.63357 41.5621 2.63996 41.857L0.0115003 41.9237ZM72.3651 41.0877V40.9454C72.3651 40.7082 72.3625 40.4505 72.3562 40.1941L74.9859 40.1377C74.9923 40.4108 74.9948 40.689 74.9948 40.9659L72.3651 41.0877ZM2.73708 38.1876L0.116281 37.9786C0.141837 37.6606 0.169949 37.3439 0.203172 37.0285L2.81758 37.2991C2.78819 37.594 2.76135 37.8901 2.73708 38.1876ZM72.2118 37.6568C72.1837 37.3606 72.1517 37.0657 72.1172 36.7721L74.7291 36.4606C74.7661 36.7747 74.7993 37.0926 74.83 37.4093L72.2118 37.6568ZM3.17153 34.7861L0.582683 34.322C0.638906 34.0079 0.697686 33.695 0.762854 33.3822L3.33765 33.9117C3.27887 34.2015 3.22264 34.4951 3.17153 34.7861ZM71.7249 34.2617C71.67 33.9707 71.6099 33.6822 71.546 33.3937L74.1119 32.8181C74.1822 33.1309 74.246 33.445 74.3074 33.7591L71.7249 34.2617ZM3.93566 31.4424L1.40559 30.7269C1.49249 30.4192 1.58193 30.1128 1.67649 29.809L4.18867 30.5885C4.10178 30.8731 4.01617 31.1577 3.93566 31.4424ZM70.911 30.9308C70.8253 30.6449 70.7372 30.3615 70.6452 30.0795L73.1446 29.2628C73.243 29.5654 73.3375 29.8692 73.4295 30.1756L70.911 30.9308ZM5.02692 28.1922L2.57735 27.2293C2.69363 26.9332 2.81374 26.6396 2.93641 26.346L5.35915 27.3717C5.24542 27.6435 5.13297 27.9166 5.02692 28.1922ZM69.7699 27.6935C69.6561 27.4165 69.5399 27.1447 69.421 26.8691L71.8297 25.8139C71.9575 26.1049 72.0814 26.3998 72.2028 26.6947L69.7699 27.6935ZM6.42612 25.0715L4.08517 23.8702C4.22956 23.5856 4.37651 23.3048 4.52857 23.0253L6.83886 24.2856C6.6983 24.5446 6.56029 24.8074 6.42612 25.0715ZM68.3157 24.5869C68.1764 24.3241 68.0346 24.0638 67.8902 23.8061L70.1788 22.5073C70.3359 22.7855 70.4893 23.0663 70.6388 23.3497L68.3157 24.5869ZM8.12945 22.0983L5.91372 20.6752C6.08495 20.4059 6.26128 20.1392 6.44018 19.8751L8.61374 21.3598C8.4489 21.6034 8.28662 21.8496 8.12945 22.0983ZM66.5664 21.638C66.4016 21.3893 66.2342 21.1419 66.0629 20.8983L68.2199 19.3866C68.4001 19.6482 68.5789 19.911 68.7553 20.1751L66.5664 21.638ZM10.1126 19.3071L8.04639 17.6763C8.24317 17.4263 8.44251 17.1788 8.64568 16.9327L10.6697 18.6161C10.4819 18.8456 10.2953 19.0738 10.1126 19.3071ZM64.5359 18.8738C64.3481 18.643 64.1577 18.4148 63.9648 18.1879L65.9633 16.475C66.169 16.7173 66.3734 16.9609 66.5728 17.2058L64.5359 18.8738ZM12.3565 16.725L10.4615 14.8954C10.6812 14.6659 10.9049 14.439 11.1298 14.2146L12.98 16.0916C12.7692 16.2993 12.5609 16.5109 12.3565 16.725ZM62.2461 16.3211C62.0378 16.1108 61.827 15.9031 61.6136 15.6967L63.437 13.7953C63.6658 14.0171 63.8932 14.2402 64.1168 14.4659L62.2461 16.3211ZM14.8444 14.3697L13.1359 12.3632C13.3774 12.1568 13.6215 11.9529 13.8668 11.7516L15.5267 13.7979C15.2967 13.9864 15.0692 14.1761 14.8444 14.3697ZM59.725 14.0095C59.4963 13.821 59.2662 13.6338 59.0324 13.4504L60.6591 11.376C60.9082 11.5734 61.1549 11.7722 61.3989 11.976L59.725 14.0095ZM17.5508 12.2658L16.0429 10.1041C16.3036 9.92207 16.5668 9.74257 16.8326 9.56564L18.2842 11.7657C18.0376 11.9299 17.7923 12.0965 17.5508 12.2658ZM56.9905 11.9517C56.7451 11.7875 56.4959 11.6234 56.2468 11.4619L57.6664 9.24127C57.9335 9.41307 58.1967 9.58615 58.4587 9.76437L56.9905 11.9517ZM20.4463 10.4426L19.1595 8.14121C19.4368 7.98607 19.7167 7.83222 19.9978 7.68221L21.227 10.0144C20.9638 10.1541 20.7044 10.2964 20.4463 10.4426ZM54.0694 10.1772C53.81 10.0362 53.548 9.89899 53.2848 9.76437L54.477 7.41169C54.7581 7.55657 55.0392 7.70529 55.3178 7.8553L54.0694 10.1772ZM23.5066 8.91048L22.4537 6.49369C22.7451 6.36548 23.0377 6.2424 23.3316 6.12188L24.3296 8.56174C24.0523 8.67457 23.7801 8.78996 23.5066 8.91048ZM50.9886 8.69637C50.7177 8.58226 50.4442 8.47071 50.1695 8.36302L51.1279 5.90777C51.4243 6.02316 51.7169 6.14239 52.007 6.26419L50.9886 8.69637ZM26.7088 7.68734L25.8936 5.17824C26.1964 5.0808 26.5006 4.98464 26.806 4.89361L27.5535 7.42451C27.2711 7.50785 26.9887 7.59503 26.7088 7.68734ZM47.7825 7.52836C47.4976 7.44118 47.2114 7.35656 46.9226 7.27322L47.6471 4.73848C47.9512 4.82438 48.2528 4.91285 48.5531 5.00516L47.7825 7.52836ZM30.0107 6.78858L29.4383 4.21537C29.75 4.14358 30.0631 4.07947 30.3787 4.01921L30.872 6.61037C30.5845 6.66678 30.2969 6.72576 30.0107 6.78858ZM44.4704 6.68088C44.1829 6.62319 43.8929 6.56549 43.6015 6.51549L44.0513 3.91664C44.3657 3.97177 44.6787 4.03075 44.9892 4.09357L44.4704 6.68088ZM33.3765 6.22317L33.0685 3.60252C33.3841 3.56534 33.6998 3.53201 34.0179 3.50252L34.2582 6.13085C33.9643 6.15778 33.6704 6.18855 33.3765 6.22317ZM41.0919 6.16419C40.7967 6.1347 40.5003 6.10778 40.2026 6.0847L40.4121 3.4538C40.7277 3.47944 41.0434 3.50637 41.3564 3.53842L41.0919 6.16419ZM36.7895 5.98854L36.7333 3.34995C36.9876 3.34482 37.2431 3.34225 37.4974 3.34225H37.6814V5.98085H37.4974C37.261 5.98085 37.0246 5.98341 36.7895 5.98854Z" fill="#4DFFFF"/>
<path d="M41.0073 80L40.7709 77.3716C49.1814 76.6088 57.1115 72.9163 63.1019 66.9698L64.9509 68.8456C58.5274 75.2203 50.0235 79.182 41.0073 80Z" fill="#609CFF"/>
<path d="M73.699 37.689C72.8262 27.9859 68.2401 19.206 60.7854 12.9647C53.3319 6.72207 43.9004 3.76294 34.2312 4.64376L33.8772 0.702536C44.598 -0.268025 55.0506 3.00778 63.3129 9.92607C71.5765 16.8444 76.6596 26.5782 77.6269 37.3338L73.699 37.689Z" fill="#609CFF"/>
<path d="M37.4733 73.9602C20.6662 73.9602 6.28951 61.0455 4.74975 43.9305C3.96133 35.1544 6.62557 26.595 12.2531 19.828C17.8806 13.0623 25.7966 8.90056 34.5432 8.10949C43.2962 7.31587 51.8205 9.99036 58.5636 15.6368C65.3079 21.2832 69.4556 29.2259 70.244 38.0033C71.8733 56.1183 58.5086 72.1896 40.4518 73.8243C39.4526 73.914 38.4584 73.9602 37.4733 73.9602ZM37.5538 9.2916C36.5941 9.2916 35.6294 9.33648 34.6621 9.42366C26.2643 10.184 18.6638 14.179 13.2613 20.6742C7.85994 27.1694 5.30176 35.3865 6.0595 43.8126C7.62355 61.2044 23.002 74.0961 40.3343 72.5101C57.6691 70.9395 70.4996 55.5131 68.9356 38.1212C68.1778 29.6952 64.1949 22.0704 57.7215 16.6497C51.9943 11.8546 44.9229 9.2916 37.5538 9.2916Z" fill="#0067E8"/>
<path d="M69.6141 40.9664H65.6695C65.6695 25.381 53.0319 12.6996 37.4976 12.6996V8.74176C55.2068 8.74176 69.6141 23.1989 69.6141 40.9664Z" fill="#0067E8"/>
<path d="M38.1557 4.66177H36.8409V0H38.1557V4.66177Z" fill="#4DFFFF"/>
<path d="M13.3072 76.3975C10.7286 74.6218 8.34291 72.5627 6.21535 70.2792C4.13507 68.0484 2.28863 65.588 0.728424 62.9673L4.11463 60.9365C5.53044 63.3161 7.20694 65.5495 9.09554 67.5765C11.0289 69.6523 13.196 71.5216 15.5383 73.1332L13.3072 76.3975Z" fill="#0067E8"/>
<path d="M37.9368 71.8706L37.9177 70.5513L38.4326 70.5397L38.471 71.859L37.9368 71.8706ZM36.5913 71.8616L36.061 71.8411L36.1185 70.5218L36.6386 70.5423L36.5913 71.8616ZM39.8114 71.7872L39.7143 70.4718L40.228 70.4295L40.3442 71.7437L39.8114 71.7872ZM34.718 71.7488L34.1903 71.6962L34.3245 70.3846L34.842 70.4359L34.718 71.7488ZM41.677 71.5924L41.5045 70.2833L42.0143 70.2115L42.2086 71.5154L41.677 71.5924ZM32.8588 71.5244L32.326 71.4398L32.5483 70.1384L33.0505 70.2218L32.8588 71.5244ZM43.5324 71.2795L43.273 69.9859L43.7815 69.8795L44.0524 71.1705L43.5324 71.2795ZM31.0085 71.1847L30.4846 71.068L30.7849 69.782L31.2871 69.8974L31.0085 71.1847ZM45.3622 70.8564L45.0249 69.5807L45.5258 69.4448L45.8733 70.7167L45.3622 70.8564ZM29.1864 70.7359L28.6714 70.5859L29.0471 69.3205L29.5416 69.4653L29.1864 70.7359ZM47.1626 70.3205L46.7486 69.0692L47.2393 68.9012L47.6712 70.1487L47.1626 70.3205ZM27.3923 70.1705L26.8889 69.991L27.3412 68.7512L27.8268 68.9268L27.3923 70.1705ZM48.9311 69.673L48.4417 68.4486L48.9196 68.2512L49.4282 69.4679L48.9311 69.673ZM25.6392 69.5L25.1536 69.2923L25.6762 68.0819L26.1528 68.2858L25.6392 69.5ZM50.6587 68.9179L50.0927 67.7268L50.5603 67.4999L51.1379 68.6845L50.6587 68.9179ZM23.9371 68.723L23.4592 68.4832L24.0598 67.3088L24.5172 67.5409L23.9371 68.723ZM52.3314 68.0589L51.6963 66.905L52.1448 66.6498L52.8004 67.7947L52.3314 68.0589ZM22.2785 67.8435L21.8198 67.5755L22.4868 66.4395L22.934 66.6998L22.2785 67.8435ZM53.9504 67.0986L53.2476 65.9831L53.6795 65.7036L54.4015 66.8062L53.9504 67.0986ZM20.6787 66.8639L20.2353 66.5678L20.9713 65.4754L21.4019 65.7613L20.6787 66.8639ZM55.508 66.0421L54.7375 64.9728L55.1515 64.6664L55.9399 65.7228L55.508 66.0421ZM19.1415 65.7882L18.716 65.4651L19.5172 64.4189L19.9261 64.7292L19.1415 65.7882ZM56.9954 64.8946L56.1648 63.8715C56.2952 63.7651 56.4255 63.6574 56.5546 63.5458L57.412 64.5459C57.274 64.6638 57.1347 64.7805 56.9954 64.8946ZM17.6746 64.6215C17.5353 64.5061 17.3985 64.3882 17.2618 64.2689L18.1307 63.2766C18.2572 63.3881 18.3863 63.4997 18.5154 63.6086L17.6746 64.6215ZM58.4138 63.6535L57.5193 62.6881L57.8912 62.3355L58.8061 63.283L58.4138 63.6535ZM16.2766 63.3663C16.145 63.2432 16.0147 63.1163 15.8869 62.9894L16.8108 62.0509C16.9321 62.1714 17.0535 62.2893 17.1762 62.406L16.2766 63.3663ZM59.7517 62.3355L58.8022 61.4226L59.1536 61.0482L60.1197 61.9445L59.7517 62.3355ZM14.9515 62.0252L14.5899 61.629L15.5674 60.7457L15.9137 61.1265L14.9515 62.0252ZM61.0077 60.9354L60.0034 60.0828L60.3343 59.6854L61.3489 60.5251L61.0077 60.9354ZM13.7146 60.6085L13.376 60.1892L14.4059 59.37L14.7292 59.7687L13.7146 60.6085ZM62.1769 59.4636L61.124 58.6725L61.4281 58.2571L62.4938 59.0302L62.1769 59.4636ZM12.5646 59.1174L12.2515 58.6802L13.3287 57.9225L13.6277 58.343L12.5646 59.1174ZM63.2541 57.9199L62.1552 57.1993L62.4325 56.766L63.5442 57.4699L63.2541 57.9199ZM11.5066 57.5596L11.2216 57.1032L12.341 56.4108L12.6144 56.848L11.5066 57.5596ZM64.2368 56.3185L63.0944 55.6646L63.3474 55.2133L64.4975 55.8518L64.2368 56.3185ZM10.5444 55.9403L10.2862 55.4621L11.4491 54.8467L11.6931 55.2967L10.5444 55.9403ZM65.1172 54.6608L63.9403 54.0761L64.1639 53.612L65.351 54.1787L65.1172 54.6608ZM9.68056 54.2594L9.45439 53.771L10.6504 53.2248L10.8689 53.6928L9.68056 54.2594ZM65.8979 52.9517L64.6853 52.4414L64.8821 51.9632L66.0998 52.4581L65.8979 52.9517ZM8.92537 52.5337L8.72731 52.0286L9.95401 51.558L10.1431 52.0337L8.92537 52.5337ZM66.5726 51.1939L65.3319 50.7593L65.4967 50.2721L66.7464 50.6824L66.5726 51.1939ZM8.27496 50.7618L8.10757 50.2439L9.36238 49.849L9.52083 50.3387L8.27496 50.7618ZM67.1374 49.399L65.8737 49.04L66.0091 48.5425L67.2793 48.8823L67.1374 49.399ZM7.73317 48.9502L7.60028 48.431L8.87554 48.1117L9.0046 48.613L7.73317 48.9502ZM67.5949 47.5707L66.3107 47.2899L66.4142 46.7873L67.7048 47.0424L67.5949 47.5707ZM7.3051 47.1181L7.20416 46.5886L8.49603 46.3526L8.59442 46.8578L7.3051 47.1181ZM67.9373 45.7193L66.6378 45.5154L66.7119 45.0064L68.0153 45.1859L67.9373 45.7193ZM6.99076 45.2603L6.92048 44.7256L8.22641 44.5667L8.29285 45.0782L6.99076 45.2603ZM68.1673 43.8487L66.8576 43.7282L66.901 43.214L68.2121 43.3115L68.1673 43.8487ZM6.78759 43.3858L6.75181 42.8486L8.06412 42.7717L8.09863 43.2858L6.78759 43.3858ZM68.2836 41.9691L66.97 41.9255L66.9815 41.4114L68.2964 41.4319L68.2836 41.9691ZM6.69942 41.505L6.69559 40.9665L8.00918 40.8498L8.01429 41.4819L6.69942 41.505ZM66.9726 40.1228L66.9534 39.6062L68.267 39.5472L68.2874 40.0844L66.9726 40.1228ZM8.0424 39.5638L6.72881 39.5023L6.7582 38.9664L8.07051 39.0497L8.0424 39.5638ZM66.8678 38.3215L66.8192 37.8099L68.1264 37.6676L68.1776 38.2048L66.8678 38.3215ZM8.18168 37.7625L6.8732 37.6279L6.93582 37.0894L8.24046 37.2548L8.18168 37.7625ZM66.6557 36.5316L66.5739 36.0214L67.8709 35.8021L67.9552 36.3329L66.6557 36.5316ZM8.42702 35.9803L7.13132 35.756L7.2246 35.229L8.51775 35.4713L8.42702 35.9803ZM66.3337 34.7572L66.2225 34.2533L67.5029 33.9546L67.6204 34.4803L66.3337 34.7572ZM8.78226 34.211L7.50189 33.911L7.62839 33.3866L8.90365 33.7123L8.78226 34.211ZM65.9043 33.0058L65.7625 32.5109L67.0211 32.1353L67.1706 32.6532L65.9043 33.0058ZM9.24482 32.4648L7.98362 32.0917L8.14335 31.575L9.39561 31.9763L9.24482 32.4648ZM65.3702 31.2865L65.1964 30.798L66.4308 30.3442L66.611 30.8506L65.3702 31.2865ZM9.81217 30.7596L8.58036 30.3006L8.7682 29.7993L9.9949 30.2736L9.81217 30.7596ZM64.7275 29.5941L64.5268 29.121L65.7293 28.5902L65.9414 29.0877L64.7275 29.5941ZM10.4817 29.089L9.27932 28.5569L9.49655 28.0684L10.6926 28.6197L10.4817 29.089ZM63.9838 27.9479L63.7525 27.4863L64.923 26.885L65.1645 27.3658L63.9838 27.9479ZM11.2523 27.4645L10.0843 26.8581L10.331 26.3863L11.4912 27.0068L11.2523 27.4645ZM63.1404 26.3504L62.8836 25.908L64.0119 25.2298L64.2841 25.6991L63.1404 26.3504ZM12.1212 25.8875L10.9916 25.2144L11.2689 24.7554L12.3882 25.4478L12.1212 25.8875ZM62.2038 24.8105L61.9201 24.381L63.0062 23.6387L63.304 24.0887L62.2038 24.8105ZM13.0859 24.3657L11.9947 23.6284L12.3014 23.1835L13.3747 23.9464L13.0859 24.3657ZM61.1739 23.3271L60.8646 22.9169L61.9048 22.1104L62.2306 22.5412L61.1739 23.3271ZM14.1363 22.9079L13.0974 22.1014L13.4284 21.6783L14.4532 22.5027L14.1363 22.9079ZM60.0583 21.9155L59.721 21.5206L60.7164 20.6565L61.0614 21.0629L60.0583 21.9155ZM15.2761 21.5181L14.2884 20.6462L14.6436 20.2462L15.6186 21.1322L15.2761 21.5181ZM58.8572 20.5693L58.4994 20.1988L59.4373 19.2731L59.8104 19.6603L58.8572 20.5693ZM16.5028 20.1911L15.5623 19.2705C15.6888 19.1398 15.8166 19.0115 15.9457 18.8859L16.8644 19.8308C16.7418 19.9501 16.6229 20.0693 16.5028 20.1911ZM57.5794 19.3026L57.2037 18.959L58.0752 17.9717L58.4738 18.3371L57.5794 19.3026ZM17.8062 18.9449L16.9194 17.9679C17.0535 17.8461 17.1903 17.7281 17.3257 17.6089L18.1857 18.6064C18.0579 18.7167 17.9301 18.8308 17.8062 18.9449ZM56.2249 18.1141C56.0958 18.0064 55.9642 17.8987 55.8313 17.7948L56.6415 16.7563C56.7846 16.8678 56.9251 16.9832 57.0644 17.0986L56.2249 18.1141ZM19.176 17.7846L18.3569 16.7512L18.7824 16.4191L19.5798 17.4679L19.176 17.7846ZM54.8065 17.0102L54.3887 16.7127L55.1426 15.6306L55.5796 15.9434L54.8065 17.0102ZM20.6186 16.7037L19.8622 15.6268L20.3068 15.3191L21.0403 16.414L20.6186 16.7037ZM53.3217 15.9973L52.8872 15.7255L53.5747 14.5998L54.0283 14.8844L53.3217 15.9973ZM22.1239 15.7139L21.4339 14.5908C21.5872 14.4959 21.7431 14.4023 21.899 14.3113L22.5622 15.4498L22.1239 15.7139ZM51.7794 15.078L51.3283 14.8318L51.9481 13.6677L52.417 13.9228L51.7794 15.078ZM23.6854 14.8203L23.0695 13.6561L23.5461 13.4074L24.1416 14.5818L23.6854 14.8203ZM50.1834 14.251L49.7195 14.0331L50.269 12.8343L50.7533 13.0625L50.1834 14.251ZM25.2993 14.0215L24.76 12.8176L25.2507 12.601L25.7708 13.8113L25.2993 14.0215ZM48.5452 13.5267L48.0661 13.3369L48.5401 12.1061L49.0372 12.3022L48.5452 13.5267ZM26.9604 13.3241L26.4991 12.0907L26.9975 11.9035L27.4498 13.1433L26.9604 13.3241ZM46.8598 12.9048L46.3666 12.742L46.7691 11.4881L47.2751 11.6522L46.8598 12.9048ZM28.6637 12.7305L28.2766 11.4701L28.7851 11.315L29.1608 12.5792L28.6637 12.7305ZM45.1386 12.3843L44.6351 12.2522L44.9635 10.974L45.4772 11.1086L45.1386 12.3843ZM30.3952 12.2433L30.086 10.9611L30.606 10.8381L30.8948 12.124L30.3952 12.2433ZM43.388 11.9714L42.882 11.8727L43.1235 10.5765L43.6487 10.6778L43.388 11.9714ZM32.1573 11.865L31.9158 10.5688L32.4486 10.4765L32.6595 11.7778L32.1573 11.865ZM41.6157 11.6663L41.1058 11.5984L41.2694 10.2893L41.7997 10.3598L41.6157 11.6663ZM33.9309 11.5932L33.775 10.2842L34.3078 10.2252L34.442 11.5368L33.9309 11.5932ZM39.828 11.4701L39.3143 11.4342L39.3999 10.1175L39.9341 10.1573L39.828 11.4701ZM35.7173 11.4317L35.6495 10.1162L36.1786 10.088L36.2361 11.4073L35.7173 11.4317ZM38.0352 11.3855L37.5139 11.3804L37.5254 10.0611L38.0544 10.0662L38.0352 11.3855Z" fill="#4DFFFF"/>


</svg>