<svg viewBox="0 0 78 80" fill="none" xmlns="http://www.w3.org/2000/svg">
<path d="M40.1295 78.5909L40.1896 75.9523H40.1295C39.8522 75.9523 39.5762 75.9484 39.299 75.942L39.2402 78.5806C39.5353 78.587 39.8331 78.5909 40.1295 78.5909ZM42.9088 78.4883C43.2269 78.4665 43.5438 78.4383 43.8595 78.4075L43.6052 75.7818C43.3126 75.81 43.0187 75.8356 42.7235 75.8587L42.9088 78.4883ZM36.521 78.4178L36.774 75.792C36.4763 75.7625 36.1811 75.7305 35.8872 75.6958L35.578 78.3165C35.891 78.3537 36.2054 78.3883 36.521 78.4178ZM46.5569 78.0396C46.8726 77.9857 47.1869 77.9254 47.5 77.8626L46.9824 75.2766C46.6949 75.333 46.4061 75.3881 46.1174 75.4369L46.5569 78.0396ZM32.8843 77.8883L33.3891 75.2984C33.0977 75.242 32.8089 75.1817 32.5227 75.1176L31.949 77.6908C32.2582 77.7613 32.57 77.8267 32.8843 77.8883ZM50.1501 77.2331C50.4555 77.1472 50.7609 77.0575 51.0625 76.9664L50.3009 74.4407C50.0185 74.5278 49.7336 74.6099 49.4473 74.6894L50.1501 77.2331ZM29.3154 77.0023L30.0706 74.474C29.7869 74.3894 29.5045 74.2996 29.2234 74.206L28.4005 76.7139C28.7046 76.8139 29.0087 76.91 29.3154 77.0023ZM53.6411 76.0728C53.9363 75.9587 54.2289 75.8394 54.5203 75.7189L53.5133 73.2816C53.2412 73.3957 52.9664 73.506 52.6917 73.6124L53.6411 76.0728ZM25.8461 75.7638L26.8441 73.3239C26.5719 73.2111 26.2998 73.0944 26.0301 72.9752L24.9632 75.3869C25.2545 75.5163 25.5497 75.6433 25.8461 75.7638ZM56.9928 74.5791C57.2765 74.4355 57.5602 74.2881 57.84 74.1368L56.5942 71.8136C56.3348 71.9534 56.0754 72.0893 55.8121 72.2213L56.9928 74.5791ZM22.5123 74.1868L23.7505 71.861C23.4886 71.72 23.2305 71.5777 22.9736 71.4303L21.6754 73.7265C21.9514 73.8829 22.2312 74.0368 22.5123 74.1868ZM60.1886 72.7585C60.457 72.588 60.7228 72.4149 60.986 72.2367L59.5203 70.0469C59.2763 70.2122 59.0284 70.3725 58.7792 70.5328L60.1886 72.7585ZM19.3536 72.2918L20.8154 70.0994C20.5675 69.934 20.3234 69.7661 20.0806 69.5955L18.5703 71.7533C18.8284 71.9354 19.0903 72.1162 19.3536 72.2918ZM63.1889 70.6366C63.4407 70.4417 63.6886 70.2417 63.9339 70.0379L62.2625 68.0019C62.0351 68.1903 61.8051 68.375 61.5725 68.557L63.1889 70.6366ZM16.3993 70.0994L18.063 68.057C17.8343 67.8685 17.6081 67.6775 17.3845 67.4839L15.6684 69.484C15.9099 69.693 16.1539 69.8994 16.3993 70.0994ZM65.9733 68.2262C66.2033 68.007 66.4308 67.7852 66.6544 67.5595L64.7952 65.6941C64.5856 65.9043 64.3748 66.1133 64.1601 66.3172L65.9733 68.2262ZM13.6686 67.6236L15.5278 65.7582C15.317 65.5466 15.1087 65.3338 14.9029 65.1184L13.0054 66.9454C13.2239 67.1736 13.445 67.3993 13.6686 67.6236ZM68.5072 65.5594C68.7168 65.3184 68.9225 65.0735 69.1244 64.8248L67.0901 63.1529C66.9035 63.3811 66.7144 63.6068 66.5215 63.8286L68.5072 65.5594ZM11.196 64.8992L13.2239 63.2196C13.0361 62.9914 12.8508 62.7606 12.6693 62.5272L10.5993 64.153C10.7948 64.4043 10.9928 64.653 11.196 64.8992ZM70.7766 62.6516C70.9593 62.3901 71.1395 62.1272 71.3171 61.8618L69.1308 60.3951C68.9659 60.6425 68.7973 60.8874 68.626 61.131L70.7766 62.6516ZM8.99689 61.9439L11.1794 60.4733C11.0146 60.2258 10.8523 59.9771 10.6926 59.7271L8.4781 61.149C8.64806 61.4144 8.82056 61.681 8.99689 61.9439ZM72.747 59.5399C72.9054 59.2617 73.0588 58.9809 73.2096 58.6976L70.8929 57.4526C70.7536 57.7142 70.6105 57.9745 70.4648 58.2283L72.747 59.5399ZM7.09807 58.7886L9.41346 57.5398C9.2729 57.2783 9.13745 57.0154 9.00328 56.7513L6.65722 57.9437C6.80161 58.2283 6.94856 58.5104 7.09807 58.7886ZM74.4094 56.2398C74.5385 55.9474 74.6637 55.6551 74.7864 55.3589L72.3573 54.3486C72.2422 54.6243 72.126 54.8987 72.0046 55.1705L74.4094 56.2398ZM5.51741 55.4654L7.94398 54.4474C7.83025 54.1755 7.72036 53.9012 7.61302 53.6242L5.16346 54.5833C5.27846 54.8781 5.39602 55.173 5.51741 55.4654ZM75.7371 52.7921C75.8367 52.4896 75.9326 52.1844 76.0259 51.8767L73.5086 51.1139C73.4229 51.3985 73.3335 51.6831 73.2402 51.9652L75.7371 52.7921ZM4.27026 51.9998L6.78372 51.2241C6.69811 50.9421 6.61505 50.6587 6.53583 50.3741L4.00192 51.078C4.08754 51.3882 4.17699 51.6947 4.27026 51.9998ZM76.7197 49.2317C76.7874 48.9227 76.8539 48.6125 76.9152 48.2996L74.3353 47.7868C74.2778 48.0791 74.2165 48.3714 74.1526 48.6599L76.7197 49.2317ZM3.36813 48.4214L5.94548 47.9009C5.88798 47.6098 5.83303 47.3175 5.78192 47.0252L3.19179 47.4842C3.24673 47.797 3.30552 48.1099 3.36813 48.4214ZM77.3446 45.6008C77.3842 45.2841 77.4199 44.9661 77.4493 44.6482L74.8324 44.3943C74.8043 44.6879 74.7723 44.9815 74.7365 45.2751L77.3446 45.6008ZM2.82123 44.7751L5.43819 44.5097C5.40752 44.2161 5.38197 43.9212 5.36024 43.625L2.73817 43.8186C2.76117 44.1379 2.78928 44.4584 2.82123 44.7751ZM77.6155 41.9237C77.6231 41.6057 77.627 41.2877 77.627 40.9659V40.7082L74.9972 40.7287V40.9659C74.9972 41.2647 74.9934 41.5621 74.987 41.857L77.6155 41.9237ZM5.26185 41.0877V40.9454C5.26185 40.7082 5.2644 40.4505 5.27079 40.1941L2.64105 40.1377C2.63467 40.4108 2.63211 40.689 2.63211 40.9659L5.26185 41.0877ZM74.8899 38.1876L77.5107 37.9786C77.4851 37.6606 77.457 37.3439 77.4238 37.0285L74.8094 37.2991C74.8388 37.594 74.8656 37.8901 74.8899 38.1876ZM5.41518 37.6568C5.4433 37.3606 5.47524 37.0657 5.50974 36.7721L2.8979 36.4606C2.86084 36.7747 2.82761 37.0926 2.79694 37.4093L5.41518 37.6568ZM74.4554 34.7861L77.0443 34.322C76.988 34.0079 76.9293 33.695 76.8641 33.3822L74.2893 33.9117C74.3481 34.2015 74.4043 34.4951 74.4554 34.7861ZM5.90203 34.2617C5.95698 33.9707 6.01704 33.6822 6.08092 33.3937L3.51508 32.8181C3.4448 33.1309 3.38091 33.445 3.31957 33.7591L5.90203 34.2617ZM73.6913 31.4424L76.2214 30.7269C76.1345 30.4192 76.045 30.1128 75.9505 29.809L73.4383 30.5885C73.5252 30.8731 73.6108 31.1577 73.6913 31.4424ZM6.716 30.9308C6.80161 30.6449 6.88978 30.3615 6.98178 30.0795L4.48238 29.2628C4.38399 29.5654 4.28943 29.8692 4.19743 30.1756L6.716 30.9308ZM72.6 28.1922L75.0496 27.2293C74.9333 26.9332 74.8132 26.6396 74.6905 26.346L72.2678 27.3717C72.3815 27.6435 72.494 27.9166 72.6 28.1922ZM7.85709 27.6935C7.97081 27.4165 8.08709 27.1447 8.20593 26.8691L5.79725 25.8139C5.66947 26.1049 5.54552 26.3998 5.42413 26.6947L7.85709 27.6935ZM71.2008 25.0715L73.5418 23.8702C73.3974 23.5856 73.2504 23.3048 73.0984 23.0253L70.7881 24.2856C70.9287 24.5446 71.0667 24.8074 71.2008 25.0715ZM9.31123 24.5869C9.45052 24.3241 9.59235 24.0638 9.73675 23.8061L7.44819 22.5073C7.29102 22.7855 7.13768 23.0663 6.98817 23.3497L9.31123 24.5869ZM69.4975 22.0983L71.7132 20.6752C71.542 20.4059 71.3657 20.1392 71.1868 19.8751L69.0132 21.3598C69.1781 21.6034 69.3403 21.8496 69.4975 22.0983ZM11.0606 21.638C11.2254 21.3893 11.3928 21.1419 11.564 20.8983L9.40707 19.3866C9.2269 19.6482 9.048 19.911 8.87167 20.1751L11.0606 21.638ZM67.5143 19.3071L69.5806 17.6763C69.3838 17.4263 69.1844 17.1788 68.9813 16.9327L66.9572 18.6161C67.1451 18.8456 67.3316 19.0738 67.5143 19.3071ZM13.091 18.8738C13.2788 18.643 13.4692 18.4148 13.6622 18.1879L11.6637 16.475C11.458 16.7173 11.2535 16.9609 11.0542 17.2058L13.091 18.8738ZM65.2705 16.725L67.1655 14.8954C66.9457 14.6659 66.7221 14.439 66.4972 14.2146L64.6469 16.0916C64.8578 16.2993 65.0661 16.5109 65.2705 16.725ZM15.3808 16.3211C15.5891 16.1108 15.8 15.9031 16.0134 15.6967L14.1899 13.7953C13.9612 14.0171 13.7337 14.2402 13.5101 14.4659L15.3808 16.3211ZM62.7826 14.3697L64.491 12.3632C64.2495 12.1568 64.0055 11.9529 63.7601 11.7516L62.1002 13.7979C62.3303 13.9864 62.5577 14.1761 62.7826 14.3697ZM17.902 14.0095C18.1307 13.821 18.3607 13.6338 18.5945 13.4504L16.9679 11.376C16.7187 11.5734 16.4721 11.7722 16.228 11.976L17.902 14.0095ZM60.0762 12.2658L61.584 10.1041C61.3233 9.92207 61.0601 9.74257 60.7943 9.56564L59.3427 11.7657C59.5893 11.9299 59.8347 12.0965 60.0762 12.2658ZM20.6365 11.9517C20.8818 11.7875 21.131 11.6234 21.3802 11.4619L19.9605 9.24127C19.6935 9.41307 19.4302 9.58615 19.1683 9.76437L20.6365 11.9517ZM57.1807 10.4426L58.4674 8.14121C58.1901 7.98607 57.9103 7.83222 57.6292 7.68221L56.3999 10.0144C56.6632 10.1541 56.9226 10.2964 57.1807 10.4426ZM23.5576 10.1772C23.817 10.0362 24.0789 9.89899 24.3422 9.76437L23.15 7.41169C22.8688 7.55657 22.5877 7.70529 22.3092 7.8553L23.5576 10.1772ZM54.1203 8.91048L55.1732 6.49369C54.8819 6.36548 54.5893 6.2424 54.2954 6.12188L53.2974 8.56174C53.5747 8.67457 53.8469 8.78996 54.1203 8.91048ZM26.6384 8.69637C26.9093 8.58226 27.1827 8.47071 27.4575 8.36302L26.4991 5.90777C26.2026 6.02316 25.91 6.14239 25.62 6.26419L26.6384 8.69637ZM50.9181 7.68734L51.7334 5.17824C51.4305 5.0808 51.1264 4.98464 50.821 4.89361L50.0735 7.42451C50.3559 7.50785 50.6383 7.59503 50.9181 7.68734ZM29.8444 7.52836C30.1294 7.44118 30.4156 7.35656 30.7044 7.27322L29.9799 4.73848C29.6757 4.82438 29.3742 4.91285 29.0739 5.00516L29.8444 7.52836ZM47.6162 6.78858L48.1887 4.21537C47.8769 4.14358 47.5638 4.07947 47.2482 4.01921L46.755 6.61037C47.0425 6.66678 47.33 6.72576 47.6162 6.78858ZM33.1565 6.68088C33.444 6.62319 33.7341 6.56549 34.0254 6.51549L33.5756 3.91664C33.2613 3.97177 32.9482 4.03075 32.6377 4.09357L33.1565 6.68088ZM44.2505 6.22317L44.5584 3.60252C44.2428 3.56534 43.9272 3.53201 43.609 3.50252L43.3688 6.13085C43.6627 6.15778 43.9566 6.18855 44.2505 6.22317ZM36.535 6.16419C36.8302 6.1347 37.1267 6.10778 37.4244 6.0847L37.2148 3.4538C36.8992 3.47944 36.5836 3.50637 36.2705 3.53842L36.535 6.16419ZM40.8374 5.98854L40.8937 3.34995C40.6394 3.34482 40.3838 3.34225 40.1295 3.34225H39.9455V5.98085H40.1295C40.3659 5.98085 40.6023 5.98341 40.8374 5.98854Z" fill="#4DFFFF"/>
<path d="M36.6197 80L36.8561 77.3716C28.4455 76.6088 20.5154 72.9163 14.525 66.9698L12.676 68.8456C19.0996 75.2203 27.6034 79.182 36.6197 80Z" fill="#609CFF"/>
<path d="M3.928 37.689C4.80075 27.9859 9.38682 19.206 16.8416 12.9647C24.2951 6.72207 33.7266 3.76294 43.3958 4.64376L43.7498 0.702536C33.0289 -0.268025 22.5764 3.00778 14.3141 9.92607C6.05045 16.8444 0.967308 26.5782 3.8147e-06 37.3338L3.928 37.689Z" fill="#609CFF"/>
<path d="M40.1537 73.9602C56.9608 73.9602 71.3374 61.0455 72.8772 43.9305C73.6656 35.1544 71.0014 26.595 65.3739 19.828C59.7464 13.0623 51.8304 8.90056 43.0837 8.10949C34.3307 7.31587 25.8064 9.99036 19.0634 15.6368C12.3191 21.2832 8.17132 29.2259 7.38291 38.0033C5.7537 56.1183 19.1183 72.1896 37.1751 73.8243C38.1744 73.914 39.1685 73.9602 40.1537 73.9602ZM40.0732 9.2916C41.0328 9.2916 41.9976 9.33648 42.9649 9.42366C51.3627 10.184 58.9631 14.179 64.3657 20.6742C69.767 27.1694 72.3252 35.3865 71.5674 43.8126C70.0034 61.2044 54.6249 74.0961 37.2927 72.5101C19.9579 70.9395 7.12735 55.5131 8.69139 38.1212C9.44913 29.6952 13.4321 22.0704 19.9055 16.6497C25.6326 11.8546 32.7041 9.2916 40.0732 9.2916Z" fill="#0067E8"/>
<path d="M8.01285 40.9664H11.9575C11.9575 25.381 24.595 12.6996 40.1294 12.6996V8.74176C22.4202 8.74176 8.01285 23.1989 8.01285 40.9664Z" fill="#0067E8"/>
<path d="M39.4712 4.66177H40.7861V0H39.4712V4.66177Z" fill="#4DFFFF"/>
<path d="M64.3197 76.3975C66.8984 74.6218 69.284 72.5627 71.4116 70.2792C73.4919 68.0484 75.3383 65.588 76.8985 62.9673L73.5123 60.9365C72.0965 63.3161 70.42 65.5495 68.5314 67.5765C66.5981 69.6523 64.4309 71.5216 62.0887 73.1332L64.3197 76.3975Z" fill="#0067E8"/>
<path d="M39.6901 71.8706L39.7093 70.5513L39.1943 70.5397L39.156 71.859L39.6901 71.8706ZM41.0357 71.8616L41.5659 71.8411L41.5084 70.5218L40.9884 70.5423L41.0357 71.8616ZM37.8156 71.7872L37.9127 70.4718L37.399 70.4295L37.2827 71.7437L37.8156 71.7872ZM42.9089 71.7488L43.4367 71.6962L43.3025 70.3846L42.785 70.4359L42.9089 71.7488ZM35.95 71.5924L36.1225 70.2833L35.6126 70.2115L35.4184 71.5154L35.95 71.5924ZM44.7681 71.5244L45.301 71.4398L45.0787 70.1384L44.5765 70.2218L44.7681 71.5244ZM34.0946 71.2795L34.354 69.9859L33.8454 69.8795L33.5745 71.1705L34.0946 71.2795ZM46.6184 71.1847L47.1423 71.068L46.842 69.782L46.3399 69.8974L46.6184 71.1847ZM32.2647 70.8564L32.6021 69.5807L32.1012 69.4448L31.7536 70.7167L32.2647 70.8564ZM48.4406 70.7359L48.9555 70.5859L48.5799 69.3205L48.0854 69.4653L48.4406 70.7359ZM30.4643 70.3205L30.8783 69.0692L30.3876 68.9012L29.9557 70.1487L30.4643 70.3205ZM50.2346 70.1705L50.7381 69.991L50.2857 68.7512L49.8002 68.9268L50.2346 70.1705ZM28.6958 69.673L29.1852 68.4486L28.7073 68.2512L28.1987 69.4679L28.6958 69.673ZM51.9878 69.5L52.4734 69.2923L51.9507 68.0819L51.4741 68.2858L51.9878 69.5ZM26.9682 68.9179L27.5343 67.7268L27.0666 67.4999L26.489 68.6845L26.9682 68.9179ZM53.6898 68.723L54.1677 68.4832L53.5672 67.3088L53.1097 67.5409L53.6898 68.723ZM25.2956 68.0589L25.9306 66.905L25.4821 66.6498L24.8266 67.7947L25.2956 68.0589ZM55.3484 67.8435L55.8072 67.5755L55.1402 66.4395L54.6929 66.6998L55.3484 67.8435ZM23.6766 67.0986L24.3794 65.9831L23.9475 65.7036L23.2255 66.8062L23.6766 67.0986ZM56.9483 66.8639L57.3917 66.5678L56.6556 65.4754L56.225 65.7613L56.9483 66.8639ZM22.1189 66.0421L22.8894 64.9728L22.4754 64.6664L21.687 65.7228L22.1189 66.0421ZM58.4855 65.7882L58.911 65.4651L58.1098 64.4189L57.7009 64.7292L58.4855 65.7882ZM20.6315 64.8946L21.4621 63.8715C21.3318 63.7651 21.2014 63.6574 21.0724 63.5458L20.215 64.5459C20.353 64.6638 20.4923 64.7805 20.6315 64.8946ZM59.9524 64.6215C60.0917 64.5061 60.2284 64.3882 60.3651 64.2689L59.4962 63.2766C59.3697 63.3881 59.2407 63.4997 59.1116 63.6086L59.9524 64.6215ZM19.2132 63.6535L20.1076 62.6881L19.7358 62.3355L18.8209 63.283L19.2132 63.6535ZM61.3503 63.3663C61.4819 63.2432 61.6123 63.1163 61.7401 62.9894L60.8162 62.0509C60.6948 62.1714 60.5734 62.2893 60.4507 62.406L61.3503 63.3663ZM17.8753 62.3355L18.8247 61.4226L18.4733 61.0482L17.5073 61.9445L17.8753 62.3355ZM62.6754 62.0252L63.037 61.629L62.0595 60.7457L61.7132 61.1265L62.6754 62.0252ZM16.6192 60.9354L17.6236 60.0828L17.2926 59.6854L16.278 60.5251L16.6192 60.9354ZM63.9123 60.6085L64.251 60.1892L63.221 59.37L62.8978 59.7687L63.9123 60.6085ZM15.45 59.4636L16.5029 58.6725L16.1988 58.2571L15.1331 59.0302L15.45 59.4636ZM65.0624 59.1174L65.3754 58.6802L64.2982 57.9225L63.9992 58.343L65.0624 59.1174ZM14.3728 57.9199L15.4717 57.1993L15.1944 56.766L14.0828 57.4699L14.3728 57.9199ZM66.1204 57.5596L66.4054 57.1032L65.286 56.4108L65.0125 56.848L66.1204 57.5596ZM13.3902 56.3185L14.5325 55.6646L14.2795 55.2133L13.1295 55.8518L13.3902 56.3185ZM67.0826 55.9403L67.3407 55.4621L66.1779 54.8467L65.9338 55.2967L67.0826 55.9403ZM12.5098 54.6608L13.6866 54.0761L13.463 53.612L12.2759 54.1787L12.5098 54.6608ZM67.9464 54.2594L68.1726 53.771L66.9765 53.2248L66.758 53.6928L67.9464 54.2594ZM11.729 52.9517L12.9417 52.4414L12.7449 51.9632L11.5271 52.4581L11.729 52.9517ZM68.7016 52.5337L68.8996 52.0286L67.6729 51.558L67.4838 52.0337L68.7016 52.5337ZM11.0543 51.1939L12.2951 50.7593L12.1303 50.2721L10.8806 50.6824L11.0543 51.1939ZM69.352 50.7618L69.5194 50.2439L68.2646 49.849L68.1061 50.3387L69.352 50.7618ZM10.4895 49.399L11.7533 49.04L11.6179 48.5425L10.3477 48.8823L10.4895 49.399ZM69.8938 48.9502L70.0267 48.431L68.7514 48.1117L68.6224 48.613L69.8938 48.9502ZM10.0321 47.5707L11.3163 47.2899L11.2128 46.7873L9.92219 47.0424L10.0321 47.5707ZM70.3218 47.1181L70.4228 46.5886L69.1309 46.3526L69.0325 46.8578L70.3218 47.1181ZM9.68963 45.7193L10.9892 45.5154L10.9151 45.0064L9.61168 45.1859L9.68963 45.7193ZM70.6362 45.2603L70.7065 44.7256L69.4005 44.5667L69.3341 45.0782L70.6362 45.2603ZM9.45963 43.8487L10.7694 43.7282L10.7259 43.214L9.4149 43.3115L9.45963 43.8487ZM70.8394 43.3858L70.8751 42.8486L69.5628 42.7717L69.5283 43.2858L70.8394 43.3858ZM9.34334 41.9691L10.6569 41.9255L10.6454 41.4114L9.33056 41.4319L9.34334 41.9691ZM70.9275 41.505L70.9314 40.9665L69.6178 40.8498L69.6127 41.4819L70.9275 41.505ZM10.6544 40.1228L10.6735 39.6062L9.35995 39.5472L9.33951 40.0844L10.6544 40.1228ZM69.5846 39.5638L70.8981 39.5023L70.8688 38.9664L69.5564 39.0497L69.5846 39.5638ZM10.7592 38.3215L10.8077 37.8099L9.50051 37.6676L9.4494 38.2048L10.7592 38.3215ZM69.4453 37.7625L70.7537 37.6279L70.6911 37.0894L69.3865 37.2548L69.4453 37.7625ZM10.9713 36.5316L11.0531 36.0214L9.75608 35.8021L9.67174 36.3329L10.9713 36.5316ZM69.1999 35.9803L70.4956 35.756L70.4024 35.229L69.1092 35.4713L69.1999 35.9803ZM11.2933 34.7572L11.4045 34.2533L10.1241 33.9546L10.0065 34.4803L11.2933 34.7572ZM68.8447 34.211L70.1251 33.911L69.9986 33.3866L68.7233 33.7123L68.8447 34.211ZM11.7226 33.0058L11.8645 32.5109L10.6058 32.1353L10.4563 32.6532L11.7226 33.0058ZM68.3821 32.4648L69.6433 32.0917L69.4836 31.575L68.2313 31.9763L68.3821 32.4648ZM12.2568 31.2865L12.4305 30.798L11.1962 30.3442L11.016 30.8506L12.2568 31.2865ZM67.8148 30.7596L69.0466 30.3006L68.8588 29.7993L67.6321 30.2736L67.8148 30.7596ZM12.8995 29.5941L13.1001 29.121L11.8977 28.5902L11.6856 29.0877L12.8995 29.5941ZM67.1452 29.089L68.3476 28.5569L68.1304 28.0684L66.9344 28.6197L67.1452 29.089ZM13.6432 27.9479L13.8745 27.4863L12.704 26.885L12.4625 27.3658L13.6432 27.9479ZM66.3747 27.4645L67.5426 26.8581L67.296 26.3863L66.1357 27.0068L66.3747 27.4645ZM14.4865 26.3504L14.7434 25.908L13.6151 25.2298L13.3429 25.6991L14.4865 26.3504ZM65.5058 25.8875L66.6354 25.2144L66.3581 24.7554L65.2387 25.4478L65.5058 25.8875ZM15.4232 24.8105L15.7069 24.381L14.6207 23.6387L14.323 24.0887L15.4232 24.8105ZM64.541 24.3657L65.6323 23.6284L65.3256 23.1835L64.2522 23.9464L64.541 24.3657ZM16.4531 23.3271L16.7623 22.9169L15.7222 22.1104L15.3963 22.5412L16.4531 23.3271ZM63.4907 22.9079L64.5295 22.1014L64.1986 21.6783L63.1738 22.5027L63.4907 22.9079ZM17.5686 21.9155L17.906 21.5206L16.9105 20.6565L16.5655 21.0629L17.5686 21.9155ZM62.3509 21.5181L63.3386 20.6462L62.9834 20.2462L62.0084 21.1322L62.3509 21.5181ZM18.7698 20.5693L19.1276 20.1988L18.1896 19.2731L17.8165 19.6603L18.7698 20.5693ZM61.1242 20.1911L62.0646 19.2705C61.9381 19.1398 61.8103 19.0115 61.6813 18.8859L60.7625 19.8308C60.8852 19.9501 61.004 20.0693 61.1242 20.1911ZM20.0476 19.3026L20.4233 18.959L19.5518 17.9717L19.1531 18.3371L20.0476 19.3026ZM59.8208 18.9449L60.7076 17.9679C60.5734 17.8461 60.4367 17.7281 60.3012 17.6089L59.4413 18.6064C59.5691 18.7167 59.6968 18.8308 59.8208 18.9449ZM21.4021 18.1141C21.5311 18.0064 21.6627 17.8987 21.7956 17.7948L20.9855 16.7563C20.8424 16.8678 20.7018 16.9832 20.5625 17.0986L21.4021 18.1141ZM58.451 17.7846L59.27 16.7512L58.8445 16.4191L58.0472 17.4679L58.451 17.7846ZM22.8204 17.0102L23.2383 16.7127L22.4844 15.6306L22.0474 15.9434L22.8204 17.0102ZM57.0083 16.7037L57.7648 15.6268L57.3201 15.3191L56.5866 16.414L57.0083 16.7037ZM24.3053 15.9973L24.7397 15.7255L24.0522 14.5998L23.5986 14.8844L24.3053 15.9973ZM55.5031 15.7139L56.1931 14.5908C56.0397 14.4959 55.8838 14.4023 55.7279 14.3113L55.0648 15.4498L55.5031 15.7139ZM25.8476 15.078L26.2986 14.8318L25.6789 13.6677L25.2099 13.9228L25.8476 15.078ZM53.9416 14.8203L54.5575 13.6561L54.0808 13.4074L53.4854 14.5818L53.9416 14.8203ZM27.4436 14.251L27.9074 14.0331L27.3579 12.8343L26.8737 13.0625L27.4436 14.251ZM52.3277 14.0215L52.8669 12.8176L52.3762 12.601L51.8562 13.8113L52.3277 14.0215ZM29.0817 13.5267L29.5609 13.3369L29.0868 12.1061L28.5898 12.3022L29.0817 13.5267ZM50.6665 13.3241L51.1278 12.0907L50.6295 11.9035L50.1771 13.1433L50.6665 13.3241ZM30.7672 12.9048L31.2604 12.742L30.8579 11.4881L30.3519 11.6522L30.7672 12.9048ZM48.9632 12.7305L49.3504 11.4701L48.8418 11.315L48.4661 12.5792L48.9632 12.7305ZM32.4884 12.3843L32.9918 12.2522L32.6634 10.974L32.1497 11.1086L32.4884 12.3843ZM47.2318 12.2433L47.541 10.9611L47.0209 10.8381L46.7321 12.124L47.2318 12.2433ZM34.239 11.9714L34.745 11.8727L34.5035 10.5765L33.9783 10.6778L34.239 11.9714ZM45.4697 11.865L45.7112 10.5688L45.1783 10.4765L44.9675 11.7778L45.4697 11.865ZM36.0113 11.6663L36.5211 11.5984L36.3576 10.2893L35.8273 10.3598L36.0113 11.6663ZM43.6961 11.5932L43.852 10.2842L43.3191 10.2252L43.1849 11.5368L43.6961 11.5932ZM37.799 11.4701L38.3126 11.4342L38.227 10.1175L37.6929 10.1573L37.799 11.4701ZM41.9097 11.4317L41.9774 10.1162L41.4484 10.088L41.3909 11.4073L41.9097 11.4317ZM39.5917 11.3855L40.1131 11.3804L40.1016 10.0611L39.5726 10.0662L39.5917 11.3855Z" fill="#4DFFFF"/>
</svg>
