<svg viewBox="0 0 25 35" fill="none" xmlns="http://www.w3.org/2000/svg">
<path fill-rule="evenodd" clip-rule="evenodd" d="M0 23.6568C0 28.1839 1.53038 31.1727 5.12482 33.3336C5.62449 33.6344 6.09668 33.9261 6.64082 34.1694C7.18495 34.4114 7.78795 34.5906 8.29939 34.8613C8.07833 34.0321 5.11828 32.1694 5.11828 29.3284C5.11828 26.7726 5.3825 26.0126 6.54795 23.7039C6.96128 22.8851 8.13981 20.3345 8.16205 19.3679C9.81931 19.81 10.5937 23.1899 10.9285 24.6248C12.5675 22.7386 14.1999 16.761 13.9186 14.451C13.8375 13.7865 13.8336 13.3078 13.8336 12.5897C14.9088 13.3091 17.0566 15.8702 17.8205 17.0409C21.3691 22.4744 21.4136 29.2669 16.8434 33.8594C15.8571 34.8496 15.933 34.3931 15.7708 35C17.2371 34.6586 18.0899 34.4859 19.2567 33.7835L21.3233 32.2532C22.8995 30.8209 24.6248 27.6385 24.6248 24.6248C24.6248 20.791 24.1879 18.9153 22.906 15.8297C22.0768 13.8336 20.5124 11.491 19.2318 9.82061C17.3483 7.36415 14.5151 4.51005 12.3477 2.3165L9.82192 0C7.21242 11.1993 0 16.6184 0 23.6568Z" fill="#FEFEFE"/>
</svg>
