<svg viewBox="0 0 135 135" fill="none" xmlns="http://www.w3.org/2000/svg">
<path d="M67.5005 123.43L60.8205 135H74.1805L67.5005 123.43Z" fill="#609CFF"/>
<path d="M67.5005 11.5694L74.1805 0H60.8205L67.5005 11.5694Z" fill="#609CFF"/>
<path d="M11.5706 67.4991L0 60.8191V74.179L11.5706 67.4991Z" fill="#609CFF"/>
<path d="M123.43 67.4991L135 74.179V60.8191L123.43 67.4991Z" fill="#609CFF"/>
<path d="M96.7203 96.7192L99.2748 106.255L106.254 99.2737L96.7203 96.7192Z" fill="#0067E8"/>
<path d="M38.2812 38.2796L35.7266 28.7455L28.7458 35.7251L38.2812 38.2796Z" fill="#0067E8"/>
<path d="M38.2812 96.7192L28.7458 99.2737L35.7266 106.255L38.2812 96.7192Z" fill="#0067E8"/>
<path d="M96.7203 38.2796L106.254 35.7251L99.2748 28.7455L96.7203 38.2796Z" fill="#0067E8"/>
<path d="M5.24396 54.6552C5.45882 53.6071 5.69995 52.5698 5.96496 51.542L11.8332 53.0616C11.5921 53.9879 11.3748 54.9262 11.1815 55.8716L5.24396 54.6552ZM7.33653 46.9534C7.68151 45.9423 8.04917 44.9432 8.44309 43.9572L14.0726 46.2026C13.7181 47.0943 13.385 47.9967 13.0723 48.9111L7.33653 46.9534ZM10.3817 39.5787C10.8496 38.6237 11.3402 37.6831 11.8535 36.7568L17.156 39.6897C16.6916 40.5301 16.2476 41.3836 15.8214 42.249L10.3817 39.5787ZM14.3281 32.6564C14.913 31.7683 15.5182 30.8945 16.1437 30.0374L21.0391 33.6113C20.4733 34.3884 19.9242 35.1799 19.3954 35.9844L14.3281 32.6564ZM19.1125 26.2844C19.8024 25.4726 20.5139 24.68 21.2456 23.9065L25.6516 28.0666C24.9927 28.7661 24.3516 29.4811 23.7273 30.2129L19.1125 26.2844ZM24.656 20.551C25.4415 19.8336 26.2484 19.1352 27.0697 18.456L30.9266 23.1342C30.1829 23.7465 29.4547 24.378 28.7457 25.0262L24.656 20.551ZM30.8741 15.5517C31.7431 14.9382 32.63 14.3461 33.5289 13.7755L36.7722 18.8953C35.9593 19.411 35.1583 19.947 34.3716 20.502L30.8741 15.5517ZM37.6698 11.3678C38.6081 10.8664 39.5607 10.3889 40.5288 9.93414L43.1036 15.4216C42.2298 15.8323 41.3691 16.2632 40.5192 16.7144L37.6698 11.3678ZM44.9395 8.0648C45.9339 7.6852 46.9402 7.33186 47.9572 7.00359L49.8218 12.7704C48.9026 13.0676 47.9942 13.3875 47.0942 13.7289L44.9395 8.0648ZM52.5733 5.70126C53.607 5.45177 54.6491 5.22735 55.696 5.03159L56.8181 10.987C55.8679 11.1661 54.9273 11.369 53.9914 11.5934L52.5733 5.70126ZM123.82 55.8716C123.625 54.9262 123.408 53.9879 123.167 53.0616L129.035 51.542C129.3 52.5698 129.541 53.6071 129.756 54.6552L123.82 55.8716ZM121.928 48.9111C121.616 47.9967 121.283 47.0943 120.927 46.2026L126.557 43.9572C126.95 44.9432 127.32 45.9423 127.663 46.9534L121.928 48.9111ZM119.179 42.249C118.752 41.3836 118.308 40.5301 117.844 39.6897L123.148 36.7568C123.66 37.6831 124.15 38.6237 124.618 39.5787L119.179 42.249ZM115.605 35.9844C115.076 35.1799 114.528 34.3884 113.961 33.6113L118.856 30.0374C119.482 30.8945 120.087 31.7683 120.672 32.6564L115.605 35.9844ZM111.274 30.2129C110.65 29.4811 110.009 28.7661 109.348 28.0666L113.756 23.9065C114.486 24.68 115.198 25.4726 115.888 26.2844L111.274 30.2129ZM106.254 25.0262C105.545 24.378 104.817 23.7465 104.075 23.1342L107.93 18.456C108.752 19.1352 109.559 19.8336 110.344 20.551L106.254 25.0262ZM100.627 20.502C99.8417 19.947 99.0419 19.411 98.2278 18.8953L101.471 13.7755C102.371 14.3461 103.258 14.9382 104.126 15.5517L100.627 20.502ZM94.4808 16.7144C93.6309 16.2632 92.7702 15.8323 91.8964 15.4216L94.4724 9.93414C95.4393 10.3889 96.3931 10.8664 97.3314 11.3678L94.4808 16.7144ZM87.9058 13.7289C87.007 13.3875 86.0974 13.0676 85.1782 12.7704L87.0428 7.00359C88.0598 7.33186 89.0661 7.6852 90.0605 8.0648L87.9058 13.7289ZM81.0086 11.5934C80.0739 11.369 79.1321 11.1661 78.1819 10.987L79.304 5.03159C80.3521 5.22735 81.393 5.45177 82.4267 5.70126L81.0086 11.5934ZM129.756 80.345C129.541 81.3931 129.3 82.4304 129.035 83.4582L123.167 81.9386C123.408 81.0111 123.625 80.074 123.82 79.1286L129.756 80.345ZM127.663 88.0468C127.32 89.0579 126.95 90.0558 126.557 91.0418L120.927 88.7976C121.283 87.9059 121.616 87.0035 121.928 86.0891L127.663 88.0468ZM124.618 95.4215C124.15 96.3753 123.66 97.3171 123.148 98.2435L117.844 95.3105C118.308 94.4701 118.752 93.6155 119.179 92.75L124.618 95.4215ZM120.672 102.343C120.087 103.232 119.482 104.106 118.856 104.962L113.961 101.389C114.528 100.612 115.076 99.8203 115.605 99.0146L120.672 102.343ZM115.888 108.716C115.198 109.528 114.486 110.32 113.756 111.094L109.348 106.934C110.009 106.234 110.65 105.518 111.274 104.787L115.888 108.716ZM110.344 114.449C109.559 115.167 108.752 115.865 107.93 116.543L104.075 111.865C104.817 111.254 105.545 110.622 106.254 109.974L110.344 114.449ZM104.126 119.447C103.258 120.062 102.371 120.654 101.471 121.225L98.2278 116.104C99.0419 115.589 99.8417 115.053 100.627 114.498L104.126 119.447ZM97.3314 123.632C96.3931 124.134 95.4393 124.611 94.4724 125.065L91.8964 119.579C92.7702 119.168 93.6309 118.737 94.4808 118.285L97.3314 123.632ZM90.0605 126.935C89.0661 127.315 88.0598 127.668 87.0428 127.997L85.1782 122.23C86.0974 121.933 87.007 121.613 87.9058 121.271L90.0605 126.935ZM82.4267 129.299C81.393 129.547 80.3521 129.772 79.304 129.969L78.1819 124.012C79.1321 123.833 80.0739 123.631 81.0086 123.406L82.4267 129.299ZM11.1815 79.1286C11.3748 80.074 11.5921 81.0111 11.8332 81.9386L5.96496 83.4582C5.69995 82.4304 5.45882 81.3931 5.24396 80.345L11.1815 79.1286ZM13.0723 86.0891C13.385 87.0035 13.7181 87.9059 14.0726 88.7976L8.44309 91.0418C8.04917 90.0558 7.68151 89.0579 7.33653 88.0468L13.0723 86.0891ZM15.8214 92.75C16.2476 93.6155 16.6916 94.4701 17.156 95.3105L11.8535 98.2435C11.3402 97.3171 10.8496 96.3753 10.3817 95.4215L15.8214 92.75ZM19.3954 99.0146C19.9242 99.8203 20.4733 100.612 21.0391 101.389L16.1437 104.962C15.5182 104.106 14.913 103.232 14.3281 102.343L19.3954 99.0146ZM23.7273 104.787C24.3516 105.518 24.9927 106.234 25.6516 106.934L21.2456 111.094C20.5139 110.32 19.8024 109.528 19.1125 108.716L23.7273 104.787ZM28.7457 109.974C29.4547 110.622 30.1829 111.254 30.9266 111.865L27.0697 116.543C26.2484 115.865 25.4415 115.167 24.656 114.449L28.7457 109.974ZM34.3716 114.498C35.1583 115.053 35.9593 115.589 36.7722 116.104L33.5289 121.225C32.63 120.654 31.7431 120.062 30.8741 119.447L34.3716 114.498ZM40.5192 118.285C41.3691 118.737 42.2298 119.168 43.1036 119.579L40.5288 125.065C39.5607 124.611 38.6081 124.134 37.6698 123.632L40.5192 118.285ZM47.0942 121.271C47.9942 121.613 48.9026 121.933 49.8218 122.23L47.9572 127.997C46.9402 127.668 45.9339 127.315 44.9395 126.935L47.0942 121.271ZM53.9914 123.406C54.9273 123.631 55.8679 123.833 56.8181 124.012L55.696 129.969C54.6491 129.772 53.607 129.547 52.5733 129.299L53.9914 123.406Z" fill="#0067E8"/>
</svg>
