<?xml version="1.0" encoding="UTF-8"?>
<!DOCTYPE svg PUBLIC "-//W3C//DTD SVG 1.1//EN" "http://www.w3.org/Graphics/SVG/1.1/DTD/svg11.dtd">
<!-- Creator: CorelDRAW 2018 (64-Bit) -->
<svg xmlns="http://www.w3.org/2000/svg" xml:space="preserve" version="1.1" style="shape-rendering:geometricPrecision; text-rendering:geometricPrecision; image-rendering:optimizeQuality; fill-rule:evenodd; clip-rule:evenodd"
viewBox="0 0 8356580 7679260"
 xmlns:xlink="http://www.w3.org/1999/xlink">
 <defs>
  <style type="text/css">
   <![CDATA[
    .str0 {stroke:#0D2B4D;stroke-width:8460;stroke-miterlimit:22.9256}
    .fil0 {fill:none}
    .fil1 {fill:none;fill-rule:nonzero}
   ]]>
  </style>
   <clipPath id="id0" style="clip-rule:nonzero">
    <path d="M8355300 -1390l-8354020 1970 0 7680070 8354020 0 0 -7682040z"/>
   </clipPath>
 </defs>
 <g id="Слой_x0020_1">
  <metadata id="CorelCorpID_0Corel-Layer"/>
  <g>
  </g>
  <g style="clip-path:url(#id0)">
   <g>
    <line class="fil0 str0" x1="1610300" y1="-153410" x2="1610300" y2= "7845420" />
    <line class="fil0 str0" x1="-371650" y1="6624410" x2="8694530" y2= "6624410" />
    <line class="fil0 str0" x1="3221550" y1="-153410" x2="3221550" y2= "7845420" />
    <line class="fil0 str0" x1="-371650" y1="4971120" x2="8694530" y2= "4971120" />
    <line class="fil0 str0" x1="4832790" y1="-153410" x2="4832790" y2= "7845420" />
    <line class="fil0 str0" x1="-371650" y1="3317830" x2="8694530" y2= "3317830" />
    <line class="fil0 str0" x1="6444030" y1="-153410" x2="6444030" y2= "7845420" />
    <line class="fil0 str0" x1="-371650" y1="1664540" x2="8694530" y2= "1664540" />
    <line class="fil0 str0" x1="267600" y1="-153410" x2="267600" y2= "7845420" />
    <line class="fil0 str0" x1="1878840" y1="-153410" x2="1878840" y2= "7845420" />
    <line class="fil0 str0" x1="-371650" y1="6348860" x2="8694530" y2= "6348860" />
    <line class="fil0 str0" x1="3490090" y1="-153410" x2="3490090" y2= "7845420" />
    <line class="fil0 str0" x1="-371650" y1="4695570" x2="8694530" y2= "4695570" />
    <line class="fil0 str0" x1="5101330" y1="-153410" x2="5101330" y2= "7845420" />
    <line class="fil0 str0" x1="-371650" y1="3042280" x2="8694530" y2= "3042280" />
    <line class="fil0 str0" x1="6712580" y1="-153410" x2="6712580" y2= "7845420" />
    <line class="fil0 str0" x1="-371650" y1="1388990" x2="8694530" y2= "1388990" />
    <line class="fil0 str0" x1="536140" y1="-153410" x2="536140" y2= "7845420" />
    <line class="fil0 str0" x1="2147380" y1="-153410" x2="2147380" y2= "7845420" />
    <line class="fil0 str0" x1="-371650" y1="6073310" x2="8694530" y2= "6073310" />
    <line class="fil0 str0" x1="3758630" y1="-153410" x2="3758630" y2= "7845420" />
    <line class="fil0 str0" x1="-371650" y1="4420020" x2="8694530" y2= "4420020" />
    <line class="fil0 str0" x1="5369870" y1="-153410" x2="5369870" y2= "7845420" />
    <line class="fil0 str0" x1="-371650" y1="2766730" x2="8694530" y2= "2766730" />
    <line class="fil0 str0" x1="6981120" y1="-153410" x2="6981120" y2= "7845420" />
    <line class="fil0 str0" x1="-371650" y1="1113440" x2="8694530" y2= "1113440" />
    <line class="fil0 str0" x1="804680" y1="-153410" x2="804680" y2= "7845420" />
    <line class="fil0 str0" x1="2415920" y1="-153410" x2="2415920" y2= "7845420" />
    <line class="fil0 str0" x1="-371650" y1="5797770" x2="8694530" y2= "5797770" />
    <line class="fil0 str0" x1="4027170" y1="-153410" x2="4027170" y2= "7845420" />
    <line class="fil0 str0" x1="-371650" y1="4144480" x2="8694530" y2= "4144480" />
    <line class="fil0 str0" x1="5638410" y1="-153410" x2="5638410" y2= "7845420" />
    <line class="fil0 str0" x1="-371650" y1="2491190" x2="8694530" y2= "2491190" />
    <line class="fil0 str0" x1="7249660" y1="-153410" x2="7249660" y2= "7845420" />
    <line class="fil0 str0" x1="-371650" y1="837900" x2="8694530" y2= "837900" />
    <line class="fil0 str0" x1="1073220" y1="-153410" x2="1073220" y2= "7845420" />
    <line class="fil0 str0" x1="2684470" y1="-153410" x2="2684470" y2= "7845420" />
    <line class="fil0 str0" x1="-371650" y1="5522220" x2="8694530" y2= "5522220" />
    <line class="fil0 str0" x1="4295710" y1="-153410" x2="4295710" y2= "7845420" />
    <line class="fil0 str0" x1="-371650" y1="3868930" x2="8694530" y2= "3868930" />
    <line class="fil0 str0" x1="5906950" y1="-153410" x2="5906950" y2= "7845420" />
    <line class="fil0 str0" x1="-371650" y1="2215640" x2="8694530" y2= "2215640" />
    <line class="fil0 str0" x1="7518200" y1="-153410" x2="7518200" y2= "7845420" />
    <line class="fil0 str0" x1="-371650" y1="562350" x2="8694530" y2= "562350" />
    <line class="fil0 str0" x1="1341760" y1="-153410" x2="1341760" y2= "7845420" />
    <line class="fil0 str0" x1="-371650" y1="6899960" x2="8694530" y2= "6899960" />
    <line class="fil0 str0" x1="2953010" y1="-153410" x2="2953010" y2= "7845420" />
    <line class="fil0 str0" x1="-371650" y1="5246670" x2="8694530" y2= "5246670" />
    <line class="fil0 str0" x1="4564250" y1="-153410" x2="4564250" y2= "7845420" />
    <line class="fil0 str0" x1="-371650" y1="3593380" x2="8694530" y2= "3593380" />
    <line class="fil0 str0" x1="6175490" y1="-153410" x2="6175490" y2= "7845420" />
    <line class="fil0 str0" x1="-371650" y1="1940090" x2="8694530" y2= "1940090" />
    <line class="fil0 str0" x1="7786740" y1="-153410" x2="7786740" y2= "7845420" />
    <line class="fil0 str0" x1="-371650" y1="286800" x2="8694530" y2= "286800" />
    <line class="fil0 str0" x1="8055280" y1="-153410" x2="8055280" y2= "7845420" />
    <line class="fil0 str0" x1="-371650" y1="7174790" x2="8694530" y2= "7174790" />
    <line class="fil0 str0" x1="-371650" y1="7449610" x2="8694530" y2= "7449610" />
   </g>
  </g>
  <polygon class="fil1" points="8355300,-1390 1280,580 1280,7680650 8355300,7680650 "/>
 </g>
</svg>
