<svg viewBox="0 0 19 15" fill="none" xmlns="http://www.w3.org/2000/svg">
<path fill-rule="evenodd" clip-rule="evenodd" d="M0 14.99L18.3907 15L18.398 7.07956C17.1751 7.17644 15.5916 7.10088 14.3332 7.09457C13.3905 7.08985 13.3702 7.16574 13.1906 7.97892C13.0475 8.62673 12.7143 8.34623 12.6734 9.47678C12.6144 11.1114 11.6636 12.1186 10.584 13.3709C9.93022 14.1293 8.55173 14.2149 7.77282 13.324C6.64238 12.0312 5.77711 11.0991 5.70865 9.40576C5.66597 8.35026 5.31513 8.58267 5.18808 7.91417C5.03355 7.10094 4.86319 7.09014 3.97764 7.09524C2.73937 7.10236 1.20204 7.17159 0.000395598 7.08075L0 14.99ZM11.1085 9.77442C10.9139 9.55653 7.63415 8.50773 7.34082 8.49316C7.44965 9.13178 7.44899 8.06672 7.50096 9.63202C7.52242 10.2783 8.41645 10.8768 9.00729 11.8521L9.38369 11.8463C9.6106 11.4893 9.91309 11.135 10.2007 10.7815C10.3674 10.5767 10.4671 10.4633 10.6327 10.2587C10.716 10.1557 10.7894 10.0525 10.8709 9.98171C11.1206 9.76467 10.9832 10.0454 11.1085 9.77442ZM7.29735 1.09083C7.66969 1.29234 9.83896 1.97478 10.571 2.2353C10.5951 2.24387 10.7742 2.30463 10.7895 2.30659C11.1485 2.35202 11.0615 2.30492 10.9961 2.1552C10.9903 2.14183 10.961 2.09784 10.9532 2.07931C10.8377 1.80297 10.8794 1.64236 10.8818 1.32798C10.8852 0.885765 10.8792 0.443819 10.8864 0.00156157L7.50154 0C7.52565 1.39367 7.4676 0.621401 7.29735 1.09083ZM11.1134 5.19493C10.5885 5.02903 7.71427 3.9935 7.38736 4.00106C7.35169 4.44119 7.36364 4.00324 7.43987 4.25243L7.47822 4.35835C7.55924 4.68842 7.55234 5.20336 7.39329 5.48974C7.3868 5.50142 7.36558 5.55018 7.36064 5.53881C7.35567 5.52736 7.33468 5.5695 7.32683 5.58768C7.62393 5.81754 10.7514 6.87073 11.0669 6.80508C11.0836 6.47775 10.8796 6.77807 10.8757 6.02994C10.8713 5.19387 11.0287 5.53123 11.1134 5.19493ZM7.50568 2.94342C7.44441 3.49463 7.47751 2.8719 7.30405 3.31068C7.51589 3.53167 10.6279 4.55119 11.0699 4.60104L10.9575 4.34527C10.9496 4.3258 10.9396 4.30913 10.9323 4.28897L10.8769 3.7511C10.8747 2.98639 10.9415 3.30624 11.1083 3.01687C10.9079 2.81424 7.73923 1.76106 7.34201 1.75375C7.45311 2.3465 7.50727 1.4127 7.50568 2.94342ZM11.0939 7.49742C10.8244 7.29891 7.70952 6.26232 7.3645 6.25834C7.39042 6.73225 7.39477 6.24595 7.48374 6.63387C7.6825 7.50056 7.29625 7.8545 7.29616 7.85468C7.5137 7.99825 10.6651 9.07596 11.0364 9.11125C11.0554 8.6358 11.0405 9.07933 10.9502 8.83131C10.853 8.56441 10.8763 8.54542 10.8762 8.23021C10.8762 8.07532 10.863 7.89064 10.9162 7.75691C11.0038 7.53702 11.0395 7.67013 11.0939 7.49742Z" fill="white"/>
</svg>
