<?xml version="1.0" encoding="UTF-8"?>
<!DOCTYPE svg PUBLIC "-//W3C//DTD SVG 1.1//EN" "http://www.w3.org/Graphics/SVG/1.1/DTD/svg11.dtd">
<!-- Creator: CorelDRAW 2018 (64-Bit) -->
<svg xmlns="http://www.w3.org/2000/svg" xml:space="preserve" version="1.1" style="shape-rendering:geometricPrecision; text-rendering:geometricPrecision; image-rendering:optimizeQuality; fill-rule:evenodd; clip-rule:evenodd"
viewBox="0 0 126980 126980"
 xmlns:xlink="http://www.w3.org/1999/xlink">
 <defs>
  <style type="text/css">
   <![CDATA[
    .fil0 {fill:#FEFEFE;fill-rule:nonzero}
   ]]>
  </style>
 </defs>
 <g id="Слой_x0020_1">
  <metadata id="CorelCorpID_0Corel-Layer"/>
  <path class="fil0" d="M114290 39840l-74660 74450 -17960 0 92620 -92400 0 17950zm12700 87150l0 -127000 -127000 0 0 127000 127000 0zm-12700 -51230l-38740 38530 -17960 0 56700 -56490 0 17960zm0 38530l-20780 0 20780 -20570 0 20570zm-101600 -26730l74660 -74870 17960 0 -92620 92830 0 -17960zm0 -35920l38740 -38950 17960 0 -56700 56910 0 -17960zm0 -38950l20780 0 -20780 20990 0 -20990z"/>
 </g>
</svg>
