<?xml version="1.0" encoding="UTF-8"?>
<!DOCTYPE svg PUBLIC "-//W3C//DTD SVG 1.1//EN" "http://www.w3.org/Graphics/SVG/1.1/DTD/svg11.dtd">
<!-- Creator: CorelDRAW 2018 (64-Bit) -->
<svg xmlns="http://www.w3.org/2000/svg" xml:space="preserve" version="1.1" style="shape-rendering:geometricPrecision; text-rendering:geometricPrecision; image-rendering:optimizeQuality; fill-rule:evenodd; clip-rule:evenodd"
viewBox="0 0 118520 101580"
 xmlns:xlink="http://www.w3.org/1999/xlink">
 <defs>
  <style type="text/css">
   <![CDATA[
    .fil0 {fill:#FEFEFE}
   ]]>
  </style>
 </defs>
 <g id="Слой_x0020_1">
  <metadata id="CorelCorpID_0Corel-Layer"/>
  <path class="fil0" d="M108730 29940c-4180,0 -7560,3390 -7560,7570l0 1220 -31150 0 0 -8810c0,-1190 -950,-2140 -2140,-2140l-3170 0 0 -9810 18150 0c4520,0 8190,-3680 8190,-8190 0,-4520 -3670,-8200 -8190,-8200l-47200 0c-4520,0 -8190,3680 -8190,8200 0,4510 3670,8190 8190,8190l18150 0 0 9810 -3170 0c-1190,0 -2140,950 -2140,2140l0 8810 -31150 0 0 -1220c0,-4180 -3380,-7570 -7560,-7570 -4180,0 -7570,3390 -7570,7570l0 54920c0,4180 3390,7570 7570,7570 4180,0 7560,-3390 7560,-7570l0 -1220 83820 0 0 1220c0,4180 3380,7570 7560,7570 4180,0 7570,-3390 7570,-7570l0 -54920c0,-4180 -3390,-7570 -7570,-7570z"/>
 </g>
</svg>
