<?xml version="1.0" encoding="UTF-8"?>
<!DOCTYPE svg PUBLIC "-//W3C//DTD SVG 1.1//EN" "http://www.w3.org/Graphics/SVG/1.1/DTD/svg11.dtd">
<!-- Creator: CorelDRAW 2018 (64-Bit) -->
<svg xmlns="http://www.w3.org/2000/svg" xml:space="preserve" version="1.1" style="shape-rendering:geometricPrecision; text-rendering:geometricPrecision; image-rendering:optimizeQuality; fill-rule:evenodd; clip-rule:evenodd"
viewBox="0 0 237060 237060"
 xmlns:xlink="http://www.w3.org/1999/xlink">
 <defs>
  <style type="text/css">
   <![CDATA[
    .fil0 {fill:#FEFEFE}
   ]]>
  </style>
 </defs>
 <g id="Слой_x0020_1">
  <metadata id="CorelCorpID_0Corel-Layer"/>
  <path class="fil0" d="M235340 118530c0,-64400 -52400,-116810 -116810,-116810 -64400,0 -116810,52410 -116810,116810 0,34020 14630,64680 37920,86050l-110 90 3790 3200c240,200 510,370 760,580 2010,1670 4100,3250 6220,4790 690,490 1380,990 2080,1470 2260,1570 4590,3050 6970,4460 520,300 1040,600 1560,900 2610,1480 5270,2880 7990,4160 200,90 400,180 600,270 8870,4120 18350,7150 28250,8940 260,50 520,90 780,140 3080,530 6190,960 9340,1240 380,30 760,60 1150,90 3130,260 6300,430 9510,430 3180,0 6320,-170 9440,-420 390,-30 790,-60 1180,-90 3130,-280 6210,-700 9250,-1220 270,-50 540,-90 800,-140 9760,-1750 19090,-4710 27850,-8730 320,-150 650,-290 970,-440 2620,-1240 5180,-2560 7690,-3980 630,-350 1250,-710 1870,-1070 2280,-1350 4530,-2760 6710,-4250 790,-540 1560,-1100 2340,-1660 1860,-1340 3690,-2730 5470,-4180 400,-320 820,-590 1210,-920l3880 -3240 -110 -100c23490,-21380 38260,-52180 38260,-86370zm-225120 0c0,-59720 48590,-108310 108310,-108310 59720,0 108310,48590 108310,108310 0,32180 -14120,61120 -36480,80970 -1250,-860 -2510,-1640 -3790,-2280l-35970 -17980c-3220,-1620 -5230,-4860 -5230,-8470l0 -12560c830,-1020 1710,-2190 2620,-3470 4660,-6570 8390,-13890 11110,-21760 5380,-2550 8860,-7910 8860,-13970l0 -15050c0,-3690 -1350,-7260 -3770,-10070l0 -19820c220,-2210 1000,-14640 -8000,-24910 -7830,-8930 -20500,-13460 -37660,-13460 -17160,0 -29830,4530 -37660,13460 -9000,10260 -8220,22710 -8000,24910l0 19820c-2410,2810 -3770,6380 -3770,10060l0 15060c0,4680 2100,9040 5690,11980 3440,13480 10530,23680 13140,27140l0 12290c0,3470 -1890,6650 -4930,8320l-33590 18320c-1070,580 -2130,1260 -3190,2020 -22090,-19850 -36000,-48600 -36000,-80550z"/>
 </g>
</svg>
