<?xml version="1.0" encoding="UTF-8"?>
<!DOCTYPE svg PUBLIC "-//W3C//DTD SVG 1.1//EN" "http://www.w3.org/Graphics/SVG/1.1/DTD/svg11.dtd">
<!-- Creator: CorelDRAW 2018 (64-Bit) -->
<svg xmlns="http://www.w3.org/2000/svg" xml:space="preserve" version="1.1" style="shape-rendering:geometricPrecision; text-rendering:geometricPrecision; image-rendering:optimizeQuality; fill-rule:evenodd; clip-rule:evenodd"
viewBox="0 0 177780 177780"
 xmlns:xlink="http://www.w3.org/1999/xlink">
 <defs>
  <style type="text/css">
   <![CDATA[
    .fil0 {fill:#888B99;fill-rule:nonzero}
   ]]>
  </style>
 </defs>
 <g id="Слой_x0020_1">
  <metadata id="CorelCorpID_0Corel-Layer"/>
  <path class="fil0" d="M111190 127610c-5800,3930 -12120,7020 -18930,9330 -6800,2320 -13960,3450 -21460,3450 -9550,0 -18540,-1830 -26950,-5500 -8470,-3660 -15840,-8630 -22110,-14960 -6330,-6270 -11300,-13650 -14970,-22110 -3660,-8410 -5490,-17400 -5490,-26950 0,-9560 1830,-18540 5490,-26960 3670,-8410 8640,-15780 14970,-22110 6270,-6280 13640,-11300 22110,-14960 8410,-3660 17400,-5490 26950,-5490 9550,0 18540,1830 26960,5490 8410,3660 15780,8680 22110,14960 6280,6330 11300,13700 14960,22110 3660,8420 5490,17400 5490,26960 0,7500 -1170,14650 -3480,21460 -2270,6840 -5410,13130 -9300,18920l45500 45500c2350,2390 3530,5140 3440,8280 -90,3190 -1260,5850 -3440,8070l0 0c-2230,2230 -4980,3320 -8200,3320 -3230,0 -5980,-1090 -8160,-3320l-45490 -45490zm-40390 -3580c7330,0 14220,-1390 20680,-4220 6490,-2800 12120,-6590 16870,-11350 4800,-4790 8550,-10420 11390,-16880 2790,-6490 4230,-13390 4230,-20710 0,-7330 -1440,-14220 -4230,-20680 -2840,-6490 -6590,-12120 -11390,-16880 -4750,-4790 -10380,-8540 -16870,-11380 -6460,-2790 -13350,-4230 -20680,-4230 -7320,0 -14220,1440 -20710,4230 -6460,2840 -12090,6590 -16880,11380 -4760,4760 -8550,10390 -11350,16880 -2830,6460 -4220,13350 -4220,20680 0,7320 1390,14220 4220,20710 2800,6460 6590,12090 11350,16880 4790,4760 10420,8550 16880,11350 6490,2830 13390,4220 20710,4220z"/>
 </g>
</svg>
