<?xml version="1.0" encoding="UTF-8"?>
<!DOCTYPE svg PUBLIC "-//W3C//DTD SVG 1.1//EN" "http://www.w3.org/Graphics/SVG/1.1/DTD/svg11.dtd">
<!-- Creator: CorelDRAW 2018 (64-Bit) -->
<svg xmlns="http://www.w3.org/2000/svg" xml:space="preserve" version="1.1" style="shape-rendering:geometricPrecision; text-rendering:geometricPrecision; image-rendering:optimizeQuality; fill-rule:evenodd; clip-rule:evenodd"
viewBox="0 0 126980 126980"
 xmlns:xlink="http://www.w3.org/1999/xlink">
 <defs>
  <style type="text/css">
   <![CDATA[
    .fil0 {fill:#FEFEFE}
   ]]>
  </style>
 </defs>
 <g id="Слой_x0020_1">
  <metadata id="CorelCorpID_0Corel-Layer"/>
  <path class="fil0" d="M113240 110080l-5340 0 0 -27090c0,-710 -580,-1290 -1290,-1290l-6020 0 0 -20700 630 260c330,130 660,200 990,200 1010,0 1980,-600 2390,-1600l3680 -8880c260,-640 260,-1350 0,-1980 -260,-630 -770,-1140 -1400,-1400l-55870 -23130c2040,-3900 3870,-7860 5450,-11790 530,-1320 -100,-2810 -1410,-3350l-22070 -9140c-1310,-540 -2810,70 -3370,1370 -5460,12800 -8990,27060 -11090,44880 -130,1150 510,2250 1580,2690l9460 3920c1070,440 2300,120 3020,-790 4100,-5200 7640,-10090 10830,-14940l11160 4630 -550 3800 -1660 11530 -7630 52800 -17840 0 -13150 0c-1420,0 -2580,1160 -2580,2590l0 11740c0,1420 1160,2580 2580,2580l99500 0c1420,0 2580,-1160 2580,-2580l0 -11740c0,-1430 -1160,-2590 -2580,-2590zm-17820 -28380l-6010 0c-720,0 -1300,580 -1300,1290l0 27090 -5870 0 -7620 -52800 -1080 -7480 21880 9060 0 22840 0 0zm-25530 -17510l-9080 -6770 7220 -6110 1860 12880zm-3030 4810l-11520 7330 2070 -14370 9450 7040zm4300 3990l2780 19220 -14960 -11480 12180 -7740zm-11090 37090l14890 -10780 1560 10780 -16450 0zm5080 -63750l-6240 5270 1070 -7420 5170 2150zm-10950 37870l15500 11900 -19230 13940 3730 -25840z"/>
 </g>
</svg>
