<?xml version="1.0" encoding="UTF-8"?>
<!DOCTYPE svg PUBLIC "-//W3C//DTD SVG 1.1//EN" "http://www.w3.org/Graphics/SVG/1.1/DTD/svg11.dtd">
<!-- Creator: CorelDRAW 2018 (64-Bit) -->
<svg xmlns="http://www.w3.org/2000/svg" xml:space="preserve" version="1.1" style="shape-rendering:geometricPrecision; text-rendering:geometricPrecision; image-rendering:optimizeQuality; fill-rule:evenodd; clip-rule:evenodd"
viewBox="0 0 126980 169320"
 xmlns:xlink="http://www.w3.org/1999/xlink">
 <defs>
  <style type="text/css">
   <![CDATA[
    .fil0 {fill:url(#id0)}
   ]]>
  </style>
  <linearGradient id="id0" gradientUnits="userSpaceOnUse" x1="71440" y1="54260" x2="71470" y2="145470">
   <stop offset="0" style="stop-opacity:1; stop-color:#008DD2"/>
   <stop offset="0.54902" style="stop-opacity:1; stop-color:#70577C"/>
   <stop offset="1" style="stop-opacity:1; stop-color:#E84146"/>
  </linearGradient>
 </defs>
 <g id="Слой_x0020_1">
  <metadata id="CorelCorpID_0Corel-Layer"/>
  <path class="fil0" d="M64780 14910c-600,850 -1080,1750 -1470,2730 -2220,5630 -2240,9890 -5460,16010 -6350,12070 -18940,24030 -29010,32910 -18000,18370 -24210,42890 -11150,65980 14610,25800 44130,36040 68970,24690 14640,-6700 24800,-18740 29420,-34110 1750,-5830 2740,-11950 3260,-18050l100 -1230 880 850c3620,3490 4690,8240 4180,13420 -1740,17770 -18040,37100 -33820,45150 -14410,7360 -30980,8270 -47470,1370 -32780,-12830 -52510,-55930 -33290,-87390 5270,-8620 16850,-18650 24380,-25630 9240,-8560 15950,-17910 20450,-29750 2830,-7480 2610,-13790 4220,-21360l100 -510 520 50c8320,760 13560,12250 14860,19350 2580,14150 -3360,27420 -13170,37380 -2500,3650 -5180,6550 -8440,9510 -7940,7210 -17610,15160 -22260,25030 -12280,26100 8700,56420 37460,54090 25680,-2080 50400,-38560 25370,-54510 -490,-320 -2810,-1090 -4220,-1380l910 920c15560,18560 -2480,47480 -26130,46760 -18070,-550 -29060,-14310 -28830,-31830 840,-15270 16840,-28460 27550,-37800 4410,-3840 7570,-9850 11990,-13500l930 -770 30 1210c460,25590 -35570,28990 -32950,56240 1990,7000 3760,11680 10270,15660 3650,2240 7590,3580 11910,3620 29310,270 27700,-39140 7690,-44420l-2410 -1000 -50 -330c-120,-750 -50,-1500 320,-2180 3430,-6280 23920,350 28510,3980 6600,5210 12470,13870 12470,22500 20,16810 -14840,35490 -30220,41440 -2650,1020 -5390,1830 -8200,2290 -10120,1670 -20950,-90 -30140,-4640 -25710,-12720 -29080,-43350 -15090,-66200 4140,-6750 10980,-12290 16730,-17670 12080,-11310 30300,-31280 20300,-48880z"/>
 </g>
</svg>
