<?xml version="1.0" encoding="UTF-8"?>
<!DOCTYPE svg PUBLIC "-//W3C//DTD SVG 1.1//EN" "http://www.w3.org/Graphics/SVG/1.1/DTD/svg11.dtd">
<!-- Creator: CorelDRAW 2018 (64-Bit) -->
<svg xmlns="http://www.w3.org/2000/svg" xml:space="preserve" version="1.1" style="shape-rendering:geometricPrecision; text-rendering:geometricPrecision; image-rendering:optimizeQuality; fill-rule:evenodd; clip-rule:evenodd"
viewBox="0 0 313260 389460"
 xmlns:xlink="http://www.w3.org/1999/xlink">
 <defs>
  <style type="text/css">
   <![CDATA[
    .fil1 {fill:#FEFEFE}
    .fil0 {fill:#FEFEFE;fill-rule:nonzero}
   ]]>
  </style>
 </defs>
 <g id="Слой_x0020_1">
  <metadata id="CorelCorpID_0Corel-Layer"/>
  <g id="_2141437240112">
   <polygon class="fil0" points="-540,267320 20180,267320 20180,294160 31010,294160 54470,267320 83010,267320 49380,303830 87340,343990 57290,343990 31010,314030 20180,314030 20180,343990 -540,343990 "/>
   <path class="fil0" d="M137320 267270c4150,10090 8300,20190 12450,30280 3620,8800 5230,12630 6860,22010 1620,-9380 3230,-13210 6850,-22010l12460 -30280 35330 0 0 76770 -20730 0 0 -53860 0 -6550 -570 980c-370,840 -690,1610 -940,2320l-23920 57110 -16960 0 -25810 -57120c-380,-930 -720,-1750 -1040,-2470l-470 -830 0 6530 0 53890 -20720 0 0 -76770 37210 0z"/>
   <path class="fil1" d="M150520 9950c-4190,6660 -10620,15820 -17910,26210l0 0c-25630,36530 -61760,88020 -61760,120810l0 0c0,21860 9600,41680 25120,56040l0 0c15530,14360 36970,23250 60660,23250 23680,0 45130,-8890 60660,-23250l0 0c15520,-14360 25120,-34180 25120,-56040 0,-32790 -36130,-84280 -61760,-120810l0 0c-7290,-10390 -13720,-19550 -17910,-26210l0 0 -6110 -9720 -6110 9720zm-44540 193940c-12960,-11990 -20980,-28570 -20980,-46920l0 0c0,-29040 34810,-78640 59500,-113820l0 0c4420,-6310 8530,-12160 12130,-17470l0 0c3600,5310 7700,11160 12130,17470l0 0c24690,35180 59500,84780 59500,113820l0 0c0,18350 -8020,34930 -20980,46920l0 0c-12960,11990 -30870,19410 -50650,19410l0 0c-19790,0 -37690,-7420 -50650,-19410l0 0z"/>
   <path class="fil0" d="M25340 362040l-4600 0 -18130 23850 0 -23850 -3150 0 0 27190 4750 0 17980 -23620 0 23620 3150 0 0 -27190zm6500 0l3150 0 0 11550 18200 0 0 -11550 3150 0 0 27190 -3150 0 0 -11990 -18200 0 0 11990 -3150 0 0 -27190zm63740 80l-10410 11350 -2100 0 0 -11350 -3150 0 0 11350 -2130 0 -10410 -11350 -4720 0 12290 13170 -13710 13940 4910 0 11670 -12110 2100 0 0 12110 3150 0 0 -12110 2070 0 11710 12110 4880 0 -13690 -13940 12270 -13170 -4730 0zm37420 -80l-4600 0 -18130 23850 0 -23850 -3150 0 0 27190 4760 0 17970 -23620 0 23620 3150 0 0 -27190zm6510 0l3150 0 0 11550 18190 0 0 -11550 3150 0 0 27190 -3150 0 0 -11990 -18190 0 0 11990 -3150 0 0 -27190zm56510 0l-4610 0 -18130 23850 0 -23850 -3150 0 0 27190 4760 0 17980 -23620 0 23620 3150 0 0 -27190zm6380 27190l0 -27190 17230 0c1880,0 3340,710 4400,2150 1060,1430 1590,3610 1590,6540 0,2920 -540,5100 -1620,6520 -1080,1420 -2580,2130 -4490,2130l-13960 0 0 9850 -3150 0zm3150 -13500l13960 0c910,0 1630,-400 2160,-1200 540,-800 800,-2070 800,-3800 0,-1730 -260,-3010 -780,-3820 -530,-820 -1260,-1220 -2210,-1220l-13930 0 0 10040zm52090 -13690l-4600 0 -18130 23850 0 -23850 -3150 0 0 27190 4760 0 17970 -23620 0 23620 3150 0 0 -27190zm6510 0l3150 0 0 11550 18190 0 0 -11550 3150 0 0 27190 -3150 0 0 -11990 -18190 0 0 11990 -3150 0 0 -27190zm30320 27190l3120 0 0 -23540 16210 0 0 -3650 -19330 0 0 27190z"/>
   <polygon class="fil0" points="226320,267270 313190,267270 313800,267270 313800,290580 253230,290580 253230,344040 226320,344040 "/>
   <path class="fil1" d="M156630 92870c13890,11850 16690,19210 14290,39500l0 0c7800,-3350 10850,-9270 12270,-16160l0 0c4060,2750 6180,10810 5450,18300l0 0c20930,8360 16170,42260 -8020,42350l0 0c-9390,30 -18780,-4910 -16630,-19620l0 0c980,-6720 6280,-11560 13000,-9570l0 0c9350,2770 6870,21060 -6130,16800l0 0c8560,12210 21810,5360 23670,-6630l0 0c2690,-17350 -15180,-25630 -29320,-18960l0 0c0,0 740,-10600 0,-18350l0 0c-540,-5740 -5060,-13070 -8580,-17640 -3520,4570 -8040,11900 -8590,17640l0 0c-730,7750 0,18350 0,18350l0 0c-14130,-6670 -32000,1610 -29310,18960l0 0c1860,11990 15110,18840 23670,6630l0 0c-13000,4260 -15490,-14030 -6130,-16800l0 0c6720,-1990 12020,2850 13000,9570l0 0c2150,14710 -7250,19650 -16630,19620l0 0c-24190,-90 -28960,-33990 -8020,-42350l0 0c-730,-7490 1390,-15550 5440,-18300l0 0c1420,6890 4480,12810 12270,16160l0 0c-2390,-20290 410,-27650 14300,-39500zm0 75290c1560,2660 3120,4910 4570,6800l0 0c7320,9490 22270,11640 32400,5500l0 0c3060,-1840 5860,-3940 9010,-4870l0 0c6130,-1810 11040,5430 11040,5430l0 0c5530,-5870 -170,-14000 -5650,-13960l0 0c3660,-12700 4350,-30580 -13490,-39290l0 0c-890,-14090 -6560,-18110 -14380,-22420l0 0c700,5180 -610,9840 -2960,12980l0 0c-150,-14090 -3330,-16050 -9800,-24670l-2980 -3240 -7760 -8510 -7760 8510 -2980 3240c-6470,8620 -9660,10580 -9810,24670l0 0c-2340,-3140 -3660,-7800 -2960,-12980l0 0c-7810,4310 -13490,8330 -14380,22420l0 0c-17840,8710 -17140,26590 -13490,39290l0 0c-5470,-40 -11180,8090 -5640,13960l0 0c0,0 4910,-7240 11040,-5430l0 0c3150,930 5950,3030 9000,4870l0 0c10140,6140 25090,3990 32400,-5500l0 0c1460,-1890 3020,-4140 4580,-6800z"/>
  </g>
 </g>
</svg>
