<?xml version="1.0" encoding="UTF-8"?>
<!DOCTYPE svg PUBLIC "-//W3C//DTD SVG 1.1//EN" "http://www.w3.org/Graphics/SVG/1.1/DTD/svg11.dtd">
<!-- Creator: CorelDRAW 2018 (64-Bit) -->
<svg xmlns="http://www.w3.org/2000/svg" xml:space="preserve" version="1.1" style="shape-rendering:geometricPrecision; text-rendering:geometricPrecision; image-rendering:optimizeQuality; fill-rule:evenodd; clip-rule:evenodd"
viewBox="0 0 194720 110060"
 xmlns:xlink="http://www.w3.org/1999/xlink">
 <defs>
  <style type="text/css">
   <![CDATA[
    .fil1 {fill:#FEFEFE}
    .fil0 {fill:#00A3BF}
    .fil2 {fill:#05A2BE}
    .fil3 {fill:#0AA3C2}
   ]]>
  </style>
 </defs>
 <g id="Слой_x0020_1">
  <metadata id="CorelCorpID_0Corel-Layer"/>
  <g id="_2141209090352">
   <path class="fil0" d="M3040 22770c6090,120 5530,-410 5530,9250l0 29540c0,8920 950,8940 -5510,9120l-20 13630 27110 20 30 -13540c-2120,-900 -3060,-230 -3400,-3380 -110,-1000 -150,-5900 40,-6740 100,-430 4470,-7310 5550,-8110l6090 14290c780,4280 -2090,3600 -2920,3940l-90 13520 29480 20 30 -13540c-2750,-1480 -2560,-660 -5360,-4770 -2170,-3170 -7820,-17440 -9540,-21540 -4590,-10960 -5110,-9240 -1740,-14060 1380,-1970 3220,-3890 5190,-5270 2940,-2060 3910,-2210 8060,-2410l40 -13780 -26730 -20 -10 13800 2520 300c-180,2050 -1250,2890 -2170,4130 -970,1310 -1770,2410 -2730,3730 -1050,1440 -4690,6640 -5700,7330 -160,-3230 -50,-6650 -60,-9910 -10,-5400 -330,-4780 4260,-5680l20 -13550 -27940 -160 -30 13840z"/>
   <path class="fil0" d="M146990 49410c40,-1040 5410,-19660 6310,-20870 650,700 740,1560 980,2500 910,3540 4730,16860 4720,18390l-12010 -20zm-13350 -26690c7100,610 7780,-2630 2690,13870l-7670 25540c-640,2120 -1190,4280 -2140,6190 -2120,4260 -5770,70 -6050,3690l30 12200 25160 120 50 -13660c-4180,-150 -4160,-950 -3610,-4630l21350 -170c1690,5090 70,4540 -4440,4780l-140 13610 32660 70 40 -13660c-5890,-120 -5560,-1760 -8300,-12330 -1430,-5520 -2900,-11090 -4360,-16550 -2910,-10910 -5970,-21950 -8660,-32840l-36590 -10 -20 13780z"/>
   <path class="fil1" d="M115690 62160c-1140,-3590 -1400,-8650 -2420,-12580 -1020,-3910 -3840,-9950 -4010,-10940 3020,1130 6820,6540 7810,9930 1090,3730 2060,11530 -1380,13590zm-22640 -57340c-200,280 -110,100 -400,660 -2610,5190 -520,2990 -5810,10840 -2260,3360 -8690,10470 -12040,14430 -4260,5050 -7940,9740 -10670,16100 -4070,9470 420,20750 4910,27260 1250,1810 2400,3340 3960,4660 1240,1050 3540,2760 5280,3650 8720,4470 20110,4980 28730,240 4230,-2330 6820,-4350 9630,-8220 4730,-6510 8710,-17840 5020,-27400 -2280,-5890 -5280,-9190 -8500,-13340l-6340 -7200c-770,-830 -1180,-1550 -1990,-2330 -4540,-4370 -10290,-12950 -11780,-19350z"/>
   <path class="fil2" d="M4000 104760l3710 0c40,-2500 -390,-3370 760,-4940l3510 5020 7950 -30 840 -2260 3630 -50 850 2290 18330 20 850 -2260 3630 -50 740 2290 3750 20c40,-1430 -3770,-11140 -4460,-13380l-3700 -30c-990,3580 -3060,9350 -4490,12540l-150 -2550 -5650 -20c1920,-4590 5450,-3930 5340,-9940l-10190 -30 0 3370 5010 50c-2680,4640 -4920,3990 -5440,9060 -190,-1050 -1690,-4600 -2200,-6100 -730,-2160 -1580,-4270 -2220,-6370l-3680 0c-420,1380 -3760,11680 -4710,12640 -1330,-2280 -3250,-4600 -4740,-6870 1330,-2000 3680,-3660 4870,-5750 -3190,-120 -4050,-450 -5320,890 -1020,1070 -2080,2530 -3050,3130l-50 -4020 -3690 -30 -30 13360z"/>
   <path class="fil3" d="M171970 99620c1750,-210 2980,-380 3380,1020 -510,1410 -1830,1200 -3440,1010l60 -2030zm5620 -2060c1870,-1990 1490,-4800 -1000,-5750 -1660,-630 -6490,-480 -8570,-380l180 13360c4570,160 11410,1000 11140,-4080 -90,-1740 -1080,-2310 -1750,-3150z"/>
   <path class="fil2" d="M157330 97870c0,-4700 5280,-4990 4990,620 -240,4600 -4990,4910 -4990,-620zm-3860 2150c1900,8500 14890,6210 12730,-3950 -1760,-8250 -14980,-6110 -12730,3950z"/>
   <path class="fil1" d="M83830 99710c-1200,-6350 4190,-6730 4840,-3040 1090,6230 -4190,6490 -4840,3040zm650 -8370c-4220,1180 -5360,4860 -4600,8560 820,3930 3760,5980 8410,4950 5930,-1310 5670,-10600 1680,-12890 -1400,-810 -3810,-1090 -5490,-620z"/>
   <path class="fil2" d="M184970 95100c1410,-780 4660,-270 6580,-330l-10 -3370 -10520 50 140 13360 10500 -50 20 -3190 -6720 -50 0 -1930 5750 -100 -70 -2950 -4420 -70c-690,-80 -390,-70 -810,-200 -60,-20 -190,-10 -230,-120 -50,-100 -160,-70 -240,-130l30 -920z"/>
   <path class="fil2" d="M129070 104770l3700 10c210,-1690 -80,-3550 500,-4800 1520,400 1640,2240 3720,4680l4330 120c-1030,-2650 -4130,-5490 -4910,-7890l4870 -5430c-7640,-500 -4290,1190 -8390,3790l-40 -3700 -3780 -140 0 13360z"/>
   <polygon class="fil2" points="70810,99420 74180,99440 74370,104810 77930,104800 77920,91410 74230,91410 74180,96150 70790,96110 70750,91440 67030,91420 67060,104800 70760,104640 "/>
   <path class="fil2" d="M60690 97250c510,-1190 3800,-4550 4790,-5720 -6550,-1050 -4980,1540 -8250,3850l-60 -3960 -3740 140 80 13230 3590 -50c320,-2300 -500,-3540 960,-4950l3130 4980 4490 -20c-880,-2200 -3670,-5330 -4990,-7500z"/>
   <path class="fil0" d="M120090 102500l3590 50 900 2240 3630 -10c-30,-1670 -3670,-10790 -4450,-13360l-3720 0c-670,2310 -4510,11940 -4450,13390l3740 -20 760 -2290z"/>
   <polygon class="fil2" points="141690,94750 145270,94840 145440,104810 149000,104790 149070,94840 152650,94730 152630,91400 141670,91510 "/>
   <polygon class="fil1" points="100270,104790 109570,104730 109560,101570 104030,101560 104030,91420 100260,91410 100260,100020 100260,102170 100270,104330 "/>
   <polygon class="fil1" points="94300,104750 98180,104730 98190,91410 94310,91490 94300,92640 94300,95710 94310,96940 94300,98170 94300,100020 "/>
  </g>
 </g>
</svg>
