<?xml version="1.0" encoding="UTF-8"?>
<!DOCTYPE svg PUBLIC "-//W3C//DTD SVG 1.1//EN" "http://www.w3.org/Graphics/SVG/1.1/DTD/svg11.dtd">
<!-- Creator: CorelDRAW 2018 (64-Bit) -->
<svg xmlns="http://www.w3.org/2000/svg" xml:space="preserve" version="1.1" style="shape-rendering:geometricPrecision; text-rendering:geometricPrecision; image-rendering:optimizeQuality; fill-rule:evenodd; clip-rule:evenodd"
viewBox="0 0 93120 177780"
 xmlns:xlink="http://www.w3.org/1999/xlink">
 <defs>
  <style type="text/css">
   <![CDATA[
    .fil2 {fill:#FEFEFE}
    .fil0 {fill:#2B2A29}
    .fil1 {fill:#008BD2}
   ]]>
  </style>
 </defs>
 <g id="Слой_x0020_1">
  <metadata id="CorelCorpID_0Corel-Layer"/>
  <g id="_2144157003536">
   <path class="fil0" d="M93690 130490c0,25720 -21100,46570 -47130,46570 -26030,0 -47130,-20850 -47130,-46570l0 -129780 94260 0 0 129780z"/>
   <path class="fil1" d="M89260 130050c0,23300 -19120,42190 -42700,42190 -23580,0 -42700,-18890 -42700,-42190l0 -124360 85400 0 0 124360z"/>
   <path class="fil0" d="M46220 165820l-40 0c-14440,-10 -26990,-8130 -33310,-20050 -8130,-15250 -3640,-23330 1610,-38150l31700 -89560 0 -110 20 60 20 50 31700 89560c5250,14820 9740,22900 1610,38150 -6320,11920 -18870,20040 -33310,20050z"/>
   <rect class="fil2" x="22880" y="145000" width="46640" height="7860"/>
   <rect class="fil2" x="28840" y="133130" width="34720" height="7780"/>
   <path class="fil2" d="M31760 94610c950,-80 2080,-610 3310,-1590 -780,3350 -1140,5790 -5780,5130 -3130,-460 -4720,-3760 -4650,-7440 80,-3810 1960,-8080 5830,-9970 3070,-1510 6840,-1400 11780,1370 2620,-2910 5280,-3490 7900,0 4940,-2770 8710,-2880 11780,-1370 3870,1890 5750,6160 5830,9970 70,3680 -1520,6980 -4650,7440 -4640,660 -5000,-1780 -5780,-5130 1230,980 2360,1510 3310,1590 4510,400 3370,-8930 -1510,-7070 -3390,1310 -7740,8200 -12780,19280l-150 330 -150 -330c-5040,-11080 -9390,-17970 -12780,-19280 -4880,-1860 -6020,7470 -1510,7070z"/>
   <path class="fil2" d="M37140 97040c3860,3370 6360,9170 9060,14600 2600,-6280 5550,-11400 9060,-14600 1850,10540 2100,21050 0,31580l-5320 40c250,-5280 -700,-8620 -3700,-8480l0 10 -40 0 -40 0 0 -10c-3000,-140 -3950,3200 -3700,8480l-5320 -40c-1920,-10530 -1590,-21050 0,-31580z"/>
  </g>
 </g>
</svg>
