<?xml version="1.0" encoding="UTF-8"?>
<!DOCTYPE svg PUBLIC "-//W3C//DTD SVG 1.1//EN" "http://www.w3.org/Graphics/SVG/1.1/DTD/svg11.dtd">
<!-- Creator: CorelDRAW 2018 (64-Bit) -->
<svg xmlns="http://www.w3.org/2000/svg" xml:space="preserve" version="1.1" style="shape-rendering:geometricPrecision; text-rendering:geometricPrecision; image-rendering:optimizeQuality; fill-rule:evenodd; clip-rule:evenodd"
viewBox="0 0 143920 169320"
 xmlns:xlink="http://www.w3.org/1999/xlink">
 <defs>
  <style type="text/css">
   <![CDATA[
    .fil1 {fill:#FEFEFE}
    .fil0 {fill:#FEFEFE;fill-rule:nonzero}
   ]]>
  </style>
 </defs>
 <g id="Слой_x0020_1">
  <metadata id="CorelCorpID_0Corel-Layer"/>
  <g id="_2141812981472">
   <path class="fil0" d="M71960 24870l0 0 0 30c19960,0 38020,8070 51070,21130 13050,13050 21130,31100 21130,51060l30 0 0 10 0 0 -30 0c0,19960 -8080,38010 -21130,51070 -13050,13050 -31110,21120 -51060,21130l0 20 -10 0 -10 0 0 -20c-19950,0 -38010,-8080 -51060,-21130 -13060,-13060 -21130,-31110 -21130,-51060l-30 0 0 -10 0 -10 30 0c0,-19960 8070,-38010 21130,-51070 13050,-13050 31100,-21120 51060,-21120l0 -30 10 0zm0 13750l0 20 0 0 -10 0 0 -20c-16120,0 -30730,6550 -41320,17140 -10600,10600 -17150,25210 -17150,41330l20 0 0 10 0 10 -20 0c0,16110 6550,30720 17140,41320 10600,10590 25210,17150 41330,17150l0 -30 10 0 10 0 0 30c16120,-10 30730,-6560 41320,-17150 10600,-10590 17150,-25210 17150,-41330l-30 0 0 0 0 -10 30 0c0,-16120 -6550,-30730 -17150,-41320 -10590,-10600 -25210,-17150 -41330,-17150z"/>
   <path class="fil1" d="M49950 118940c-23590,-35590 -11560,-51800 -830,-61330 16850,-12570 21240,-24260 23730,-41810 1180,28760 -2000,43640 -15970,64480 -8540,12750 -10210,28270 -6930,38660z"/>
   <path class="fil1" d="M72170 -10c-20,16490 -44450,48470 -39420,75910 6730,-28830 35940,-19720 39420,-75910z"/>
   <path class="fil1" d="M73200 61100c15110,13300 37700,53370 7430,60150 -5720,1150 -17950,810 -22730,-8940 -8040,-19400 9490,-31270 15300,-51210zm7560 18960c810,3620 400,6270 -930,10100 3920,-650 4830,-560 8610,580 -1170,-3540 -3770,-7140 -7680,-10680z"/>
   <path class="fil0" d="M47190 145290l0 -19410 14360 0 0 3280 -10430 0 0 4310 9700 0 0 3280 -9700 0 0 5260 10810 0 0 3280 -14740 0zm35230 -2360l-2260 2870c-1100,-530 -2160,-1280 -3180,-2220 -780,700 -1610,1220 -2490,1560 -890,330 -1930,500 -3150,500 -2420,0 -4230,-680 -5450,-2040 -940,-1050 -1410,-2260 -1410,-3630 0,-1250 370,-2370 1110,-3360 740,-990 1850,-1860 3330,-2590 -660,-780 -1160,-1530 -1500,-2250 -340,-710 -500,-1380 -500,-2020 0,-1170 460,-2170 1400,-2990 940,-820 2280,-1230 4020,-1230 1670,0 2980,430 3920,1280 950,860 1410,1910 1410,3140 0,790 -230,1530 -690,2240 -470,700 -1400,1500 -2810,2390l2670 3590c320,-560 590,-1290 820,-2200l3370 760c-340,1190 -630,2070 -880,2620 -240,550 -510,1010 -800,1380 420,390 960,820 1620,1280 660,470 1140,780 1450,920zm-10120 -10560l990 -780c740,-570 1110,-1140 1110,-1700 0,-480 -180,-890 -540,-1220 -350,-340 -830,-510 -1430,-510 -590,0 -1050,150 -1390,440 -330,300 -490,640 -490,1030 0,460 280,1020 840,1670l910 1070zm-1460 4040c-850,440 -1490,960 -1910,1570 -420,610 -630,1230 -630,1860 0,810 260,1470 780,1970 520,510 1220,770 2100,770 580,0 1140,-120 1670,-350 540,-230 1120,-610 1760,-1140l-3770 -4680zm13990 8880l0 -19410 6290 0c2380,0 3930,100 4650,290 1110,300 2040,930 2790,1900 750,980 1130,2240 1130,3780 0,1200 -220,2190 -650,3010 -430,810 -980,1450 -1640,1910 -670,460 -1350,770 -2030,920 -940,190 -2290,280 -4060,280l-2550 0 0 7320 -3930 0zm3930 -16130l0 5530 2140 0c1540,0 2570,-100 3090,-310 510,-200 920,-520 1220,-950 290,-440 440,-940 440,-1520 0,-710 -210,-1290 -620,-1750 -420,-460 -940,-750 -1570,-870 -470,-80 -1400,-130 -2810,-130l-1890 0z"/>
  </g>
 </g>
</svg>
