<?xml version="1.0" encoding="UTF-8"?>
<!DOCTYPE svg PUBLIC "-//W3C//DTD SVG 1.1//EN" "http://www.w3.org/Graphics/SVG/1.1/DTD/svg11.dtd">
<!-- Creator: CorelDRAW 2018 (64-Bit) -->
<svg xmlns="http://www.w3.org/2000/svg" xml:space="preserve" version="1.1" style="shape-rendering:geometricPrecision; text-rendering:geometricPrecision; image-rendering:optimizeQuality; fill-rule:evenodd; clip-rule:evenodd"
viewBox="0 0 194720 169320"
 xmlns:xlink="http://www.w3.org/1999/xlink">
 <defs>
  <style type="text/css">
   <![CDATA[
    .fil1 {fill:#069EA2}
    .fil2 {fill:#FEFEFE;fill-rule:nonzero}
    .fil0 {fill:#2B2A29;fill-rule:nonzero}
   ]]>
  </style>
 </defs>
 <g id="Слой_x0020_1">
  <metadata id="CorelCorpID_0Corel-Layer"/>
  <g id="_2141266201392">
   <path class="fil0" d="M193780 2560c-4620,10080 -10440,24010 -16810,39240 -13710,32810 -29930,71640 -42580,92010 -1270,2050 -2560,3990 -3950,5890 -1370,1880 -2850,3710 -4510,5560 -6750,7520 -15050,13620 -24390,17800 -9010,4020 -18970,6260 -29450,6260 -19980,0 -38060,-8100 -51150,-21190 -13080,-13090 -21180,-31170 -21180,-51140 0,-10150 2090,-19810 5870,-28570 3910,-9100 9650,-17240 16760,-23960 6170,-5840 12170,-9790 18610,-12780 6410,-2970 13210,-4990 21020,-6980 25440,-6500 65580,-13170 95920,-18210 14660,-2440 27020,-4490 34240,-5950l2780 -550 -1180 2570zm-19480 38130c5830,-13950 11210,-26820 15690,-36780 -7520,1430 -18660,3280 -31580,5430 -30260,5030 -70280,11680 -95680,18160 -7670,1960 -14320,3930 -20520,6810 -6170,2870 -11930,6650 -17840,12240 -6810,6440 -12320,14260 -16080,23010 -3620,8410 -5630,17690 -5630,27430 0,19170 7770,36530 20330,49090 12570,12570 29920,20340 49100,20340 10070,0 19640,-2150 28270,-6000 8980,-4010 16940,-9860 23420,-17080 1570,-1750 2990,-3520 4330,-5350 1330,-1820 2580,-3700 3820,-5710 12530,-20180 28700,-58880 42370,-91590z"/>
   <path class="fil1" d="M181550 11500c-11090,24200 -29390,71830 -44820,102500l-119880 2350 117290 2680c-370,710 -740,1410 -1110,2090l-107350 2100 104850 2400c-570,990 -1130,1950 -1680,2870l-101140 1980 98460 2250c-180,280 -370,550 -550,820l-10 20 0 0c-350,500 -700,1000 -1060,1490l-90040 1760 87080 1990c-1020,1200 -2090,2360 -3190,3480l-79360 1550 75870 1730c-11250,9830 -25970,15780 -42080,15780 -35350,0 -64010,-28660 -64010,-64010 0,-20370 9510,-38510 24340,-50230 13030,-10310 28070,-13400 44160,-16900 35210,-7670 86370,-15110 104230,-18700z"/>
   <path class="fil2" d="M71520 64850c5390,0 9700,1010 12910,3050 2310,1460 3590,3220 3840,5270l2510 -8320 13780 0 -3650 12120 18210 -12120 16090 0 -22710 14860 13950 15030 -14250 0 -12530 -13630 -4100 13630 -13780 0 4740 -15750c-1210,1560 -3020,2900 -5440,4020 -3950,1840 -9050,2760 -15310,2760l-7090 0 -2700 8970 -13790 0 8990 -29890 20330 0zm2870 10460c340,-970 50,-1740 -890,-2310 -930,-570 -2320,-850 -4170,-850l-6550 0 -1900 6360 6700 0c1800,0 3310,-290 4530,-880 1230,-580 1980,-1350 2280,-2320z"/>
  </g>
 </g>
</svg>
