<svg viewBox="0 0 28 35" fill="none" xmlns="http://www.w3.org/2000/svg">
<path fill-rule="evenodd" clip-rule="evenodd" d="M20.5696 8.02296C17.4077 3.7584 14.2019 0.309546 14.1701 0.275005C14.0066 0.0996394 13.7781 0 13.5377 0C13.2985 0 13.07 0.0996394 12.9066 0.275005C12.8734 0.309546 9.66768 3.7584 6.50712 8.02296C2.18941 13.8472 0 18.3682 0 21.4597C0 28.926 6.07269 35 13.539 35C21.004 35 27.0767 28.926 27.0767 21.4597C27.0767 18.3669 24.8873 13.8472 20.5696 8.02296ZM14.8901 30.6172C14.1807 30.7859 13.4487 30.8709 12.7153 30.8709C7.50617 30.8709 3.26684 26.6316 3.26684 21.4225C3.26684 20.7037 3.48871 19.4018 4.54223 17.2815C4.64718 17.0689 4.89163 16.9626 5.12014 17.0304C5.34731 17.0981 5.49345 17.32 5.46555 17.5565C5.44164 17.7611 5.42968 17.9537 5.42968 18.1277C5.42968 23.7129 9.40065 28.5633 14.8728 29.662C15.0987 29.7072 15.2621 29.9038 15.2661 30.1336C15.2701 30.3634 15.1133 30.5654 14.8901 30.6172Z" fill="#FEFEFE"/>
</svg>
