<svg width="23" height="27" viewBox="0 0 23 27" fill="none" xmlns="http://www.w3.org/2000/svg">
<path fill-rule="evenodd" clip-rule="evenodd" d="M21.7011 23.406H20.5668V17.647C20.5668 17.4943 20.4439 17.3715 20.2924 17.3715H19.0125V12.9711L19.1473 13.026C19.2153 13.0546 19.2868 13.0678 19.3572 13.0678C19.5719 13.0678 19.7771 12.9401 19.8642 12.729L20.6467 10.8396C20.7027 10.7048 20.7027 10.5545 20.6467 10.4197C20.5906 10.2849 20.4844 10.1775 20.3497 10.1227L8.47147 5.20464C8.90566 4.37562 9.29571 3.53229 9.6309 2.69731C9.74302 2.41819 9.60943 2.0997 9.33031 1.98519L4.63891 0.0420726C4.36098 -0.0736317 4.0413 0.0575794 3.92321 0.334316C2.7614 3.05516 2.0123 6.08613 1.56499 9.87575C1.53517 10.1203 1.67235 10.3541 1.90018 10.4483L3.91129 11.2809C4.13792 11.3751 4.40034 11.3071 4.55303 11.1139C5.42498 10.007 6.17885 8.96801 6.85519 7.93741L9.22892 8.9203L9.11202 9.72903L8.75894 12.1803L7.13789 23.406H3.34231H0.548701C0.245723 23.406 0 23.6517 0 23.9547V26.4513C0 26.7543 0.245723 27 0.548701 27H21.7011C22.0041 27 22.2498 26.7543 22.2498 26.4513V23.9547C22.2498 23.6517 22.0041 23.406 21.7011 23.406ZM17.9139 17.3715H16.634C16.4825 17.3715 16.3596 17.4943 16.3596 17.647V23.406H15.1119L13.4909 12.1803L13.2619 10.5903L17.9139 12.5155V17.3715ZM12.4853 13.6499L10.5541 12.2089L12.0905 10.9111L12.4853 13.6499ZM11.8412 14.6721L9.39114 16.2299L9.83249 13.1739L11.8412 14.6721ZM12.7561 15.519L13.3454 19.6057L10.1665 17.1651L12.7561 15.519ZM10.3991 23.406L13.5637 21.1122L13.8941 23.406H10.3991ZM11.4774 9.8507L10.151 10.972L10.3788 9.39623L11.4774 9.8507ZM9.15019 17.9035L12.446 20.4335L8.35696 23.3965L9.15019 17.9035Z" fill="#E06765"/>
</svg>
