<?xml version="1.0" encoding="utf-8"?>
<!-- Generator: Adobe Illustrator 25.2.3, SVG Export Plug-In . SVG Version: 6.00 Build 0)  -->
<svg width="1706" height="880" viewBox="0 0 1920 1080" fill="none" xmlns="http://www.w3.org/2000/svg">
      <path fill-rule="evenodd" clip-rule="evenodd" d="M0 0H1920V1080H0V0Z" fill="#0F1430"/>
      <path fill-rule="evenodd" clip-rule="evenodd" d="M1388.99 755C1388.99 754.666 1389 754.335 1389 754C1389 517.07 1196.93 325 960 325C723.07 325 531 517.07 531 754C531 754.335 531.012 754.666 531.013 755H1388.99H1388.99Z" fill="#151C4A"/>
      <path fill-rule="evenodd" clip-rule="evenodd" d="M1332.99 755C1332.99 754.71 1333 754.422 1333 754.13C1333 548.129 1166 381.131 960 381.131C753.998 381.131 587.001 548.129 587.001 754.13C587.001 754.422 587.012 754.71 587.012 755H1332.99Z" fill="#1E2557"/>
      <path fill-rule="evenodd" clip-rule="evenodd" d="M1268.99 755C1268.99 754.759 1269 754.521 1269 754.28C1269 583.624 1130.66 445.281 960 445.281C789.345 445.281 651.001 583.624 651.001 754.28C651.001 754.521 651.01 754.759 651.01 755H1268.99H1268.99Z" fill="#2B326B"/>
      <path fill-rule="evenodd" clip-rule="evenodd" d="M1206.06 755C1206.06 754.809 1206.07 754.619 1206.07 754.427C1206.07 618.527 1095.9 508.359 960 508.359C824.1 508.359 713.932 618.527 713.932 754.427C713.932 754.619 713.939 754.809 713.94 755H1206.06H1206.06Z" fill="#3A4280"/>
      <path fill-rule="evenodd" clip-rule="evenodd" d="M931.234 591.279C946.881 585.203 961.463 574.762 969.806 564.627C981.447 550.484 986.488 534.682 987.887 518.62C989.286 502.557 987.878 494.234 988.339 493.06C990.33 487.993 1004.48 500.807 1006.91 501.763C1009.34 502.719 1043.91 494.544 1046.85 492.423C1049.79 490.302 1059.69 471.087 1061.04 477.45C1067.45 507.605 1065.39 539.914 1053.27 570.755C1035.11 616.953 998.264 648.169 954.742 663.251L931.234 591.279Z" fill="#FAFEFF"/>
      <path d="M1026.6 536.281C1026.55 536.998 1025.92 537.536 1025.21 537.483C1024.49 537.429 1023.95 536.805 1024 536.087C1024.24 532.97 1024.74 530.601 1025.51 528.979C1026.44 527.004 1027.77 526.01 1029.49 526C1031.2 525.989 1032.53 526.931 1033.47 528.823C1034.24 530.373 1034.74 532.641 1034.97 535.627C1035.02 536.344 1034.49 536.971 1033.77 537.027C1033.06 537.084 1032.43 536.548 1032.37 535.831C1032.17 533.186 1031.75 531.233 1031.13 529.974C1030.67 529.058 1030.13 528.601 1029.5 528.605C1028.88 528.609 1028.33 529.103 1027.87 530.088C1027.24 531.426 1026.81 533.491 1026.6 536.281Z" fill="#42487D"/>
      <path d="M930.518 589.085C937.092 586.356 943.322 582.798 948.662 578.788C972.548 562.279 986.877 529.887 985.02 501.506C984.981 499.583 984.911 497.998 984.856 496.745C984.748 494.312 984.684 492.87 985.106 491.796C986.616 487.954 989.834 487.638 993.765 489.183C997.351 490.592 1001.76 493.857 1005.04 496.277C1006.68 497.489 1007.98 498.452 1008.18 498.53C1008.68 498.73 1016.84 496.976 1025.45 494.96C1034.58 492.826 1043.72 490.405 1044.83 489.605C1045.3 489.267 1046.96 486.766 1048.81 484.001C1052.1 479.078 1055.83 473.474 1059.06 472.789C1060.3 472.524 1061.81 472.524 1063.14 472.92C1066.47 473.902 1066.54 476.149 1067.03 479.016C1069.64 494.464 1069.71 509.315 1068.58 524.283C1067.26 540.053 1062.78 556.764 1056.69 572.238C1043.4 605.422 1021.05 631.657 993.459 650.19C982.103 657.877 969.698 664.2 956.616 668.986L953.919 660.73C966.264 656.263 978.027 650.349 988.922 643.057C1014.5 624.369 1035.55 600.25 1048.61 568.974C1054.44 554.131 1058.53 539.641 1059.78 524.535C1060.97 510.306 1061 495.951 1058.44 482.183C1057.32 483.781 1055.91 485.894 1054.6 487.867C1052.4 491.153 1050.42 494.126 1048.87 495.242C1047 496.595 1036.84 499.449 1027.06 501.736C1017.35 504.007 1007.54 505.738 1005.65 504.996C1004.56 504.57 1002.94 503.372 1000.91 501.865C998.124 499.807 994.432 497.076 991.758 495.869C991.773 496.034 991.786 496.218 991.795 496.425C993.822 538.908 973.543 579.587 932.481 595.096L930.518 589.085ZM991.572 494.324C991.55 494.381 991.542 494.439 991.544 494.505C991.665 494.128 991.738 493.901 991.572 494.324Z" fill="#42487D"/>
      <path fill-rule="evenodd" clip-rule="evenodd" d="M996.112 561.445C982.859 581.841 964.696 598.17 943.141 606.206L953.928 639.233C980.585 629.281 1004.22 611.411 1021.04 587.416C1030.82 571.092 1031.4 560.872 1020.92 555.219C1012.51 550.687 1004.94 551.374 998.214 558.548C997.836 558.952 996.219 561.268 996.112 561.445Z" fill="#DDE1E8"/>
      <path d="M996.443 519.998C997.641 520.066 998.557 521.093 998.489 522.291C998.421 523.49 997.394 524.406 996.196 524.338C994.605 524.247 993.024 524.117 991.452 523.95C989.889 523.783 988.401 523.585 986.99 523.356C985.542 523.121 983.669 522.73 981.372 522.186C979.039 521.634 976.343 520.944 973.284 520.117C972.124 519.804 971.438 518.61 971.751 517.45C972.064 516.291 973.258 515.604 974.418 515.917C977.557 516.766 980.209 517.446 982.371 517.958C984.569 518.478 986.34 518.849 987.683 519.067C989.064 519.291 990.471 519.48 991.903 519.633C993.325 519.784 994.838 519.906 996.443 519.998Z" fill="#42487D"/>
      <path d="M996.235 527.433C997.437 527.451 998.397 528.439 998.379 529.641C998.361 530.843 997.373 531.803 996.171 531.785L974.534 531.471C973.333 531.454 972.373 530.465 972.39 529.263C972.408 528.062 973.397 527.102 974.598 527.119L996.235 527.433Z" fill="#42487D"/>
      <path d="M995.018 535.179C996.187 534.901 997.361 535.624 997.639 536.793C997.917 537.962 997.194 539.136 996.025 539.414C994.898 539.681 993.645 539.92 992.266 540.13C990.919 540.336 989.498 540.506 988.001 540.64C986.471 540.777 984.617 540.902 982.441 541.015C980.413 541.121 977.845 541.226 974.739 541.331C973.541 541.371 972.538 540.432 972.497 539.235C972.457 538.037 973.395 537.034 974.593 536.993C977.315 536.902 979.851 536.795 982.203 536.672C984.405 536.557 986.207 536.437 987.608 536.312C989.042 536.184 990.373 536.026 991.598 535.839C992.791 535.656 993.931 535.437 995.018 535.179Z" fill="#42487D"/>
      <path d="M1050.55 544.156C1049.43 543.742 1048.85 542.496 1049.27 541.373C1049.68 540.249 1050.93 539.673 1052.05 540.087C1053.03 540.447 1054.13 540.799 1055.36 541.142C1056.58 541.481 1057.88 541.799 1059.27 542.095C1060.61 542.381 1062.39 542.716 1064.59 543.101C1066.9 543.504 1069.4 543.915 1072.11 544.335C1073.29 544.516 1074.11 545.625 1073.93 546.81C1073.75 547.996 1072.64 548.811 1071.45 548.63C1068.39 548.155 1065.86 547.741 1063.84 547.39C1061.73 547.021 1059.9 546.673 1058.37 546.345C1056.88 546.029 1055.49 545.691 1054.2 545.331C1052.93 544.975 1051.71 544.583 1050.55 544.156ZM1051.32 536.567C1050.13 536.442 1049.27 535.374 1049.39 534.182C1049.51 532.99 1050.58 532.125 1051.77 532.249L1073.29 534.541C1074.48 534.665 1075.35 535.733 1075.22 536.925C1075.1 538.117 1074.03 538.983 1072.84 538.858L1051.32 536.567ZM1052.19 529.171C1051 529.097 1050.09 528.068 1050.16 526.873C1050.24 525.677 1051.27 524.768 1052.46 524.842C1053.96 524.937 1055.48 524.996 1057.01 525.017L1057.02 525.015C1058.52 525.037 1059.94 525.02 1061.27 524.966C1062.66 524.909 1064.46 524.757 1066.68 524.508C1068.87 524.262 1071.58 523.905 1074.82 523.438C1076 523.262 1077.11 524.084 1077.28 525.271C1077.46 526.459 1076.64 527.565 1075.45 527.74C1072.33 528.19 1069.57 528.55 1067.17 528.82C1064.8 529.088 1062.89 529.25 1061.45 529.309C1059.96 529.37 1058.46 529.389 1056.95 529.367V529.364C1055.47 529.343 1053.89 529.278 1052.19 529.171" fill="#42487D"/>
      <path fill-rule="evenodd" clip-rule="evenodd" d="M1044.81 516.658C1042.57 515.779 1041.47 513.251 1042.35 511.012C1043.23 508.773 1045.76 507.671 1048 508.552C1050.24 509.431 1051.34 511.959 1050.46 514.198C1049.58 516.437 1047.05 517.538 1044.81 516.658Z" fill="#20274F"/>
      <path fill-rule="evenodd" clip-rule="evenodd" d="M1009.34 522.372C1007.1 521.493 1006 518.965 1006.88 516.726C1007.76 514.487 1010.29 513.386 1012.53 514.265C1014.77 515.145 1015.87 517.673 1014.99 519.912C1014.11 522.151 1011.58 523.252 1009.34 522.372Z" fill="#20274F"/>
      <path fill-rule="evenodd" clip-rule="evenodd" d="M1004.69 508.023C1002.02 507.719 996.481 504.186 996.059 503.856C996.055 503.853 996.051 503.857 996.054 503.861C996.423 504.319 1001.48 510.511 1005.1 510.485C1008.35 510.463 1013.74 508.3 1015.1 507.729C1015.15 507.71 1015.13 507.641 1015.08 507.649C1013.49 507.903 1007.11 508.3 1004.69 508.022" fill="#20274F"/>
      <path d="M992.769 564.619C993.442 562.665 995.571 561.625 997.525 562.297C999.479 562.97 1000.52 565.099 999.847 567.053C997.568 573.677 993.044 580.57 986.579 584.087C983.886 585.553 980.635 586.231 977.36 585.863C974.393 585.529 971.407 584.345 968.799 582.12C967.022 580.605 965.564 578.773 964.425 576.625C963.993 575.811 963.606 574.948 963.264 574.038C962.742 572.649 962.324 571.147 962.011 569.535C961.616 567.506 962.94 565.54 964.969 565.145C966.998 564.75 968.963 566.074 969.358 568.103C969.728 570.01 970.292 571.678 971.049 573.105C971.759 574.443 972.63 575.552 973.661 576.433C975.057 577.623 976.635 578.254 978.19 578.429C985.523 579.254 990.882 570.107 992.769 564.619Z" fill="#42487D"/>
      <path d="M1050.55 564.619C1051.23 562.665 1053.36 561.626 1055.31 562.298C1057.26 562.97 1058.3 565.099 1057.63 567.053C1056.96 569.008 1057.3 571.433 1056.25 573.34C1054.61 581.103 1045.5 587 1037.5 586.5C1033 586.219 1029.19 584.345 1026.58 582.12C1024.81 580.605 1023.35 578.773 1022.21 576.625C1021.12 574.568 1020.31 572.204 1019.8 569.535C1019.4 567.506 1020.73 565.54 1022.75 565.145C1024.78 564.75 1026.75 566.074 1027.14 568.103C1027.51 570.01 1028.08 571.678 1028.83 573.105C1029.54 574.443 1030.41 575.552 1031.45 576.433C1032.84 577.623 1034.42 578.254 1035.97 578.429C1043.31 579.254 1048.67 570.107 1050.55 564.619Z" fill="#42487D"/>
      <path fill-rule="evenodd" clip-rule="evenodd" d="M881.698 637.451L889.839 645.589L897.982 637.451L889.839 629.309C886.848 632.019 884.308 634.399 881.698 637.451Z" fill="#5A64AD"/>
      <path fill-rule="evenodd" clip-rule="evenodd" d="M881.112 585.437L885.997 591.363L891.889 586.444L887.037 580.552L881.112 585.437Z" fill="#5A64AD"/>
      <path fill-rule="evenodd" clip-rule="evenodd" d="M903.65 676.072L908.503 670.188L902.608 665.275L897.731 671.19L903.65 676.072Z" fill="#5A64AD"/>
      <path fill-rule="evenodd" clip-rule="evenodd" d="M849.54 650.745C849.544 645.535 843.488 646.644 843.48 650.741C843.472 654.871 849.536 655.926 849.54 650.745Z" fill="#5A64AD"/>
      <path fill-rule="evenodd" clip-rule="evenodd" d="M1040.34 612.745C1037 616.087 1041.19 619.962 1044.37 616.785C1047.56 613.603 1043.65 609.441 1040.34 612.745Z" fill="#5A64AD"/>
      <path fill-rule="evenodd" clip-rule="evenodd" d="M1058.53 676.021L1063.38 670.137L1057.49 665.224L1052.61 671.139L1058.53 676.021Z" fill="#5A64AD"/>
      <path fill-rule="evenodd" clip-rule="evenodd" d="M1074.03 639.625C1074.03 634.414 1067.97 635.523 1067.97 639.621C1067.96 643.75 1074.02 644.805 1074.03 639.625Z" fill="#5A64AD"/>
      <path fill-rule="evenodd" clip-rule="evenodd" d="M835.488 573.772C823.917 573.784 819.083 573.81 816.186 576.388C815.049 577.4 814.209 578.805 813.379 580.757L799.716 618.514C796.425 627.611 795.984 630.174 805.689 630.216L815.553 630.257L815.348 755L1081.32 754.995L1081.37 630.59L1091.78 630.758C1107.91 630.344 1086.82 590.625 1081.98 582.062C1076.78 572.854 1078.56 573.499 1068.58 573.51L1055.5 575.5L1055 576.496C1052.49 581.525 1047.72 585.047 1042.17 585.971C1038.18 586.637 1034.08 585.903 1030.57 583.895L1029.92 583.528C1027.02 581.87 1024.59 579.499 1022.86 576.639L1021 573.561L997 573.5L990.5 581.5L989.491 582.226C982.788 587.053 973.625 586.542 967.5 581C967.5 581 965 577.5 964 573.5L835.488 573.772Z" fill="#545C96"/>
      <path fill-rule="evenodd" clip-rule="evenodd" d="M1008.27 645.162L822.187 645.166L822.194 749.872L1006.6 749.875L1008.28 749.891L1008.27 645.162L1008.27 645.162Z" fill="#20274F"/>
      <path d="M861.769 694.452C861.769 696.767 862.506 698.699 863.981 700.248C865.456 701.779 867.285 702.544 869.469 702.544C871.653 702.544 873.482 701.779 874.957 700.248C876.45 698.699 877.197 696.767 877.197 694.452C877.197 692.137 876.478 690.215 875.041 688.684C873.604 687.135 871.746 686.36 869.469 686.36C867.285 686.36 865.456 687.125 863.981 688.656C862.506 690.187 861.769 692.119 861.769 694.452ZM859.361 694.452C859.361 691.671 860.322 689.281 862.245 687.284C864.186 685.287 866.604 684.288 869.497 684.288C872.521 684.288 874.957 685.287 876.805 687.284C878.672 689.281 879.605 691.671 879.605 694.452C879.605 697.271 878.634 699.669 876.693 701.648C874.752 703.627 872.353 704.616 869.497 704.616C867.836 704.616 866.333 704.317 864.989 703.72C863.664 703.104 862.6 702.301 861.797 701.312C860.994 700.304 860.388 699.221 859.977 698.064C859.566 696.888 859.361 695.684 859.361 694.452ZM901.832 704H882.596V690.588H884.808V702.012H891.108V690.588H893.32V702.012H899.62V690.588H901.832V704ZM905.702 704V690.588H907.914V696.664C907.914 698.307 907.886 699.679 907.83 700.78H907.886C908.166 700.257 908.791 699.371 909.762 698.12L915.502 690.588H917.49V704H915.278V697.924C915.278 696.281 915.306 694.909 915.362 693.808H915.306C915.026 694.331 914.4 695.217 913.43 696.468L907.69 704H905.702ZM922.798 697.28C922.798 698.755 923.274 699.987 924.226 700.976C925.197 701.965 926.345 702.46 927.67 702.46C929.07 702.46 930.227 701.965 931.142 700.976C932.075 699.987 932.542 698.755 932.542 697.28C932.542 695.824 932.103 694.601 931.226 693.612C930.349 692.623 929.191 692.128 927.754 692.128C926.335 692.128 925.15 692.613 924.198 693.584C923.265 694.555 922.798 695.787 922.798 697.28ZM928.818 687.088C925.346 687.704 923.358 689.533 922.854 692.576H922.938C923.423 691.885 924.133 691.307 925.066 690.84C925.999 690.373 926.942 690.14 927.894 690.14C929.947 690.14 931.618 690.821 932.906 692.184C934.194 693.528 934.838 695.227 934.838 697.28C934.838 699.277 934.157 700.976 932.794 702.376C931.431 703.776 929.723 704.476 927.67 704.476C925.598 704.476 923.899 703.757 922.574 702.32C921.249 700.883 920.586 698.829 920.586 696.16C920.586 694.2 920.791 692.52 921.202 691.12C921.631 689.701 922.238 688.591 923.022 687.788C923.825 686.967 924.683 686.341 925.598 685.912C926.513 685.483 927.586 685.165 928.818 684.96C930.199 684.717 931.357 684.279 932.29 683.644L933.242 685.52C931.879 686.304 930.405 686.827 928.818 687.088ZM937.776 704V690.588H939.988V696.72L946.232 690.588H948.948L942.564 696.86L949.144 704H946.288L939.988 697.084V704H937.776ZM964.361 690.588V704H962.149V702.208H962.093C960.842 703.72 959.209 704.476 957.193 704.476C955.308 704.476 953.684 703.813 952.321 702.488C950.977 701.144 950.305 699.408 950.305 697.28C950.305 695.208 950.968 693.5 952.293 692.156C953.637 690.812 955.317 690.14 957.333 690.14C959.181 690.14 960.777 690.933 962.121 692.52H962.149V690.588H964.361ZM953.889 693.64C953.03 694.667 952.601 695.88 952.601 697.28C952.601 698.68 953.03 699.903 953.889 700.948C954.748 701.993 955.952 702.516 957.501 702.516C958.808 702.516 959.937 702.031 960.889 701.06C961.86 700.071 962.345 698.839 962.345 697.364C962.345 695.796 961.878 694.527 960.945 693.556C960.03 692.567 958.901 692.072 957.557 692.072C955.97 692.072 954.748 692.595 953.889 693.64ZM968.293 704V701.536H970.757V704H968.293ZM968.293 684.904H970.757L970.533 698.708H968.517L968.293 684.904Z" fill="white"/>
      <path fill-rule="evenodd" clip-rule="evenodd" d="M804.783 623.612L991.678 623.619L1007.64 580.486H991L989.858 581.453C983.173 587.117 973.249 586.663 967.109 580.412H823.862C817.022 583.798 807.306 614.646 804.783 623.612Z" fill="#20274F"/>
      <path fill-rule="evenodd" clip-rule="evenodd" d="M1074.72 645.184L1014.91 645.217L1014.9 749.855L1074.71 749.878L1074.72 645.184H1074.72Z" fill="#3B416F"/>
      <path fill-rule="evenodd" clip-rule="evenodd" d="M822.187 645.166L1008.27 645.162L1008.17 600.374C982.931 638.538 1046.25 630.976 822.19 630.235L822.186 645.166L822.187 645.166Z" fill="#5A64AD"/>
      <path fill-rule="evenodd" clip-rule="evenodd" d="M1043.14 623.625L1091.98 623.623L1075.68 580.307H1052.42L1052.24 580.489C1044.98 587.893 1033.05 587.858 1025.84 580.41H1015.89L1029.91 618.526C1033.28 626.118 1032.69 623.625 1043.14 623.625Z" fill="#3B416F"/>
      <path fill-rule="evenodd" clip-rule="evenodd" d="M1014.91 645.217L1074.72 645.184L1074.7 630.276C1063.35 630.224 1036.3 632.511 1028.07 628.964C1022.81 625.757 1021.65 611.497 1015.38 600.385L1014.91 645.217Z" fill="#5A64AD"/>
      <path fill-rule="evenodd" clip-rule="evenodd" d="M911.176 66.2281H928.39L944.512 98.6982H932.807L929.711 93.2405H909.855L906.759 98.6982H895.055L911.176 66.2281ZM920.558 73.5499H919.009L913.59 84.8279H925.931L920.558 73.5499ZM959.357 85.7373H976.708C977.649 85.7373 978.37 85.9275 978.871 86.3057C979.372 86.6853 979.622 87.3897 979.622 88.4208C979.622 90.0576 978.65 90.877 976.708 90.877H959.357V85.7373ZM949.338 66.1367V98.6982H979.622C983.205 98.6982 985.77 98.0154 987.319 96.6514C988.867 95.2798 989.64 92.961 989.64 89.6787C989.64 85.8882 988.138 83.3197 985.132 81.9854C986.073 81.5612 986.863 80.7736 987.501 79.6132C988.138 78.4622 988.457 77.0365 988.457 75.3382C988.457 71.4807 987.394 68.8737 985.27 67.5022C983.842 66.5921 981.565 66.1367 978.438 66.1367H949.338ZM959.357 74.0499H977.118C977.938 74.0499 978.56 74.217 978.985 74.5506C979.41 74.8842 979.622 75.4444 979.622 76.2334C979.622 76.9912 979.402 77.5447 978.962 77.8925C978.522 78.2409 977.907 78.4162 977.118 78.4162H959.357V74.0499ZM1009.36 66.2281H1026.57L1042.69 98.6982H1030.99L1027.89 93.2405H1008.04L1004.94 98.6982H993.239L1009.36 66.2281ZM1018.74 73.5499H1017.19L1011.77 84.8279H1024.11L1018.74 73.5499ZM1047.2 98.7895V66.2741H1057.22V98.7895H1047.2Z" fill="#FEFEFE"/>
      <path fill-rule="evenodd" clip-rule="evenodd" d="M904.399 119.155L903.709 117.015H898.132C898.06 117.245 897.95 117.598 897.806 118.076C897.661 118.553 897.551 118.913 897.478 119.155H894.554C895.91 114.742 897.4 110.812 899.021 107.365H902.946C904.701 111.066 906.221 114.996 907.504 119.155H904.399ZM898.913 114.638H902.909C902.243 112.74 901.571 111.012 900.892 109.451C900.239 110.951 899.58 112.68 898.913 114.638ZM910.629 109.85L910.938 110.865C912.076 110.08 913.311 109.675 914.644 109.651V112.263C913.408 112.25 912.246 112.559 911.156 113.188V119.155H908.413V109.85H910.629ZM922.473 109.85V112.026H919.565V115.654C919.565 116.138 919.665 116.501 919.866 116.743C920.065 116.984 920.432 117.105 920.965 117.105C921.461 117.105 921.963 117.02 922.473 116.851V119.028C921.831 119.258 921.134 119.373 920.383 119.373C919.306 119.373 918.443 119.122 917.795 118.62C917.147 118.118 916.823 117.293 916.823 116.144V112.026H915.243V109.85H916.933L917.241 107.474H919.565V109.85H922.473ZM933.298 109.651C934.909 109.651 936.198 110.074 937.166 110.92C938.135 111.766 938.621 112.964 938.621 114.511C938.621 116.06 938.135 117.257 937.166 118.103C936.198 118.949 934.909 119.373 933.298 119.373C931.676 119.373 930.376 118.952 929.401 118.113C928.427 117.272 927.94 116.071 927.94 114.511C927.94 112.964 928.427 111.766 929.401 110.92C930.376 110.074 931.676 109.651 933.298 109.651ZM933.225 111.918C932.498 111.918 931.911 112.15 931.463 112.616C931.015 113.081 930.791 113.714 930.791 114.511C930.791 115.274 931.024 115.897 931.49 116.38C931.957 116.863 932.571 117.105 933.334 117.105C934.061 117.105 934.648 116.861 935.095 116.37C935.545 115.881 935.768 115.262 935.768 114.511C935.768 113.689 935.534 113.052 935.069 112.598C934.602 112.144 933.988 111.918 933.225 111.918ZM944.595 106.041C945.346 106.041 946.006 106.144 946.575 106.35V108.562C946.127 108.381 945.661 108.29 945.176 108.29C944.595 108.29 944.21 108.372 944.023 108.535C943.835 108.699 943.742 108.997 943.742 109.433V109.85H946.629V112.026H943.742V119.155H940.998V112.026H939.073V109.85H940.998V109.27C940.998 108.169 941.335 107.357 942.008 106.831C942.679 106.305 943.542 106.041 944.595 106.041ZM954.803 108.526H951.734V106.187H954.803V108.526ZM954.64 119.155H951.897V109.85H954.64V119.155ZM963.304 109.651C964.406 109.651 965.26 109.934 965.865 110.503C966.47 111.072 966.774 112.026 966.774 113.369V119.155H964.03V113.714C964.03 113.108 963.907 112.659 963.658 112.363C963.41 112.066 962.995 111.918 962.414 111.918C961.445 111.918 960.556 112.208 959.744 112.788V119.155H957.001V109.85H959.217L959.507 110.83C960.706 110.043 961.972 109.651 963.304 109.651ZM975.002 109.85V112.026H972.095V115.654C972.095 116.138 972.195 116.501 972.395 116.743C972.594 116.984 972.962 117.105 973.494 117.105C973.99 117.105 974.493 117.02 975.002 116.851V119.028C974.36 119.258 973.663 119.373 972.913 119.373C971.834 119.373 970.972 119.122 970.324 118.62C969.676 118.118 969.352 117.293 969.352 116.144V112.026H967.772V109.85H969.461L969.771 107.474H972.095V109.85H975.002ZM985.936 115.509H978.907C978.967 115.945 979.161 116.295 979.488 116.561C979.814 116.828 980.158 117 980.514 117.078C980.871 117.157 981.256 117.197 981.668 117.197C982.818 117.197 984.077 116.984 985.445 116.561V118.702C984.029 119.149 982.745 119.373 981.595 119.373C979.863 119.373 978.513 118.964 977.544 118.148C976.575 117.333 976.092 116.096 976.092 114.439C976.092 112.892 976.594 111.706 977.599 110.884C978.604 110.062 979.827 109.651 981.267 109.651C982.794 109.651 983.953 110.043 984.746 110.83C985.539 111.616 985.936 112.752 985.936 114.24V115.509ZM978.925 113.804H983.121C983.109 113.175 982.945 112.682 982.63 112.326C982.315 111.97 981.867 111.791 981.285 111.791C979.856 111.791 979.07 112.462 978.925 113.804ZM990.494 119.155H987.752V106.622H990.494V119.155ZM995.526 119.155H992.783V106.622H995.526V119.155ZM1000.79 108.526H997.723V106.187H1000.79V108.526ZM1000.63 119.155H997.887V109.85H1000.63V119.155ZM1012.82 109.85V118.357C1012.82 119.191 1012.67 119.921 1012.38 120.543C1012.09 121.166 1011.69 121.65 1011.17 121.994C1010.66 122.338 1010.09 122.591 1009.46 122.756C1008.83 122.919 1008.14 123 1007.39 123C1005.9 123 1004.57 122.801 1003.39 122.402V120.098C1004.77 120.533 1006 120.751 1007.08 120.751C1007.96 120.751 1008.68 120.593 1009.24 120.279C1009.8 119.965 1010.07 119.482 1010.07 118.828V118.61C1009.19 119.095 1008.29 119.337 1007.37 119.337C1005.98 119.337 1004.81 118.898 1003.86 118.021C1002.92 117.145 1002.45 115.962 1002.45 114.475C1002.45 112.892 1002.92 111.695 1003.87 110.884C1004.82 110.074 1006.02 109.669 1007.48 109.669C1008.58 109.669 1009.6 109.972 1010.55 110.575L1010.78 109.85H1012.82ZM1007.88 117.088C1008.64 117.088 1009.37 116.851 1010.07 116.38V112.589C1009.35 112.142 1008.59 111.918 1007.81 111.918C1007.04 111.918 1006.43 112.133 1005.98 112.562C1005.53 112.991 1005.3 113.617 1005.3 114.439C1005.3 115.322 1005.54 115.985 1006.02 116.425C1006.51 116.867 1007.13 117.088 1007.88 117.088ZM1024.48 115.509H1017.45C1017.51 115.945 1017.7 116.295 1018.03 116.561C1018.36 116.828 1018.7 117 1019.06 117.078C1019.41 117.157 1019.8 117.197 1020.21 117.197C1021.36 117.197 1022.62 116.984 1023.99 116.561V118.702C1022.57 119.149 1021.29 119.373 1020.14 119.373C1018.41 119.373 1017.05 118.964 1016.09 118.148C1015.12 117.333 1014.63 116.096 1014.63 114.439C1014.63 112.892 1015.14 111.706 1016.14 110.884C1017.15 110.062 1018.37 109.651 1019.81 109.651C1021.34 109.651 1022.49 110.043 1023.29 110.83C1024.08 111.616 1024.48 112.752 1024.48 114.24V115.509ZM1017.47 113.804H1021.66C1021.65 113.175 1021.49 112.682 1021.17 112.326C1020.86 111.97 1020.41 111.791 1019.83 111.791C1018.4 111.791 1017.61 112.462 1017.47 113.804ZM1032.6 109.651C1033.7 109.651 1034.55 109.934 1035.16 110.503C1035.76 111.072 1036.07 112.026 1036.07 113.369V119.155H1033.32V113.714C1033.32 113.108 1033.2 112.659 1032.95 112.363C1032.7 112.066 1032.29 111.918 1031.71 111.918C1030.74 111.918 1029.85 112.208 1029.04 112.788V119.155H1026.29V109.85H1028.51L1028.8 110.83C1030 110.043 1031.27 109.651 1032.6 109.651ZM1043.11 109.651C1044.37 109.651 1045.52 109.827 1046.57 110.177V112.517C1045.65 112.117 1044.66 111.918 1043.6 111.918C1042.78 111.918 1042.1 112.133 1041.55 112.562C1041.01 112.991 1040.73 113.629 1040.73 114.475C1040.73 115.346 1041.03 116.002 1041.62 116.444C1042.2 116.885 1042.87 117.105 1043.62 117.105C1044.7 117.105 1045.68 116.966 1046.57 116.688V118.992C1045.38 119.246 1044.36 119.373 1043.52 119.373C1041.84 119.373 1040.49 118.971 1039.45 118.167C1038.4 117.362 1037.88 116.156 1037.88 114.548C1037.88 112.989 1038.39 111.782 1039.4 110.93C1040.41 110.077 1041.65 109.651 1043.11 109.651ZM1057.45 115.509H1050.42C1050.48 115.945 1050.67 116.295 1051 116.561C1051.32 116.828 1051.67 117 1052.02 117.078C1052.38 117.157 1052.76 117.197 1053.18 117.197C1054.33 117.197 1055.59 116.984 1056.95 116.561V118.702C1055.54 119.149 1054.25 119.373 1053.1 119.373C1051.37 119.373 1050.02 118.964 1049.05 118.148C1048.08 117.333 1047.6 116.096 1047.6 114.439C1047.6 112.892 1048.1 111.706 1049.11 110.884C1050.11 110.062 1051.34 109.651 1052.78 109.651C1054.3 109.651 1055.46 110.043 1056.26 110.83C1057.05 111.616 1057.45 112.752 1057.45 114.24V115.509ZM1050.43 113.804H1054.63C1054.62 113.175 1054.45 112.682 1054.14 112.326C1053.82 111.97 1053.38 111.791 1052.8 111.791C1051.37 111.791 1050.58 112.462 1050.43 113.804Z" fill="#FEFEFE"/>
      <path fill-rule="evenodd" clip-rule="evenodd" d="M860.292 69.2291L876.664 95.5548C881.247 104.696 880.696 112.777 874.755 119.745L871.545 114.712L852.119 83.6623L860.292 69.2291Z" fill="#1D70B7"/>
      <path fill-rule="evenodd" clip-rule="evenodd" d="M845.834 83.7414L840.922 92.5551C839.338 95.3963 838.227 97.1156 839.05 100.569C840.009 104.594 843.661 107.61 847.951 107.61C851.134 107.61 853.892 105.948 855.419 103.447C855.514 103.381 855.604 103.329 855.689 103.295C856.016 105.97 855.872 108.442 855.296 110.593C854.01 115.398 850.105 119.432 844.952 120.088C831.256 122.319 819.463 109.378 822.474 96.2813C823.229 92.9949 825.119 89.5611 826.71 86.6103C828.569 83.1635 830.586 79.7262 832.282 77.0468L837.363 69.0233L845.834 83.7414Z" fill="#FEFEFE"/>
      <path fill-rule="evenodd" clip-rule="evenodd" d="M840.25 64.1206L848.273 50L857.043 64.1206L848.969 78.3772L840.25 64.1206Z" fill="#1D70B7"/>
      <path d="M789.724 895V875.904H793.952C795.912 875.904 797.443 876.343 798.544 877.22C799.646 878.097 800.196 879.283 800.196 880.776C800.196 882.736 799.16 884.089 797.088 884.836V884.892C798.526 885.041 799.627 885.564 800.392 886.46C801.176 887.356 801.568 888.448 801.568 889.736C801.568 891.453 800.971 892.76 799.776 893.656C798.6 894.552 797.079 895 795.212 895H789.724ZM799.16 889.568C799.16 888.504 798.796 887.673 798.068 887.076C797.34 886.479 796.314 886.18 794.988 886.18H792.048V892.872H795.38C796.631 892.872 797.574 892.573 798.208 891.976C798.843 891.379 799.16 890.576 799.16 889.568ZM797.816 880.972C797.816 879.983 797.462 879.245 796.752 878.76C796.043 878.275 795.11 878.032 793.952 878.032H792.048V884.052H794.12C795.259 884.052 796.155 883.772 796.808 883.212C797.48 882.633 797.816 881.887 797.816 880.972ZM810.445 881.14C811.603 881.14 812.629 881.364 813.525 881.812C814.421 882.26 815.112 882.839 815.597 883.548C816.101 884.257 816.475 885.004 816.717 885.788C816.96 886.553 817.081 887.328 817.081 888.112C817.081 888.467 817.063 888.737 817.025 888.924H806.077C806.077 890.137 806.553 891.211 807.505 892.144C808.457 893.059 809.568 893.516 810.837 893.516C812.219 893.516 813.367 892.975 814.281 891.892H816.829C816.307 892.881 815.541 893.731 814.533 894.44C813.544 895.131 812.331 895.476 810.893 895.476C808.784 895.476 807.067 894.776 805.741 893.376C804.435 891.976 803.781 890.221 803.781 888.112C803.781 886.189 804.397 884.547 805.629 883.184C806.861 881.821 808.467 881.14 810.445 881.14ZM810.445 883.072C809.232 883.072 808.233 883.473 807.449 884.276C806.665 885.06 806.217 885.993 806.105 887.076H814.757C814.645 885.975 814.188 885.032 813.385 884.248C812.601 883.464 811.621 883.072 810.445 883.072ZM818.506 899.34V893.012H818.842C820.653 893.012 821.745 891.015 822.118 887.02L822.622 881.588H831.918V893.012H833.99V899.34H831.778V895H820.718V899.34H818.506ZM829.706 893.012V883.576H824.554L824.274 886.796C824.125 888.476 823.91 889.783 823.63 890.716C823.35 891.649 822.949 892.415 822.426 893.012H829.706ZM842.082 881.14C843.239 881.14 844.266 881.364 845.162 881.812C846.058 882.26 846.749 882.839 847.234 883.548C847.738 884.257 848.111 885.004 848.354 885.788C848.597 886.553 848.718 887.328 848.718 888.112C848.718 888.467 848.699 888.737 848.662 888.924H837.714C837.714 890.137 838.19 891.211 839.142 892.144C840.094 893.059 841.205 893.516 842.474 893.516C843.855 893.516 845.003 892.975 845.918 891.892H848.466C847.943 892.881 847.178 893.731 846.17 894.44C845.181 895.131 843.967 895.476 842.53 895.476C840.421 895.476 838.703 894.776 837.378 893.376C836.071 891.976 835.418 890.221 835.418 888.112C835.418 886.189 836.034 884.547 837.266 883.184C838.498 881.821 840.103 881.14 842.082 881.14ZM842.082 883.072C840.869 883.072 839.87 883.473 839.086 884.276C838.302 885.06 837.854 885.993 837.742 887.076H846.394C846.282 885.975 845.825 885.032 845.022 884.248C844.238 883.464 843.258 883.072 842.082 883.072ZM859.831 881.588V883.576H856.051V895H853.839V883.576H850.003V881.588H859.831ZM867.767 881.14C869.484 881.14 870.847 881.551 871.855 882.372C872.882 883.175 873.535 884.061 873.815 885.032H871.351C870.735 883.725 869.54 883.072 867.767 883.072C866.423 883.072 865.294 883.529 864.379 884.444C863.464 885.34 863.007 886.619 863.007 888.28C863.007 889.792 863.464 891.043 864.379 892.032C865.312 893.021 866.488 893.516 867.907 893.516C869.624 893.516 870.838 892.779 871.547 891.304H874.011C873.6 892.48 872.891 893.469 871.883 894.272C870.875 895.075 869.54 895.476 867.879 895.476C865.788 895.476 864.071 894.804 862.727 893.46C861.383 892.097 860.711 890.361 860.711 888.252C860.711 886.236 861.355 884.547 862.643 883.184C863.95 881.821 865.658 881.14 867.767 881.14ZM882.97 889.484H881.43L877.678 895H875.298L879.218 889.316C878.266 889.092 877.52 888.653 876.978 888C876.456 887.328 876.194 886.507 876.194 885.536C876.194 884.341 876.577 883.389 877.342 882.68C878.108 881.952 879.172 881.588 880.534 881.588H885.182V895H882.97V889.484ZM880.646 887.636H882.97V883.436H880.646C879.9 883.436 879.34 883.641 878.966 884.052C878.593 884.444 878.406 884.929 878.406 885.508C878.406 886.927 879.153 887.636 880.646 887.636ZM904.21 881.588V883.576H900.43V895H898.218V883.576H894.382V881.588H904.21ZM911.754 881.14C912.911 881.14 913.938 881.364 914.834 881.812C915.73 882.26 916.421 882.839 916.906 883.548C917.41 884.257 917.783 885.004 918.026 885.788C918.269 886.553 918.39 887.328 918.39 888.112C918.39 888.467 918.371 888.737 918.334 888.924H907.386C907.386 890.137 907.862 891.211 908.814 892.144C909.766 893.059 910.877 893.516 912.146 893.516C913.527 893.516 914.675 892.975 915.59 891.892H918.138C917.615 892.881 916.85 893.731 915.842 894.44C914.853 895.131 913.639 895.476 912.202 895.476C910.093 895.476 908.375 894.776 907.05 893.376C905.743 891.976 905.09 890.221 905.09 888.112C905.09 886.189 905.706 884.547 906.938 883.184C908.17 881.821 909.775 881.14 911.754 881.14ZM911.754 883.072C910.541 883.072 909.542 883.473 908.758 884.276C907.974 885.06 907.526 885.993 907.414 887.076H916.066C915.954 885.975 915.497 885.032 914.694 884.248C913.91 883.464 912.93 883.072 911.754 883.072ZM919.492 895L924.448 888.112L919.8 881.588H922.376L924.756 884.948C924.905 885.172 925.073 885.433 925.26 885.732C925.446 886.031 925.577 886.236 925.652 886.348H925.708C925.801 886.199 925.95 885.984 926.156 885.704C926.361 885.405 926.52 885.181 926.632 885.032L928.956 881.588H931.504L926.828 888.056L931.812 895H929.208L926.604 891.276C926.492 891.127 926.324 890.893 926.1 890.576C925.894 890.259 925.736 890.025 925.624 889.876H925.54L924.532 891.304L922.012 895H919.492ZM934.118 895V891.92H937.198V895H934.118ZM946.844 888.28C946.844 886.227 947.525 884.528 948.888 883.184C950.269 881.821 951.977 881.14 954.012 881.14C956.084 881.14 957.792 881.821 959.136 883.184C960.499 884.547 961.18 886.245 961.18 888.28C961.18 890.277 960.499 891.976 959.136 893.376C957.773 894.776 956.065 895.476 954.012 895.476C951.977 895.476 950.269 894.785 948.888 893.404C947.525 892.023 946.844 890.315 946.844 888.28ZM949.14 888.28C949.14 889.755 949.616 890.987 950.568 891.976C951.539 892.965 952.687 893.46 954.012 893.46C955.412 893.46 956.569 892.965 957.484 891.976C958.417 890.987 958.884 889.755 958.884 888.28C958.884 886.824 958.427 885.601 957.512 884.612C956.616 883.623 955.449 883.128 954.012 883.128C952.593 883.128 951.427 883.613 950.512 884.584C949.597 885.555 949.14 886.787 949.14 888.28ZM965.576 888.28C965.576 889.755 966.052 890.987 967.004 891.976C967.974 892.965 969.122 893.46 970.448 893.46C971.848 893.46 973.005 892.965 973.92 891.976C974.853 890.987 975.32 889.755 975.32 888.28C975.32 886.824 974.881 885.601 974.004 884.612C973.126 883.623 971.969 883.128 970.532 883.128C969.113 883.128 967.928 883.613 966.976 884.584C966.042 885.555 965.576 886.787 965.576 888.28ZM971.596 878.088C968.124 878.704 966.136 880.533 965.632 883.576H965.716C966.201 882.885 966.91 882.307 967.844 881.84C968.777 881.373 969.72 881.14 970.672 881.14C972.725 881.14 974.396 881.821 975.684 883.184C976.972 884.528 977.615 886.227 977.615 888.28C977.615 890.277 976.934 891.976 975.572 893.376C974.209 894.776 972.501 895.476 970.448 895.476C968.376 895.476 966.677 894.757 965.352 893.32C964.026 891.883 963.364 889.829 963.364 887.16C963.364 885.2 963.569 883.52 963.98 882.12C964.409 880.701 965.016 879.591 965.8 878.788C966.602 877.967 967.461 877.341 968.376 876.912C969.29 876.483 970.364 876.165 971.596 875.96C972.977 875.717 974.134 875.279 975.068 874.644L976.02 876.52C974.657 877.304 973.182 877.827 971.596 878.088ZM986.685 881.14C988.402 881.14 989.765 881.551 990.773 882.372C991.8 883.175 992.453 884.061 992.733 885.032H990.269C989.653 883.725 988.458 883.072 986.685 883.072C985.341 883.072 984.212 883.529 983.297 884.444C982.382 885.34 981.925 886.619 981.925 888.28C981.925 889.792 982.382 891.043 983.297 892.032C984.23 893.021 985.406 893.516 986.825 893.516C988.542 893.516 989.756 892.779 990.465 891.304H992.929C992.518 892.48 991.809 893.469 990.801 894.272C989.793 895.075 988.458 895.476 986.797 895.476C984.706 895.476 982.989 894.804 981.645 893.46C980.301 892.097 979.629 890.361 979.629 888.252C979.629 886.236 980.273 884.547 981.561 883.184C982.868 881.821 984.576 881.14 986.685 881.14ZM996.708 890.996L997.492 881.588H1007.6V895H1005.39V883.576H999.564L998.892 890.996C998.743 892.508 998.407 893.581 997.884 894.216C997.362 894.851 996.503 895.168 995.308 895.168C994.935 895.168 994.543 895.121 994.132 895.028V893.236C994.394 893.311 994.711 893.348 995.084 893.348C995.607 893.348 995.99 893.161 996.232 892.788C996.475 892.415 996.634 891.817 996.708 890.996ZM1021.56 881.588L1014.17 901.58H1012.04L1014.48 895L1009.55 881.588H1011.82L1014.64 889.4C1015.11 890.576 1015.41 891.519 1015.54 892.228H1015.6C1016.1 890.66 1016.41 889.717 1016.52 889.4L1019.32 881.588H1021.56ZM1029.42 895V888.084L1024.1 895H1021.38L1027.07 887.86L1021.63 881.588H1024.15L1029.42 887.72V881.588H1031.63V887.72L1036.89 881.588H1039.41L1033.98 887.86L1039.67 895H1036.95L1031.63 888.084V895H1029.42ZM1041.37 895V881.588H1043.58V887.664C1043.58 889.307 1043.55 890.679 1043.49 891.78H1043.55C1043.83 891.257 1044.45 890.371 1045.43 889.12L1051.17 881.588H1053.15V895H1050.94V888.924C1050.94 887.281 1050.97 885.909 1051.03 884.808H1050.97C1050.69 885.331 1050.06 886.217 1049.09 887.468L1043.35 895H1041.37ZM1057.01 895V881.588H1062.07C1063.46 881.588 1064.54 881.887 1065.32 882.484C1066.11 883.063 1066.5 883.893 1066.5 884.976C1066.5 885.573 1066.32 886.124 1065.97 886.628C1065.63 887.113 1065.1 887.468 1064.37 887.692C1065.47 887.897 1066.27 888.299 1066.78 888.896C1067.3 889.493 1067.56 890.193 1067.56 890.996C1067.56 892.209 1067.12 893.18 1066.25 893.908C1065.39 894.636 1064.19 895 1062.66 895H1057.01ZM1062.47 888.924H1059.13V893.152H1062.8C1063.64 893.152 1064.28 892.947 1064.71 892.536C1065.14 892.125 1065.35 891.621 1065.35 891.024C1065.35 889.624 1064.39 888.924 1062.47 888.924ZM1061.93 883.436H1059.13V887.076H1061.63C1063.42 887.076 1064.31 886.451 1064.31 885.2C1064.31 884.024 1063.52 883.436 1061.93 883.436ZM1083.81 881.588V895H1081.6V893.208H1081.54C1080.29 894.72 1078.66 895.476 1076.64 895.476C1074.76 895.476 1073.13 894.813 1071.77 893.488C1070.43 892.144 1069.75 890.408 1069.75 888.28C1069.75 886.208 1070.42 884.5 1071.74 883.156C1073.09 881.812 1074.77 881.14 1076.78 881.14C1078.63 881.14 1080.23 881.933 1081.57 883.52H1081.6V881.588H1083.81ZM1073.34 884.64C1072.48 885.667 1072.05 886.88 1072.05 888.28C1072.05 889.68 1072.48 890.903 1073.34 891.948C1074.2 892.993 1075.4 893.516 1076.95 893.516C1078.26 893.516 1079.39 893.031 1080.34 892.06C1081.31 891.071 1081.79 889.839 1081.79 888.364C1081.79 886.796 1081.33 885.527 1080.39 884.556C1079.48 883.567 1078.35 883.072 1077.01 883.072C1075.42 883.072 1074.2 883.595 1073.34 884.64ZM1099.47 881.588V895H1097.26V888.924H1089.9V895H1087.69V881.588H1089.9V887.076H1097.26V881.588H1099.47ZM1103.33 895V881.588H1105.54V887.664C1105.54 889.307 1105.51 890.679 1105.45 891.78H1105.51C1105.79 891.257 1106.42 890.371 1107.39 889.12L1113.13 881.588H1115.11V895H1112.9V888.924C1112.9 887.281 1112.93 885.909 1112.99 884.808H1112.93C1112.65 885.331 1112.03 886.217 1111.05 887.468L1105.31 895H1103.33ZM1124.71 881.14C1125.86 881.14 1126.89 881.364 1127.79 881.812C1128.68 882.26 1129.37 882.839 1129.86 883.548C1130.36 884.257 1130.74 885.004 1130.98 885.788C1131.22 886.553 1131.34 887.328 1131.34 888.112C1131.34 888.467 1131.32 888.737 1131.29 888.924H1120.34C1120.34 890.137 1120.82 891.211 1121.77 892.144C1122.72 893.059 1123.83 893.516 1125.1 893.516C1126.48 893.516 1127.63 892.975 1128.54 891.892H1131.09C1130.57 892.881 1129.8 893.731 1128.8 894.44C1127.81 895.131 1126.59 895.476 1125.16 895.476C1123.05 895.476 1121.33 894.776 1120 893.376C1118.7 891.976 1118.04 890.221 1118.04 888.112C1118.04 886.189 1118.66 884.547 1119.89 883.184C1121.12 881.821 1122.73 881.14 1124.71 881.14ZM1124.71 883.072C1123.49 883.072 1122.5 883.473 1121.71 884.276C1120.93 885.06 1120.48 885.993 1120.37 887.076H1129.02C1128.91 885.975 1128.45 885.032 1127.65 884.248C1126.86 883.464 1125.88 883.072 1124.71 883.072ZM679.688 929V912.032H670.56V929H668.236V909.904H682.012V929H679.688ZM685.082 922.28C685.082 920.227 685.764 918.528 687.126 917.184C688.508 915.821 690.216 915.14 692.25 915.14C694.322 915.14 696.03 915.821 697.374 917.184C698.737 918.547 699.418 920.245 699.418 922.28C699.418 924.277 698.737 925.976 697.374 927.376C696.012 928.776 694.304 929.476 692.25 929.476C690.216 929.476 688.508 928.785 687.126 927.404C685.764 926.023 685.082 924.315 685.082 922.28ZM687.378 922.28C687.378 923.755 687.854 924.987 688.806 925.976C689.777 926.965 690.925 927.46 692.25 927.46C693.65 927.46 694.808 926.965 695.722 925.976C696.656 924.987 697.122 923.755 697.122 922.28C697.122 920.824 696.665 919.601 695.75 918.612C694.854 917.623 693.688 917.128 692.25 917.128C690.832 917.128 689.665 917.613 688.75 918.584C687.836 919.555 687.378 920.787 687.378 922.28ZM714.146 915.588V929H711.934V917.576H704.57V929H702.358V915.588H714.146ZM717.998 935.58V915.588H720.21V917.492H720.266C721.592 915.924 723.272 915.14 725.306 915.14C727.36 915.14 728.993 915.849 730.206 917.268C731.438 918.687 732.054 920.357 732.054 922.28C732.054 924.315 731.401 926.023 730.094 927.404C728.806 928.785 727.182 929.476 725.222 929.476C723.188 929.476 721.536 928.72 720.266 927.208H720.21V935.58H717.998ZM729.758 922.28C729.758 920.861 729.32 919.639 728.442 918.612C727.584 917.585 726.38 917.072 724.83 917.072C723.468 917.072 722.32 917.567 721.386 918.556C720.472 919.527 720.014 920.796 720.014 922.364C720.014 923.857 720.49 925.089 721.442 926.06C722.413 927.031 723.561 927.516 724.886 927.516C726.417 927.516 727.612 926.993 728.47 925.948C729.329 924.903 729.758 923.68 729.758 922.28ZM734.082 922.28C734.082 920.227 734.764 918.528 736.126 917.184C737.508 915.821 739.216 915.14 741.25 915.14C743.322 915.14 745.03 915.821 746.374 917.184C747.737 918.547 748.418 920.245 748.418 922.28C748.418 924.277 747.737 925.976 746.374 927.376C745.012 928.776 743.304 929.476 741.25 929.476C739.216 929.476 737.508 928.785 736.126 927.404C734.764 926.023 734.082 924.315 734.082 922.28ZM736.378 922.28C736.378 923.755 736.854 924.987 737.806 925.976C738.777 926.965 739.925 927.46 741.25 927.46C742.65 927.46 743.808 926.965 744.722 925.976C745.656 924.987 746.122 923.755 746.122 922.28C746.122 920.824 745.665 919.601 744.75 918.612C743.854 917.623 742.688 917.128 741.25 917.128C739.832 917.128 738.665 917.613 737.75 918.584C736.836 919.555 736.378 920.787 736.378 922.28ZM752.814 922.28C752.814 923.755 753.29 924.987 754.242 925.976C755.212 926.965 756.36 927.46 757.686 927.46C759.086 927.46 760.243 926.965 761.158 925.976C762.091 924.987 762.558 923.755 762.558 922.28C762.558 920.824 762.119 919.601 761.242 918.612C760.364 917.623 759.207 917.128 757.77 917.128C756.351 917.128 755.166 917.613 754.214 918.584C753.28 919.555 752.814 920.787 752.814 922.28ZM758.834 912.088C755.362 912.704 753.374 914.533 752.87 917.576H752.954C753.439 916.885 754.148 916.307 755.082 915.84C756.015 915.373 756.958 915.14 757.91 915.14C759.963 915.14 761.634 915.821 762.922 917.184C764.21 918.528 764.854 920.227 764.854 922.28C764.854 924.277 764.172 925.976 762.81 927.376C761.447 928.776 759.739 929.476 757.686 929.476C755.614 929.476 753.915 928.757 752.59 927.32C751.264 925.883 750.602 923.829 750.602 921.16C750.602 919.2 750.807 917.52 751.218 916.12C751.647 914.701 752.254 913.591 753.038 912.788C753.84 911.967 754.699 911.341 755.614 910.912C756.528 910.483 757.602 910.165 758.834 909.96C760.215 909.717 761.372 909.279 762.306 908.644L763.258 910.52C761.895 911.304 760.42 911.827 758.834 912.088ZM777.899 915.588L770.507 935.58H768.379L770.815 929L765.887 915.588H768.155L770.983 923.4C771.45 924.576 771.749 925.519 771.879 926.228H771.935C772.439 924.66 772.747 923.717 772.859 923.4L775.659 915.588H777.899ZM779.877 929V915.588H782.089V921.664C782.089 923.307 782.061 924.679 782.005 925.78H782.061C782.341 925.257 782.967 924.371 783.937 923.12L789.677 915.588H791.665V929H789.453V922.924C789.453 921.281 789.481 919.909 789.537 918.808H789.481C789.201 919.331 788.576 920.217 787.605 921.468L781.865 929H779.877ZM788.417 909.008H790.265C790.209 910.184 789.761 911.164 788.921 911.948C788.1 912.732 787.092 913.124 785.897 913.124C784.684 913.124 783.667 912.732 782.845 911.948C782.024 911.164 781.585 910.184 781.529 909.008H783.377C783.415 909.699 783.667 910.249 784.133 910.66C784.6 911.052 785.188 911.248 785.897 911.248C786.607 911.248 787.195 911.043 787.661 910.632C788.128 910.221 788.38 909.68 788.417 909.008ZM803.694 915.588V917.576H799.914V929H797.702V917.576H793.866V915.588H803.694ZM811.238 915.14C812.396 915.14 813.422 915.364 814.318 915.812C815.214 916.26 815.905 916.839 816.39 917.548C816.894 918.257 817.268 919.004 817.51 919.788C817.753 920.553 817.874 921.328 817.874 922.112C817.874 922.467 817.856 922.737 817.818 922.924H806.87C806.87 924.137 807.346 925.211 808.298 926.144C809.25 927.059 810.361 927.516 811.63 927.516C813.012 927.516 814.16 926.975 815.074 925.892H817.622C817.1 926.881 816.334 927.731 815.326 928.44C814.337 929.131 813.124 929.476 811.686 929.476C809.577 929.476 807.86 928.776 806.534 927.376C805.228 925.976 804.574 924.221 804.574 922.112C804.574 920.189 805.19 918.547 806.422 917.184C807.654 915.821 809.26 915.14 811.238 915.14ZM811.238 917.072C810.025 917.072 809.026 917.473 808.242 918.276C807.458 919.06 807.01 919.993 806.898 921.076H815.55C815.438 919.975 814.981 919.032 814.178 918.248C813.394 917.464 812.414 917.072 811.238 917.072ZM839.599 915.588V929H837.387V917.576H830.023V929H827.811V915.588H839.599ZM842.528 922.28C842.528 920.227 843.209 918.528 844.572 917.184C845.953 915.821 847.661 915.14 849.696 915.14C851.768 915.14 853.476 915.821 854.82 917.184C856.182 918.547 856.864 920.245 856.864 922.28C856.864 924.277 856.182 925.976 854.82 927.376C853.457 928.776 851.749 929.476 849.696 929.476C847.661 929.476 845.953 928.785 844.572 927.404C843.209 926.023 842.528 924.315 842.528 922.28ZM844.824 922.28C844.824 923.755 845.3 924.987 846.252 925.976C847.222 926.965 848.37 927.46 849.696 927.46C851.096 927.46 852.253 926.965 853.168 925.976C854.101 924.987 854.568 923.755 854.568 922.28C854.568 920.824 854.11 919.601 853.196 918.612C852.3 917.623 851.133 917.128 849.696 917.128C848.277 917.128 847.11 917.613 846.196 918.584C845.281 919.555 844.824 920.787 844.824 922.28ZM858.655 925.668H861.007C861.362 926.937 862.332 927.572 863.919 927.572C864.946 927.572 865.73 927.357 866.271 926.928C866.812 926.48 867.083 925.911 867.083 925.22C867.083 924.511 866.803 923.951 866.243 923.54C865.702 923.129 865.076 922.924 864.367 922.924H862.435V921.076H864.367C865.076 921.076 865.646 920.889 866.075 920.516C866.523 920.124 866.747 919.62 866.747 919.004C866.747 918.463 866.514 918.005 866.047 917.632C865.58 917.24 864.936 917.044 864.115 917.044C863.443 917.044 862.855 917.203 862.351 917.52C861.866 917.837 861.548 918.267 861.399 918.808H859.103C859.327 917.669 859.896 916.773 860.811 916.12C861.726 915.467 862.818 915.14 864.087 915.14C865.506 915.14 866.663 915.485 867.559 916.176C868.474 916.848 868.931 917.725 868.931 918.808C868.931 920.432 868.166 921.477 866.635 921.944C867.456 922.187 868.1 922.607 868.567 923.204C869.052 923.783 869.295 924.455 869.295 925.22C869.295 926.489 868.828 927.525 867.895 928.328C866.962 929.112 865.627 929.504 863.891 929.504C862.528 929.504 861.371 929.168 860.419 928.496C859.467 927.824 858.879 926.881 858.655 925.668ZM870.404 933.34V927.012H870.74C872.551 927.012 873.643 925.015 874.016 921.02L874.52 915.588H883.816V927.012H885.888V933.34H883.676V929H872.616V933.34H870.404ZM881.604 927.012V917.576H876.452L876.172 920.796C876.023 922.476 875.808 923.783 875.528 924.716C875.248 925.649 874.847 926.415 874.324 927.012H881.604ZM900.302 915.588V929H898.09V922.924H890.726V929H888.514V915.588H890.726V921.076H898.09V915.588H900.302ZM909.895 915.14C911.052 915.14 912.079 915.364 912.975 915.812C913.871 916.26 914.561 916.839 915.047 917.548C915.551 918.257 915.924 919.004 916.167 919.788C916.409 920.553 916.531 921.328 916.531 922.112C916.531 922.467 916.512 922.737 916.475 922.924H905.527C905.527 924.137 906.003 925.211 906.955 926.144C907.907 927.059 909.017 927.516 910.287 927.516C911.668 927.516 912.816 926.975 913.731 925.892H916.279C915.756 926.881 914.991 927.731 913.983 928.44C912.993 929.131 911.78 929.476 910.343 929.476C908.233 929.476 906.516 928.776 905.191 927.376C903.884 925.976 903.231 924.221 903.231 922.112C903.231 920.189 903.847 918.547 905.079 917.184C906.311 915.821 907.916 915.14 909.895 915.14ZM909.895 917.072C908.681 917.072 907.683 917.473 906.899 918.276C906.115 919.06 905.667 919.993 905.555 921.076H914.207C914.095 919.975 913.637 919.032 912.835 918.248C912.051 917.464 911.071 917.072 909.895 917.072ZM925.207 915.14C926.364 915.14 927.391 915.364 928.287 915.812C929.183 916.26 929.874 916.839 930.359 917.548C930.863 918.257 931.236 919.004 931.479 919.788C931.722 920.553 931.843 921.328 931.843 922.112C931.843 922.467 931.824 922.737 931.787 922.924H920.839C920.839 924.137 921.315 925.211 922.267 926.144C923.219 927.059 924.33 927.516 925.599 927.516C926.98 927.516 928.128 926.975 929.043 925.892H931.591C931.068 926.881 930.303 927.731 929.295 928.44C928.306 929.131 927.092 929.476 925.655 929.476C923.546 929.476 921.828 928.776 920.503 927.376C919.196 925.976 918.543 924.221 918.543 922.112C918.543 920.189 919.159 918.547 920.391 917.184C921.623 915.821 923.228 915.14 925.207 915.14ZM925.207 917.072C923.994 917.072 922.995 917.473 922.211 918.276C921.427 919.06 920.979 919.993 920.867 921.076H929.519C929.407 919.975 928.95 919.032 928.147 918.248C927.363 917.464 926.383 917.072 925.207 917.072ZM934.528 929V925.92H937.608V927.6C937.608 929.504 937.104 931.231 936.096 932.78H934.556C935.153 931.865 935.526 930.605 935.676 929H934.528ZM954.31 915.14C956.027 915.14 957.39 915.551 958.398 916.372C959.425 917.175 960.078 918.061 960.358 919.032H957.894C957.278 917.725 956.083 917.072 954.31 917.072C952.966 917.072 951.837 917.529 950.922 918.444C950.007 919.34 949.55 920.619 949.55 922.28C949.55 923.792 950.007 925.043 950.922 926.032C951.855 927.021 953.031 927.516 954.45 927.516C956.167 927.516 957.381 926.779 958.09 925.304H960.554C960.143 926.48 959.434 927.469 958.426 928.272C957.418 929.075 956.083 929.476 954.422 929.476C952.331 929.476 950.614 928.804 949.27 927.46C947.926 926.097 947.254 924.361 947.254 922.252C947.254 920.236 947.898 918.547 949.186 917.184C950.493 915.821 952.201 915.14 954.31 915.14ZM975.169 915.588V929H972.957V917.576H965.593V929H963.381V915.588H975.169ZM992.154 915.588V929H989.942V927.208H989.886C988.635 928.72 987.002 929.476 984.986 929.476C983.101 929.476 981.477 928.813 980.114 927.488C978.77 926.144 978.098 924.408 978.098 922.28C978.098 920.208 978.761 918.5 980.086 917.156C981.43 915.812 983.11 915.14 985.126 915.14C986.974 915.14 988.57 915.933 989.914 917.52H989.942V915.588H992.154ZM981.682 918.64C980.823 919.667 980.394 920.88 980.394 922.28C980.394 923.68 980.823 924.903 981.682 925.948C982.541 926.993 983.745 927.516 985.294 927.516C986.601 927.516 987.73 927.031 988.682 926.06C989.653 925.071 990.138 923.839 990.138 922.364C990.138 920.796 989.671 919.527 988.738 918.556C987.823 917.567 986.694 917.072 985.35 917.072C983.763 917.072 982.541 917.595 981.682 918.64ZM1002.16 915.14C1003.88 915.14 1005.24 915.551 1006.25 916.372C1007.28 917.175 1007.93 918.061 1008.21 919.032H1005.75C1005.13 917.725 1003.93 917.072 1002.16 917.072C1000.82 917.072 999.688 917.529 998.774 918.444C997.859 919.34 997.402 920.619 997.402 922.28C997.402 923.792 997.859 925.043 998.774 926.032C999.707 927.021 1000.88 927.516 1002.3 927.516C1004.02 927.516 1005.23 926.779 1005.94 925.304H1008.41C1007.99 926.48 1007.29 927.469 1006.28 928.272C1005.27 929.075 1003.93 929.476 1002.27 929.476C1000.18 929.476 998.466 928.804 997.122 927.46C995.778 926.097 995.106 924.361 995.106 922.252C995.106 920.236 995.75 918.547 997.038 917.184C998.344 915.821 1000.05 915.14 1002.16 915.14ZM1011.23 929V915.588H1013.44V921.664C1013.44 923.307 1013.42 924.679 1013.36 925.78H1013.42C1013.7 925.257 1014.32 924.371 1015.29 923.12L1021.03 915.588H1023.02V929H1020.81V922.924C1020.81 921.281 1020.84 919.909 1020.89 918.808H1020.84C1020.56 919.331 1019.93 920.217 1018.96 921.468L1013.22 929H1011.23ZM1028.33 922.28C1028.33 923.755 1028.81 924.987 1029.76 925.976C1030.73 926.965 1031.88 927.46 1033.2 927.46C1034.6 927.46 1035.76 926.965 1036.67 925.976C1037.61 924.987 1038.07 923.755 1038.07 922.28C1038.07 920.824 1037.63 919.601 1036.76 918.612C1035.88 917.623 1034.72 917.128 1033.29 917.128C1031.87 917.128 1030.68 917.613 1029.73 918.584C1028.8 919.555 1028.33 920.787 1028.33 922.28ZM1034.35 912.088C1030.88 912.704 1028.89 914.533 1028.39 917.576H1028.47C1028.95 916.885 1029.66 916.307 1030.6 915.84C1031.53 915.373 1032.47 915.14 1033.43 915.14C1035.48 915.14 1037.15 915.821 1038.44 917.184C1039.73 918.528 1040.37 920.227 1040.37 922.28C1040.37 924.277 1039.69 925.976 1038.33 927.376C1036.96 928.776 1035.25 929.476 1033.2 929.476C1031.13 929.476 1029.43 928.757 1028.11 927.32C1026.78 925.883 1026.12 923.829 1026.12 921.16C1026.12 919.2 1026.32 917.52 1026.73 916.12C1027.16 914.701 1027.77 913.591 1028.55 912.788C1029.36 911.967 1030.21 911.341 1031.13 910.912C1032.04 910.483 1033.12 910.165 1034.35 909.96C1035.73 909.717 1036.89 909.279 1037.82 908.644L1038.77 910.52C1037.41 911.304 1035.94 911.827 1034.35 912.088ZM1042.38 922.28C1042.38 920.227 1043.06 918.528 1044.43 917.184C1045.81 915.821 1047.52 915.14 1049.55 915.14C1051.62 915.14 1053.33 915.821 1054.68 917.184C1056.04 918.547 1056.72 920.245 1056.72 922.28C1056.72 924.277 1056.04 925.976 1054.68 927.376C1053.31 928.776 1051.6 929.476 1049.55 929.476C1047.52 929.476 1045.81 928.785 1044.43 927.404C1043.06 926.023 1042.38 924.315 1042.38 922.28ZM1044.68 922.28C1044.68 923.755 1045.16 924.987 1046.11 925.976C1047.08 926.965 1048.23 927.46 1049.55 927.46C1050.95 927.46 1052.11 926.965 1053.02 925.976C1053.96 924.987 1054.42 923.755 1054.42 922.28C1054.42 920.824 1053.97 919.601 1053.05 918.612C1052.16 917.623 1050.99 917.128 1049.55 917.128C1048.13 917.128 1046.97 917.613 1046.05 918.584C1045.14 919.555 1044.68 920.787 1044.68 922.28ZM1065.51 925.668H1067.86C1068.22 926.937 1069.19 927.572 1070.77 927.572C1071.8 927.572 1072.59 927.357 1073.13 926.928C1073.67 926.48 1073.94 925.911 1073.94 925.22C1073.94 924.511 1073.66 923.951 1073.1 923.54C1072.56 923.129 1071.93 922.924 1071.22 922.924H1069.29V921.076H1071.22C1071.93 921.076 1072.5 920.889 1072.93 920.516C1073.38 920.124 1073.6 919.62 1073.6 919.004C1073.6 918.463 1073.37 918.005 1072.9 917.632C1072.44 917.24 1071.79 917.044 1070.97 917.044C1070.3 917.044 1069.71 917.203 1069.21 917.52C1068.72 917.837 1068.4 918.267 1068.25 918.808H1065.96C1066.18 917.669 1066.75 916.773 1067.67 916.12C1068.58 915.467 1069.67 915.14 1070.94 915.14C1072.36 915.14 1073.52 915.485 1074.41 916.176C1075.33 916.848 1075.79 917.725 1075.79 918.808C1075.79 920.432 1075.02 921.477 1073.49 921.944C1074.31 922.187 1074.96 922.607 1075.42 923.204C1075.91 923.783 1076.15 924.455 1076.15 925.22C1076.15 926.489 1075.68 927.525 1074.75 928.328C1073.82 929.112 1072.48 929.504 1070.75 929.504C1069.38 929.504 1068.23 929.168 1067.27 928.496C1066.32 927.824 1065.73 926.881 1065.51 925.668ZM1092.45 915.588V929H1090.24V927.208H1090.18C1088.93 928.72 1087.3 929.476 1085.28 929.476C1083.4 929.476 1081.77 928.813 1080.41 927.488C1079.07 926.144 1078.39 924.408 1078.39 922.28C1078.39 920.208 1079.06 918.5 1080.38 917.156C1081.73 915.812 1083.41 915.14 1085.42 915.14C1087.27 915.14 1088.87 915.933 1090.21 917.52H1090.24V915.588H1092.45ZM1081.98 918.64C1081.12 919.667 1080.69 920.88 1080.69 922.28C1080.69 923.68 1081.12 924.903 1081.98 925.948C1082.84 926.993 1084.04 927.516 1085.59 927.516C1086.9 927.516 1088.03 927.031 1088.98 926.06C1089.95 925.071 1090.43 923.839 1090.43 922.364C1090.43 920.796 1089.97 919.527 1089.03 918.556C1088.12 917.567 1086.99 917.072 1085.65 917.072C1084.06 917.072 1082.84 917.595 1081.98 918.64ZM1115.11 915.588V929H1112.9V917.576H1105.54V929H1103.33V915.588H1115.11ZM1118.04 922.28C1118.04 920.227 1118.72 918.528 1120.09 917.184C1121.47 915.821 1123.18 915.14 1125.21 915.14C1127.28 915.14 1128.99 915.821 1130.34 917.184C1131.7 918.547 1132.38 920.245 1132.38 922.28C1132.38 924.277 1131.7 925.976 1130.34 927.376C1128.97 928.776 1127.26 929.476 1125.21 929.476C1123.18 929.476 1121.47 928.785 1120.09 927.404C1118.72 926.023 1118.04 924.315 1118.04 922.28ZM1120.34 922.28C1120.34 923.755 1120.82 924.987 1121.77 925.976C1122.74 926.965 1123.89 927.46 1125.21 927.46C1126.61 927.46 1127.77 926.965 1128.68 925.976C1129.62 924.987 1130.08 923.755 1130.08 922.28C1130.08 920.824 1129.63 919.601 1128.71 918.612C1127.82 917.623 1126.65 917.128 1125.21 917.128C1123.79 917.128 1122.63 917.613 1121.71 918.584C1120.8 919.555 1120.34 920.787 1120.34 922.28ZM1147.11 915.588V929H1144.89V922.924H1137.53V929H1135.32V915.588H1137.53V921.076H1144.89V915.588H1147.11ZM1150.96 929V915.588H1153.17V921.664C1153.17 923.307 1153.14 924.679 1153.09 925.78H1153.14C1153.42 925.257 1154.05 924.371 1155.02 923.12L1160.76 915.588H1162.75V929H1160.54V922.924C1160.54 921.281 1160.56 919.909 1160.62 918.808H1160.56C1160.28 919.331 1159.66 920.217 1158.69 921.468L1152.95 929H1150.96ZM1180.63 915.588L1183.04 929H1180.96L1179.7 921.468C1179.48 920.143 1179.32 919.107 1179.23 918.36H1179.14C1178.88 919.536 1178.57 920.572 1178.19 921.468L1175.11 929H1173.38L1170.3 921.3C1169.85 920.161 1169.52 919.181 1169.32 918.36H1169.23C1169.05 919.797 1168.91 920.768 1168.84 921.272L1167.52 929H1165.48L1167.94 915.588H1170.1L1173.52 924.072C1173.78 924.688 1174.01 925.416 1174.22 926.256H1174.3C1174.54 925.36 1174.79 924.632 1175.03 924.072L1178.53 915.588H1180.63ZM1198.9 915.588V929H1196.69V927.208H1196.63C1195.38 928.72 1193.75 929.476 1191.73 929.476C1189.85 929.476 1188.22 928.813 1186.86 927.488C1185.52 926.144 1184.84 924.408 1184.84 922.28C1184.84 920.208 1185.51 918.5 1186.83 917.156C1188.18 915.812 1189.86 915.14 1191.87 915.14C1193.72 915.14 1195.32 915.933 1196.66 917.52H1196.69V915.588H1198.9ZM1188.43 918.64C1187.57 919.667 1187.14 920.88 1187.14 922.28C1187.14 923.68 1187.57 924.903 1188.43 925.948C1189.29 926.993 1190.49 927.516 1192.04 927.516C1193.35 927.516 1194.48 927.031 1195.43 926.06C1196.4 925.071 1196.88 923.839 1196.88 922.364C1196.88 920.796 1196.42 919.527 1195.48 918.556C1194.57 917.567 1193.44 917.072 1192.1 917.072C1190.51 917.072 1189.29 917.595 1188.43 918.64ZM1214.56 915.588V929H1212.35V922.924H1204.99V929H1202.78V915.588H1204.99V921.076H1212.35V915.588H1214.56ZM1218.42 929V915.588H1220.63V921.664C1220.63 923.307 1220.6 924.679 1220.54 925.78H1220.6C1220.88 925.257 1221.51 924.371 1222.48 923.12L1228.22 915.588H1230.2V929H1227.99V922.924C1227.99 921.281 1228.02 919.909 1228.08 918.808H1228.02C1227.74 919.331 1227.12 920.217 1226.14 921.468L1220.4 929H1218.42ZM1239.8 915.14C1240.95 915.14 1241.98 915.364 1242.88 915.812C1243.77 916.26 1244.46 916.839 1244.95 917.548C1245.45 918.257 1245.83 919.004 1246.07 919.788C1246.31 920.553 1246.43 921.328 1246.43 922.112C1246.43 922.467 1246.41 922.737 1246.38 922.924H1235.43C1235.43 924.137 1235.91 925.211 1236.86 926.144C1237.81 927.059 1238.92 927.516 1240.19 927.516C1241.57 927.516 1242.72 926.975 1243.63 925.892H1246.18C1245.66 926.881 1244.89 927.731 1243.89 928.44C1242.9 929.131 1241.68 929.476 1240.25 929.476C1238.14 929.476 1236.42 928.776 1235.09 927.376C1233.79 925.976 1233.13 924.221 1233.13 922.112C1233.13 920.189 1233.75 918.547 1234.98 917.184C1236.21 915.821 1237.82 915.14 1239.8 915.14ZM1239.8 917.072C1238.58 917.072 1237.59 917.473 1236.8 918.276C1236.02 919.06 1235.57 919.993 1235.46 921.076H1244.11C1244 919.975 1243.54 919.032 1242.74 918.248C1241.95 917.464 1240.97 917.072 1239.8 917.072ZM1249.43 929V926.536H1251.89V929H1249.43ZM1249.43 909.904H1251.89L1251.67 923.708H1249.65L1249.43 909.904Z" fill="white"/>
      </svg>