<svg width="20" height="17" viewBox="0 0 20 17" fill="none" xmlns="http://www.w3.org/2000/svg">
<path fill-rule="evenodd" clip-rule="evenodd" d="M0.952243 0C0.424596 0 0 0.421049 0 0.944397V10.8611H20V0.944397C20 0.421049 19.5754 0 19.0478 0H0.952243ZM15.2381 1.65284C16.0214 1.65284 16.6665 2.29252 16.6665 3.06954C16.6665 3.84626 16.0214 4.48621 15.2381 4.48621C15.0422 4.48621 14.8581 4.44026 14.6876 4.36814L13.1697 6.17575C13.2772 6.3744 13.3333 6.608 13.3333 6.84722C13.3333 7.62414 12.688 8.26392 11.9048 8.26392C11.1212 8.26392 10.4764 7.62414 10.4764 6.84722C10.4764 6.71243 10.4996 6.58011 10.5357 6.45623L8.91376 5.17238C8.68114 5.33507 8.3985 5.43055 8.09515 5.43055C7.89939 5.43055 7.71518 5.38456 7.54478 5.31245L6.0268 7.12015C6.13439 7.31899 6.19055 7.55234 6.19055 7.79186C6.19055 8.56858 5.54514 9.20853 4.7617 9.20853C3.97835 9.20853 3.33309 8.56858 3.33309 7.79186C3.33309 7.01484 3.97835 6.37489 4.7617 6.37489C4.96004 6.37489 5.14747 6.41192 5.32005 6.4857L6.83791 4.68526C6.72725 4.48474 6.66655 4.25674 6.66655 4.01388C6.66655 3.23716 7.3119 2.59718 8.09515 2.59718C8.8786 2.59718 9.52364 3.23716 9.52364 4.01388C9.52364 4.14896 9.50049 4.27343 9.46414 4.39762L11.0862 5.68902C11.3187 5.52633 11.6015 5.43055 11.9048 5.43055C12.1028 5.43055 12.2904 5.46758 12.4628 5.54136L13.9807 3.74095C13.87 3.54014 13.8095 3.31211 13.8095 3.06954C13.8095 2.29252 14.4547 1.65284 15.2381 1.65284ZM15.2381 2.59718C14.9696 2.59718 14.7619 2.803 14.7619 3.06954C14.7619 3.33578 14.9696 3.5416 15.2381 3.5416C15.5067 3.5416 15.7142 3.33578 15.7142 3.06954C15.7142 2.803 15.5067 2.59718 15.2381 2.59718ZM8.09515 3.5416C7.82667 3.5416 7.61915 3.74734 7.61915 4.01388C7.61915 4.28042 7.82667 4.48621 8.09515 4.48621C8.36383 4.48621 8.57139 4.28042 8.57139 4.01388C8.57139 3.74734 8.36383 3.5416 8.09515 3.5416ZM11.9048 6.37489C11.6361 6.37489 11.4286 6.58098 11.4286 6.84722C11.4286 7.11376 11.6361 7.3195 11.9048 7.3195C12.1733 7.3195 12.3808 7.11376 12.3808 6.84722C12.3808 6.58098 12.1733 6.37489 11.9048 6.37489ZM4.76194 7.3195C4.49326 7.3195 4.2857 7.52532 4.2857 7.79186C4.2857 8.0581 4.49326 8.26392 4.76194 8.26392C5.03042 8.26392 5.23794 8.0581 5.23794 7.79186C5.23794 7.52532 5.03042 7.3195 4.76194 7.3195ZM0 11.3334V12.75C0 13.2733 0.424596 13.6944 0.952243 13.6944H19.0478C19.5754 13.6944 20 13.2733 20 12.75V11.3334H0ZM10 12.0418C10.2632 12.0418 10.4764 12.2532 10.4764 12.5139C10.4764 12.7748 10.2632 12.9862 10 12.9862C9.73687 12.9862 9.52364 12.7748 9.52364 12.5139C9.52364 12.2532 9.73687 12.0418 10 12.0418ZM8.33327 14.1667V15.5834H11.6667V14.1667H8.33327ZM7.14279 16.0557C6.87966 16.0557 6.66655 16.2671 6.66655 16.5281C6.66655 16.7887 6.87966 17 7.14279 17H12.8572C13.1202 17 13.3333 16.7887 13.3333 16.5281C13.3333 16.2671 13.1202 16.0557 12.8572 16.0557H7.14279Z" fill="white"/>
</svg>
