<svg width="17" height="18" viewBox="0 0 17 18" fill="none" xmlns="http://www.w3.org/2000/svg">
    <path d="M5.3372 12.6923V12.5423H5.1872H3.52343V9.15H8.06014V12.5423H6.39637H6.24637V12.6923V17V17.15H6.39637H10.6285H10.7785V17V12.6923V12.5423H10.6285H8.96473V9.15H13.5014V12.5423H11.8377H11.6877V12.6923V17V17.15H11.8377H16.0698H16.2198V17V12.6923V12.5423H16.0698H14.406V8.38462V8.23462H14.256H8.96473V5.45769H10.6285H10.7785V5.30769V1V0.85H10.6285H6.39637H6.24637V1V5.30769V5.45769H6.39637H8.06014V8.23462H2.76884H2.61884V8.38462V12.5423H0.955078H0.805078V12.6923V17V17.15H0.955078H5.1872H5.3372V17V12.6923ZM15.3152 13.4577V16.2346H12.5923V13.4577H15.3152ZM7.15096 4.54231V1.76538H9.8739V4.54231H7.15096ZM9.8739 13.4577V16.2346H7.15096V13.4577H9.8739ZM4.43261 16.2346H1.70967V13.4577H4.43261V16.2346Z" fill="#3366FF" stroke="#3366FF" stroke-width="0.3"/>
</svg>
