<svg width="12" height="7" viewBox="0 0 12 7" fill="none" xmlns="http://www.w3.org/2000/svg">
<path d="M11.8083 6.4147L11.4156 6.80558C11.2917 6.92697 11.1271 6.99486 10.951 6.99486C10.775 6.99486 10.6104 6.92697 10.4864 6.80558L6.003 2.37722L1.51331 6.81073C1.38935 6.93211 1.22477 7 1.04872 7C0.873717 7 0.708088 6.93211 0.585169 6.81073L0.19141 6.4219C-0.0638035 6.16885 -0.0638035 5.75738 0.19141 5.50536L5.53632 0.207788C5.66028 0.0853782 5.82487 0 6.00195 0H6.00404C6.18008 0 6.34467 0.0853782 6.46863 0.207788L11.8083 5.49096C11.9323 5.61234 12 5.78001 12 5.95386C12 6.1277 11.9323 6.29229 11.8083 6.4147Z" fill="#FEFEFE"/>
</svg>
