<svg width="24" height="24" viewBox="0 0 24 24" fill="none" xmlns="http://www.w3.org/2000/svg">
<path fill-rule="evenodd" clip-rule="evenodd" d="M19.3395 14.9221V8.27619L23.9998 17.1206C22.1566 18.8109 21.0362 21.123 20.6663 23.9995H17.4023C17.0324 21.1232 15.9117 18.8111 14.0688 17.1208L18.7363 8.27539V14.9219C17.7464 15.067 16.9822 15.9039 16.9822 16.9212C16.9822 18.0434 17.9038 18.9565 19.0367 18.9565C20.1727 18.9565 21.0971 18.0434 21.0971 16.9212C21.0971 15.9044 20.3313 15.0678 19.3395 14.9221ZM19.0368 18.3611C18.2365 18.3611 17.5854 17.7154 17.5854 16.9216C17.5854 16.1313 18.2365 15.4881 19.0368 15.4881C19.8402 15.4881 20.4941 16.1313 20.4941 16.9216C20.4941 17.7154 19.8402 18.3611 19.0368 18.3611Z" fill="white"/>
<mask id="path-2-inside-1" fill="white">
<rect x="16" width="6" height="6" rx="1.2"/>
</mask>
<rect x="16" width="6" height="6" rx="1.2" stroke="white" stroke-width="2.8" mask="url(#path-2-inside-1)"/>
<mask id="path-3-inside-2" fill="white">
<rect y="18" width="6" height="6" rx="1.2"/>
</mask>
<rect y="18" width="6" height="6" rx="1.2" stroke="white" stroke-width="2.8" mask="url(#path-3-inside-2)"/>
<rect width="6" height="6" rx="1.2" fill="white"/>
<path d="M17 3H3V18.5" stroke="white" stroke-width="1.4"/>
</svg>
