<svg width="26" height="21" viewBox="0 0 26 21" fill="none" xmlns="http://www.w3.org/2000/svg">
<path d="M4.58993 3.447L1.03668 20.0288C1.02047 20.1045 1.09266 20.1691 1.16608 20.1446L8.1607 17.8131C8.18587 17.8047 8.21333 17.8067 8.23705 17.8185L12.9553 20.1776C12.9834 20.1917 13.0166 20.1917 13.0447 20.1776L17.763 17.8185C17.7867 17.8067 17.8141 17.8047 17.8393 17.8131L24.8339 20.1446C24.9073 20.1691 24.9795 20.1045 24.9633 20.0288L21.4101 3.447C21.4037 3.41729 21.3842 3.39209 21.357 3.37851L16.6519 1.02595C16.6198 1.0099 16.5816 1.01228 16.5517 1.03219L13.0555 3.36302C13.0219 3.38541 12.9781 3.38541 12.9445 3.36302L9.44829 1.03219C9.41843 1.01228 9.38019 1.0099 9.34809 1.02595L4.64299 3.37851C4.61582 3.39209 4.59629 3.41729 4.58993 3.447Z" stroke="white" stroke-width="1.4"/>
<path d="M8.19995 17.8L9.39995 1" stroke="white" stroke-width="1.4"/>
<path d="M17.8001 17.8L16.6001 1" stroke="white" stroke-width="1.4"/>
<path d="M13 3.40039V20.2004" stroke="white" stroke-width="1.4"/>
<path d="M2.896 11.4345C4.15017 8.92652 6.2225 8.02598 7.59973 9.03414C8.91707 9.99847 9.99973 13.8342 12.3997 13.2345C14.7997 12.6348 15.0587 9.47006 17.2 8.43526C19.0115 7.55983 21.2552 9.43054 22.5999 9.03436" stroke="white" stroke-width="1.4" stroke-linecap="round" stroke-dasharray="1.38 2.4"/>
</svg>
