<svg width="27" height="26" viewBox="0 0 27 26" fill="none" xmlns="http://www.w3.org/2000/svg">
<path d="M15.2389 25.332H1.48432C0.664382 25.332 0 24.6676 0 23.8477C0 23.0277 0.664382 22.3634 1.48432 22.3634H13.7546V2.96864H1.48432C0.664382 2.96864 0 2.30426 0 1.48432C0 0.664382 0.664382 0 1.48432 0H15.2389C16.0589 0 16.7232 0.664382 16.7232 1.48432V23.8477C16.7232 24.6676 16.0589 25.332 15.2389 25.332Z" fill="#2C44BD"/>
<path d="M20.236 18.9003C19.8563 18.9003 19.476 18.7555 19.1866 18.4654C18.6068 17.886 18.6068 16.9461 19.1866 16.3666L22.8867 12.6662L19.1866 8.96579C18.6068 8.38631 18.6068 7.44644 19.1866 6.86696C19.7658 6.28719 20.7062 6.28719 21.2854 6.86696L26.0353 11.6168C26.615 12.1963 26.615 13.1361 26.0353 13.7156L21.2854 18.4654C20.996 18.7555 20.6157 18.9003 20.236 18.9003Z" fill="#2C44BD"/>
<path d="M10.2914 8.11366H3.76008C2.94014 8.11366 2.27576 7.44928 2.27576 6.62934C2.27576 5.8094 2.94014 5.14502 3.76008 5.14502H10.2914C11.1113 5.14502 11.7757 5.8094 11.7757 6.62934C11.7757 7.44928 11.1113 8.11366 10.2914 8.11366Z" fill="#2C44BD"/>
<path d="M10.2914 14.1005H3.76008C2.94014 14.1005 2.27576 13.4361 2.27576 12.6162C2.27576 11.7962 2.94014 11.1318 3.76008 11.1318H10.2914C11.1113 11.1318 11.7757 11.7962 11.7757 12.6162C11.7757 13.4361 11.1113 14.1005 10.2914 14.1005Z" fill="#2C44BD"/>
<path d="M10.2914 20.0868H3.76008C2.94014 20.0868 2.27576 19.4224 2.27576 18.6025C2.27576 17.7825 2.94014 17.1182 3.76008 17.1182H10.2914C11.1113 17.1182 11.7757 17.7825 11.7757 18.6025C11.7757 19.4224 11.1113 20.0868 10.2914 20.0868Z" fill="#2C44BD"/>
</svg>
