<svg width="24" height="24" viewBox="0 0 24 24" fill="none" xmlns="http://www.w3.org/2000/svg">
<circle cx="13" cy="13" r="10.3" stroke="white" stroke-width="1.4"/>
<path fill-rule="evenodd" clip-rule="evenodd" d="M14.668 2.12565C13.5379 1.65803 12.2991 1.4 11 1.4C5.69807 1.4 1.4 5.69807 1.4 11C1.4 12.2991 1.65803 13.5379 2.12565 14.668C2.41175 16.5488 3.17417 18.2731 4.28599 19.714C1.67916 17.7025 0 14.5474 0 11C0 4.92487 4.92487 0 11 0C14.5474 0 17.7025 1.67916 19.714 4.28599C18.2731 3.17417 16.5488 2.41175 14.668 2.12565Z" fill="white" fill-opacity="0.7"/>
<path d="M16.2083 3.375L13 13H23.5417L23.0833 10.7083L22.1667 7.95833L20.3333 5.66667L18.0417 3.83333L16.2083 3.375Z" fill="white"/>
</svg>
