<svg width="15" height="15" viewBox="0 0 15 15" fill="none" xmlns="http://www.w3.org/2000/svg">
<path fill-rule="evenodd" clip-rule="evenodd" d="M2.0415 2.0415V12.9585H12.9585V9.7065C12.9585 8.302 15 8.287 15 9.7065V13.935C15 14.5605 14.5604 15 13.9349 15H1.06494C0.439441 15 0 14.5605 0 13.935V1.065C0 0.439502 0.439441 0 1.06494 0H5.4585C6.8635 0 6.8785 2.0415 5.4585 2.0415H2.0415ZM12.959 3.509L10.9495 5.48399C10.3885 6.04599 8.68592 8.036 7.94092 8.036C7.16542 8.036 6.96399 7.5555 6.96399 6.883C6.96399 6.358 9.09648 4.4695 9.55798 4.0085L11.4915 2.041C11.0425 2.0405 10.5945 2.0405 10.1455 2.0415C9.32301 2.0435 8.2865 2.1285 8.2865 0.976501C8.2865 0.406001 8.80345 0 9.35095 0H13.9349C14.5604 0 15 0.439502 15 1.065V5.649C15 6.274 14.5604 6.7135 13.9349 6.7135C12.8484 6.7135 12.9575 5.517 12.9585 4.767C12.959 4.3475 12.959 3.928 12.959 3.509Z" fill="#82BAFF"/>
</svg>
