<svg width="27" height="23" viewBox="0 0 27 23" fill="none" xmlns="http://www.w3.org/2000/svg">
<path fill-rule="evenodd" clip-rule="evenodd" d="M1.28553 0C0.573204 0 0 0.569654 0 1.27771V14.6944H27V1.27771C27 0.569654 26.4268 0 25.7145 0H1.28553ZM20.5714 2.23619C21.6289 2.23619 22.4998 3.10165 22.4998 4.15291C22.4998 5.20376 21.6289 6.06958 20.5714 6.06958C20.307 6.06958 20.0584 6.0074 19.8282 5.90984L17.7791 8.35542C17.9242 8.62419 18 8.94023 18 9.26389C18 10.315 17.1288 11.1806 16.0715 11.1806C15.0136 11.1806 14.1431 10.315 14.1431 9.26389C14.1431 9.08152 14.1744 8.90251 14.2233 8.7349L12.0336 6.99792C11.7195 7.21803 11.338 7.34721 10.9285 7.34721C10.6642 7.34721 10.4155 7.285 10.1854 7.18743L8.13618 9.63314C8.28143 9.90217 8.35724 10.2179 8.35724 10.5419C8.35724 11.5928 7.48594 12.4586 6.42829 12.4586C5.37077 12.4586 4.49967 11.5928 4.49967 10.5419C4.49967 9.49067 5.37077 8.62485 6.42829 8.62485C6.69605 8.62485 6.94909 8.67495 7.18207 8.77477L9.23118 6.33888C9.08179 6.06759 8.99984 5.75912 8.99984 5.43054C8.99984 4.37968 9.87107 3.51383 10.9285 3.51383C11.9861 3.51383 12.8569 4.37968 12.8569 5.43054C12.8569 5.6133 12.8257 5.7817 12.7766 5.94971L14.9664 7.69691C15.2802 7.4768 15.662 7.34721 16.0715 7.34721C16.3388 7.34721 16.592 7.39732 16.8248 7.49714L18.8739 5.06129C18.7246 4.7896 18.6428 4.48108 18.6428 4.15291C18.6428 3.10165 19.5139 2.23619 20.5714 2.23619ZM20.5714 3.51383C20.2089 3.51383 19.9286 3.7923 19.9286 4.15291C19.9286 4.51312 20.2089 4.79158 20.5714 4.79158C20.9341 4.79158 21.2141 4.51312 21.2141 4.15291C21.2141 3.7923 20.9341 3.51383 20.5714 3.51383ZM10.9285 4.79158C10.566 4.79158 10.2859 5.06993 10.2859 5.43054C10.2859 5.79115 10.566 6.06958 10.9285 6.06958C11.2912 6.06958 11.5714 5.79115 11.5714 5.43054C11.5714 5.06993 11.2912 4.79158 10.9285 4.79158ZM16.0715 8.62485C15.7087 8.62485 15.4286 8.90368 15.4286 9.26389C15.4286 9.6245 15.7087 9.90285 16.0715 9.90285C16.434 9.90285 16.7141 9.6245 16.7141 9.26389C16.7141 8.90368 16.434 8.62485 16.0715 8.62485ZM6.42862 9.90285C6.0659 9.90285 5.78569 10.1813 5.78569 10.5419C5.78569 10.9021 6.0659 11.1806 6.42862 11.1806C6.79107 11.1806 7.07122 10.9021 7.07122 10.5419C7.07122 10.1813 6.79107 9.90285 6.42862 9.90285ZM0 15.3334V17.2501C0 17.958 0.573204 18.5277 1.28553 18.5277H25.7145C26.4268 18.5277 27 17.958 27 17.2501V15.3334H0ZM13.5 16.2919C13.8554 16.2919 14.1431 16.5779 14.1431 16.9305C14.1431 17.2836 13.8554 17.5696 13.5 17.5696C13.1448 17.5696 12.8569 17.2836 12.8569 16.9305C12.8569 16.5779 13.1448 16.2919 13.5 16.2919ZM11.2499 19.1668V21.0834H15.7501V19.1668H11.2499ZM9.64276 21.7224C9.28754 21.7224 8.99984 22.0085 8.99984 22.3615C8.99984 22.7141 9.28754 23 9.64276 23H17.3572C17.7123 23 18 22.7141 18 22.3615C18 22.0085 17.7123 21.7224 17.3572 21.7224H9.64276Z" fill="white"/>
</svg>
