<svg width="32" height="32" viewBox="0 0 32 32" fill="none" xmlns="http://www.w3.org/2000/svg">
<path fill-rule="evenodd" clip-rule="evenodd" d="M23.3684 20.0973C23.3048 20.5084 23.1225 20.893 22.8452 21.2034C22.6016 21.5574 22.2559 21.8306 21.8552 21.9862C21.6209 22.0324 21.4521 22.2379 21.4521 22.4766C21.4521 22.7527 21.676 22.9766 21.9517 22.9766C21.9847 22.9766 22.0176 22.9733 22.0498 22.9673C22.5517 22.8677 23.1425 22.44 23.6297 21.8234C24.0974 21.2323 24.3736 20.5832 24.3688 20.0873C24.366 19.8132 24.1429 19.5924 23.8687 19.592H23.8636C23.5894 19.5948 23.3684 19.818 23.3684 20.0925C23.3684 20.0941 23.3684 20.0956 23.3684 20.0973Z" fill="white"/>
<path fill-rule="evenodd" clip-rule="evenodd" d="M15.9997 4.75016C15.9985 4.75016 15.9958 4.75016 15.9945 4.75016C9.77937 4.75016 4.7395 9.79 4.7395 16.0051C4.7395 22.2202 9.77937 27.2603 15.9945 27.2603C22.2096 27.2603 27.2496 22.2202 27.2496 16.0051C27.2496 16.004 27.2496 16.0011 27.2496 15.9996C27.2444 9.79085 22.2088 4.75541 15.9993 4.75016H15.9997ZM24.0243 14.5945C24.1823 14.9256 24.4732 15.5418 25.0728 15.4702C25.7902 15.3834 25.9892 14.4048 26.0084 14.1472C26.0165 14.0893 26.0297 14.0322 26.0483 13.9772C26.1821 14.6434 26.2507 15.324 26.2507 16.0044C26.2507 19.9812 23.9466 23.6013 20.3451 25.2848C19.5602 25.6526 18.7263 25.9211 17.8726 26.0769C17.8561 26.0508 17.8381 26.0259 17.8176 26.0031C15.2124 23.1311 12.0393 24.8372 11.4609 25.1868C10.6756 24.7982 9.94214 24.3066 9.2827 23.7311C9.23166 23.4783 9.20585 23.2194 9.20585 22.9609C9.20585 22.803 9.21592 22.6447 9.23435 22.4884C9.23435 22.4579 9.23364 22.4253 9.23364 22.3939C9.23364 21.9309 9.29234 21.4671 9.40605 21.0193C9.54472 20.566 9.7452 20.1525 9.7082 19.6629C9.64439 18.8186 9.05471 18.3189 8.53394 17.8785C8.11142 17.5208 7.74661 17.2117 7.6967 16.7832C7.66735 16.5144 7.65204 16.2415 7.65204 15.971C7.65204 15.7548 7.6621 15.5381 7.68025 15.3232C7.68139 15.3091 7.68182 15.2954 7.68182 15.2817C7.68182 15.2765 7.68182 15.2712 7.68182 15.266C7.65133 14.3095 6.64494 13.9724 5.96409 13.912C6.06944 13.404 6.21562 12.902 6.39767 12.4157C7.15537 12.3032 7.91207 11.681 8.58739 11.1244C9.11625 10.6884 9.78178 10.4001 10.1813 9.82988C10.5174 9.33505 10.7488 8.77245 10.8578 8.18361C10.8839 8.04183 10.8971 7.89663 10.8971 7.752C10.8971 7.55223 10.8722 7.35204 10.8228 7.15878C11.7716 6.60086 12.8082 6.19821 13.8845 5.97079C13.8696 5.9929 13.8571 6.01573 13.8459 6.03941C13.762 6.24046 13.5657 6.31914 13.1381 6.45142C12.7455 6.54018 12.381 6.72831 12.0807 6.99713C11.8786 7.20825 11.7661 7.48958 11.7661 7.78208C11.7661 8.07912 11.8826 8.36495 12.09 8.57706C12.9131 9.43514 14.0621 8.54899 14.8262 8.11088C15.0367 7.99036 15.6694 7.68805 16.0834 7.71782C16.0946 7.71825 16.1062 7.71869 16.1176 7.71869C16.1634 7.71869 16.2087 7.71261 16.2525 7.70056C16.3522 7.67277 17.216 7.39102 17.9277 5.93461C18.0524 5.95829 18.1761 5.98482 18.2995 6.01332C18.0909 6.35417 17.8546 6.89718 18.0679 7.38024C18.1061 7.49593 18.1258 7.61732 18.1258 7.73911C18.1258 7.78335 18.123 7.82801 18.1181 7.87182C18.1069 7.87295 18.0957 7.87381 18.0848 7.87381C17.9827 7.86856 17.8787 7.86572 17.7757 7.86572C17.3819 7.86572 16.988 7.90626 16.6026 7.98466C16.2245 8.06548 15.894 8.29618 15.6871 8.62371C15.4897 8.96697 15.5612 9.41754 15.3495 9.73854C15.327 9.77271 15.1565 9.80659 15.1099 9.83027C14.5589 10.112 13.153 10.923 13.4171 11.7241C13.6124 12.3161 14.3237 12.2735 15.6159 12.1947C16.7231 12.1276 18.3967 12.0267 18.8999 12.5355C18.9915 12.632 19.043 12.7598 19.043 12.8928C19.043 12.9185 19.041 12.9443 19.0373 12.9695C19.0117 13.0471 18.8296 13.1487 18.4196 13.1283C18.2336 13.1295 18.0467 13.1448 17.8622 13.1717C17.5599 13.2151 17.2525 13.2372 16.9466 13.2372C16.9229 13.2372 16.8977 13.2364 16.8747 13.2364C15.9568 12.9575 14.8137 12.6102 13.6172 12.9154C12.2796 13.283 11.2962 14.4241 11.1314 15.8014C11.0064 17.0746 11.3995 17.8008 12.4883 18.3073L12.5948 18.3572C13.0678 18.628 13.6043 18.7711 14.1497 18.7711C14.1791 18.7711 14.2096 18.7706 14.2386 18.7699C14.2582 18.7682 14.2776 18.7655 14.2969 18.7618C14.46 18.729 15.1324 18.6641 15.4378 18.9408C15.4933 18.991 15.6626 19.1441 15.6135 19.6416C15.6139 19.9869 15.7055 20.3262 15.8779 20.6248C16.1272 21.1878 15.9958 21.8268 16.122 22.4165C16.232 23.0413 16.5165 23.6242 16.9415 24.0956C17.1722 24.3443 17.4964 24.4858 17.8357 24.4858C17.8368 24.4858 17.8384 24.4858 17.8401 24.4858C18.2419 24.4681 18.6283 24.3246 18.9437 24.0751C19.4228 23.7484 19.8584 23.3572 20.2367 22.9173C20.555 22.5289 20.7747 22.0675 20.8761 21.5756C20.9774 21.0579 20.9086 20.5194 21.0915 20.0147C21.3732 19.2361 22.0276 18.6313 22.4565 17.9344C22.5947 17.762 22.6698 17.5473 22.6698 17.3263C22.6698 17.2512 22.6613 17.176 22.644 17.1028C22.5658 16.8842 22.391 16.7133 22.1706 16.6402C22.0605 16.5968 21.9516 16.5611 21.8442 16.526C21.6422 16.4758 21.4512 16.3874 21.2825 16.2656C20.9259 15.9747 20.6783 15.5699 20.5835 15.1198C20.6189 15.1652 20.6551 15.2147 20.6924 15.2657C20.7524 15.3473 20.8122 15.4288 20.8757 15.5052C21.2503 15.9565 21.7257 16.1337 22.1794 15.9915C22.5351 15.8476 22.8234 15.5735 22.9853 15.2259C23.0123 15.1808 23.0388 15.1367 23.0653 15.0953C23.3466 14.6629 23.4455 14.2923 23.3671 13.963C23.3591 13.9289 23.3486 13.8948 23.3365 13.8618C23.6002 14.0033 23.8189 14.2171 23.9663 14.4775C23.9832 14.5069 24.0022 14.5479 24.0243 14.5945Z" fill="white"/>
<path fill-rule="evenodd" clip-rule="evenodd" d="M29.4922 13.3584C29.7382 13.2872 29.9934 13.2499 30.2497 13.2499C30.3317 13.2499 30.4125 13.2551 30.4929 13.262C29.3579 7.30601 24.6942 2.64385 18.7378 1.50844C18.7443 1.58813 18.7496 1.66853 18.7496 1.74963C18.7496 2.00569 18.7122 2.26135 18.641 2.50692C24.1202 3.59002 28.4089 7.87884 29.4913 13.3575L29.4922 13.3584Z" fill="white"/>
<path fill-rule="evenodd" clip-rule="evenodd" d="M17.7497 1.75007C17.7497 0.783521 16.9663 0.00017333 15.9998 0.00017333C15.0332 0.00017333 14.2499 0.783521 14.2499 1.75007C14.2499 2.71675 15.0332 3.5 15.9998 3.5C16.9663 3.5 17.7497 2.71675 17.7497 1.75007Z" fill="white"/>
<path fill-rule="evenodd" clip-rule="evenodd" d="M17.7497 30.2501C17.7497 29.2834 16.9663 28.5002 15.9998 28.5002C15.0332 28.5002 14.2499 29.2834 14.2499 30.2501C14.2499 31.2167 15.0332 32 15.9998 32C16.9663 32 17.7497 31.2167 17.7497 30.2501Z" fill="white"/>
<path fill-rule="evenodd" clip-rule="evenodd" d="M3.4998 15.9996C3.4998 15.0331 2.71645 14.2497 1.7499 14.2497C0.783216 14.2497 0 15.0331 0 15.9996C0 16.9663 0.783216 17.7495 1.7499 17.7495C2.71645 17.7495 3.4998 16.9663 3.4998 15.9996Z" fill="white"/>
<path fill-rule="evenodd" clip-rule="evenodd" d="M31.9996 15.9996C31.9996 15.0331 31.2162 14.2497 30.2497 14.2497C29.2831 14.2497 28.4998 15.0331 28.4998 15.9996C28.4998 16.9663 29.2831 17.7495 30.2497 17.7495C31.2162 17.7495 31.9996 16.9663 31.9996 15.9996Z" fill="white"/>
<path fill-rule="evenodd" clip-rule="evenodd" d="M29.493 18.6416C29.2896 19.6958 28.9588 20.7291 28.5139 21.7057C27.1563 24.6743 24.7854 27.0704 21.8302 28.4562C20.8154 28.9303 19.7411 29.2808 18.6418 29.4918C18.7122 29.7382 18.7496 29.9939 18.7496 30.2499C18.7496 30.3319 18.7444 30.4123 18.7376 30.4927C19.9529 30.2672 21.1361 29.8857 22.2549 29.3621C25.4241 27.8755 27.9673 25.3052 29.423 22.1209C29.9137 21.0426 30.2771 19.902 30.4929 18.7385C30.4121 18.7444 30.3314 18.7497 30.2497 18.7497C29.9937 18.7497 29.7385 18.7127 29.493 18.6416Z" fill="white"/>
<path fill-rule="evenodd" clip-rule="evenodd" d="M2.5073 13.3584C3.5904 7.87886 7.87923 3.59 13.3585 2.50762C13.2873 2.26134 13.2503 2.00569 13.2499 1.74963C13.2499 1.6681 13.2551 1.58813 13.2619 1.50844C7.30529 2.64385 2.64157 7.30602 1.50574 13.2624C1.58698 13.2552 1.6678 13.2499 1.74975 13.2499C2.00609 13.2499 2.26131 13.2872 2.5073 13.3584Z" fill="white"/>
<path fill-rule="evenodd" clip-rule="evenodd" d="M2.5073 18.6414C2.26131 18.7125 2.00609 18.7499 1.74975 18.7499C1.6678 18.7499 1.58698 18.7446 1.50659 18.7378C2.64158 24.6938 7.30529 29.3559 13.2617 30.4912C13.2551 30.4117 13.2499 30.3313 13.2499 30.2502C13.2503 29.9941 13.2873 29.7385 13.3585 29.4929C7.87923 28.4098 3.59039 24.121 2.50815 18.6421L2.5073 18.6414Z" fill="white"/>
</svg>
