<svg width="22" height="18" viewBox="0 0 22 18" fill="none" xmlns="http://www.w3.org/2000/svg">
<rect width="22" height="18" rx="4" fill="#2E50E9"/>
<path d="M16.9987 13.9409H5V14.9996H16.9987V13.9409Z" fill="white"/>
<path d="M5.74992 7.23482C6.16237 7.23482 6.49983 6.89146 6.49983 6.47179C6.49983 6.39549 6.49983 6.31919 6.46234 6.24288L8.18715 4.48791C8.22464 4.52606 8.29963 4.52606 8.37463 4.52606C8.44962 4.52606 8.48711 4.52606 8.56211 4.48791L10.2869 6.24288C10.2869 6.31919 10.2494 6.35734 10.2494 6.43364C10.2494 6.85331 10.5869 7.19667 10.9993 7.19667C11.4118 7.19667 11.7493 6.85331 11.7493 6.43364C11.7493 6.35734 11.7493 6.28103 11.7118 6.20473L13.3616 4.56421C13.4366 4.60237 13.5116 4.60237 13.5865 4.60237C13.699 4.60237 13.774 4.60237 13.8865 4.52606L15.4988 5.89952C15.4988 5.93767 15.4988 5.97582 15.4988 6.05213C15.4988 6.47179 15.8363 6.81516 16.2488 6.81516C16.6612 6.81516 16.9987 6.47179 16.9987 6.05213C16.9987 5.63246 16.6612 5.28909 16.2488 5.28909C16.1738 5.28909 16.0613 5.28909 15.9863 5.32725L14.374 3.99194C14.374 3.95379 14.374 3.87749 14.374 3.80118C14.4115 3.38152 14.074 3 13.624 3C13.1741 3 12.8366 3.38152 12.8366 3.80118C12.8366 3.87749 12.8366 3.95379 12.8741 4.03009L11.1868 5.70876C11.1493 5.70876 11.0743 5.70876 11.0368 5.70876C10.9618 5.70876 10.8868 5.70876 10.8494 5.74691L9.12454 3.99194C9.12454 3.87749 9.12454 3.83933 9.12454 3.76303C9.12454 3.34336 8.78708 3 8.37463 3C7.96217 3 7.62471 3.34336 7.62471 3.76303C7.62471 3.83933 7.62471 3.87749 7.66221 3.95379L5.9374 5.70876C5.9374 5.70876 5.9374 5.70876 5.8999 5.70876C5.8624 5.70876 5.78741 5.70876 5.74992 5.70876C5.67493 5.70876 5.59993 5.70876 5.56244 5.74691C5.29997 5.78506 5.07499 6.01397 5.0375 6.28104C5 6.31919 5 6.39549 5 6.47179C5 6.89146 5.33746 7.23482 5.74992 7.23482ZM16.2488 5.67061C16.4362 5.67061 16.6237 5.86137 16.6237 6.05213C16.6237 6.24288 16.4362 6.43364 16.2488 6.43364C16.0613 6.43364 15.8738 6.24288 15.8738 6.05213C15.8738 5.86137 16.0238 5.67061 16.2488 5.67061ZM13.624 3.38152C13.8115 3.38152 13.999 3.57227 13.999 3.76303C13.999 3.99194 13.8115 4.14455 13.624 4.14455C13.4366 4.14455 13.2491 3.99194 13.2491 3.76303C13.2491 3.53412 13.3991 3.38152 13.624 3.38152ZM10.9993 6.05213C11.1868 6.05213 11.3743 6.24288 11.3743 6.43364C11.3743 6.6244 11.1868 6.81516 10.9993 6.81516C10.8119 6.81516 10.6244 6.6244 10.6244 6.43364C10.6244 6.24288 10.7744 6.05213 10.9993 6.05213ZM8.37463 3.38152C8.56211 3.38152 8.74958 3.57227 8.74958 3.76303C8.74958 3.95379 8.56211 4.14455 8.37463 4.14455C8.18715 4.14455 7.99967 3.95379 7.99967 3.76303C7.99967 3.57227 8.14965 3.38152 8.37463 3.38152ZM5.37496 6.43364C5.37496 6.24288 5.56244 6.05213 5.74992 6.05213C5.9374 6.05213 6.12488 6.24288 6.12488 6.43364C6.12488 6.47179 6.12488 6.50994 6.08738 6.5481V6.58625C6.01239 6.7007 5.8999 6.77701 5.74992 6.77701C5.63743 6.77701 5.52494 6.73885 5.48745 6.66255C5.41245 6.66255 5.37496 6.5481 5.37496 6.43364Z" fill="white"/>
<path d="M6.41161 10.9414H5V13.0588H6.41161V10.9414Z" fill="white"/>
<path d="M9.0584 8.29297H7.64679V13.0571H9.0584V8.29297Z" fill="white"/>
<path d="M11.7052 9.35352H10.2935V13.059H11.7052V9.35352Z" fill="white"/>
<path d="M14.3519 5.99951H12.9403V13.0576H14.3519V5.99951Z" fill="white"/>
<path d="M16.9987 7.58789H15.4106V13.0579H16.9987V7.58789Z" fill="white"/>
</svg>
