<svg width="23" height="31" viewBox="0 0 23 31" fill="none" xmlns="http://www.w3.org/2000/svg">
<path fill-rule="evenodd" clip-rule="evenodd" d="M19.8386 17.1437C19.4784 17.1437 19.1387 17.2297 18.8352 17.3794C18.4857 16.568 17.6786 15.9982 16.7403 15.9982C16.3891 15.9982 16.0577 16.0802 15.7602 16.2229C15.4248 15.3798 14.6024 14.7817 13.6416 14.7817C13.3532 14.7817 13.0786 14.8376 12.8243 14.9358V11.9651C12.8243 10.7073 11.8009 9.6842 10.5433 9.6842C9.28545 9.6842 8.2624 10.7073 8.2624 11.9651V21.6319C7.53225 21.2284 6.70312 21.0114 5.86607 21.0114H5.17358C4.15218 21.0114 3.32184 21.842 3.32184 22.8632C3.32184 23.4763 3.62374 24.048 4.13006 24.3934L5.09475 25.0511C6.34568 25.9039 7.34504 27.0797 7.9851 28.452C8.70788 29.9999 10.2785 31 11.9873 31H17.7035C20.1385 31 22.12 29.0191 22.12 26.584V19.4247C22.1196 18.1668 21.0965 17.1437 19.8386 17.1437ZM20.6559 26.5844C20.6559 28.2128 19.3314 29.5372 17.7035 29.5372H11.987C10.8445 29.5372 9.79434 28.8681 9.31152 27.8332C8.5601 26.223 7.38687 24.843 5.91893 23.8424L4.95449 23.1843C4.84814 23.1117 4.78479 22.992 4.78479 22.8638C4.78479 22.6495 4.95895 22.4753 5.17333 22.4753H5.86564C6.62499 22.4753 7.37543 22.7291 7.97865 23.1898L8.54979 23.6259C8.77126 23.7951 9.06915 23.8238 9.31856 23.7005C9.56811 23.5768 9.72602 23.3226 9.72602 23.0445V11.9651C9.72602 11.5143 10.0925 11.1478 10.5433 11.1478C10.9942 11.1478 11.3607 11.5143 11.3607 11.9651V17.0625V21.383C11.3607 21.7873 11.6886 22.1148 12.0925 22.1148C12.4969 22.1148 12.8243 21.7873 12.8243 21.383V17.0625C12.8243 16.6118 13.1912 16.245 13.6416 16.245C14.0925 16.245 14.4589 16.6118 14.4589 17.0625V18.2792V21.383C14.4589 21.7873 14.7869 22.1148 15.1908 22.1148C15.5952 22.1148 15.9226 21.7873 15.9226 21.383V18.2792C15.9226 17.8283 16.2894 17.4618 16.7399 17.4618C17.1903 17.4618 17.5572 17.8283 17.5572 18.2792V19.4247V21.383C17.5572 21.7873 17.8848 22.1148 18.289 22.1148C18.693 22.1148 19.0208 21.7873 19.0208 21.383V19.4247C19.0208 18.9739 19.3873 18.6074 19.8382 18.6074C20.289 18.6074 20.6555 18.9739 20.6555 19.4247V26.5844H20.6559Z" fill="white"/>
<path fill-rule="evenodd" clip-rule="evenodd" d="M18.3775 5.75647C17.5142 5.75647 16.73 6.0978 16.151 6.65222L13.627 4.72912C13.8661 4.2791 14.0021 3.76636 14.0021 3.22264C14.0021 1.44523 12.5566 -0.000199318 10.7789 -0.000199318C9.00195 -0.000199318 7.55657 1.44523 7.55657 3.22264C7.55657 3.77581 7.69687 4.29686 7.94307 4.7516L5.44942 6.65222C4.87011 6.09821 4.08585 5.75647 3.2228 5.75647C1.44594 5.75647 0 7.20246 0 8.97931C0 10.7566 1.44594 12.2021 3.2228 12.2021C5.00006 12.2021 6.44602 10.7566 6.44602 8.97931C6.44602 8.426 6.30535 7.90509 6.059 7.45035L8.55325 5.5496C9.13214 6.10375 9.9163 6.44535 10.7789 6.44535C11.651 6.44535 12.4427 6.09625 13.0241 5.53195L15.5413 7.45035C15.2951 7.90509 15.1545 8.426 15.1545 8.97931C15.1545 10.7566 16.6002 12.2021 18.3775 12.2021C20.1545 12.2021 21.6004 10.7566 21.6004 8.97931C21.6004 7.20204 20.1545 5.75647 18.3775 5.75647Z" fill="white"/>
</svg>
