<svg width="17" height="15" viewBox="0 0 17 15" fill="none" xmlns="http://www.w3.org/2000/svg">
    <path fill-rule="evenodd" clip-rule="evenodd" d="M4.58884 3.58764V2.64494C4.58884 1.31054 5.67056 0.228394 7.00496 0.228394H10.2271C11.5615 0.228394 12.6433 1.31054 12.6433 2.64494V3.58764H15.0598C15.9495 3.58764 16.6707 4.30878 16.6707 5.19813V12.7134C16.6707 13.6028 15.9495 14.3243 15.0598 14.3243H2.17234C1.28261 14.3243 0.561523 13.6028 0.561523 12.7134V5.19813C0.561523 4.30878 1.28261 3.58764 2.17234 3.58764H4.58884ZM6.19937 2.64494C6.19937 2.20027 6.56029 1.8393 7.00496 1.8393H10.2271C10.6718 1.8393 11.0327 2.20027 11.0327 2.64494V3.58764H6.19937V2.64494Z" fill="#2E50E9"/>
</svg>