<svg width="40" height="40" viewBox="0 0 18 17" fill="none" xmlns="http://www.w3.org/2000/svg">
<rect x="0.5" width="40" height="40" rx="2" fill="#333975"/>
<rect x="3.5" y="9" width="4" height="2" fill="#9EA4C9"/>
<rect x="3.5" y="12" width="4" height="2" fill="#9EA4C9"/>
<rect x="3.5" y="6" width="4" height="2" fill="#9EA4C9"/>
<rect x="3.5" y="3" width="11" height="2" fill="#9EA4C9"/>
<path d="M11.9949 6C10.3487 6 9.53067 7.12242 9.5 8.51995H10.9622C10.9928 7.69464 11.3712 7.36451 12.0358 7.36451C12.6902 7.36451 13.0174 7.78267 13.0174 8.29986C13.0174 8.91609 12.6493 9.12517 12.1483 9.52132C11.4427 10.0825 11.1462 10.4677 11.1462 11.348V11.6341H12.6084V11.348C12.6084 10.8748 12.7822 10.6878 13.2628 10.3356C13.9479 9.84044 14.5 9.36726 14.5 8.28886C14.5 7.01238 13.682 6 11.9949 6ZM12.6493 14V12.3274H11.0849V14H12.6493Z" fill="#9EA4C9"/>
</svg>
