<svg width="40" height="40" viewBox="0 0 17 17" fill="none" xmlns="http://www.w3.org/2000/svg">
<rect width="40" height="40" rx="2" fill="#333975"/>
<path d="M9.37104 6.46246C9.22301 6.46241 9.08107 6.40844 8.97641 6.31229L7.30187 4.77475L3.78926 8L3 7.27531L6.74369 3.83788C6.84834 3.74178 6.99029 3.68776 7.13832 3.68771H7.46543C7.61346 3.68776 7.7554 3.74178 7.86006 3.83788L9.53459 5.37542L11.9308 3.17519L10.6509 2H14V5.07508L12.7201 3.89989L10.0928 6.31229C9.98811 6.40844 9.84616 6.46241 9.69813 6.46246H9.37104Z" fill="#9EA4C9"/>
<path d="M11.4949 7C9.84867 7 9.03067 8.12242 9 9.51995H10.4622C10.4928 8.69464 10.8712 8.36451 11.5358 8.36451C12.1902 8.36451 12.5174 8.78267 12.5174 9.29986C12.5174 9.91609 12.1493 10.1252 11.6483 10.5213C10.9427 11.0825 10.6462 11.4677 10.6462 12.348V12.6341H12.1084V12.348C12.1084 11.8748 12.2822 11.6878 12.7628 11.3356C13.4479 10.8404 14 10.3673 14 9.28886C14 8.01238 13.182 7 11.4949 7ZM12.1493 15V13.3274H10.5849V15H12.1493Z" fill="#9EA4C9"/>
<path fill-rule="evenodd" clip-rule="evenodd" d="M5 11.4545V15H3V11.4545C3 11.2036 3.18658 11 3.41669 11H4.58331C4.81329 11 5 11.2036 5 11.4545Z" fill="#9EA4C9"/>
<path fill-rule="evenodd" clip-rule="evenodd" d="M8 8.79541V15H6V8.79541C6 8.35637 6.18658 8 6.41669 8H7.58331C7.81329 8 8 8.35637 8 8.79541Z" fill="#9EA4C9"/>
</svg>
