<svg width="19" height="23" viewBox="0 0 19 23" fill="none" xmlns="http://www.w3.org/2000/svg">
<path fill-rule="evenodd" clip-rule="evenodd" d="M0.651855 14.398C0.651855 15.7819 0.725922 16.6924 1.44093 17.9703C1.92016 18.8259 2.30153 19.2629 2.96201 19.9237C3.93506 20.8976 5.47606 21.8733 6.90108 22.1202C7.22402 22.1763 7.43441 22.1187 7.67441 22.2339C7.58801 21.9106 7.30846 21.7881 7.10456 21.5473C5.85886 20.075 5.74522 18.5848 6.35156 16.6974C6.4368 16.432 6.56966 16.0684 6.69101 15.78L7.00781 15.136C7.01587 15.1214 7.02622 15.1022 7.03428 15.0884L7.15721 14.9156C7.15721 16.6801 9.4512 18.5644 10.9596 16.3525C11.3881 15.7243 11.4883 15.1844 11.6062 14.264C11.7022 13.5159 11.5774 12.6523 11.4138 11.9154L10.7795 9.81457C11.4365 10.2546 12.4172 11.5188 12.825 12.2783C14.3952 15.2029 13.7102 18.1216 12.5432 20.9671C12.4414 21.2155 12.3485 21.3906 12.2268 21.6852C12.1035 21.9828 11.9602 22.1475 11.8881 22.4559C12.6764 22.0776 13.2789 21.8672 14.093 21.3342C15.9999 20.0854 18.0978 17.6912 18.0978 15.285C18.0978 13.5359 17.9426 12.8067 17.3485 11.2292C17.0436 10.4194 16.3951 9.27195 15.9108 8.52738L14.7143 6.91458C13.3169 5.20386 10.827 2.84956 8.91663 1.54972C7.22703 0.400019 8.70275 0.858146 7.14333 4.10909C6.69674 5.04067 6.11387 5.85168 5.46798 6.64694C5.35278 6.78864 5.26448 6.85276 5.15043 6.99445L3.88241 8.46213C3.3018 9.15563 2.91357 9.46206 2.23466 10.3629C1.56534 11.2507 0.651855 12.8966 0.651855 14.398Z" fill="#237DEB"/>
</svg>
