<svg width="17" height="20" viewBox="0 0 17 20" fill="none" xmlns="http://www.w3.org/2000/svg">
<path fill-rule="evenodd" clip-rule="evenodd" d="M14.8013 16.4163H1.45966V18.2917H0.122559V19.4299H16.1384V18.2917H14.8013V16.4163Z" fill="#237DEB"/>
<path fill-rule="evenodd" clip-rule="evenodd" d="M2.8501 0.00341797H5.86986V1.46761H2.8501V0.00341797Z" fill="#237DEB"/>
<path fill-rule="evenodd" clip-rule="evenodd" d="M8.12877 9.77917C7.63993 10.2918 7.10925 11.0091 7.10925 11.5122C7.10925 12.0755 7.56735 12.5336 8.13068 12.5336C8.69401 12.5336 9.1521 12.0755 9.1521 11.5122C9.1521 11.1831 8.9148 10.7104 8.48434 10.182C8.36108 10.0303 8.23782 9.89361 8.12877 9.77917Z" fill="#237DEB"/>
<path fill-rule="evenodd" clip-rule="evenodd" d="M14.8015 6.75769H1.45984V15.2783H14.8015V6.75769ZM8.13068 13.672C6.93989 13.672 5.97105 12.7031 5.97105 11.5124C5.97105 10.1515 7.57424 8.71802 7.75703 8.55904L8.13068 8.23414L8.50433 8.55904C8.68711 8.71802 10.2903 10.1515 10.2903 11.5124C10.2903 12.7031 9.32146 13.672 8.13068 13.672Z" fill="#237DEB"/>
<path fill-rule="evenodd" clip-rule="evenodd" d="M0.122559 2.60596V3.74412H1.45966V5.61957H14.8013V3.74412H16.1384V2.60596H0.122559Z" fill="#237DEB"/>
</svg>
