<svg width="17" height="20" viewBox="0 0 17 20" fill="none" xmlns="http://www.w3.org/2000/svg">
<path fill-rule="evenodd" clip-rule="evenodd" d="M15.7893 16.8067H14.9763V12.6841C14.9763 12.5758 14.8876 12.4875 14.779 12.4875H13.8631V9.33752L13.9599 9.37708C14.0102 9.39705 14.0601 9.4078 14.1104 9.4078C14.264 9.4078 14.4119 9.31603 14.4737 9.16435L15.0339 7.81266C15.0731 7.71512 15.0731 7.60723 15.0339 7.51123C14.9944 7.41523 14.9172 7.33766 14.8204 7.2985L6.31791 3.778C6.62818 3.18433 6.90774 2.5822 7.14774 1.98355C7.22838 1.7831 7.13199 1.55617 6.93346 1.474L3.575 0.0831214C3.37532 0.000945363 3.14723 0.0938989 3.06083 0.291659C2.22985 2.23931 1.69263 4.40965 1.37314 7.12146C1.35394 7.29656 1.45186 7.46398 1.61429 7.53118L3.05468 8.12755C3.21673 8.19475 3.40374 8.1456 3.51318 8.00736C4.13795 7.21594 4.6767 6.47214 5.16208 5.73332L6.86051 6.43832L6.77641 7.01623L6.52374 8.77112L5.36291 16.8067H2.64764H0.647C0.43004 16.8067 0.253784 16.983 0.253784 17.2007V18.9874C0.253784 19.2032 0.43004 19.3799 0.647 19.3799H15.7893C16.0047 19.3799 16.181 19.2032 16.181 18.9874V17.2007C16.181 16.983 16.0047 16.8067 15.7893 16.8067ZM13.0771 12.4875H12.1628C12.0533 12.4875 11.9642 12.5758 11.9642 12.6841V16.8067H11.0718L9.911 8.77112L9.74742 7.63296L13.0771 9.01191V12.4875ZM9.19177 9.82292L7.80937 8.79265L8.90838 7.86257L9.19177 9.82292ZM8.73058 10.5548L6.97724 11.6703L7.29174 9.48343L8.73058 10.5548ZM9.38492 11.1619L9.80771 14.0869L7.53135 12.3397L9.38492 11.1619ZM7.69724 16.8067L9.96361 15.1659L10.2005 16.8067H7.69724ZM8.47062 7.10496L7.52098 7.90712L7.68303 6.77777L8.47062 7.10496ZM6.80329 12.868L9.16258 14.679L6.23651 16.8006L6.80329 12.868Z" fill="#237DEB"/>
</svg>
