<svg width="21" height="11" viewBox="0 0 21 11" fill="none" xmlns="http://www.w3.org/2000/svg">
<path fill-rule="evenodd" clip-rule="evenodd" d="M20.9777 10.707C19.6878 10.707 19.0308 10.2504 18.4851 9.88367C18.0239 9.5734 17.6905 9.34914 16.9398 9.34914C16.1895 9.34914 15.8561 9.5734 15.395 9.88367C14.8493 10.2504 14.1708 10.707 12.9024 10.707C11.6341 10.707 10.9555 10.2504 10.4099 9.88367C9.94868 9.5734 9.6155 9.34914 8.86516 9.34914C8.11482 9.34914 7.7815 9.5734 7.32031 9.88367C6.77503 10.2504 6.09611 10.707 4.82776 10.707C3.55979 10.707 2.85814 10.2504 2.31286 9.88367C1.85168 9.5734 1.49224 9.34914 0.745361 9.34914V7.65186C2.03522 7.65186 2.71498 8.10845 3.26026 8.47517C3.72145 8.78544 4.06618 9.00969 4.81651 9.00969C5.56685 9.00969 5.90603 8.78544 6.36721 8.47517C6.91249 8.10845 7.59411 7.65186 8.86246 7.65186C10.1304 7.65186 10.8104 8.10845 11.3561 8.47517C11.8172 8.78544 12.1513 9.00969 12.9017 9.00969C13.6524 9.00969 13.9857 8.78544 14.4473 8.47517C14.9925 8.10845 15.6715 7.65186 16.9398 7.65186C18.2082 7.65186 18.8871 8.10845 19.4324 8.47517C19.8935 8.78544 20.2308 9.00969 20.9777 9.00969V10.707Z" fill="#237DEB"/>
<path fill-rule="evenodd" clip-rule="evenodd" d="M20.9777 7.24433C19.6878 7.24433 19.0308 6.78774 18.4851 6.42102C18.0239 6.11075 17.6905 5.8865 16.9398 5.8865C16.1895 5.8865 15.8561 6.11075 15.395 6.42102C14.8493 6.78774 14.1708 7.24433 12.9024 7.24433C11.6341 7.24433 10.9555 6.78774 10.4099 6.42102C9.94868 6.11075 9.6155 5.8865 8.86516 5.8865C8.11482 5.8865 7.7815 6.11075 7.32031 6.42102C6.77503 6.78774 6.09611 7.24433 4.82776 7.24433C3.55979 7.24433 2.85814 6.78774 2.31286 6.42102C1.85168 6.11075 1.49224 5.8865 0.745361 5.8865V4.18921C2.03522 4.18921 2.71498 4.6458 3.26026 5.01252C3.72145 5.32279 4.06618 5.54705 4.81651 5.54705C5.56685 5.54705 5.90603 5.32279 6.36721 5.01252C6.91249 4.6458 7.59411 4.18921 8.86246 4.18921C10.1304 4.18921 10.8104 4.6458 11.3561 5.01252C11.8172 5.32279 12.1513 5.54705 12.9017 5.54705C13.6524 5.54705 13.9857 5.32279 14.4473 5.01252C14.9925 4.6458 15.6715 4.18921 16.9398 4.18921C18.2082 4.18921 18.8871 4.6458 19.4324 5.01252C19.8935 5.32279 20.2308 5.54705 20.9777 5.54705V7.24433Z" fill="#237DEB"/>
<path fill-rule="evenodd" clip-rule="evenodd" d="M20.9777 3.78169C19.6878 3.78169 19.0308 3.3251 18.4851 2.95838C18.0239 2.6481 17.6905 2.42385 16.9398 2.42385C16.1895 2.42385 15.8561 2.6481 15.395 2.95838C14.8493 3.3251 14.1708 3.78169 12.9024 3.78169C11.6341 3.78169 10.9555 3.3251 10.4099 2.95838C9.94868 2.6481 9.6155 2.42385 8.86516 2.42385C8.11482 2.42385 7.7815 2.6481 7.32031 2.95838C6.77503 3.3251 6.09611 3.78169 4.82776 3.78169C3.55979 3.78169 2.85814 3.3251 2.31286 2.95838C1.85168 2.6481 1.49224 2.42385 0.745361 2.42385V0.726562C2.03522 0.726562 2.71498 1.18316 3.26026 1.54988C3.72145 1.86015 4.06618 2.0844 4.81651 2.0844C5.56685 2.0844 5.90603 1.86015 6.36721 1.54988C6.91249 1.18316 7.59411 0.726562 8.86246 0.726562C10.1304 0.726562 10.8104 1.18316 11.3561 1.54988C11.8172 1.86015 12.1513 2.0844 12.9017 2.0844C13.6524 2.0844 13.9857 1.86015 14.4473 1.54988C14.9925 1.18316 15.6715 0.726562 16.9398 0.726562C18.2082 0.726562 18.8871 1.18316 19.4324 1.54988C19.8935 1.86015 20.2308 2.0844 20.9777 2.0844V3.78169Z" fill="#237DEB"/>
</svg>
