<svg width="16" height="16" viewBox="0 0 16 16" fill="none" xmlns="http://www.w3.org/2000/svg">
<path d="M0.88144 16C0.635167 15.9996 0.400385 15.8957 0.234392 15.7137C0.0653425 15.5332 -0.0186597 15.2891 0.00349095 15.0428L0.218588 12.6769L10.1552 2.74109L13.2605 5.84637L3.32653 15.7813L0.961334 15.9965C0.934117 15.9991 0.906901 16 0.88144 16ZM13.8804 5.22549L10.7759 2.12021L12.6381 0.257564C12.8028 0.092658 13.0262 0 13.2592 0C13.4922 0 13.7157 0.092658 13.8804 0.257564L15.7425 2.12021C15.9074 2.28493 16 2.50844 16 2.74153C16 2.97461 15.9074 3.19812 15.7425 3.36284L13.8812 5.22461L13.8804 5.22549Z" fill="white"/>
</svg>
