<svg width="60" height="72" viewBox="0 0 60 72" fill="none" xmlns="http://www.w3.org/2000/svg">
<path d="M34.7511 62.4611C33.9437 62.4607 33.1695 62.1286 32.5986 61.537L23.4647 52.0752L4.30506 71.9229L0 67.4632L20.4201 46.3098C20.991 45.7184 21.7652 45.386 22.5727 45.3857H24.3569C25.1643 45.386 25.9386 45.7184 26.5094 46.3098L35.6432 55.7716L48.7137 42.2317L41.7324 34.9998H60V53.9234L53.0187 46.6914L38.6878 61.537C38.1169 62.1286 37.3427 62.4607 36.5353 62.4611H34.7511Z" fill="white"/>
<path d="M43 28C49.0543 28 54 23.1124 54 17.1479C54 11.5976 45.2171 1.57396 44.1938 0.497041C43.8527 0.16568 43.4264 0 43 0C42.5736 0 42.062 0.16568 41.8062 0.497041C40.7829 1.57396 32 11.5976 32 17.1479C32 23.1124 36.9457 28 43 28Z" fill="white"/>
<path fill-rule="evenodd" clip-rule="evenodd" d="M3.38998 17.4455C3.55904 17.5053 3.66673 17.6534 3.6798 17.8299H24.3338C24.3425 17.6538 24.4466 17.5041 24.6133 17.4404C24.8315 17.356 24.9875 17.143 24.9875 16.896C24.9875 16.6485 24.8311 16.4359 24.6133 16.3516C24.4395 16.2843 24.3302 16.1251 24.3302 15.939V7.30675C17.4998 6.49987 10.0197 6.51135 3.68455 7.33209V15.9291C3.68455 16.1196 3.56933 16.2819 3.38998 16.3452C3.16351 16.426 3 16.6422 3 16.896C3 17.1486 3.16351 17.3655 3.38998 17.4455Z" fill="white"/>
<path fill-rule="evenodd" clip-rule="evenodd" d="M24.6133 27.2401C24.4395 27.1732 24.3302 27.0144 24.3302 26.8276V18.6558H3.68455V26.8181C3.68455 27.0085 3.56933 27.1712 3.38998 27.235C3.16351 27.3146 3 27.5319 3 27.7849C3 28.0379 3.16351 28.2553 3.38998 28.3348C3.55825 28.3946 3.66594 28.5419 3.6794 28.7177H24.3338C24.3429 28.5423 24.4474 28.3934 24.6133 28.3297C24.8315 28.2454 24.9875 28.0328 24.9875 27.7853C24.9879 27.5371 24.8315 27.3245 24.6133 27.2401ZM13.9939 26.685C12.7571 26.685 11.755 25.6818 11.755 24.4457C11.755 23.6376 12.533 22.4206 12.9107 21.6766L13.9939 19.6495L15.0768 21.6766C15.4549 22.4202 16.2329 23.6376 16.2329 24.4457C16.2329 25.6818 15.2308 26.685 13.9939 26.685Z" fill="white"/>
<path fill-rule="evenodd" clip-rule="evenodd" d="M3.92012 6.74532C10.1408 5.9701 17.4147 5.961 24.0974 6.72592C24.2479 6.63525 24.3302 6.54181 24.3302 6.44521C24.3302 6.09165 23.264 5.77056 21.5255 5.53182V4.70632C21.5255 4.31713 21.2084 4 20.8188 4H18.1657C17.7762 4 17.459 4.31674 17.459 4.70632V5.18776C17.4606 5.18776 17.4622 5.18776 17.4638 5.18776C16.3786 5.13788 15.211 5.11056 13.9939 5.11056C8.28515 5.11056 3.65723 5.708 3.65723 6.44521C3.65723 6.54854 3.74829 6.64871 3.92012 6.74532ZM21.1015 5.47679C21.0975 5.47639 21.0936 5.4756 21.09 5.4752C21.094 5.4756 21.0975 5.47639 21.1015 5.47679ZM18.6116 5.25151C18.6044 5.25111 18.5977 5.25071 18.591 5.24992C18.5977 5.25032 18.6048 5.25071 18.6116 5.25151ZM19.1607 5.28951C19.146 5.28872 19.1314 5.28753 19.1167 5.28635C19.1314 5.28753 19.146 5.28833 19.1607 5.28951Z" fill="white"/>
<path fill-rule="evenodd" clip-rule="evenodd" d="M24.3305 29.543H3.68481V37.2789C10.5299 38.6016 17.4736 38.6115 24.3305 37.3105V29.543Z" fill="white"/>
<path fill-rule="evenodd" clip-rule="evenodd" d="M24.3563 37.8666C20.949 38.5076 17.5184 38.8319 14.0917 38.8319C10.6048 38.8319 7.12149 38.4985 3.66114 37.835C3.61918 38.0321 3.51901 38.2063 3.36143 38.3497C3.2965 38.4086 3.26245 38.47 3.26245 38.5314C3.26245 39.2678 8.06735 39.8656 13.9939 39.8656C19.9208 39.8656 24.7249 39.2678 24.7249 38.5314C24.7249 38.4728 24.6948 38.415 24.6358 38.3588C24.4898 38.2182 24.3971 38.0527 24.3563 37.8666Z" fill="white"/>
</svg>
