<svg width="38" height="49" viewBox="0 0 38 49" fill="none" xmlns="http://www.w3.org/2000/svg">
    <path fill-rule="evenodd" clip-rule="evenodd" d="M18.4781 17.2646H15.2774L18.4781 19.7786V17.2646ZM12.3438 14.3281H25.6588V16.3836H24.1981L28.3346 43.7786H9.66797L13.8341 16.3836H12.3438V14.3281ZM26.7348 40.312L26.08 36.0286L20.115 39.3304L21.9989 40.312H26.7348ZM16.2058 40.312L17.9283 39.3735L11.9482 36.1637L11.3177 40.312H16.2058ZM22.4933 17.2646H19.5629V19.7195L22.4933 17.2646ZM18.4781 26.5155H14.5702L18.4784 28.9925L18.4781 26.5155ZM23.6001 26.5155H19.5629V29.1176L23.6001 26.5155ZM19.5629 25.4113H23.7113L19.5629 22.1097V25.4113ZM14.3579 25.4113H18.4781V22.0896L14.3579 25.4113ZM18.4781 35.4924H13.1458L18.4784 38.438L18.4781 35.4924ZM24.8581 35.4924H19.5629V38.4417L24.8581 35.4924ZM19.5629 34.3879H24.5251L19.5629 31.0914V34.3879ZM13.363 34.3879H18.4781V31.2278L13.363 34.3879ZM13.3476 26.9616L12.3087 33.7946L18.0556 30.09L13.3476 26.9616ZM14.6761 18.2203L18.1002 20.9454L13.7015 24.6311L14.6761 18.2203ZM24.2949 24.3457L23.3498 18.1628L19.9306 20.9188L24.2949 24.3457ZM25.7051 33.5731L24.7541 27.3511L20.2643 30.1246L25.7051 33.5731Z" fill="white"/>
    <path fill-rule="evenodd" clip-rule="evenodd" d="M0.333008 45.3877V48.3327H37.6663V45.3877H0.333008Z" fill="white"/>
    <path d="M2.48926 17.2697L8.9508 10.6433L18.2841 9.90705L24.7457 3.28069L33.3611 2.54443" stroke="white" stroke-width="0.6"/>
    <ellipse cx="2.48685" cy="17.2708" rx="2.15385" ry="2.20878" fill="white"/>
    <ellipse cx="8.94974" cy="10.6385" rx="2.15384" ry="2.20878" fill="white"/>
    <ellipse cx="18.2818" cy="9.90409" rx="2.15385" ry="2.20878" fill="white"/>
    <ellipse cx="24.7437" cy="3.27421" rx="2.15385" ry="2.20878" fill="white"/>
    <ellipse cx="33.3579" cy="2.54228" rx="2.15385" ry="2.20878" fill="white"/>
</svg>
