<svg width="14" height="14" viewBox="0 0 14 14" fill="none" xmlns="http://www.w3.org/2000/svg">
    <path fill-rule="evenodd" clip-rule="evenodd" d="M0.95456 0C0.429544 0 0 0.429543 0 0.954557V2.86367H14.0002V0.954557C14.0002 0.429543 13.5707 0 13.0456 0H12.0911H8.90922H5.40917H2.22731H0.95456ZM3.93752 1.44359C3.93752 1.80603 3.6437 2.09985 3.28126 2.09985C2.91882 2.09985 2.625 1.80603 2.625 1.44359C2.625 1.08115 2.91882 0.787329 3.28126 0.787329C3.6437 0.787329 3.93752 1.08115 3.93752 1.44359ZM10.4567 2.09973C10.8192 2.09973 11.113 1.80592 11.113 1.44347C11.113 1.08103 10.8192 0.787215 10.4567 0.787215C10.0943 0.787215 9.80046 1.08103 9.80046 1.44347C9.80046 1.80592 10.0943 2.09973 10.4567 2.09973Z" fill="white"/>
    <path d="M0 13.0456C0 13.5706 0.429544 14.0001 0.95456 14.0001H13.0456C13.5707 14.0001 14.0002 13.5706 14.0002 13.0456V3.5H0V13.0456ZM10.5002 5.09093C10.5002 4.91593 10.6433 4.77274 10.8183 4.77274H12.0911C12.2661 4.77274 12.4093 4.91593 12.4093 5.09093V6.36367C12.4093 6.53867 12.2661 6.68186 12.0911 6.68186H10.8183C10.6433 6.68186 10.5002 6.53867 10.5002 6.36367V5.09093ZM10.5002 7.9546C10.5002 7.7796 10.6433 7.63641 10.8183 7.63641H12.0911C12.2661 7.63641 12.4093 7.7796 12.4093 7.9546V9.22734C12.4093 9.40234 12.2661 9.54553 12.0911 9.54553H10.8183C10.6433 9.54553 10.5002 9.40234 10.5002 9.22734V7.9546ZM10.5002 10.8183C10.5002 10.6433 10.6433 10.5001 10.8183 10.5001H12.0911C12.2661 10.5001 12.4093 10.6433 12.4093 10.8183V12.091C12.4093 12.266 12.2661 12.4092 12.0911 12.4092H10.8183C10.6433 12.4092 10.5002 12.266 10.5002 12.091V10.8183ZM7.31829 5.09093C7.31829 4.91593 7.46148 4.77274 7.63648 4.77274H8.90922C9.08422 4.77274 9.22741 4.91593 9.22741 5.09093V6.36367C9.22741 6.53867 9.08422 6.68186 8.90922 6.68186H7.63648C7.46148 6.68186 7.31829 6.53867 7.31829 6.36367V5.09093ZM7.31829 7.9546C7.31829 7.7796 7.46148 7.63641 7.63648 7.63641H8.90922C9.08422 7.63641 9.22741 7.7796 9.22741 7.9546V9.22734C9.22741 9.40234 9.08422 9.54553 8.90922 9.54553H7.63648C7.46148 9.54553 7.31829 9.40234 7.31829 9.22734V7.9546ZM7.31829 10.8183C7.31829 10.6433 7.46148 10.5001 7.63648 10.5001H8.90922C9.08422 10.5001 9.22741 10.6433 9.22741 10.8183V12.091C9.22741 12.266 9.08422 12.4092 8.90922 12.4092H7.63648C7.46148 12.4092 7.31829 12.266 7.31829 12.091V10.8183ZM4.45461 5.09093C4.45461 4.91593 4.5978 4.77274 4.7728 4.77274H6.04554C6.22054 4.77274 6.36373 4.91593 6.36373 5.09093V6.36367C6.36373 6.53867 6.22054 6.68186 6.04554 6.68186H4.7728C4.5978 6.68186 4.45461 6.53867 4.45461 6.36367V5.09093ZM4.45461 7.9546C4.45461 7.7796 4.5978 7.63641 4.7728 7.63641H6.04554C6.22054 7.63641 6.36373 7.7796 6.36373 7.9546V9.22734C6.36373 9.40234 6.22054 9.54553 6.04554 9.54553H4.7728C4.5978 9.54553 4.45461 9.40234 4.45461 9.22734V7.9546ZM4.45461 10.8183C4.45461 10.6433 4.5978 10.5001 4.7728 10.5001H6.04554C6.22054 10.5001 6.36373 10.6433 6.36373 10.8183V12.091C6.36373 12.266 6.22054 12.4092 6.04554 12.4092H4.7728C4.5978 12.4092 4.45461 12.266 4.45461 12.091V10.8183ZM1.59093 5.09093C1.59093 4.91593 1.73412 4.77274 1.90912 4.77274H3.18187C3.35686 4.77274 3.50005 4.91593 3.50005 5.09093V6.36367C3.50005 6.53867 3.35686 6.68186 3.18187 6.68186H1.90912C1.73412 6.68186 1.59093 6.53867 1.59093 6.36367V5.09093ZM1.59093 7.9546C1.59093 7.7796 1.73412 7.63641 1.90912 7.63641H3.18187C3.35686 7.63641 3.50005 7.7796 3.50005 7.9546V9.22734C3.50005 9.40234 3.35686 9.54553 3.18187 9.54553H1.90912C1.73412 9.54553 1.59093 9.40234 1.59093 9.22734V7.9546ZM1.59093 10.8183C1.59093 10.6433 1.73412 10.5001 1.90912 10.5001H3.18187C3.35686 10.5001 3.50005 10.6433 3.50005 10.8183V12.091C3.50005 12.266 3.35686 12.4092 3.18187 12.4092H1.90912C1.73412 12.4092 1.59093 12.266 1.59093 12.091V10.8183Z" fill="white"/>
</svg>