<svg width="14" height="14" viewBox="0 0 14 14" fill="none" xmlns="http://www.w3.org/2000/svg">
<path fill-rule="evenodd" clip-rule="evenodd" d="M1.90006 1.90722V12.0997H12.0914V9.064C12.0914 7.746 14 7.73739 14 9.064V13.0094C14 13.5917 13.5936 14 13.0012 14H0.99025C0.40813 14 0 13.5917 0 13.0111V0.994099C0 0.411771 0.40813 0.00172192 0.99025 0.00172192H5.09066C6.40854 0.00172192 6.41879 1.90722 5.09066 1.90722H1.90006ZM12.0914 3.27689L10.2186 5.11863C9.69625 5.64238 8.10529 7.50308 7.40708 7.50308C6.6901 7.50308 6.4956 7.04825 6.4956 6.42801C6.4956 5.93183 8.49277 4.16762 8.91955 3.74035L10.724 1.90722H9.47281C8.69608 1.90722 7.73654 1.98818 7.73654 0.913116C7.73654 0.379028 8.21295 0 8.72679 0H13.0012C13.5936 0 14 0.411771 14 0.994099V5.2737C14 5.8543 13.5936 6.26262 13.0012 6.26262C11.994 6.26262 12.0897 5.14792 12.0897 4.45016V3.27689" fill="#82BAFF"/>
</svg>
