<svg width="17" height="18" viewBox="0 0 17 18" fill="none" xmlns="http://www.w3.org/2000/svg">
    <path d="M6.22143 2.35793L6.88437 2.58265L6.22143 2.35793ZM5.89377 3.32452L6.17741 3.96448L6.45814 3.84006L6.55672 3.54925L5.89377 3.32452ZM4.79128 3.95179L4.65319 4.63803L4.94979 4.69772L5.1965 4.52258L4.79128 3.95179ZM3.77152 3.74659L3.90961 3.06034L3.77152 3.74659ZM1.61667 4.70662L2.22031 5.06103H2.22031L1.61667 4.70662ZM1.27236 5.29304L0.668712 4.93862L0.668712 4.93862L1.27236 5.29304ZM1.50429 7.60813L0.984444 8.07692L0.984444 8.07692L1.50429 7.60813ZM2.19513 8.37422L2.89155 8.44495L2.92292 8.13603L2.71498 7.90543L2.19513 8.37422ZM2.19511 9.62571L2.71496 10.0945L2.92289 9.86391L2.89153 9.555L2.19511 9.62571ZM1.50451 10.3915L0.984668 9.92275H0.984667L1.50451 10.3915ZM1.27258 12.7066L0.668936 13.061H0.668936L1.27258 12.7066ZM1.61689 13.293L2.22054 12.9386H2.22054L1.61689 13.293ZM3.77175 14.2531L3.90984 14.9393H3.90984L3.77175 14.2531ZM4.79084 14.048L5.19611 13.4773L4.94939 13.3021L4.65275 13.3618L4.79084 14.048ZM5.89381 14.6756L6.55676 14.4509L6.45818 14.1601L6.17745 14.0356L5.89381 14.6756ZM6.22143 15.6421L6.88437 15.4173L6.22143 15.6421ZM10.7578 15.6421L11.4208 15.8668L10.7578 15.6421ZM11.0849 14.6772L10.8017 14.0371L10.5206 14.1614L10.422 14.4525L11.0849 14.6772ZM12.191 14.0483L12.3291 13.3621L12.0325 13.3024L11.7858 13.4775L12.191 14.0483ZM13.2086 14.2531L13.0706 14.9393L13.2086 14.2531ZM15.3635 13.293L14.7599 12.9386L15.3635 13.293ZM15.7078 12.7066L16.3115 13.061H16.3115L15.7078 12.7066ZM15.4759 10.3915L14.956 10.8603H14.956L15.4759 10.3915ZM14.787 9.62761L14.0906 9.55668L14.0591 9.86571L14.2672 10.0964L14.787 9.62761ZM14.787 8.37232L14.2671 7.90353L14.0591 8.13422L14.0906 8.44327L14.787 8.37232ZM15.4761 7.60813L15.996 8.07692V8.07692L15.4761 7.60813ZM15.708 5.29304L15.1044 5.64746L15.708 5.29304ZM15.3637 4.70662L15.9674 4.3522L15.9674 4.3522L15.3637 4.70662ZM13.2089 3.74659L13.0708 3.06034L13.2089 3.74659ZM12.1906 3.95149L11.7854 4.52231L12.0321 4.69741L12.3287 4.63773L12.1906 3.95149ZM11.085 3.32294L10.422 3.54766L10.5207 3.83872L10.8017 3.96307L11.085 3.32294ZM10.7578 2.35793L10.0949 2.58265V2.58265L10.7578 2.35793ZM6.88437 2.58265C7.06323 2.05501 7.55843 1.7 8.11556 1.7V0.3C6.95844 0.3 5.92996 1.03733 5.55848 2.1332L6.88437 2.58265ZM6.55672 3.54925L6.88437 2.58265L5.55848 2.1332L5.23082 3.0998L6.55672 3.54925ZM5.1965 4.52258C5.5019 4.30576 5.8303 4.11832 6.17741 3.96448L5.61013 2.68456C5.17697 2.87655 4.76717 3.11044 4.38606 3.381L5.1965 4.52258ZM3.63343 4.43283L4.65319 4.63803L4.92937 3.26554L3.90961 3.06034L3.63343 4.43283ZM2.22031 5.06103C2.50505 4.57607 3.075 4.32046 3.63343 4.43283L3.90961 3.06034C2.76922 2.83087 1.60189 3.34924 1.01302 4.3522L2.22031 5.06103ZM1.876 5.64746L2.22031 5.06103L1.01302 4.3522L0.668712 4.93862L1.876 5.64746ZM2.02414 7.13935C1.65462 6.72957 1.59286 6.1297 1.876 5.64746L0.668712 4.93862C0.0782496 5.9443 0.203486 7.21089 0.984444 8.07692L2.02414 7.13935ZM2.71498 7.90543L2.02414 7.13935L0.984444 8.07692L1.67528 8.843L2.71498 7.90543ZM2.86352 9.00005C2.86352 8.81248 2.87302 8.62731 2.89155 8.44495L1.49871 8.30349C1.47542 8.53277 1.46352 8.76515 1.46352 9.00005H2.86352ZM2.89153 9.555C2.87302 9.37269 2.86352 9.18757 2.86352 9.00005H1.46352C1.46352 9.23489 1.47542 9.46721 1.49869 9.69642L2.89153 9.555ZM2.02436 10.8603L2.71496 10.0945L1.67526 9.15693L0.984668 9.92275L2.02436 10.8603ZM1.87623 12.3522C1.59309 11.87 1.65484 11.2701 2.02436 10.8603L0.984667 9.92275C0.203709 10.7888 0.0784736 12.0554 0.668936 13.061L1.87623 12.3522ZM2.22054 12.9386L1.87623 12.3522L0.668936 13.061L1.01325 13.6475L2.22054 12.9386ZM3.63366 13.5668C3.07522 13.6792 2.50527 13.4236 2.22054 12.9386L1.01325 13.6475C1.60211 14.6504 2.76944 15.1688 3.90984 14.9393L3.63366 13.5668ZM4.65275 13.3618L3.63366 13.5668L3.90984 14.9393L4.92893 14.7343L4.65275 13.3618ZM6.17745 14.0356C5.83018 13.8817 5.50163 13.6942 5.19611 13.4773L4.38557 14.6188C4.76683 14.8895 5.17682 15.1235 5.61018 15.3156L6.17745 14.0356ZM6.88437 15.4173L6.55676 14.4509L5.23087 14.9003L5.55848 15.8668L6.88437 15.4173ZM8.11556 16.3C7.55843 16.3 7.06323 15.945 6.88437 15.4173L5.55848 15.8668C5.92996 16.9627 6.95844 17.7 8.11556 17.7V16.3ZM8.8637 16.3H8.11556V17.7H8.8637V16.3ZM10.0949 15.4173C9.91603 15.945 9.42084 16.3 8.8637 16.3V17.7C10.0208 17.7 11.0493 16.9627 11.4208 15.8668L10.0949 15.4173ZM10.422 14.4525L10.0949 15.4173L11.4208 15.8668L11.7479 14.9019L10.422 14.4525ZM11.7858 13.4775C11.4795 13.695 11.15 13.8829 10.8017 14.0371L11.3682 15.3173C11.8028 15.125 12.214 14.8905 12.5963 14.6191L11.7858 13.4775ZM13.3467 13.5668L12.3291 13.3621L12.053 14.7345L13.0706 14.9393L13.3467 13.5668ZM14.7599 12.9386C14.4751 13.4236 13.9052 13.6792 13.3467 13.5668L13.0706 14.9393C14.211 15.1688 15.3783 14.6504 15.9671 13.6475L14.7599 12.9386ZM15.1042 12.3522L14.7599 12.9386L15.9671 13.6475L16.3115 13.061L15.1042 12.3522ZM14.956 10.8603C15.3256 11.2701 15.3873 11.87 15.1042 12.3522L16.3115 13.061C16.9019 12.0554 16.7767 10.7888 15.9957 9.92274L14.956 10.8603ZM14.2672 10.0964L14.956 10.8603L15.9957 9.92274L15.3068 9.15883L14.2672 10.0964ZM14.1188 9.00005C14.1188 9.18815 14.1092 9.37383 14.0906 9.55668L15.4834 9.69854C15.5068 9.46864 15.5188 9.23561 15.5188 9.00005H14.1188ZM14.0906 8.44327C14.1092 8.62617 14.1188 8.8119 14.1188 9.00005H15.5188C15.5188 8.76443 15.5068 8.53134 15.4834 8.30137L14.0906 8.44327ZM14.9563 7.13935L14.2671 7.90353L15.3068 8.8411L15.996 8.07692L14.9563 7.13935ZM15.1044 5.64746C15.3875 6.1297 15.3258 6.72957 14.9563 7.13935L15.996 8.07692C16.7769 7.21089 16.9021 5.9443 16.3117 4.93863L15.1044 5.64746ZM14.7601 5.06104L15.1044 5.64746L16.3117 4.93863L15.9674 4.3522L14.7601 5.06104ZM13.347 4.43283C13.9054 4.32046 14.4753 4.57608 14.7601 5.06104L15.9674 4.3522C15.3785 3.34924 14.2112 2.83087 13.0708 3.06034L13.347 4.43283ZM12.3287 4.63773L13.347 4.43283L13.0708 3.06034L12.0525 3.26525L12.3287 4.63773ZM10.8017 3.96307C11.1499 4.11712 11.4792 4.30495 11.7854 4.52231L12.5958 3.38067C12.2136 3.10942 11.8027 2.87504 11.3682 2.6828L10.8017 3.96307ZM10.0949 2.58265L10.422 3.54766L11.7479 3.09821L11.4208 2.1332L10.0949 2.58265ZM8.8637 1.7C9.42084 1.7 9.91603 2.05501 10.0949 2.58265L11.4208 2.1332C11.0493 1.03733 10.0208 0.3 8.8637 0.3V1.7ZM8.11556 1.7H8.8637V0.3H8.11556V1.7Z" fill="white"/>
    <path fill-rule="evenodd" clip-rule="evenodd" d="M8.49902 10C9.05131 10 9.49902 9.55228 9.49902 9C9.49902 8.44772 9.05131 8 8.49902 8C7.94674 8 7.49902 8.44772 7.49902 9C7.49902 9.55228 7.94674 10 8.49902 10Z" stroke="white" stroke-width="1.4"/>
</svg>