<svg width="19" height="28" viewBox="0 0 19 28" fill="none" xmlns="http://www.w3.org/2000/svg">
    <path fill-rule="evenodd" clip-rule="evenodd" d="M18.7246 6.79002C18.7246 3.47046 16.0086 0.754883 12.6895 0.754883C9.36989 0.754883 6.6543 3.47046 6.6543 6.79002C6.6543 10.1092 9.36989 12.8252 12.6895 12.8252C16.0086 12.8252 18.7246 10.1092 18.7246 6.79002ZM12.6895 11.3164C10.1848 11.3164 8.16311 9.29471 8.16311 6.79002C8.16311 4.28533 10.1848 2.26365 12.6895 2.26365C15.1941 2.26365 17.2158 4.28533 17.2158 6.79002C17.2158 9.29471 15.1941 11.3164 12.6895 11.3164Z" fill="white"/>
    <path fill-rule="evenodd" clip-rule="evenodd" d="M13.4429 3.77344H11.9341V6.03663H9.6709V7.54542H11.9341V9.80859H13.4429V7.54542H15.7061V6.03663H13.4429V3.77344Z" fill="white"/>
    <path fill-rule="evenodd" clip-rule="evenodd" d="M10.9568 15.4798C10.7757 15.4798 10.6249 15.51 10.4439 15.5402C10.1725 14.8459 9.47822 14.3331 8.69359 14.3331C8.51255 14.3331 8.36177 14.3633 8.18073 14.3935C7.90898 13.6992 7.21502 13.1864 6.43039 13.1864C6.30983 13.1864 6.18927 13.1864 6.03809 13.2166V11.1042C6.03809 10.0785 5.19336 9.20312 4.13698 9.20312C3.08098 9.20312 2.23591 10.0482 2.23591 11.1042V15.5402L0.244464 17.5619C0.0936604 17.7127 0.0332031 17.8938 0.0332031 18.105V23.3858C0.0332031 23.5971 0.123519 23.7781 0.244464 23.9289L2.29635 25.9812V27.188C2.29635 27.6106 2.62823 27.9424 3.05078 27.9424C3.47333 27.9424 3.80516 27.6106 3.80516 27.188V25.6792C3.80516 25.468 3.71485 25.2869 3.5939 25.1361L1.54197 23.0842V18.407L2.29635 17.6526V21.1226C2.29635 21.5452 2.62823 21.877 3.05078 21.877C3.47333 21.877 3.80516 21.5452 3.80516 21.1226V11.1345C3.80516 10.9232 3.98619 10.7422 4.19746 10.7422C4.40874 10.7422 4.58977 10.9232 4.58977 11.1345V18.105C4.58977 18.5276 4.92164 18.8594 5.3442 18.8594C5.76675 18.8594 6.09858 18.5276 6.09858 18.105V15.0875C6.09858 14.8762 6.2796 14.6952 6.49088 14.6952C6.70215 14.6952 6.88318 14.8762 6.88318 15.0875V18.105C6.88318 18.5276 7.21506 18.8594 7.63761 18.8594C8.06016 18.8594 8.39199 18.5276 8.39199 18.105V16.2039C8.39199 15.9927 8.57302 15.8116 8.78429 15.8116C8.99557 15.8116 9.17664 15.9927 9.17664 16.2039V18.105C9.17664 18.5276 9.50847 18.8594 9.93102 18.8594C10.3536 18.8594 10.6854 18.5276 10.6854 18.105V17.3507C10.6854 17.1394 10.8664 16.9583 11.0777 16.9583C11.289 16.9583 11.4701 17.1394 11.4701 17.3507V23.2652L10.7455 25.4079C10.7157 25.4982 10.7156 25.5587 10.7156 25.649V26.6147V27.1578C10.7156 27.5803 11.0475 27.9122 11.4701 27.9122C11.8922 27.9122 12.2244 27.5803 12.2244 27.1578V25.7699L12.9486 23.6273C12.9788 23.537 12.9788 23.4765 12.9788 23.3858V17.3507C12.8579 16.3249 11.9829 15.4798 10.9568 15.4798Z" fill="white"/>
</svg>
