<svg width="20" height="21" viewBox="0 0 20 21" fill="none" xmlns="http://www.w3.org/2000/svg">
    <path fill-rule="evenodd" clip-rule="evenodd" d="M8.71187 0.561523C4.07287 0.561523 0.28125 4.33311 0.28125 8.99175C0.28125 13.6307 4.05284 17.4224 8.71187 17.4224C10.2241 17.4224 11.7166 16.9991 13.0277 16.2122L13.3395 16.0152H13.4559L17.3844 19.9433C17.6263 20.1856 17.9286 20.3065 18.2714 20.3065C18.6142 20.3065 18.917 20.1856 19.1589 19.9433C19.4008 19.7014 19.5221 19.399 19.5221 19.0562C19.5221 18.7131 19.3807 18.4107 19.1589 18.1684L15.3068 14.2763L15.69 13.6912C16.6379 12.2996 17.1421 10.6661 17.1421 8.97209C17.1421 4.33311 13.3505 0.561523 8.71187 0.561523ZM10.9384 14.8995H10.6802C10.5619 14.8995 10.4607 14.8149 10.4607 14.7136L9.86916 7.24221C9.86916 7.20857 9.85215 7.19155 9.85215 7.15792L10.8492 6.80302C10.9509 6.769 11.0862 6.80302 11.1534 6.90431L11.7283 7.73241C11.779 7.81707 11.9143 7.85109 12.0155 7.81707L12.7087 7.58047C12.827 7.54683 12.8777 7.44516 12.8607 7.34387L12.5564 5.65329C12.5398 5.63666 12.5398 5.60264 12.5228 5.58601L11.5424 4.14904C11.4917 4.06475 11.3564 4.03074 11.2551 4.06476L10.562 4.30136C10.4437 4.335 10.393 4.43667 10.41 4.53796L10.579 5.50135C10.5956 5.61965 10.5283 5.73795 10.41 5.77197L4.73051 7.78343C4.5952 7.83407 4.52756 7.96939 4.5782 8.08769L4.83181 8.71282C4.83181 8.72983 4.84882 8.72982 4.84882 8.74683V12.1443C4.84882 12.2285 4.79817 12.2796 4.71351 12.2796H4.5952C4.4769 12.2796 4.37562 12.3638 4.37562 12.4821V13.5808C3.14765 12.4247 2.3789 10.7855 2.3789 8.97209C2.3789 5.48284 5.2226 2.63912 8.71187 2.63912C12.2011 2.63912 15.0448 5.48284 15.0448 8.97209C15.0448 11.6779 13.3339 13.9955 10.9384 14.8995ZM9.12535 8.79748C9.12535 8.78047 9.12535 8.78047 9.12535 8.79748C9.12535 8.78047 9.12535 8.78047 9.12535 8.78047L8.02664 7.88472C7.97562 7.85108 7.92498 7.88472 7.90835 7.96938L7.75603 9.96384C7.75603 10.0485 7.82368 10.1158 7.87432 10.0651L9.12535 8.79748ZM8.12793 10.5553C8.12793 10.5553 8.12793 10.5723 8.12793 10.5553C8.11093 10.5723 8.12793 10.5723 8.14494 10.5723L9.63218 11.5021C9.68283 11.5357 9.73385 11.4681 9.73385 11.4004L9.56491 9.32132C9.56491 9.23703 9.49726 9.20302 9.44624 9.25367L8.12793 10.5553ZM7.73902 11.0455C7.68838 11.0119 7.63773 11.0625 7.63773 11.1302L7.48579 12.8881C7.48579 12.9727 7.53644 13.0234 7.58708 12.9893L9.14198 11.9243L7.73902 11.0455ZM8.63514 7.61449C8.63514 7.63112 8.63514 7.63112 8.63514 7.61449L9.36195 8.22299C9.41259 8.27364 9.48025 8.20598 9.48025 8.12132L9.4296 7.52982C9.4296 7.47918 9.39558 7.42816 9.36195 7.42816H9.14198L8.63514 7.61449ZM10.0041 14.6795L9.83515 12.3302C9.83515 12.2626 9.76749 12.2119 9.73385 12.2455L7.99263 13.4289C7.92497 13.4796 7.92497 13.5642 7.99263 13.6149L9.90279 14.7812C9.95344 14.8149 10.0041 14.7642 10.0041 14.6795ZM7.57007 14.9332H8.7028C8.78708 14.9332 8.8211 14.8319 8.75345 14.7982L7.50242 14.0374C7.45178 14.0034 7.40113 14.0544 7.40113 14.1221L7.35048 14.7136C7.35048 14.8319 7.45177 14.9332 7.57007 14.9332ZM6.04881 12.6174V14.7155C6.22078 14.7956 6.39691 14.8685 6.57643 14.9332H6.65732C6.77562 14.9332 6.87728 14.8489 6.87728 14.7472L7.40113 8.25663C7.40113 8.15534 7.29984 8.08768 7.21518 8.12132L5.69392 8.66217C5.60926 8.69619 5.5416 8.78047 5.5416 8.86513V12.1443C5.5416 12.2119 5.60925 12.2796 5.6769 12.2796C5.87987 12.2796 6.04881 12.4315 6.04881 12.6174Z" fill="white"/>
</svg>
