<svg width="20" height="18" viewBox="0 0 20 18" fill="none" xmlns="http://www.w3.org/2000/svg">
    <path fill-rule="evenodd" clip-rule="evenodd" d="M12.2161 9.2787L13.195 8.19022C13.3942 7.96005 13.669 7.82964 13.9562 7.82964C14.5402 7.82964 15.0137 8.3569 15.0137 9.00622C15.0137 9.32408 14.8981 9.62982 14.697 9.84563L11.9062 12.9498C11.8223 13.0431 11.7248 13.1198 11.6178 13.1765L11.6027 13.189L11.5487 13.2128C11.4251 13.268 11.2928 13.2971 11.159 13.2971C11.0278 13.2971 10.9009 13.2706 10.7863 13.22L10.7599 13.209C10.6295 13.1504 10.5104 13.0628 10.411 12.952L7.61456 9.84111C7.42407 9.6219 7.31786 9.32899 7.31786 9.02398C7.31786 8.37466 7.79144 7.84779 8.37538 7.84779C8.64901 7.84779 8.91244 7.96609 9.11465 8.18265L10.1019 9.28099V8.60822C10.1019 5.48067 7.81865 2.94461 5.00705 2.94461H1.75478C1.17084 2.94461 0.697266 2.41775 0.697266 1.76805C0.697266 1.11911 1.17122 0.591867 1.75478 0.591867H5.00705C8.98501 0.591867 12.2161 4.18392 12.2161 8.60898V9.2787ZM12.661 0.592605L15.414 0.591867C17.4523 0.578639 19.1028 2.43135 19.1028 4.69264V13.6943C19.1028 15.9583 17.4508 17.7947 15.4159 17.7947H4.38382C2.34854 17.7947 0.697266 15.9575 0.697266 13.694V5.91833C0.697266 5.26863 1.17084 4.74178 1.75478 4.74178C2.33872 4.74178 2.81266 5.26901 2.81266 5.91833V13.694C2.81266 14.6589 3.51679 15.442 4.3842 15.442H15.4159C16.2833 15.442 16.9874 14.6589 16.9874 13.694V5.31929C16.9874 4.90128 16.8604 4.4534 16.6877 4.08527C16.4503 3.57995 15.9779 2.94537 15.4159 2.94537H12.661C12.0767 2.94537 11.6031 2.41851 11.6031 1.76918C11.6031 1.11986 12.077 0.592605 12.661 0.592605Z" fill="#FEFEFE"/>
</svg>
