<svg width="16" height="14" viewBox="0 0 16 14" fill="none" xmlns="http://www.w3.org/2000/svg">
    <path d="M0 0V14H16V0H0ZM6.00816 9.00699V6.00466H10.0082V9.00699H6.00816ZM10.0082 10.0023V13.0047H6.00816V10.0023H10.0082ZM10.0082 2.00699V5.00932H6.00816V2.00699H10.0082ZM4.99592 2.00699V5.00932H0.995918V2.00699H4.99592ZM0.995918 6.00466H4.99592V9.00699H0.995918V6.00466ZM11.0041 6.00466H15.0041V9.00699H11.0041V6.00466ZM11.0041 5.00932V2.00699H15.0041V5.00932H11.0041ZM0.995918 10.0023H4.99592V13.0047H0.995918V10.0023ZM11.0041 13.0047V10.0023H15.0041V13.0047H11.0041Z" fill="white"/>
</svg>
