<svg width="23" height="16" viewBox="0 0 23 16" fill="none" xmlns="http://www.w3.org/2000/svg">
    <path fill-rule="evenodd" clip-rule="evenodd" d="M13.4538 9.57252C15.5666 9.57252 17.2794 7.86 17.2794 5.74724C17.2794 3.63449 15.5666 1.9216 13.4538 1.9216C11.3411 1.9216 9.62816 3.63449 9.62816 5.74724C9.62816 7.86 11.3411 9.57252 13.4538 9.57252ZM17.925 9.34384L22.4113 13.8301C22.7836 14.2028 22.7855 14.8045 22.4094 15.181C22.036 15.5544 21.4305 15.5548 21.0586 15.1829L16.4918 10.616C15.6108 11.1671 14.5695 11.4853 13.4538 11.4853C10.2847 11.4853 7.71537 8.91638 7.71537 5.74724C7.71537 2.57773 10.2847 0.00878906 13.4538 0.00878906C16.623 0.00878906 19.1919 2.57773 19.1919 5.74724C19.1919 7.10901 18.7176 8.36003 17.925 9.34384ZM0.0644531 3.35595C0.0644531 2.82795 0.389481 2.39972 0.779528 2.39972H5.08746C5.48242 2.39972 5.80291 2.82417 5.80291 3.35595C5.80291 3.88433 5.47789 4.31255 5.08746 4.31255H0.779528C0.384567 4.31255 0.0644531 3.88811 0.0644531 3.35595ZM0.0644531 9.0944C0.0644531 8.5664 0.389481 8.13817 0.779528 8.13817H5.08746C5.48242 8.13817 5.80291 8.56262 5.80291 9.0944C5.80291 9.62278 5.47789 10.0506 5.08746 10.0506H0.779528C0.384567 10.0506 0.0644531 9.62618 0.0644531 9.0944ZM0.0644531 14.8329C0.0644531 14.3045 0.378917 13.8763 0.780681 13.8763H14.4112C14.8069 13.8763 15.1274 14.3007 15.1274 14.8329C15.1274 15.3609 14.8129 15.7891 14.4112 15.7891H0.780681C0.385343 15.7891 0.0644531 15.3646 0.0644531 14.8329Z" fill="white"/>
</svg>
