<svg width="21" height="21" viewBox="0 0 21 21" fill="none" xmlns="http://www.w3.org/2000/svg">
    <path fill-rule="evenodd" clip-rule="evenodd" d="M11.09 15.5374L9.66895 14.5898V15.8708L11.09 16.8319V15.5374Z" fill="white"/>
    <path fill-rule="evenodd" clip-rule="evenodd" d="M11.09 13.5256L9.66895 12.5781V13.7369L11.09 14.684V13.5256Z" fill="white"/>
    <path fill-rule="evenodd" clip-rule="evenodd" d="M11.09 10.6816H9.66895V11.7229L11.09 12.67V10.6816Z" fill="white"/>
    <path fill-rule="evenodd" clip-rule="evenodd" d="M9.66895 18.4979L10.3795 20.2747L11.09 18.4979V17.6883L9.66895 16.7275V18.4979Z" fill="white"/>
    <path fill-rule="evenodd" clip-rule="evenodd" d="M10.3803 9.81462L10.8958 10.1238C11.9522 10.171 12.9704 10.3649 13.9334 10.6824V9.39999H12.5123V3.00469H12.8676L12.1567 1.58317H10.7356V0.162109H10.025V1.58317H8.60355L7.893 3.00469H8.24825V9.39999H6.82715V10.6824C7.79017 10.3649 8.80837 10.171 9.86475 10.1238L10.3803 9.81462ZM10.3803 8.98577L9.29445 8.33418L10.3803 7.68259L11.4662 8.33418L10.3803 8.98577ZM8.99811 6.0249L10.3803 5.19526L11.7624 6.0249L10.3803 6.85411L8.99811 6.0249ZM11.8014 9.83879L11.0712 9.39999L11.8014 8.96159V9.83879ZM11.8014 7.70677L11.0712 7.26833L11.8014 6.82994V7.70677ZM11.8014 5.21949L11.0712 4.78105L11.8014 4.34261V5.21949ZM8.95917 3.00469H11.8014V3.51413L10.3803 4.36683L8.95917 3.51413V3.00469ZM8.95917 4.34261L9.68938 4.78105L8.95917 5.21949V4.34261ZM8.95917 6.82994L9.68938 7.26833L8.95917 7.70677V6.82994ZM8.95917 9.83879V8.96159L9.68938 9.39999L8.95917 9.83879Z" fill="white"/>
    <path fill-rule="evenodd" clip-rule="evenodd" d="M8.95892 17.7319V14.7559C6.11184 15.4025 3.98438 17.9442 3.98438 20.9871H6.82692C6.82692 19.5305 7.70451 18.2803 8.95892 17.7319Z" fill="white"/>
    <path fill-rule="evenodd" clip-rule="evenodd" d="M11.8018 14.7559V17.7318C13.0562 18.2806 13.9338 19.5309 13.9338 20.9871H16.7764C16.7764 17.9446 14.6489 15.4029 11.8018 14.7559Z" fill="white"/>
    <path fill-rule="evenodd" clip-rule="evenodd" d="M3.27401 20.9852C3.27401 17.5473 5.7152 14.6802 8.95917 14.0218V10.7812C3.94147 11.474 0.0761719 15.777 0.0761719 20.9852H3.27401ZM7.89299 12.4578C8.08915 12.4578 8.24825 12.617 8.24825 12.8131C8.24825 13.0093 8.08915 13.1684 7.89299 13.1684C7.69683 13.1684 7.53769 13.0093 7.53769 12.8131C7.53769 12.617 7.69683 12.4578 7.89299 12.4578ZM5.76133 13.5237C5.95749 13.5237 6.11659 13.6828 6.11659 13.8789C6.11659 14.0751 5.95749 14.2342 5.76133 14.2342C5.56518 14.2342 5.40603 14.0751 5.40603 13.8789C5.40603 13.6828 5.56518 13.5237 5.76133 13.5237ZM3.98456 14.9448C4.18072 14.9448 4.33986 15.1042 4.33986 15.3004C4.33986 15.4966 4.18072 15.6557 3.98456 15.6557C3.7884 15.6557 3.62931 15.4966 3.62931 15.3004C3.62931 15.1042 3.7884 14.9448 3.98456 14.9448ZM3.27401 16.3663C3.47016 16.3663 3.62931 16.5254 3.62931 16.7215C3.62931 16.9177 3.47016 17.0768 3.27401 17.0768C3.07785 17.0768 2.91875 16.9177 2.91875 16.7215C2.91875 16.5254 3.07785 16.3663 3.27401 16.3663ZM2.56345 18.4979C2.75961 18.4979 2.91875 18.6574 2.91875 18.8535C2.91875 19.0497 2.75961 19.2088 2.56345 19.2088C2.3673 19.2088 2.2082 19.0497 2.2082 18.8535C2.2082 18.6574 2.3673 18.4979 2.56345 18.4979ZM1.8529 17.4321C2.04906 17.4321 2.2082 17.5912 2.2082 17.7874C2.2082 17.9835 2.04906 18.1426 1.8529 18.1426C1.65674 18.1426 1.49728 17.9835 1.49728 17.7874C1.49728 17.5912 1.65674 17.4321 1.8529 17.4321ZM1.49728 19.5641C1.69344 19.5641 1.8529 19.7232 1.8529 19.9194C1.8529 20.1155 1.69344 20.2746 1.49728 20.2746C1.3015 20.2746 1.14198 20.1155 1.14198 19.9194C1.14198 19.7232 1.3015 19.5641 1.49728 19.5641Z" fill="white"/>
    <path fill-rule="evenodd" clip-rule="evenodd" d="M20.6848 20.9856C20.6848 15.7774 16.8195 11.4744 11.8018 10.7812V14.0218C15.0457 14.6806 17.4869 17.5477 17.4869 20.9856H20.6848ZM18.908 17.7877C19.1042 17.7877 19.2633 17.9468 19.2633 18.143C19.2633 18.3391 19.1042 18.4983 18.908 18.4983C18.7119 18.4983 18.5528 18.3391 18.5528 18.143C18.5528 17.9468 18.7119 17.7877 18.908 17.7877ZM18.5528 19.5645C18.7489 19.5645 18.908 19.7236 18.908 19.9198C18.908 20.1159 18.7489 20.275 18.5528 20.275C18.3566 20.275 18.1975 20.1159 18.1975 19.9198C18.1975 19.7236 18.3566 19.5645 18.5528 19.5645ZM17.8422 16.7219C18.0384 16.7219 18.1975 16.881 18.1975 17.0772C18.1975 17.2733 18.0384 17.4324 17.8422 17.4324C17.6461 17.4324 17.4869 17.2733 17.4869 17.0772C17.4869 16.881 17.6461 16.7219 17.8422 16.7219ZM13.2232 13.1687C13.0271 13.1687 12.868 13.0096 12.868 12.8135C12.868 12.6173 13.0271 12.4582 13.2232 12.4582C13.4194 12.4582 13.5785 12.6173 13.5785 12.8135C13.5785 13.0096 13.4194 13.1687 13.2232 13.1687ZM15.3549 13.8793C15.1587 13.8793 14.9996 13.7202 14.9996 13.524C14.9996 13.3279 15.1587 13.1687 15.3549 13.1687C15.5511 13.1687 15.7102 13.3279 15.7102 13.524C15.7102 13.7202 15.5511 13.8793 15.3549 13.8793ZM16.7764 15.6561C16.5802 15.6561 16.4211 15.4969 16.4211 15.3008C16.4211 15.1046 16.5802 14.9451 16.7764 14.9451C16.9725 14.9451 17.1317 15.1046 17.1317 15.3008C17.1317 15.4969 16.9725 15.6561 16.7764 15.6561Z" fill="white"/>
</svg>
