<svg width="22" height="22" viewBox="0 0 22 22" fill="none" xmlns="http://www.w3.org/2000/svg">
    <path fill-rule="evenodd" clip-rule="evenodd" d="M17.375 8.48743L16.0155 8.45984L16.0851 7.06556L19.6057 7.16951L19.5021 10.745L18.1075 10.675L18.1494 9.64019L14.5997 13.4632L11.7431 10.6962L10.8444 11.5496L9.92594 10.5605L11.7435 8.79812L14.5789 11.5009L17.375 8.48743ZM17.6177 13.3993L16.2816 13.3449L16.3526 12.0005L19.8725 12.1041L19.769 15.6228H18.3736L18.4185 14.5222L14.5865 18.4934L7.25721 10.5866L4.38666 13.7667L3.33897 12.8585L7.25344 8.55207L14.5948 16.5163L17.6177 13.3993ZM17.406 19.7429V18.2311H18.7984V19.7429H21.3768V21.0907H0.423828V0.137695H1.77161V2.36043H2.88316V3.75282H1.77161V7.07276H2.88316V8.46513H1.77161V11.7409H2.88316V13.1329H1.77161V16.4532H2.88316V17.8452H1.77161V19.7429H3.31327V18.2311H4.70566V19.7429H8.02596V18.2311H9.41797V19.7429H12.6937V18.2311H14.0861V19.7429H17.406ZM3.37413 16.7862L7.85513 12.5108L8.81626 13.518L4.33564 17.7934L3.37413 16.7862Z" fill="white"/>
</svg>
