<svg width="20" height="16" viewBox="0 0 20 16" fill="none" xmlns="http://www.w3.org/2000/svg">
    <path d="M3.52626 2.40769L0.806774 15.0986L5.57449 13.5094C5.87642 13.4087 6.20596 13.4322 6.49062 13.5745L9.91056 15.2845C9.96686 15.3126 10.0331 15.3126 10.0894 15.2845L13.5094 13.5745C13.794 13.4322 14.1236 13.4087 14.4255 13.5094L19.1932 15.0986L16.4737 2.40769L13.0431 0.692373L10.5547 2.35131C10.2188 2.57524 9.7812 2.57524 9.4453 2.35131M3.52626 2.40769L9.4453 2.35131M3.52626 2.40769L6.95689 0.692373L9.4453 2.35131M3.52626 2.40769L9.77812 1.85208L9.4453 2.35131" stroke="white" stroke-width="1.2"/>
    <path d="M6.36426 13.3321L7.27335 0.887695" stroke="white" stroke-width="1.2"/>
    <path d="M13.6347 13.3321L12.7256 0.887695" stroke="white" stroke-width="1.2"/>
    <path d="M9.99902 2.66602V15.1105" stroke="white" stroke-width="1.2"/>
    <path d="M2.3457 8.61816C3.29583 6.76042 4.86578 6.09335 5.90914 6.84014C6.90712 7.55446 7.72732 10.3957 9.5455 9.9515C11.3637 9.50728 11.5599 7.16305 13.1821 6.39652C14.5544 5.74806 16.2542 7.13377 17.2729 6.84031" stroke="white" stroke-width="1.2" stroke-linecap="round" stroke-dasharray="2 2"/>
</svg>
