<svg width="20" height="21" viewBox="0 0 20 21" fill="none" xmlns="http://www.w3.org/2000/svg">
    <path fill-rule="evenodd" clip-rule="evenodd" d="M8.2072 7.81055H6.77514C6.69426 7.81055 6.63379 7.89143 6.63379 7.97193V12.6714C6.63379 12.7723 6.69426 12.8328 6.77514 12.8328H8.2072C8.28771 12.8328 8.34818 12.7519 8.34818 12.6714V7.99235C8.34818 7.89144 8.28771 7.81055 8.2072 7.81055Z" fill="white"/>
    <path fill-rule="evenodd" clip-rule="evenodd" d="M8.71187 0.893555C4.07287 0.893555 0.28125 4.66513 0.28125 9.32415C0.28125 13.9628 4.05284 17.7544 8.71187 17.7544C10.2244 17.7544 11.717 17.3307 13.0277 16.5442L13.411 16.3023L17.384 20.2753C17.6263 20.5176 17.9286 20.6385 18.2714 20.6385C18.6142 20.6385 18.917 20.5176 19.1589 20.2753C19.4011 20.0334 19.5221 19.7307 19.5221 19.3879C19.5221 19.0451 19.3807 18.7427 19.1589 18.5005L15.3068 14.6079L15.69 14.0232C16.6379 12.6316 17.1421 10.9981 17.1421 9.30374C17.1421 4.66512 13.3505 0.893555 8.71187 0.893555ZM8.71187 15.6367C5.2226 15.6367 2.3789 12.793 2.3789 9.30374C2.3789 5.81486 5.2226 2.97114 8.71187 2.97114C12.2007 2.97114 15.0445 5.81486 15.0445 9.30374C15.0445 12.793 12.2007 15.6367 8.71187 15.6367Z" fill="white"/>
    <path fill-rule="evenodd" clip-rule="evenodd" d="M10.5867 9.30469H9.15502C9.07414 9.30469 9.01367 9.38557 9.01367 9.46607V12.673C9.01367 12.7739 9.07414 12.8344 9.15502 12.8344H10.5867C10.6676 12.8344 10.7281 12.7535 10.7281 12.673V9.46607C10.7281 9.38557 10.6472 9.30469 10.5867 9.30469Z" fill="white"/>
    <path fill-rule="evenodd" clip-rule="evenodd" d="M5.90702 10.1318H4.47534C4.39445 10.1318 4.33398 10.1923 4.33398 10.2528V12.7133C4.33398 12.7941 4.39445 12.8346 4.47534 12.8346H5.90702C5.9879 12.8346 6.04838 12.7741 6.04838 12.7133V10.2732C6.04838 10.1923 5.9879 10.1318 5.90702 10.1318Z" fill="white"/>
    <path fill-rule="evenodd" clip-rule="evenodd" d="M12.9465 6.09766H11.5144C11.4339 6.09766 11.373 6.17814 11.373 6.25902V12.6725C11.373 12.7734 11.4339 12.8339 11.5144 12.8339H12.9465C13.027 12.8339 13.0874 12.753 13.0874 12.6725V6.27907C13.0874 6.17815 13.027 6.09766 12.9465 6.09766Z" fill="white"/>
</svg>
