<svg width="23" height="26" viewBox="0 0 23 26" fill="none" xmlns="http://www.w3.org/2000/svg">
    <path fill-rule="evenodd" clip-rule="evenodd" d="M13.1022 12.4325C13.3445 12.1903 13.3176 11.7862 13.075 11.5712C12.8327 11.3289 12.4291 11.3558 12.2136 11.598L11.0291 12.8634L10.5446 12.3516C10.3024 12.1094 9.92558 12.0825 9.68332 12.3248C9.44068 12.5671 9.41383 12.9439 9.6561 13.1862L10.5983 14.1824C10.706 14.317 10.8678 14.3707 11.056 14.3707C11.2178 14.3707 11.3792 14.2901 11.5137 14.1824L13.1022 12.4325Z" fill="white"/>
    <path fill-rule="evenodd" clip-rule="evenodd" d="M9.92731 19.2695C9.92731 19.5386 10.1423 19.7272 10.385 19.7272H12.404C12.6731 19.7272 12.8617 19.5117 12.8617 19.2695V18.2195C13.2922 18.085 13.7231 17.9236 14.0999 17.7082L14.8539 18.4618C15.0421 18.6504 15.3384 18.6504 15.4998 18.4618L16.9266 17.035C17.1152 16.8468 17.1152 16.5505 16.9266 16.3891L16.173 15.6351C16.3884 15.2583 16.5766 14.8274 16.6843 14.3969H17.7343C18.0034 14.3969 18.192 14.1815 18.192 13.9392V11.9202C18.192 11.6507 17.9765 11.4625 17.7343 11.4625H16.6843C16.5498 11.0316 16.3884 10.6008 16.173 10.2239L16.9266 9.47029C17.1152 9.2817 17.1152 8.98575 16.9266 8.82399L15.4998 7.39723C15.3112 7.20863 15.0153 7.20863 14.8539 7.39723L14.0999 8.15085C13.7231 7.9358 13.2922 7.74721 12.8617 7.63949V6.58954C12.8617 6.32043 12.6463 6.13184 12.404 6.13184H10.385C10.1155 6.13184 9.92731 6.34727 9.92731 6.58954V7.63949C9.49645 7.77405 9.06559 7.9358 8.68877 8.15085L7.93513 7.39723C7.74653 7.20863 7.45019 7.20863 7.2888 7.39723L5.86207 8.82399C5.67347 9.01259 5.67347 9.30853 5.86207 9.47029L6.61571 10.2239C6.40066 10.6008 6.21205 11.0316 6.10433 11.4625H5.05436C4.78525 11.4625 4.59668 11.6775 4.59668 11.9202V13.9392C4.59668 14.2083 4.81209 14.3969 5.05436 14.3969H6.10433C6.23888 14.8274 6.40066 15.2583 6.61571 15.6351L5.86207 16.3891C5.67347 16.5773 5.67347 16.8736 5.86207 17.035L7.2888 18.4618C7.4774 18.6504 7.77337 18.6504 7.93513 18.4618L8.68877 17.7082C9.06559 17.9236 9.49645 18.1118 9.92731 18.2195V19.2695ZM8.04286 12.8893C8.04286 11.0316 9.55009 9.5508 11.3809 9.5508C13.2385 9.5508 14.719 11.0585 14.719 12.8893C14.719 14.7197 13.2385 16.2273 11.3809 16.2273C9.55009 16.2273 8.04286 14.7469 8.04286 12.8893Z" fill="white"/>
    <path fill-rule="evenodd" clip-rule="evenodd" d="M1.55343 12.8891C1.55343 7.47796 5.96869 3.06271 11.3799 3.06271H11.4067L10.9222 3.54724C10.6531 3.81635 10.6531 4.22039 10.9222 4.48949C11.0567 4.62405 11.2185 4.67808 11.4067 4.67808C11.5685 4.67808 11.7567 4.62405 11.8912 4.48949L13.5334 2.84728C13.6684 2.71273 13.722 2.55135 13.722 2.36275C13.722 2.17415 13.6412 2.01275 13.5334 1.8782L11.8912 0.236006C11.6221 -0.0330958 11.2185 -0.0330958 10.949 0.236006C10.6799 0.505109 10.6799 0.909132 10.949 1.17823L11.4336 1.66279H11.4067C5.24191 1.74367 0.234375 6.75116 0.234375 12.8891C0.234375 16.0118 1.47293 18.8925 3.73423 21.0192C3.86878 21.127 4.03019 21.2078 4.19195 21.2078C4.38018 21.2078 4.54193 21.127 4.67649 20.9924C4.91875 20.7233 4.91874 20.2924 4.64963 20.0502C2.65744 18.1657 1.55343 15.6349 1.55343 12.8891Z" fill="white"/>
    <path fill-rule="evenodd" clip-rule="evenodd" d="M22.5242 12.89C22.5242 9.76694 21.2857 6.88655 19.0244 4.75981C18.7553 4.51716 18.3245 4.51718 18.0822 4.78666C17.8399 5.0826 17.8399 5.48661 18.109 5.75572C20.1012 7.61335 21.2052 10.171 21.2052 12.89C21.2052 18.3011 16.7899 22.7163 11.3788 22.7163C11.3788 22.7163 11.3788 22.7163 11.352 22.7163L11.8365 22.2314C12.1056 21.9623 12.1056 21.5587 11.8365 21.2892C11.5674 21.0201 11.1634 21.0201 10.8943 21.2892L9.25208 22.9314C9.11753 23.0663 9.06348 23.2277 9.06348 23.4163C9.06348 23.6045 9.14437 23.7663 9.25208 23.9009L10.8943 25.543C11.0288 25.6776 11.1902 25.7313 11.3788 25.7313C11.5402 25.7313 11.7288 25.6776 11.8633 25.543C12.1324 25.2736 12.1324 24.8699 11.8633 24.6008L11.3788 24.1163C11.3788 24.1163 11.3788 24.1163 11.4057 24.1163C17.5168 24.0354 22.5242 19.0279 22.5242 12.89Z" fill="white"/>
</svg>
