<svg width="12" height="8" viewBox="0 0 12 8" fill="none" xmlns="http://www.w3.org/2000/svg">
    <path d="M0.191781 6.92715L0.584341 7.32022C0.708432 7.44192 0.873166 7.50995 1.04915 7.50995C1.22513 7.50995 1.38983 7.44192 1.51355 7.32022L5.99736 2.86907L10.4868 7.32513C10.609 7.44532 10.7704 7.51336 10.943 7.51562H10.9513H10.9595C11.1317 7.51336 11.2942 7.44532 11.4153 7.32513L11.809 6.93432C11.9365 6.80733 12 6.64028 12 6.47322C12 6.30654 11.9365 6.13987 11.809 6.01326L6.46364 0.688656C6.3418 0.567334 6.18051 0.48229 6.0064 0.479645H5.99814H5.99626H5.98795C5.81498 0.48229 5.65328 0.567334 5.53145 0.688656L0.191781 5.99852C0.0695705 6.11871 0.00225639 6.28425 0 6.45584V6.46377V6.47209C0.00225639 6.64368 0.0695705 6.8062 0.191781 6.92715Z" fill="#FEFEFE"/>
</svg>
