<svg width="22" height="24" viewBox="0 0 22 24" fill="none" xmlns="http://www.w3.org/2000/svg">
    <mask id="mask0" mask-type="alpha" maskUnits="userSpaceOnUse" x="3" y="3" width="16" height="18">
        <path fill-rule="evenodd" clip-rule="evenodd" d="M14.009 14.4718H14.713L18.4915 18.7318C18.8568 19.1418 18.8568 19.8118 18.4915 20.2218C18.1261 20.6318 17.529 20.6318 17.1637 20.2218L13.3763 15.9718V15.1818L13.1357 14.9018C11.8881 16.1018 10.1861 16.7218 8.37704 16.3818C5.89967 15.9118 3.92134 13.5918 3.61836 10.7918C3.15496 6.56182 6.32742 3.00182 10.0969 3.52182C12.5921 3.86182 14.6596 6.08182 15.0784 8.86182C15.3814 10.8918 14.8289 12.8018 13.7595 14.2018L14.009 14.4718ZM5.35604 9.97182C5.35604 12.4618 7.14723 14.4718 9.36617 14.4718C11.5851 14.4718 13.3763 12.4618 13.3763 9.97182C13.3763 7.48182 11.5851 5.47182 9.36617 5.47182C7.14723 5.47182 5.35604 7.48182 5.35604 9.97182Z" fill="black"/>
    </mask>
    <g mask="url(#mask0)">
        <rect x="0.475586" width="21.3873" height="24" fill="white"/>
    </g>
</svg>