<svg width="23" height="23" viewBox="0 0 23 23" fill="none" xmlns="http://www.w3.org/2000/svg">
    <path d="M22.9092 11.009C22.9092 17.0899 17.9801 22.0192 11.8994 22.0192C5.81902 22.0192 0.890625 17.0899 0.890625 11.009C0.890625 4.92811 5.81902 0 11.8994 0C17.9801 0 22.9092 4.92811 22.9092 11.009Z" fill="#2E50E9" fill-opacity="0.301961"/>
    <path d="M20.3374 11.0062C20.3374 15.666 16.5602 19.4429 11.9009 19.4429C7.24165 19.4429 3.46484 15.666 3.46484 11.0062C3.46484 6.34683 7.24165 2.57031 11.9009 2.57031C16.5602 2.57031 20.3374 6.34683 20.3374 11.0062Z" fill="#2E50E9"/>
    <path fill-rule="evenodd" clip-rule="evenodd" d="M14.2717 7.1543L14.123 9.83887L14.808 9.5101L14.6774 7.1543H14.2717Z" fill="white"/>
    <path fill-rule="evenodd" clip-rule="evenodd" d="M15.8107 7.1543L15.7041 9.08038L16.3077 8.7912L16.217 7.1543H15.8107Z" fill="white"/>
    <path fill-rule="evenodd" clip-rule="evenodd" d="M8.43262 13.1277H15.3694L15.369 12.7422H8.43262V13.1277Z" fill="white"/>
    <path fill-rule="evenodd" clip-rule="evenodd" d="M17.5569 8.62305L13.988 10.3306C13.9857 10.3306 13.9839 10.3329 13.9812 10.334L13.6357 10.4992L13.6788 10.8155H15.9299L17.5565 9.00855L17.5569 8.62305Z" fill="white"/>
    <path fill-rule="evenodd" clip-rule="evenodd" d="M16.1372 12.3552V11.199H13.4152L13.1484 9.24387C13.2164 9.20645 13.2542 9.13116 13.244 9.05406C13.2334 8.97734 13.1767 8.91505 13.1011 8.89729L12.8597 7.12655C12.8468 7.03093 12.7652 6.95981 12.6688 6.95981V6.57475C12.6688 6.36159 12.4964 6.18923 12.2837 6.18923H12.0909V5.99647C12.0909 5.89027 12.0044 5.80371 11.8982 5.80371C11.792 5.80371 11.7054 5.89027 11.7054 5.99647V6.18923H11.5126C11.2999 6.18923 11.1276 6.36159 11.1276 6.57475V6.95981C11.0312 6.95981 10.9495 7.03093 10.9367 7.12655L10.6952 8.89609C10.6196 8.91385 10.5629 8.97622 10.5523 9.05332C10.5418 9.13005 10.5799 9.20562 10.6479 9.24304L10.3811 11.199H7.65918V12.3552H16.1372ZM12.6601 8.51518L12.1816 8.10502L12.5531 7.73279L12.6601 8.51518ZM12.589 9.2722L12.0909 9.77029V9.2722H12.589ZM12.0909 8.88668V8.53484L12.5017 8.88668H12.0909ZM12.3963 7.34533L12.0909 7.65076V7.34616L12.3963 7.34533ZM11.5126 6.57475H12.2837V6.95981H11.5126V6.57475ZM11.2432 7.73279L11.6151 8.10502L11.1366 8.51518L11.2432 7.73279ZM10.9888 9.59802L11.6151 10.2246L10.8093 10.9155L10.9888 9.59802ZM8.42978 11.9696H8.23744C8.13086 11.9696 8.04469 11.8835 8.04469 11.7769C8.04469 11.6707 8.13086 11.5841 8.23744 11.5841H8.42978C8.53636 11.5841 8.62253 11.6707 8.62253 11.7769C8.62253 11.8835 8.53636 11.9696 8.42978 11.9696ZM10.9348 11.9696H9.2008C9.09422 11.9696 9.00804 11.8835 9.00804 11.7769C9.00804 11.6707 9.09422 11.5841 9.2008 11.5841H10.9348C11.0414 11.5841 11.1276 11.6707 11.1276 11.7769C11.1276 11.8835 11.0414 11.9696 10.9348 11.9696ZM11.7054 11.199H11.0697L11.7054 10.6544V11.199ZM11.7054 9.77029L11.2073 9.2722H11.7054V9.77029ZM11.7054 8.88668H11.2946L11.7054 8.53484V8.88668ZM11.7054 7.65076L11.4027 7.34801H11.7054V7.65076ZM12.0909 11.199V10.6544L12.7266 11.199H12.0909ZM12.1816 10.2246L12.8079 9.59802L12.9874 10.9155L12.1816 10.2246Z" fill="white"/>
    <path fill-rule="evenodd" clip-rule="evenodd" d="M9.77857 10.8154V8.88867H7.65918V10.8154H9.77857ZM9.20074 9.65931C9.20074 9.55311 9.28692 9.46656 9.39349 9.46656C9.49969 9.46656 9.58587 9.55311 9.58587 9.65931V9.85207C9.58587 9.95865 9.49969 10.0448 9.39349 10.0448C9.28692 10.0448 9.20074 9.95865 9.20074 9.85207V9.65931ZM8.6225 9.65931C8.6225 9.55311 8.70905 9.46656 8.81525 9.46656C8.92182 9.46656 9.008 9.55311 9.008 9.65931V9.85207C9.008 9.95865 8.92182 10.0448 8.81525 10.0448C8.70905 10.0448 8.6225 9.95865 8.6225 9.85207V9.65931ZM8.04467 9.65931C8.04467 9.55311 8.13085 9.46656 8.23742 9.46656C8.34362 9.46656 8.42975 9.55311 8.42975 9.65931V9.85207C8.42975 9.95865 8.34362 10.0448 8.23742 10.0448C8.13085 10.0448 8.04467 9.95865 8.04467 9.85207V9.65931Z" fill="white"/>
    <path fill-rule="evenodd" clip-rule="evenodd" d="M9.78281 7.92285H6.51367L7.522 8.50079H9.78281V7.92285Z" fill="white"/>
    <path fill-rule="evenodd" clip-rule="evenodd" d="M17.4899 15.4376C17.285 15.4395 17.0908 15.5295 16.9562 15.6844C16.8602 15.7781 16.8073 15.8231 16.6905 15.8231C16.5737 15.8231 16.5215 15.7781 16.4244 15.6844C16.2914 15.5279 16.0964 15.4376 15.8912 15.4376C15.6856 15.4376 15.4909 15.5279 15.3579 15.6844C15.2615 15.7781 15.209 15.8231 15.0922 15.8231C15.0253 15.825 14.9599 15.8019 14.9093 15.758C14.9327 15.7762 14.958 15.7909 14.9852 15.8022V13.5107H14.407V14.089C14.407 14.1952 14.3208 14.2814 14.2142 14.2814C14.108 14.2814 14.0218 14.1952 14.0218 14.089V13.5107H13.6363V15.7883C13.5936 15.8129 13.5449 15.825 13.4958 15.8231C13.3801 15.8231 13.3272 15.7781 13.2304 15.6844C13.0974 15.5279 12.9024 15.4376 12.6972 15.4376C12.4919 15.4376 12.2969 15.5279 12.1642 15.6844C12.0679 15.7781 12.0153 15.8231 11.8989 15.8231C11.7821 15.8231 11.7304 15.7781 11.6333 15.6844C11.5006 15.5279 11.3056 15.4376 11.1003 15.4376C10.8951 15.4376 10.7005 15.5279 10.5678 15.6844C10.4714 15.7781 10.4189 15.8231 10.3025 15.8231C10.2556 15.8246 10.2091 15.8137 10.1676 15.791V13.5107H9.59009V14.8597C9.59009 14.9659 9.50391 15.0524 9.39771 15.0524C9.29113 15.0524 9.20495 14.9659 9.20495 14.8597V13.5107H8.81944V15.8C8.78392 15.8155 8.74537 15.8235 8.70682 15.8231C8.59117 15.8231 8.53862 15.7781 8.44187 15.6844C8.30921 15.5279 8.11459 15.4376 7.90937 15.4376C7.70414 15.4376 7.50911 15.5279 7.37645 15.6844C7.28008 15.7781 7.2279 15.8231 7.1115 15.8231C6.99509 15.8231 6.94371 15.7781 6.84695 15.6844C6.71354 15.5295 6.51929 15.4395 6.31483 15.4376C6.20825 15.4376 6.12207 15.5241 6.12207 15.6303C6.12207 15.7369 6.20825 15.8231 6.31483 15.8231C6.43048 15.8231 6.48261 15.8681 6.57937 15.9614C6.71278 16.1168 6.90703 16.2067 7.1115 16.2086C7.31634 16.2067 7.51025 16.1168 7.64404 15.9614C7.74042 15.8681 7.79259 15.8231 7.909 15.8231C8.02541 15.8231 8.07716 15.8681 8.17391 15.9614C8.30657 16.1183 8.5016 16.2082 8.70682 16.2082C8.91205 16.2082 9.1067 16.1183 9.23974 15.9614C9.33574 15.8681 9.38824 15.8231 9.50465 15.8231C9.62106 15.8231 9.67285 15.8681 9.76961 15.9614C9.90227 16.1183 10.0973 16.2082 10.3025 16.2082C10.5073 16.2082 10.7024 16.1183 10.835 15.9614C10.9314 15.8681 10.9839 15.8231 11.1003 15.8231C11.2168 15.8231 11.2685 15.8681 11.3657 15.9614C11.4987 16.1183 11.6933 16.2082 11.8985 16.2082C12.1038 16.2082 12.2988 16.1183 12.4315 15.9614C12.5278 15.8681 12.5808 15.8231 12.6968 15.8231C12.8132 15.8231 12.8653 15.8681 12.9625 15.9614C13.0951 16.1183 13.2901 16.2082 13.4953 16.2082C13.7006 16.2082 13.8956 16.1183 14.0283 15.9614C14.1246 15.8681 14.1772 15.8231 14.2936 15.8231C14.4104 15.8231 14.4618 15.8681 14.5589 15.9614C14.6916 16.1183 14.8866 16.2082 15.0918 16.2082C15.2974 16.2082 15.492 16.1183 15.6251 15.9614C15.7214 15.8677 15.774 15.8227 15.8908 15.8227C16.0075 15.8227 16.0597 15.8681 16.1569 15.9614C16.2899 16.1179 16.4849 16.2082 16.6901 16.2082C16.8957 16.2082 17.0908 16.1179 17.2238 15.9614C17.3209 15.8681 17.3727 15.8227 17.4899 15.8227C17.5961 15.8227 17.6826 15.7365 17.6826 15.6303C17.6826 15.5238 17.5961 15.4376 17.4899 15.4376Z" fill="white"/>
</svg>
