<svg width="31" height="10" viewBox="0 0 31 10" fill="none" xmlns="http://www.w3.org/2000/svg">
    <path fill-rule="evenodd" clip-rule="evenodd" d="M5.27725 0.37207H26.1801C28.5797 0.37207 30.5424 2.33477 30.5424 4.73476V5.28056C30.5424 7.6798 28.5797 9.64288 26.1801 9.64288H5.27725C2.87769 9.64288 0.915039 7.6798 0.915039 5.28056V4.73476C0.915039 2.33477 2.87769 0.37207 5.27725 0.37207Z" fill="#9EA4C9" fill-opacity="0.301961"/>
    <path fill-rule="evenodd" clip-rule="evenodd" d="M6.06245 1.90723H25.3885C26.9929 1.90723 28.3055 3.21988 28.3055 4.8243V5.18906C28.3055 6.79387 26.9929 8.10651 25.3885 8.10651H6.06245C4.45809 8.10651 3.14551 6.79387 3.14551 5.18906V4.8243C3.14551 3.21988 4.45809 1.90723 6.06245 1.90723Z" fill="#9EA4C9"/>
</svg>
