<svg width="23" height="23" viewBox="0 0 23 23" fill="none" xmlns="http://www.w3.org/2000/svg">
    <path d="M22.2051 11.009C22.2051 17.0899 17.2759 22.0192 11.1952 22.0192C5.11448 22.0192 0.186523 17.0899 0.186523 11.009C0.186523 4.92811 5.11448 0 11.1952 0C17.2759 0 22.2051 4.92811 22.2051 11.009Z" fill="#2E50E9" fill-opacity="0.301961"/>
    <path d="M19.628 11.0062C19.628 15.666 15.8512 19.4429 11.1915 19.4429C6.53222 19.4429 2.75586 15.666 2.75586 11.0062C2.75586 6.34683 6.53222 2.57031 11.1915 2.57031C15.8512 2.57031 19.628 6.34683 19.628 11.0062Z" fill="#2E50E9"/>
    <path fill-rule="evenodd" clip-rule="evenodd" d="M8.81482 13.9901C8.98073 13.9901 9.11108 13.8597 9.11108 13.6938C9.11108 13.605 8.98677 13.3442 8.81482 13.0596C8.64287 13.3442 8.51855 13.605 8.51855 13.6938C8.51855 13.8597 8.64891 13.9901 8.81482 13.9901Z" fill="white"/>
    <path fill-rule="evenodd" clip-rule="evenodd" d="M9.70076 10.5595V9.24998H9.10809V6.54378C9.10809 6.3805 9.24073 6.24749 9.40438 6.24749H11.1819C11.3456 6.24749 11.4782 6.3805 11.4782 6.54378V6.86996C10.8024 7.00754 10.293 7.60548 10.293 8.32171V10.7966C11.2651 11.2943 11.9522 12.2599 12.0588 13.3976C12.0648 13.4925 12.0709 13.5931 12.0709 13.694V13.3976C12.0709 13.2785 12.0709 6.15789 12.0709 6.54378C12.0709 6.05395 11.6721 5.65527 11.1819 5.65527H9.40438C8.91418 5.65527 8.51552 6.05395 8.51552 6.54378V9.24998H7.92285V10.5595C8.20745 10.4764 8.50378 10.4349 8.81181 10.4349C9.11983 10.4349 9.41617 10.4764 9.70076 10.5595Z" fill="white"/>
    <path fill-rule="evenodd" clip-rule="evenodd" d="M15.6497 7.17766V13.9922H15.0571V6.28906H14.4645V6.88174H13.2596V6.28906H12.6673V13.9922H11.4504C11.4613 13.8935 11.4821 13.7964 11.4821 13.6959C11.4821 12.2264 10.2852 11.0294 8.81577 11.0294C7.34633 11.0294 6.14941 12.2264 6.14941 13.6959C6.14941 14.2296 6.31948 14.7409 6.61049 15.1771H6.14941V15.7697H6.30923C6.45851 15.7697 12.2108 15.7697 12.0748 15.7697V15.1771H11.021C11.1443 14.9926 11.2395 14.7934 11.3139 14.5848H12.6673V15.7697H15.0571V14.5848H15.6497V15.7697H16.2419V8.36292C16.2419 7.87687 16.011 7.45054 15.6497 7.17766ZM8.57273 12.3446L8.81577 11.9894L9.05881 12.3446C9.25421 12.6232 9.70471 13.3168 9.70471 13.6959C9.70471 14.1876 9.30747 14.5848 8.81577 14.5848C8.32407 14.5848 7.92683 14.1876 7.92683 13.6959C7.92683 13.3168 8.37733 12.6232 8.57273 12.3446ZM14.4645 15.1771H13.2596V14.5848H14.4645V15.1771ZM14.4645 13.9922H13.2596V13.3995H14.4645V13.9922ZM14.4645 12.8069H13.2596V12.2146H14.4645V12.8069ZM14.4645 11.622H13.2596V11.0294H14.4645V11.622ZM14.4645 10.4368H13.2596V9.8441H14.4645V10.4368ZM14.4645 9.25189H13.2596V8.65921H14.4645V9.25189ZM14.4645 8.06663H13.2596V7.47395H14.4645V8.06663Z" fill="white"/>
</svg>
