<svg width="23" height="23" viewBox="0 0 23 23" fill="none" xmlns="http://www.w3.org/2000/svg">
    <path d="M22.5987 11.009C22.5987 17.0899 17.6695 22.0192 11.5888 22.0192C5.50847 22.0192 0.580078 17.0899 0.580078 11.009C0.580078 4.92811 5.50847 0 11.5888 0C17.6695 0 22.5987 4.92811 22.5987 11.009Z" fill="#2E50E9" fill-opacity="0.301961"/>
    <path d="M20.0278 11.0062C20.0278 15.666 16.2507 19.4429 11.591 19.4429C6.93171 19.4429 3.15527 15.666 3.15527 11.0062C3.15527 6.34683 6.93171 2.57031 11.591 2.57031C16.2507 2.57031 20.0278 6.34683 20.0278 11.0062Z" fill="#2E50E9"/>
    <path fill-rule="evenodd" clip-rule="evenodd" d="M16.2313 14.8027H15.7328V12.5969C15.7328 12.5395 15.678 12.4919 15.6119 12.4919H15.0502V10.807L15.1092 10.8278C15.1402 10.8387 15.1716 10.8444 15.2018 10.8444C15.2959 10.8444 15.3866 10.7953 15.4248 10.714L15.7683 9.99104C15.7921 9.93888 15.7921 9.88105 15.7683 9.83002C15.7441 9.77862 15.6966 9.73705 15.6372 9.71588L10.4238 7.83285C10.6147 7.51499 10.7859 7.19268 10.9326 6.87293C10.9829 6.76521 10.9235 6.64382 10.8018 6.59998L8.74276 5.85579C8.6203 5.81195 8.4801 5.86153 8.42719 5.96735C7.91772 7.00975 7.58851 8.17043 7.39274 9.62139C7.38064 9.71513 7.44074 9.80465 7.54014 9.84017L8.42341 10.1595C8.52318 10.1954 8.63771 10.1694 8.7046 10.0953C9.08784 9.672 9.41813 9.27401 9.71557 8.87905L10.7564 9.2559L10.7054 9.56501L10.5501 10.5039L9.83917 14.8027H8.17395H6.94679C6.81413 14.8027 6.70605 14.8972 6.70605 15.0136V15.9695C6.70605 16.0851 6.81413 16.1796 6.94679 16.1796H16.2313C16.3632 16.1796 16.4713 16.0851 16.4713 15.9695V15.0136C16.4713 14.8972 16.3632 14.8027 16.2313 14.8027ZM14.5684 12.4919H14.0079C13.9406 12.4919 13.8858 12.5395 13.8858 12.5969V14.8027H13.3386L12.6273 10.5039L12.5268 9.89498L14.5684 10.6323V12.4919ZM12.1862 11.0667L11.3389 10.5152L12.0127 10.0178L12.1862 11.0667ZM11.9035 11.4582L10.8286 12.055L11.0214 10.8849L11.9035 11.4582ZM12.3049 11.7829L12.5642 13.348L11.1684 12.4133L12.3049 11.7829ZM11.2701 14.8027L12.6594 13.9251L12.8049 14.8027H11.2701ZM11.744 9.61263L11.162 10.0416L11.2614 9.43731L11.744 9.61263ZM10.7221 12.6957L12.1684 13.6647L10.3747 14.7993L10.7221 12.6957Z" fill="#FEFEFE"/>
</svg>
