<svg width="801" height="500" viewBox="0 0 801 500" fill="none" xmlns="http://www.w3.org/2000/svg">
    <path fill-rule="evenodd" clip-rule="evenodd" d="M102.574 215.911C102.812 216.393 102.605 216.987 102.62 217.525C103.238 217.983 106.838 219.946 107.453 219.946C107.465 219.98 107.48 219.995 107.5 219.995C107.835 219.995 109.328 215.713 109.387 215.533H109.762C110.856 215.888 114.069 216.645 114.759 217.202C116.012 218.214 116.808 218.709 117.373 218.709C118.265 218.709 118.569 217.476 119.162 215.104L120.182 211.016C120.572 209.46 119.27 208.878 119.27 207.627C123.087 206.334 121.045 202.844 121.045 200.686C121.045 194.995 125.593 199.876 126.736 195.253C127.478 193.48 129.381 189.968 130.818 189.067C130.846 189.049 130.87 189.042 130.895 189.042C131.455 189.042 131.251 193.434 131.517 194.123C131.743 194.714 132.008 194.963 132.299 194.963C133.772 194.963 135.821 188.454 136.027 187.829C136.844 185.365 140.2 188.178 141.238 183.956C142.239 183.956 141.952 184.06 142.203 185.087C143.722 185.087 143.497 187.27 144.251 187.27C144.546 187.27 144.991 186.933 145.749 186.001C146.397 185.203 147.401 180.163 149.076 180.163C149.148 180.163 149.219 180.17 149.293 180.19C149.813 180.323 149.531 181.883 149.886 182.397C149.939 182.471 150.017 182.507 150.115 182.507C151.011 182.507 153.602 179.68 154.237 179.168C155.278 178.329 156.23 178.014 157.137 178.014C159.128 178.014 160.927 179.517 163.099 180.298C163.388 180.402 163.708 180.447 164.053 180.447C165.493 180.447 167.392 179.65 169.434 178.849C171.478 178.05 173.665 177.251 175.68 177.251C176.599 177.251 177.48 177.416 178.3 177.822C180.493 178.915 182.524 178.46 181.306 181.213C180.399 183.266 180.526 183.815 181.176 183.815C181.922 183.815 183.349 183.096 184.69 183.096C189.556 183.569 187.259 187.133 189.74 189.014C190.989 185.18 193.456 185.404 196.721 185.195C196.795 185.19 196.869 185.187 196.945 185.187C198.418 185.187 200.22 186.07 202.073 186.953C203.926 187.837 205.83 188.722 207.505 188.722C208.263 188.722 208.974 188.542 209.61 188.099C211.833 186.557 212.732 184.647 214.875 184.647C215.654 184.647 216.599 184.902 217.828 185.518C220.638 186.921 220.227 187.884 224.168 187.884C227.643 187.884 225.859 193.663 229.301 193.663C229.648 193.663 230.045 193.605 230.505 193.477C231.511 193.197 232.452 193.054 233.283 193.054C236.304 193.054 237.883 194.966 236.037 199.233C234.978 200.497 236.414 202.888 236.414 204.345C236.414 205.5 234.348 208.966 233.262 210.989L233.264 210.989C233.051 211.385 232.874 211.727 232.76 211.983C231.853 214.025 230.091 214.395 229.86 217.202C229.778 218.187 229.495 220.178 229.753 221.183C230.419 223.781 227.994 222.997 227.122 225.271C226.312 227.379 223.59 226.5 224.491 230.167C228.298 230.167 228.448 228.449 232.599 230.543C233.117 230.804 235.297 232.293 235.392 231.136C235.536 229.376 234.662 229.294 236.145 228.553C236.17 228.607 240.171 227.95 239.206 229.144C238.859 229.571 236.201 235.081 236.359 235.492C237.964 239.674 235.577 237.699 234.964 240.819C233.169 242.959 236.167 247.327 234.802 250.072C234.379 250.922 232.405 251.724 231.686 250.824C230.701 249.586 231.112 248.584 230.665 247.22C230.358 247.427 229.188 246.71 229.107 246.467C228.716 246.729 225.939 248.359 225.939 248.886C225.939 249.707 228.01 256.145 226.53 256.581C224.846 257.076 224.948 255.38 224.007 254.213C223.612 253.725 221.688 252.584 220.998 252.06C220.671 253.065 216.312 255.079 216.754 256.311C217.01 257.019 218.373 259.861 217.022 259.861C216.155 259.861 213.903 259.475 213.209 259.054C212.468 259.205 207.691 260.726 207.033 260.238C205.468 261.409 190.46 259.3 189.848 257.441C189.738 257.441 185.807 262.611 183.67 263.305C181.097 264.139 177.322 261.855 176.794 262.713C175.795 264.334 174.589 266.37 173.251 267.823C170.555 270.747 170.027 271.424 170.027 275.623C172.15 278.286 164.695 281.177 163.153 282.296C159.698 284.796 161.036 290.148 156.708 290.148L156.652 290.201C156.652 293.106 162.686 290.254 164.924 293.376C165.862 294.684 166.789 294.17 167.933 294.614C173.052 296.601 167.798 304.106 175.775 303.544C177.527 303.419 186.153 306.026 182.435 307.901C181.673 308.285 178.292 308.479 177.976 307.525L177.815 307.472C176.018 307.472 174.891 308.946 174.377 306.34C172.092 305.779 172.085 307.138 170.027 308.17C168.302 309.035 166.248 308.432 165.03 309.084C162.176 307.865 162.404 305.85 159.392 304.621C157.081 303.677 155.938 300.217 153.322 301.607C150.525 303.094 150.291 302.294 147.523 301.931C144.695 301.559 141.308 301.444 138.606 300.747C134.348 299.646 135.259 305.748 132.751 305.748C132.751 306.754 132.884 308.294 133.127 309.352C134.111 314.444 133.262 316.586 139.035 317.96C144.752 319.323 152.475 318.884 155.631 324.631C157.123 327.345 155.972 330.497 156.975 332.969C157.344 333.881 159.244 333.741 160.145 334.744C161.299 336.037 161.284 337.788 161.487 339.426C162.669 343.505 163.466 346.439 165.676 350.184C166.303 351.244 166.884 354.161 167.662 354.704C168.048 354.972 170.742 355.563 170.778 355.672H170.887C171.302 356.944 174.217 359.575 174.217 361.428C173.703 361.599 172.021 372.329 172.605 373.102C172.302 373.501 171.684 376.847 171.637 377.404C171.481 379.331 177.357 377.336 178.997 377.083C181.738 376.656 184.339 376.642 186.516 377.352C186.516 378.317 186.193 379.05 186.193 380.042C186.227 381.151 191.24 386.632 192.263 388.165C193.305 389.729 194.282 393.975 195.754 393.975C202.264 393.975 203.68 389.205 208.86 395.911C209.196 396.346 216.323 392.289 219.44 395.049C223.147 398.336 227.122 398.845 227.122 404.571C227.122 412.388 221.796 400.994 219.923 400.376C219.923 403.136 224.597 406.613 224.597 410.058C224.597 415.19 221.65 418.173 220.084 422.862C216.392 425.676 213.549 428.536 215.574 433.082C215.997 434.034 215.169 435.19 215.574 436.311C216.293 438.313 217.449 437.908 217.292 440.506C217.251 441.214 217.357 444.814 216.54 445.079C216.54 446.768 215.554 447.431 215.894 448.291C229.629 455.832 253.051 565.707 250.723 570.736C250.591 571.021 250.462 571.309 250.332 571.599H106.886C95.8651 559.719 83.2411 478.911 75.7405 468.164C45.4176 424.712 9.41027 387.456 37.9902 334.997C22.8475 337.946 25.8133 339.952 15.1851 328.773C-15.2296 296.79 6.22592 308.018 25.8743 266.444C31.8249 253.851 28.4774 262.061 41.1516 262.902C47.6272 263.332 53.8664 260.323 59.685 251.213C70.0466 249.176 67.2081 228.986 79.5525 229.399C87.2976 229.658 92.8049 223.653 97.0285 214.051L102.574 215.911ZM234.97 211.825L237.595 213.113L245.007 212.2L237.596 213.114L234.97 211.825ZM232.385 243.939C232.385 243.315 232.491 242.673 232.491 242.054L232.117 241.893C232.069 241.753 231.144 241.625 230.935 241.572C229.918 241.311 228.958 241.988 228.41 242.753C228.046 243.264 228.608 244.151 229.163 244.261L230.559 246.088C232.015 246.987 232.058 246.552 233.083 245.23L232.385 243.939Z" fill="#2D40A8" fill-opacity="0.34902"/>
    <path d="M573.235 124.081L549.279 125.91L535.853 159.049L521.139 158.941L514.8 157.004L513.294 176.155L502.124 177.77L492.671 187.884L465.385 226.078L454.751 230.704L450.827 237.158C451.535 236.449 452.404 237.076 453.243 236.138C455.14 234.008 455.242 232.241 458.026 232.241C458.209 232.241 458.406 232.248 458.616 232.264C458.727 232.273 458.84 232.277 458.953 232.277C460.016 232.277 461.023 231.908 461.984 231.539C462.944 231.17 463.86 230.801 464.735 230.801C465.008 230.801 465.276 230.836 465.543 230.919C466.309 231.157 466.937 231.297 467.509 231.297C468.486 231.297 469.303 230.893 470.376 229.897C471.403 228.947 472.023 228.559 472.35 228.559C473.643 228.559 470.427 234.549 469.679 235.815C468.967 237.021 468.275 237.356 467.635 237.356C467.235 237.356 466.854 237.227 466.497 237.095C466.141 236.966 465.807 236.835 465.508 236.835C465.124 236.835 464.792 237.049 464.523 237.751C464.145 238.738 464.265 240.027 463.716 240.926C463.64 241.052 463.552 241.105 463.455 241.105C463.223 241.105 462.936 240.803 462.601 240.501C462.266 240.198 461.882 239.897 461.456 239.897C461.11 239.897 460.734 240.097 460.333 240.656C458.766 242.845 460.226 246.332 458.239 248.779C456.715 250.656 454.941 252.106 452.867 253.407C452.626 253.57 452.415 253.781 452.228 254.022C448.46 260.09 457.944 265.313 479.057 269.793C479.176 268.832 479.155 267.969 478.701 267.339C476.564 264.361 481.774 262.864 482.732 260.937C483.3 259.792 482.897 256.468 481.13 256.468C481.091 256.468 481.052 256.469 481.011 256.472C478.945 256.643 479.172 262.608 477.391 262.608C477.362 262.608 477.335 262.608 477.306 262.604C474.959 262.366 475.588 255.063 476.448 253.729C476.32 253.04 476.016 252.063 476.016 251.416L475.534 251.147C475.387 251.255 475.224 251.302 475.053 251.302C474.372 251.302 473.589 250.559 473.44 250.017C473.251 249.34 475.676 244.681 476.244 244.681C476.26 244.681 476.274 244.684 476.285 244.691C477.224 245.21 477.819 245.439 478.257 245.439C479.186 245.439 479.433 244.422 480.797 242.969C481.856 241.842 482.439 241.279 482.929 241.279C483.395 241.279 483.772 241.79 484.397 242.808C484.575 243.1 484.79 243.191 485.021 243.191C485.206 243.191 485.403 243.132 485.598 243.073C485.795 243.016 485.99 242.957 486.174 242.957C486.524 242.957 486.832 243.168 487.028 243.992C487.678 246.739 485.318 249.6 487.941 252.222C490.798 255.08 496.32 251.477 496.32 257.28C496.32 259.484 496.857 261.562 496.857 263.734C496.857 266.103 495.568 268.031 495.568 270.566C497.112 274.697 503.93 278.071 504.045 281.696L540.037 315.329L541.437 322.802L573.557 360.029L592.14 358.954L621.359 352.175L648.108 355.726L668.302 356.693L683.124 348.085L686.133 348.732L692.902 360.781L706.114 369.711L717.177 393.058L727.491 388.863L726.823 415.866L788.291 372.186C787.453 371.28 784.462 369.182 784.459 367.439C784.457 366.979 784.664 366.544 785.175 366.162C785.297 366.252 785.396 366.275 785.485 366.275C785.534 366.275 785.58 366.268 785.624 366.261C785.669 366.254 785.713 366.246 785.758 366.246C785.844 366.246 785.932 366.272 786.035 366.376C788.725 364.58 787.776 359.904 790.225 357.446C791.847 355.819 792.144 354.266 792.145 352.488C792.146 351.471 792.052 350.382 792.052 349.162C792.052 346.735 798.964 348.942 798.949 345.332C798.944 344.402 798.478 343.085 797.314 341.2C796.597 340.04 796.317 339.158 796.319 338.437C796.323 335.833 800 335.335 800 331.409C800 328.458 796.941 327.672 794.736 326.568C791.534 324.965 793.296 317.828 788.613 315.486C782.857 312.608 780.523 315.854 780.519 308.604C780.519 308.055 780.53 307.447 780.556 306.77V273.633C776.517 270.237 768.169 270.128 765.195 264.165C764.957 263.688 764.854 263.182 764.852 262.656C764.847 259.621 768.205 255.868 768.198 252.316C768.198 251.555 768.042 250.804 767.666 250.071C767.443 249.636 767.351 249.11 767.35 248.528C767.345 246.002 769.072 242.383 769.493 240.279C769.561 239.939 769.593 239.613 769.595 239.303C769.606 236.437 766.937 234.814 764.767 232.64L765.303 227.153L765.088 224.248L763.693 222.419L764.443 221.129L763.154 218.762L710.09 216.501L694.836 205.421L690.969 199.395L684.201 199.61L657.13 185.73L642.199 180.137L640.803 180.458L626.087 175.08L615.773 166.148L600.61 168.455L605.998 163.243L599.017 160.553L597.405 150.655L590.316 141.51L585.052 141.187L579.466 130.967L573.235 124.081ZM519.993 198.391C520.802 198.391 522.558 196.99 523.066 196.652C523.548 196.33 525.698 195.215 525.698 194.984C527.854 194.443 525.27 192.037 524.411 191.594C523.33 191.038 521.519 190.316 520.704 189.497C518.08 186.854 518.466 186.254 520.841 186.254C521.351 186.254 521.954 186.282 522.638 186.323C524.379 186.428 526.791 187.322 528.546 187.721C529.561 187.952 527.739 195.057 528.331 197.19C529.523 201.487 532.316 201.856 535.958 203.214C536.514 202.999 537.381 202.953 538.373 202.953C538.748 202.953 539.145 202.959 539.547 202.966C539.951 202.973 540.36 202.979 540.769 202.979C543.595 202.979 546.275 202.651 545.304 199.718C544.528 197.376 548.741 192.024 551.014 192.026C551.267 192.026 551.498 192.093 551.695 192.24C552.249 191.826 553.831 191.518 554.837 191.518C555.117 191.518 555.352 191.542 555.507 191.594C555.507 194.012 553.182 196.356 551.802 198.265C549.153 201.929 545.725 200.917 546.109 206.389C546.297 209.062 546.746 212.834 544.338 214.296L543.317 215.534L535.743 218.977C532.047 220.656 531.553 222.68 529.364 222.68C528.85 222.68 528.241 222.568 527.473 222.312C527.473 219.27 530.342 219.033 528.546 215.05C528.015 213.87 526.132 208.766 525.241 208.766C525.195 208.766 525.15 208.78 525.108 208.809C522.655 210.58 520.946 211.229 519.635 211.229C517.846 211.229 516.806 210.015 515.659 208.802C514.51 207.586 513.25 206.372 511.012 206.372C510.863 206.372 510.71 206.378 510.553 206.389C506.892 206.647 505.838 208.436 503.952 208.436C503.029 208.436 501.907 208.009 500.187 206.765C496.626 204.191 497.947 196.095 501.906 194.661C503.468 194.094 508.48 190.105 508.619 190.088C508.681 190.081 508.741 190.078 508.799 190.078C510.226 190.078 510.56 192.139 511.518 192.94C512.407 194.598 512.862 197.012 512.862 198.91C512.862 200.699 513.144 201.39 513.517 201.39C514.075 201.39 514.84 199.841 515.172 198.103C515.349 197.173 515.12 195.543 515.717 195.545C515.869 195.545 516.074 195.649 516.355 195.898C516.828 196.322 518.552 198.404 519.462 198.404C519.565 198.404 519.657 198.378 519.736 198.318C519.804 198.368 519.891 198.391 519.993 198.391ZM490.363 230.009C488.902 230.009 487.785 229.624 487.941 227.421C488.17 224.167 488.967 221.868 486.062 219.676L483.966 217.417C482.897 216.254 482.146 214.733 481.441 213.327C480.651 211.754 480.693 211.031 481.327 211.031C481.688 211.03 482.242 211.266 482.945 211.713C483.406 212.008 483.876 212.115 484.347 212.115C484.949 212.115 485.554 211.942 486.155 211.769C486.755 211.595 487.348 211.423 487.928 211.423C489.056 211.423 490.122 212.08 491.055 214.672C491.845 216.87 492.692 220.531 490.303 221.722C488.935 222.402 488.987 226.468 490.132 226.468C490.169 226.468 490.21 226.462 490.25 226.454C492.63 225.911 495.249 224.15 497.876 223.495C498.975 223.223 500.132 223.133 501.318 223.133C502.462 223.133 503.633 223.215 504.808 223.299C505.981 223.382 507.155 223.467 508.311 223.467C509.483 223.467 510.633 223.379 511.735 223.118C512.169 223.014 512.565 222.97 512.931 222.97C515.423 222.97 516.512 225.056 518.61 225.056C520.05 225.056 523.171 225.186 524.356 225.917C526.28 227.1 518.983 229.471 518.395 230.057C518.154 230.299 516.889 231.299 516.202 231.299C515.905 231.299 515.716 231.113 515.765 230.596C515.823 229.954 515.875 226.59 514.826 226.589C514.735 226.589 514.636 226.614 514.527 226.669C514.514 226.629 514.458 226.612 514.373 226.612C513.98 226.612 512.97 226.979 512.809 226.992L504.859 227.692C503.876 227.778 500.691 228.142 500.937 229.521C501.173 230.829 501.704 231.237 502.393 231.237C502.964 231.237 503.647 230.955 504.363 230.672C505.081 230.389 505.831 230.108 506.534 230.108C507.296 230.108 508.006 230.438 508.566 231.457C509.298 232.789 510.751 233.076 512.228 233.076C512.785 233.076 513.346 233.036 513.871 232.994C514.398 232.953 514.889 232.912 515.307 232.912C516.505 232.912 517.099 233.25 516.19 234.9C515.698 235.796 514.589 236.158 513.115 236.158C507.724 236.158 497.457 231.325 494.601 230.166C494.087 229.957 493.492 229.897 492.874 229.897C492.453 229.897 492.021 229.926 491.596 229.953C491.173 229.982 490.756 230.009 490.363 230.009Z" fill="#43487A" stroke="#2B2E5E" stroke-miterlimit="22.9256"/>
    <path d="M566.414 -72C566.051 -72 565.642 -71.9169 565.18 -71.7329L561.202 -69.9575L557.496 -68.5066L553.255 -43.2214L529.568 -34.1302L510.769 -35.475L504.808 -42.415L505.559 -45.1596L500.241 -46.0192L498.309 -41.5005C498.058 -39.5055 499.002 -37.8894 498.684 -35.9602C498.536 -35.0547 495.23 -33.2044 494.441 -32.356C492.075 -29.8114 491.754 -27.0538 489.102 -27.0538C488.438 -27.0538 487.626 -27.2278 486.599 -27.6213C486.505 -27.6585 486.367 -27.6741 486.199 -27.6741C484.758 -27.6758 480.977 -26.4543 480.745 -25.7376C480.186 -25.8782 480.354 -26.6621 480.208 -27.1374C479.954 -27.9481 479.049 -28.0628 478.326 -28.4826C479.452 -29.9737 483.666 -30.0083 481.174 -31.5484C479.304 -32.7066 476.97 -33.9696 474.461 -33.9696C470.323 -33.9696 462.715 -35.1937 458.562 -37.0367C455.029 -38.6014 453.979 -43.3898 450.904 -43.3898C450.844 -43.3898 450.782 -43.3868 450.721 -43.3837C450.55 -43.3725 450.393 -43.3681 450.249 -43.3681C447.072 -43.3681 449.848 -45.7807 449.377 -47.6869C448.101 -47.6869 447.383 -47.3524 446.884 -47.3524C446.347 -47.3524 446.064 -47.7402 445.618 -49.3546C445.241 -50.7168 445.774 -52.7957 446.531 -53.5501C450.535 -57.5534 439.747 -59.2514 438.42 -59.7911L436.77 -65.4478C435.753 -64.4315 434.988 -63.2343 433.585 -63.2343C432.252 -63.2343 431.382 -61.2606 431.009 -60.275C430.554 -59.0752 429.592 -58.1143 428.667 -58.1143C428.055 -58.1143 427.458 -58.5324 427.033 -59.576C426.277 -61.4372 425.754 -61.9172 425.134 -61.9172C424.807 -61.9172 424.451 -61.7821 424.017 -61.6471C423.585 -61.512 423.077 -61.377 422.443 -61.377C422 -61.377 421.496 -61.4432 420.91 -61.6198C418.399 -62.3833 418.596 -62.1626 416.452 -63.1256C416.191 -63.2447 415.909 -63.2936 415.608 -63.2936C415.427 -63.2936 415.237 -63.275 415.041 -63.2447L414.573 -50.5921L410.168 -50.8605C409.496 -51.363 408.915 -51.5681 408.395 -51.5681C407.314 -51.5681 406.506 -50.6826 405.697 -49.7996C404.889 -48.9158 404.079 -48.0315 403 -48.0315C401.81 -48.0315 400.293 -49.1023 398.082 -52.4221C395.122 -56.8703 395.998 -59.5487 390.92 -59.5487C390.416 -59.5487 389.854 -59.5227 389.221 -59.4682L381.005 -58.7692C380.986 -58.7679 380.967 -58.7679 380.948 -58.7679C380.529 -58.7679 379.605 -59.0934 378.652 -59.4193C377.698 -59.7452 376.713 -60.0711 376.17 -60.0711C375.991 -60.0711 375.859 -60.0352 375.793 -59.9517C373.933 -57.6023 377.811 -55.6545 376.921 -54.0357C376.48 -53.2346 375.96 -52.9117 375.381 -52.9117C374.143 -52.9117 372.645 -54.3885 371.135 -55.867C369.624 -57.3439 368.101 -58.8237 366.812 -58.8237C366.222 -58.8237 365.681 -58.5125 365.213 -57.7473C364.63 -56.7955 365.863 -55.5325 365.75 -54.3036C365.611 -52.7883 363.166 -52.5628 363.386 -51.9915C364.298 -49.6174 363.45 -48.8997 362.028 -48.8997C359.842 -48.8997 356.294 -50.5921 355.652 -50.5921C355.652 -47.1243 354.117 -40.0799 351.892 -38.7044C347.226 -35.8182 345.027 -32.8027 339.861 -30.6338C337.994 -28.7665 337.21 -28.1004 336.723 -28.1004C335.885 -28.1004 335.925 -30.0711 332.825 -31.2796C332.328 -31.4722 329.894 -36.1009 327.883 -36.1009C327.335 -36.1009 326.817 -35.7563 326.38 -34.8838C326.285 -34.6946 326.125 -34.6128 325.918 -34.6128C324.65 -34.6128 321.625 -37.6954 321.064 -38.3256C319.36 -40.2375 312.341 -43.166 314.726 -45.7505C317.892 -49.1884 316.593 -49.8589 314.462 -49.8589C313.779 -49.8589 313.013 -49.7914 312.281 -49.7225C311.549 -49.6533 310.85 -49.5858 310.303 -49.5858C309.825 -49.5858 309.465 -49.636 309.298 -49.7853L304.52 -54.0357C301.639 -56.5946 300.818 -56.3245 297.269 -56.6176C297.236 -56.6206 297.201 -56.6219 297.169 -56.6219C295.136 -56.6219 294.613 -51.4249 295.282 -50.7531C296.524 -49.5057 298.136 -50.0982 299.363 -49.4096C299.475 -49.346 301.754 -27.3598 296.854 -27.3598C296.367 -27.3598 295.812 -27.5749 295.173 -28.0515C294.946 -27.3797 294.611 -27.12 294.223 -27.12C293.906 -27.12 293.556 -27.294 293.203 -27.5563L290.827 -22.2416C290.82 -20.9998 289.222 -20.206 288.889 -18.9058C288.845 -18.7292 288.823 -18.5625 288.822 -18.4032C288.82 -16.8359 290.807 -16.0638 290.81 -14.1476C290.81 -13.7741 290.735 -13.3581 290.554 -12.8816C290.19 -11.9168 290.023 -11.0343 290.02 -10.2132C290.014 -7.58675 291.668 -5.57581 293.777 -3.46575C295.206 -2.03914 295.698 -0.761856 295.697 0.543137C295.697 2.43331 294.661 4.37803 293.937 6.91616C293.701 9.62569 291.305 12.1119 290.554 14.8218C290.506 14.998 290.484 15.1837 290.484 15.3759C290.483 16.8947 291.829 18.845 291.832 20.2071C291.832 20.6322 291.702 20.9992 291.361 21.2775L286.419 25.3141C285.936 25.7089 285.498 25.8725 285.094 25.8725C283.754 25.8725 282.759 24.0884 281.532 23.0002C281.248 22.7492 280.735 22.6531 280.085 22.6531C277.796 22.6531 273.805 23.8602 272.186 23.8602C267.688 23.8602 267.868 24.0827 264.827 26.5499C264.75 26.6131 264.642 26.6347 264.509 26.6347C264.348 26.6347 264.154 26.6031 263.937 26.5715C263.722 26.5386 263.484 26.5057 263.237 26.5057C262.446 26.5057 261.571 26.8412 261.067 28.5954C259.508 34.0136 256.021 40.381 256.021 46.2398C256.076 46.2342 256.13 46.2325 256.185 46.2325C257.306 46.2312 257.972 47.2531 259.135 47.5314C259.376 47.5877 259.623 47.6124 259.873 47.6124C260.478 47.6124 261.11 47.4743 261.737 47.3349C262.369 47.1986 262.994 47.0609 263.592 47.0609C264.27 47.0609 264.911 47.2388 265.472 47.8002C266.355 48.6827 266.131 50.2457 267.473 50.2457C267.692 50.2457 267.951 50.2055 268.264 50.1124C270.149 49.5571 271.274 49.1351 271.945 49.1351C272.908 49.1351 272.939 50.0033 272.939 52.5852C272.939 52.7475 272.937 52.9158 272.937 53.0907V53.1137C272.937 55.4635 274.77 57.0736 274.872 59.2036C274.873 59.2369 274.875 59.2698 274.875 59.3014C274.878 60.5575 273.78 61.4227 273.778 62.5122C273.778 62.5927 273.784 62.6732 273.797 62.755C273.982 63.9821 275.248 69.5184 276 70.1253C276.563 70.5819 279.043 70.8546 279.866 71.0926C281.427 71.5475 282.208 72.8019 283.518 73.6217C285.051 74.2458 289.976 76.88 292.645 76.88C293.369 76.88 293.927 76.6848 294.206 76.2053C295.01 74.8189 296.125 67.0825 299.24 67.0825C299.515 67.0825 299.807 67.1426 300.115 67.2746C300.115 70.5114 305.877 71.3636 308.224 71.6307C308.902 71.7086 309.156 72.8283 309.155 74.4601C309.152 78.7962 307.345 86.7404 306.884 88.3081C306.713 88.8795 306.639 89.4162 306.639 89.9269C306.63 94.0492 311.45 96.5094 311.46 101.17C311.462 101.853 311.361 102.582 311.127 103.37C310.879 104.239 310.777 104.911 310.777 105.473C310.778 107.095 311.626 107.836 312.306 109.88C315.259 111.984 316.222 118.64 316.222 125.549C316.222 132.625 315.212 139.967 314.294 142.964V143.03C314.294 147.464 309.934 152.549 309.927 157.316C309.924 158.436 310.163 159.538 310.755 160.609C311.496 161.948 312.585 162.786 313.065 164.32C313.96 167.191 313.751 169.39 315.749 172.015L321.282 179.276C327.887 189.577 338.397 192.251 349.749 194.93C357.824 196.837 356.188 196.861 357.807 204.292C358.89 209.277 363.014 209.616 363.014 215.373L362.741 218.277L368.063 226.94L374.83 273.257L444.886 249.302C445.244 247.875 447.518 247.423 447.874 246.198C447.684 245.26 450.064 237.927 450.828 237.159L454.752 230.704L465.386 226.078L492.671 187.884L502.124 177.769L513.295 176.156L514.801 157.006L521.139 158.942L535.854 159.05L549.282 125.911L573.236 124.082L579.467 130.968L585.052 141.189L590.318 141.511L597.406 150.658L599.018 160.555L605.999 163.245L619.534 153.347L655.629 125.911L656.916 121.929L651.87 117.95L648.86 113.914L646.12 107.245L641.502 101.757L640.05 98.1516C637.875 95.159 637.331 90.4294 635.056 87.4468C632.531 84.1386 627.77 86.84 625.764 83.0903C624.17 80.1111 624.449 78.749 620.929 77.441C618.759 76.1594 615.425 75.2955 614.001 73.1382C613.546 72.4487 613.372 71.8016 613.374 71.1887C613.375 69.2055 615.182 67.5703 615.18 66.0073C615.18 65.8008 615.148 65.5952 615.074 65.3901C614.633 64.1383 612.392 63.0463 611.476 61.8404C611.198 61.4747 610.798 61.3253 610.321 61.3253C608.399 61.3253 605.254 63.7522 604.011 64.2085C603.728 64.3106 603.447 64.3578 603.168 64.3578C600.546 64.3578 598.059 60.1797 596.815 58.2362C594.403 54.4728 592.638 47.4254 588.541 45.3785C587.339 44.7786 586.579 43.7108 586.573 42.8166C586.569 41.9769 587.229 41.2921 588.811 41.2921C590.973 41.2921 591.65 40.929 591.65 40.3018C591.65 39.3617 590.127 37.8256 589.777 36.0189C589.168 34.3811 585.434 30.2129 585.427 27.8371C585.423 26.8083 586.124 26.1149 588.087 26.1149C588.182 26.1149 588.28 26.1179 588.38 26.1205C588.485 26.1235 588.587 26.1253 588.688 26.1253C590.81 26.1253 591.33 25.3401 591.33 24.1442C591.33 23.0015 590.855 21.4844 590.855 19.9228C590.854 18.5208 591.232 17.0838 592.678 15.8451C594.328 14.4314 594.517 13.2385 594.519 12.1106C594.519 11.7773 594.503 11.4501 594.503 11.1246C594.503 10.358 594.592 9.59972 595.202 8.79768C595.989 7.76408 600.53 4.68534 602.272 4.68534C602.427 4.68534 602.561 4.70958 602.666 4.76325C603.674 5.26534 604.48 5.48781 605.114 5.48781C606.595 5.48781 607.141 4.27631 607.141 2.59C607.14 -0.520332 605.273 -5.24556 603.958 -6.96347C599.157 -10.8161 600.918 -16.2962 596.382 -20.2519C591.817 -24.2335 588.931 -30.4632 587.898 -36.3363C587.551 -38.3101 586.55 -38.8312 585.363 -38.8312C584.702 -38.8312 583.98 -38.6702 583.282 -38.5066C582.583 -38.3456 581.906 -38.185 581.33 -38.185C580.447 -38.185 579.803 -38.5598 579.679 -39.8873C579.667 -40.0167 579.662 -40.1401 579.662 -40.2604C579.668 -42.9418 582.63 -43.5794 583.117 -45.0514C584.05 -45.2873 587.446 -47.2606 587.437 -48.495C587.437 -48.5496 587.429 -48.6041 587.415 -48.6556C585.56 -50.1502 582.931 -51.785 581.507 -53.6592C580.907 -54.4473 580.694 -55.1706 580.693 -55.8484C580.69 -57.42 581.811 -58.7661 581.808 -60.2092C581.808 -60.7156 581.667 -61.2363 581.291 -61.7821C580.369 -63.1196 579.916 -64.2952 578.594 -64.2952C578.253 -64.2952 577.853 -64.2177 577.37 -64.0415C575.451 -63.3451 574.199 -61.2597 572.846 -61.2597C572.174 -61.2597 571.475 -61.7748 570.655 -63.2343C569.285 -65.6819 569.57 -72 566.414 -72Z" fill="#43487A" stroke="#2B2E5E" stroke-miterlimit="22.9256"/>
    <path fill-rule="evenodd" clip-rule="evenodd" d="M374.832 273.256L348.631 281.64L348.565 470.955C346.887 470.955 344.917 470.851 343.461 471.493C341.595 472.319 342.32 472.944 340.025 472.3C338.155 471.776 333.8 475.396 333.042 473.108C332.227 473.108 331.005 473.445 330.786 474.559C328.468 474.884 325.374 470.787 324.236 468.909L314.783 454.279L309.303 445.885L308.983 441.367L303.826 434.912L282.019 418.02L259.461 421.571L235.395 430.768L215.897 448.291C215.557 447.43 216.543 446.768 216.543 445.078C217.36 444.813 217.254 441.213 217.295 440.505C217.452 437.908 216.296 438.313 215.577 436.31C215.173 435.189 216.001 434.034 215.577 433.082C213.552 428.535 216.395 425.676 220.087 422.861C221.653 418.172 224.6 415.189 224.6 410.058C224.6 406.612 219.926 403.134 219.926 400.375C221.798 400.993 227.125 412.387 227.125 404.571C227.125 398.845 223.15 398.335 219.442 395.049C216.327 392.288 209.199 396.346 208.863 395.911C203.683 389.204 202.267 393.973 195.757 393.973C194.285 393.973 193.308 389.729 192.266 388.163C191.243 386.63 186.23 381.15 186.197 380.041C186.197 379.049 186.519 378.317 186.519 377.351C184.342 376.641 181.741 376.656 179 377.083C177.361 377.335 171.484 379.331 171.64 377.404C171.686 376.846 172.305 373.5 172.609 373.101C172.025 372.327 173.705 361.598 174.219 361.427C174.219 359.574 171.304 356.943 170.889 355.672H170.78C170.746 355.563 168.052 354.971 167.666 354.703C166.887 354.16 166.305 351.244 165.679 350.183C163.469 346.438 162.672 343.503 161.489 339.425C161.287 337.787 161.301 336.036 160.147 334.745C159.248 333.74 157.347 333.88 156.978 332.969C155.975 330.496 157.126 327.346 155.635 324.631C152.479 318.883 144.755 319.322 139.038 317.959C133.265 316.586 134.113 314.443 133.13 309.352C132.888 308.294 132.754 306.752 132.754 305.748C135.262 305.748 134.35 299.645 138.609 300.746C141.31 301.443 144.699 301.558 147.525 301.93C150.294 302.293 150.528 303.093 153.325 301.607C155.94 300.216 157.083 303.676 159.395 304.619C162.407 305.85 162.18 307.864 165.033 309.084C166.252 308.432 168.304 309.035 170.03 308.169C172.088 307.137 172.095 305.778 174.38 306.339C174.893 308.946 176.021 307.47 177.818 307.47L177.978 307.525C178.294 308.478 181.676 308.284 182.438 307.901C186.156 306.025 177.529 303.418 175.778 303.543C167.801 304.106 173.055 296.599 167.936 294.614C166.792 294.169 165.866 294.684 164.927 293.375C162.689 290.254 156.655 293.105 156.655 290.201L156.711 290.147C161.039 290.147 159.701 284.796 163.156 282.294C164.697 281.176 172.153 278.286 170.03 275.623C170.03 271.423 170.558 270.746 173.254 267.822C174.591 266.369 175.798 264.334 176.797 262.713C177.325 261.854 181.099 264.138 183.672 263.303C185.81 262.611 189.742 257.44 189.851 257.44C190.463 259.299 205.471 261.409 207.036 260.238C207.695 260.726 212.471 259.205 213.212 259.053C213.907 259.474 216.159 259.86 217.026 259.86C218.376 259.86 217.013 257.018 216.757 256.311C216.315 255.077 220.674 253.064 221.001 252.059C221.692 252.583 223.614 253.724 224.01 254.212C224.951 255.379 224.849 257.076 226.533 256.581C228.012 256.144 225.942 249.706 225.942 248.886C225.942 248.359 228.719 246.728 229.111 246.467C229.192 246.71 230.361 247.427 230.668 247.219C231.115 248.583 230.704 249.586 231.689 250.824C232.408 251.723 234.382 250.921 234.805 250.071C236.17 247.325 233.171 242.958 234.967 240.818C235.58 237.699 237.967 239.674 236.362 235.491C236.204 235.081 238.863 229.57 239.209 229.143C240.174 227.95 236.173 228.606 236.147 228.553C234.666 229.293 235.538 229.377 235.395 231.135C235.3 232.293 233.12 230.803 232.602 230.542C228.451 228.449 228.301 230.166 224.494 230.166C223.592 226.5 226.315 227.378 227.125 225.27C227.997 222.996 230.421 223.78 229.756 221.182C229.498 220.176 229.781 218.185 229.863 217.201C230.094 214.395 231.855 214.024 232.762 211.983C232.877 211.726 233.054 211.385 233.266 210.987L237.598 213.113L245.01 212.199L267.568 213.489C270.853 210.723 272.459 206.004 276.805 204.72C281.799 203.248 284.215 207.14 288.57 207.14C294.803 207.14 302.284 205.798 308.334 204.343C311.237 203.646 313.487 204.99 316.339 204.99C319.332 204.99 320.362 202.633 322.408 201.008C323.147 199.701 327.773 194.913 328.745 197.889C330.634 203.671 337.158 200.465 339.218 204.936C341.221 209.282 339.177 211.553 344.965 211.553C347.968 211.553 348.435 212.718 349.96 214.834C350.906 216.146 352.504 215.072 353.666 215.855C355.845 217.327 353.396 219.003 357.964 218.653C360.366 218.469 360.282 218.277 362.743 218.277L368.065 226.938L374.832 273.256ZM125.523 288.485C124.124 286.81 124.125 284.989 124.125 282.863C124.125 282.016 124.182 281.038 124.636 280.308C126.2 277.773 126.793 279.249 126.248 281.357C125.677 283.565 125.547 287.189 127.402 288.863C128.231 289.609 128.788 289.749 129.901 289.534C130.878 289.345 132.176 289.433 131.887 290.61C130.188 291.035 129.575 291.698 127.564 290.449L125.523 288.485ZM133.202 283.132L133.176 282.944C133.176 282.31 132.637 279.374 133.311 279.206C133.344 279.065 135.086 278.378 135.352 278.237C139.355 276.12 138.3 283.802 136.612 285.016C135.966 285.48 135.201 286.901 134.896 287.598C133.797 290.096 133.387 286.457 133.096 286.091L133.202 283.132ZM147.197 291.713C147.054 291.211 146.868 289.929 146.2 289.885C145.751 289.853 145.411 290.173 145.315 290.582C145.161 291.247 144.824 292.419 145.155 293.058C145.506 293.735 146.196 294.54 146.899 293.649L147.197 291.713ZM150.981 284.936C150.515 284.779 150.121 284.595 149.611 284.936C149.255 285.172 149.196 285.762 149.344 286.145C149.537 286.648 150.01 287.365 150.58 287.489C151.231 287.633 152.275 286.513 151.734 285.983L150.981 284.936ZM232.388 243.938C232.388 243.314 232.494 242.672 232.494 242.054L232.119 241.893C232.072 241.752 231.148 241.625 230.938 241.571C229.921 241.31 228.962 241.987 228.413 242.753C228.048 243.263 228.611 244.15 229.166 244.261L230.562 246.088C232.018 246.985 232.061 246.551 233.085 245.228L232.388 243.938Z" fill="#43487A" stroke="#2B2E5E" stroke-miterlimit="22.9256"/>
    <path d="M256.184 46.2314C256.13 46.2314 256.075 46.2332 256.02 46.2388C252.741 48.5384 251.001 57.7097 248.392 59.5259C246.648 60.7413 238.912 61.7996 236.522 61.8944H236.496H236.495L236.469 61.8952H236.467H236.44H236.411C236.369 61.8952 236.326 61.8952 236.282 61.8926C236.171 61.8879 236.055 61.8796 235.933 61.8671C235.844 61.8567 235.751 61.8437 235.654 61.8294C235.635 61.8264 235.618 61.8238 235.597 61.8208C235.576 61.8182 235.554 61.8151 235.533 61.8108C235.403 61.7909 235.272 61.7662 235.134 61.739C235.134 61.739 235.119 61.7377 235.113 61.7359C234.969 61.7074 234.818 61.6758 234.666 61.6416C234.643 61.6368 234.62 61.6325 234.6 61.6269C234.256 61.5494 233.895 61.4602 233.522 61.3672L233.509 61.3646C233.423 61.3412 233.337 61.3196 233.249 61.2983C233.232 61.2923 233.213 61.2884 233.195 61.2841L233.17 61.278C233.054 61.2481 232.938 61.2178 232.82 61.188C232.794 61.1806 232.768 61.175 232.744 61.1676C232.691 61.1551 232.637 61.1404 232.582 61.1278C232.434 61.0884 232.284 61.0499 232.132 61.0114C232.11 61.0066 232.089 61.001 232.067 60.9954C232.045 60.9897 232.025 60.9841 232.002 60.9793C231.969 60.9711 231.936 60.9625 231.903 60.9538C230.643 60.6396 229.4 60.3638 228.469 60.3565C228.455 60.3552 228.444 60.3552 228.431 60.3552H228.425C227.907 60.3565 227.492 60.4431 227.229 60.6569C223.882 63.3681 224.812 68.9344 223.739 72.7052C222.504 77.0353 217.839 81.4735 217.843 85.4707C217.843 85.791 217.872 86.1109 217.937 86.4238C217.947 86.4727 217.957 86.5212 217.966 86.5675C218.582 89.8856 216.508 90.8374 213.699 90.8392H213.693H213.69H213.666C211.224 90.8318 208.259 90.1241 206.014 89.6233C205.999 89.6203 205.986 89.6177 205.974 89.6147C205.936 89.606 205.899 89.5991 205.861 89.5904C205.76 89.5671 205.657 89.5454 205.56 89.5229C205.474 89.5043 205.391 89.487 205.306 89.4684C205.284 89.4636 205.263 89.4597 205.24 89.4536C205.211 89.448 205.183 89.4424 205.154 89.4355C205.145 89.4337 205.137 89.432 205.129 89.4307C205.108 89.4264 205.087 89.4225 205.065 89.4177C205.04 89.4121 205.013 89.4065 204.989 89.4009C204.835 89.3706 204.689 89.3407 204.547 89.3134L204.517 89.3078C204.485 89.3013 204.457 89.2957 204.426 89.29C204.399 89.2844 204.375 89.2814 204.349 89.2758L204.327 89.2589C204.288 89.2268 204.261 89.2056 204.233 89.1827C204.215 89.168 204.198 89.1567 204.181 89.1437C203.206 88.3928 202.502 88.1249 201.897 88.1205H201.884H201.874C201.111 88.1231 200.508 88.5469 199.724 88.9429C199.233 89.1914 198.672 89.4294 197.957 89.5445C197.85 89.5614 197.74 89.5701 197.63 89.5718H197.628C197.613 89.5718 197.598 89.5701 197.582 89.5701C196.598 89.5515 195.507 88.8871 194.422 88.172C193.465 87.5405 192.513 86.867 191.642 86.5589C191.616 86.5485 191.591 86.5403 191.566 86.5316C189.22 85.7521 189.021 84.4505 189.021 83.1326C189.021 82.8655 189.028 82.5958 189.028 82.3318C189.028 80.5962 188.685 79.0146 183.402 78.7848C182.888 78.7618 182.375 78.7506 181.866 78.7506H181.864H181.844C168.587 78.7592 156.644 86.1767 145.936 94.104C145.902 94.1287 145.869 94.1529 145.834 94.1789C145.799 94.2061 145.76 94.2347 145.721 94.262C145.656 94.3109 145.592 94.3598 145.527 94.4074C145.502 94.4273 145.476 94.4459 145.45 94.4645C145.43 94.4806 145.41 94.4949 145.39 94.5091C145.384 94.5148 145.377 94.5191 145.377 94.5191C145.332 94.552 145.293 94.581 145.256 94.6082C145.243 94.6182 145.231 94.6269 145.22 94.6355C145.164 94.6788 145.107 94.7199 145.051 94.7615L145.16 94.7087C137.201 99.2357 132.796 103.236 126.307 109.395C121.053 114.378 114.967 113.689 108.476 115.689C104.715 116.847 100.524 114.641 99.7243 119.347L66.8541 111.277L33.5529 106.435L14.8563 105.36L16.04 109.825L15.1246 112.461L19.0474 113.643L18.8864 114.99L17.2303 114.937L16.6919 116.55L13.6846 118.379L17.8731 126.447L15.9397 127.74L18.9496 131.935L25.7156 136.346L26.8968 132.365L26.7895 127.632L35.8136 131.935L46.9832 132.365L50.2065 131.828L56.6532 136.454L59.8756 141.94L64.8155 150.549L68.5764 150.657L74.6992 166.149L83.6156 180.674L86.838 186.699L83.722 190.679L78.0294 191.219C74.7871 191.219 75.0741 187.669 72.7099 186.752C72.4056 186.634 72.1156 186.58 71.843 186.58C69.6597 186.58 68.4712 190.019 67.9319 191.595C67.5804 192.617 69.5883 194.661 70.5098 194.661C70.6245 195.013 71.1842 195.087 70.6721 195.736C70.4778 195.981 69.4256 197.062 69.542 197.296C69.7329 197.681 70.5125 197.779 71.3509 197.779C72.2191 197.779 73.1536 197.673 73.5713 197.673C76.0904 197.673 78.7068 198.772 79.5322 201.331L82.9711 205.097C85.0522 205.511 87.1856 207.479 88.8243 208.002C91.3234 208.802 96.5668 208.295 97.7939 211.015C98.9236 213.517 101.361 213.436 102.575 215.91C102.812 216.392 102.605 216.986 102.621 217.524C103.238 217.982 106.839 219.946 107.453 219.946C107.466 219.979 107.481 219.995 107.501 219.995C107.836 219.995 109.328 215.713 109.387 215.532H109.763C110.857 215.887 114.069 216.644 114.76 217.202C116.013 218.213 116.809 218.709 117.373 218.709C118.265 218.709 118.57 217.476 119.163 215.103L120.183 211.015C120.573 209.459 119.271 208.876 119.271 207.626C123.089 206.333 121.045 202.844 121.045 200.685C121.045 194.994 125.593 199.876 126.736 195.252C127.478 193.48 129.381 189.968 130.818 189.066C130.847 189.049 130.871 189.041 130.896 189.041C131.455 189.041 131.251 193.433 131.517 194.123C131.744 194.714 132.01 194.962 132.299 194.962C133.774 194.962 135.822 188.453 136.027 187.827C136.845 185.364 140.201 188.177 141.239 183.955C142.241 183.955 141.952 184.058 142.204 185.086C143.723 185.086 143.498 187.269 144.251 187.269C144.547 187.269 144.991 186.933 145.75 186C146.397 185.202 147.402 180.161 149.077 180.161C149.149 180.161 149.22 180.17 149.294 180.19C149.813 180.322 149.532 181.882 149.887 182.396C149.94 182.471 150.017 182.507 150.116 182.507C151.012 182.507 153.602 179.679 154.237 179.168C155.279 178.328 156.231 178.014 157.138 178.014C159.128 178.014 160.927 179.517 163.099 180.297C163.389 180.401 163.709 180.447 164.055 180.447C165.494 180.447 167.393 179.649 169.435 178.849C171.478 178.048 173.666 177.251 175.681 177.251C176.6 177.251 177.481 177.415 178.3 177.822C180.493 178.915 182.524 178.459 181.306 181.212C180.399 183.266 180.527 183.814 181.177 183.814C181.922 183.814 183.35 183.095 184.691 183.095C189.556 183.569 187.259 187.133 189.74 189.013C190.99 185.18 193.456 185.403 196.721 185.193C196.796 185.189 196.869 185.186 196.945 185.186C198.42 185.186 200.221 186.069 202.074 186.953C203.927 187.836 205.83 188.722 207.506 188.722C208.263 188.722 208.974 188.541 209.611 188.098C211.834 186.557 212.732 184.646 214.875 184.646C215.654 184.646 216.599 184.901 217.83 185.516C220.639 186.92 220.228 187.882 224.168 187.882C227.644 187.882 225.86 193.662 229.302 193.662C229.648 193.662 230.046 193.604 230.505 193.477C231.512 193.197 232.453 193.053 233.284 193.053C236.305 193.053 237.884 194.965 236.038 199.232C234.979 200.495 236.414 202.887 236.414 204.344C236.414 205.499 234.349 208.965 233.263 210.988L237.595 213.112L245.007 212.198L267.567 213.49C270.852 210.724 272.457 206.003 276.803 204.721C277.6 204.488 278.327 204.388 279.01 204.388C282.613 204.388 284.906 207.143 288.567 207.143C294.801 207.143 302.282 205.799 308.332 204.344C308.932 204.2 309.501 204.143 310.057 204.143C312.188 204.143 314.073 204.99 316.336 204.99C319.329 204.99 320.36 202.634 322.405 201.009C322.974 200 325.85 196.929 327.584 196.93C328.103 196.93 328.519 197.204 328.742 197.889C330.63 203.67 337.156 200.464 339.216 204.936C341.218 209.281 339.174 211.552 344.964 211.552C347.965 211.552 348.432 212.716 349.958 214.834C350.411 215.462 351.014 215.543 351.647 215.543C351.756 215.543 351.868 215.541 351.979 215.538C352.089 215.536 352.199 215.533 352.31 215.533C352.784 215.533 353.252 215.578 353.665 215.856C355.646 217.194 353.803 218.7 356.88 218.7C357.189 218.7 357.546 218.685 357.961 218.652C360.365 218.469 360.281 218.276 362.741 218.276L363.016 215.372C363.016 209.615 358.89 209.275 357.806 204.291C356.187 196.86 357.823 196.835 349.748 194.929C338.397 192.25 327.888 189.576 321.281 179.275L315.749 172.014C313.75 169.389 313.959 167.19 313.064 164.319C312.586 162.786 311.495 161.947 310.754 160.608C310.163 159.537 309.925 158.435 309.926 157.315C309.933 152.548 314.293 147.463 314.294 143.028V142.963C315.212 139.964 316.223 132.624 316.223 125.548C316.223 118.639 315.26 111.983 312.307 109.879C311.626 107.835 310.777 107.094 310.776 105.472C310.776 104.908 310.878 104.238 311.126 103.371C311.36 102.581 311.46 101.851 311.459 101.169C311.449 96.5084 306.631 94.0482 306.639 89.9259C306.639 89.4151 306.714 88.8767 306.883 88.3071C307.344 86.7394 309.152 78.7952 309.155 74.459C309.157 72.8273 308.903 71.7075 308.224 71.6296C305.877 71.3626 300.116 70.5103 300.116 67.2736C299.807 67.1433 299.515 67.0814 299.24 67.0814C296.125 67.0814 295.009 74.8178 294.206 76.2029C293.928 76.6851 293.371 76.879 292.645 76.879C289.977 76.879 285.052 74.2448 283.519 73.6206C282.207 72.8009 281.426 71.5465 279.865 71.0916C279.042 70.8535 276.562 70.5809 275.999 70.1242C275.247 69.5174 273.983 63.981 273.797 62.754C273.784 62.6721 273.779 62.5916 273.779 62.5111C273.779 61.4217 274.876 60.5565 274.874 59.3004C274.874 59.2688 274.873 59.2359 274.871 59.2026C274.77 57.0713 272.936 55.4625 272.936 53.1243V53.0897C272.936 52.9148 272.937 52.7464 272.937 52.5841C272.937 50.0023 272.907 49.134 271.944 49.134C271.274 49.134 270.149 49.556 268.264 50.1114C267.951 50.2044 267.693 50.2447 267.473 50.2447C266.13 50.2447 266.354 48.683 265.471 47.7974C264.911 47.2378 264.271 47.0599 263.591 47.0599C262.993 47.0599 262.368 47.1975 261.738 47.3352C261.111 47.4715 260.477 47.6096 259.872 47.6096C259.622 47.6096 259.375 47.5849 259.134 47.5295C257.973 47.2521 257.305 46.2314 256.184 46.2314Z" fill="#43487A" stroke="#2B2E5E" stroke-miterlimit="22.9256"/>
    <path d="M432.413 120.112L427.768 115.385V120.112H426.628V110.74H427.768V115.289L432.29 110.74H433.774L429.143 115.289L433.966 120.112H432.413ZM440.934 113.53V120.112H439.848V119.233H439.821C439.207 119.974 438.405 120.346 437.416 120.346C436.49 120.346 435.695 120.018 435.031 119.363C434.367 118.708 434.035 117.858 434.035 116.814C434.035 115.797 434.363 114.959 435.018 114.299C435.673 113.64 436.495 113.31 437.484 113.31C438.391 113.31 439.175 113.699 439.835 114.478H439.848V113.53H440.934ZM435.794 115.021C435.372 115.529 435.162 116.127 435.162 116.814C435.162 117.501 435.372 118.101 435.794 118.614C436.216 119.127 436.806 119.384 437.567 119.384C438.208 119.384 438.765 119.143 439.236 118.662C439.708 118.181 439.944 117.579 439.944 116.855C439.944 116.085 439.718 115.46 439.264 114.979C438.81 114.498 438.254 114.258 437.594 114.258C436.815 114.258 436.216 114.512 435.794 115.021ZM442.267 118.477H443.421C443.595 119.1 444.072 119.411 444.85 119.411C445.354 119.411 445.739 119.304 446.005 119.088C446.27 118.873 446.403 118.596 446.403 118.257C446.403 117.909 446.268 117.634 445.998 117.432C445.728 117.231 445.418 117.13 445.07 117.13H444.122V116.223H445.07C445.418 116.223 445.7 116.129 445.915 115.941C446.13 115.754 446.238 115.509 446.238 115.206C446.238 114.94 446.124 114.714 445.895 114.526C445.666 114.338 445.35 114.244 444.946 114.244C444.616 114.244 444.33 114.322 444.088 114.478C443.845 114.633 443.687 114.844 443.614 115.11H442.486C442.596 114.551 442.876 114.111 443.325 113.791C443.774 113.47 444.31 113.31 444.933 113.31C445.629 113.31 446.199 113.477 446.643 113.811C447.088 114.146 447.31 114.578 447.31 115.11C447.31 115.907 446.934 116.42 446.183 116.649C446.586 116.768 446.905 116.972 447.138 117.261C447.372 117.549 447.489 117.881 447.489 118.257C447.489 118.88 447.26 119.386 446.802 119.775C446.343 120.165 445.689 120.36 444.836 120.36C444.168 120.36 443.6 120.195 443.132 119.865C442.665 119.535 442.377 119.072 442.267 118.477ZM455.487 113.53V120.112H454.401V119.233H454.374C453.76 119.974 452.958 120.346 451.969 120.346C451.044 120.346 450.248 120.018 449.584 119.363C448.92 118.708 448.588 117.858 448.588 116.814C448.588 115.797 448.916 114.959 449.571 114.299C450.226 113.64 451.048 113.31 452.037 113.31C452.945 113.31 453.728 113.699 454.388 114.478H454.401V113.53H455.487ZM450.347 115.021C449.926 115.529 449.715 116.127 449.715 116.814C449.715 117.501 449.926 118.101 450.347 118.614C450.769 119.127 451.36 119.384 452.12 119.384C452.761 119.384 453.318 119.143 453.789 118.662C454.261 118.181 454.498 117.579 454.498 116.855C454.498 116.085 454.271 115.46 453.817 114.979C453.364 114.498 452.807 114.258 452.147 114.258C451.369 114.258 450.769 114.512 450.347 115.021ZM456.751 120.112L459.183 116.731L456.902 113.53H458.167L459.334 115.179C459.408 115.289 459.49 115.417 459.582 115.563C459.673 115.71 459.738 115.811 459.774 115.866H459.802C459.848 115.792 459.921 115.685 460.022 115.543C460.123 115.401 460.201 115.293 460.256 115.22L461.396 113.53H462.647L460.352 116.704L462.798 120.112H461.52L460.242 118.284C460.187 118.211 460.107 118.096 460.001 117.941C459.896 117.785 459.816 117.671 459.761 117.597H459.719L459.225 118.298L457.988 120.112H456.751ZM468.061 113.53V114.505H466.206V120.112H465.12V114.505H463.238V113.53H468.061ZM474.452 113.53L470.824 123.341H469.779L470.975 120.112L468.556 113.53H469.669L471.057 117.364C471.286 117.941 471.433 118.403 471.497 118.752H471.524C471.771 117.982 471.923 117.519 471.978 117.364L473.352 113.53H474.452ZM475.427 123.341V113.53H476.513V114.464H476.54C477.191 113.695 478.015 113.31 479.014 113.31C480.022 113.31 480.825 113.658 481.426 114.354C482.026 115.05 482.326 115.87 482.326 116.814C482.326 117.812 482.008 118.651 481.371 119.329C480.734 120.007 479.935 120.346 478.973 120.346C477.974 120.346 477.163 119.974 476.54 119.233H476.513V123.341H475.427ZM481.199 116.814C481.199 116.118 480.986 115.518 480.56 115.014C480.134 114.51 479.541 114.258 478.78 114.258C478.112 114.258 477.55 114.498 477.097 114.979C476.643 115.46 476.417 116.085 476.417 116.855C476.417 117.588 476.653 118.193 477.124 118.669C477.596 119.146 478.157 119.384 478.808 119.384C479.559 119.384 480.145 119.127 480.567 118.614C480.988 118.101 481.199 117.501 481.199 116.814ZM483.769 120.112V113.53H484.854V116.539L487.919 113.53H489.252L486.119 116.608L489.348 120.112H487.946L484.854 116.718V120.112H483.769ZM497.25 113.53L498.432 120.112H497.415L496.797 116.415C496.687 115.765 496.609 115.257 496.563 114.89H496.522C496.393 115.467 496.238 115.976 496.054 116.415L494.543 120.112H493.691L492.179 116.333C491.959 115.774 491.799 115.293 491.698 114.89H491.657C491.565 115.596 491.501 116.072 491.464 116.319L490.819 120.112H489.815L491.025 113.53H492.083L493.759 117.693C493.887 117.996 494.002 118.353 494.103 118.765H494.144C494.263 118.325 494.382 117.968 494.502 117.693L496.219 113.53H497.25ZM504.74 113.53L501.112 123.341H500.067L501.263 120.112L498.844 113.53H499.958L501.345 117.364C501.574 117.941 501.721 118.403 501.785 118.752H501.813C502.06 117.982 502.211 117.519 502.266 117.364L503.64 113.53H504.74ZM511.501 113.53V120.112H510.415V117.13H506.801V120.112H505.715V113.53H506.801V116.223H510.415V113.53H511.501ZM519.843 113.53V120.112H518.757V119.233H518.729C518.116 119.974 517.314 120.346 516.325 120.346C515.399 120.346 514.604 120.018 513.94 119.363C513.276 118.708 512.944 117.858 512.944 116.814C512.944 115.797 513.271 114.959 513.926 114.299C514.582 113.64 515.404 113.31 516.393 113.31C517.3 113.31 518.084 113.699 518.743 114.478H518.757V113.53H519.843ZM514.703 115.021C514.281 115.529 514.071 116.127 514.071 116.814C514.071 117.501 514.281 118.101 514.703 118.614C515.124 119.127 515.715 119.384 516.476 119.384C517.117 119.384 517.673 119.143 518.145 118.662C518.617 118.181 518.853 117.579 518.853 116.855C518.853 116.085 518.626 115.46 518.173 114.979C517.719 114.498 517.163 114.258 516.503 114.258C515.724 114.258 515.124 114.512 514.703 115.021ZM521.739 120.112V113.53H522.824V116.511C522.824 117.318 522.811 117.991 522.783 118.532H522.811C522.948 118.275 523.255 117.84 523.732 117.226L526.549 113.53H527.525V120.112H526.439V117.13C526.439 116.324 526.452 115.65 526.48 115.11H526.452C526.315 115.367 526.008 115.802 525.532 116.415L522.715 120.112H521.739ZM525.93 110.3H526.837C526.81 110.877 526.592 111.358 526.185 111.743C525.777 112.128 525.28 112.32 524.693 112.32C524.098 112.32 523.599 112.128 523.195 111.743C522.792 111.358 522.577 110.877 522.55 110.3H523.457C523.475 110.639 523.599 110.907 523.828 111.104C524.057 111.301 524.345 111.399 524.693 111.399C525.041 111.399 525.33 111.299 525.559 111.097C525.788 110.895 525.912 110.63 525.93 110.3Z" fill="#FEFEFE"/>
    <path d="M419.896 115.212C419.896 118.798 416.989 121.705 413.403 121.705C409.818 121.705 406.911 118.798 406.911 115.212C406.911 111.627 409.818 108.721 413.403 108.721C416.989 108.721 419.896 111.627 419.896 115.212Z" fill="#9EA4C9"/>
    <path d="M418.444 115.213C418.444 117.998 416.187 120.255 413.402 120.255C410.618 120.255 408.36 117.998 408.36 115.213C408.36 112.428 410.618 110.171 413.402 110.171C416.187 110.171 418.444 112.428 418.444 115.213Z" fill="#2E50E9"/>
    <path d="M460.263 141.274L455.618 136.546V141.274H454.478V131.901H455.618V136.45L460.139 131.901H461.624L456.992 136.45L461.816 141.274H460.263ZM468.784 134.691V141.274H467.698V140.394H467.67C467.057 141.136 466.255 141.508 465.265 141.508C464.34 141.508 463.545 141.18 462.881 140.525C462.217 139.87 461.885 139.02 461.885 137.976C461.885 136.959 462.212 136.121 462.867 135.461C463.522 134.801 464.344 134.471 465.334 134.471C466.241 134.471 467.024 134.861 467.684 135.639H467.698V134.691H468.784ZM463.644 136.182C463.222 136.691 463.012 137.288 463.012 137.976C463.012 138.663 463.222 139.263 463.644 139.776C464.065 140.289 464.656 140.545 465.417 140.545C466.058 140.545 466.614 140.305 467.086 139.824C467.558 139.343 467.794 138.74 467.794 138.017C467.794 137.247 467.567 136.622 467.114 136.141C466.66 135.66 466.103 135.419 465.444 135.419C464.665 135.419 464.065 135.674 463.644 136.182ZM470.116 139.639H471.271C471.445 140.261 471.921 140.573 472.7 140.573C473.204 140.573 473.588 140.465 473.854 140.25C474.12 140.035 474.253 139.758 474.253 139.419C474.253 139.07 474.118 138.795 473.847 138.594C473.577 138.392 473.268 138.292 472.92 138.292H471.971V137.385H472.92C473.268 137.385 473.549 137.291 473.765 137.103C473.98 136.915 474.088 136.67 474.088 136.368C474.088 136.102 473.973 135.876 473.744 135.688C473.515 135.5 473.199 135.406 472.796 135.406C472.466 135.406 472.18 135.484 471.937 135.639C471.694 135.795 471.536 136.006 471.463 136.272H470.336C470.446 135.713 470.726 135.273 471.174 134.952C471.623 134.632 472.159 134.471 472.782 134.471C473.478 134.471 474.049 134.639 474.493 134.973C474.938 135.307 475.16 135.74 475.16 136.272C475.16 137.068 474.784 137.582 474.033 137.811C474.436 137.93 474.754 138.134 474.988 138.422C475.221 138.711 475.338 139.043 475.338 139.419C475.338 140.042 475.109 140.548 474.651 140.937C474.193 141.327 473.538 141.521 472.686 141.521C472.017 141.521 471.449 141.357 470.982 141.026C470.515 140.696 470.226 140.234 470.116 139.639ZM483.337 134.691V141.274H482.251V140.394H482.223C481.61 141.136 480.808 141.508 479.819 141.508C478.893 141.508 478.098 141.18 477.434 140.525C476.77 139.87 476.438 139.02 476.438 137.976C476.438 136.959 476.765 136.121 477.42 135.461C478.076 134.801 478.898 134.471 479.887 134.471C480.794 134.471 481.578 134.861 482.237 135.639H482.251V134.691H483.337ZM478.197 136.182C477.775 136.691 477.565 137.288 477.565 137.976C477.565 138.663 477.775 139.263 478.197 139.776C478.618 140.289 479.209 140.545 479.97 140.545C480.611 140.545 481.167 140.305 481.639 139.824C482.111 139.343 482.347 138.74 482.347 138.017C482.347 137.247 482.12 136.622 481.667 136.141C481.213 135.66 480.657 135.419 479.997 135.419C479.218 135.419 478.618 135.674 478.197 136.182ZM484.601 141.274L487.033 137.893L484.752 134.691H486.016L487.184 136.34C487.258 136.45 487.34 136.578 487.432 136.725C487.523 136.872 487.587 136.972 487.624 137.027H487.652C487.697 136.954 487.771 136.846 487.871 136.704C487.972 136.562 488.05 136.455 488.105 136.382L489.246 134.691H490.496L488.201 137.866L490.647 141.274H489.369L488.091 139.446C488.036 139.373 487.956 139.258 487.851 139.102C487.745 138.947 487.665 138.832 487.61 138.759H487.569L487.074 139.46L485.838 141.274H484.601ZM491.17 137.976C491.17 136.968 491.506 136.132 492.18 135.468C492.853 134.803 493.689 134.471 494.688 134.471C495.705 134.471 496.545 134.806 497.209 135.474C497.874 136.143 498.206 136.977 498.206 137.976C498.206 138.956 497.871 139.79 497.202 140.477C496.534 141.164 495.695 141.508 494.688 141.508C493.689 141.508 492.853 141.169 492.18 140.49C491.506 139.813 491.17 138.974 491.17 137.976ZM492.297 137.976C492.297 138.699 492.533 139.304 493.004 139.79C493.476 140.275 494.037 140.518 494.688 140.518C495.375 140.518 495.945 140.275 496.399 139.79C496.852 139.304 497.079 138.699 497.079 137.976C497.079 137.261 496.857 136.661 496.413 136.175C495.968 135.69 495.393 135.447 494.688 135.447C493.991 135.447 493.419 135.685 492.97 136.162C492.521 136.638 492.297 137.243 492.297 137.976ZM499.649 141.274V134.691H500.734V137.673C500.734 138.479 500.72 139.153 500.693 139.694H500.72C500.858 139.437 501.165 139.002 501.642 138.388L504.458 134.691H505.434V141.274H504.348V138.292C504.348 137.486 504.362 136.812 504.39 136.272H504.362C504.225 136.528 503.918 136.963 503.442 137.577L500.624 141.274H499.649ZM503.84 131.462H504.747C504.72 132.039 504.502 132.52 504.094 132.905C503.687 133.289 503.19 133.482 502.603 133.482C502.008 133.482 501.509 133.289 501.105 132.905C500.702 132.52 500.487 132.039 500.459 131.462H501.367C501.385 131.801 501.509 132.069 501.738 132.266C501.967 132.463 502.255 132.561 502.603 132.561C502.951 132.561 503.24 132.461 503.469 132.259C503.698 132.057 503.822 131.791 503.84 131.462ZM507.798 139.309L508.183 134.691H513.144V141.274H512.058V135.667H509.2L508.87 139.309C508.796 140.051 508.631 140.577 508.375 140.889C508.118 141.201 507.697 141.357 507.111 141.357C506.927 141.357 506.735 141.334 506.533 141.288V140.408C506.662 140.445 506.817 140.463 507.001 140.463C507.257 140.463 507.445 140.371 507.564 140.188C507.683 140.005 507.761 139.712 507.798 139.309ZM517.624 141.274L521.444 131.901H522.461L526.172 141.274H524.921L523.959 138.745H519.809L518.833 141.274H517.624ZM521.211 135.103L520.194 137.728H523.574L522.585 135.09C522.338 134.439 522.122 133.807 521.939 133.193H521.884C521.719 133.734 521.495 134.371 521.211 135.103ZM527.216 141.274V134.691H528.302V137.701L531.366 134.691H532.699L529.566 137.77L532.796 141.274H531.394L528.302 137.88V141.274H527.216ZM538.032 134.691V135.667H536.176V141.274H535.09V135.667H533.208V134.691H538.032ZM538.457 137.976C538.457 136.968 538.794 136.132 539.468 135.468C540.141 134.803 540.977 134.471 541.975 134.471C542.993 134.471 543.833 134.806 544.497 135.474C545.162 136.143 545.494 136.977 545.494 137.976C545.494 138.956 545.159 139.79 544.49 140.477C543.822 141.164 542.983 141.508 541.975 141.508C540.977 141.508 540.141 141.169 539.468 140.49C538.794 139.813 538.457 138.974 538.457 137.976ZM539.585 137.976C539.585 138.699 539.82 139.304 540.292 139.79C540.764 140.275 541.325 140.518 541.975 140.518C542.663 140.518 543.233 140.275 543.686 139.79C544.14 139.304 544.367 138.699 544.367 137.976C544.367 137.261 544.144 136.661 543.7 136.175C543.256 135.69 542.681 135.447 541.975 135.447C541.279 135.447 540.706 135.685 540.258 136.162C539.809 136.638 539.585 137.243 539.585 137.976ZM547.651 137.976C547.651 138.699 547.887 139.304 548.359 139.79C548.831 140.275 549.392 140.518 550.042 140.518C550.729 140.518 551.3 140.275 551.753 139.79C552.207 139.304 552.434 138.699 552.434 137.976C552.434 137.261 552.218 136.661 551.788 136.175C551.357 135.69 550.789 135.447 550.084 135.447C549.387 135.447 548.808 135.685 548.345 136.162C547.882 136.638 547.651 137.243 547.651 137.976ZM550.606 132.973C548.902 133.276 547.926 134.174 547.678 135.667H547.72C547.958 135.328 548.306 135.044 548.764 134.815C549.222 134.586 549.685 134.471 550.152 134.471C551.16 134.471 551.98 134.803 552.612 135.468C553.244 136.132 553.56 136.968 553.56 137.976C553.56 138.956 553.226 139.79 552.557 140.477C551.888 141.164 551.05 141.508 550.042 141.508C549.025 141.508 548.192 141.155 547.541 140.449C546.891 139.744 546.566 138.736 546.566 137.426C546.566 136.464 546.669 135.637 546.875 134.945C547.081 134.254 547.379 133.709 547.768 133.31C548.157 132.912 548.577 132.607 549.025 132.396C549.474 132.186 550.001 132.03 550.606 131.929C551.284 131.81 551.852 131.594 552.31 131.283L552.777 132.204C552.108 132.589 551.384 132.845 550.606 132.973ZM557.821 134.471C558.388 134.471 558.892 134.581 559.332 134.801C559.772 135.021 560.113 135.305 560.356 135.653C560.599 136.002 560.779 136.366 560.899 136.746C561.018 137.126 561.077 137.508 561.077 137.893C561.077 138.067 561.068 138.2 561.05 138.292H555.677C555.677 138.887 555.91 139.412 556.378 139.865C556.845 140.319 557.39 140.545 558.013 140.545C558.691 140.545 559.254 140.28 559.703 139.749H560.954C560.697 140.234 560.324 140.648 559.834 140.992C559.343 141.336 558.746 141.508 558.04 141.508C557.005 141.508 556.165 141.164 555.518 140.477C554.873 139.79 554.55 138.928 554.55 137.893C554.55 136.949 554.852 136.143 555.457 135.474C556.062 134.806 556.849 134.471 557.821 134.471ZM557.821 135.419C557.225 135.419 556.735 135.614 556.35 136.004C555.965 136.393 555.745 136.853 555.69 137.385H559.937C559.882 136.844 559.66 136.382 559.27 135.997C558.881 135.612 558.398 135.419 557.821 135.419Z" fill="#FEFEFE"/>
    <path d="M445.9 136.482C445.9 140.067 442.993 142.974 439.407 142.974C435.821 142.974 432.915 140.067 432.915 136.482C432.915 132.896 435.821 129.989 439.407 129.989C442.993 129.989 445.9 132.896 445.9 136.482Z" fill="#9EA4C9"/>
    <path d="M444.454 136.483C444.454 139.267 442.196 141.525 439.411 141.525C436.626 141.525 434.369 139.267 434.369 136.483C434.369 133.698 436.626 131.44 439.411 131.44C442.196 131.44 444.454 133.698 444.454 136.483Z" fill="#2E50E9"/>
    <path d="M217.926 383.439C217.926 384.575 218.288 385.52 219.011 386.277C219.735 387.032 220.633 387.41 221.705 387.41C222.777 387.41 223.677 387.032 224.405 386.277C225.134 385.52 225.498 384.575 225.498 383.439C225.498 382.303 225.145 381.357 224.44 380.601C223.734 379.845 222.823 379.467 221.705 379.467C220.633 379.467 219.735 379.843 219.011 380.594C218.288 381.345 217.926 382.293 217.926 383.439ZM216.744 383.439C216.744 382.073 217.218 380.901 218.166 379.92C219.114 378.94 220.299 378.45 221.719 378.45C223.203 378.45 224.401 378.94 225.312 379.92C226.224 380.901 226.68 382.073 226.68 383.439C226.68 384.822 226.203 385.999 225.251 386.97C224.297 387.942 223.121 388.427 221.719 388.427C220.903 388.427 220.168 388.278 219.513 387.981C218.858 387.683 218.334 387.289 217.94 386.799C217.546 386.309 217.248 385.777 217.046 385.204C216.845 384.632 216.744 384.043 216.744 383.439ZM227.587 386.49H228.741C228.915 387.112 229.392 387.424 230.17 387.424C230.674 387.424 231.059 387.316 231.325 387.101C231.59 386.886 231.723 386.609 231.723 386.27C231.723 385.921 231.588 385.646 231.318 385.445C231.048 385.243 230.738 385.143 230.39 385.143H229.442V384.236H230.39C230.738 384.236 231.02 384.142 231.235 383.954C231.45 383.766 231.558 383.521 231.558 383.219C231.558 382.953 231.444 382.727 231.215 382.539C230.986 382.351 230.67 382.257 230.266 382.257C229.936 382.257 229.65 382.335 229.408 382.49C229.165 382.646 229.007 382.857 228.934 383.123H227.806C227.916 382.564 228.196 382.124 228.645 381.803C229.094 381.483 229.63 381.322 230.253 381.322C230.949 381.322 231.519 381.489 231.963 381.824C232.408 382.158 232.63 382.591 232.63 383.123C232.63 383.919 232.254 384.433 231.503 384.662C231.906 384.781 232.225 384.985 232.458 385.273C232.692 385.562 232.809 385.894 232.809 386.27C232.809 386.893 232.58 387.399 232.122 387.788C231.663 388.178 231.009 388.372 230.156 388.372C229.488 388.372 228.92 388.207 228.452 387.877C227.985 387.547 227.697 387.085 227.587 386.49ZM237.179 381.322C237.747 381.322 238.251 381.432 238.69 381.652C239.13 381.872 239.471 382.156 239.714 382.504C239.957 382.852 240.138 383.216 240.257 383.597C240.376 383.977 240.436 384.359 240.436 384.744C240.436 384.918 240.427 385.051 240.408 385.143H235.035C235.035 385.738 235.268 386.263 235.736 386.716C236.203 387.17 236.748 387.396 237.371 387.396C238.049 387.396 238.613 387.131 239.061 386.6H240.312C240.056 387.085 239.682 387.499 239.192 387.843C238.702 388.187 238.104 388.359 237.399 388.359C236.364 388.359 235.523 388.015 234.877 387.328C234.231 386.641 233.908 385.779 233.908 384.744C233.908 383.8 234.211 382.994 234.815 382.325C235.42 381.657 236.208 381.322 237.179 381.322ZM237.179 382.27C236.583 382.27 236.093 382.465 235.708 382.855C235.323 383.244 235.104 383.704 235.049 384.236H239.295C239.24 383.695 239.018 383.232 238.629 382.848C238.239 382.463 237.756 382.27 237.179 382.27ZM247.664 381.542V388.125H246.578V385.143H242.964V388.125H241.879V381.542H242.964V384.236H246.578V381.542H247.664ZM258.205 378.752L259.235 388.125H258.122L257.586 382.655C257.504 381.748 257.43 380.919 257.366 380.168H257.325C257.151 380.736 256.885 381.57 256.528 382.669L254.7 388.125H253.711L251.883 382.518C251.416 381.08 251.164 380.296 251.127 380.168H251.072C251.008 381.093 250.939 381.872 250.866 382.504L250.289 388.125H249.19L250.275 378.752H251.663L253.697 384.785C253.908 385.39 254.077 385.963 254.205 386.503H254.26C254.37 386.054 254.544 385.481 254.783 384.785L256.83 378.752H258.205ZM265.722 381.542L262.094 391.354H261.049L262.245 388.125L259.826 381.542H260.939L262.327 385.376C262.556 385.953 262.703 386.416 262.767 386.764H262.794C263.042 385.995 263.193 385.532 263.248 385.376L264.622 381.542H265.722ZM272.483 381.542V388.125H271.397V385.143H267.783V388.125H266.697V381.542H267.783V384.236H271.397V381.542H272.483ZM280.825 381.542V388.125H279.739V387.245H279.711C279.098 387.987 278.296 388.359 277.306 388.359C276.381 388.359 275.586 388.031 274.922 387.376C274.258 386.721 273.926 385.871 273.926 384.827C273.926 383.809 274.253 382.971 274.908 382.312C275.563 381.652 276.385 381.322 277.375 381.322C278.282 381.322 279.066 381.712 279.725 382.49H279.739V381.542H280.825ZM275.685 383.033C275.263 383.542 275.053 384.139 275.053 384.827C275.053 385.514 275.263 386.114 275.685 386.627C276.106 387.14 276.697 387.396 277.458 387.396C278.099 387.396 278.655 387.156 279.127 386.675C279.599 386.194 279.835 385.591 279.835 384.868C279.835 384.098 279.608 383.473 279.155 382.992C278.701 382.511 278.144 382.27 277.485 382.27C276.706 382.27 276.106 382.525 275.685 383.033ZM282.721 388.125V381.542H283.806V384.524C283.806 385.33 283.792 386.004 283.765 386.545H283.792C283.93 386.288 284.237 385.853 284.714 385.239L287.53 381.542H288.506V388.125H287.42V385.143C287.42 384.337 287.434 383.663 287.462 383.123H287.434C287.297 383.379 286.99 383.814 286.514 384.428L283.696 388.125H282.721ZM286.912 378.312H287.819C287.792 378.89 287.574 379.371 287.166 379.756C286.759 380.14 286.262 380.333 285.675 380.333C285.08 380.333 284.581 380.14 284.177 379.756C283.774 379.371 283.559 378.89 283.531 378.312H284.439C284.457 378.652 284.581 378.92 284.81 379.117C285.039 379.314 285.327 379.412 285.675 379.412C286.023 379.412 286.312 379.311 286.541 379.11C286.77 378.908 286.894 378.642 286.912 378.312ZM290.472 388.125V378.752H295.762V379.797H291.612V388.125H290.472ZM301.287 381.542V388.125H300.201V387.245H300.173C299.56 387.987 298.758 388.359 297.769 388.359C296.843 388.359 296.048 388.031 295.384 387.376C294.72 386.721 294.388 385.871 294.388 384.827C294.388 383.809 294.715 382.971 295.37 382.312C296.026 381.652 296.848 381.322 297.837 381.322C298.744 381.322 299.528 381.712 300.187 382.49H300.201V381.542H301.287ZM296.147 383.033C295.725 383.542 295.515 384.139 295.515 384.827C295.515 385.514 295.725 386.114 296.147 386.627C296.568 387.14 297.159 387.396 297.92 387.396C298.561 387.396 299.117 387.156 299.589 386.675C300.061 386.194 300.297 385.591 300.297 384.868C300.297 384.098 300.07 383.473 299.617 382.992C299.163 382.511 298.607 382.27 297.947 382.27C297.168 382.27 296.568 382.525 296.147 383.033ZM302.619 386.49H303.774C303.948 387.112 304.424 387.424 305.203 387.424C305.707 387.424 306.092 387.316 306.357 387.101C306.623 386.886 306.756 386.609 306.756 386.27C306.756 385.921 306.621 385.646 306.35 385.445C306.08 385.243 305.771 385.143 305.423 385.143H304.474V384.236H305.423C305.771 384.236 306.053 384.142 306.268 383.954C306.483 383.766 306.591 383.521 306.591 383.219C306.591 382.953 306.476 382.727 306.247 382.539C306.018 382.351 305.702 382.257 305.299 382.257C304.969 382.257 304.683 382.335 304.44 382.49C304.197 382.646 304.04 382.857 303.966 383.123H302.839C302.949 382.564 303.229 382.124 303.678 381.803C304.127 381.483 304.662 381.322 305.286 381.322C305.982 381.322 306.552 381.489 306.996 381.824C307.441 382.158 307.663 382.591 307.663 383.123C307.663 383.919 307.287 384.433 306.536 384.662C306.939 384.781 307.258 384.985 307.491 385.273C307.725 385.562 307.841 385.894 307.841 386.27C307.841 386.893 307.613 387.399 307.155 387.788C306.696 388.178 306.041 388.372 305.189 388.372C304.52 388.372 303.952 388.207 303.485 387.877C303.018 387.547 302.729 387.085 302.619 386.49Z" fill="#FEFEFE"/>
    <path d="M211.131 382.64C211.131 386.226 208.225 389.133 204.639 389.133C201.053 389.133 198.146 386.226 198.146 382.64C198.146 379.054 201.053 376.148 204.639 376.148C208.225 376.148 211.131 379.054 211.131 382.64Z" fill="#9EA4C9"/>
    <path d="M209.679 382.639C209.679 385.424 207.422 387.681 204.636 387.681C201.852 387.681 199.595 385.424 199.595 382.639C199.595 379.854 201.852 377.597 204.636 377.597C207.422 377.597 209.679 379.854 209.679 382.639Z" fill="#2E50E9"/>
    <path d="M283.663 258.881L284.694 268.254H283.581L283.045 262.784C282.962 261.877 282.889 261.048 282.825 260.297H282.784C282.61 260.865 282.344 261.698 281.987 262.798L280.159 268.254H279.169L277.342 262.647C276.874 261.208 276.623 260.425 276.586 260.297H276.531C276.467 261.222 276.398 262.001 276.325 262.633L275.748 268.254H274.648L275.734 258.881H277.122L279.156 264.914C279.366 265.519 279.536 266.092 279.664 266.632H279.719C279.829 266.183 280.003 265.61 280.241 264.914L282.289 258.881H283.663ZM292.665 261.671V268.254H291.579V267.374H291.551C290.938 268.116 290.136 268.487 289.147 268.487C288.221 268.487 287.426 268.16 286.762 267.505C286.098 266.85 285.766 266 285.766 264.956C285.766 263.938 286.093 263.1 286.748 262.441C287.404 261.781 288.226 261.451 289.215 261.451C290.122 261.451 290.906 261.84 291.565 262.619H291.579V261.671H292.665ZM287.525 263.162C287.103 263.67 286.893 264.268 286.893 264.956C286.893 265.642 287.103 266.243 287.525 266.756C287.946 267.269 288.537 267.525 289.298 267.525C289.939 267.525 290.495 267.285 290.967 266.804C291.439 266.323 291.675 265.72 291.675 264.997C291.675 264.227 291.448 263.602 290.995 263.121C290.541 262.64 289.985 262.399 289.325 262.399C288.546 262.399 287.946 262.654 287.525 263.162ZM300.347 261.671V268.254H299.261V265.271H295.646V268.254H294.561V261.671H295.646V264.365H299.261V261.671H300.347ZM306.791 261.671V262.647H303.328V268.254H302.243V261.671H306.791ZM307.877 268.254V261.671H308.963V264.653C308.963 265.459 308.949 266.133 308.922 266.673H308.949C309.087 266.417 309.394 265.982 309.87 265.368L312.687 261.671H313.663V268.254H312.577V265.271C312.577 264.466 312.591 263.792 312.619 263.251H312.591C312.454 263.508 312.146 263.943 311.67 264.557L308.853 268.254H307.877ZM318.569 261.451C319.412 261.451 320.083 261.65 320.582 262.049C321.081 262.448 321.4 262.885 321.537 263.361H320.328C320.026 262.72 319.439 262.399 318.569 262.399C317.909 262.399 317.355 262.622 316.906 263.066C316.457 263.51 316.233 264.14 316.233 264.956C316.233 265.697 316.459 266.312 316.913 266.797C317.366 267.282 317.941 267.525 318.638 267.525C319.48 267.525 320.076 267.163 320.424 266.44H321.633C321.432 267.017 321.084 267.502 320.589 267.896C320.094 268.29 319.439 268.487 318.624 268.487C317.598 268.487 316.755 268.155 316.095 267.491C315.436 266.827 315.106 265.977 315.106 264.942C315.106 263.952 315.424 263.123 316.061 262.454C316.698 261.785 317.533 261.451 318.569 261.451ZM327.034 261.671V262.647H325.179V268.254H324.093V262.647H322.211V261.671H327.034ZM334.359 261.671V268.254H333.273V267.374H333.246C332.632 268.116 331.83 268.487 330.841 268.487C329.916 268.487 329.12 268.16 328.456 267.505C327.792 266.85 327.46 266 327.46 264.956C327.46 263.938 327.788 263.1 328.443 262.441C329.098 261.781 329.92 261.451 330.909 261.451C331.817 261.451 332.6 261.84 333.26 262.619H333.273V261.671H334.359ZM329.219 263.162C328.797 263.67 328.587 264.268 328.587 264.956C328.587 265.642 328.797 266.243 329.219 266.756C329.641 267.269 330.231 267.525 330.992 267.525C331.633 267.525 332.19 267.285 332.661 266.804C333.133 266.323 333.37 265.72 333.37 264.997C333.37 264.227 333.143 263.602 332.689 263.121C332.235 262.64 331.679 262.399 331.019 262.399C330.241 262.399 329.641 262.654 329.219 263.162ZM341.216 261.671L337.588 271.483H336.544L337.739 268.254L335.321 261.671H336.434L337.822 265.505C338.051 266.082 338.197 266.545 338.261 266.893H338.289C338.536 266.124 338.688 265.661 338.743 265.505L340.117 261.671H341.216ZM349.077 261.671L350.259 268.254H349.242L348.623 264.557C348.513 263.906 348.436 263.398 348.39 263.032H348.349C348.22 263.609 348.065 264.117 347.881 264.557L346.37 268.254H345.517L344.006 264.475C343.786 263.916 343.625 263.435 343.525 263.032H343.483C343.392 263.737 343.328 264.213 343.291 264.461L342.646 268.254H341.642L342.852 261.671H343.91L345.586 265.835C345.714 266.137 345.829 266.495 345.93 266.907H345.971C346.09 266.467 346.209 266.11 346.329 265.835L348.046 261.671H349.077ZM356.567 261.671L352.939 271.483H351.894L353.09 268.254L350.671 261.671H351.784L353.172 265.505C353.401 266.082 353.548 266.545 353.612 266.893H353.639C353.887 266.124 354.038 265.661 354.093 265.505L355.467 261.671H356.567ZM363.328 261.671V268.254H362.242V265.271H358.628V268.254H357.542V261.671H358.628V264.365H362.242V261.671H363.328ZM371.67 261.671V268.254H370.584V267.374H370.556C369.943 268.116 369.141 268.487 368.151 268.487C367.226 268.487 366.431 268.16 365.767 267.505C365.103 266.85 364.771 266 364.771 264.956C364.771 263.938 365.098 263.1 365.753 262.441C366.408 261.781 367.23 261.451 368.22 261.451C369.127 261.451 369.91 261.84 370.57 262.619H370.584V261.671H371.67ZM366.53 263.162C366.108 263.67 365.898 264.268 365.898 264.956C365.898 265.642 366.108 266.243 366.53 266.756C366.951 267.269 367.542 267.525 368.303 267.525C368.944 267.525 369.5 267.285 369.972 266.804C370.444 266.323 370.68 265.72 370.68 264.997C370.68 264.227 370.453 263.602 370 263.121C369.546 262.64 368.989 262.399 368.33 262.399C367.551 262.399 366.951 262.654 366.53 263.162ZM373.566 268.254V261.671H374.651V264.653C374.651 265.459 374.637 266.133 374.61 266.673H374.637C374.775 266.417 375.082 265.982 375.559 265.368L378.375 261.671H379.351V268.254H378.265V265.271C378.265 264.466 378.279 263.792 378.307 263.251H378.279C378.142 263.508 377.835 263.943 377.359 264.557L374.541 268.254H373.566ZM377.757 258.441H378.664C378.637 259.019 378.419 259.5 378.011 259.884C377.604 260.269 377.107 260.462 376.52 260.462C375.925 260.462 375.426 260.269 375.022 259.884C374.619 259.5 374.404 259.019 374.376 258.441H375.284C375.302 258.781 375.426 259.049 375.655 259.246C375.884 259.443 376.172 259.541 376.52 259.541C376.868 259.541 377.157 259.44 377.386 259.239C377.615 259.037 377.739 258.771 377.757 258.441ZM385.796 261.671V262.647H382.333V268.254H381.248V261.671H385.796ZM393.121 261.671V268.254H392.035V267.374H392.008C391.394 268.116 390.593 268.487 389.603 268.487C388.678 268.487 387.883 268.16 387.219 267.505C386.554 266.85 386.222 266 386.222 264.956C386.222 263.938 386.55 263.1 387.205 262.441C387.86 261.781 388.682 261.451 389.671 261.451C390.579 261.451 391.362 261.84 392.022 262.619H392.035V261.671H393.121ZM387.981 263.162C387.56 263.67 387.349 264.268 387.349 264.956C387.349 265.642 387.56 266.243 387.981 266.756C388.403 267.269 388.994 267.525 389.754 267.525C390.395 267.525 390.952 267.285 391.424 266.804C391.895 266.323 392.132 265.72 392.132 264.997C392.132 264.227 391.905 263.602 391.451 263.121C390.998 262.64 390.441 262.399 389.781 262.399C389.003 262.399 388.403 262.654 387.981 263.162ZM394.454 266.618H395.608C395.782 267.241 396.259 267.553 397.037 267.553C397.541 267.553 397.926 267.445 398.192 267.23C398.458 267.015 398.59 266.737 398.59 266.399C398.59 266.05 398.455 265.775 398.185 265.574C397.915 265.372 397.605 265.271 397.257 265.271H396.309V264.365H397.257C397.605 264.365 397.887 264.271 398.103 264.083C398.318 263.895 398.426 263.65 398.426 263.348C398.426 263.082 398.311 262.855 398.082 262.668C397.853 262.48 397.537 262.386 397.134 262.386C396.804 262.386 396.518 262.464 396.275 262.619C396.032 262.775 395.874 262.986 395.801 263.251H394.674C394.784 262.693 395.063 262.253 395.512 261.932C395.961 261.611 396.497 261.451 397.12 261.451C397.816 261.451 398.387 261.618 398.831 261.953C399.275 262.287 399.497 262.72 399.497 263.251C399.497 264.048 399.122 264.562 398.371 264.791C398.774 264.91 399.092 265.113 399.325 265.402C399.559 265.691 399.676 266.023 399.676 266.399C399.676 267.021 399.447 267.528 398.989 267.917C398.531 268.307 397.876 268.501 397.024 268.501C396.355 268.501 395.787 268.336 395.32 268.006C394.852 267.676 394.564 267.214 394.454 266.618Z" fill="#FEFEFE"/>
    <path d="M266.579 265.028C266.579 268.614 263.672 271.521 260.086 271.521C256.5 271.521 253.594 268.614 253.594 265.028C253.594 261.443 256.5 258.536 260.086 258.536C263.672 258.536 266.579 261.443 266.579 265.028Z" fill="#9EA4C9"/>
    <path d="M265.131 265.029C265.131 267.814 262.873 270.071 260.089 270.071C257.304 270.071 255.047 267.814 255.047 265.029C255.047 262.245 257.304 259.987 260.089 259.987C262.873 259.987 265.131 262.245 265.131 265.029Z" fill="#2E50E9"/>
    <path d="M246.165 290.903L241.52 286.175V290.903H240.38V281.53H241.52V286.079L246.042 281.53H247.526L242.895 286.079L247.718 290.903H246.165ZM254.686 284.32V290.903H253.6V290.023H253.573C252.959 290.765 252.157 291.136 251.168 291.136C250.242 291.136 249.447 290.809 248.783 290.154C248.119 289.499 247.787 288.649 247.787 287.605C247.787 286.587 248.115 285.749 248.769 285.09C249.425 284.43 250.247 284.1 251.236 284.1C252.143 284.1 252.927 284.489 253.586 285.268H253.6V284.32H254.686ZM249.546 285.811C249.124 286.32 248.914 286.917 248.914 287.605C248.914 288.291 249.124 288.892 249.546 289.405C249.968 289.918 250.558 290.174 251.319 290.174C251.96 290.174 252.517 289.934 252.988 289.453C253.46 288.972 253.696 288.369 253.696 287.646C253.696 286.876 253.47 286.251 253.016 285.77C252.562 285.289 252.006 285.048 251.346 285.048C250.567 285.048 249.968 285.303 249.546 285.811ZM256.582 294.132V284.32H257.668V285.255H257.695C258.345 284.485 259.17 284.1 260.169 284.1C261.177 284.1 261.98 284.448 262.581 285.145C263.181 285.841 263.481 286.661 263.481 287.605C263.481 288.603 263.162 289.441 262.526 290.119C261.889 290.798 261.09 291.136 260.127 291.136C259.129 291.136 258.318 290.765 257.695 290.023H257.668V294.132H256.582ZM262.354 287.605C262.354 286.908 262.141 286.308 261.715 285.804C261.289 285.301 260.696 285.048 259.935 285.048C259.267 285.048 258.705 285.289 258.252 285.77C257.798 286.251 257.572 286.876 257.572 287.646C257.572 288.379 257.807 288.984 258.279 289.46C258.751 289.936 259.312 290.174 259.963 290.174C260.714 290.174 261.3 289.918 261.722 289.405C262.143 288.892 262.354 288.291 262.354 287.605ZM271.369 284.32V290.903H270.283V290.023H270.256C269.642 290.765 268.84 291.136 267.851 291.136C266.926 291.136 266.13 290.809 265.466 290.154C264.802 289.499 264.47 288.649 264.47 287.605C264.47 286.587 264.798 285.749 265.453 285.09C266.108 284.43 266.93 284.1 267.919 284.1C268.827 284.1 269.61 284.489 270.27 285.268H270.283V284.32H271.369ZM266.229 285.811C265.807 286.32 265.597 286.917 265.597 287.605C265.597 288.291 265.807 288.892 266.229 289.405C266.651 289.918 267.241 290.174 268.002 290.174C268.643 290.174 269.2 289.934 269.671 289.453C270.143 288.972 270.379 288.369 270.379 287.646C270.379 286.876 270.153 286.251 269.699 285.77C269.245 285.289 268.689 285.048 268.029 285.048C267.251 285.048 266.651 285.303 266.229 285.811ZM276.151 290.903V287.508L273.54 290.903H272.207L274.997 287.399L272.331 284.32H273.567L276.151 287.33V284.32H277.237V287.33L279.82 284.32H281.057L278.391 287.399L281.181 290.903H279.848L277.237 287.508V290.903H276.151ZM288.465 284.32V290.903H287.379V290.023H287.351C286.738 290.765 285.936 291.136 284.946 291.136C284.021 291.136 283.226 290.809 282.562 290.154C281.898 289.499 281.566 288.649 281.566 287.605C281.566 286.587 281.893 285.749 282.548 285.09C283.203 284.43 284.025 284.1 285.015 284.1C285.922 284.1 286.706 284.489 287.365 285.268H287.379V284.32H288.465ZM283.325 285.811C282.903 286.32 282.693 286.917 282.693 287.605C282.693 288.291 282.903 288.892 283.325 289.405C283.746 289.918 284.337 290.174 285.098 290.174C285.739 290.174 286.295 289.934 286.767 289.453C287.239 288.972 287.475 288.369 287.475 287.646C287.475 286.876 287.248 286.251 286.795 285.77C286.341 285.289 285.784 285.048 285.125 285.048C284.346 285.048 283.746 285.303 283.325 285.811ZM296.146 284.32V290.903H295.06V287.921H291.446V290.903H290.361V284.32H291.446V287.014H295.06V284.32H296.146ZM298.757 287.605C298.757 288.328 298.993 288.933 299.465 289.419C299.937 289.904 300.498 290.147 301.148 290.147C301.836 290.147 302.406 289.904 302.859 289.419C303.313 288.933 303.54 288.328 303.54 287.605C303.54 286.89 303.324 286.29 302.894 285.804C302.463 285.319 301.895 285.076 301.19 285.076C300.493 285.076 299.914 285.314 299.451 285.791C298.988 286.267 298.757 286.872 298.757 287.605ZM301.712 282.602C300.008 282.904 299.032 283.803 298.785 285.296H298.826C299.064 284.957 299.412 284.673 299.871 284.444C300.328 284.215 300.791 284.1 301.258 284.1C302.266 284.1 303.086 284.432 303.718 285.097C304.35 285.761 304.666 286.597 304.666 287.605C304.666 288.585 304.332 289.419 303.663 290.105C302.994 290.793 302.156 291.136 301.148 291.136C300.132 291.136 299.298 290.784 298.647 290.078C297.997 289.373 297.672 288.365 297.672 287.055C297.672 286.093 297.775 285.266 297.981 284.574C298.187 283.883 298.485 283.338 298.874 282.939C299.263 282.54 299.683 282.236 300.132 282.025C300.58 281.815 301.107 281.659 301.712 281.558C302.39 281.439 302.958 281.223 303.416 280.912L303.883 281.833C303.214 282.218 302.49 282.474 301.712 282.602ZM312.555 284.32V290.903H311.469V290.023H311.441C310.828 290.765 310.026 291.136 309.037 291.136C308.111 291.136 307.316 290.809 306.652 290.154C305.988 289.499 305.656 288.649 305.656 287.605C305.656 286.587 305.983 285.749 306.638 285.09C307.294 284.43 308.116 284.1 309.105 284.1C310.012 284.1 310.796 284.489 311.455 285.268H311.469V284.32H312.555ZM307.415 285.811C306.993 286.32 306.783 286.917 306.783 287.605C306.783 288.291 306.993 288.892 307.415 289.405C307.836 289.918 308.427 290.174 309.188 290.174C309.829 290.174 310.385 289.934 310.857 289.453C311.329 288.972 311.565 288.369 311.565 287.646C311.565 286.876 311.338 286.251 310.885 285.77C310.431 285.289 309.875 285.048 309.215 285.048C308.436 285.048 307.836 285.303 307.415 285.811ZM317.46 284.1C318.303 284.1 318.974 284.299 319.474 284.698C319.973 285.097 320.292 285.534 320.429 286.01H319.219C318.917 285.369 318.331 285.048 317.46 285.048C316.801 285.048 316.246 285.271 315.797 285.715C315.349 286.159 315.124 286.789 315.124 287.605C315.124 288.346 315.351 288.961 315.804 289.446C316.258 289.931 316.833 290.174 317.529 290.174C318.372 290.174 318.968 289.812 319.316 289.089H320.525C320.324 289.666 319.975 290.151 319.48 290.545C318.986 290.94 318.331 291.136 317.515 291.136C316.489 291.136 315.646 290.804 314.987 290.14C314.327 289.476 313.997 288.626 313.997 287.591C313.997 286.601 314.316 285.772 314.953 285.103C315.589 284.435 316.425 284.1 317.46 284.1ZM328.798 284.32L329.98 290.903H328.963L328.344 287.206C328.234 286.555 328.157 286.047 328.111 285.681H328.07C327.941 286.258 327.786 286.766 327.602 287.206L326.091 290.903H325.238L323.727 287.124C323.507 286.565 323.347 286.084 323.246 285.681H323.205C323.113 286.386 323.049 286.862 323.012 287.11L322.367 290.903H321.363L322.573 284.32H323.631L325.307 288.484C325.435 288.786 325.55 289.144 325.651 289.556H325.692C325.811 289.116 325.93 288.759 326.05 288.484L327.767 284.32H328.798ZM336.288 284.32L332.66 294.132H331.615L332.811 290.903L330.392 284.32H331.505L332.893 288.154C333.122 288.731 333.269 289.194 333.333 289.542H333.361C333.608 288.773 333.759 288.31 333.814 288.154L335.188 284.32H336.288ZM343.049 284.32V290.903H341.963V287.921H338.349V290.903H337.263V284.32H338.349V287.014H341.963V284.32H343.049ZM351.391 284.32V290.903H350.305V290.023H350.277C349.664 290.765 348.862 291.136 347.873 291.136C346.947 291.136 346.152 290.809 345.488 290.154C344.824 289.499 344.492 288.649 344.492 287.605C344.492 286.587 344.819 285.749 345.474 285.09C346.129 284.43 346.951 284.1 347.941 284.1C348.848 284.1 349.632 284.489 350.291 285.268H350.305V284.32H351.391ZM346.251 285.811C345.829 286.32 345.619 286.917 345.619 287.605C345.619 288.291 345.829 288.892 346.251 289.405C346.672 289.918 347.263 290.174 348.024 290.174C348.665 290.174 349.221 289.934 349.693 289.453C350.165 288.972 350.401 288.369 350.401 287.646C350.401 286.876 350.174 286.251 349.721 285.77C349.267 285.289 348.71 285.048 348.051 285.048C347.272 285.048 346.672 285.303 346.251 285.811ZM353.287 290.903V284.32H354.372V287.302C354.372 288.108 354.358 288.782 354.331 289.322H354.359C354.496 289.066 354.803 288.631 355.28 288.017L358.096 284.32H359.072V290.903H357.987V287.921C357.987 287.115 358 286.441 358.028 285.901H358C357.863 286.157 357.556 286.592 357.08 287.206L354.262 290.903H353.287ZM357.478 281.09H358.385C358.358 281.668 358.14 282.149 357.732 282.533C357.325 282.918 356.828 283.111 356.241 283.111C355.646 283.111 355.147 282.918 354.743 282.533C354.34 282.149 354.125 281.668 354.098 281.09H355.005C355.023 281.43 355.147 281.698 355.376 281.895C355.605 282.092 355.893 282.19 356.241 282.19C356.589 282.19 356.878 282.089 357.107 281.888C357.336 281.686 357.46 281.42 357.478 281.09Z" fill="#FEFEFE"/>
    <path d="M233.306 286.872C233.306 290.458 230.399 293.365 226.813 293.365C223.227 293.365 220.32 290.458 220.32 286.872C220.32 283.286 223.227 280.38 226.813 280.38C230.399 280.38 233.306 283.286 233.306 286.872Z" fill="#9EA4C9"/>
    <path d="M231.853 286.87C231.853 289.655 229.595 291.913 226.811 291.913C224.026 291.913 221.769 289.655 221.769 286.87C221.769 284.085 224.026 281.828 226.811 281.828C229.595 281.828 231.853 284.085 231.853 286.87Z" fill="#2E50E9"/>
    <path d="M638.86 189.713C638.86 193.299 635.953 196.206 632.367 196.206C628.781 196.206 625.875 193.299 625.875 189.713C625.875 186.127 628.781 183.221 632.367 183.221C635.953 183.221 638.86 186.127 638.86 189.713Z" fill="#9EA4C9"/>
    <path d="M637.412 189.714C637.412 192.499 635.155 194.756 632.37 194.756C629.585 194.756 627.328 192.499 627.328 189.714C627.328 186.929 629.585 184.672 632.37 184.672C635.155 184.672 637.412 186.929 637.412 189.714Z" fill="#2E50E9"/>
    <path d="M649.083 194.651L644.438 189.924V194.651H643.298V185.279H644.438V189.828L648.96 185.279H650.444L645.813 189.828L650.636 194.651H649.083ZM657.604 188.069V194.651H656.518V193.772H656.491C655.877 194.514 655.075 194.885 654.086 194.885C653.16 194.885 652.365 194.557 651.701 193.902C651.037 193.247 650.705 192.397 650.705 191.353C650.705 190.336 651.033 189.498 651.687 188.838C652.343 188.179 653.165 187.849 654.154 187.849C655.061 187.849 655.845 188.238 656.504 189.017H656.518V188.069H657.604ZM652.464 189.56C652.042 190.068 651.832 190.666 651.832 191.353C651.832 192.04 652.042 192.64 652.464 193.153C652.886 193.666 653.476 193.923 654.237 193.923C654.878 193.923 655.434 193.683 655.906 193.201C656.378 192.72 656.614 192.118 656.614 191.394C656.614 190.625 656.388 190 655.934 189.518C655.48 189.037 654.924 188.797 654.264 188.797C653.485 188.797 652.886 189.051 652.464 189.56ZM658.937 193.016H660.091C660.265 193.639 660.741 193.95 661.52 193.95C662.024 193.95 662.409 193.843 662.674 193.628C662.94 193.412 663.073 193.135 663.073 192.796C663.073 192.448 662.938 192.173 662.668 191.972C662.397 191.77 662.088 191.669 661.74 191.669H660.792V190.762H661.74C662.088 190.762 662.37 190.668 662.585 190.48C662.8 190.293 662.908 190.048 662.908 189.745C662.908 189.479 662.793 189.253 662.565 189.065C662.336 188.877 662.02 188.783 661.616 188.783C661.286 188.783 661 188.861 660.757 189.017C660.515 189.172 660.357 189.383 660.283 189.649H659.156C659.266 189.09 659.546 188.65 659.995 188.33C660.444 188.009 660.979 187.849 661.603 187.849C662.299 187.849 662.869 188.016 663.313 188.35C663.758 188.685 663.98 189.117 663.98 189.649C663.98 190.446 663.604 190.959 662.853 191.188C663.256 191.307 663.575 191.511 663.808 191.8C664.042 192.088 664.159 192.42 664.159 192.796C664.159 193.419 663.93 193.925 663.472 194.314C663.013 194.704 662.358 194.899 661.506 194.899C660.838 194.899 660.27 194.734 659.802 194.404C659.335 194.074 659.046 193.612 658.937 193.016ZM670.26 188.069V189.044H666.797V194.651H665.712V188.069H670.26ZM673.957 187.849C674.525 187.849 675.029 187.959 675.469 188.179C675.908 188.398 676.249 188.682 676.492 189.03C676.735 189.379 676.916 189.743 677.035 190.123C677.154 190.503 677.214 190.886 677.214 191.27C677.214 191.445 677.205 191.578 677.186 191.669H671.813C671.813 192.265 672.047 192.789 672.514 193.243C672.981 193.696 673.526 193.923 674.149 193.923C674.827 193.923 675.391 193.657 675.839 193.126H677.09C676.834 193.612 676.46 194.026 675.97 194.369C675.48 194.713 674.882 194.885 674.177 194.885C673.142 194.885 672.301 194.541 671.655 193.854C671.009 193.167 670.686 192.306 670.686 191.27C670.686 190.327 670.989 189.521 671.593 188.852C672.198 188.183 672.986 187.849 673.957 187.849ZM673.957 188.797C673.362 188.797 672.871 188.991 672.486 189.381C672.102 189.77 671.882 190.231 671.827 190.762H676.073C676.018 190.222 675.796 189.759 675.407 189.374C675.018 188.989 674.534 188.797 673.957 188.797ZM678.657 197.881V188.069H679.742V189.003H679.77C680.42 188.234 681.245 187.849 682.244 187.849C683.251 187.849 684.055 188.197 684.655 188.893C685.255 189.589 685.555 190.409 685.555 191.353C685.555 192.352 685.237 193.19 684.6 193.868C683.964 194.546 683.164 194.885 682.202 194.885C681.204 194.885 680.393 194.514 679.77 193.772H679.742V197.881H678.657ZM684.429 191.353C684.429 190.657 684.216 190.057 683.789 189.553C683.363 189.049 682.77 188.797 682.01 188.797C681.341 188.797 680.78 189.037 680.326 189.518C679.873 190 679.646 190.625 679.646 191.394C679.646 192.127 679.882 192.732 680.354 193.208C680.826 193.685 681.387 193.923 682.037 193.923C682.789 193.923 683.375 193.666 683.796 193.153C684.218 192.64 684.429 192.04 684.429 191.353ZM693.883 188.069L695.065 194.651H694.048L693.43 190.954C693.32 190.304 693.242 189.796 693.196 189.429H693.155C693.026 190.006 692.871 190.515 692.687 190.954L691.176 194.651H690.324L688.812 190.872C688.592 190.313 688.432 189.832 688.331 189.429H688.29C688.199 190.135 688.134 190.611 688.098 190.858L687.452 194.651H686.449L687.658 188.069H688.716L690.393 192.233C690.521 192.535 690.635 192.892 690.736 193.304H690.777C690.896 192.864 691.015 192.507 691.135 192.233L692.852 188.069H693.883ZM701.373 188.069L697.745 197.881H696.701L697.896 194.651L695.478 188.069H696.591L697.978 191.903C698.207 192.48 698.354 192.942 698.418 193.291H698.446C698.693 192.521 698.845 192.059 698.899 191.903L700.274 188.069H701.373ZM708.134 188.069V194.651H707.048V191.669H703.434V194.651H702.349V188.069H703.434V190.762H707.048V188.069H708.134ZM716.476 188.069V194.651H715.39V193.772H715.363C714.749 194.514 713.947 194.885 712.958 194.885C712.032 194.885 711.237 194.557 710.573 193.902C709.909 193.247 709.577 192.397 709.577 191.353C709.577 190.336 709.905 189.498 710.56 188.838C711.215 188.179 712.037 187.849 713.026 187.849C713.933 187.849 714.717 188.238 715.377 189.017H715.39V188.069H716.476ZM711.336 189.56C710.914 190.068 710.704 190.666 710.704 191.353C710.704 192.04 710.914 192.64 711.336 193.153C711.758 193.666 712.348 193.923 713.109 193.923C713.75 193.923 714.307 193.683 714.778 193.201C715.25 192.72 715.486 192.118 715.486 191.394C715.486 190.625 715.26 190 714.806 189.518C714.352 189.037 713.796 188.797 713.136 188.797C712.358 188.797 711.758 189.051 711.336 189.56ZM718.372 194.651V188.069H719.458V191.05C719.458 191.857 719.444 192.53 719.417 193.071H719.444C719.582 192.814 719.888 192.379 720.365 191.765L723.182 188.069H724.158V194.651H723.072V191.669C723.072 190.863 723.086 190.19 723.113 189.649H723.086C722.949 189.906 722.641 190.341 722.165 190.954L719.348 194.651H718.372ZM722.564 184.839H723.471C723.443 185.416 723.226 185.897 722.818 186.282C722.41 186.667 721.913 186.859 721.327 186.859C720.731 186.859 720.232 186.667 719.829 186.282C719.426 185.897 719.211 185.416 719.183 184.839H720.09C720.108 185.178 720.232 185.446 720.461 185.643C720.69 185.84 720.979 185.938 721.327 185.938C721.675 185.938 721.963 185.838 722.192 185.636C722.421 185.434 722.545 185.169 722.564 184.839Z" fill="#FEFEFE"/>
    <path d="M204.584 182.146C204.584 185.732 201.678 188.638 198.092 188.638C194.506 188.638 191.6 185.732 191.6 182.146C191.6 178.56 194.506 175.653 198.092 175.653C201.678 175.653 204.584 178.56 204.584 182.146Z" fill="#9EA4C9"/>
    <path d="M203.132 182.146C203.132 184.93 200.875 187.188 198.09 187.188C195.305 187.188 193.048 184.93 193.048 182.146C193.048 179.361 195.305 177.104 198.09 177.104C200.875 177.104 203.132 179.361 203.132 182.146Z" fill="#2E50E9"/>
    <path d="M212.659 178.054C214.033 178.054 215.183 178.524 216.108 179.463C217.033 180.402 217.496 181.586 217.496 183.015C217.496 184.463 217.047 185.661 216.149 186.609C215.252 187.557 214.088 188.031 212.659 188.031C210.606 188.031 209.127 187.069 208.22 185.145H209.512C209.768 185.722 210.16 186.179 210.686 186.513C211.213 186.847 211.852 187.014 212.604 187.014C213.621 187.014 214.473 186.673 215.16 185.991C215.847 185.308 216.227 184.445 216.3 183.4H211.051V182.356H216.273C216.144 181.329 215.737 180.526 215.05 179.944C214.363 179.362 213.57 179.071 212.672 179.071C211.93 179.071 211.301 179.227 210.783 179.538C210.265 179.85 209.887 180.258 209.649 180.762H208.357C208.495 180.432 208.671 180.12 208.886 179.827C209.102 179.534 209.379 179.248 209.718 178.968C210.057 178.689 210.478 178.466 210.982 178.301C211.486 178.136 212.045 178.054 212.659 178.054ZM225.852 181.146L227.033 187.729H226.016L225.398 184.032C225.288 183.382 225.21 182.873 225.164 182.507H225.123C224.995 183.084 224.839 183.592 224.656 184.032L223.144 187.729H222.292L220.781 183.95C220.561 183.391 220.4 182.91 220.3 182.507H220.258C220.167 183.212 220.102 183.688 220.066 183.936L219.42 187.729H218.417L219.626 181.146H220.684L222.361 185.31C222.489 185.612 222.604 185.97 222.704 186.382H222.746C222.865 185.942 222.984 185.585 223.103 185.31L224.821 181.146H225.852ZM229.095 184.431C229.095 185.154 229.331 185.759 229.802 186.245C230.274 186.73 230.835 186.973 231.486 186.973C232.173 186.973 232.743 186.73 233.197 186.245C233.65 185.759 233.877 185.154 233.877 184.431C233.877 183.716 233.662 183.116 233.231 182.631C232.801 182.145 232.232 181.902 231.527 181.902C230.831 181.902 230.251 182.14 229.789 182.617C229.326 183.093 229.095 183.698 229.095 184.431ZM232.049 179.428C230.345 179.731 229.37 180.629 229.122 182.122H229.164C229.402 181.783 229.75 181.499 230.208 181.27C230.666 181.041 231.129 180.927 231.596 180.927C232.604 180.927 233.424 181.258 234.056 181.923C234.688 182.587 235.004 183.423 235.004 184.431C235.004 185.411 234.67 186.245 234.001 186.932C233.332 187.619 232.494 187.963 231.486 187.963C230.469 187.963 229.635 187.61 228.985 186.904C228.334 186.199 228.009 185.191 228.009 183.881C228.009 182.919 228.112 182.092 228.318 181.4C228.524 180.709 228.822 180.164 229.212 179.765C229.601 179.367 230.02 179.062 230.469 178.851C230.918 178.641 231.445 178.485 232.049 178.384C232.727 178.265 233.295 178.049 233.753 177.738L234.221 178.659C233.552 179.044 232.828 179.3 232.049 179.428ZM242.892 181.146V187.729H241.806V186.849H241.779C241.165 187.591 240.364 187.963 239.374 187.963C238.449 187.963 237.654 187.635 236.99 186.98C236.325 186.325 235.993 185.475 235.993 184.431C235.993 183.414 236.321 182.576 236.976 181.916C237.631 181.256 238.453 180.927 239.443 180.927C240.35 180.927 241.133 181.316 241.793 182.094H241.806V181.146H242.892ZM237.752 182.638C237.331 183.146 237.12 183.743 237.12 184.431C237.12 185.118 237.331 185.718 237.752 186.231C238.174 186.744 238.765 187 239.525 187C240.166 187 240.723 186.76 241.195 186.279C241.666 185.798 241.903 185.196 241.903 184.472C241.903 183.702 241.676 183.077 241.222 182.596C240.769 182.115 240.212 181.874 239.552 181.874C238.774 181.874 238.174 182.129 237.752 182.638ZM251.673 181.146L252.855 187.729H251.838L251.22 184.032C251.11 183.382 251.032 182.873 250.986 182.507H250.945C250.816 183.084 250.661 183.592 250.478 184.032L248.966 187.729H248.114L246.602 183.95C246.383 183.391 246.222 182.91 246.122 182.507H246.08C245.989 183.212 245.924 183.688 245.888 183.936L245.242 187.729H244.239L245.448 181.146H246.506L248.183 185.31C248.311 185.612 248.425 185.97 248.526 186.382H248.567C248.687 185.942 248.806 185.585 248.925 185.31L250.642 181.146H251.673ZM259.163 181.146L255.535 190.958H254.491L255.686 187.729L253.268 181.146H254.381L255.769 184.98C255.997 185.557 256.144 186.02 256.208 186.369H256.236C256.483 185.599 256.635 185.136 256.69 184.98L258.064 181.146H259.163ZM265.924 181.146V187.729H264.839V184.747H261.224V187.729H260.139V181.146H261.224V183.84H264.839V181.146H265.924ZM274.266 181.146V187.729H273.18V186.849H273.153C272.539 187.591 271.737 187.963 270.748 187.963C269.823 187.963 269.027 187.635 268.363 186.98C267.699 186.325 267.367 185.475 267.367 184.431C267.367 183.414 267.695 182.576 268.35 181.916C269.005 181.256 269.827 180.927 270.816 180.927C271.724 180.927 272.507 181.316 273.167 182.094H273.18V181.146H274.266ZM269.126 182.638C268.705 183.146 268.494 183.743 268.494 184.431C268.494 185.118 268.705 185.718 269.126 186.231C269.548 186.744 270.139 187 270.899 187C271.54 187 272.097 186.76 272.568 186.279C273.04 185.798 273.277 185.196 273.277 184.472C273.277 183.702 273.05 183.077 272.596 182.596C272.143 182.115 271.586 181.874 270.926 181.874C270.148 181.874 269.548 182.129 269.126 182.638ZM276.162 187.729V181.146H277.248V184.128C277.248 184.935 277.234 185.608 277.207 186.149H277.234C277.372 185.892 277.678 185.457 278.155 184.843L280.972 181.146H281.948V187.729H280.862V184.747C280.862 183.941 280.876 183.267 280.904 182.727H280.876C280.739 182.983 280.431 183.418 279.955 184.032L277.138 187.729H276.162ZM280.354 177.917H281.261C281.233 178.494 281.016 178.975 280.608 179.36C280.2 179.744 279.703 179.937 279.117 179.937C278.521 179.937 278.022 179.744 277.619 179.36C277.216 178.975 277.001 178.494 276.973 177.917H277.88C277.898 178.256 278.022 178.524 278.251 178.721C278.48 178.918 278.769 179.016 279.117 179.016C279.465 179.016 279.753 178.916 279.982 178.714C280.211 178.512 280.335 178.246 280.354 177.917ZM288.393 181.146V182.122H284.93V187.729H283.844V181.146H288.393ZM295.718 181.146V187.729H294.632V186.849H294.604C293.991 187.591 293.189 187.963 292.2 187.963C291.274 187.963 290.479 187.635 289.815 186.98C289.151 186.325 288.819 185.475 288.819 184.431C288.819 183.414 289.146 182.576 289.801 181.916C290.457 181.256 291.279 180.927 292.268 180.927C293.175 180.927 293.959 181.316 294.618 182.094H294.632V181.146H295.718ZM290.578 182.638C290.156 183.146 289.946 183.743 289.946 184.431C289.946 185.118 290.156 185.718 290.578 186.231C290.999 186.744 291.59 187 292.351 187C292.992 187 293.548 186.76 294.02 186.279C294.492 185.798 294.728 185.196 294.728 184.472C294.728 183.702 294.501 183.077 294.048 182.596C293.594 182.115 293.038 181.874 292.378 181.874C291.599 181.874 290.999 182.129 290.578 182.638ZM297.05 186.094H298.205C298.379 186.717 298.855 187.028 299.634 187.028C300.138 187.028 300.522 186.92 300.788 186.705C301.054 186.49 301.187 186.213 301.187 185.874C301.187 185.525 301.052 185.251 300.781 185.049C300.511 184.848 300.202 184.747 299.854 184.747H298.905V183.84H299.854C300.202 183.84 300.484 183.746 300.699 183.558C300.914 183.37 301.022 183.125 301.022 182.823C301.022 182.557 300.907 182.331 300.678 182.143C300.449 181.955 300.133 181.861 299.73 181.861C299.4 181.861 299.114 181.939 298.871 182.094C298.628 182.25 298.47 182.461 298.397 182.727H297.27C297.38 182.168 297.66 181.728 298.109 181.407C298.557 181.087 299.093 180.927 299.717 180.927C300.413 180.927 300.983 181.094 301.427 181.428C301.872 181.762 302.094 182.195 302.094 182.727C302.094 183.524 301.718 184.037 300.967 184.266C301.37 184.385 301.689 184.589 301.922 184.877C302.156 185.166 302.272 185.498 302.272 185.874C302.272 186.497 302.043 187.003 301.586 187.392C301.127 187.782 300.472 187.976 299.62 187.976C298.951 187.976 298.383 187.812 297.916 187.481C297.449 187.152 297.16 186.689 297.05 186.094Z" fill="#FEFEFE"/>
</svg>
