<svg width="54" height="43" viewBox="0 0 54 43" fill="none" xmlns="http://www.w3.org/2000/svg">
    <path fill-rule="evenodd" clip-rule="evenodd" d="M27.5101 22.5906L29.7128 20.705L30.3315 25.0056L27.5101 22.5906ZM22.7516 18.2574L28.9757 15.5867L29.3853 18.4342L26.0167 21.3121L22.7175 18.4872L22.7516 18.2574ZM10.0953 26.8979V40.6759H6.27233V26.8968C6.83447 27.2448 7.48728 27.4442 8.1849 27.4442C8.88038 27.4442 9.53319 27.2448 10.0953 26.8979ZM20.7132 19.1314L17.4544 40.6759H11.978V23.5627C11.9812 23.3351 11.9748 23.1222 11.945 22.8947L20.7132 19.1314ZM34.4948 40.6759L30.771 14.8151L39.3941 11.1138L42.2442 20.001C42.4096 20.5248 42.9461 20.8019 43.4357 20.6239L44.8758 20.1103V32.6357H43.936C42.8832 32.6357 42.0234 33.5436 42.0234 34.6554V40.6759H34.4948ZM22.9255 40.6759L26.0167 38.8219L29.1069 40.6759H22.9255ZM27.9218 37.6775L31.8174 35.3402L32.5545 40.4585L27.9218 37.6775ZM27.7149 30.1363L30.7614 27.9961L31.4462 32.7585L27.7149 30.1363ZM26.0157 31.3303L30.0093 34.1361L26.0157 36.5331L22.0209 34.1361L26.0157 31.3303ZM22.7633 26.6569L26.0167 23.8702L29.2701 26.6569L26.0167 28.9423L22.7633 26.6569ZM20.1713 35.3143L24.1106 37.6775L19.3851 40.5148L20.1713 35.3143ZM21.2774 28.0018L24.3164 30.1374L20.5553 32.7799L21.2774 28.0018ZM21.735 24.9774L22.374 20.7512L24.5223 22.5917L21.735 24.9774ZM38.7882 9.22597L11.2335 21.0519C10.5412 20.0675 9.43292 19.4277 8.1849 19.4277C6.09312 19.4277 4.38856 21.2254 4.38856 23.4343L4.38962 40.6759H1.27383C0.755416 40.6759 0.333008 41.122 0.333008 41.6728C0.333008 42.2202 0.755416 42.6663 1.27383 42.6663H52.7255C53.2439 42.6663 53.6663 42.2202 53.6663 41.6728C53.6663 41.122 53.2439 40.6759 52.7255 40.6759H49.6108V34.6554C49.6108 33.5436 48.7542 32.6357 47.6982 32.6357H46.7574V19.4378L48.799 18.7091C49.2204 18.557 49.4892 18.1121 49.4305 17.6424L48.3873 8.74388C48.3713 8.60984 48.3297 8.4803 48.2646 8.36541L43.9776 0.623728C43.7547 0.215974 43.2779 0.034625 42.8651 0.184435L37.4996 2.10155C37.0057 2.27502 36.7423 2.84272 36.9076 3.36311L38.7882 9.22597Z" fill="white"/>
    <path d="M1.95685 4.53164C1.89862 4.70354 1.94714 4.89455 2.083 5.0187L4.85834 7.68325L4.20818 11.4365C4.17906 11.618 4.24699 11.7994 4.40226 11.9045C4.48959 11.9618 4.58663 12 4.68367 12C4.7613 12 4.83894 11.9809 4.90686 11.9427L8.33238 10.1663L11.7579 11.9427C11.9229 12.0287 12.1169 12.0096 12.2722 11.9045C12.4178 11.7994 12.4954 11.618 12.4663 11.4365L11.8161 7.68325L14.5915 5.0187C14.7273 4.89455 14.7758 4.70354 14.7176 4.53164C14.6594 4.35973 14.5041 4.23557 14.3295 4.20692L10.4964 3.66255L8.77876 0.243534C8.61379 -0.0811779 8.07037 -0.0811779 7.9054 0.243534L6.18779 3.66255L2.35471 4.20692C2.17033 4.23557 2.01507 4.35973 1.95685 4.53164Z" fill="white"/>
    <path d="M16.8941 3.09699C16.8553 3.21447 16.8876 3.34501 16.9782 3.42985L18.8284 5.25084L18.395 7.81589C18.3756 7.9399 18.4208 8.06391 18.5244 8.1357C18.5826 8.17487 18.6473 8.20097 18.712 8.20097C18.7637 8.20097 18.8155 8.18792 18.8608 8.16181L21.1444 6.94782L23.4281 8.16181C23.5381 8.22055 23.6675 8.2075 23.771 8.1357C23.868 8.06391 23.9198 7.9399 23.9004 7.81589L23.4669 5.25084L25.3172 3.42985C25.4077 3.34501 25.4401 3.21447 25.4013 3.09699C25.3624 2.9795 25.2589 2.89465 25.1425 2.87507L22.5871 2.50304L21.442 0.166434C21.332 -0.0554781 20.9698 -0.0554781 20.8598 0.166434L19.7147 2.50304L17.1593 2.87507C17.0364 2.89465 16.9329 2.9795 16.8941 3.09699Z" fill="white"/>
    <path d="M27.5658 2.32274C27.5367 2.41085 27.561 2.50875 27.6289 2.57239L29.0166 3.93813L28.6915 5.86192C28.6769 5.95492 28.7109 6.04793 28.7885 6.10178C28.8322 6.13115 28.8807 6.15073 28.9292 6.15073C28.9681 6.15073 29.0069 6.14094 29.0408 6.12136L30.7536 5.21087L32.4663 6.12136C32.5488 6.16542 32.6459 6.15562 32.7235 6.10178C32.7963 6.04793 32.8351 5.95492 32.8205 5.86192L32.4955 3.93813L33.8831 2.57239C33.9511 2.50875 33.9753 2.41085 33.9462 2.32274C33.9171 2.23463 33.8395 2.17099 33.7521 2.1563L31.8356 1.87728L30.9768 0.124826C30.8943 -0.0416086 30.6226 -0.0416086 30.5401 0.124826L29.6813 1.87728L27.7648 2.1563C27.6726 2.17099 27.5949 2.23463 27.5658 2.32274Z" fill="white"/>
</svg>
