<svg width="48" height="49" viewBox="0 0 48 49" fill="none" xmlns="http://www.w3.org/2000/svg">
    <path d="M4.76757 43.0361H3.5125C3.40204 43.0361 3.3125 43.1257 3.3125 43.2361V44.4912C3.3125 44.6017 3.40204 44.6912 3.5125 44.6912H4.76757C4.87802 44.6912 4.96757 44.6017 4.96757 44.4912V43.2361C4.96757 43.1257 4.87802 43.0361 4.76757 43.0361Z" fill="white"/>
    <path d="M4.76757 46.3413H3.5125C3.40204 46.3413 3.3125 46.4309 3.3125 46.5413V47.7964C3.3125 47.9068 3.40204 47.9964 3.5125 47.9964H4.76757C4.87802 47.9964 4.96757 47.9068 4.96757 47.7964V46.5413C4.96757 46.4309 4.87802 46.3413 4.76757 46.3413Z" fill="white"/>
    <path d="M11.3848 39.7192H10.1297C10.0192 39.7192 9.92969 39.8088 9.92969 39.9192V41.1743C9.92969 41.2848 10.0192 41.3743 10.1297 41.3743H11.3848C11.4952 41.3743 11.5848 41.2848 11.5848 41.1743V39.9192C11.5848 39.8088 11.4952 39.7192 11.3848 39.7192Z" fill="white"/>
    <path d="M11.3848 43.0361H10.1297C10.0192 43.0361 9.92969 43.1257 9.92969 43.2361V47.8013C9.92969 47.9118 10.0192 48.0013 10.1297 48.0013H11.3848C11.4952 48.0013 11.5848 47.9118 11.5848 47.8013V43.2361C11.5848 43.1257 11.4952 43.0361 11.3848 43.0361Z" fill="white"/>
    <path d="M44.4863 43.0361H43.2313C43.1208 43.0361 43.0312 43.1257 43.0312 43.2361V44.4912C43.0312 44.6017 43.1208 44.6912 43.2313 44.6912H44.4863C44.5968 44.6912 44.6863 44.6017 44.6863 44.4912V43.2361C44.6863 43.1257 44.5968 43.0361 44.4863 43.0361Z" fill="white"/>
    <path d="M44.4863 46.3413H43.2313C43.1208 46.3413 43.0312 46.4309 43.0312 46.5413V47.7964C43.0312 47.9068 43.1208 47.9964 43.2313 47.9964H44.4863C44.5968 47.9964 44.6863 47.9068 44.6863 47.7964V46.5413C44.6863 46.4309 44.5968 46.3413 44.4863 46.3413Z" fill="white"/>
    <path d="M37.8662 39.7192H36.6111C36.5007 39.7192 36.4111 39.8088 36.4111 39.9192V41.1743C36.4111 41.2848 36.5007 41.3743 36.6111 41.3743H37.8662C37.9767 41.3743 38.0662 41.2848 38.0662 41.1743V39.9192C38.0662 39.8088 37.9767 39.7192 37.8662 39.7192Z" fill="white"/>
    <path d="M37.8662 43.0361H36.6111C36.5007 43.0361 36.4111 43.1257 36.4111 43.2361V47.8013C36.4111 47.9118 36.5007 48.0013 36.6111 48.0013H37.8662C37.9767 48.0013 38.0662 47.9118 38.0662 47.8013V43.2361C38.0662 43.1257 37.9767 43.0361 37.8662 43.0361Z" fill="white"/>
    <path d="M28.1018 23.375C27.9379 23.2434 27.7327 23.1714 27.5225 23.1714H27.4108C26.8994 23.1714 26.4831 23.5876 26.4831 24.099C26.4831 24.3432 26.5816 24.5823 26.7546 24.7553L28.9657 26.9665V30.9618L27.9959 31.9316C27.0202 32.9073 26.4831 34.2049 26.4831 35.5844H24.8281C24.8281 34.0675 25.3262 32.6301 26.234 31.4467H23.173V35.5844H21.5179V31.4467H19.8629V35.5844H18.2078V31.4467H16.5527V37.515C16.5527 37.6929 16.6115 37.8692 16.7182 38.0115L18.538 40.4403C18.8582 40.8665 19.0353 41.3953 19.0353 41.9299V43.0322H28.9657V41.9291C28.9657 41.3945 29.1428 40.8657 29.4631 40.4387L31.2828 38.0115C31.3896 37.8684 31.4483 37.6921 31.4483 37.5142V26.4492C31.4483 26.1968 31.335 25.961 31.1372 25.8029L28.1018 23.375Z" fill="white"/>
    <path d="M11.5855 24.7833C11.3099 24.8081 11.0343 24.8247 10.7579 24.8247C5.73894 24.8247 1.65507 20.7408 1.65507 15.7218C1.65507 10.7028 5.73894 6.61893 10.7579 6.61893C11.0343 6.61893 11.3099 6.63548 11.5855 6.66031V4.96387H0.4C0.179086 4.96387 0 5.14295 0 5.36387V34.3551C0 34.576 0.179086 34.7551 0.4 34.7551H3.31013V41.1753C3.31013 41.2858 3.39967 41.3753 3.51013 41.3753H4.7652C4.87565 41.3753 4.9652 41.2858 4.9652 41.1753V34.7551H6.62026V47.7956C6.62026 47.906 6.70981 47.9956 6.82026 47.9956H8.07533C8.18579 47.9956 8.27533 47.906 8.27533 47.7956V34.7551H9.9304V37.8652C9.9304 37.9756 10.0199 38.0652 10.1304 38.0652H11.3855C11.4959 38.0652 11.5855 37.9756 11.5855 37.8652V34.7551H14.8956V31.4449H11.5855V24.7833ZM1.65507 28.1348H9.9304V29.7899H1.65507V28.1348ZM1.65507 31.4449H9.9304V33.1H1.65507V31.4449Z" fill="white"/>
    <path d="M42.1915 21.2712C42.0624 18.6479 39.8934 16.5518 37.2387 16.5518C36.9598 16.5518 36.6842 16.5815 36.4111 16.6279V23.1232C36.6859 23.1538 36.9623 23.1728 37.2387 23.1728C39.1412 23.172 40.874 22.4488 42.1915 21.2712Z" fill="white"/>
    <path d="M11.5878 8.32114C11.3131 8.29052 11.0367 8.27148 10.7603 8.27148C6.65325 8.27148 3.3125 11.6122 3.3125 15.7193C3.3125 17.1459 3.72296 18.4758 4.42139 19.6103C4.99901 17.6905 6.42485 16.1372 8.26198 15.385C7.76297 14.8049 7.45017 14.0601 7.45017 13.2367C7.45017 11.4111 8.93476 9.92655 10.7603 9.92655C11.0433 9.92655 11.3189 9.97455 11.5878 10.0449V8.32114Z" fill="white"/>
    <path d="M5.80371 21.2712C7.12114 22.4488 8.854 23.172 10.7565 23.172C11.0329 23.172 11.3093 23.153 11.584 23.1224V16.6271C11.3109 16.5815 11.0354 16.5518 10.7565 16.5518C8.10177 16.5518 5.93281 18.6479 5.80371 21.2712Z" fill="white"/>
    <path d="M23.9967 11.5884C21.342 11.5884 19.173 13.6845 19.0439 16.3078C20.3614 17.4854 22.0942 18.2086 23.9967 18.2086C25.8992 18.2086 27.6321 17.4854 28.9495 16.3078C28.8204 13.6845 26.6515 11.5884 23.9967 11.5884Z" fill="white"/>
    <path d="M30.6175 44.687H17.377V47.5971C17.377 47.8181 17.556 47.9971 17.777 47.9971H30.2175C30.4384 47.9971 30.6175 47.8181 30.6175 47.5971V44.687Z" fill="white"/>
    <path d="M24.0005 3.30518C19.8935 3.30518 16.5527 6.64593 16.5527 10.753C16.5527 12.1796 16.9632 13.5095 17.6616 14.644C18.2392 12.7242 19.6651 11.1709 21.5022 10.4186C21.0032 9.83855 20.6904 9.09377 20.6904 8.27037C20.6904 6.44484 22.175 4.96024 24.0005 4.96024C25.8261 4.96024 27.3107 6.44484 27.3107 8.27037C27.3107 9.09377 26.9979 9.83855 26.498 10.4186C28.336 11.1709 29.7618 12.7242 30.3386 14.644C31.0379 13.5095 31.4483 12.1796 31.4483 10.753C31.4483 6.64593 28.1076 3.30518 24.0005 3.30518Z" fill="white"/>
    <path d="M23.9988 9.93464C24.9129 9.93464 25.6539 9.19365 25.6539 8.27958C25.6539 7.36551 24.9129 6.62451 23.9988 6.62451C23.0847 6.62451 22.3438 7.36551 22.3438 8.27958C22.3438 9.19365 23.0847 9.93464 23.9988 9.93464Z" fill="white"/>
    <path d="M38.8937 13.2434C38.8937 12.3307 38.1514 11.5884 37.2387 11.5884C36.9449 11.5884 36.661 11.6686 36.4111 11.8126V14.6734C36.661 14.8182 36.9449 14.8985 37.2387 14.8985C38.1514 14.8985 38.8937 14.1562 38.8937 13.2434Z" fill="white"/>
    <path d="M47.9962 5.36387C47.9962 5.14295 47.8171 4.96387 47.5962 4.96387H36.4107V6.66031C36.6863 6.63548 36.9619 6.61893 37.2383 6.61893C42.2572 6.61893 46.3411 10.7028 46.3411 15.7218C46.3411 20.7408 42.2572 24.8247 37.2383 24.8247C36.9619 24.8247 36.6863 24.8081 36.4107 24.7833V31.4449H33.1006V34.7551H36.4107V37.8652C36.4107 37.9756 36.5003 38.0652 36.6107 38.0652H37.8658C37.9762 38.0652 38.0658 37.9756 38.0658 37.8652V34.7551H39.7208V47.7956C39.7208 47.906 39.8104 47.9956 39.9208 47.9956H41.1759C41.2864 47.9956 41.3759 47.906 41.3759 47.7956V34.7551H43.031V41.1753C43.031 41.2858 43.1205 41.3753 43.231 41.3753H44.486C44.5965 41.3753 44.686 41.2858 44.686 41.1753V34.7551H47.5962C47.8171 34.7551 47.9962 34.576 47.9962 34.3551V5.36387ZM46.3411 33.1H38.0658V31.4449H46.3411V33.1ZM46.3411 29.7899H38.0658V28.1348H46.3411V29.7899Z" fill="white"/>
    <path d="M40.5488 13.2367C40.5488 14.0601 40.236 14.8049 39.7362 15.385C41.5741 16.1372 43 17.6905 43.5767 19.6103C44.276 18.4758 44.6865 17.1459 44.6865 15.7193C44.6865 11.6122 41.3457 8.27148 37.2387 8.27148C36.9623 8.27148 36.6859 8.29052 36.4111 8.32114V10.0449C36.6801 9.97455 36.9556 9.92655 37.2387 9.92655C39.0642 9.92655 40.5488 11.4111 40.5488 13.2367Z" fill="white"/>
    <path d="M33.102 29.7912H34.3571C34.578 29.7912 34.7571 29.6121 34.7571 29.3912V0.4C34.7571 0.179086 34.578 0 34.3571 0H13.6412C13.4203 0 13.2412 0.179086 13.2412 0.4V29.3912C13.2412 29.6121 13.4203 29.7912 13.6412 29.7912H27.3093V27.6512L25.583 25.925C25.1022 25.4442 24.8267 24.7788 24.8267 24.0986C24.8267 22.6744 25.9852 21.5159 27.4094 21.5159H27.5211C28.1054 21.5159 28.678 21.7169 29.1348 22.0819L32.1702 24.5107C32.7627 24.984 33.102 25.6908 33.102 26.4488V29.7912ZM14.8963 23.1709H16.5513V24.826H14.8963V23.1709ZM23.1716 28.1361H14.8963V26.4811H23.1716V28.1361ZM23.1716 24.826H18.2064V23.1709H23.1716V24.826ZM23.9991 19.8608C18.9802 19.8608 14.8963 15.7769 14.8963 10.7579C14.8963 5.73894 18.9802 1.65507 23.9991 1.65507C29.0181 1.65507 33.102 5.73894 33.102 10.7579C33.102 15.7769 29.0181 19.8608 23.9991 19.8608Z" fill="white"/>
    <path d="M11.5851 11.8126C11.3352 11.6686 11.0514 11.5884 10.7576 11.5884C9.84484 11.5884 9.10254 12.3307 9.10254 13.2434C9.10254 14.1562 9.84484 14.8985 10.7576 14.8985C11.0514 14.8985 11.3352 14.8182 11.5851 14.6743V11.8126Z" fill="white"/>
</svg>
