<svg width="24" height="24" viewBox="0 0 24 24" fill="none" xmlns="http://www.w3.org/2000/svg">
    <path fill-rule="evenodd" clip-rule="evenodd" d="M21.0001 5.25001C21.0001 4.00756 19.9925 3 18.75 3H15.375V5.25001H18.75V8.62503H21.0001V5.25001Z" fill="white"/>
    <path fill-rule="evenodd" clip-rule="evenodd" d="M3 8.62503H5.24999V5.25001H8.62498V3H5.24999C4.00755 3 3 4.00756 3 5.25001V8.62503Z" fill="white"/>
    <path fill-rule="evenodd" clip-rule="evenodd" d="M3 18.75C3 19.9925 4.00755 21 5.24999 21H8.62498V18.75H5.24999V15.375H3V18.75Z" fill="white"/>
    <path fill-rule="evenodd" clip-rule="evenodd" d="M21.0001 18.75V15.375H18.75V18.75H15.375V21H18.75C19.9925 21 21.0001 19.9925 21.0001 18.75Z" fill="white"/>
    <path fill-rule="evenodd" clip-rule="evenodd" d="M13.2308 14.8143L15.7029 17.2864L17.295 15.6945L14.8114 13.2337C15.1728 12.5983 15.3634 11.8787 15.3634 11.1475C15.3634 8.81782 13.4742 6.92871 11.1446 6.92871C8.8149 6.92871 6.92578 8.81782 6.92578 11.1475C6.92578 13.4772 8.8149 15.3663 11.1446 15.3663C11.876 15.3663 12.5954 15.1757 13.231 14.8141L13.2308 14.8143ZM9.18637 11.1581C9.18637 10.0709 10.0679 9.1893 11.1551 9.1893C12.2423 9.1893 13.1239 10.0709 13.1239 11.1581C13.1239 12.2453 12.2423 13.1268 11.1551 13.1268C10.0679 13.1268 9.18637 12.2453 9.18637 11.1581Z" fill="white"/>
</svg>
