<svg width="708" height="388" viewBox="0 0 708 388" fill="none" xmlns="http://www.w3.org/2000/svg">
    <path d="M0.5 0.499512H707.5V387.5H0.5V0.499512Z" fill="#2B2E5E" stroke="#454D7D"/>
    <path d="M159.997 353V347.22H157.097V353H155.947V346.18H161.147V353H159.997ZM162.178 350.6C162.178 349.867 162.421 349.26 162.908 348.78C163.401 348.293 164.011 348.05 164.738 348.05C165.485 348.05 166.098 348.293 166.578 348.78C167.058 349.26 167.298 349.867 167.298 350.6C167.298 351.313 167.055 351.92 166.568 352.42C166.081 352.92 165.471 353.17 164.738 353.17C164.011 353.17 163.401 352.923 162.908 352.43C162.421 351.937 162.178 351.327 162.178 350.6ZM163.708 349.48C163.448 349.773 163.318 350.147 163.318 350.6C163.318 351.053 163.455 351.43 163.728 351.73C164.008 352.023 164.345 352.17 164.738 352.17C165.158 352.17 165.501 352.023 165.768 351.73C166.035 351.43 166.168 351.053 166.168 350.6C166.168 350.16 166.038 349.79 165.778 349.49C165.518 349.19 165.171 349.04 164.738 349.04C164.311 349.04 163.968 349.187 163.708 349.48ZM170.779 353V348.21H172.789C173.303 348.21 173.699 348.313 173.979 348.52C174.259 348.72 174.399 349.007 174.399 349.38C174.399 349.613 174.333 349.823 174.199 350.01C174.066 350.19 173.866 350.317 173.599 350.39C173.993 350.463 174.279 350.607 174.459 350.82C174.646 351.033 174.739 351.283 174.739 351.57C174.739 352.003 174.583 352.35 174.269 352.61C173.963 352.87 173.533 353 172.979 353H170.779ZM172.769 350.88H171.839V352.22H172.869C173.136 352.22 173.333 352.157 173.459 352.03C173.593 351.903 173.659 351.743 173.659 351.55C173.659 351.103 173.363 350.88 172.769 350.88ZM172.599 348.99H171.839V350.12H172.519C173.059 350.12 173.329 349.923 173.329 349.53C173.329 349.17 173.086 348.99 172.599 348.99ZM177.599 350.88H176.909V352.15H177.599C177.846 352.15 178.026 352.09 178.139 351.97C178.259 351.85 178.319 351.697 178.319 351.51C178.319 351.09 178.079 350.88 177.599 350.88ZM176.909 350.03H177.699C178.253 350.03 178.679 350.157 178.979 350.41C179.286 350.663 179.439 351.03 179.439 351.51C179.439 351.963 179.289 352.327 178.989 352.6C178.689 352.867 178.276 353 177.749 353H175.789V348.21H176.909V350.03ZM180.269 353V348.21H181.389V353H180.269ZM183.534 350.6C183.534 351.053 183.67 351.43 183.944 351.73C184.224 352.023 184.564 352.17 184.964 352.17C185.384 352.17 185.724 352.023 185.984 351.73C186.25 351.43 186.384 351.053 186.384 350.6C186.384 350.16 186.257 349.79 186.004 349.49C185.75 349.19 185.41 349.04 184.984 349.04C184.557 349.04 184.207 349.19 183.934 349.49C183.667 349.783 183.534 350.153 183.534 350.6ZM185.524 347.16C184.384 347.333 183.74 347.847 183.594 348.7H183.624C183.784 348.52 183.997 348.373 184.264 348.26C184.537 348.14 184.817 348.08 185.104 348.08C185.824 348.08 186.407 348.317 186.854 348.79C187.3 349.263 187.524 349.867 187.524 350.6C187.524 351.313 187.28 351.92 186.794 352.42C186.307 352.92 185.697 353.17 184.964 353.17C184.204 353.17 183.59 352.913 183.124 352.4C182.657 351.88 182.424 351.153 182.424 350.22C182.424 349.673 182.47 349.187 182.564 348.76C182.664 348.333 182.797 347.977 182.964 347.69C183.13 347.397 183.337 347.147 183.584 346.94C183.837 346.733 184.104 346.573 184.384 346.46C184.67 346.347 184.994 346.26 185.354 346.2C185.86 346.107 186.294 345.95 186.654 345.73L187.104 346.65C186.624 346.917 186.097 347.087 185.524 347.16ZM190.304 350.88H189.614V352.15H190.304C190.551 352.15 190.731 352.09 190.844 351.97C190.964 351.85 191.024 351.697 191.024 351.51C191.024 351.09 190.784 350.88 190.304 350.88ZM189.614 350.03H190.404C190.958 350.03 191.384 350.157 191.684 350.41C191.991 350.663 192.144 351.03 192.144 351.51C192.144 351.963 191.994 352.327 191.694 352.6C191.394 352.867 190.981 353 190.454 353H188.494V348.21H189.614V350.03ZM192.974 353V348.21H194.094V353H192.974ZM198.579 348.21V349.18H197.279V353H196.169V349.18H194.859V348.21H198.579ZM199.334 353V348.21H200.414V350.05C200.414 350.643 200.404 351.133 200.384 351.52H200.404C200.504 351.333 200.724 351.007 201.064 350.54L202.794 348.21H203.784V353H202.704V351.17C202.704 350.577 202.714 350.083 202.734 349.69H202.714C202.607 349.883 202.387 350.21 202.054 350.67L200.324 353H199.334ZM206.206 348.21V350.05H206.926C207.039 349.457 207.323 348.977 207.776 348.61C208.236 348.237 208.783 348.05 209.416 348.05C210.163 348.05 210.776 348.293 211.256 348.78C211.736 349.26 211.976 349.867 211.976 350.6C211.976 351.313 211.733 351.92 211.246 352.42C210.759 352.92 210.149 353.17 209.416 353.17C208.749 353.17 208.179 352.96 207.706 352.54C207.239 352.12 206.969 351.587 206.896 350.94H206.206V353H205.086V348.21H206.206ZM208.376 349.48C208.116 349.773 207.986 350.147 207.986 350.6C207.986 351.053 208.123 351.43 208.396 351.73C208.676 352.023 209.016 352.17 209.416 352.17C209.829 352.17 210.169 352.02 210.436 351.72C210.703 351.42 210.836 351.047 210.836 350.6C210.836 350.16 210.706 349.79 210.446 349.49C210.186 349.19 209.843 349.04 209.416 349.04C208.989 349.04 208.643 349.187 208.376 349.48ZM215.447 353V348.21H216.527V350.05C216.527 350.643 216.517 351.133 216.497 351.52H216.517C216.617 351.333 216.837 351.007 217.177 350.54L218.907 348.21H219.897V353H218.817V351.17C218.817 350.577 218.827 350.083 218.847 349.69H218.827C218.721 349.883 218.501 350.21 218.167 350.67L216.437 353H215.447ZM169.097 360.21V365H167.977V361.18H165.767V365H164.647V360.21H169.097ZM170.399 367.35V360.21H171.489V360.82H171.519C171.952 360.313 172.502 360.06 173.169 360.06C173.802 360.06 174.342 360.3 174.789 360.78C175.235 361.253 175.459 361.867 175.459 362.62C175.459 363.36 175.229 363.97 174.769 364.45C174.315 364.93 173.762 365.17 173.109 365.17C172.455 365.17 171.929 364.92 171.529 364.42H171.499V367.35H170.399ZM174.309 362.61C174.309 362.177 174.182 361.807 173.929 361.5C173.675 361.193 173.319 361.04 172.859 361.04C172.459 361.04 172.122 361.187 171.849 361.48C171.582 361.773 171.449 362.157 171.449 362.63C171.449 363.083 171.585 363.46 171.859 363.76C172.139 364.053 172.475 364.2 172.869 364.2C173.322 364.2 173.675 364.043 173.929 363.73C174.182 363.41 174.309 363.037 174.309 362.61ZM176.434 365V360.21H177.514V362.05C177.514 362.643 177.504 363.133 177.484 363.52H177.504C177.604 363.333 177.824 363.007 178.164 362.54L179.894 360.21H180.884V365H179.804V363.17C179.804 362.577 179.814 362.083 179.834 361.69H179.814C179.707 361.883 179.487 362.21 179.154 362.67L177.424 365H176.434ZM183.026 362.6C183.026 363.053 183.162 363.43 183.436 363.73C183.716 364.023 184.056 364.17 184.456 364.17C184.876 364.17 185.216 364.023 185.476 363.73C185.742 363.43 185.876 363.053 185.876 362.6C185.876 362.16 185.749 361.79 185.496 361.49C185.242 361.19 184.902 361.04 184.476 361.04C184.049 361.04 183.699 361.19 183.426 361.49C183.159 361.783 183.026 362.153 183.026 362.6ZM185.016 359.16C183.876 359.333 183.232 359.847 183.086 360.7H183.116C183.276 360.52 183.489 360.373 183.756 360.26C184.029 360.14 184.309 360.08 184.596 360.08C185.316 360.08 185.899 360.317 186.346 360.79C186.792 361.263 187.016 361.867 187.016 362.6C187.016 363.313 186.772 363.92 186.286 364.42C185.799 364.92 185.189 365.17 184.456 365.17C183.696 365.17 183.082 364.913 182.616 364.4C182.149 363.88 181.916 363.153 181.916 362.22C181.916 361.673 181.962 361.187 182.056 360.76C182.156 360.333 182.289 359.977 182.456 359.69C182.622 359.397 182.829 359.147 183.076 358.94C183.329 358.733 183.596 358.573 183.876 358.46C184.162 358.347 184.486 358.26 184.846 358.2C185.352 358.107 185.786 357.95 186.146 357.73L186.596 358.65C186.116 358.917 185.589 359.087 185.016 359.16ZM189.796 362.88H189.106V364.15H189.796C190.043 364.15 190.223 364.09 190.336 363.97C190.456 363.85 190.516 363.697 190.516 363.51C190.516 363.09 190.276 362.88 189.796 362.88ZM189.106 362.03H189.896C190.45 362.03 190.876 362.157 191.176 362.41C191.483 362.663 191.636 363.03 191.636 363.51C191.636 363.963 191.486 364.327 191.186 364.6C190.886 364.867 190.473 365 189.946 365H187.986V360.21H189.106V362.03ZM192.466 365V360.21H193.586V365H192.466ZM198.071 360.21V361.18H196.771V365H195.661V361.18H194.351V360.21H198.071ZM198.826 365V360.21H199.906V362.05C199.906 362.643 199.896 363.133 199.876 363.52H199.896C199.996 363.333 200.216 363.007 200.556 362.54L202.286 360.21H203.276V365H202.196V363.17C202.196 362.577 202.206 362.083 202.226 361.69H202.206C202.1 361.883 201.88 362.21 201.546 362.67L199.816 365H198.826ZM205.698 360.21V362.05H206.418C206.532 361.457 206.815 360.977 207.268 360.61C207.728 360.237 208.275 360.05 208.908 360.05C209.655 360.05 210.268 360.293 210.748 360.78C211.228 361.26 211.468 361.867 211.468 362.6C211.468 363.313 211.225 363.92 210.738 364.42C210.252 364.92 209.642 365.17 208.908 365.17C208.242 365.17 207.672 364.96 207.198 364.54C206.732 364.12 206.462 363.587 206.388 362.94H205.698V365H204.578V360.21H205.698ZM207.868 361.48C207.608 361.773 207.478 362.147 207.478 362.6C207.478 363.053 207.615 363.43 207.888 363.73C208.168 364.023 208.508 364.17 208.908 364.17C209.322 364.17 209.662 364.02 209.928 363.72C210.195 363.42 210.328 363.047 210.328 362.6C210.328 362.16 210.198 361.79 209.938 361.49C209.678 361.19 209.335 361.04 208.908 361.04C208.482 361.04 208.135 361.187 207.868 361.48Z" fill="white"/>
    <path d="M251.278 353V347.22H248.378V353H247.228V346.18H252.428V353H251.278ZM253.459 350.6C253.459 349.867 253.703 349.26 254.189 348.78C254.683 348.293 255.293 348.05 256.019 348.05C256.766 348.05 257.379 348.293 257.859 348.78C258.339 349.26 258.579 349.867 258.579 350.6C258.579 351.313 258.336 351.92 257.849 352.42C257.363 352.92 256.753 353.17 256.019 353.17C255.293 353.17 254.683 352.923 254.189 352.43C253.703 351.937 253.459 351.327 253.459 350.6ZM254.989 349.48C254.729 349.773 254.599 350.147 254.599 350.6C254.599 351.053 254.736 351.43 255.009 351.73C255.289 352.023 255.626 352.17 256.019 352.17C256.439 352.17 256.783 352.023 257.049 351.73C257.316 351.43 257.449 351.053 257.449 350.6C257.449 350.16 257.319 349.79 257.059 349.49C256.799 349.19 256.453 349.04 256.019 349.04C255.593 349.04 255.249 349.187 254.989 349.48ZM264.281 348.05C264.907 348.05 265.411 348.213 265.791 348.54C266.171 348.867 266.404 349.237 266.491 349.65H265.341C265.167 349.217 264.811 349 264.271 349C263.857 349 263.521 349.143 263.261 349.43C263.007 349.717 262.881 350.107 262.881 350.6C262.881 351.06 263.011 351.443 263.271 351.75C263.537 352.057 263.884 352.21 264.311 352.21C264.837 352.21 265.204 351.97 265.411 351.49H266.571C266.424 351.977 266.161 352.38 265.781 352.7C265.407 353.013 264.911 353.17 264.291 353.17C263.557 353.17 262.947 352.933 262.461 352.46C261.974 351.98 261.731 351.357 261.731 350.59C261.731 349.87 261.964 349.267 262.431 348.78C262.897 348.293 263.514 348.05 264.281 348.05ZM271.439 348.21L268.809 355.35H267.739L268.619 352.98L266.869 348.21H268.019L268.849 350.59C269.023 351.117 269.129 351.483 269.169 351.69H269.199C269.293 351.317 269.399 350.95 269.519 350.59L270.329 348.21H271.439ZM277.191 348.21L278.051 353H277.021L276.631 350.68C276.544 350.113 276.494 349.753 276.481 349.6H276.451C276.358 350.013 276.258 350.373 276.151 350.68L275.291 353H274.431L273.561 350.63C273.408 350.223 273.304 349.88 273.251 349.6H273.221C273.168 350.013 273.121 350.353 273.081 350.62L272.681 353H271.661L272.541 348.21H273.661L274.611 350.78C274.691 350.993 274.771 351.28 274.851 351.64H274.881C274.974 351.28 275.058 350.99 275.131 350.77L276.091 348.21H277.191ZM284.105 348.21L284.965 353H283.935L283.545 350.68C283.458 350.113 283.408 349.753 283.395 349.6H283.365C283.272 350.013 283.172 350.373 283.065 350.68L282.205 353H281.345L280.475 350.63C280.322 350.223 280.218 349.88 280.165 349.6H280.135C280.082 350.013 280.035 350.353 279.995 350.62L279.595 353H278.575L279.455 348.21H280.575L281.525 350.78C281.605 350.993 281.685 351.28 281.765 351.64H281.795C281.888 351.28 281.972 350.99 282.045 350.77L283.005 348.21H284.105ZM285.809 353V351.65H287.219V353H285.809ZM245.376 365V360.21H247.386C247.899 360.21 248.296 360.313 248.576 360.52C248.856 360.72 248.996 361.007 248.996 361.38C248.996 361.613 248.929 361.823 248.796 362.01C248.663 362.19 248.463 362.317 248.196 362.39C248.589 362.463 248.876 362.607 249.056 362.82C249.243 363.033 249.336 363.283 249.336 363.57C249.336 364.003 249.179 364.35 248.866 364.61C248.559 364.87 248.129 365 247.576 365H245.376ZM247.366 362.88H246.436V364.22H247.466C247.733 364.22 247.929 364.157 248.056 364.03C248.189 363.903 248.256 363.743 248.256 363.55C248.256 363.103 247.959 362.88 247.366 362.88ZM247.196 360.99H246.436V362.12H247.116C247.656 362.12 247.926 361.923 247.926 361.53C247.926 361.17 247.683 360.99 247.196 360.99ZM249.866 365L251.616 362.57L249.966 360.21H251.226L251.936 361.28C251.969 361.333 252.003 361.39 252.036 361.45C252.076 361.51 252.113 361.577 252.146 361.65C252.179 361.717 252.206 361.763 252.226 361.79H252.256C252.336 361.63 252.426 361.47 252.526 361.31L253.216 360.21H254.466L252.816 362.54L254.556 365H253.256L252.496 363.85C252.423 363.723 252.326 363.55 252.206 363.33H252.176C252.083 363.497 251.979 363.673 251.866 363.86L251.126 365H249.866ZM255.027 362.6C255.027 361.867 255.27 361.26 255.757 360.78C256.25 360.293 256.86 360.05 257.587 360.05C258.333 360.05 258.947 360.293 259.427 360.78C259.907 361.26 260.147 361.867 260.147 362.6C260.147 363.313 259.903 363.92 259.417 364.42C258.93 364.92 258.32 365.17 257.587 365.17C256.86 365.17 256.25 364.923 255.757 364.43C255.27 363.937 255.027 363.327 255.027 362.6ZM256.557 361.48C256.297 361.773 256.167 362.147 256.167 362.6C256.167 363.053 256.303 363.43 256.577 363.73C256.857 364.023 257.193 364.17 257.587 364.17C258.007 364.17 258.35 364.023 258.617 363.73C258.883 363.43 259.017 363.053 259.017 362.6C259.017 362.16 258.887 361.79 258.627 361.49C258.367 361.19 258.02 361.04 257.587 361.04C257.16 361.04 256.817 361.187 256.557 361.48ZM260.628 366.55V364.03H260.738C261.391 364.03 261.781 363.35 261.908 361.99L262.078 360.21H265.748V364.03H266.468V366.55H265.368V365H261.728V366.55H260.628ZM264.628 364.03V361.18H263.018L262.928 362.08C262.875 362.633 262.805 363.05 262.718 363.33C262.631 363.61 262.505 363.843 262.338 364.03H264.628ZM271.721 360.21V365H270.601V362.97H268.391V365H267.271V360.21H268.391V362.03H270.601V360.21H271.721ZM272.693 362.6C272.693 361.867 272.936 361.26 273.423 360.78C273.916 360.293 274.526 360.05 275.253 360.05C275.999 360.05 276.613 360.293 277.093 360.78C277.573 361.26 277.813 361.867 277.813 362.6C277.813 363.313 277.569 363.92 277.083 364.42C276.596 364.92 275.986 365.17 275.253 365.17C274.526 365.17 273.916 364.923 273.423 364.43C272.936 363.937 272.693 363.327 272.693 362.6ZM274.223 361.48C273.963 361.773 273.833 362.147 273.833 362.6C273.833 363.053 273.969 363.43 274.243 363.73C274.523 364.023 274.859 364.17 275.253 364.17C275.673 364.17 276.016 364.023 276.283 363.73C276.549 363.43 276.683 363.053 276.683 362.6C276.683 362.16 276.553 361.79 276.293 361.49C276.033 361.19 275.686 361.04 275.253 361.04C274.826 361.04 274.483 361.187 274.223 361.48ZM283.934 360.21L284.794 365H283.764L283.374 362.68C283.287 362.113 283.237 361.753 283.224 361.6H283.194C283.101 362.013 283.001 362.373 282.894 362.68L282.034 365H281.174L280.304 362.63C280.151 362.223 280.047 361.88 279.994 361.6H279.964C279.911 362.013 279.864 362.353 279.824 362.62L279.424 365H278.404L279.284 360.21H280.404L281.354 362.78C281.434 362.993 281.514 363.28 281.594 363.64H281.624C281.717 363.28 281.801 362.99 281.874 362.77L282.834 360.21H283.934ZM289.618 360.21L286.988 367.35H285.918L286.798 364.98L285.048 360.21H286.198L287.028 362.59C287.202 363.117 287.308 363.483 287.348 363.69H287.378C287.472 363.317 287.578 362.95 287.698 362.59L288.508 360.21H289.618ZM251.473 378.55V376.03H251.583C252.236 376.03 252.626 375.35 252.753 373.99L252.923 372.21H256.593V376.03H257.313V378.55H256.213V377H252.573V378.55H251.473ZM255.473 376.03V373.18H253.863L253.773 374.08C253.719 374.633 253.649 375.05 253.563 375.33C253.476 375.61 253.349 375.843 253.183 376.03H255.473ZM260.215 372.05C260.989 372.057 261.582 372.31 261.995 372.81C262.415 373.303 262.625 373.887 262.625 374.56C262.625 374.713 262.619 374.823 262.605 374.89H258.905C258.905 375.263 259.045 375.59 259.325 375.87C259.612 376.15 259.949 376.29 260.335 376.29C260.782 376.29 261.139 376.11 261.405 375.75H262.555C262.375 376.163 262.099 376.503 261.725 376.77C261.359 377.037 260.895 377.17 260.335 377.17C259.595 377.17 258.985 376.927 258.505 376.44C258.025 375.947 257.785 375.32 257.785 374.56C257.785 373.86 258.005 373.267 258.445 372.78C258.892 372.293 259.482 372.05 260.215 372.05ZM260.215 372.89C259.849 372.89 259.549 373.007 259.315 373.24C259.082 373.473 258.949 373.753 258.915 374.08H261.505C261.472 373.747 261.335 373.467 261.095 373.24C260.862 373.007 260.569 372.89 260.215 372.89ZM264.463 374.6C264.463 375.053 264.6 375.43 264.873 375.73C265.153 376.023 265.493 376.17 265.893 376.17C266.313 376.17 266.653 376.023 266.913 375.73C267.18 375.43 267.313 375.053 267.313 374.6C267.313 374.16 267.187 373.79 266.933 373.49C266.68 373.19 266.34 373.04 265.913 373.04C265.487 373.04 265.137 373.19 264.863 373.49C264.597 373.783 264.463 374.153 264.463 374.6ZM266.453 371.16C265.313 371.333 264.67 371.847 264.523 372.7H264.553C264.713 372.52 264.927 372.373 265.193 372.26C265.467 372.14 265.747 372.08 266.033 372.08C266.753 372.08 267.337 372.317 267.783 372.79C268.23 373.263 268.453 373.867 268.453 374.6C268.453 375.313 268.21 375.92 267.723 376.42C267.237 376.92 266.627 377.17 265.893 377.17C265.133 377.17 264.52 376.913 264.053 376.4C263.587 375.88 263.353 375.153 263.353 374.22C263.353 373.673 263.4 373.187 263.493 372.76C263.593 372.333 263.727 371.977 263.893 371.69C264.06 371.397 264.267 371.147 264.513 370.94C264.767 370.733 265.033 370.573 265.313 370.46C265.6 370.347 265.923 370.26 266.283 370.2C266.79 370.107 267.223 369.95 267.583 369.73L268.033 370.65C267.553 370.917 267.027 371.087 266.453 371.16ZM269.424 377V372.21H270.504V374.05C270.504 374.643 270.494 375.133 270.474 375.52H270.494C270.594 375.333 270.814 375.007 271.154 374.54L272.884 372.21H273.874V377H272.794V375.17C272.794 374.577 272.804 374.083 272.824 373.69H272.804C272.697 373.883 272.477 374.21 272.144 374.67L270.414 377H269.424ZM278.356 372.21V373.18H277.056V377H275.946V373.18H274.636V372.21H278.356ZM283.021 372.21L280.391 379.35H279.321L280.201 376.98L278.451 372.21H279.601L280.431 374.59C280.605 375.117 280.711 375.483 280.751 375.69H280.781C280.875 375.317 280.981 374.95 281.101 374.59L281.911 372.21H283.021Z" fill="white"/>
    <path d="M321.627 353V347.22H318.727V353H317.577V346.18H322.777V353H321.627ZM323.808 350.6C323.808 349.867 324.052 349.26 324.538 348.78C325.032 348.293 325.642 348.05 326.368 348.05C327.115 348.05 327.728 348.293 328.208 348.78C328.688 349.26 328.928 349.867 328.928 350.6C328.928 351.313 328.685 351.92 328.198 352.42C327.712 352.92 327.102 353.17 326.368 353.17C325.642 353.17 325.032 352.923 324.538 352.43C324.052 351.937 323.808 351.327 323.808 350.6ZM325.338 349.48C325.078 349.773 324.948 350.147 324.948 350.6C324.948 351.053 325.085 351.43 325.358 351.73C325.638 352.023 325.975 352.17 326.368 352.17C326.788 352.17 327.132 352.023 327.398 351.73C327.665 351.43 327.798 351.053 327.798 350.6C327.798 350.16 327.668 349.79 327.408 349.49C327.148 349.19 326.802 349.04 326.368 349.04C325.942 349.04 325.598 349.187 325.338 349.48ZM336.86 348.21V353H335.74V349.18H333.53V353H332.41V348.21H336.86ZM342.892 348.21V353H341.802V352.39H341.772C341.352 352.91 340.805 353.17 340.132 353.17C339.539 353.17 339.005 352.943 338.532 352.49C338.065 352.03 337.832 351.4 337.832 350.6C337.832 349.853 338.062 349.243 338.522 348.77C338.982 348.297 339.545 348.06 340.212 348.06C340.852 348.06 341.375 348.327 341.782 348.86H341.802V348.21H342.892ZM338.982 350.6C338.982 351.033 339.105 351.407 339.352 351.72C339.605 352.033 339.965 352.19 340.432 352.19C340.812 352.19 341.142 352.043 341.422 351.75C341.709 351.45 341.852 351.077 341.852 350.63C341.852 350.157 341.715 349.77 341.442 349.47C341.175 349.17 340.842 349.02 340.442 349.02C339.975 349.02 339.615 349.177 339.362 349.49C339.109 349.803 338.982 350.173 338.982 350.6ZM343.697 354.55V352.03H343.807C344.46 352.03 344.85 351.35 344.977 349.99L345.147 348.21H348.817V352.03H349.537V354.55H348.437V353H344.797V354.55H343.697ZM347.697 352.03V349.18H346.087L345.997 350.08C345.944 350.633 345.874 351.05 345.787 351.33C345.7 351.61 345.574 351.843 345.407 352.03H347.697ZM352.44 348.05C353.213 348.057 353.806 348.31 354.22 348.81C354.64 349.303 354.85 349.887 354.85 350.56C354.85 350.713 354.843 350.823 354.83 350.89H351.13C351.13 351.263 351.27 351.59 351.55 351.87C351.836 352.15 352.173 352.29 352.56 352.29C353.006 352.29 353.363 352.11 353.63 351.75H354.78C354.6 352.163 354.323 352.503 353.95 352.77C353.583 353.037 353.12 353.17 352.56 353.17C351.82 353.17 351.21 352.927 350.73 352.44C350.25 351.947 350.01 351.32 350.01 350.56C350.01 349.86 350.23 349.267 350.67 348.78C351.116 348.293 351.706 348.05 352.44 348.05ZM352.44 348.89C352.073 348.89 351.773 349.007 351.54 349.24C351.306 349.473 351.173 349.753 351.14 350.08H353.73C353.696 349.747 353.56 349.467 353.32 349.24C353.086 349.007 352.793 348.89 352.44 348.89ZM360.297 348.21V353H359.177V350.97H356.967V353H355.847V348.21H356.967V350.03H359.177V348.21H360.297ZM361.599 353V348.21H362.679V350.05C362.679 350.643 362.669 351.133 362.649 351.52H362.669C362.769 351.333 362.989 351.007 363.329 350.54L365.059 348.21H366.049V353H364.969V351.17C364.969 350.577 364.979 350.083 364.999 349.69H364.979C364.873 349.883 364.653 350.21 364.319 350.67L362.589 353H361.599ZM368.471 348.21V350.05H369.191C369.305 349.457 369.588 348.977 370.041 348.61C370.501 348.237 371.048 348.05 371.681 348.05C372.428 348.05 373.041 348.293 373.521 348.78C374.001 349.26 374.241 349.867 374.241 350.6C374.241 351.313 373.998 351.92 373.511 352.42C373.025 352.92 372.415 353.17 371.681 353.17C371.015 353.17 370.445 352.96 369.971 352.54C369.505 352.12 369.235 351.587 369.161 350.94H368.471V353H367.351V348.21H368.471ZM370.641 349.48C370.381 349.773 370.251 350.147 370.251 350.6C370.251 351.053 370.388 351.43 370.661 351.73C370.941 352.023 371.281 352.17 371.681 352.17C372.095 352.17 372.435 352.02 372.701 351.72C372.968 351.42 373.101 351.047 373.101 350.6C373.101 350.16 372.971 349.79 372.711 349.49C372.451 349.19 372.108 349.04 371.681 349.04C371.255 349.04 370.908 349.187 370.641 349.48ZM377.213 354.55V352.03H377.323C377.976 352.03 378.366 351.35 378.493 349.99L378.663 348.21H382.333V352.03H383.053V354.55H381.953V353H378.313V354.55H377.213ZM381.213 352.03V349.18H379.603L379.513 350.08C379.459 350.633 379.389 351.05 379.303 351.33C379.216 351.61 379.089 351.843 378.923 352.03H381.213ZM385.955 348.05C386.729 348.057 387.322 348.31 387.735 348.81C388.155 349.303 388.365 349.887 388.365 350.56C388.365 350.713 388.359 350.823 388.345 350.89H384.645C384.645 351.263 384.785 351.59 385.065 351.87C385.352 352.15 385.689 352.29 386.075 352.29C386.522 352.29 386.879 352.11 387.145 351.75H388.295C388.115 352.163 387.839 352.503 387.465 352.77C387.099 353.037 386.635 353.17 386.075 353.17C385.335 353.17 384.725 352.927 384.245 352.44C383.765 351.947 383.525 351.32 383.525 350.56C383.525 349.86 383.745 349.267 384.185 348.78C384.632 348.293 385.222 348.05 385.955 348.05ZM385.955 348.89C385.589 348.89 385.289 349.007 385.055 349.24C384.822 349.473 384.689 349.753 384.655 350.08H387.245C387.212 349.747 387.075 349.467 386.835 349.24C386.602 349.007 386.309 348.89 385.955 348.89ZM390.203 350.6C390.203 351.053 390.34 351.43 390.613 351.73C390.893 352.023 391.233 352.17 391.633 352.17C392.053 352.17 392.393 352.023 392.653 351.73C392.92 351.43 393.053 351.053 393.053 350.6C393.053 350.16 392.926 349.79 392.673 349.49C392.42 349.19 392.08 349.04 391.653 349.04C391.226 349.04 390.876 349.19 390.603 349.49C390.336 349.783 390.203 350.153 390.203 350.6ZM392.193 347.16C391.053 347.333 390.41 347.847 390.263 348.7H390.293C390.453 348.52 390.666 348.373 390.933 348.26C391.206 348.14 391.486 348.08 391.773 348.08C392.493 348.08 393.076 348.317 393.523 348.79C393.97 349.263 394.193 349.867 394.193 350.6C394.193 351.313 393.95 351.92 393.463 352.42C392.976 352.92 392.366 353.17 391.633 353.17C390.873 353.17 390.26 352.913 389.793 352.4C389.326 351.88 389.093 351.153 389.093 350.22C389.093 349.673 389.14 349.187 389.233 348.76C389.333 348.333 389.466 347.977 389.633 347.69C389.8 347.397 390.006 347.147 390.253 346.94C390.506 346.733 390.773 346.573 391.053 346.46C391.34 346.347 391.663 346.26 392.023 346.2C392.53 346.107 392.963 345.95 393.323 345.73L393.773 346.65C393.293 346.917 392.766 347.087 392.193 347.16ZM395.094 353V351.65H396.504V353H395.094ZM340.463 360.21V365H339.343V362.97H337.133V365H336.013V360.21H337.133V362.03H339.343V360.21H340.463ZM343.865 360.05C344.639 360.057 345.232 360.31 345.645 360.81C346.065 361.303 346.275 361.887 346.275 362.56C346.275 362.713 346.269 362.823 346.255 362.89H342.555C342.555 363.263 342.695 363.59 342.975 363.87C343.262 364.15 343.599 364.29 343.985 364.29C344.432 364.29 344.789 364.11 345.055 363.75H346.205C346.025 364.163 345.749 364.503 345.375 364.77C345.009 365.037 344.545 365.17 343.985 365.17C343.245 365.17 342.635 364.927 342.155 364.44C341.675 363.947 341.435 363.32 341.435 362.56C341.435 361.86 341.655 361.267 342.095 360.78C342.542 360.293 343.132 360.05 343.865 360.05ZM343.865 360.89C343.499 360.89 343.199 361.007 342.965 361.24C342.732 361.473 342.599 361.753 342.565 362.08H345.155C345.122 361.747 344.985 361.467 344.745 361.24C344.512 361.007 344.219 360.89 343.865 360.89ZM350.173 360.69H350.193V357.8H351.293V360.69H351.323C351.617 360.27 352.04 360.06 352.593 360.06C353.133 360.06 353.59 360.287 353.963 360.74C354.337 361.187 354.523 361.813 354.523 362.62C354.523 363.373 354.34 363.987 353.973 364.46C353.613 364.933 353.14 365.17 352.553 365.17C352.287 365.17 352.043 365.113 351.823 365C351.61 364.88 351.443 364.727 351.323 364.54H351.293V367.35H350.193V364.53H350.173C349.827 364.957 349.41 365.17 348.923 365.17C348.33 365.17 347.853 364.933 347.493 364.46C347.14 363.987 346.963 363.367 346.963 362.6C346.963 361.853 347.15 361.243 347.523 360.77C347.897 360.297 348.383 360.06 348.983 360.06C349.23 360.06 349.46 360.123 349.673 360.25C349.887 360.37 350.053 360.517 350.173 360.69ZM348.083 362.6C348.083 363.087 348.18 363.48 348.373 363.78C348.573 364.073 348.843 364.22 349.183 364.22C349.477 364.22 349.727 364.08 349.933 363.8C350.14 363.513 350.243 363.123 350.243 362.63C350.243 362.117 350.143 361.72 349.943 361.44C349.75 361.153 349.493 361.01 349.173 361.01C348.84 361.01 348.573 361.16 348.373 361.46C348.18 361.76 348.083 362.14 348.083 362.6ZM353.403 362.61C353.403 362.163 353.313 361.787 353.133 361.48C352.953 361.167 352.683 361.01 352.323 361.01C352.01 361.01 351.753 361.15 351.553 361.43C351.353 361.703 351.253 362.103 351.253 362.63C351.253 363.103 351.35 363.487 351.543 363.78C351.743 364.073 352.007 364.22 352.333 364.22C352.667 364.22 352.927 364.07 353.113 363.77C353.307 363.47 353.403 363.083 353.403 362.61ZM358.695 360.21V361.18H357.395V365H356.285V361.18H354.975V360.21H358.695ZM359.451 365V360.21H360.531V362.05C360.531 362.643 360.521 363.133 360.501 363.52H360.521C360.621 363.333 360.841 363.007 361.181 362.54L362.911 360.21H363.901V365H362.821V363.17C362.821 362.577 362.831 362.083 362.851 361.69H362.831C362.724 361.883 362.504 362.21 362.171 362.67L360.441 365H359.451ZM372.153 360.21V365H371.033V361.18H368.823V365H367.703V360.21H372.153ZM373.125 362.6C373.125 361.867 373.368 361.26 373.855 360.78C374.348 360.293 374.958 360.05 375.685 360.05C376.432 360.05 377.045 360.293 377.525 360.78C378.005 361.26 378.245 361.867 378.245 362.6C378.245 363.313 378.002 363.92 377.515 364.42C377.028 364.92 376.418 365.17 375.685 365.17C374.958 365.17 374.348 364.923 373.855 364.43C373.368 363.937 373.125 363.327 373.125 362.6ZM374.655 361.48C374.395 361.773 374.265 362.147 374.265 362.6C374.265 363.053 374.402 363.43 374.675 363.73C374.955 364.023 375.292 364.17 375.685 364.17C376.105 364.17 376.448 364.023 376.715 363.73C376.982 363.43 377.115 363.053 377.115 362.6C377.115 362.16 376.985 361.79 376.725 361.49C376.465 361.19 376.118 361.04 375.685 361.04C375.258 361.04 374.915 361.187 374.655 361.48ZM321.196 374.6C321.196 373.867 321.439 373.26 321.926 372.78C322.419 372.293 323.029 372.05 323.756 372.05C324.503 372.05 325.116 372.293 325.596 372.78C326.076 373.26 326.316 373.867 326.316 374.6C326.316 375.313 326.073 375.92 325.586 376.42C325.099 376.92 324.489 377.17 323.756 377.17C323.029 377.17 322.419 376.923 321.926 376.43C321.439 375.937 321.196 375.327 321.196 374.6ZM322.726 373.48C322.466 373.773 322.336 374.147 322.336 374.6C322.336 375.053 322.473 375.43 322.746 375.73C323.026 376.023 323.363 376.17 323.756 376.17C324.176 376.17 324.519 376.023 324.786 375.73C325.053 375.43 325.186 375.053 325.186 374.6C325.186 374.16 325.056 373.79 324.796 373.49C324.536 373.19 324.189 373.04 323.756 373.04C323.329 373.04 322.986 373.187 322.726 373.48ZM328.138 374.6C328.138 375.053 328.274 375.43 328.548 375.73C328.828 376.023 329.168 376.17 329.568 376.17C329.988 376.17 330.328 376.023 330.588 375.73C330.854 375.43 330.988 375.053 330.988 374.6C330.988 374.16 330.861 373.79 330.608 373.49C330.354 373.19 330.014 373.04 329.588 373.04C329.161 373.04 328.811 373.19 328.538 373.49C328.271 373.783 328.138 374.153 328.138 374.6ZM330.128 371.16C328.988 371.333 328.344 371.847 328.198 372.7H328.228C328.388 372.52 328.601 372.373 328.868 372.26C329.141 372.14 329.421 372.08 329.708 372.08C330.428 372.08 331.011 372.317 331.458 372.79C331.904 373.263 332.128 373.867 332.128 374.6C332.128 375.313 331.884 375.92 331.398 376.42C330.911 376.92 330.301 377.17 329.568 377.17C328.808 377.17 328.194 376.913 327.728 376.4C327.261 375.88 327.028 375.153 327.028 374.22C327.028 373.673 327.074 373.187 327.168 372.76C327.268 372.333 327.401 371.977 327.568 371.69C327.734 371.397 327.941 371.147 328.188 370.94C328.441 370.733 328.708 370.573 328.988 370.46C329.274 370.347 329.598 370.26 329.958 370.2C330.464 370.107 330.898 369.95 331.258 369.73L331.708 370.65C331.228 370.917 330.701 371.087 330.128 371.16ZM333.098 377V372.21H335.108C335.622 372.21 336.018 372.313 336.298 372.52C336.578 372.72 336.718 373.007 336.718 373.38C336.718 373.613 336.652 373.823 336.518 374.01C336.385 374.19 336.185 374.317 335.918 374.39C336.312 374.463 336.598 374.607 336.778 374.82C336.965 375.033 337.058 375.283 337.058 375.57C337.058 376.003 336.902 376.35 336.588 376.61C336.282 376.87 335.852 377 335.298 377H333.098ZM335.088 374.88H334.158V376.22H335.188C335.455 376.22 335.652 376.157 335.778 376.03C335.912 375.903 335.978 375.743 335.978 375.55C335.978 375.103 335.682 374.88 335.088 374.88ZM334.918 372.99H334.158V374.12H334.838C335.378 374.12 335.648 373.923 335.648 373.53C335.648 373.17 335.405 372.99 334.918 372.99ZM337.778 374.6C337.778 373.867 338.022 373.26 338.508 372.78C339.002 372.293 339.612 372.05 340.338 372.05C341.085 372.05 341.698 372.293 342.178 372.78C342.658 373.26 342.898 373.867 342.898 374.6C342.898 375.313 342.655 375.92 342.168 376.42C341.682 376.92 341.072 377.17 340.338 377.17C339.612 377.17 339.002 376.923 338.508 376.43C338.022 375.937 337.778 375.327 337.778 374.6ZM339.308 373.48C339.048 373.773 338.918 374.147 338.918 374.6C338.918 375.053 339.055 375.43 339.328 375.73C339.608 376.023 339.945 376.17 340.338 376.17C340.758 376.17 341.102 376.023 341.368 375.73C341.635 375.43 341.768 375.053 341.768 374.6C341.768 374.16 341.638 373.79 341.378 373.49C341.118 373.19 340.772 373.04 340.338 373.04C339.912 373.04 339.568 373.187 339.308 373.48ZM343.38 378.55V376.03H343.49C344.143 376.03 344.533 375.35 344.66 373.99L344.83 372.21H348.5V376.03H349.22V378.55H348.12V377H344.48V378.55H343.38ZM347.38 376.03V373.18H345.77L345.68 374.08C345.626 374.633 345.556 375.05 345.47 375.33C345.383 375.61 345.256 375.843 345.09 376.03H347.38ZM354.472 372.21V377H353.352V374.97H351.142V377H350.022V372.21H351.142V374.03H353.352V372.21H354.472ZM357.874 372.05C358.648 372.057 359.241 372.31 359.654 372.81C360.074 373.303 360.284 373.887 360.284 374.56C360.284 374.713 360.278 374.823 360.264 374.89H356.564C356.564 375.263 356.704 375.59 356.984 375.87C357.271 376.15 357.608 376.29 357.994 376.29C358.441 376.29 358.798 376.11 359.064 375.75H360.214C360.034 376.163 359.758 376.503 359.384 376.77C359.018 377.037 358.554 377.17 357.994 377.17C357.254 377.17 356.644 376.927 356.164 376.44C355.684 375.947 355.444 375.32 355.444 374.56C355.444 373.86 355.664 373.267 356.104 372.78C356.551 372.293 357.141 372.05 357.874 372.05ZM357.874 372.89C357.508 372.89 357.208 373.007 356.974 373.24C356.741 373.473 356.608 373.753 356.574 374.08H359.164C359.131 373.747 358.994 373.467 358.754 373.24C358.521 373.007 358.228 372.89 357.874 372.89ZM365.732 372.21V377H364.612V374.97H362.402V377H361.282V372.21H362.402V374.03H364.612V372.21H365.732ZM371.484 372.21V377H370.364V374.97H368.154V377H367.034V372.21H368.154V374.03H370.364V372.21H371.484ZM372.456 374.6C372.456 373.867 372.699 373.26 373.186 372.78C373.679 372.293 374.289 372.05 375.016 372.05C375.763 372.05 376.376 372.293 376.856 372.78C377.336 373.26 377.576 373.867 377.576 374.6C377.576 375.313 377.333 375.92 376.846 376.42C376.359 376.92 375.749 377.17 375.016 377.17C374.289 377.17 373.679 376.923 373.186 376.43C372.699 375.937 372.456 375.327 372.456 374.6ZM373.986 373.48C373.726 373.773 373.596 374.147 373.596 374.6C373.596 375.053 373.733 375.43 374.006 375.73C374.286 376.023 374.623 376.17 375.016 376.17C375.436 376.17 375.779 376.023 376.046 375.73C376.313 375.43 376.446 375.053 376.446 374.6C376.446 374.16 376.316 373.79 376.056 373.49C375.796 373.19 375.449 373.04 375.016 373.04C374.589 373.04 374.246 373.187 373.986 373.48ZM380.777 372.05C381.404 372.05 381.907 372.213 382.287 372.54C382.667 372.867 382.901 373.237 382.987 373.65H381.837C381.664 373.217 381.307 373 380.767 373C380.354 373 380.017 373.143 379.757 373.43C379.504 373.717 379.377 374.107 379.377 374.6C379.377 375.06 379.507 375.443 379.767 375.75C380.034 376.057 380.381 376.21 380.807 376.21C381.334 376.21 381.701 375.97 381.907 375.49H383.067C382.921 375.977 382.657 376.38 382.277 376.7C381.904 377.013 381.407 377.17 380.787 377.17C380.054 377.17 379.444 376.933 378.957 376.46C378.471 375.98 378.227 375.357 378.227 374.59C378.227 373.87 378.461 373.267 378.927 372.78C379.394 372.293 380.011 372.05 380.777 372.05ZM387.206 372.21V373.18H385.906V377H384.796V373.18H383.486V372.21H387.206ZM387.962 377V372.21H389.042V374.05C389.042 374.643 389.032 375.133 389.012 375.52H389.032C389.132 375.333 389.352 375.007 389.692 374.54L391.422 372.21H392.412V377H391.332V375.17C391.332 374.577 391.342 374.083 391.362 373.69H391.342C391.235 373.883 391.015 374.21 390.682 374.67L388.952 377H387.962Z" fill="white"/>
    <path d="M417.358 353V347.22H414.458V353H413.308V346.18H418.508V353H417.358ZM419.539 350.6C419.539 349.867 419.783 349.26 420.269 348.78C420.763 348.293 421.373 348.05 422.099 348.05C422.846 348.05 423.459 348.293 423.939 348.78C424.419 349.26 424.659 349.867 424.659 350.6C424.659 351.313 424.416 351.92 423.929 352.42C423.443 352.92 422.833 353.17 422.099 353.17C421.373 353.17 420.763 352.923 420.269 352.43C419.783 351.937 419.539 351.327 419.539 350.6ZM421.069 349.48C420.809 349.773 420.679 350.147 420.679 350.6C420.679 351.053 420.816 351.43 421.089 351.73C421.369 352.023 421.706 352.17 422.099 352.17C422.519 352.17 422.863 352.023 423.129 351.73C423.396 351.43 423.529 351.053 423.529 350.6C423.529 350.16 423.399 349.79 423.139 349.49C422.879 349.19 422.533 349.04 422.099 349.04C421.673 349.04 421.329 349.187 421.069 349.48ZM432.591 348.21V353H431.471V349.18H429.261V353H428.141V348.21H432.591ZM438.623 348.21V353H437.533V352.39H437.503C437.083 352.91 436.536 353.17 435.863 353.17C435.27 353.17 434.736 352.943 434.263 352.49C433.796 352.03 433.563 351.4 433.563 350.6C433.563 349.853 433.793 349.243 434.253 348.77C434.713 348.297 435.276 348.06 435.943 348.06C436.583 348.06 437.106 348.327 437.513 348.86H437.533V348.21H438.623ZM434.713 350.6C434.713 351.033 434.836 351.407 435.083 351.72C435.336 352.033 435.696 352.19 436.163 352.19C436.543 352.19 436.873 352.043 437.153 351.75C437.44 351.45 437.583 351.077 437.583 350.63C437.583 350.157 437.446 349.77 437.173 349.47C436.906 349.17 436.573 349.02 436.173 349.02C435.706 349.02 435.346 349.177 435.093 349.49C434.84 349.803 434.713 350.173 434.713 350.6ZM439.428 354.55V352.03H439.538C440.191 352.03 440.581 351.35 440.708 349.99L440.878 348.21H444.548V352.03H445.268V354.55H444.168V353H440.528V354.55H439.428ZM443.428 352.03V349.18H441.818L441.728 350.08C441.675 350.633 441.605 351.05 441.518 351.33C441.431 351.61 441.305 351.843 441.138 352.03H443.428ZM448.171 348.05C448.944 348.057 449.537 348.31 449.951 348.81C450.371 349.303 450.581 349.887 450.581 350.56C450.581 350.713 450.574 350.823 450.561 350.89H446.861C446.861 351.263 447.001 351.59 447.281 351.87C447.567 352.15 447.904 352.29 448.291 352.29C448.737 352.29 449.094 352.11 449.361 351.75H450.511C450.331 352.163 450.054 352.503 449.681 352.77C449.314 353.037 448.851 353.17 448.291 353.17C447.551 353.17 446.941 352.927 446.461 352.44C445.981 351.947 445.741 351.32 445.741 350.56C445.741 349.86 445.961 349.267 446.401 348.78C446.847 348.293 447.437 348.05 448.171 348.05ZM448.171 348.89C447.804 348.89 447.504 349.007 447.271 349.24C447.037 349.473 446.904 349.753 446.871 350.08H449.461C449.427 349.747 449.291 349.467 449.051 349.24C448.817 349.007 448.524 348.89 448.171 348.89ZM456.028 348.21V353H454.908V350.97H452.698V353H451.578V348.21H452.698V350.03H454.908V348.21H456.028ZM457.33 353V348.21H458.41V350.05C458.41 350.643 458.4 351.133 458.38 351.52H458.4C458.5 351.333 458.72 351.007 459.06 350.54L460.79 348.21H461.78V353H460.7V351.17C460.7 350.577 460.71 350.083 460.73 349.69H460.71C460.604 349.883 460.384 350.21 460.05 350.67L458.32 353H457.33ZM464.202 348.21V350.05H464.922C465.036 349.457 465.319 348.977 465.772 348.61C466.232 348.237 466.779 348.05 467.412 348.05C468.159 348.05 468.772 348.293 469.252 348.78C469.732 349.26 469.972 349.867 469.972 350.6C469.972 351.313 469.729 351.92 469.242 352.42C468.756 352.92 468.146 353.17 467.412 353.17C466.746 353.17 466.176 352.96 465.702 352.54C465.236 352.12 464.966 351.587 464.892 350.94H464.202V353H463.082V348.21H464.202ZM466.372 349.48C466.112 349.773 465.982 350.147 465.982 350.6C465.982 351.053 466.119 351.43 466.392 351.73C466.672 352.023 467.012 352.17 467.412 352.17C467.826 352.17 468.166 352.02 468.432 351.72C468.699 351.42 468.832 351.047 468.832 350.6C468.832 350.16 468.702 349.79 468.442 349.49C468.182 349.19 467.839 349.04 467.412 349.04C466.986 349.04 466.639 349.187 466.372 349.48ZM408.735 366.55V364.03H408.845C409.498 364.03 409.888 363.35 410.015 361.99L410.185 360.21H413.855V364.03H414.575V366.55H413.475V365H409.835V366.55H408.735ZM412.735 364.03V361.18H411.125L411.035 362.08C410.981 362.633 410.911 363.05 410.825 363.33C410.738 363.61 410.611 363.843 410.445 364.03H412.735ZM417.477 360.05C418.251 360.057 418.844 360.31 419.257 360.81C419.677 361.303 419.887 361.887 419.887 362.56C419.887 362.713 419.881 362.823 419.867 362.89H416.167C416.167 363.263 416.307 363.59 416.587 363.87C416.874 364.15 417.211 364.29 417.597 364.29C418.044 364.29 418.401 364.11 418.667 363.75H419.817C419.637 364.163 419.361 364.503 418.987 364.77C418.621 365.037 418.157 365.17 417.597 365.17C416.857 365.17 416.247 364.927 415.767 364.44C415.287 363.947 415.047 363.32 415.047 362.56C415.047 361.86 415.267 361.267 415.707 360.78C416.154 360.293 416.744 360.05 417.477 360.05ZM417.477 360.89C417.111 360.89 416.811 361.007 416.577 361.24C416.344 361.473 416.211 361.753 416.177 362.08H418.767C418.734 361.747 418.597 361.467 418.357 361.24C418.124 361.007 417.831 360.89 417.477 360.89ZM421.725 362.6C421.725 363.053 421.862 363.43 422.135 363.73C422.415 364.023 422.755 364.17 423.155 364.17C423.575 364.17 423.915 364.023 424.175 363.73C424.442 363.43 424.575 363.053 424.575 362.6C424.575 362.16 424.448 361.79 424.195 361.49C423.942 361.19 423.602 361.04 423.175 361.04C422.748 361.04 422.398 361.19 422.125 361.49C421.858 361.783 421.725 362.153 421.725 362.6ZM423.715 359.16C422.575 359.333 421.932 359.847 421.785 360.7H421.815C421.975 360.52 422.188 360.373 422.455 360.26C422.728 360.14 423.008 360.08 423.295 360.08C424.015 360.08 424.598 360.317 425.045 360.79C425.492 361.263 425.715 361.867 425.715 362.6C425.715 363.313 425.472 363.92 424.985 364.42C424.498 364.92 423.888 365.17 423.155 365.17C422.395 365.17 421.782 364.913 421.315 364.4C420.848 363.88 420.615 363.153 420.615 362.22C420.615 361.673 420.662 361.187 420.755 360.76C420.855 360.333 420.988 359.977 421.155 359.69C421.322 359.397 421.528 359.147 421.775 358.94C422.028 358.733 422.295 358.573 422.575 358.46C422.862 358.347 423.185 358.26 423.545 358.2C424.052 358.107 424.485 357.95 424.845 357.73L425.295 358.65C424.815 358.917 424.288 359.087 423.715 359.16ZM426.616 365V363.65H428.026V365H426.616ZM436.194 360.21V365H435.074V362.97H432.864V365H431.744V360.21H432.864V362.03H435.074V360.21H436.194ZM439.596 360.05C440.37 360.057 440.963 360.31 441.376 360.81C441.796 361.303 442.006 361.887 442.006 362.56C442.006 362.713 442 362.823 441.986 362.89H438.286C438.286 363.263 438.426 363.59 438.706 363.87C438.993 364.15 439.33 364.29 439.716 364.29C440.163 364.29 440.52 364.11 440.786 363.75H441.936C441.756 364.163 441.48 364.503 441.106 364.77C440.74 365.037 440.276 365.17 439.716 365.17C438.976 365.17 438.366 364.927 437.886 364.44C437.406 363.947 437.166 363.32 437.166 362.56C437.166 361.86 437.386 361.267 437.826 360.78C438.273 360.293 438.863 360.05 439.596 360.05ZM439.596 360.89C439.23 360.89 438.93 361.007 438.696 361.24C438.463 361.473 438.33 361.753 438.296 362.08H440.886C440.853 361.747 440.716 361.467 440.476 361.24C440.243 361.007 439.95 360.89 439.596 360.89ZM445.904 360.69H445.924V357.8H447.024V360.69H447.054C447.348 360.27 447.771 360.06 448.324 360.06C448.864 360.06 449.321 360.287 449.694 360.74C450.068 361.187 450.254 361.813 450.254 362.62C450.254 363.373 450.071 363.987 449.704 364.46C449.344 364.933 448.871 365.17 448.284 365.17C448.018 365.17 447.774 365.113 447.554 365C447.341 364.88 447.174 364.727 447.054 364.54H447.024V367.35H445.924V364.53H445.904C445.558 364.957 445.141 365.17 444.654 365.17C444.061 365.17 443.584 364.933 443.224 364.46C442.871 363.987 442.694 363.367 442.694 362.6C442.694 361.853 442.881 361.243 443.254 360.77C443.628 360.297 444.114 360.06 444.714 360.06C444.961 360.06 445.191 360.123 445.404 360.25C445.618 360.37 445.784 360.517 445.904 360.69ZM443.814 362.6C443.814 363.087 443.911 363.48 444.104 363.78C444.304 364.073 444.574 364.22 444.914 364.22C445.208 364.22 445.458 364.08 445.664 363.8C445.871 363.513 445.974 363.123 445.974 362.63C445.974 362.117 445.874 361.72 445.674 361.44C445.481 361.153 445.224 361.01 444.904 361.01C444.571 361.01 444.304 361.16 444.104 361.46C443.911 361.76 443.814 362.14 443.814 362.6ZM449.134 362.61C449.134 362.163 449.044 361.787 448.864 361.48C448.684 361.167 448.414 361.01 448.054 361.01C447.741 361.01 447.484 361.15 447.284 361.43C447.084 361.703 446.984 362.103 446.984 362.63C446.984 363.103 447.081 363.487 447.274 363.78C447.474 364.073 447.738 364.22 448.064 364.22C448.398 364.22 448.658 364.07 448.844 363.77C449.038 363.47 449.134 363.083 449.134 362.61ZM454.426 360.21V361.18H453.126V365H452.016V361.18H450.706V360.21H454.426ZM455.182 365V360.21H456.262V362.05C456.262 362.643 456.252 363.133 456.232 363.52H456.252C456.352 363.333 456.572 363.007 456.912 362.54L458.642 360.21H459.632V365H458.552V363.17C458.552 362.577 458.562 362.083 458.582 361.69H458.562C458.455 361.883 458.235 362.21 457.902 362.67L456.172 365H455.182ZM467.884 360.21V365H466.764V361.18H464.554V365H463.434V360.21H467.884ZM468.856 362.6C468.856 361.867 469.099 361.26 469.586 360.78C470.079 360.293 470.689 360.05 471.416 360.05C472.163 360.05 472.776 360.293 473.256 360.78C473.736 361.26 473.976 361.867 473.976 362.6C473.976 363.313 473.733 363.92 473.246 364.42C472.759 364.92 472.149 365.17 471.416 365.17C470.689 365.17 470.079 364.923 469.586 364.43C469.099 363.937 468.856 363.327 468.856 362.6ZM470.386 361.48C470.126 361.773 469.996 362.147 469.996 362.6C469.996 363.053 470.133 363.43 470.406 363.73C470.686 364.023 471.023 364.17 471.416 364.17C471.836 364.17 472.179 364.023 472.446 363.73C472.713 363.43 472.846 363.053 472.846 362.6C472.846 362.16 472.716 361.79 472.456 361.49C472.196 361.19 471.849 361.04 471.416 361.04C470.989 361.04 470.646 361.187 470.386 361.48ZM421.907 377V374.62L420.167 377H418.857L420.787 374.48L418.927 372.21H420.177L421.907 374.37V372.21H422.987V374.37L424.707 372.21H425.957L424.097 374.48L426.037 377H424.717L422.987 374.62V377H421.907ZM426.647 377V372.21H427.727V374.05C427.727 374.643 427.717 375.133 427.697 375.52H427.717C427.817 375.333 428.037 375.007 428.377 374.54L430.107 372.21H431.097V377H430.017V375.17C430.017 374.577 430.027 374.083 430.047 373.69H430.027C429.92 373.883 429.7 374.21 429.367 374.67L427.637 377H426.647ZM431.899 378.55V376.03H432.009C432.662 376.03 433.052 375.35 433.179 373.99L433.349 372.21H437.019V376.03H437.739V378.55H436.639V377H432.999V378.55H431.899ZM435.899 376.03V373.18H434.289L434.199 374.08C434.145 374.633 434.075 375.05 433.989 375.33C433.902 375.61 433.775 375.843 433.609 376.03H435.899ZM438.541 377V372.21H439.661V374.33L441.661 372.21H442.971L440.831 374.48L443.031 377H441.671L439.661 374.66V377H438.541ZM443.397 374.6C443.397 373.867 443.64 373.26 444.127 372.78C444.62 372.293 445.23 372.05 445.957 372.05C446.704 372.05 447.317 372.293 447.797 372.78C448.277 373.26 448.517 373.867 448.517 374.6C448.517 375.313 448.274 375.92 447.787 376.42C447.3 376.92 446.69 377.17 445.957 377.17C445.23 377.17 444.62 376.923 444.127 376.43C443.64 375.937 443.397 375.327 443.397 374.6ZM444.927 373.48C444.667 373.773 444.537 374.147 444.537 374.6C444.537 375.053 444.674 375.43 444.947 375.73C445.227 376.023 445.564 376.17 445.957 376.17C446.377 376.17 446.72 376.023 446.987 375.73C447.254 375.43 447.387 375.053 447.387 374.6C447.387 374.16 447.257 373.79 446.997 373.49C446.737 373.19 446.39 373.04 445.957 373.04C445.53 373.04 445.187 373.187 444.927 373.48ZM451.718 372.05C452.345 372.05 452.848 372.213 453.228 372.54C453.608 372.867 453.842 373.237 453.928 373.65H452.778C452.605 373.217 452.248 373 451.708 373C451.295 373 450.958 373.143 450.698 373.43C450.445 373.717 450.318 374.107 450.318 374.6C450.318 375.06 450.448 375.443 450.708 375.75C450.975 376.057 451.322 376.21 451.748 376.21C452.275 376.21 452.642 375.97 452.848 375.49H454.008C453.862 375.977 453.598 376.38 453.218 376.7C452.845 377.013 452.348 377.17 451.728 377.17C450.995 377.17 450.385 376.933 449.898 376.46C449.412 375.98 449.168 375.357 449.168 374.59C449.168 373.87 449.402 373.267 449.868 372.78C450.335 372.293 450.952 372.05 451.718 372.05ZM458.147 372.21V373.18H456.847V377H455.737V373.18H454.427V372.21H458.147ZM458.903 377V372.21H459.983V374.05C459.983 374.643 459.973 375.133 459.953 375.52H459.973C460.073 375.333 460.293 375.007 460.633 374.54L462.363 372.21H463.353V377H462.273V375.17C462.273 374.577 462.283 374.083 462.303 373.69H462.283C462.176 373.883 461.956 374.21 461.623 374.67L459.893 377H458.903Z" fill="white"/>
    <path d="M505.883 353V347.22H502.983V353H501.833V346.18H507.033V353H505.883ZM508.064 350.6C508.064 349.867 508.307 349.26 508.794 348.78C509.287 348.293 509.897 348.05 510.624 348.05C511.371 348.05 511.984 348.293 512.464 348.78C512.944 349.26 513.184 349.867 513.184 350.6C513.184 351.313 512.941 351.92 512.454 352.42C511.967 352.92 511.357 353.17 510.624 353.17C509.897 353.17 509.287 352.923 508.794 352.43C508.307 351.937 508.064 351.327 508.064 350.6ZM509.594 349.48C509.334 349.773 509.204 350.147 509.204 350.6C509.204 351.053 509.341 351.43 509.614 351.73C509.894 352.023 510.231 352.17 510.624 352.17C511.044 352.17 511.387 352.023 511.654 351.73C511.921 351.43 512.054 351.053 512.054 350.6C512.054 350.16 511.924 349.79 511.664 349.49C511.404 349.19 511.057 349.04 510.624 349.04C510.197 349.04 509.854 349.187 509.594 349.48ZM516.665 353V348.21H517.785V350.33L519.785 348.21H521.095L518.955 350.48L521.155 353H519.795L517.785 350.66V353H516.665ZM521.521 350.6C521.521 349.867 521.764 349.26 522.251 348.78C522.744 348.293 523.354 348.05 524.081 348.05C524.828 348.05 525.441 348.293 525.921 348.78C526.401 349.26 526.641 349.867 526.641 350.6C526.641 351.313 526.398 351.92 525.911 352.42C525.424 352.92 524.814 353.17 524.081 353.17C523.354 353.17 522.744 352.923 522.251 352.43C521.764 351.937 521.521 351.327 521.521 350.6ZM523.051 349.48C522.791 349.773 522.661 350.147 522.661 350.6C522.661 351.053 522.798 351.43 523.071 351.73C523.351 352.023 523.688 352.17 524.081 352.17C524.501 352.17 524.844 352.023 525.111 351.73C525.378 351.43 525.511 351.053 525.511 350.6C525.511 350.16 525.381 349.79 525.121 349.49C524.861 349.19 524.514 349.04 524.081 349.04C523.654 349.04 523.311 349.187 523.051 349.48ZM529.562 348.05C530.316 348.05 530.922 348.293 531.382 348.78C531.849 349.26 532.082 349.867 532.082 350.6C532.082 351.347 531.842 351.963 531.362 352.45C530.889 352.93 530.272 353.17 529.512 353.17C528.892 353.17 528.389 353.017 528.002 352.71C527.622 352.403 527.372 352.03 527.252 351.59H528.402C528.596 352.057 528.962 352.29 529.502 352.29C529.889 352.29 530.209 352.167 530.462 351.92C530.722 351.667 530.872 351.333 530.912 350.92H528.852V350.12H530.892C530.826 349.733 530.669 349.44 530.422 349.24C530.176 349.033 529.879 348.93 529.532 348.93C528.986 348.93 528.626 349.13 528.452 349.53H527.282C527.402 349.123 527.652 348.777 528.032 348.49C528.412 348.197 528.922 348.05 529.562 348.05ZM535.952 348.69H535.972V345.8H537.072V348.69H537.102C537.395 348.27 537.819 348.06 538.372 348.06C538.912 348.06 539.369 348.287 539.742 348.74C540.115 349.187 540.302 349.813 540.302 350.62C540.302 351.373 540.119 351.987 539.752 352.46C539.392 352.933 538.919 353.17 538.332 353.17C538.065 353.17 537.822 353.113 537.602 353C537.389 352.88 537.222 352.727 537.102 352.54H537.072V355.35H535.972V352.53H535.952C535.605 352.957 535.189 353.17 534.702 353.17C534.109 353.17 533.632 352.933 533.272 352.46C532.919 351.987 532.742 351.367 532.742 350.6C532.742 349.853 532.929 349.243 533.302 348.77C533.675 348.297 534.162 348.06 534.762 348.06C535.009 348.06 535.239 348.123 535.452 348.25C535.665 348.37 535.832 348.517 535.952 348.69ZM533.862 350.6C533.862 351.087 533.959 351.48 534.152 351.78C534.352 352.073 534.622 352.22 534.962 352.22C535.255 352.22 535.505 352.08 535.712 351.8C535.919 351.513 536.022 351.123 536.022 350.63C536.022 350.117 535.922 349.72 535.722 349.44C535.529 349.153 535.272 349.01 534.952 349.01C534.619 349.01 534.352 349.16 534.152 349.46C533.959 349.76 533.862 350.14 533.862 350.6ZM539.182 350.61C539.182 350.163 539.092 349.787 538.912 349.48C538.732 349.167 538.462 349.01 538.102 349.01C537.789 349.01 537.532 349.15 537.332 349.43C537.132 349.703 537.032 350.103 537.032 350.63C537.032 351.103 537.129 351.487 537.322 351.78C537.522 352.073 537.785 352.22 538.112 352.22C538.445 352.22 538.705 352.07 538.892 351.77C539.085 351.47 539.182 351.083 539.182 350.61ZM544.624 350.83H541.404V349.89H544.624V350.83ZM549.142 348.21V349.18H547.842V353H546.732V349.18H545.422V348.21H549.142ZM553.808 348.21L551.178 355.35H550.108L550.988 352.98L549.238 348.21H550.388L551.218 350.59C551.391 351.117 551.498 351.483 551.538 351.69H551.568C551.661 351.317 551.768 350.95 551.888 350.59L552.698 348.21H553.808ZM497.253 360.05C498.006 360.05 498.613 360.293 499.073 360.78C499.539 361.26 499.773 361.867 499.773 362.6C499.773 363.347 499.533 363.963 499.053 364.45C498.579 364.93 497.963 365.17 497.203 365.17C496.583 365.17 496.079 365.017 495.693 364.71C495.313 364.403 495.063 364.03 494.943 363.59H496.093C496.286 364.057 496.653 364.29 497.193 364.29C497.579 364.29 497.899 364.167 498.153 363.92C498.413 363.667 498.563 363.333 498.603 362.92H496.543V362.12H498.583C498.516 361.733 498.359 361.44 498.113 361.24C497.866 361.033 497.569 360.93 497.223 360.93C496.676 360.93 496.316 361.13 496.143 361.53H494.973C495.093 361.123 495.343 360.777 495.723 360.49C496.103 360.197 496.613 360.05 497.253 360.05ZM500.742 365V360.21H501.862V362.33L503.862 360.21H505.172L503.032 362.48L505.232 365H503.872L501.862 362.66V365H500.742ZM508.148 360.05C508.775 360.05 509.278 360.213 509.658 360.54C510.038 360.867 510.271 361.237 510.358 361.65H509.208C509.035 361.217 508.678 361 508.138 361C507.725 361 507.388 361.143 507.128 361.43C506.875 361.717 506.748 362.107 506.748 362.6C506.748 363.06 506.878 363.443 507.138 363.75C507.405 364.057 507.751 364.21 508.178 364.21C508.705 364.21 509.071 363.97 509.278 363.49H510.438C510.291 363.977 510.028 364.38 509.648 364.7C509.275 365.013 508.778 365.17 508.158 365.17C507.425 365.17 506.815 364.933 506.328 364.46C505.841 363.98 505.598 363.357 505.598 362.59C505.598 361.87 505.831 361.267 506.298 360.78C506.765 360.293 507.381 360.05 508.148 360.05ZM515.847 360.21V365H514.727V361.18H512.517V365H511.397V360.21H515.847ZM517.479 363.43L517.769 360.21H521.579V365H520.469V361.18H518.729L518.509 363.56C518.455 364.107 518.322 364.497 518.109 364.73C517.895 364.957 517.559 365.07 517.099 365.07C516.965 365.07 516.805 365.05 516.619 365.01V364.09C516.725 364.117 516.835 364.13 516.949 364.13C517.122 364.13 517.249 364.073 517.329 363.96C517.409 363.847 517.459 363.67 517.479 363.43ZM526.791 360.21L524.161 367.35H523.091L523.971 364.98L522.221 360.21H523.371L524.201 362.59C524.375 363.117 524.481 363.483 524.521 363.69H524.551C524.645 363.317 524.751 362.95 524.871 362.59L525.681 360.21H526.791ZM532.133 360.21V365H531.043V364.39H531.013C530.593 364.91 530.046 365.17 529.373 365.17C528.779 365.17 528.246 364.943 527.773 364.49C527.306 364.03 527.073 363.4 527.073 362.6C527.073 361.853 527.303 361.243 527.763 360.77C528.223 360.297 528.786 360.06 529.453 360.06C530.093 360.06 530.616 360.327 531.023 360.86H531.043V360.21H532.133ZM528.223 362.6C528.223 363.033 528.346 363.407 528.593 363.72C528.846 364.033 529.206 364.19 529.673 364.19C530.053 364.19 530.383 364.043 530.663 363.75C530.949 363.45 531.093 363.077 531.093 362.63C531.093 362.157 530.956 361.77 530.683 361.47C530.416 361.17 530.083 361.02 529.683 361.02C529.216 361.02 528.856 361.177 528.603 361.49C528.349 361.803 528.223 362.173 528.223 362.6ZM536.618 360.21V361.18H535.318V365H534.208V361.18H532.898V360.21H536.618ZM542.103 360.21V365H541.013V364.39H540.983C540.563 364.91 540.017 365.17 539.343 365.17C538.75 365.17 538.217 364.943 537.743 364.49C537.277 364.03 537.043 363.4 537.043 362.6C537.043 361.853 537.273 361.243 537.733 360.77C538.193 360.297 538.757 360.06 539.423 360.06C540.063 360.06 540.587 360.327 540.993 360.86H541.013V360.21H542.103ZM538.193 362.6C538.193 363.033 538.317 363.407 538.563 363.72C538.817 364.033 539.177 364.19 539.643 364.19C540.023 364.19 540.353 364.043 540.633 363.75C540.92 363.45 541.063 363.077 541.063 362.63C541.063 362.157 540.927 361.77 540.653 361.47C540.387 361.17 540.053 361.02 539.653 361.02C539.187 361.02 538.827 361.177 538.573 361.49C538.32 361.803 538.193 362.173 538.193 362.6ZM547.859 364.03H548.579V366.55H547.459V365H543.409V360.21H544.529V364.03H546.739V360.21H547.859V364.03ZM549.375 365V360.21H550.455V362.05C550.455 362.643 550.445 363.133 550.425 363.52H550.445C550.545 363.333 550.765 363.007 551.105 362.54L552.835 360.21H553.825V365H552.745V363.17C552.745 362.577 552.755 362.083 552.775 361.69H552.755C552.649 361.883 552.429 362.21 552.095 362.67L550.365 365H549.375ZM555.127 365V360.21H556.207V362.05C556.207 362.643 556.197 363.133 556.177 363.52H556.197C556.297 363.333 556.517 363.007 556.857 362.54L558.587 360.21H559.577V365H558.497V363.17C558.497 362.577 558.507 362.083 558.527 361.69H558.507C558.401 361.883 558.181 362.21 557.847 362.67L556.117 365H555.127Z" fill="white"/>
    <path d="M648.831 351.38V347.74C648.297 347.74 647.867 347.907 647.541 348.24C647.214 348.573 647.051 349.01 647.051 349.55C647.051 350.09 647.224 350.53 647.571 350.87C647.917 351.21 648.337 351.38 648.831 351.38ZM650.011 347.74V351.38C650.504 351.38 650.924 351.21 651.271 350.87C651.617 350.53 651.791 350.09 651.791 349.55C651.791 349.017 651.624 348.583 651.291 348.25C650.964 347.91 650.537 347.74 650.011 347.74ZM650.011 353.1H648.831V352.34C647.944 352.327 647.224 352.06 646.671 351.54C646.117 351.013 645.841 350.35 645.841 349.55C645.841 348.743 646.117 348.087 646.671 347.58C647.231 347.067 647.951 346.803 648.831 346.79V346.09H650.011V346.79C650.897 346.803 651.617 347.067 652.171 347.58C652.724 348.087 653.001 348.743 653.001 349.55C653.001 350.357 652.724 351.02 652.171 351.54C651.617 352.06 650.897 352.327 650.011 352.34V353.1ZM658.703 348.21V353H657.613V352.39H657.583C657.163 352.91 656.617 353.17 655.943 353.17C655.35 353.17 654.817 352.943 654.343 352.49C653.877 352.03 653.643 351.4 653.643 350.6C653.643 349.853 653.873 349.243 654.333 348.77C654.793 348.297 655.357 348.06 656.023 348.06C656.663 348.06 657.187 348.327 657.593 348.86H657.613V348.21H658.703ZM654.793 350.6C654.793 351.033 654.917 351.407 655.163 351.72C655.417 352.033 655.777 352.19 656.243 352.19C656.623 352.19 656.953 352.043 657.233 351.75C657.52 351.45 657.663 351.077 657.663 350.63C657.663 350.157 657.527 349.77 657.253 349.47C656.987 349.17 656.653 349.02 656.253 349.02C655.787 349.02 655.427 349.177 655.173 349.49C654.92 349.803 654.793 350.173 654.793 350.6ZM660.008 353V348.21H661.128V350.33L663.128 348.21H664.438L662.298 350.48L664.498 353H663.138L661.128 350.66V353H660.008ZM668.374 348.21V349.18H667.074V353H665.964V349.18H664.654V348.21H668.374Z" fill="white"/>
    <path d="M62.7433 355V348.064H59.2633V355H57.8833V346.816H64.1233V355H62.7433ZM66.1526 353.116L66.5006 349.252H71.0726V355H69.7406V350.416H67.6526L67.3886 353.272C67.3246 353.928 67.1646 354.396 66.9086 354.676C66.6526 354.948 66.2486 355.084 65.6966 355.084C65.5366 355.084 65.3446 355.06 65.1206 355.012V353.908C65.2486 353.94 65.3806 353.956 65.5166 353.956C65.7246 353.956 65.8766 353.888 65.9726 353.752C66.0686 353.616 66.1286 353.404 66.1526 353.116ZM78.3115 349.252V355H77.0035V354.268H76.9675C76.4635 354.892 75.8075 355.204 74.9995 355.204C74.2875 355.204 73.6475 354.932 73.0795 354.388C72.5195 353.836 72.2395 353.08 72.2395 352.12C72.2395 351.224 72.5155 350.492 73.0675 349.924C73.6195 349.356 74.2955 349.072 75.0955 349.072C75.8635 349.072 76.4915 349.392 76.9795 350.032H77.0035V349.252H78.3115ZM73.6195 352.12C73.6195 352.64 73.7675 353.088 74.0635 353.464C74.3675 353.84 74.7995 354.028 75.3595 354.028C75.8155 354.028 76.2115 353.852 76.5475 353.5C76.8915 353.14 77.0635 352.692 77.0635 352.156C77.0635 351.588 76.8995 351.124 76.5715 350.764C76.2515 350.404 75.8515 350.224 75.3715 350.224C74.8115 350.224 74.3795 350.412 74.0755 350.788C73.7715 351.164 73.6195 351.608 73.6195 352.12ZM85.2177 349.252V355H83.8737V352.564H81.2217V355H79.8777V349.252H81.2217V351.436H83.8737V349.252H85.2177Z" fill="white"/>
    <path d="M11 16H142.5M11 16L11.0003 238M11 16H573.5M142.5 16V339.289M142.5 16H573.5M142.5 16V238H11.0003M142.5 339.289H11.0004L11.0003 238M142.5 339.289H573.5M697 238V16H573.5M697 238V339.289H573.5M697 238H573.5V16M573.5 339.289V16" stroke="#3C4270"/>
    <path d="M306.104 302.76V295.48C305.038 295.48 304.178 295.813 303.524 296.48C302.871 297.147 302.544 298.02 302.544 299.1C302.544 300.18 302.891 301.06 303.584 301.74C304.278 302.42 305.118 302.76 306.104 302.76ZM308.464 295.48V302.76C309.451 302.76 310.291 302.42 310.984 301.74C311.678 301.06 312.024 300.18 312.024 299.1C312.024 298.033 311.691 297.167 311.024 296.5C310.371 295.82 309.518 295.48 308.464 295.48ZM308.464 306.2H306.104V304.68C304.331 304.653 302.891 304.12 301.784 303.08C300.678 302.027 300.124 300.7 300.124 299.1C300.124 297.487 300.678 296.173 301.784 295.16C302.904 294.133 304.344 293.607 306.104 293.58V292.18H308.464V293.58C310.238 293.607 311.678 294.133 312.784 295.16C313.891 296.173 314.444 297.487 314.444 299.1C314.444 300.713 313.891 302.04 312.784 303.08C311.678 304.12 310.238 304.653 308.464 304.68V306.2ZM325.85 296.42V306H323.67V304.78H323.61C322.77 305.82 321.677 306.34 320.33 306.34C319.143 306.34 318.077 305.887 317.13 304.98C316.197 304.06 315.73 302.8 315.73 301.2C315.73 299.707 316.19 298.487 317.11 297.54C318.03 296.593 319.157 296.12 320.49 296.12C321.77 296.12 322.817 296.653 323.63 297.72H323.67V296.42H325.85ZM318.03 301.2C318.03 302.067 318.277 302.813 318.77 303.44C319.277 304.067 319.997 304.38 320.93 304.38C321.69 304.38 322.35 304.087 322.91 303.5C323.483 302.9 323.77 302.153 323.77 301.26C323.77 300.313 323.497 299.54 322.95 298.94C322.417 298.34 321.75 298.04 320.95 298.04C320.017 298.04 319.297 298.353 318.79 298.98C318.283 299.607 318.03 300.347 318.03 301.2ZM328.46 306V296.42H330.7V300.66L334.7 296.42H337.32L333.04 300.96L337.44 306H334.72L330.7 301.32V306H328.46ZM345.191 296.42V298.36H342.591V306H340.371V298.36H337.751V296.42H345.191ZM350.882 303.42H353.002C353.069 303.78 353.256 304.073 353.562 304.3C353.869 304.527 354.276 304.64 354.782 304.64C355.369 304.64 355.822 304.513 356.142 304.26C356.462 304.007 356.622 303.673 356.622 303.26C356.622 302.82 356.456 302.473 356.122 302.22C355.802 301.967 355.409 301.84 354.942 301.84H353.842V300.24H355.002C355.429 300.24 355.776 300.127 356.042 299.9C356.309 299.673 356.442 299.373 356.442 299C356.442 298.653 356.296 298.367 356.002 298.14C355.722 297.913 355.342 297.8 354.862 297.8C354.449 297.8 354.096 297.893 353.802 298.08C353.509 298.267 353.322 298.533 353.242 298.88H351.142C351.276 298.027 351.682 297.353 352.362 296.86C353.042 296.353 353.896 296.1 354.922 296.1C356.029 296.1 356.909 296.347 357.562 296.84C358.216 297.32 358.542 297.953 358.542 298.74C358.542 299.913 357.962 300.673 356.802 301.02C357.402 301.153 357.882 301.427 358.242 301.84C358.602 302.24 358.782 302.72 358.782 303.28C358.782 304.2 358.442 304.947 357.762 305.52C357.082 306.08 356.062 306.36 354.702 306.36C353.662 306.36 352.796 306.107 352.102 305.6C351.422 305.08 351.016 304.353 350.882 303.42ZM370.283 296.42V306H368.103V304.78H368.043C367.203 305.82 366.11 306.34 364.763 306.34C363.577 306.34 362.51 305.887 361.563 304.98C360.63 304.06 360.163 302.8 360.163 301.2C360.163 299.707 360.623 298.487 361.543 297.54C362.463 296.593 363.59 296.12 364.923 296.12C366.203 296.12 367.25 296.653 368.063 297.72H368.103V296.42H370.283ZM362.463 301.2C362.463 302.067 362.71 302.813 363.203 303.44C363.71 304.067 364.43 304.38 365.363 304.38C366.123 304.38 366.783 304.087 367.343 303.5C367.917 302.9 368.203 302.153 368.203 301.26C368.203 300.313 367.93 299.54 367.383 298.94C366.85 298.34 366.183 298.04 365.383 298.04C364.45 298.04 363.73 298.353 363.223 298.98C362.717 299.607 362.463 300.347 362.463 301.2ZM386.794 296.42V306H384.554V298.36H380.134V306H377.894V296.42H386.794ZM393.598 296.1C395.144 296.113 396.331 296.62 397.158 297.62C397.998 298.607 398.418 299.773 398.418 301.12C398.418 301.427 398.404 301.647 398.378 301.78H390.978C390.978 302.527 391.258 303.18 391.818 303.74C392.391 304.3 393.064 304.58 393.838 304.58C394.731 304.58 395.444 304.22 395.978 303.5H398.278C397.918 304.327 397.364 305.007 396.618 305.54C395.884 306.073 394.958 306.34 393.838 306.34C392.358 306.34 391.138 305.853 390.178 304.88C389.218 303.893 388.738 302.64 388.738 301.12C388.738 299.72 389.178 298.533 390.058 297.56C390.951 296.587 392.131 296.1 393.598 296.1ZM393.598 297.78C392.864 297.78 392.264 298.013 391.798 298.48C391.331 298.947 391.064 299.507 390.998 300.16H396.178C396.111 299.493 395.838 298.933 395.358 298.48C394.891 298.013 394.304 297.78 393.598 297.78ZM400.413 310.7V296.42H402.593V297.64H402.653C403.52 296.627 404.62 296.12 405.953 296.12C407.22 296.12 408.3 296.6 409.193 297.56C410.087 298.507 410.533 299.733 410.533 301.24C410.533 302.72 410.073 303.94 409.153 304.9C408.247 305.86 407.14 306.34 405.833 306.34C404.527 306.34 403.473 305.84 402.673 304.84H402.613V310.7H400.413ZM408.233 301.22C408.233 300.353 407.98 299.613 407.473 299C406.967 298.387 406.253 298.08 405.333 298.08C404.533 298.08 403.86 298.373 403.313 298.96C402.78 299.547 402.513 300.313 402.513 301.26C402.513 302.167 402.787 302.92 403.333 303.52C403.893 304.107 404.567 304.4 405.353 304.4C406.26 304.4 406.967 304.087 407.473 303.46C407.98 302.82 408.233 302.073 408.233 301.22ZM412.484 306V296.42H414.644V300.1C414.644 301.287 414.624 302.267 414.584 303.04H414.624C414.824 302.667 415.264 302.013 415.944 301.08L419.404 296.42H421.384V306H419.224V302.34C419.224 301.153 419.244 300.167 419.284 299.38H419.244C419.03 299.767 418.59 300.42 417.924 301.34L414.464 306H412.484ZM423.328 301.2C423.328 299.733 423.814 298.52 424.788 297.56C425.774 296.587 426.994 296.1 428.448 296.1C429.941 296.1 431.168 296.587 432.128 297.56C433.088 298.52 433.568 299.733 433.568 301.2C433.568 302.627 433.081 303.84 432.108 304.84C431.134 305.84 429.914 306.34 428.448 306.34C426.994 306.34 425.774 305.847 424.788 304.86C423.814 303.873 423.328 302.653 423.328 301.2ZM426.388 298.96C425.868 299.547 425.608 300.293 425.608 301.2C425.608 302.107 425.881 302.86 426.428 303.46C426.988 304.047 427.661 304.34 428.448 304.34C429.288 304.34 429.974 304.047 430.508 303.46C431.041 302.86 431.308 302.107 431.308 301.2C431.308 300.32 431.048 299.58 430.528 298.98C430.008 298.38 429.314 298.08 428.448 298.08C427.594 298.08 426.908 298.373 426.388 298.96ZM434.53 309.1V304.06H434.75C436.057 304.06 436.837 302.7 437.09 299.98L437.43 296.42H444.77V304.06H446.21V309.1H444.01V306H436.73V309.1H434.53ZM442.53 304.06V298.36H439.31L439.13 300.16C439.024 301.267 438.884 302.1 438.71 302.66C438.537 303.22 438.284 303.687 437.95 304.06H442.53Z" fill="white"/>
    <rect x="11" y="158" width="132" height="181" fill="#2196F3"/>
    <rect x="574" y="238" width="123" height="101" fill="#3951CE"/>
    <path d="M61.9066 258.16H60.1666V261H57.9266V258.16H51.8666V256.28L57.9466 247.36H60.1666V256.18H61.9066V258.16ZM56.9066 252.02L54.0266 256.18H57.9266V251.98C57.9266 251.287 57.9332 250.753 57.9466 250.38H57.8866C57.6466 250.86 57.3199 251.407 56.9066 252.02ZM63.1933 256.5C63.1933 255.74 63.3333 255.02 63.6133 254.34C63.9066 253.66 64.3266 252.927 64.8733 252.14L68.2933 247.36H70.8533L67.6933 251.74C67.9733 251.633 68.3599 251.58 68.8533 251.58C70.1599 251.62 71.2399 252.107 72.0933 253.04C72.9599 253.973 73.3933 255.127 73.3933 256.5C73.3933 257.873 72.9066 259.04 71.9333 260C70.9599 260.96 69.7399 261.44 68.2733 261.44C66.7799 261.44 65.5599 260.98 64.6133 260.06C63.6666 259.127 63.1933 257.94 63.1933 256.5ZM65.5533 256.52C65.5533 257.347 65.8133 258.04 66.3333 258.6C66.8666 259.147 67.5133 259.42 68.2733 259.42C69.0599 259.42 69.7133 259.147 70.2333 258.6C70.7666 258.053 71.0333 257.36 71.0333 256.52C71.0333 255.68 70.7733 254.98 70.2533 254.42C69.7466 253.86 69.0866 253.58 68.2733 253.58C67.4733 253.58 66.8199 253.853 66.3133 254.4C65.8066 254.947 65.5533 255.653 65.5533 256.52ZM84.14 247.36V249.28L78.66 261H76.14L81.74 249.42H75.44V247.36H84.14ZM95.5267 247.36V249.28L90.0467 261H87.5267L93.1267 249.42H86.8267V247.36H95.5267Z" fill="white"/>
    <path d="M623.907 294.16H622.167V297H619.927V294.16H613.867V292.28L619.947 283.36H622.167V292.18H623.907V294.16ZM618.907 288.02L616.027 292.18H619.927V287.98C619.927 287.287 619.933 286.753 619.947 286.38H619.887C619.647 286.86 619.32 287.407 618.907 288.02ZM629.133 285.42L628.833 288.36C629.233 288.253 629.667 288.2 630.133 288.2C631.6 288.2 632.773 288.607 633.653 289.42C634.533 290.22 634.973 291.307 634.973 292.68C634.973 293.947 634.54 295.06 633.673 296.02C632.82 296.967 631.667 297.44 630.213 297.44C628.827 297.44 627.727 297.067 626.913 296.32C626.1 295.56 625.653 294.62 625.573 293.5H627.993C628.073 294.047 628.3 294.5 628.673 294.86C629.06 295.207 629.593 295.38 630.273 295.38C630.913 295.38 631.453 295.153 631.893 294.7C632.333 294.233 632.553 293.627 632.553 292.88C632.553 292.04 632.3 291.393 631.793 290.94C631.287 290.473 630.547 290.24 629.573 290.24C628.627 290.24 627.567 290.387 626.393 290.68L627.093 283.36H634.033V285.42H629.133ZM640.26 285.42C639.873 285.78 639.68 286.253 639.68 286.84C639.68 287.427 639.873 287.92 640.26 288.32C640.66 288.707 641.127 288.9 641.66 288.9C642.26 288.9 642.747 288.707 643.12 288.32C643.507 287.933 643.7 287.44 643.7 286.84C643.7 286.253 643.507 285.78 643.12 285.42C642.747 285.06 642.267 284.88 641.68 284.88C641.12 284.88 640.647 285.06 640.26 285.42ZM640 291.38C639.547 291.833 639.32 292.407 639.32 293.1C639.32 293.793 639.54 294.367 639.98 294.82C640.433 295.26 641.013 295.48 641.72 295.48C642.427 295.48 642.993 295.273 643.42 294.86C643.86 294.433 644.08 293.847 644.08 293.1C644.08 292.393 643.86 291.82 643.42 291.38C642.98 290.927 642.42 290.7 641.74 290.7C641.033 290.7 640.453 290.927 640 291.38ZM646.42 293.2C646.42 294.387 646.013 295.387 645.2 296.2C644.387 297.013 643.22 297.42 641.7 297.42C640.18 297.42 639.007 297.027 638.18 296.24C637.367 295.44 636.96 294.46 636.96 293.3C636.96 291.54 637.767 290.34 639.38 289.7V289.66C638.033 289.087 637.36 288.08 637.36 286.64C637.36 285.6 637.753 284.72 638.54 284C639.34 283.28 640.393 282.92 641.7 282.92C642.98 282.92 644.013 283.28 644.8 284C645.6 284.707 646 285.56 646 286.56C646 287.307 645.813 287.96 645.44 288.52C645.08 289.067 644.6 289.447 644 289.66V289.7C645.613 290.287 646.42 291.453 646.42 293.2ZM648.867 297V295.16L653.087 290.46C653.727 289.74 654.213 289.093 654.547 288.52C654.893 287.947 655.067 287.373 655.067 286.8C655.067 286.267 654.893 285.827 654.547 285.48C654.213 285.12 653.753 284.94 653.167 284.94C652.593 284.94 652.127 285.14 651.767 285.54C651.407 285.94 651.227 286.467 651.227 287.12H648.867C648.893 285.893 649.293 284.887 650.067 284.1C650.84 283.313 651.893 282.92 653.227 282.92C654.533 282.92 655.56 283.28 656.307 284C657.067 284.707 657.447 285.6 657.447 286.68C657.447 287.533 657.22 288.347 656.767 289.12C656.327 289.88 655.62 290.787 654.647 291.84L651.767 294.94H657.667V297H648.867Z" fill="white"/>
    <rect x="228.664" y="16" width="85.7323" height="83.25" fill="#4CAF50"/>
    <rect x="314.252" y="12.7812" width="86.6745" height="3.46875" fill="#4CAF50"/>
    <rect x="487.268" y="155" width="85.7323" height="83.25" fill="#EF5350"/>
    <rect x="143" y="99" width="85.3394" height="58.9688" fill="#4CAF50"/>
    <path d="M179.145 126.653H176.163V129.719H174.889V126.653H171.921V125.379H174.889V122.299H176.163V125.379H179.145V126.653ZM187.333 120.171V121.515L183.497 129.719H181.733L185.653 121.613H181.243V120.171H187.333ZM191.37 121.613L191.16 123.671C191.44 123.596 191.743 123.559 192.07 123.559C193.097 123.559 193.918 123.843 194.534 124.413C195.15 124.973 195.458 125.733 195.458 126.695C195.458 127.581 195.155 128.361 194.548 129.033C193.951 129.695 193.143 130.027 192.126 130.027C191.155 130.027 190.385 129.765 189.816 129.243C189.247 128.711 188.934 128.053 188.878 127.269H190.572C190.628 127.651 190.787 127.969 191.048 128.221C191.319 128.463 191.692 128.585 192.168 128.585C192.616 128.585 192.994 128.426 193.302 128.109C193.61 127.782 193.764 127.357 193.764 126.835C193.764 126.247 193.587 125.794 193.232 125.477C192.877 125.15 192.359 124.987 191.678 124.987C191.015 124.987 190.273 125.089 189.452 125.295L189.942 120.171H194.8V121.613H191.37Z" fill="white"/>
    <path d="M261.226 57.934H258.244V61H256.97V57.934H254.002V56.66H256.97V53.58H258.244V56.66H261.226V57.934ZM265.578 61V52.894H264.22V51.452H267.174V61H265.578ZM277.385 51.452V52.796L273.549 61H271.785L275.705 52.894H271.295V51.452H277.385ZM281.519 61V52.894H280.161V51.452H283.115V61H281.519Z" fill="white"/>
    <path d="M356.783 24.934H353.801V28H352.527V24.934H349.559V23.66H352.527V20.58H353.801V23.66H356.783V24.934ZM358.909 28V26.712L361.863 23.422C362.311 22.918 362.652 22.4653 362.885 22.064C363.128 21.6627 363.249 21.2613 363.249 20.86C363.249 20.4867 363.128 20.1787 362.885 19.936C362.652 19.684 362.33 19.558 361.919 19.558C361.518 19.558 361.191 19.698 360.939 19.978C360.687 20.258 360.561 20.6267 360.561 21.084H358.909C358.928 20.2253 359.208 19.5207 359.749 18.97C360.29 18.4193 361.028 18.144 361.961 18.144C362.876 18.144 363.594 18.396 364.117 18.9C364.649 19.3947 364.915 20.02 364.915 20.776C364.915 21.3733 364.756 21.9427 364.439 22.484C364.131 23.016 363.636 23.6507 362.955 24.388L360.939 26.558H365.069V28H358.909Z" fill="white"/>
    <rect width="85.3394" height="138.75" transform="matrix(1 0 0 -1 402.213 154.75)" fill="#EF5350"/>
    <path d="M432.557 84.962H428.049V83.646H432.557V84.962ZM434.556 88V86.712L437.51 83.422C437.958 82.918 438.298 82.4653 438.532 82.064C438.774 81.6627 438.896 81.2613 438.896 80.86C438.896 80.4867 438.774 80.1787 438.532 79.936C438.298 79.684 437.976 79.558 437.566 79.558C437.164 79.558 436.838 79.698 436.586 79.978C436.334 80.258 436.208 80.6267 436.208 81.084H434.556C434.574 80.2253 434.854 79.5207 435.396 78.97C435.937 78.4193 436.674 78.144 437.608 78.144C438.522 78.144 439.241 78.396 439.764 78.9C440.296 79.3947 440.562 80.02 440.562 80.776C440.562 81.3733 440.403 81.9427 440.086 82.484C439.778 83.016 439.283 83.6507 438.602 84.388L436.586 86.558H440.716V88H434.556ZM441.896 84.85C441.896 84.318 441.994 83.814 442.19 83.338C442.396 82.862 442.69 82.3487 443.072 81.798L445.466 78.452H447.258L445.046 81.518C445.242 81.4433 445.513 81.406 445.858 81.406C446.773 81.434 447.529 81.7747 448.126 82.428C448.733 83.0813 449.036 83.8887 449.036 84.85C449.036 85.8113 448.696 86.628 448.014 87.3C447.333 87.972 446.479 88.308 445.452 88.308C444.407 88.308 443.553 87.986 442.89 87.342C442.228 86.6887 441.896 85.858 441.896 84.85ZM443.548 84.864C443.548 85.4427 443.73 85.928 444.094 86.32C444.468 86.7027 444.92 86.894 445.452 86.894C446.003 86.894 446.46 86.7027 446.824 86.32C447.198 85.9373 447.384 85.452 447.384 84.864C447.384 84.276 447.202 83.786 446.838 83.394C446.484 83.002 446.022 82.806 445.452 82.806C444.892 82.806 444.435 82.9973 444.08 83.38C443.726 83.7627 443.548 84.2573 443.548 84.864ZM449.923 83.17C449.923 82.2927 450.026 81.518 450.231 80.846C450.446 80.174 450.726 79.6513 451.071 79.278C451.426 78.8953 451.804 78.6107 452.205 78.424C452.616 78.2373 453.045 78.144 453.493 78.144C453.922 78.144 454.328 78.228 454.711 78.396C455.103 78.564 455.472 78.83 455.817 79.194C456.162 79.558 456.438 80.076 456.643 80.748C456.848 81.42 456.951 82.2133 456.951 83.128C456.951 83.9307 456.872 84.6493 456.713 85.284C456.554 85.9093 456.354 86.4087 456.111 86.782C455.868 87.146 455.584 87.4493 455.257 87.692C454.94 87.9347 454.632 88.098 454.333 88.182C454.044 88.266 453.75 88.308 453.451 88.308C453.012 88.308 452.597 88.224 452.205 88.056C451.822 87.888 451.449 87.622 451.085 87.258C450.73 86.8847 450.446 86.348 450.231 85.648C450.026 84.948 449.923 84.122 449.923 83.17ZM455.313 83.17C455.313 81.9753 455.15 81.0747 454.823 80.468C454.496 79.8613 454.039 79.558 453.451 79.558C452.91 79.558 452.462 79.852 452.107 80.44C451.762 81.0187 451.589 81.9147 451.589 83.128C451.589 85.6387 452.219 86.894 453.479 86.894C454.002 86.894 454.436 86.5953 454.781 85.998C455.136 85.3913 455.313 84.4487 455.313 83.17Z" fill="white"/>
    <path d="M520.988 200.962H516.48V199.646H520.988V200.962ZM524.933 195.894C524.662 196.146 524.527 196.477 524.527 196.888C524.527 197.299 524.662 197.644 524.933 197.924C525.213 198.195 525.54 198.33 525.913 198.33C526.333 198.33 526.674 198.195 526.935 197.924C527.206 197.653 527.341 197.308 527.341 196.888C527.341 196.477 527.206 196.146 526.935 195.894C526.674 195.642 526.338 195.516 525.927 195.516C525.535 195.516 525.204 195.642 524.933 195.894ZM524.751 200.066C524.434 200.383 524.275 200.785 524.275 201.27C524.275 201.755 524.429 202.157 524.737 202.474C525.054 202.782 525.46 202.936 525.955 202.936C526.45 202.936 526.846 202.791 527.145 202.502C527.453 202.203 527.607 201.793 527.607 201.27C527.607 200.775 527.453 200.374 527.145 200.066C526.837 199.749 526.445 199.59 525.969 199.59C525.474 199.59 525.068 199.749 524.751 200.066ZM529.245 201.34C529.245 202.171 528.96 202.871 528.391 203.44C527.822 204.009 527.005 204.294 525.941 204.294C524.877 204.294 524.056 204.019 523.477 203.468C522.908 202.908 522.623 202.222 522.623 201.41C522.623 200.178 523.188 199.338 524.317 198.89V198.862C523.374 198.461 522.903 197.756 522.903 196.748C522.903 196.02 523.178 195.404 523.729 194.9C524.289 194.396 525.026 194.144 525.941 194.144C526.837 194.144 527.56 194.396 528.111 194.9C528.671 195.395 528.951 195.992 528.951 196.692C528.951 197.215 528.82 197.672 528.559 198.064C528.307 198.447 527.971 198.713 527.551 198.862V198.89C528.68 199.301 529.245 200.117 529.245 201.34ZM532.61 196.776H531.014C531.051 196.029 531.331 195.404 531.854 194.9C532.386 194.396 533.104 194.144 534.01 194.144C534.896 194.144 535.606 194.377 536.138 194.844C536.67 195.311 536.936 195.903 536.936 196.622C536.936 197.154 536.772 197.611 536.446 197.994C536.128 198.367 535.741 198.619 535.284 198.75V198.778C535.881 198.899 536.357 199.179 536.712 199.618C537.076 200.057 537.258 200.612 537.258 201.284C537.258 202.124 536.968 202.838 536.39 203.426C535.82 204.005 535.018 204.294 533.982 204.294C532.983 204.294 532.208 204.033 531.658 203.51C531.107 202.987 530.804 202.301 530.748 201.452H532.358C532.414 201.9 532.586 202.259 532.876 202.53C533.165 202.801 533.548 202.936 534.024 202.936C534.49 202.936 534.873 202.777 535.172 202.46C535.47 202.133 535.62 201.727 535.62 201.242C535.62 200.747 535.456 200.346 535.13 200.038C534.803 199.721 534.318 199.562 533.674 199.562H533.114V198.218H533.674C534.159 198.218 534.546 198.087 534.836 197.826C535.125 197.565 535.27 197.21 535.27 196.762C535.27 196.426 535.158 196.137 534.934 195.894C534.719 195.642 534.402 195.516 533.982 195.516C533.543 195.516 533.212 195.637 532.988 195.88C532.764 196.123 532.638 196.421 532.61 196.776Z" fill="white"/>
</svg>
