<svg width="20" height="18" viewBox="0 0 20 18" fill="none" xmlns="http://www.w3.org/2000/svg">
<path fill-rule="evenodd" clip-rule="evenodd" d="M0.952243 7.24792e-05C0.424596 7.24792e-05 0 0.422039 0 0.946527V10.8848H20V0.946527C20 0.422039 19.5754 7.24792e-05 19.0478 7.24792e-05H0.952243ZM15.2381 1.65651C16.0214 1.65651 16.6665 2.29759 16.6665 3.0763C16.6665 3.85471 16.0214 4.49606 15.2381 4.49606C15.0422 4.49606 14.8581 4.45 14.6876 4.37773L13.1697 6.18927C13.2772 6.38836 13.3333 6.62247 13.3333 6.86221C13.3333 7.64082 12.688 8.282 11.9048 8.282C11.1212 8.282 10.4764 7.64082 10.4764 6.86221C10.4764 6.72713 10.4996 6.59452 10.5357 6.47037L8.91376 5.18372C8.68114 5.34676 8.3985 5.44245 8.09515 5.44245C7.89939 5.44245 7.71518 5.39637 7.54478 5.3241L6.0268 7.13573C6.13439 7.33501 6.19055 7.56886 6.19055 7.80891C6.19055 8.58732 5.54514 9.22867 4.7617 9.22867C3.97835 9.22867 3.33309 8.58732 3.33309 7.80891C3.33309 7.0302 3.97835 6.38885 4.7617 6.38885C4.96004 6.38885 5.14747 6.42596 5.32005 6.4999L6.83791 4.69554C6.72725 4.49459 6.66655 4.26608 6.66655 4.0227C6.66655 3.24428 7.3119 2.60291 8.09515 2.60291C8.8786 2.60291 9.52364 3.24428 9.52364 4.0227C9.52364 4.15808 9.50049 4.28282 9.46414 4.40727L11.0862 5.70149C11.3187 5.53844 11.6015 5.44245 11.9048 5.44245C12.1028 5.44245 12.2904 5.47957 12.4628 5.55351L13.9807 3.74918C13.87 3.54793 13.8095 3.31939 13.8095 3.0763C13.8095 2.29759 14.4547 1.65651 15.2381 1.65651ZM15.2381 2.60291C14.9696 2.60291 14.7619 2.80918 14.7619 3.0763C14.7619 3.34312 14.9696 3.54939 15.2381 3.54939C15.5067 3.54939 15.7142 3.34312 15.7142 3.0763C15.7142 2.80918 15.5067 2.60291 15.2381 2.60291ZM8.09515 3.54939C7.82667 3.54939 7.61915 3.75558 7.61915 4.0227C7.61915 4.28981 7.82667 4.49606 8.09515 4.49606C8.36383 4.49606 8.57139 4.28981 8.57139 4.0227C8.57139 3.75558 8.36383 3.54939 8.09515 3.54939ZM11.9048 6.38885C11.6361 6.38885 11.4286 6.59539 11.4286 6.86221C11.4286 7.12933 11.6361 7.33551 11.9048 7.33551C12.1733 7.33551 12.3808 7.12933 12.3808 6.86221C12.3808 6.59539 12.1733 6.38885 11.9048 6.38885ZM4.76194 7.33551C4.49326 7.33551 4.2857 7.54179 4.2857 7.80891C4.2857 8.07573 4.49326 8.282 4.76194 8.282C5.03042 8.282 5.23794 8.07573 5.23794 7.80891C5.23794 7.54179 5.03042 7.33551 4.76194 7.33551ZM0 11.3581V12.7779C0 13.3023 0.424596 13.7243 0.952243 13.7243H19.0478C19.5754 13.7243 20 13.3023 20 12.7779V11.3581H0ZM10 12.0681C10.2632 12.0681 10.4764 12.28 10.4764 12.5412C10.4764 12.8027 10.2632 13.0146 10 13.0146C9.73687 13.0146 9.52364 12.8027 9.52364 12.5412C9.52364 12.28 9.73687 12.0681 10 12.0681ZM8.33327 14.1977V15.6174H11.6667V14.1977H8.33327ZM7.14279 16.0907C6.87966 16.0907 6.66655 16.3026 6.66655 16.5641C6.66655 16.8253 6.87966 17.0371 7.14279 17.0371H12.8572C13.1202 17.0371 13.3333 16.8253 13.3333 16.5641C13.3333 16.3026 13.1202 16.0907 12.8572 16.0907H7.14279Z" fill="white"/>
</svg>
