<svg width="17" height="17" viewBox="0 0 17 17" fill="none" xmlns="http://www.w3.org/2000/svg">
<path fill-rule="evenodd" clip-rule="evenodd" d="M14.5257 0H2.48416C1.13346 0 0 1.13318 0 2.47894V6.72914C0 7.04161 0.255261 7.29585 0.566879 7.29585H3.54172V16.4334C3.54172 16.7458 3.79679 17 4.1086 17H16.4337C16.7453 17 17 16.7458 17 16.4334V2.47894C17 1.13318 15.8668 0 14.5257 0ZM3.54172 5.87894H1.60554C1.50189 5.87894 1.41685 5.79416 1.41685 5.69013V2.47894C1.41685 1.91261 1.91716 1.41679 2.48416 1.41679C3.05067 1.41679 3.54172 1.91261 3.54172 2.47894V5.87894ZM6.73413 2.83335H13.8173V4.24997H6.73413V2.83335ZM6.73413 5.66676H13.8173V7.08332H6.73413V5.66676ZM8.50017 14.1669H7.08367V12.0418H8.50017V14.1669ZM11.3333 14.1669H9.91668V10.6249H11.3333V14.1669ZM14.167 14.1669H12.7501V9.20843H14.167V14.1669Z" fill="white"/>
</svg>
