<svg width="20" height="20" viewBox="0 0 20 20" fill="none" xmlns="http://www.w3.org/2000/svg">
<path fill-rule="evenodd" clip-rule="evenodd" d="M18.0433 11.6233L20 11.3893V8.61198L18.0433 8.37626C17.8312 7.31731 17.4132 6.33102 16.8362 5.4623L18.0532 3.91029L17.072 2.92806L16.0902 1.94723L15.4081 2.48326L14.5394 3.16502C13.6692 2.58726 12.6831 2.16905 11.6231 1.95703L11.3883 0H8.61223L8.37674 1.95703C8.21279 1.99028 8.0505 2.02927 7.89148 2.07125C7.8585 2.08025 7.82296 2.0903 7.79024 2.0993C7.65027 2.13828 7.51144 2.18227 7.37518 2.22725C7.35745 2.23431 7.33946 2.23899 7.32173 2.24631C6.65973 2.47526 6.03521 2.78331 5.46114 3.16502L3.91038 1.94804L1.94756 3.91029L3.16538 5.4623C2.95159 5.7813 2.76259 6.116 2.59633 6.46525C2.59457 6.46605 2.59457 6.46823 2.5936 6.47026C2.5264 6.60996 2.46307 6.75224 2.40433 6.89724C2.3918 6.93128 2.37937 6.96305 2.36614 6.99833C2.32187 7.10531 2.28183 7.21624 2.24311 7.32701C2.22609 7.37499 2.21109 7.42428 2.19513 7.47402C2.16258 7.57297 2.1326 7.67626 2.10411 7.776C2.08912 7.82698 2.07359 7.87801 2.06063 7.93023C2.02861 8.05299 2.00013 8.177 1.97411 8.30197C1.96908 8.32623 1.96009 8.35006 1.95682 8.37626L0 8.61198V11.39L1.95709 11.624C1.98963 11.7881 2.02861 11.949 2.07236 12.11C2.08109 12.1433 2.09009 12.1772 2.10005 12.2113C2.1393 12.3492 2.18137 12.4903 2.22811 12.6263C2.23455 12.6433 2.23861 12.661 2.24513 12.68C2.35882 13.008 2.49332 13.328 2.64581 13.6372C2.64581 13.638 2.64687 13.638 2.64687 13.638C2.80183 13.949 2.97487 14.251 3.16591 14.5402L1.94809 16.092L3.91091 18.054L5.4629 16.837C5.91315 17.136 6.39523 17.3923 6.90218 17.5983C6.92846 17.6092 6.95519 17.619 6.97971 17.63C7.09798 17.6772 7.21519 17.72 7.33575 17.761C7.37844 17.775 7.42051 17.789 7.46399 17.803C7.57195 17.839 7.68052 17.871 7.789 17.902C7.83477 17.9143 7.87896 17.9263 7.92253 17.9402C8.06197 17.9743 8.20352 18.0072 8.34499 18.038C8.35522 18.04 8.36651 18.042 8.37754 18.043L8.61223 20H11.3883L11.6231 18.043C11.7571 18.017 11.8878 17.9883 12.0171 17.955C12.9281 17.7239 13.7791 17.342 14.5394 16.8363L16.0902 18.054L16.7442 17.399L18.0532 16.092L17.7912 15.7551L16.8362 14.538C16.8922 14.4533 16.9473 14.3671 17.0002 14.2773C17.493 13.4733 17.852 12.579 18.0433 11.6233ZM10 17.0143C6.12597 17.0143 2.98563 13.8743 2.98563 10.0002C2.9859 6.12622 6.12641 2.98625 10 2.98625C13.8741 2.98625 17.0142 6.12622 17.0142 10.0002C17.0142 13.8743 13.8741 17.0143 10 17.0143Z" fill="white"/>
</svg>
