<svg width="18" height="18" viewBox="0 0 18 18" fill="none" xmlns="http://www.w3.org/2000/svg">
<path fill-rule="evenodd" clip-rule="evenodd" d="M9.45764 0.252441C4.77215 0.252441 0.959961 4.07689 0.959961 8.77742C0.959961 13.478 4.77215 17.3024 9.45764 17.3024C14.1431 17.3024 17.9552 13.478 17.9552 8.77742C17.9552 4.07689 14.1431 0.252441 9.45764 0.252441ZM14.207 6.53398L8.77617 11.9397C8.45662 12.26 7.94549 12.2816 7.60476 11.961L4.72946 9.33295C4.38874 9.01237 4.36757 8.47838 4.66563 8.13656C4.98518 7.79474 5.51746 7.77319 5.85818 8.09377L8.13709 10.1875L12.9929 5.31606C13.3337 4.97424 13.8662 4.97424 14.207 5.31606C14.5477 5.65789 14.5477 6.19216 14.207 6.53398Z" fill="#009847"/>
</svg>
