<svg width="19" height="18" viewBox="0 0 19 18" fill="none" xmlns="http://www.w3.org/2000/svg">
<path d="M4 12.8696H0.782609C0.347827 12.8696 0 13.2175 0 13.6522V17.2175C0 17.6522 0.347827 18.0001 0.782609 18.0001H4C4.43478 18.0001 4.78261 17.6522 4.78261 17.2175V13.6522C4.82609 13.2609 4.43478 12.8696 4 12.8696Z" fill="#999DC0"/>
<path d="M11 10.826H7.78261C7.34783 10.826 7 11.1739 7 11.6087V17.2174C7 17.6521 7.34783 18 7.78261 18H11C11.4348 18 11.7826 17.6521 11.7826 17.2174V11.6521C11.7826 11.1739 11.4348 10.826 11 10.826Z" fill="#999DC0"/>
<path d="M18 5.21741H14.7826C14.3478 5.21741 14 5.56523 14 6.00002V17.2174C14 17.6522 14.3478 18 14.7826 18H18C18.4348 18 18.7826 17.6522 18.7826 17.2174V6.04349C18.7826 5.56523 18.4348 5.21741 18 5.21741Z" fill="#999DC0"/>
<path d="M7.65241 0C5.30458 0 3.39154 1.91304 3.39154 4.26087C3.39154 5.08696 3.60893 5.82609 4.00023 6.43478L1.56545 8.95652C1.17415 9.34783 1.17415 10 1.56545 10.3913C1.95676 10.7826 2.60893 10.7826 3.00023 10.3913L5.47849 7.91304C6.13067 8.30435 6.8698 8.52174 7.65241 8.52174C10.0002 8.52174 11.9133 6.6087 11.9133 4.26087C11.9133 1.91304 10.0002 0 7.65241 0ZM7.65241 6.52174C6.43502 6.52174 5.43502 5.52174 5.43502 4.30435C5.43502 3.08696 6.43502 2.08696 7.65241 2.08696C8.8698 2.08696 9.8698 3.08696 9.8698 4.30435C9.8698 5.52174 8.8698 6.52174 7.65241 6.52174Z" fill="#999DC0"/>
</svg>
