<svg width="21" height="13" viewBox="0 0 21 13" fill="none" xmlns="http://www.w3.org/2000/svg">
<path d="M2.625 6.49979C3.66053 6.49979 4.49999 5.64387 4.49999 4.58803C4.49999 3.53219 3.66053 2.67627 2.625 2.67627C1.58946 2.67627 0.75 3.53219 0.75 4.58803C0.75 5.64387 1.58946 6.49979 2.625 6.49979Z" fill="#999DC0"/>
<path d="M0.374999 10.3236H4.87499C4.97445 10.3236 5.06983 10.2833 5.14016 10.2116C5.21048 10.1399 5.24999 10.0427 5.24999 9.94126V8.79421C5.24999 8.28718 5.05245 7.80091 4.70082 7.44239C4.34919 7.08386 3.87228 6.88245 3.37499 6.88245H1.875C1.37772 6.88245 0.900804 7.08386 0.549174 7.44239C0.197544 7.80091 0 8.28718 0 8.79421V9.94126C0 10.0427 0.0395088 10.1399 0.109835 10.2116C0.180161 10.2833 0.275543 10.3236 0.374999 10.3236Z" fill="#999DC0"/>
<path d="M10.5 6.11764C12.1568 6.11764 13.5 4.74816 13.5 3.05882C13.5 1.36948 12.1568 0 10.5 0C8.84314 0 7.5 1.36948 7.5 3.05882C7.5 4.74816 8.84314 6.11764 10.5 6.11764Z" fill="#999DC0"/>
<path d="M14.6245 12.6178V9.17665C14.6245 8.66962 14.427 8.18336 14.0753 7.82483C13.7237 7.46631 13.2468 7.26489 12.7495 7.26489H8.24951C7.75223 7.26489 7.27532 7.46631 6.92369 7.82483C6.57206 8.18336 6.37451 8.66962 6.37451 9.17665V12.6178C6.37451 12.7192 6.41402 12.8165 6.48435 12.8882C6.55467 12.9599 6.65006 13.0002 6.74951 13.0002H14.2495C14.349 13.0002 14.4443 12.9599 14.5147 12.8882C14.585 12.8165 14.6245 12.7192 14.6245 12.6178Z" fill="#999DC0"/>
<path d="M18.375 6.49979C19.4105 6.49979 20.25 5.64387 20.25 4.58803C20.25 3.53219 19.4105 2.67627 18.375 2.67627C17.3395 2.67627 16.5 3.53219 16.5 4.58803C16.5 5.64387 17.3395 6.49979 18.375 6.49979Z" fill="#999DC0"/>
<path d="M17.625 6.88232C17.1277 6.88232 16.6508 7.08374 16.2992 7.44227C15.9475 7.80079 15.75 8.28705 15.75 8.79409V9.94114C15.75 10.0425 15.7895 10.1398 15.8598 10.2115C15.9302 10.2832 16.0255 10.3235 16.125 10.3235H20.625C20.7244 10.3235 20.8198 10.2832 20.8902 10.2115C20.9605 10.1398 21 10.0425 21 9.94114V8.79409C21 8.28705 20.8024 7.80079 20.4508 7.44227C20.0992 7.08374 19.6223 6.88232 19.125 6.88232H17.625Z" fill="#999DC0"/>
</svg>
