<svg width="26" height="16" viewBox="0 0 26 16" fill="none" xmlns="http://www.w3.org/2000/svg">
<path d="M3.25018 8.00003C4.53225 8.00003 5.57157 6.94659 5.57157 5.64711C5.57157 4.34764 4.53225 3.2942 3.25018 3.2942C1.96812 3.2942 0.928795 4.34764 0.928795 5.64711C0.928795 6.94659 1.96812 8.00003 3.25018 8.00003Z" fill="#656A8A"/>
<path d="M0.464278 12.7059H6.03561C6.15874 12.7059 6.27684 12.6563 6.3639 12.568C6.45097 12.4798 6.49989 12.3601 6.49989 12.2353V10.8235C6.49989 10.1995 6.25531 9.60104 5.81997 9.15978C5.38462 8.71852 4.79417 8.47063 4.1785 8.47063H2.32139C1.70572 8.47063 1.11526 8.71852 0.679919 9.15978C0.244574 9.60104 0 10.1995 0 10.8235V12.2353C0 12.3601 0.0489149 12.4798 0.135984 12.568C0.223053 12.6563 0.341144 12.7059 0.464278 12.7059Z" fill="#656A8A"/>
<path d="M12.9999 7.52932C15.0512 7.52932 16.7142 5.84382 16.7142 3.76466C16.7142 1.6855 15.0512 0 12.9999 0C10.9486 0 9.28572 1.6855 9.28572 3.76466C9.28572 5.84382 10.9486 7.52932 12.9999 7.52932Z" fill="#656A8A"/>
<path d="M18.107 15.5294V11.2942C18.107 10.6701 17.8625 10.0717 17.4271 9.63041C16.9918 9.18916 16.4013 8.94126 15.7857 8.94126H10.2143C9.59865 8.94126 9.0082 9.18916 8.57286 9.63041C8.13751 10.0717 7.89294 10.6701 7.89294 11.2942V15.5294C7.89294 15.6542 7.94185 15.7739 8.02892 15.8622C8.11599 15.9504 8.23408 16 8.35721 16H17.6428C17.7659 16 17.884 15.9504 17.9711 15.8622C18.0581 15.7739 18.107 15.6542 18.107 15.5294Z" fill="#656A8A"/>
<path d="M22.7499 8.00012C24.032 8.00012 25.0713 6.94668 25.0713 5.64721C25.0713 4.34773 24.032 3.29429 22.7499 3.29429C21.4678 3.29429 20.4285 4.34773 20.4285 5.64721C20.4285 6.94668 21.4678 8.00012 22.7499 8.00012Z" fill="#656A8A"/>
<path d="M21.8215 8.47068C21.2058 8.47068 20.6154 8.71858 20.18 9.15983C19.7447 9.60109 19.5001 10.1996 19.5001 10.8236V12.2353C19.5001 12.3601 19.549 12.4798 19.6361 12.5681C19.7232 12.6563 19.8413 12.7059 19.9644 12.7059H25.5357C25.6589 12.7059 25.7769 12.6563 25.864 12.5681C25.9511 12.4798 26 12.3601 26 12.2353V10.8236C26 10.1996 25.7554 9.60109 25.3201 9.15983C24.8847 8.71858 24.2943 8.47068 23.6786 8.47068H21.8215Z" fill="#656A8A"/>
</svg>
