<svg width="28" height="18" viewBox="0 0 28 18" fill="none" xmlns="http://www.w3.org/2000/svg">
<path d="M14.0807 2.55407C19.1102 2.55407 23.7314 5.51276 25.8544 10.0917L27.9373 9.12179C25.4394 3.73391 20.0003 0.252441 14.0807 0.252441C8.16119 0.252441 2.72203 3.73391 0.224121 9.12179L2.30708 10.0917C4.43004 5.51276 9.05127 2.55407 14.0807 2.55407Z" fill="#009847"/>
<path d="M21.8052 11.9701L23.8889 11.0018C22.1245 7.18989 18.2744 4.72681 14.0805 4.72681C9.89588 4.72681 6.05145 7.18989 4.28662 11.0016L6.37033 11.9703C7.76021 8.96818 10.7867 7.02843 14.0805 7.02843C17.3836 7.02843 20.4157 8.96818 21.8052 11.9701Z" fill="#009847"/>
<path d="M17.7601 13.8555L19.8386 12.8755C18.7904 10.6437 16.5302 9.20166 14.0809 9.20166C11.6316 9.20166 9.37145 10.6437 8.32324 12.8755L10.4017 13.8555C11.0727 12.4265 12.5168 11.5033 14.0809 11.5033C15.645 11.5033 17.0891 12.4265 17.7601 13.8555Z" fill="#009847"/>
<path d="M14.2156 17.1671C15.2619 17.0926 16.0498 16.1822 15.9755 15.1336C15.9011 14.0851 14.9926 13.2954 13.9463 13.37C12.9 13.4445 12.112 14.3549 12.1864 15.4035C12.2608 16.452 13.1693 17.2416 14.2156 17.1671Z" fill="#009847"/>
</svg>
