<svg width="18" height="19" viewBox="0 0 18 19" fill="none" xmlns="http://www.w3.org/2000/svg">
<path d="M6.38674 17.4184V15.6766H2.61276C2.38178 15.6766 2.16026 15.5848 1.99693 15.4215C1.8336 15.2581 1.74184 15.0366 1.74184 14.8056V4.93521C1.74184 4.70423 1.8336 4.48271 1.99693 4.31938C2.16026 4.15605 2.38178 4.06429 2.61276 4.06429H13.0638C13.2948 4.06429 13.5163 4.15605 13.6796 4.31938C13.843 4.48271 13.9347 4.70423 13.9347 4.93521V6.96736H15.6766V4.93521C15.6766 4.24227 15.4013 3.5777 14.9113 3.08771C14.4213 2.59773 13.7567 2.32245 13.0638 2.32245V0H11.322V2.32245H8.7092V0H6.96736V2.32245H4.3546V0H2.61276V2.32245C1.91981 2.32245 1.25525 2.59773 0.76526 3.08771C0.275272 3.5777 0 4.24227 0 4.93521V14.8056C0 15.4986 0.275272 16.1631 0.76526 16.6531C1.25525 17.1431 1.91981 17.4184 2.61276 17.4184H6.38674Z" fill="#999DC0"/>
<path d="M11.3209 6.67725H4.35352V8.41909H11.3209V6.67725Z" fill="#999DC0"/>
<path d="M7.83719 11.0317H4.35352V12.7736H7.83719V11.0317Z" fill="#999DC0"/>
<path d="M15.4853 8.70899C15.1551 8.70831 14.828 8.77313 14.5231 8.8997C14.2181 9.02627 13.9413 9.21208 13.7086 9.44637L9.0637 14.0913C8.76664 14.3869 8.53109 14.7384 8.37065 15.1256C8.2102 15.5128 8.12804 15.9279 8.12891 16.347V18.5794H10.3614C10.7809 18.5807 11.1966 18.4987 11.5843 18.3382C11.972 18.1778 12.324 17.942 12.62 17.6446L17.2649 12.9997C17.6162 12.648 17.8554 12.1999 17.9521 11.7122C18.0489 11.2246 17.9988 10.7191 17.8084 10.2599C17.6179 9.80065 17.2955 9.40819 16.882 9.13213C16.4685 8.85608 15.9825 8.70882 15.4853 8.70899ZM16.0311 11.7688L11.3862 16.4137C11.1141 16.6851 10.7456 16.8375 10.3614 16.8376H9.87075V16.347C9.87041 16.1562 9.90767 15.9673 9.9804 15.7909C10.0531 15.6146 10.1599 15.4543 10.2946 15.3193L14.9395 10.6744C15.0103 10.599 15.0956 10.5386 15.1902 10.4968C15.2848 10.4551 15.3868 10.4327 15.4902 10.4311C15.5936 10.4295 15.6963 10.4487 15.7922 10.4875C15.888 10.5263 15.9751 10.584 16.0482 10.6572C16.1214 10.7303 16.1791 10.8174 16.2179 10.9132C16.2568 11.0091 16.2759 11.1118 16.2743 11.2152C16.2727 11.3186 16.2504 11.4206 16.2086 11.5152C16.1668 11.6098 16.1064 11.6951 16.0311 11.7659V11.7688Z" fill="#999DC0"/>
</svg>

