<svg width="20" height="20" viewBox="0 0 20 20" fill="none" xmlns="http://www.w3.org/2000/svg">
<path d="M7.45009 4.04948C6.98964 4.04948 6.54806 4.23239 6.22247 4.55797C5.89689 4.88356 5.71398 5.32514 5.71398 5.78559V12.8928C5.71398 12.917 5.70437 12.9402 5.68728 12.9572C5.67019 12.9743 5.647 12.9839 5.62283 12.9839H0.651042C0.478375 12.9839 0.31278 12.9153 0.190686 12.7933C0.0685917 12.6712 0 12.5056 0 12.3329V0.651042C0 0.478375 0.0685917 0.31278 0.190686 0.190686C0.31278 0.0685917 0.478375 0 0.651042 0H10.651C10.8237 0 10.9893 0.0685917 11.1114 0.190686C11.2335 0.31278 11.3021 0.478375 11.3021 0.651042V3.9605C11.3021 3.97237 11.2997 3.98412 11.2951 3.99506C11.2905 4.006 11.2838 4.01591 11.2753 4.0242C11.2668 4.03249 11.2567 4.039 11.2457 4.04334C11.2346 4.04768 11.2228 4.04977 11.2109 4.04948H7.45009ZM19.6832 5.78559V19.349C19.6832 19.5216 19.6146 19.6872 19.4925 19.8093C19.3704 19.9314 19.2048 20 19.0321 20H7.4132C7.24053 20 7.07493 19.9314 6.95284 19.8093C6.83074 19.6872 6.76215 19.5216 6.76215 19.349V5.78559C6.76215 5.61292 6.83074 5.44733 6.95284 5.32523C7.07493 5.20314 7.24053 5.13455 7.4132 5.13455H19.0234C19.1961 5.13455 19.3617 5.20314 19.4838 5.32523C19.6059 5.44733 19.6745 5.61292 19.6745 5.78559H19.6832ZM18.3811 6.43663H8.06424V18.6979H18.3724L18.3811 6.43663ZM9.72005 16.148H16.7188C16.8914 16.148 17.057 16.0794 17.1791 15.9573C17.3012 15.8352 17.3698 15.6696 17.3698 15.497C17.3698 15.3243 17.3012 15.1587 17.1791 15.0366C17.057 14.9145 16.8914 14.8459 16.7188 14.8459H9.72005C9.54739 14.8459 9.38179 14.9145 9.2597 15.0366C9.1376 15.1587 9.06901 15.3243 9.06901 15.497C9.06901 15.6696 9.1376 15.8352 9.2597 15.9573C9.38179 16.0794 9.54739 16.148 9.72005 16.148ZM9.72005 13.2183H16.7188C16.8914 13.2183 17.057 13.1497 17.1791 13.0276C17.3012 12.9055 17.3698 12.7399 17.3698 12.5673C17.3698 12.3946 17.3012 12.229 17.1791 12.1069C17.057 11.9848 16.8914 11.9162 16.7188 11.9162H9.72005C9.54739 11.9162 9.38179 11.9848 9.2597 12.1069C9.1376 12.229 9.06901 12.3946 9.06901 12.5673C9.06901 12.7399 9.1376 12.9055 9.2597 13.0276C9.38179 13.1497 9.54739 13.2183 9.72005 13.2183ZM9.72005 10.2886H16.7188C16.8914 10.2886 17.057 10.22 17.1791 10.0979C17.3012 9.97585 17.3698 9.81025 17.3698 9.63759C17.3698 9.46492 17.3012 9.29932 17.1791 9.17723C17.057 9.05514 16.8914 8.98655 16.7188 8.98655H9.72005C9.54739 8.98655 9.38179 9.05514 9.2597 9.17723C9.1376 9.29932 9.06901 9.46492 9.06901 9.63759C9.06901 9.81025 9.1376 9.97585 9.2597 10.0979C9.38179 10.22 9.54739 10.2886 9.72005 10.2886Z" fill="#999DC0"/>
</svg>
