<svg width="18" height="18" viewBox="0 0 18 18" fill="none" xmlns="http://www.w3.org/2000/svg">
<path d="M16.8206 9.85143L12.9812 7.63477L10.7093 8.94682C10.9993 9.58902 11.2065 10.1898 11.2065 10.611C11.2065 11.9645 10.1914 13.0832 8.88281 13.2558V14.7301L12.7257 16.9468C12.8845 17.04 13.0779 17.04 13.2367 16.9468L16.8206 14.8786C16.9794 14.7854 17.0761 14.6162 17.0761 14.4332V10.2968C17.0761 10.1138 16.9794 9.94464 16.8206 9.85143Z" fill="white"/>
<path d="M5.86962 10.611C5.86962 10.1898 6.07676 9.58902 6.36681 8.94682L4.09837 7.63477L0.255508 9.85143C0.0967006 9.94464 0 10.1138 0 10.2968V14.4332C0 14.6162 0.0967006 14.7854 0.255508 14.8786L3.84287 16.9468C4.0017 17.04 4.19505 17.04 4.35388 16.9468L8.19329 14.7301V13.2523C6.88472 13.0832 5.86962 11.9645 5.86962 10.611Z" fill="white"/>
<path d="M10.5154 10.611C10.5154 10.2484 10.2875 9.64419 9.96643 8.98473C9.96297 8.98127 9.9595 8.97781 9.95607 8.97437C9.95263 8.96747 9.95263 8.96055 9.94917 8.95365C9.52793 8.09048 8.95132 7.12717 8.53701 6.47461C8.11923 7.13407 7.54262 8.10084 7.11795 8.97094C7.11795 8.97437 7.11795 8.97781 7.11448 8.97781C7.11448 8.98127 7.11102 8.98127 7.11102 8.98127C6.78992 9.64419 6.55859 10.245 6.55859 10.611C6.55859 11.6986 7.44248 12.5859 8.53354 12.5894C8.53354 12.5894 8.53354 12.5859 8.53701 12.5859L8.54044 12.5894C9.63153 12.5859 10.5154 11.6986 10.5154 10.611Z" fill="white"/>
<path d="M8.25171 5.6498C8.37944 5.45991 8.69711 5.45991 8.82483 5.6498C8.96984 5.86733 9.77088 7.08268 10.4062 8.31878L12.6366 7.03434V2.60107C12.6366 2.41806 12.54 2.24889 12.3811 2.15565L8.79375 0.0874872C8.63495 -0.00572491 8.4416 -0.00572491 8.28276 0.0874872L4.69884 2.15565C4.54003 2.24889 4.44336 2.41806 4.44336 2.60107V7.03434L6.67382 8.32221C7.30564 7.08268 8.10667 5.86733 8.25171 5.6498Z" fill="white"/>
</svg>

