<svg width="23" height="18" viewBox="0 0 23 18" fill="none" xmlns="http://www.w3.org/2000/svg">
<path fill-rule="evenodd" clip-rule="evenodd" d="M3.98844 0.0346815H0V4.02312H0.693641V0.728323H3.98844V0.0346815ZM0 18H3.98844V17.341H0.693641V14.0116H0V18ZM0.346821 9.01734C0.346821 9.01734 5.13295 14.6012 11.1329 14.6705C17.3064 14.7399 22.1965 9.01734 22.1965 9.01734C22.1965 9.01734 17.3064 3.2948 11.1329 3.36416C5.16763 3.43352 0.346821 9.01734 0.346821 9.01734ZM18.5549 18H22.5433V14.0116H21.8497V17.3064H18.5549V18ZM21.8497 4.02312H22.5433V0H18.5549V0.693641H21.8497V4.02312ZM6.76293 9.08673C6.76293 6.58963 8.77448 4.57807 11.2716 4.57807C13.7687 4.57807 15.7803 6.58963 15.7803 9.08673C15.7803 11.5838 13.7687 13.5954 11.2716 13.5954C8.77448 13.5954 6.76293 11.5838 6.76293 9.08673ZM8.08084 9.08673C8.08084 10.8555 9.50281 12.2775 11.2716 12.2775C13.0404 12.2775 14.4623 10.8208 14.4623 9.08673C14.4623 7.31795 13.0404 5.89599 11.2716 5.89599C9.50281 5.89599 8.08084 7.31795 8.08084 9.08673Z" fill="#999DC0"/>
</svg>
