<svg width="24" height="24" viewBox="0 0 24 24" fill="none" xmlns="http://www.w3.org/2000/svg">
<path d="M10.2006 9.38531C9.47607 8.83716 9 7.97656 9 7H11C11 7.42926 11.2748 7.78888 11.6556 7.9303L12 7.58594L12.3444 7.9303C12.7252 7.78888 13 7.42926 13 7C13 6.78613 12.9336 6.58154 12.8076 6.41016C11.7395 4.95367 11.1432 3.47284 11.0249 2H9V0H15V2H13.0526C13.1722 3.0498 13.6163 4.13153 14.4209 5.22852C14.7998 5.74609 15 6.3584 15 7C15 7.97656 14.5239 8.83716 13.7994 9.38531L18.4141 14H24V24H-1.90735e-06V14H5.58594L10.2006 9.38531ZM12 10.4141L8.41406 14H15.5859L12 10.4141ZM22 20.51V16H20.4141H17.69L22 20.51ZM13.86 22H15.88L10.14 16H8.11999L13.86 22ZM2 22H6.31L2 17.49V22Z" fill="#009847"/>
</svg>
