<svg width="14" height="20" viewBox="0 0 14 20" fill="none" xmlns="http://www.w3.org/2000/svg">
<path d="M5.97574 19.4298C6.41515 20.1901 7.4937 20.1901 7.9331 19.4298C9.491 16.709 12.4071 11.5874 13.206 10.1069C14.2845 8.14632 14.2446 5.86561 13.206 3.82498C11.4484 0.383909 7.25402 -0.976514 3.81864 0.74402C0.383272 2.46455 -0.974897 6.82591 0.742789 10.1069C1.46182 11.5874 4.41784 16.709 5.97574 19.4298ZM6.97439 3.94501C8.65213 3.94501 10.0103 5.30544 10.0103 6.98596C10.0103 8.66648 8.65213 10.0269 6.97439 10.0269C5.29665 10.0269 3.93848 8.66648 3.93848 6.98596C3.93848 5.30544 5.29665 3.94501 6.97439 3.94501Z" fill="#656A8A"/>
</svg>
