<svg width="35" height="40" viewBox="0 0 35 40" fill="none" xmlns="http://www.w3.org/2000/svg">
                    <path d="M17.6283 0.178149L25.9795 4.99975L25.9789 5.0008L34.3284 9.82132L34.6394 10.0009V10.3541V19.9973V29.6405V29.9937L34.3284 30.1733L25.9789 34.9938L25.9795 34.9949L17.6283 39.8165L17.3197 39.9946L17.0111 39.8165L8.65986 34.9949L8.66047 34.9938L0.310997 30.1733L0 29.9937V29.6405V19.9973V10.3541V10.0009L0.310997 9.82132L8.66047 5.0008L8.65986 4.99975L17.0111 0.178149L17.3197 0L17.6283 0.178149ZM17.3197 2.13791L11.1919 5.67579L11.1925 5.67686L1.8515 11.0698V28.9248L11.1925 34.3178L11.1919 34.3189L17.3197 37.8568L23.4475 34.3189L23.4469 34.3178L32.7879 28.9248V11.0698L23.4469 5.67686L23.4475 5.67581L17.3197 2.13791Z" fill="#E31F25"/>
                    <path d="M20.6946 10.929C20.4632 10.929 20.2303 10.9834 20.0223 11.0887C19.6254 11.2916 19.379 11.6589 19.379 12.0506V20.1295C19.7006 20.2083 20.0223 20.2918 20.3439 20.3946C20.5198 20.4485 20.6375 20.6431 20.5623 20.8137C20.4544 21.0456 20.3216 21.084 20.1436 21.0321C17.2411 20.1974 14.2986 20.1269 11.3348 21.0321C11.1589 21.0861 10.9701 20.9865 10.9162 20.8111C10.8622 20.6322 10.9618 20.4485 11.1377 20.3946C11.4593 20.295 11.781 20.2135 12.0995 20.1352V13.9181C12.0995 12.8209 10 12.8209 10 13.9311V25.2363C10 27.0577 10.5618 27.7197 11.0536 28.4003C12.2131 30.0106 12.9612 30.3971 14.0148 30.3971C15.7309 30.3971 17.446 30.3971 19.1621 30.3971C20.6692 30.3971 21.1449 30.008 21.8966 29.1245C22.2665 28.6867 22.7443 28.1705 23.3227 27.5464C24.601 26.1628 25.0445 25.0879 25.2033 23.7879C25.3112 22.8904 25.1576 21.2537 25.3921 20.0895C25.457 19.8374 25.5789 19.4545 25.6354 19.2652C25.7376 18.9332 25.8326 18.6084 25.4601 18.5088C24.0791 18.1353 23.2926 19.5028 23.0363 20.5025L22.5497 23.3796C22.3951 23.6447 21.7586 23.7962 21.0738 23.9663C19.8474 24.2797 18.4887 24.7175 17.6374 27.2305C17.5046 27.6165 16.8862 27.5874 16.991 27.0577C17.5824 24.0696 19.6633 23.6374 20.9088 23.321C21.4032 23.1965 21.8302 23.086 22.0112 22.8691V12.0511C22.0112 11.6589 21.7648 11.2916 21.3654 11.0893C21.1625 10.9839 20.9275 10.929 20.6946 10.929Z" fill="#E31F25"/>
                    <path d="M14.0888 9.64331C13.8533 9.64331 13.6208 9.69467 13.4128 9.8005C13.0154 10.0059 12.7695 10.3732 12.7695 10.7649V19.9919C13.6509 19.8165 14.5287 19.7195 15.4044 19.6977V10.7649C15.4044 10.3732 15.159 10.0059 14.7611 9.8005C14.5557 9.69467 14.3212 9.64331 14.0888 9.64331Z" fill="#E31F25"/>
                    <path d="M17.3903 9C17.1579 9 16.9255 9.05188 16.7175 9.15719C16.3232 9.36003 16.0747 9.72992 16.0747 10.1221V19.6951C16.9582 19.7143 17.8365 19.8113 18.7085 19.9841V10.1221C18.7085 9.72992 18.4632 9.36003 18.0632 9.15719C17.8583 9.05188 17.6253 9 17.3903 9Z" fill="#E31F25"/>
                    </svg>