<svg width="35" height="40" viewBox="0 0 35 40" fill="none" xmlns="http://www.w3.org/2000/svg">
                    <path fill-rule="evenodd" clip-rule="evenodd" d="M17.6389 15.3662L8.33502 24.6701C7.74188 25.2633 7.44531 26.0448 7.44531 26.826C7.44531 27.6041 7.73956 28.3825 8.32793 28.9747C8.33253 28.9796 8.33732 28.9844 8.34227 28.989C8.9345 29.5774 9.71283 29.8717 10.491 29.8717C11.2722 29.8717 12.0537 29.5751 12.6469 28.9819L21.9508 19.678C22.6253 19.7421 23.31 19.6639 23.9559 19.4434C24.6277 19.214 25.2579 18.8323 25.792 18.2982C26.4495 17.6407 26.8759 16.8382 27.0711 15.9924C27.2715 15.1238 27.2271 14.2105 26.9381 13.3628C26.9239 13.315 26.898 13.2699 26.8603 13.2322C26.7398 13.1117 26.5444 13.1117 26.424 13.2322L23.5126 16.1436L23.4988 16.1481L22.5219 15.8863L21.5787 15.6336L21.326 14.6904L21.0732 13.7472L22.144 12.6764L23.9617 10.8588C23.9981 10.824 24.0264 10.7797 24.0426 10.7282C24.0935 10.5656 24.0029 10.3924 23.8403 10.3415L23.8397 10.3419C23.0031 10.08 22.1084 10.0531 21.2591 10.2615C20.4375 10.4632 19.6594 10.8843 19.0188 11.525C18.4847 12.0591 18.1029 12.6893 17.8736 13.361C17.653 14.007 17.5749 14.6917 17.6389 15.3662L17.6389 15.3662ZM11.6846 25.6324C12.0124 25.9602 12.1763 26.3898 12.1763 26.8194C12.1763 27.249 12.0124 27.6787 11.6846 28.0064C11.3568 28.3343 10.9272 28.4982 10.4976 28.4982C10.068 28.4982 9.6383 28.3343 9.31051 28.0064C8.9827 27.6787 8.8188 27.249 8.8188 26.8194C8.8188 26.3898 8.98271 25.9602 9.31051 25.6324C9.63831 25.3046 10.068 25.1406 10.4976 25.1406C10.9272 25.1406 11.3568 25.3046 11.6846 25.6324Z" fill="#009847"/>
                    <path d="M17.6283 0.178149L25.9795 4.99975L25.9789 5.0008L34.3284 9.82132L34.6394 10.0009V10.3541V19.9973V29.6405V29.9937L34.3284 30.1733L25.9789 34.9938L25.9795 34.9949L17.6283 39.8165L17.3197 39.9946L17.0111 39.8165L8.65986 34.9949L8.66047 34.9938L0.310997 30.1733L0 29.9937V29.6405V19.9973V10.3541V10.0009L0.310997 9.82132L8.66047 5.0008L8.65986 4.99975L17.0111 0.178149L17.3197 0L17.6283 0.178149ZM17.3197 2.13791L11.1919 5.67579L11.1925 5.67686L1.8515 11.0698V28.9248L11.1925 34.3178L11.1919 34.3189L17.3197 37.8568L23.4475 34.3189L23.4469 34.3178L32.7879 28.9248V11.0698L23.4469 5.67686L23.4475 5.67581L17.3197 2.13791Z" fill="#009847"/>
                    </svg>