<svg width="19" height="16" viewBox="0 0 19 16" fill="none" xmlns="http://www.w3.org/2000/svg">
<path d="M16.1097 15.9996H2.84289C2.08891 15.9996 1.36581 15.7021 0.832664 15.1726C0.299518 14.6431 0 13.925 0 13.1761V2.82346C0 2.07463 0.299518 1.35648 0.832664 0.826975C1.36581 0.297474 2.08891 3.1825e-06 2.84289 3.1825e-06H5.60998C6.08143 -0.000699761 6.54566 0.115056 6.96087 0.336849C7.37608 0.558642 7.72923 0.879508 7.98853 1.27056L8.72768 2.39994C8.81441 2.53074 8.93263 2.63797 9.07162 2.71193C9.21062 2.78588 9.36601 2.82422 9.52369 2.82346H16.1571C16.9111 2.82346 17.6342 3.12093 18.1673 3.65044C18.7005 4.17994 19 4.89809 19 5.64692V13.1761C19.0001 13.5509 18.925 13.922 18.7792 14.2676C18.6333 14.6133 18.4197 14.9267 18.1507 15.1895C17.8816 15.4523 17.5626 15.6593 17.2122 15.7983C16.8618 15.9374 16.487 16.0059 16.1097 15.9996ZM2.84289 1.88231C2.59157 1.88231 2.35053 1.98147 2.17282 2.15797C1.9951 2.33447 1.89526 2.57385 1.89526 2.82346V13.1761C1.89526 13.4258 1.9951 13.6651 2.17282 13.8416C2.35053 14.0181 2.59157 14.1173 2.84289 14.1173H16.1097C16.3611 14.1173 16.6021 14.0181 16.7798 13.8416C16.9575 13.6651 17.0574 13.4258 17.0574 13.1761V5.64692C17.0574 5.39731 16.9575 5.15793 16.7798 4.98143C16.6021 4.80493 16.3611 4.70577 16.1097 4.70577H9.52369C9.05224 4.70647 8.58801 4.59072 8.1728 4.36892C7.75759 4.14713 7.40444 3.82626 7.14514 3.43521L6.40599 2.30583C6.31926 2.17503 6.20104 2.0678 6.06204 1.99384C5.92304 1.91989 5.76766 1.88155 5.60998 1.88231H2.84289Z" fill="white"/>
<path d="M14.215 12.2348H4.73865C4.48732 12.2348 4.24629 12.1357 4.06857 11.9592C3.89086 11.7827 3.79102 11.5433 3.79102 11.2937C3.79102 11.0441 3.89086 10.8047 4.06857 10.6282C4.24629 10.4517 4.48732 10.3525 4.73865 10.3525H14.215C14.4663 10.3525 14.7073 10.4517 14.885 10.6282C15.0627 10.8047 15.1626 11.0441 15.1626 11.2937C15.1626 11.5433 15.0627 11.7827 14.885 11.9592C14.7073 12.1357 14.4663 12.2348 14.215 12.2348Z" fill="white"/>
<path d="M9.4768 8.4702H4.73865C4.48732 8.4702 4.24629 8.37104 4.06857 8.19454C3.89086 8.01804 3.79102 7.77865 3.79102 7.52904C3.79102 7.27943 3.89086 7.04005 4.06857 6.86355C4.24629 6.68705 4.48732 6.58789 4.73865 6.58789H9.4768C9.72813 6.58789 9.96916 6.68705 10.1469 6.86355C10.3246 7.04005 10.4244 7.27943 10.4244 7.52904C10.4244 7.77865 10.3246 8.01804 10.1469 8.19454C9.96916 8.37104 9.72813 8.4702 9.4768 8.4702Z" fill="white"/>
</svg>

