<svg width="26" height="16" viewBox="0 0 26 16" fill="none" xmlns="http://www.w3.org/2000/svg">
<path d="M13 2.17651C17.7185 2.17651 22.0541 4.97437 24.0458 9.30435L26 8.3872C23.6565 3.29221 18.5536 0 13 0C7.44641 0 2.34349 3.29221 0 8.3872L1.95419 9.30435C3.94591 4.97437 8.28146 2.17651 13 2.17651Z" fill="#E31F25"/>
<path d="M20.247 11.081L22.2019 10.1652C20.5465 6.56055 16.9345 4.23137 12.9998 4.23137C9.07386 4.23137 5.46709 6.56055 3.81136 10.165L5.76626 11.0811C7.07022 8.24218 9.90962 6.40787 12.9998 6.40787C16.0987 6.40787 18.9434 8.24218 20.247 11.081Z" fill="#E31F25"/>
<path d="M16.4517 12.8636L18.4017 11.9369C17.4183 9.82642 15.2979 8.46273 13 8.46273C10.7021 8.46273 8.58165 9.82642 7.59824 11.9369L9.54822 12.8636C10.1778 11.5123 11.5326 10.6392 13 10.6392C14.4674 10.6392 15.8222 11.5123 16.4517 12.8636Z" fill="#E31F25"/>
<path d="M13.1264 15.9954C14.1081 15.9249 14.8473 15.064 14.7775 14.0724C14.7078 13.0809 13.8554 12.3342 12.8738 12.4047C11.8921 12.4751 11.1529 13.3361 11.2227 14.3276C11.2924 15.3192 12.1448 16.0659 13.1264 15.9954Z" fill="#E31F25"/>
</svg>
