<svg width="17" height="18" viewBox="0 0 17 18" fill="none" xmlns="http://www.w3.org/2000/svg">
<path fill-rule="evenodd" clip-rule="evenodd" d="M8.65261 0.252441C4.24274 0.252441 0.654785 4.07689 0.654785 8.77742C0.654785 13.478 4.24274 17.3024 8.65261 17.3024C13.0625 17.3024 16.6504 13.478 16.6504 8.77742C16.6504 4.07689 13.0625 0.252441 8.65261 0.252441ZM13.1226 6.53398L8.01124 11.9397C7.71048 12.26 7.22942 12.2816 6.90873 11.961L4.20256 9.33295C3.88188 9.01237 3.86195 8.47838 4.14248 8.13656C4.44323 7.79474 4.9442 7.77319 5.26489 8.09377L7.40974 10.1875L11.98 5.31606C12.3006 4.97424 12.8019 4.97424 13.1226 5.31606C13.4433 5.65789 13.4433 6.19216 13.1226 6.53398Z" fill="#009847"/>
</svg>
