<svg width="18" height="20" viewBox="0 0 18 20" fill="none" xmlns="http://www.w3.org/2000/svg">
<path d="M9 3H2C1.44772 3 1 3.44772 1 4V18C1 18.5523 1.44772 19 2 19H14C14.5523 19 15 18.5523 15 18V10" stroke="#999DC0" stroke-width="1.5"/>
<path d="M4 14.2998H12" stroke="#999DC0" stroke-width="1.2" stroke-linecap="round"/>
<path d="M4 16.2998H12" stroke="#999DC0" stroke-width="1.2" stroke-linecap="round"/>
<path d="M8.00114 9.67301L7.80598 11.3001C7.79739 11.3717 7.86518 11.4286 7.93424 11.4077L9.50273 10.933C9.44873 10.235 8.69793 9.60498 8.00114 9.67301Z" fill="#999DC0"/>
<path d="M12.4783 2.81354L13.6786 1.38302C13.8561 1.17149 14.1715 1.14389 14.383 1.32139L16.6202 3.19858C16.8317 3.37608 16.8593 3.69145 16.6818 3.90299L15.481 5.334M12.4783 2.81354L15.481 5.334M12.4783 2.81354L8.21491 7.8944L8.00153 9.67346M15.481 5.334L11.2181 10.4144L9.50312 10.9334M8.00153 9.67346L7.80637 11.3006C7.79777 11.3722 7.86557 11.4291 7.93462 11.4082L9.50312 10.9334M8.00153 9.67346C8.69832 9.60543 9.44911 10.2354 9.50312 10.9334" stroke="#999DC0" stroke-width="1.5"/>
</svg>
