<svg width="16" height="17" viewBox="0 0 16 17" fill="none" xmlns="http://www.w3.org/2000/svg">
<path d="M9.59346 0C6.06333 0 3.18693 3.04374 3.18693 6.77925C3.18693 8.09359 3.51379 9.26958 4.10214 10.238L0.441267 14.2503C-0.147089 14.8728 -0.147089 15.9105 0.441267 16.5331C1.02962 17.1556 2.01021 17.1556 2.59857 16.5331L6.32482 12.59C7.30541 13.2126 8.41675 13.5585 9.59346 13.5585C13.1236 13.5585 16 10.5148 16 6.77925C16 3.04374 13.1236 0 9.59346 0ZM9.59346 10.3764C7.76302 10.3764 6.25945 8.78535 6.25945 6.84842C6.25945 4.91149 7.76302 3.32045 9.59346 3.32045C11.4239 3.32045 12.9275 4.91149 12.9275 6.84842C12.9275 8.78535 11.4239 10.3764 9.59346 10.3764Z" fill="#999DC0"/>
</svg>
