<svg width="1498" height="539" viewBox="0 0 1498 539" fill="none" xmlns="http://www.w3.org/2000/svg">
<line x1="2.19254e-08" y1="0.5" x2="1498" y2="0.500066" stroke="#545580" stroke-opacity="0.3"/>
<line x1="2.19254e-08" y1="20.5" x2="1498" y2="20.5001" stroke="#545580" stroke-opacity="0.3"/>
<line x1="2.19254e-08" y1="40.5" x2="1498" y2="40.5001" stroke="#545580" stroke-opacity="0.3"/>
<line x1="2.19254e-08" y1="60.5" x2="1498" y2="60.5001" stroke="#545580" stroke-opacity="0.3"/>
<line x1="2.46394e-08" y1="80.5" x2="1498" y2="80.5001" stroke="#545580" stroke-opacity="0.3"/>
<line x1="2.46394e-08" y1="100.5" x2="1498" y2="100.5" stroke="#545580" stroke-opacity="0.3"/>
<line x1="2.46394e-08" y1="120.5" x2="1498" y2="120.5" stroke="#545580" stroke-opacity="0.3"/>
<line x1="2.46394e-08" y1="140.5" x2="1498" y2="140.5" stroke="#545580" stroke-opacity="0.3"/>
<line x1="2.46394e-08" y1="160.5" x2="1498" y2="160.5" stroke="#545580" stroke-opacity="0.3"/>
<line x1="2.46394e-08" y1="180.5" x2="1498" y2="180.5" stroke="#545580" stroke-opacity="0.3"/>
<line x1="2.46394e-08" y1="200.5" x2="1498" y2="200.5" stroke="#545580" stroke-opacity="0.3"/>
<line x1="2.46394e-08" y1="220.5" x2="1498" y2="220.5" stroke="#545580" stroke-opacity="0.3"/>
<line x1="2.46394e-08" y1="240.5" x2="1498" y2="240.5" stroke="#545580" stroke-opacity="0.3"/>
<line x1="2.46394e-08" y1="260.5" x2="1498" y2="260.5" stroke="#545580" stroke-opacity="0.3"/>
<line x1="2.46394e-08" y1="280.5" x2="1498" y2="280.5" stroke="#545580" stroke-opacity="0.3"/>
<line x1="2.46394e-08" y1="300.5" x2="1498" y2="300.5" stroke="#545580" stroke-opacity="0.3"/>
<line x1="2.46394e-08" y1="320.5" x2="1498" y2="320.5" stroke="#545580" stroke-opacity="0.3"/>
<line x1="2.46394e-08" y1="340.502" x2="1498" y2="340.502" stroke="#545580" stroke-opacity="0.3"/>
<line x1="2.46394e-08" y1="360.502" x2="1498" y2="360.502" stroke="#545580" stroke-opacity="0.3"/>
<line x1="2.46394e-08" y1="380.502" x2="1498" y2="380.502" stroke="#545580" stroke-opacity="0.3"/>
<line x1="2.46394e-08" y1="400.502" x2="1498" y2="400.502" stroke="#545580" stroke-opacity="0.3"/>
<line x1="2.46394e-08" y1="420.502" x2="1498" y2="420.502" stroke="#545580" stroke-opacity="0.3"/>
<line x1="2.46394e-08" y1="440.502" x2="1498" y2="440.502" stroke="#545580" stroke-opacity="0.3"/>
<line x1="2.46394e-08" y1="460.502" x2="1498" y2="460.502" stroke="#545580" stroke-opacity="0.3"/>
<line x1="2.46394e-08" y1="480.502" x2="1498" y2="480.502" stroke="#545580" stroke-opacity="0.3"/>
<line x1="2.46394e-08" y1="500.502" x2="1498" y2="500.502" stroke="#545580" stroke-opacity="0.3"/>
<line x1="2.55399e-08" y1="520.502" x2="1498" y2="520.502" stroke="#545580" stroke-opacity="0.3"/>
<line x1="0.5" y1="2.19254e-08" x2="0.499976" y2="539" stroke="#545580" stroke-opacity="0.3"/>
<line x1="20.5" y1="2.19254e-08" x2="20.5" y2="539" stroke="#545580" stroke-opacity="0.3"/>
<line x1="40.5" y1="2.19254e-08" x2="40.5" y2="539" stroke="#545580" stroke-opacity="0.3"/>
<line x1="60.5" y1="2.19254e-08" x2="60.5" y2="539" stroke="#545580" stroke-opacity="0.3"/>
<line x1="80.5" y1="2.19254e-08" x2="80.5" y2="539" stroke="#545580" stroke-opacity="0.3"/>
<line x1="100.5" y1="2.19254e-08" x2="100.5" y2="539" stroke="#545580" stroke-opacity="0.3"/>
<line x1="120.5" y1="2.19254e-08" x2="120.5" y2="539" stroke="#545580" stroke-opacity="0.3"/>
<line x1="140.5" y1="2.19254e-08" x2="140.5" y2="539" stroke="#545580" stroke-opacity="0.3"/>
<line x1="160.5" y1="2.19254e-08" x2="160.5" y2="539" stroke="#545580" stroke-opacity="0.3"/>
<line x1="180.5" y1="2.19254e-08" x2="180.5" y2="539" stroke="#545580" stroke-opacity="0.3"/>
<line x1="200.5" y1="2.19254e-08" x2="200.5" y2="539" stroke="#545580" stroke-opacity="0.3"/>
<line x1="220.5" y1="2.19254e-08" x2="220.5" y2="539" stroke="#545580" stroke-opacity="0.3"/>
<line x1="240.5" y1="2.19254e-08" x2="240.5" y2="539" stroke="#545580" stroke-opacity="0.3"/>
<line x1="260.5" y1="2.19254e-08" x2="260.5" y2="539" stroke="#545580" stroke-opacity="0.3"/>
<line x1="280.5" y1="2.19254e-08" x2="280.5" y2="539" stroke="#545580" stroke-opacity="0.3"/>
<line x1="300.5" y1="2.19254e-08" x2="300.5" y2="539" stroke="#545580" stroke-opacity="0.3"/>
<line x1="320.5" y1="2.19254e-08" x2="320.5" y2="539" stroke="#545580" stroke-opacity="0.3"/>
<line x1="340.5" y1="2.19254e-08" x2="340.5" y2="539" stroke="#545580" stroke-opacity="0.3"/>
<line x1="360.5" y1="2.19254e-08" x2="360.5" y2="539" stroke="#545580" stroke-opacity="0.3"/>
<line x1="380.5" y1="2.19254e-08" x2="380.5" y2="539" stroke="#545580" stroke-opacity="0.3"/>
<line x1="400.5" y1="2.19254e-08" x2="400.5" y2="539" stroke="#545580" stroke-opacity="0.3"/>
<line x1="420.5" y1="2.19254e-08" x2="420.5" y2="539" stroke="#545580" stroke-opacity="0.3"/>
<line x1="440.5" y1="2.19254e-08" x2="440.5" y2="539" stroke="#545580" stroke-opacity="0.3"/>
<line x1="460.5" y1="2.19254e-08" x2="460.5" y2="539" stroke="#545580" stroke-opacity="0.3"/>
<line x1="480.5" y1="2.19254e-08" x2="480.5" y2="539" stroke="#545580" stroke-opacity="0.3"/>
<line x1="500.5" y1="2.19254e-08" x2="500.5" y2="539" stroke="#545580" stroke-opacity="0.3"/>
<line x1="520.5" y1="2.19254e-08" x2="520.5" y2="539" stroke="#545580" stroke-opacity="0.3"/>
<line x1="540.5" y1="2.19254e-08" x2="540.5" y2="539" stroke="#545580" stroke-opacity="0.3"/>
<line x1="560.5" y1="1.77443e-08" x2="560.5" y2="539" stroke="#545580" stroke-opacity="0.3"/>
<line x1="580.5" y1="1.71069e-08" x2="580.5" y2="539" stroke="#545580" stroke-opacity="0.3"/>
<line x1="600.5" y1="1.71069e-08" x2="600.5" y2="539" stroke="#545580" stroke-opacity="0.3"/>
<line x1="620.5" y1="1.71069e-08" x2="620.5" y2="539" stroke="#545580" stroke-opacity="0.3"/>
<line x1="640.5" y1="1.43535e-08" x2="640.5" y2="539" stroke="#545580" stroke-opacity="0.3"/>
<line x1="660.5" y1="1.38181e-08" x2="660.5" y2="539" stroke="#545580" stroke-opacity="0.3"/>
<line x1="680.5" y1="1.38181e-08" x2="680.5" y2="539" stroke="#545580" stroke-opacity="0.3"/>
<line x1="700.5" y1="1.38181e-08" x2="700.5" y2="539" stroke="#545580" stroke-opacity="0.3"/>
<line x1="720.502" y1="1.37416e-08" x2="720.502" y2="539" stroke="#545580" stroke-opacity="0.3"/>
<line x1="740.502" y1="1.37416e-08" x2="740.502" y2="539" stroke="#545580" stroke-opacity="0.3"/>
<line x1="760.502" y1="1.37416e-08" x2="760.502" y2="539" stroke="#545580" stroke-opacity="0.3"/>
<line x1="780.502" y1="1.37416e-08" x2="780.502" y2="539" stroke="#545580" stroke-opacity="0.3"/>
<line x1="800.502" y1="1.37416e-08" x2="800.502" y2="539" stroke="#545580" stroke-opacity="0.3"/>
<line x1="820.502" y1="1.37416e-08" x2="820.502" y2="539" stroke="#545580" stroke-opacity="0.3"/>
<line x1="840.502" y1="1.37416e-08" x2="840.502" y2="539" stroke="#545580" stroke-opacity="0.3"/>
<line x1="860.502" y1="1.37416e-08" x2="860.502" y2="539" stroke="#545580" stroke-opacity="0.3"/>
<line x1="880.502" y1="1.37416e-08" x2="880.502" y2="539" stroke="#545580" stroke-opacity="0.3"/>
<line x1="900.502" y1="1.37416e-08" x2="900.502" y2="539" stroke="#545580" stroke-opacity="0.3"/>
<line x1="920.502" y1="1.37416e-08" x2="920.502" y2="539" stroke="#545580" stroke-opacity="0.3"/>
<line x1="940.502" y1="1.37416e-08" x2="940.502" y2="539" stroke="#545580" stroke-opacity="0.3"/>
<line x1="960.502" y1="1.37416e-08" x2="960.502" y2="539" stroke="#545580" stroke-opacity="0.3"/>
<line x1="980.502" y1="1.37416e-08" x2="980.502" y2="539" stroke="#545580" stroke-opacity="0.3"/>
<line x1="1000.5" y1="1.37416e-08" x2="1000.5" y2="539" stroke="#545580" stroke-opacity="0.3"/>
<line x1="1020.5" y1="1.37416e-08" x2="1020.5" y2="539" stroke="#545580" stroke-opacity="0.3"/>
<line x1="1040.5" y1="1.37416e-08" x2="1040.5" y2="539" stroke="#545580" stroke-opacity="0.3"/>
<line x1="1060.5" y1="1.37416e-08" x2="1060.5" y2="539" stroke="#545580" stroke-opacity="0.3"/>
<line x1="1080.5" y1="1.37416e-08" x2="1080.5" y2="539" stroke="#545580" stroke-opacity="0.3"/>
<line x1="1100.5" y1="1.37416e-08" x2="1100.5" y2="539" stroke="#545580" stroke-opacity="0.3"/>
<line x1="1120.5" y1="1.37416e-08" x2="1120.5" y2="539" stroke="#545580" stroke-opacity="0.3"/>
<line x1="1140.5" y1="1.37416e-08" x2="1140.5" y2="539" stroke="#545580" stroke-opacity="0.3"/>
<line x1="1160.5" y1="1.37416e-08" x2="1160.5" y2="539" stroke="#545580" stroke-opacity="0.3"/>
<line x1="1180.5" y1="1.37416e-08" x2="1180.5" y2="539" stroke="#545580" stroke-opacity="0.3"/>
<line x1="1200.5" y1="1.37416e-08" x2="1200.5" y2="539" stroke="#545580" stroke-opacity="0.3"/>
<line x1="1220.5" y1="1.37416e-08" x2="1220.5" y2="539" stroke="#545580" stroke-opacity="0.3"/>
<line x1="1240.5" y1="1.37416e-08" x2="1240.5" y2="539" stroke="#545580" stroke-opacity="0.3"/>
<line x1="1260.5" y1="1.37416e-08" x2="1260.5" y2="539" stroke="#545580" stroke-opacity="0.3"/>
<line x1="1280.5" y1="1.37416e-08" x2="1280.5" y2="539" stroke="#545580" stroke-opacity="0.3"/>
<line x1="1300.5" y1="1.37416e-08" x2="1300.5" y2="539" stroke="#545580" stroke-opacity="0.3"/>
<line x1="1320.5" y1="1.37416e-08" x2="1320.5" y2="539" stroke="#545580" stroke-opacity="0.3"/>
<line x1="1340.5" y1="1.37416e-08" x2="1340.5" y2="539" stroke="#545580" stroke-opacity="0.3"/>
<line x1="1360.5" y1="1.37416e-08" x2="1360.5" y2="539" stroke="#545580" stroke-opacity="0.3"/>
<line x1="1380.5" y1="1.37416e-08" x2="1380.5" y2="539" stroke="#545580" stroke-opacity="0.3"/>
<line x1="1400.5" y1="1.37416e-08" x2="1400.5" y2="539" stroke="#545580" stroke-opacity="0.3"/>
<line x1="1420.5" y1="1.37416e-08" x2="1420.5" y2="539" stroke="#545580" stroke-opacity="0.3"/>
<line x1="1440.5" y1="1.37416e-08" x2="1440.5" y2="539" stroke="#545580" stroke-opacity="0.3"/>
<line x1="1460.5" y1="1.37416e-08" x2="1460.5" y2="539" stroke="#545580" stroke-opacity="0.3"/>
<line x1="1480.5" y1="1.37416e-08" x2="1480.5" y2="539" stroke="#545580" stroke-opacity="0.3"/>
</svg>
