<svg width="35" height="40" viewBox="0 0 35 40" fill="none" 
                        xmlns="http://www.w3.org/2000/svg">
                        <path d="M17.6283 0.178149L25.9795 4.99975L25.9789 5.0008L34.3284 9.82132L34.6394 10.0009V10.3541V19.9973V29.6405V29.9937L34.3284 30.1733L25.9789 34.9938L25.9795 34.9949L17.6283 39.8165L17.3197 39.9946L17.0111 39.8165L8.65986 34.9949L8.66047 34.9938L0.310997 30.1733L0 29.9937V29.6405V19.9973V10.3541V10.0009L0.310997 9.82132L8.66047 5.0008L8.65986 4.99975L17.0111 0.178149L17.3197 0L17.6283 0.178149ZM17.3197 2.13791L11.1919 5.67579L11.1925 5.67686L1.8515 11.0698V28.9248L11.1925 34.3178L11.1919 34.3189L17.3197 37.8568L23.4475 34.3189L23.4469 34.3178L32.7879 28.9248V11.0698L23.4469 5.67686L23.4475 5.67581L17.3197 2.13791Z" fill="#656A8A"/>
                        <path d="M7.37506 19.5C8.70646 19.5 9.78577 18.3807 9.78577 17C9.78577 15.6193 8.70646 14.5 7.37506 14.5C6.04367 14.5 4.96436 15.6193 4.96436 17C4.96436 18.3807 6.04367 19.5 7.37506 19.5Z" fill="#999DC0"/>
                        <path d="M4.48214 24.5H10.2678C10.3957 24.5 10.5184 24.4473 10.6088 24.3535C10.6992 24.2598 10.75 24.1326 10.75 24V22.5C10.75 21.837 10.496 21.2011 10.0439 20.7322C9.59181 20.2634 8.97864 20 8.33928 20H6.41071C5.77135 20 5.15818 20.2634 4.70608 20.7322C4.25398 21.2011 4 21.837 4 22.5V24C4 24.1326 4.0508 24.2598 4.14122 24.3535C4.23164 24.4473 4.35427 24.5 4.48214 24.5Z" fill="#999DC0"/>
                        <path d="M17.4997 19C19.63 19 21.3568 17.2091 21.3568 15C21.3568 12.7909 19.63 11 17.4997 11C15.3695 11 13.6426 12.7909 13.6426 15C13.6426 17.2091 15.3695 19 17.4997 19Z" fill="#999DC0"/>
                        <path d="M22.8034 27.5V23C22.8034 22.337 22.5494 21.7011 22.0973 21.2322C21.6452 20.7634 21.0321 20.5 20.3927 20.5H14.607C13.9676 20.5 13.3545 20.7634 12.9024 21.2322C12.4503 21.7011 12.1963 22.337 12.1963 23V27.5C12.1963 27.6326 12.2471 27.7598 12.3375 27.8535C12.4279 27.9473 12.5506 28 12.6784 28H22.3213C22.4491 28 22.5718 27.9473 22.6622 27.8535C22.7526 27.7598 22.8034 27.6326 22.8034 27.5Z" fill="#999DC0"/>
                        <path d="M27.6251 19.5C28.9565 19.5 30.0358 18.3807 30.0358 17C30.0358 15.6193 28.9565 14.5 27.6251 14.5C26.2937 14.5 25.2144 15.6193 25.2144 17C25.2144 18.3807 26.2937 19.5 27.6251 19.5Z" fill="#999DC0"/>
                        <path d="M26.6607 20C26.0213 20 25.4082 20.2634 24.9561 20.7322C24.504 21.2011 24.25 21.837 24.25 22.5V24C24.25 24.1326 24.3008 24.2598 24.3912 24.3535C24.4816 24.4473 24.6043 24.5 24.7321 24.5H30.5178C30.6457 24.5 30.7684 24.4473 30.8588 24.3535C30.9492 24.2598 31 24.1326 31 24V22.5C31 21.837 30.746 21.2011 30.2939 20.7322C29.8418 20.2634 29.2286 20 28.5893 20H26.6607Z" fill="#999DC0"/>
                        </svg>