<svg width="26" height="16" viewBox="0 0 26 16" fill="none" xmlns="http://www.w3.org/2000/svg">
<path fill-rule="evenodd" clip-rule="evenodd" d="M2.32948 0H18.0347C19.3121 0 20.3642 1.11443 20.3642 2.46766V5.25373L25.0231 1.91045C25.3988 1.67164 26 1.91045 26 2.46766V13.4527C26 14.0896 25.3988 14.3284 25.0231 14.01L20.3642 10.6667V13.5323C20.3642 14.8856 19.3121 16 18.0347 16H2.32948C1.05202 16 0 14.8856 0 13.5323V2.46766C0 1.11443 1.05202 0 2.32948 0ZM12.474 7.24378L8.79191 4.93532C8.19075 4.61692 7.51445 5.01493 7.51445 5.73134V10.2687C7.51445 10.9055 8.19075 11.3831 8.79191 11.0647L12.474 8.75622C13 8.43781 13 7.56219 12.474 7.24378Z" fill="#009847"/>
</svg>
