<svg width="13" height="21" viewBox="0 0 13 21" fill="none" xmlns="http://www.w3.org/2000/svg">
<path fill-rule="evenodd" clip-rule="evenodd" d="M6.13561 2.09391H3.90658L6.13561 3.88654V2.09391ZM1.86351 0H11.1365V1.46569H10.1192L13 21H0L2.90138 1.46569H1.86351V0ZM11.8858 18.5281L11.4298 15.4738L7.2756 17.8282L8.58762 18.5281H11.8858ZM4.55311 18.5281L5.75272 17.8589L1.58799 15.5701L1.1489 18.5281H4.55311ZM8.9319 2.09391H6.89112V3.84435L8.9319 2.09391ZM6.13561 8.69036H3.41403L6.13584 10.4566L6.13561 8.69036ZM9.70271 8.69036H6.89112V10.5458L9.70271 8.69036ZM6.89112 7.90298H9.78016L6.89112 5.54877V7.90298ZM3.26622 7.90298H6.13561V5.53439L3.26622 7.90298ZM6.13561 15.0915H2.42208L6.13584 17.1918L6.13561 15.0915ZM10.5788 15.0915H6.89112V17.1945L10.5788 15.0915ZM6.89112 14.3038H10.347L6.89112 11.9532V14.3038ZM2.57332 14.3038H6.13561V12.0505L2.57332 14.3038ZM2.56258 9.00842L1.83906 13.8808L5.84136 11.2392L2.56258 9.00842ZM3.48782 2.77535L5.87244 4.71849L2.80908 7.34667L3.48782 2.77535ZM10.1866 7.14317L9.5284 2.73436L7.14721 4.69956L10.1866 7.14317ZM11.1687 13.7228L10.5064 9.28622L7.37955 11.2639L11.1687 13.7228Z" fill="#656A8A"/>
</svg>