<svg width="26" height="16" viewBox="0 0 26 16" fill="none" xmlns="http://www.w3.org/2000/svg">
<path d="M3.25018 7.99998C4.53225 7.99998 5.57157 6.94653 5.57157 5.64703C5.57157 4.34754 4.53225 3.29409 3.25018 3.29409C1.96811 3.29409 0.928794 4.34754 0.928794 5.64703C0.928794 6.94653 1.96811 7.99998 3.25018 7.99998Z" fill="#656A8A"/>
<path d="M0.464277 12.7059H6.03561C6.15874 12.7059 6.27683 12.6563 6.3639 12.5681C6.45097 12.4798 6.49988 12.3601 6.49988 12.2353V10.8235C6.49988 10.1995 6.25531 9.60101 5.81997 9.15975C5.38462 8.71848 4.79417 8.47059 4.1785 8.47059H2.32139C1.70572 8.47059 1.11526 8.71848 0.679919 9.15975C0.244574 9.60101 0 10.1995 0 10.8235V12.2353C0 12.3601 0.0489149 12.4798 0.135984 12.5681C0.223053 12.6563 0.341143 12.7059 0.464277 12.7059Z" fill="#656A8A"/>
<path d="M12.9999 7.52943C15.0513 7.52943 16.7142 5.84391 16.7142 3.76471C16.7142 1.68552 15.0513 0 12.9999 0C10.9486 0 9.28573 1.68552 9.28573 3.76471C9.28573 5.84391 10.9486 7.52943 12.9999 7.52943Z" fill="#656A8A"/>
<path d="M18.107 15.5294V11.2941C18.107 10.6701 17.8625 10.0716 17.4271 9.63032C16.9918 9.18906 16.4013 8.94116 15.7857 8.94116H10.2143C9.59866 8.94116 9.0082 9.18906 8.57286 9.63032C8.13752 10.0716 7.89294 10.6701 7.89294 11.2941V15.5294C7.89294 15.6542 7.94186 15.7739 8.02892 15.8622C8.11599 15.9504 8.23408 16 8.35722 16H17.6428C17.7659 16 17.884 15.9504 17.9711 15.8622C18.0581 15.7739 18.107 15.6542 18.107 15.5294Z" fill="#656A8A"/>
<path d="M22.7499 8C24.0319 8 25.0713 6.94655 25.0713 5.64706C25.0713 4.34756 24.0319 3.29411 22.7499 3.29411C21.4678 3.29411 20.4285 4.34756 20.4285 5.64706C20.4285 6.94655 21.4678 8 22.7499 8Z" fill="#656A8A"/>
<path d="M21.8215 8.47057C21.2058 8.47057 20.6154 8.71847 20.18 9.15974C19.7447 9.601 19.5001 10.1995 19.5001 10.8235V12.2353C19.5001 12.3601 19.549 12.4798 19.6361 12.568C19.7232 12.6563 19.8413 12.7059 19.9644 12.7059H25.5357C25.6589 12.7059 25.7769 12.6563 25.864 12.568C25.9511 12.4798 26 12.3601 26 12.2353V10.8235C26 10.1995 25.7554 9.601 25.3201 9.15974C24.8847 8.71847 24.2943 8.47057 23.6786 8.47057H21.8215Z" fill="#656A8A"/>
</svg>
