<svg width="20" height="16" viewBox="0 0 20 16" fill="none" xmlns="http://www.w3.org/2000/svg">
<path fill-rule="evenodd" clip-rule="evenodd" d="M10.1914 8.47122L11.0174 7.76413L11.2494 9.37685L10.1914 8.47122ZM8.40697 6.84625L10.741 5.84475L10.8946 6.91257L9.63139 7.9918L8.39417 6.93242L8.40697 6.84625ZM3.66087 10.0865V15.2533H2.22724V10.0861C2.43805 10.2166 2.68285 10.2913 2.94446 10.2913C3.20526 10.2913 3.45007 10.2166 3.66087 10.0865ZM7.64255 7.17404L6.42053 15.2533H4.36689V8.83575C4.36809 8.75043 4.36569 8.6706 4.35449 8.58527L7.64255 7.17404ZM12.8107 15.2533L11.4142 5.5554L14.6479 4.1674L15.7167 7.50013C15.7787 7.69654 15.9799 7.80045 16.1635 7.73371L16.7035 7.5411V12.2382H16.3511C15.9563 12.2382 15.6339 12.5786 15.6339 12.9955V15.2533H12.8107ZM8.47217 15.2533L9.63139 14.558L10.7902 15.2533H8.47217ZM10.3458 14.1288L11.8066 13.2524L12.083 15.1717L10.3458 14.1288ZM10.2682 11.3009L11.4106 10.4983L11.6674 12.2842L10.2682 11.3009ZM9.63099 11.7486L11.1286 12.8008L9.63099 13.6997L8.13296 12.8008L9.63099 11.7486ZM8.41137 9.99608L9.63139 8.95107L10.8514 9.99608L9.63139 10.8531L8.41137 9.99608ZM7.43935 13.2426L8.91658 14.1288L7.14454 15.1929L7.43935 13.2426ZM7.85416 10.5004L8.99378 11.3013L7.58335 12.2922L7.85416 10.5004ZM8.02576 9.36629L8.26537 7.78145L9.07098 8.47165L8.02576 9.36629ZM14.4207 3.45946L4.08768 7.89423C3.82808 7.52505 3.41247 7.28513 2.94446 7.28513C2.16004 7.28513 1.52083 7.95928 1.52083 8.7876L1.52123 15.2533H0.352807C0.158403 15.2533 0 15.4205 0 15.6271C0 15.8324 0.158403 15.9996 0.352807 15.9996H19.6472C19.8416 15.9996 20 15.8324 20 15.6271C20 15.4205 19.8416 15.2533 19.6472 15.2533H18.4792V12.9955C18.4792 12.5786 18.158 12.2382 17.762 12.2382H17.4091V7.28893L18.1748 7.01564C18.3328 6.95861 18.4336 6.79176 18.4116 6.61562L18.0204 3.27867C18.0144 3.2284 17.9988 3.17983 17.9744 3.13674L16.3667 0.233594C16.2831 0.0806854 16.1043 0.012679 15.9495 0.0688581L13.9375 0.787782C13.7523 0.852831 13.6535 1.06572 13.7155 1.26087L14.4207 3.45946Z" fill="white"/>
<path d="M0.608512 1.69937C0.586678 1.76384 0.604873 1.83547 0.655819 1.88203L1.69657 2.88124L1.45276 4.28873C1.44184 4.35677 1.46732 4.42482 1.52554 4.46422C1.55829 4.4857 1.59468 4.50003 1.63107 4.50003C1.66018 4.50003 1.6893 4.49287 1.71477 4.47854L2.99934 3.8124L4.2839 4.47854C4.34577 4.51077 4.41855 4.50361 4.47677 4.46422C4.53136 4.42482 4.56047 4.35677 4.54955 4.28873L4.30574 2.88124L5.34649 1.88203C5.39744 1.83547 5.41563 1.76384 5.3938 1.69937C5.37197 1.63491 5.31374 1.58835 5.24824 1.57761L3.81083 1.37347L3.16673 0.0913257C3.10487 -0.0304419 2.90108 -0.0304419 2.83922 0.0913257L2.19512 1.37347L0.757711 1.57761C0.68857 1.58835 0.630346 1.63491 0.608512 1.69937Z" fill="white"/>
<path d="M6.21022 1.16138C6.19566 1.20543 6.20779 1.25439 6.24176 1.2862L6.93559 1.96908L6.77305 2.93098C6.76577 2.97748 6.78276 3.02399 6.82157 3.05091C6.84341 3.0656 6.86767 3.07539 6.89193 3.07539C6.91133 3.07539 6.93074 3.07049 6.94772 3.0607L7.8041 2.60545L8.66048 3.0607C8.70172 3.08273 8.75024 3.07783 8.78906 3.05091C8.82545 3.02399 8.84486 2.97748 8.83758 2.93098L8.67504 1.96908L9.36887 1.2862C9.40284 1.25439 9.41497 1.20543 9.40041 1.16138C9.38586 1.11732 9.34704 1.0855 9.30337 1.07816L8.3451 0.938648L7.9157 0.0624134C7.87446 -0.0208045 7.7386 -0.0208045 7.69736 0.0624134L7.26796 0.938648L6.30969 1.07816C6.26359 1.0855 6.22478 1.11732 6.21022 1.16138Z" fill="white"/>
<path d="M10.2121 0.871033C10.2011 0.904075 10.2102 0.940789 10.2357 0.964653L10.7561 1.47681L10.6342 2.19823C10.6287 2.23311 10.6415 2.26799 10.6706 2.28818C10.687 2.2992 10.7051 2.30654 10.7233 2.30654C10.7379 2.30654 10.7525 2.30287 10.7652 2.29552L11.4075 1.95409L12.0498 2.29552C12.0807 2.31205 12.1171 2.30837 12.1462 2.28818C12.1735 2.26799 12.188 2.23311 12.1826 2.19823L12.0607 1.47681L12.5811 0.964653C12.6065 0.940789 12.6156 0.904075 12.6047 0.871033C12.5938 0.83799 12.5647 0.814126 12.5319 0.808619L11.8132 0.703985L11.4912 0.04681C11.4602 -0.0156033 11.3583 -0.0156033 11.3274 0.04681L11.0054 0.703985L10.2867 0.808619C10.2521 0.814126 10.223 0.83799 10.2121 0.871033Z" fill="white"/>
</svg>
