<svg width="18" height="18" viewBox="0 0 18 18" fill="none" xmlns="http://www.w3.org/2000/svg">
<path fill-rule="evenodd" clip-rule="evenodd" d="M18 2.25001C18 1.00755 16.9925 0 15.75 0H12.375V2.25001H15.75V5.62502H18V2.25001Z" fill="white"/>
<path fill-rule="evenodd" clip-rule="evenodd" d="M0 5.62502H2.24998V2.25001H5.62495V0H2.24998C1.00754 0 0 1.00755 0 2.25001V5.62502Z" fill="white"/>
<path fill-rule="evenodd" clip-rule="evenodd" d="M0 15.75C0 16.9924 1.00754 18 2.24998 18H5.62495V15.75H2.24998V12.3749H0V15.75Z" fill="white"/>
<path fill-rule="evenodd" clip-rule="evenodd" d="M18 15.75V12.3749H15.75V15.75H12.375V18H15.75C16.9925 18 18 16.9924 18 15.75Z" fill="white"/>
<path fill-rule="evenodd" clip-rule="evenodd" d="M10.2303 11.8138L12.7024 14.2859L14.2944 12.694L11.8109 10.2332C12.1722 9.5978 12.3628 8.87824 12.3628 8.14699C12.3628 5.81733 10.4737 3.92822 8.14405 3.92822C5.8144 3.92822 3.92529 5.81733 3.92529 8.14699C3.92529 10.4767 5.8144 12.3658 8.14405 12.3658C8.87553 12.3658 9.59485 12.1752 10.2305 11.8136L10.2303 11.8138ZM6.18587 8.15756C6.18587 7.07036 7.06743 6.18881 8.15463 6.18881C9.24183 6.18881 10.1234 7.07036 10.1234 8.15756C10.1234 9.24477 9.24183 10.1263 8.15463 10.1263C7.06743 10.1263 6.18587 9.24477 6.18587 8.15756Z" fill="white"/>
</svg>
