<svg width="14" height="18" viewBox="0 0 14 18" fill="none" xmlns="http://www.w3.org/2000/svg">
<path fill-rule="evenodd" clip-rule="evenodd" d="M6.80428 6.34932H5.60403L6.80428 7.29209V6.34932ZM4.50392 5.24811H9.49706V6.01893H8.94928L10.5005 16.2923H3.50049L5.06277 6.01893H4.50392V5.24811ZM9.90055 14.9923L9.65501 13.386L7.41812 14.6242L8.1246 14.9923H9.90055ZM5.95216 14.9923L6.59811 14.6403L4.35556 13.4366L4.11913 14.9923H5.95216ZM8.30998 6.34932H7.21109V7.2699L8.30998 6.34932ZM6.80428 9.81848H5.33881L6.80441 10.7474L6.80428 9.81848ZM8.72503 9.81848H7.21109V10.7943L8.72503 9.81848ZM7.21109 9.40439H8.76673L7.21109 8.16628V9.40439ZM5.25922 9.40439H6.80428V8.15871L5.25922 9.40439ZM6.80428 13.1849H4.80469L6.80441 14.2895L6.80428 13.1849ZM9.19679 13.1849H7.21109V14.2909L9.19679 13.1849ZM7.21109 12.7707H9.07193L7.21109 11.5345V12.7707ZM4.88612 12.7707H6.80428V11.5856L4.88612 12.7707ZM4.88034 9.98575L4.49075 12.5482L6.64584 11.1589L4.88034 9.98575ZM5.37855 6.7077L6.66257 7.72962L5.01307 9.11181L5.37855 6.7077ZM8.98557 9.00479L8.63117 6.68614L7.34899 7.71966L8.98557 9.00479ZM9.51441 12.4651L9.15779 10.1318L7.47409 11.1719L9.51441 12.4651Z" fill="white"/>
<path fill-rule="evenodd" clip-rule="evenodd" d="M0 16.8956V18H14V16.8956H0Z" fill="white"/>
<path d="M0.809326 6.35118L3.2324 3.86625L6.7324 3.59014L9.15548 1.10521L12.3863 0.829102" stroke="white" stroke-width="0.6"/>
<ellipse cx="0.806807" cy="6.35163" rx="0.806807" ry="0.828312" fill="white"/>
<ellipse cx="3.23027" cy="3.86451" rx="0.806807" ry="0.828312" fill="white"/>
<ellipse cx="6.7299" cy="3.58912" rx="0.806807" ry="0.828313" fill="white"/>
<ellipse cx="9.153" cy="1.10273" rx="0.806809" ry="0.828313" fill="white"/>
<ellipse cx="12.3832" cy="0.828313" rx="0.806808" ry="0.828313" fill="white"/>
</svg>
