<svg width="12" height="8" viewBox="0 0 12 8" fill="none" xmlns="http://www.w3.org/2000/svg">
    <path d="M11.8082 1.06797L11.4157 0.674893C11.2916 0.553192 11.1268 0.485167 10.9508 0.485167C10.7749 0.485167 10.6102 0.553192 10.4865 0.674893L6.00264 5.12605L1.51318 0.669991C1.39097 0.549802 1.22965 0.48176 1.05705 0.479492H1.04874H1.04047C0.868251 0.48176 0.705791 0.549802 0.584707 0.669991L0.191001 1.06079C0.0635252 1.18779 0 1.35484 0 1.5219C0 1.68857 0.0635252 1.85524 0.191001 1.98186L5.53636 7.30646C5.6582 7.42778 5.81949 7.51283 5.9936 7.51547H6.00186H6.00374H6.01205C6.18502 7.51283 6.34672 7.42778 6.46855 7.30646L11.8082 1.9966C11.9304 1.87641 11.9977 1.71087 12 1.53928V1.53134V1.52303C11.9977 1.35144 11.9304 1.18891 11.8082 1.06797Z" fill="#FEFEFE"/>
</svg>
