<svg width="20" height="20" viewBox="0 0 20 20" fill="none" xmlns="http://www.w3.org/2000/svg">
<path fill-rule="evenodd" clip-rule="evenodd" d="M15.9664 3.43084C15.9664 1.53597 12.3925 -0.000126839 7.98387 -0.000126839C3.57514 -0.000126839 0.0012207 1.53597 0.0012207 3.43084C0.0012207 5.3257 3.57514 6.86182 7.98387 6.86182C12.3925 6.86182 15.9664 5.3257 15.9664 3.43084Z" fill="#999DC0"/>
<path fill-rule="evenodd" clip-rule="evenodd" d="M7.98226 10.7979C8.06257 10.7979 8.14123 10.7922 8.22129 10.7911C9.31381 8.79259 11.4347 7.43376 13.8675 7.43376C14.5824 7.43376 15.2682 7.55585 15.9113 7.7721C15.9452 7.63858 15.9646 7.50346 15.9646 7.36711V5.32639C14.6226 6.76566 11.7125 7.67325 7.98391 7.67325C4.25235 7.67325 1.34067 6.76417 0 5.32303V7.36711C0 9.32278 3.43152 10.7979 7.98226 10.7979Z" fill="#999DC0"/>
<path fill-rule="evenodd" clip-rule="evenodd" d="M7.45612 14.269C7.44787 14.1364 7.43594 14.0048 7.43594 13.8701C7.43594 13.0736 7.58805 12.3135 7.85372 11.6088C4.18585 11.588 1.32546 10.6855 0 9.26198V10.8491C0 12.7281 3.17121 14.1595 7.45612 14.269Z" fill="#999DC0"/>
<path fill-rule="evenodd" clip-rule="evenodd" d="M0 12.7425V14.3295C0 16.2852 3.43152 17.7603 7.98226 17.7603C8.23767 17.7603 8.48979 17.7489 8.74223 17.739C8.15954 16.9691 7.74366 16.0682 7.55466 15.0847C4.03101 15.0175 1.28922 14.127 0 12.7425Z" fill="#999DC0"/>
<path fill-rule="evenodd" clip-rule="evenodd" d="M13.8667 12.5462C13.1399 12.5462 12.5471 13.139 12.5471 13.8658C12.5471 14.5967 13.1399 15.1895 13.8667 15.1895C14.5976 15.1895 15.1904 14.5967 15.1904 13.8658C15.1904 13.139 14.5976 12.5462 13.8667 12.5462Z" fill="#999DC0"/>
<path fill-rule="evenodd" clip-rule="evenodd" d="M13.8673 8.24622C10.7692 8.24622 8.2478 10.7677 8.2478 13.8698C8.2478 16.9678 10.7692 19.4893 13.8673 19.4893C16.9694 19.4893 19.4909 16.9678 19.4909 13.8698C19.4909 10.7677 16.9694 8.24622 13.8673 8.24622ZM17.5576 14.0851C16.5872 15.6239 15.2757 16.4726 13.8668 16.4726C12.4619 16.4726 11.1504 15.6239 10.1799 14.0851L10.042 13.8658L10.1799 13.6506C11.1504 12.1117 12.4619 11.2631 13.8668 11.2631C15.2757 11.2631 16.5872 12.1117 17.5576 13.6506L17.6957 13.8658L17.5576 14.0851Z" fill="#999DC0"/>
</svg>
