<svg width="29" height="29" viewBox="0 0 48 48" fill="none" xmlns="http://www.w3.org/2000/svg">
<path fill-rule="evenodd" clip-rule="evenodd" d="M39.3204 8.44947C39.3204 3.78299 30.5189 5.91278e-05 19.6617 5.91278e-05C8.8044 5.91278e-05 0.00292969 3.78299 0.00292969 8.44947C0.00292969 13.1159 8.8044 16.8989 19.6617 16.8989C30.5189 16.8989 39.3204 13.1159 39.3204 8.44947Z" fill="#3366FF"/>
<path fill-rule="evenodd" clip-rule="evenodd" d="M19.6579 26.593C19.8556 26.593 20.0494 26.579 20.2465 26.5765C22.9371 21.6547 28.1601 18.3083 34.1513 18.3083C35.912 18.3083 37.601 18.609 39.1847 19.1415C39.2682 18.8127 39.3159 18.4799 39.3159 18.1441V13.1185C36.0109 16.663 28.8442 18.8981 19.6619 18.8981C10.4722 18.8981 3.30166 16.6593 0 13.1102L0 18.1441C0 22.9604 8.45078 26.593 19.6579 26.593Z" fill="#3366FF"/>
<path fill-rule="evenodd" clip-rule="evenodd" d="M18.3621 35.1404C18.3418 34.8138 18.3124 34.4896 18.3124 34.158C18.3124 32.1963 18.687 30.3246 19.3413 28.589C10.3085 28.5377 3.26421 26.3153 0 22.8095L0 26.718C0 31.3455 7.80972 34.8706 18.3621 35.1404Z" fill="#3366FF"/>
<path fill-rule="evenodd" clip-rule="evenodd" d="M0 31.3819L0 35.2901C0 40.1063 8.45078 43.739 19.6579 43.739C20.2869 43.739 20.9077 43.7109 21.5294 43.6866C20.0945 41.7907 19.0703 39.5719 18.6048 37.15C9.92715 36.9844 3.17494 34.7913 0 31.3819Z" fill="#3366FF"/>
<path fill-rule="evenodd" clip-rule="evenodd" d="M34.1492 30.8981C32.3593 30.8981 30.8994 32.358 30.8994 34.148C30.8994 35.9478 32.3593 37.4077 34.1492 37.4077C35.9491 37.4077 37.409 35.9478 37.409 34.148C37.409 32.358 35.9491 30.8981 34.1492 30.8981Z" fill="#3366FF"/>
<path fill-rule="evenodd" clip-rule="evenodd" d="M34.1506 20.3084C26.521 20.3084 20.3115 26.5181 20.3115 34.1575C20.3115 41.7871 26.521 47.9966 34.1506 47.9966C41.7902 47.9966 47.9997 41.7871 47.9997 34.1575C47.9997 26.5181 41.7902 20.3084 34.1506 20.3084ZM43.2388 34.6877C40.8489 38.4774 37.6191 40.5674 34.1493 40.5674C30.6895 40.5674 27.4597 38.4774 25.0698 34.6877L24.73 34.1477L25.0698 33.6178C27.4597 29.8279 30.6895 27.7382 34.1493 27.7382C37.6191 27.7382 40.8489 29.8279 43.2388 33.6178L43.5788 34.1477L43.2388 34.6877Z" fill="#3366FF"/>
</svg>