<svg width="20" height="20" viewBox="0 0 20 20" fill="none" xmlns="http://www.w3.org/2000/svg">
    <path fill-rule="evenodd" clip-rule="evenodd" d="M1.8665 10C1.75605 10 1.6665 10.0895 1.6665 10.2L1.6665 17.3C1.6665 17.4105 1.75605 17.5 1.8665 17.5H4.79984C4.91029 17.5 4.99984 17.4105 4.99984 17.3V10.2C4.99984 10.0895 4.91029 10 4.79984 10H1.8665Z" stroke="white" stroke-width="1.4" stroke-linecap="round"/>
    <path fill-rule="evenodd" clip-rule="evenodd" d="M8.5335 2.5C8.42304 2.5 8.3335 2.58954 8.3335 2.7L8.3335 17.3C8.3335 17.4105 8.42304 17.5 8.5335 17.5H11.4668C11.5773 17.5 11.6668 17.4105 11.6668 17.3V2.7C11.6668 2.58954 11.5773 2.5 11.4668 2.5H8.5335Z" stroke="white" stroke-width="1.4" stroke-linecap="round"/>
    <path fill-rule="evenodd" clip-rule="evenodd" d="M15.2 5.83301C15.0895 5.83301 15 5.92255 15 6.03301L15 17.2997C15 17.4101 15.0895 17.4997 15.2 17.4997H18.1333C18.2438 17.4997 18.3333 17.4101 18.3333 17.2997V6.03301C18.3333 5.92255 18.2438 5.83301 18.1333 5.83301H15.2Z" stroke="white" stroke-width="1.4" stroke-linecap="round"/>
</svg>
