<svg width="15" height="14" viewBox="0 0 15 14" fill="none" xmlns="http://www.w3.org/2000/svg">
    <path fill-rule="evenodd" clip-rule="evenodd" d="M13.7222 1.64119H10.3606V0.909666C10.3606 0.395409 9.88613 0 9.2928 0H5.49647C4.90305 0 4.42863 0.395409 4.42863 0.909666V1.64119H1.06691C0.730623 1.64119 0.473633 1.89815 0.473633 2.23453C0.473633 2.57054 0.730623 2.82758 1.06691 2.82758H1.79844L2.53019 12.0425C2.5503 13.13 3.41988 14 4.50763 14H10.2619C11.3494 14 12.2194 13.13 12.2393 12.0425L12.9908 2.84761H13.7222C14.0585 2.84761 14.3156 2.59027 14.3156 2.25417C14.3156 1.91815 14.0585 1.64119 13.7222 1.64119ZM5.61508 1.18644H9.17419V1.64119H5.61508V1.18644ZM5.85219 10.8164H5.8321C5.51574 10.8164 5.2587 10.5594 5.23905 10.243L5.02135 5.41817C5.00124 5.08188 5.25867 4.80508 5.59477 4.80508H5.61486C5.93122 4.80508 6.18826 5.06214 6.20791 5.3785L6.42561 10.2033C6.42561 10.5197 6.18825 10.7968 5.85197 10.8164H5.85219ZM9.54988 10.243C9.52977 10.5594 9.27308 10.8164 8.95672 10.8164H8.93663C8.60025 10.7968 8.36322 10.5197 8.36322 10.2033L8.58058 5.3785C8.60069 5.06214 8.85729 4.80508 9.17374 4.80508H9.19383C9.52984 4.82483 9.76724 5.10181 9.76724 5.41817L9.54966 10.243H9.54988Z" fill="#8E91AF"/>
</svg>
