<svg width="14" height="14" viewBox="0 0 14 14" fill="none" xmlns="http://www.w3.org/2000/svg">
    <path fill-rule="evenodd" clip-rule="evenodd" d="M11.0244 11.9791H2.0896V3.41246H7.00041L8.39183 2.02109H1.63948C1.10749 2.02109 0.68457 2.45763 0.68457 2.98962V12.4155C0.68457 12.9476 1.10749 13.384 1.63948 13.384H11.4609C11.9929 13.384 12.4158 12.9476 12.4158 12.4155V5.6905L11.0244 7.06819V11.9791Z" fill="#82BAFF"/>
    <path fill-rule="evenodd" clip-rule="evenodd" d="M13.5482 2.25283L12.0202 0.711444C11.9526 0.657056 11.884 0.616097 11.7884 0.616097C11.7061 0.616097 11.625 0.657056 11.5565 0.711444L5.82735 6.42703C5.77251 6.46798 5.74502 6.53618 5.73195 6.60428L5.39107 8.47321C5.37736 8.58235 5.40473 8.69139 5.48636 8.75958C5.5412 8.81424 5.6229 8.85522 5.691 8.86865C5.71842 8.86865 5.74592 8.86864 5.77335 8.85521L7.65572 8.51416C7.72428 8.50045 7.77846 8.47319 7.81941 8.41853L13.5486 2.70323C13.6711 2.58037 13.6711 2.37568 13.5486 2.25283" fill="#82BAFF"/>
</svg>
