<svg width="36" height="35" viewBox="0 0 36 35" fill="none" xmlns="http://www.w3.org/2000/svg">
    <path fill-rule="evenodd" clip-rule="evenodd" d="M35.6068 30.4128C31.9537 30.2676 28.2708 30.6044 24.7354 31.5285C23.4891 31.8545 22.2793 32.2527 21.0608 32.6635C19.0986 33.3249 17.2432 33.9526 15.1464 34.0179L14.8266 34.0277L14.7692 32.2602L15.0888 32.2502C16.9611 32.1915 18.716 31.5826 20.4684 30.9914C21.7272 30.5666 22.9789 30.1559 24.2664 29.8194C27.9788 28.8497 31.8446 28.4911 35.6804 28.6459L36 28.6587L35.9268 30.4256L35.6068 30.4128ZM25.5994 35L25.1304 33.2918L25.4395 33.2109C27.9894 32.5449 30.6201 32.165 33.256 32.0455L33.5755 32.0311L33.6594 33.798L33.3398 33.8125C30.8337 33.9258 28.3325 34.2865 25.9081 34.9195L25.5994 35ZM7.93708 32.9491C5.50392 32.5702 3.02799 32.5818 0.594607 32.9506L0.278285 32.9987L0 31.2502L0.316323 31.2024C2.93624 30.8057 5.60278 30.7958 8.22203 31.2031C8.63404 31.2674 9.04425 31.3416 9.45107 31.4306L9.76333 31.4989L9.36597 33.225L9.05349 33.156C8.68402 33.0745 8.31129 33.0074 7.93708 32.9491ZM0.136551 25.2296V23.4612H10.746V25.2296H0.136551ZM13.625 25.2296V23.4612H35.9638V25.2296H13.625ZM8.93354 18.8833V18.3112H10.746V19.7678C10.746 20.2559 10.3401 20.6521 9.83971 20.6521H0.136551V18.8833H8.93354ZM11.2792 31.1179V17.7908H11.0124C10.5122 17.7908 10.1063 17.3948 10.1063 16.9066V14.6177C10.1063 14.1296 10.5122 13.7332 11.0124 13.7332H11.2792V12.0509L9.70125 9.99841C9.58355 9.84547 9.5199 9.65902 9.5199 9.46776V2.601C9.5199 2.36668 9.6155 2.14163 9.78533 1.97592L11.5448 0.259144C11.8989 -0.08638 12.4722 -0.08638 12.8263 0.259144L14.5856 1.97592C14.7555 2.14163 14.8512 2.36668 14.8512 2.601L14.8674 4.79305L30.9629 1.56979C31.3632 1.49173 31.7848 1.57882 32.1181 1.80851C32.4525 2.03886 32.6757 2.39699 32.7336 2.79206L32.9435 4.2257C33.0157 4.71889 32.8235 5.20783 32.445 5.52902V14.3057H33.8845C34.3849 14.3057 34.7912 14.7017 34.7912 15.1899V18.8833H35.9638V20.6521H14.5312C14.031 20.6521 13.625 20.2559 13.625 19.7678V18.3112H15.4379V18.8833H17.2935L19.2816 8.21652L14.8512 9.05269V9.46776C14.8512 9.65902 14.7878 9.84547 14.67 9.99841L13.0917 12.0509V13.7332H13.3585C13.8589 13.7332 14.2648 14.1296 14.2648 14.6177V16.9066C14.2648 17.3948 13.8589 17.7908 13.3585 17.7908H13.0917L13.092 31.092C13.8282 31.4159 14.3258 32.1223 14.3258 32.9288C14.3258 34.0594 13.3672 34.9576 12.2159 34.9576C11.0646 34.9576 10.1063 34.059 10.1063 32.9288C10.1063 32.1466 10.5745 31.4544 11.2792 31.1179ZM14.5312 26.8944C15.0316 26.8944 15.4379 27.2906 15.4379 27.7787C15.4379 28.2668 15.0316 28.663 14.5312 28.663C14.031 28.663 13.625 28.2668 13.625 27.7787C13.625 27.2906 14.031 26.8944 14.5312 26.8944ZM19.543 26.6341C19.543 27.1224 19.137 27.5188 18.6367 27.5188C18.1364 27.5188 17.7302 27.1224 17.7302 26.6341C17.7302 26.146 18.1364 25.75 18.6367 25.75C19.137 25.75 19.543 26.146 19.543 26.6341ZM17.1972 30.0675C17.1972 30.5557 16.7909 30.9521 16.2907 30.9521C15.7903 30.9521 15.3844 30.5557 15.3844 30.0675C15.3844 29.5794 15.7903 29.1833 16.2907 29.1833C16.7909 29.1833 17.1972 29.5794 17.1972 30.0675ZM22.4754 28.9234C22.4754 29.4115 22.0691 29.8075 21.5688 29.8075C21.0685 29.8075 20.6626 29.4115 20.6626 28.9234C20.6626 28.4352 21.0685 28.0388 21.5688 28.0388C22.0691 28.0388 22.4754 28.4352 22.4754 28.9234ZM25.4075 26.6341C25.4075 27.1224 25.0016 27.5188 24.5013 27.5188C24.0009 27.5188 23.595 27.1224 23.595 26.6341C23.595 26.146 24.0009 25.75 24.5013 25.75C25.0016 25.75 25.4075 26.146 25.4075 26.6341ZM34.2045 26.6341C34.2045 27.1224 33.7985 27.5188 33.2982 27.5188C32.7979 27.5188 32.392 27.1224 32.392 26.6341C32.392 26.146 32.7979 25.75 33.2982 25.75C33.7985 25.75 34.2045 26.146 34.2045 26.6341ZM30.0993 27.2066C30.0993 27.6947 29.6934 28.0909 29.193 28.0909C28.6928 28.0909 28.2865 27.6947 28.2865 27.2066C28.2865 26.7185 28.6928 26.3221 29.193 26.3221C29.6934 26.3221 30.0993 26.7185 30.0993 27.2066ZM2.53575 26.6341C2.53575 27.1224 2.12948 27.5188 1.6291 27.5188C1.12884 27.5188 0.722927 27.1224 0.722927 26.6341C0.722927 26.146 1.12884 25.75 1.6291 25.75C2.12948 25.75 2.53575 26.146 2.53575 26.6341ZM6.05452 28.9234C6.05452 29.4115 5.64824 29.8075 5.14798 29.8075C4.6476 29.8075 4.24168 29.4115 4.24168 28.9234C4.24168 28.4352 4.6476 28.0388 5.14798 28.0388C5.64824 28.0388 6.05452 28.4352 6.05452 28.9234ZM10.1597 27.7787C10.1597 28.2668 9.75373 28.663 9.25336 28.663C8.75309 28.663 8.34683 28.2668 8.34683 27.7787C8.34683 27.2906 8.75309 26.8944 9.25336 26.8944C9.75373 26.8944 10.1597 27.2906 10.1597 27.7787ZM23.151 7.48545L21.1907 7.85569L21.1034 8.32318L23.6852 10.4818L23.151 7.48545ZM19.89 14.836L19.3209 17.8888L23.3525 16.6785L19.89 14.836ZM20.7281 10.3383L20.3587 12.3215L22.5349 11.8496L20.7281 10.3383ZM25.03 18.0249L22.1712 18.8833H25.1829L25.03 18.0249ZM21.7771 13.8253L24.5435 15.2976L24.1878 13.3025L21.7771 13.8253ZM30.0993 18.8833H32.9783V18.3633H30.0993V18.8833ZM32.9783 16.5945V16.0742H30.0993V16.5945H32.9783ZM30.6325 14.3057V6.07279L24.9311 7.14868L27.0229 18.8833H28.2865V15.1899C28.2865 14.7017 28.6928 14.3057 29.193 14.3057H30.6325ZM11.3324 5.14985H13.0387V2.96721L12.1855 2.13479L11.3324 2.96721V5.14985ZM11.3324 6.91864V9.17245L12.1855 10.2824L13.0387 9.17245V6.91864H11.3324ZM11.919 15.502V16.0223H12.452V15.502H11.919ZM12.2159 33.1888C12.3656 33.1888 12.513 33.0827 12.513 32.9288C12.513 32.7749 12.3656 32.6688 12.2159 32.6688C12.0661 32.6688 11.919 32.7752 11.919 32.9288C11.919 33.0823 12.0661 33.1888 12.2159 33.1888Z" fill="#2E50E9"/>
</svg>
