<svg width="20" height="20" viewBox="0 0 20 20" fill="none" xmlns="http://www.w3.org/2000/svg">
    <path d="M10 11.6667C10 10 11.3133 9.72108 11.7656 9.26996C12.2193 8.81738 12.5 8.19147 12.5 7.5C12.5 6.11929 11.3807 5 10 5C9.25341 5 8.58326 5.32727 8.12517 5.84618C7.91335 6.08612 7.74688 6.36703 7.63916 6.67551" stroke="white" stroke-linecap="round"/>
    <path fill-rule="evenodd" clip-rule="evenodd" d="M9.99984 14.9997C10.4601 14.9997 10.8332 14.6266 10.8332 14.1663C10.8332 13.7061 10.4601 13.333 9.99984 13.333C9.5396 13.333 9.1665 13.7061 9.1665 14.1663C9.1665 14.6266 9.5396 14.9997 9.99984 14.9997Z" fill="white"/>
    <path fill-rule="evenodd" clip-rule="evenodd" d="M9.99984 18.3337C14.6022 18.3337 18.3332 14.6027 18.3332 10.0003C18.3332 5.39795 14.6022 1.66699 9.99984 1.66699C5.39746 1.66699 1.6665 5.39795 1.6665 10.0003C1.6665 14.6027 5.39746 18.3337 9.99984 18.3337Z" stroke="white" stroke-width="1.4"/>
</svg>
