<svg width="17" height="14" viewBox="0 0 17 14" fill="none" xmlns="http://www.w3.org/2000/svg">
    <path fill-rule="evenodd" clip-rule="evenodd" d="M5.53548 11.0045C5.65778 11.1193 5.72938 11.2799 5.73432 11.448C5.74346 11.6191 5.67582 11.7823 5.56092 11.9046C5.44611 12.0295 5.28545 12.1009 5.11471 12.1059C4.94652 12.1114 4.78332 12.0474 4.66102 11.9326C4.38305 11.6724 4.13068 11.3896 3.90371 11.0861C3.80161 10.9511 3.75573 10.7827 3.78142 10.6145C3.80427 10.4461 3.89356 10.2959 4.02857 10.1938C4.16386 10.0917 4.33199 10.0483 4.50045 10.0714C4.66864 10.0942 4.81917 10.1836 4.921 10.3186C5.10464 10.5635 5.31116 10.7928 5.53548 11.0045Z" fill="#82BAFF"/>
    <path fill-rule="evenodd" clip-rule="evenodd" d="M12.3454 8.25546C12.4856 8.34979 12.585 8.4951 12.6182 8.661C12.6511 8.82681 12.6183 9.00013 12.5214 9.14035C12.4297 9.28048 12.2817 9.38004 12.1161 9.41323C11.9503 9.44632 11.7796 9.4105 11.6391 9.31626L8.88606 7.48175C8.76896 7.40351 8.67383 7.22604 8.67383 7.08536V3.4265C8.67383 3.25812 8.7424 3.09512 8.86251 2.97766C8.97988 2.85773 9.1431 2.78909 9.31129 2.78909C9.48232 2.78909 9.64262 2.85773 9.76264 2.97766C9.88229 3.09512 9.94876 3.25812 9.94876 3.4265V6.40444C9.94876 6.54539 10.0438 6.72263 10.161 6.8006L12.3454 8.25546Z" fill="#82BAFF"/>
    <path fill-rule="evenodd" clip-rule="evenodd" d="M2.59107 6.08744C2.71831 4.7857 3.40448 3.32115 4.5202 2.20781C5.79013 0.9356 7.51618 0.221717 9.31106 0.221717C11.1087 0.221717 12.8349 0.9356 14.1046 2.20781C15.3768 3.47764 16.0909 5.20391 16.0909 7.00134C16.0909 8.7964 15.3768 10.5223 14.1046 11.7948C12.8349 13.0645 11.1087 13.7783 9.31106 13.7783C8.40594 13.781 7.5059 13.5974 6.66971 13.243C6.51404 13.1792 6.39174 13.0543 6.32793 12.8963C6.26395 12.7405 6.26669 12.5646 6.32793 12.4092C6.39375 12.2537 6.51914 12.1288 6.67718 12.0677C6.83267 12.0039 7.00859 12.0038 7.16435 12.0695C7.84241 12.3576 8.57157 12.5056 9.30849 12.503C10.7696 12.503 12.1693 11.9244 13.2018 10.8916C14.232 9.85909 14.8131 8.45939 14.8131 7.0009C14.8131 5.53975 14.232 4.14003 13.2018 3.10749C12.1693 2.07733 10.7696 1.49614 9.30849 1.49614C7.85018 1.49614 6.45019 2.07733 5.41765 3.10749C4.53639 3.98875 3.98575 5.13764 3.87259 6.11031C3.85613 6.24998 3.92385 6.28257 4.02367 6.1834L4.55067 5.65707C4.66803 5.53741 4.83126 5.46849 4.99945 5.46849C5.17019 5.46849 5.33089 5.53741 5.4509 5.65707C5.57056 5.77443 5.63691 5.93771 5.63691 6.1059C5.63691 6.27665 5.57019 6.43723 5.4509 6.55725L3.57489 8.43505C3.37617 8.63423 3.05301 8.63421 2.85429 8.43522L0.976045 6.55725C0.856393 6.43723 0.790039 6.27665 0.790039 6.1059C0.790039 5.93771 0.856758 5.77443 0.976045 5.65707C1.09606 5.53741 1.25902 5.46849 1.42739 5.46849C1.59558 5.46849 1.75881 5.53741 1.87874 5.65707L2.38297 6.16086C2.48279 6.26012 2.57468 6.22693 2.5884 6.08699" fill="#82BAFF"/>
</svg>
