<svg width="11" height="7" viewBox="0 0 11 7" fill="none" xmlns="http://www.w3.org/2000/svg">
    <path d="M10.824 6.00357L10.4639 6.36889C10.3503 6.48287 10.1995 6.54583 10.0382 6.54583C9.87725 6.54583 9.72618 6.48287 9.61251 6.36889L5.50255 2.23098L1.38745 6.37353C1.27415 6.48751 1.12312 6.55005 0.96179 6.55005C0.800824 6.55005 0.649745 6.48751 0.536445 6.37353L0.176 6.01045C-0.0586666 5.77443 -0.0586666 5.38991 0.176 5.15388L5.07542 0.204234C5.18872 0.0902519 5.3394 0.0100489 5.5022 0.0100489H5.50403C5.665 0.0100489 5.81608 0.0902519 5.92938 0.204234L10.824 5.14044C10.9377 5.25442 10.9996 5.41098 11 5.57294C11 5.73528 10.9377 5.88958 10.824 6.00357Z" fill="white"/>
</svg>
