<svg width="12" height="12" viewBox="0 0 12 12" fill="none" xmlns="http://www.w3.org/2000/svg">
    <path fill-rule="evenodd" clip-rule="evenodd" d="M1.5678 1.56788V9.95214H9.95205V7.4546C9.95205 6.37594 11.52 6.36442 11.52 7.4546V10.7021C11.52 11.1825 11.1824 11.52 10.7021 11.52H0.8178C0.337416 11.52 0 11.1825 0 10.7021V0.817922C0 0.337538 0.337416 0 0.8178 0H4.19205C5.27109 0 5.28261 1.56788 4.19205 1.56788H1.5678ZM9.9525 2.69491L8.40915 4.21171C7.9783 4.64333 6.67086 6.17165 6.0987 6.17165C5.50312 6.17165 5.34825 5.80263 5.34825 5.28615C5.34825 4.88295 6.98612 3.43258 7.34055 3.07853L8.8254 1.56749C8.48057 1.56711 8.13658 1.56711 7.79175 1.56788C7.16007 1.56941 6.3639 1.63469 6.3639 0.749953C6.3639 0.311809 6.76107 0 7.18155 0H10.7021C11.1824 0 11.52 0.337538 11.52 0.817922V4.33843C11.52 4.81843 11.1824 5.15597 10.7021 5.15597C9.86762 5.15597 9.95128 4.23706 9.95205 3.66106C9.95243 3.33888 9.9525 3.0167 9.9525 2.69491Z" fill="#82BAFF"/>
</svg>
