<svg width="52" height="52" viewBox="0 0 52 52" fill="none" xmlns="http://www.w3.org/2000/svg">
    <path fill-rule="evenodd" clip-rule="evenodd" d="M48.5117 7.06482L51.9898 5.80432V46.5299L38.233 51.5163L14.6768 44.6619L0.241882 48.4821V7.8157L14.6995 3.9895L27.5889 7.7403C28.1266 6.0526 29.0646 4.51741 30.3186 3.26331C32.4075 1.17451 35.2155 0.0111084 38.17 0.0111084C41.1246 0.0111084 43.9326 1.17451 46.0214 3.26331C47.104 4.34591 47.9538 5.64102 48.5117 7.06482ZM39.4136 22.1494V33.6711C41.8364 33.5898 42.8214 32.7997 43.8359 30.6137C44.1906 29.8492 44.5565 29.0515 45.126 28.4199C46.369 27.042 48.2157 27.0077 49.9228 27.2844V8.7475L49.082 9.05222C49.2099 9.73202 49.2736 10.4228 49.2736 11.1147C49.2736 14.0693 48.1103 16.8773 46.0214 18.9661C44.2387 20.7488 41.9143 21.8705 39.4136 22.1494ZM15.6009 18.8643C17.9023 20.1397 20.2625 21.2372 22.6577 22.3218C23.2371 22.584 23.8168 22.8462 24.3934 23.1143C26.1001 23.9086 28.5433 25.39 29.3183 27.2101C29.5683 27.7974 29.6483 28.4429 29.4124 29.0484C29.1666 29.6788 28.6578 30.0918 28.03 30.318C26.3116 30.9374 23.6859 30.0958 22.0911 29.4359C21.2495 29.0878 20.0734 28.679 19.1544 28.7077C18.9659 28.7133 18.6626 28.7442 18.5172 28.8808C18.3675 29.0214 18.3516 29.348 18.3553 29.541V29.5388C18.3774 30.7058 19.1487 32.3527 19.6666 33.3729C19.82 33.6754 19.9841 33.971 20.1496 34.267C20.5045 34.9016 20.9603 35.6724 21.0247 36.408C21.1985 38.3894 19.0566 38.7327 17.5375 38.8656C16.8955 38.922 16.2463 38.9495 15.6009 38.9764V42.7839L25.8609 45.7694C26.1923 45.1832 26.6007 44.5766 27.1033 44.1423C27.6019 43.712 28.1346 43.4861 28.7922 43.4597C29.4413 43.4336 30.0766 43.4458 30.711 43.5997C31.2813 43.7381 31.802 43.979 32.3307 44.2285C32.3483 44.2367 32.3763 44.2492 32.4083 44.2622V44.2591C32.3389 43.2851 31.459 41.8168 30.9451 41.018C30.277 39.9796 29.665 38.731 29.466 37.5058C29.3296 36.6671 29.3846 35.8042 29.7974 35.0471C30.2702 34.1799 31.0746 33.6782 32.0101 33.4239C33.3364 33.0634 34.9417 33.2003 36.2799 33.4228C36.6342 33.4815 36.9897 33.5328 37.3466 33.5739V22.1883C34.6911 21.9932 32.206 20.8534 30.3186 18.9661C28.2298 16.8773 27.0665 14.0693 27.0665 11.1147C27.0665 10.6617 27.094 10.209 27.1487 9.75952L15.6009 6.39902V18.8643ZM3.33276 9.1322C6.26496 12.5323 9.71157 15.3222 13.5339 17.661V6.43271L3.33276 9.1322ZM13.5339 39.0708C9.67757 39.2814 5.74787 39.8138 2.30887 41.6801V45.8003L13.5305 42.8307V42.3355L13.5339 42.3344V39.0708ZM2.30887 39.3671C5.83857 37.7125 9.67387 37.209 13.5339 37.0049V20.0674C9.33857 17.6299 5.54977 14.7054 2.30887 11.0949V39.3671ZM15.6009 36.9117C16.1874 36.8865 16.775 36.8578 17.3595 36.8065C17.5931 36.7861 18.8205 36.6716 18.9656 36.586C18.939 36.2832 18.503 35.5474 18.3479 35.2704C18.1691 34.9507 17.9908 34.6306 17.8247 34.3038C17.1429 32.9602 16.3243 31.1089 16.294 29.5762C16.2778 28.7519 16.487 27.9565 17.1035 27.3779C17.6481 26.8666 18.363 26.669 19.096 26.6463C20.3288 26.6083 21.747 27.0621 22.8763 27.5293C23.9157 27.9593 26.1988 28.7867 27.3338 28.378C27.3709 28.3647 27.4704 28.3238 27.4891 28.3046C27.5072 28.2439 27.4437 28.0721 27.4205 28.0174L27.3981 27.9636C26.8215 26.7058 24.693 25.5303 23.5271 24.988C22.9562 24.7224 22.3825 24.4631 21.809 24.2034C19.7108 23.2538 17.6347 22.294 15.6009 21.2151V36.9117ZM27.9072 46.3649L37.3432 49.1106V48.8983L37.3466 48.8971V35.6525C36.8763 35.6021 36.4075 35.5363 35.9409 35.4586C34.9201 35.2891 33.566 35.1426 32.5515 35.4184C32.1943 35.5156 31.7935 35.6922 31.6076 36.0335C31.4264 36.3654 31.4434 36.813 31.5024 37.1745C31.6546 38.1102 32.1728 39.1119 32.6816 39.9028C33.4129 41.0392 34.3699 42.7332 34.468 44.1134C34.5029 44.6007 34.4314 45.1038 34.1749 45.527C33.9053 45.9721 33.4923 46.251 32.9826 46.3448C32.4631 46.4406 31.9214 46.3176 31.4497 46.0948C31.0661 45.914 30.6387 45.7039 30.226 45.6038C29.792 45.4987 29.3166 45.5026 28.8733 45.5205C28.7046 45.5273 28.577 45.5993 28.4503 45.7076C28.2485 45.8802 28.0648 46.1231 27.9072 46.3649ZM39.4136 35.7543V48.894L49.9228 45.0848V29.3812C48.7557 29.1694 47.369 29.0926 46.5252 30.0618C46.1723 30.4674 45.9344 30.9949 45.7096 31.4794C45.2062 32.5642 44.7152 33.579 43.7858 34.3741C42.57 35.4147 40.9732 35.7251 39.4136 35.7543ZM44.5599 4.72482C42.8597 3.02462 40.575 2.07809 38.17 2.07809C35.7651 2.07809 33.4804 3.02462 31.7802 4.72482C30.08 6.42512 29.1335 8.70982 29.1335 11.1147C29.1335 13.5196 30.08 15.8043 31.7802 17.5046C33.4804 19.2048 35.7651 20.1513 38.17 20.1513C40.575 20.1513 42.8597 19.2048 44.5599 17.5046C46.2601 15.8043 47.2066 13.5196 47.2066 11.1147C47.2066 8.70982 46.2601 6.42512 44.5599 4.72482ZM40.4053 14.2278L33.3269 16.5C33.0812 16.5953 32.8141 16.5922 32.5698 16.4932C32.0434 16.2803 31.7869 15.6746 32 15.1485L34.778 8.2886C34.8911 8.0091 35.1218 7.7951 35.4073 7.6987L42.8213 5.19229C43.0705 5.10079 43.3448 5.109 43.5883 5.215C44.1076 5.4415 44.348 6.05291 44.1218 6.57251L41.0357 13.6577C40.9173 13.9299 40.6879 14.1371 40.4053 14.2278ZM34.7423 13.88L39.3307 12.4065L41.3011 7.883L36.5156 9.5007L34.7423 13.88Z" fill="#3366FF"/>
</svg>
