<svg width="40" height="67" viewBox="0 0 40 67" fill="none" xmlns="http://www.w3.org/2000/svg">
<path fill-rule="evenodd" clip-rule="evenodd" d="M33.1581 0H6.9111C1.67603 0 0 1.68888 0 7.03779V59.9622C0 65.241 1.67603 67 6.9111 67H33.0884C38.3247 67 40 65.3111 40 59.9622V7.03779C40 1.75982 38.3248 0 33.1581 0ZM15.7762 2.81509H24.2236C24.5718 2.81509 24.8509 3.16737 24.8509 3.5898C24.8509 4.01143 24.5718 4.36378 24.2236 4.36378H15.7762C15.4279 4.36378 15.1486 4.01143 15.1486 3.5898C15.1486 3.16737 15.4279 2.81509 15.7762 2.81509ZM12.9838 2.67487C13.4724 2.67487 13.8914 3.09604 13.8914 3.5898C13.8914 4.08237 13.4724 4.50364 12.9838 4.50364C12.4953 4.50364 12.0762 4.08237 12.0762 3.5898C12.0762 3.09604 12.4261 2.67487 12.9838 2.67487ZM20.4542 64.6783C18.9181 64.6783 17.6618 63.4111 17.6618 61.8632C17.6618 60.3146 18.9181 59.0473 20.4542 59.0473C21.989 59.0473 23.2465 60.3146 23.2465 61.8632C23.2465 63.4111 21.989 64.6783 20.4542 64.6783ZM36.8578 54.4029C36.8578 55.3179 36.1598 56.0918 35.323 56.0918H4.74749C3.9095 56.0918 3.2114 55.3179 3.2114 54.4029V8.30518C3.2114 7.39018 3.9095 6.61505 4.74749 6.61505H35.323C36.1598 6.61505 36.8578 7.39018 36.8578 8.30518V54.4029Z" fill="white"/>
</svg>
