<svg width="21" height="19" viewBox="0 0 21 19" fill="none" xmlns="http://www.w3.org/2000/svg">
<path fill-rule="evenodd" clip-rule="evenodd" d="M8.39994 8.11703H9.09996C9.51989 8.11703 9.79989 7.84495 9.79989 7.43684H16.1C16.52 7.43684 16.7999 7.70891 16.7999 8.11703V11.5179C16.38 11.5179 16.1 11.79 16.1 12.1981V12.8783H12.25C10.92 12.8783 9.79989 13.9666 9.79989 15.2589C9.79989 16.5513 10.9199 17.6396 12.25 17.6396H12.6V19H13.9999V17.6396H16.7999V18.3198V19H18.1999V17.6396H18.55C19.88 17.6396 21 16.5513 21 15.2589C21 14.0346 20.0899 13.0823 18.9 12.9463V12.1981C18.9 11.79 18.6199 11.5179 18.1999 11.5179V8.11703C18.1999 6.9607 17.29 6.07643 16.1 6.07643H9.79989C9.79989 5.66837 9.51989 5.3963 9.09996 5.3963H8.39994V4.71609C8.39994 3.96788 7.76993 3.35579 6.99992 3.35579H6.29999V2.67559C6.29999 1.92738 5.66997 1.31519 4.89995 1.31519H3.4999C2.72997 1.31519 2.09988 1.92738 2.09988 2.67559V3.35571L1.39995 3.35579C0.629938 3.35579 0 3.96788 0 4.71609V19H8.39994V8.11703ZM15.6548 0C13.8426 0 12.1989 0.894682 10.9862 2.34787C10.8872 2.46688 10.8872 2.63325 10.9862 2.75256C12.1989 4.20759 13.8426 5.10217 15.6548 5.10217C17.4672 5.10217 19.1104 4.2076 20.3231 2.75447C20.4222 2.63546 20.4222 2.46856 20.3231 2.34978C19.1104 0.894691 17.4672 0 15.6548 0ZM15.7848 4.34736C14.5819 4.41584 13.5883 3.52107 13.6641 2.43358C13.726 1.53726 14.5313 0.810642 15.5247 0.75493C16.7278 0.686455 17.7211 1.58097 17.6455 2.66851C17.5814 3.56319 16.7761 4.2899 15.7848 4.34736ZM15.7245 3.5176C15.0766 3.55438 14.5411 3.07284 14.5838 2.48809C14.6168 2.00474 15.0514 1.61432 15.587 1.58284C16.235 1.54606 16.7704 2.02761 16.7278 2.61236C16.6929 3.09708 16.2581 3.48802 15.7245 3.5176Z" fill="#999DC0"/>
</svg>
