<svg width="29" height="29" viewBox="0 0 48 45" fill="none" xmlns="http://www.w3.org/2000/svg">
<path fill-rule="evenodd" clip-rule="evenodd" d="M19.1999 18.9041H20.7999C21.7597 18.9041 22.3997 18.2705 22.3997 17.32H36.7999C37.7599 17.32 38.3998 17.9536 38.3998 18.9041V26.8247C37.4399 26.8247 36.7999 27.4584 36.7999 28.4087V29.9928H27.9999C24.96 29.9928 22.3997 32.5275 22.3997 35.5371C22.3997 38.5472 24.9598 41.0817 27.9999 41.0817H28.7999V44.25H31.9998V41.0817H38.3998V42.6659V44.25H41.5997V41.0817H42.4001C45.4399 41.0817 48 38.5472 48 35.5371C48 32.6859 45.9198 30.4681 43.1999 30.1512V28.4087C43.1999 27.4584 42.5599 26.8247 41.5997 26.8247V18.9041C41.5997 16.2111 39.5199 14.1517 36.8001 14.1517H22.3997C22.3997 13.2013 21.7597 12.5677 20.7999 12.5677H19.1999V10.9835C19.1999 9.24097 17.7598 7.81545 15.9998 7.81545H14.4V6.23132C14.4 4.48876 12.9599 3.06301 11.1999 3.06301H7.99977C6.23992 3.06301 4.79972 4.48876 4.79972 6.23132V7.81526L3.19989 7.81545C1.43986 7.81545 0 9.24097 0 10.9835L0 44.25H19.1999V18.9041ZM35.7824 0C31.6401 0 27.8832 2.08366 25.1114 5.46806C24.8849 5.74524 24.8849 6.13269 25.1114 6.41055C27.8832 9.79926 31.6401 11.8827 35.7824 11.8827C39.9249 11.8827 43.681 9.79929 46.4529 6.41501C46.6792 6.13784 46.6792 5.74914 46.4529 5.47252C43.681 2.08369 39.9249 0 35.7824 0ZM36.0795 10.1248C33.3301 10.2842 31.0591 8.20038 31.2323 5.66769C31.3737 3.5802 33.2144 1.88794 35.4851 1.75819C38.2349 1.59871 40.5054 3.682 40.3325 6.21481C40.1861 8.29849 38.3454 9.99096 36.0795 10.1248ZM35.9418 8.1923C34.4609 8.27797 33.2368 7.15649 33.3344 5.79464C33.4098 4.66894 34.4032 3.75966 35.6273 3.68636C37.1087 3.60069 38.3324 4.7222 38.235 6.08406C38.1552 7.21294 37.1614 8.12342 35.9418 8.1923Z" fill="#3366FF"/>
</svg>