<svg width="14" height="18" viewBox="0 0 14 18" fill="none" xmlns="http://www.w3.org/2000/svg">
    <path d="M12.5443 5.3734L8.93933 1.79071C8.75197 1.60451 8.49855 1.5 8.23441 1.5L2.10023 1.50002C1.54794 1.50002 1.10023 1.94773 1.10023 2.50002L1.10023 15.5C1.10023 16.0523 1.54795 16.5 2.10023 16.5H11.8394C12.3916 16.5 12.8394 16.0523 12.8394 15.5L12.8394 6.0827C12.8394 5.81641 12.7331 5.56111 12.5443 5.3734Z" stroke="white" stroke-width="1.4" stroke-linecap="round" stroke-linejoin="round"/>
    <path d="M7.90674 1.5V5.51961C7.90674 6.07189 8.35445 6.51961 8.90674 6.51961H12.8391" stroke="white" stroke-width="1.4" stroke-linejoin="round"/>
    <path d="M3.23505 12.02C3.52838 12.02 3.76705 12.1147 3.95105 12.304C4.13505 12.4907 4.22705 12.7347 4.22705 13.036C4.22705 13.0947 4.22438 13.148 4.21905 13.196H2.87505C2.87505 13.3053 2.91238 13.3987 2.98705 13.476C3.06171 13.5507 3.15371 13.588 3.26305 13.588C3.41238 13.588 3.51771 13.528 3.57905 13.408H4.20305C4.13638 13.608 4.02438 13.768 3.86705 13.888C3.70971 14.008 3.50438 14.068 3.25105 14.068C2.96571 14.068 2.72305 13.9733 2.52305 13.784C2.32571 13.5947 2.22705 13.3453 2.22705 13.036C2.22705 12.7427 2.31505 12.5 2.49105 12.308C2.66971 12.116 2.91771 12.02 3.23505 12.02ZM3.22705 12.456C3.12838 12.456 3.04838 12.4867 2.98705 12.548C2.92571 12.6067 2.88971 12.68 2.87905 12.768H3.57505C3.56438 12.6773 3.52705 12.6027 3.46305 12.544C3.40171 12.4853 3.32305 12.456 3.22705 12.456ZM4.29055 14L4.97855 13.044L4.32655 12.084H5.07055L5.25855 12.424C5.29055 12.4827 5.31988 12.552 5.34655 12.632H5.36255C5.39988 12.52 5.42388 12.4533 5.43455 12.432L5.60655 12.084H6.34655L5.69855 13.032L6.36655 14H5.59455L5.41055 13.66C5.36521 13.572 5.33988 13.5 5.33455 13.444H5.31855C5.30255 13.5027 5.27321 13.576 5.23055 13.664L5.04655 14H4.29055ZM7.43483 12.02C7.69083 12.02 7.90149 12.0987 8.06683 12.256C8.23216 12.4107 8.33083 12.5933 8.36283 12.804H7.71083C7.69749 12.7373 7.66416 12.684 7.61083 12.644C7.56016 12.604 7.49883 12.584 7.42683 12.584C7.30949 12.584 7.22283 12.6267 7.16683 12.712C7.11349 12.7973 7.08683 12.9067 7.08683 13.04C7.08683 13.1733 7.11616 13.284 7.17483 13.372C7.23349 13.4573 7.32149 13.5 7.43883 13.5C7.51349 13.5 7.57616 13.4787 7.62683 13.436C7.68016 13.3907 7.71616 13.3333 7.73483 13.264H8.39883C8.34016 13.5067 8.22816 13.7013 8.06283 13.848C7.90016 13.9947 7.68816 14.068 7.42683 14.068C7.14149 14.068 6.89883 13.9733 6.69883 13.784C6.50149 13.5947 6.40283 13.3453 6.40283 13.036C6.40283 12.748 6.49616 12.5067 6.68283 12.312C6.86949 12.1173 7.12016 12.02 7.43483 12.02ZM9.62177 12.02C9.9151 12.02 10.1538 12.1147 10.3378 12.304C10.5218 12.4907 10.6138 12.7347 10.6138 13.036C10.6138 13.0947 10.6111 13.148 10.6058 13.196H9.26177C9.26177 13.3053 9.2991 13.3987 9.37377 13.476C9.44843 13.5507 9.54043 13.588 9.64977 13.588C9.7991 13.588 9.90443 13.528 9.96577 13.408H10.5898C10.5231 13.608 10.4111 13.768 10.2538 13.888C10.0964 14.008 9.8911 14.068 9.63777 14.068C9.35243 14.068 9.10977 13.9733 8.90977 13.784C8.71243 13.5947 8.61377 13.3453 8.61377 13.036C8.61377 12.7427 8.70177 12.5 8.87777 12.308C9.05643 12.116 9.30443 12.02 9.62177 12.02ZM9.61377 12.456C9.5151 12.456 9.4351 12.4867 9.37377 12.548C9.31243 12.6067 9.27643 12.68 9.26577 12.768H9.96177C9.9511 12.6773 9.91377 12.6027 9.84977 12.544C9.78843 12.4853 9.70977 12.456 9.61377 12.456ZM10.9683 14V11.12H11.6443V14H10.9683Z" fill="white"/>
</svg>
