<svg width="10" height="10" viewBox="0 0 10 10" fill="none" xmlns="http://www.w3.org/2000/svg">
<path fill-rule="evenodd" clip-rule="evenodd" d="M8.58133 4.77926H5.57532V1.50664C5.57532 1.16877 5.32374 0.89467 5.01346 0.89467C4.70284 0.89467 4.4516 1.16877 4.4516 1.50664V4.77926H1.44565C1.13503 4.77926 0.883789 5.05294 0.883789 5.39082C0.883789 5.72869 1.13503 6.00244 1.44565 6.00244H4.4516V9.27499C4.4516 9.61321 4.70284 9.88696 5.01346 9.88696C5.32374 9.88696 5.57532 9.61321 5.57532 9.27499V6.00244H8.58133C8.89162 6.00244 9.14327 5.72869 9.14327 5.39082C9.14327 5.05294 8.89162 4.77926 8.58133 4.77926Z" fill="white"/>
</svg>
