<svg width="29" height="29" viewBox="0 0 51 48" fill="none" xmlns="http://www.w3.org/2000/svg">
<path fill-rule="evenodd" clip-rule="evenodd" d="M3.30976 40.4257V32.1515L2.54595 30.9421C2.22774 30.4329 2.35501 29.7964 2.86423 29.4782L32.3336 9.61972L31.4425 3.31849C31.3789 2.93664 31.5698 2.55478 31.888 2.30014L34.8795 0.199764C35.1978 -0.0548286 35.5797 -0.0548286 35.9615 0.136082C50.9827 7.20104 50.0915 18.9124 50.0915 19.4217C50.028 19.8035 49.8369 20.1218 49.5187 20.2491L47.1001 21.522C46.2092 22.1903 45.5056 22.0733 44.936 21.3948L37.8074 15.2845L29.9786 19.7399C30.2968 20.3764 30.4241 21.0766 30.4241 21.8403C30.4241 22.0312 30.4241 22.2222 30.3604 22.4131L36.4707 45.8358H39.4622C40.0351 45.8358 40.5442 46.3451 40.5442 46.9179C40.5442 47.4908 40.0351 47.9999 39.4622 47.9999L11.2022 48C10.6294 48 10.1202 47.4908 10.1202 46.918C10.1202 46.3451 10.6294 45.8359 11.2022 45.8359L14.2573 45.8358L19.9221 25.8501L5.91937 34.4428C5.72846 34.57 5.5374 34.57 5.34646 34.57V40.4257H7.44692C8.01972 40.4257 8.52895 40.9349 8.52895 41.5077V46.2814C8.52895 46.8543 8.01972 47.3634 7.44692 47.3634H1.08203C0.50923 47.3634 0 46.8543 0 46.2814L0 41.5077C0 40.9349 0.50923 40.4257 1.08203 40.4257H3.30976ZM25.3959 18.5306C23.6137 18.5306 22.1498 19.9945 22.1498 21.7767C22.1498 23.5588 23.6137 25.0227 25.3959 25.0227C27.178 25.0227 28.642 23.5588 28.642 21.7767C28.642 19.9945 27.178 18.5306 25.3959 18.5306ZM22.4681 36.2885L25.3959 38.9618L28.5147 36.0976L25.5868 28.9689L22.4681 36.2885ZM29.4058 38.1981L26.9871 40.4257L32.2063 45.263L29.4058 38.1981ZM29.724 45.8358L25.3959 41.826L21.0677 45.8358H29.724ZM18.6491 45.1358L23.8046 40.4257L21.5769 38.3889L18.6491 45.1358Z" fill="#3366FF"/>
</svg>