<svg width="23" height="22" viewBox="0 0 23 22" fill="none" xmlns="http://www.w3.org/2000/svg">
<path fill-rule="evenodd" clip-rule="evenodd" d="M1.51211 18.4693V14.689L1.16315 14.1365C1.01778 13.9039 1.07592 13.6131 1.30857 13.4677L14.7721 4.39507L14.365 1.51626C14.3359 1.3418 14.4232 1.16735 14.5685 1.05101L15.9352 0.0914211C16.0806 -0.0248928 16.2551 -0.0248928 16.4296 0.0623264C23.2922 3.29006 22.8851 8.64059 22.8851 8.87323C22.856 9.04769 22.7688 9.19312 22.6234 9.25125L21.5184 9.83283C21.1114 10.1381 20.7899 10.0847 20.5297 9.77468L17.2729 6.9831L13.6962 9.01865C13.8415 9.30944 13.8997 9.62932 13.8997 9.97823C13.8997 10.0655 13.8997 10.1527 13.8706 10.2399L16.6622 20.941H18.0289C18.2907 20.941 18.5233 21.1736 18.5233 21.4353C18.5233 21.697 18.2907 21.9296 18.0289 21.9296L5.11788 21.9297C4.85618 21.9297 4.62356 21.697 4.62356 21.4353C4.62356 21.1736 4.85618 20.941 5.11788 20.941L6.51366 20.941L9.1017 11.8102L2.70435 15.7359C2.61713 15.794 2.52985 15.794 2.44261 15.794V18.4693H3.40224C3.66393 18.4693 3.89658 18.7019 3.89658 18.9636V21.1445C3.89658 21.4063 3.66393 21.6389 3.40224 21.6389H0.494343C0.232649 21.6389 0 21.4063 0 21.1445L0 18.9636C0 18.7019 0.232649 18.4693 0.494343 18.4693H1.51211ZM11.6025 8.46614C10.7883 8.46614 10.1195 9.13493 10.1195 9.94915C10.1195 10.7634 10.7883 11.4322 11.6025 11.4322C12.4167 11.4322 13.0855 10.7634 13.0855 9.94915C13.0855 9.13493 12.4167 8.46614 11.6025 8.46614ZM10.2649 16.5791L11.6025 17.8005L13.0274 16.4919L11.6897 13.2351L10.2649 16.5791ZM13.4345 17.4515L12.3295 18.4693L14.7139 20.6793L13.4345 17.4515ZM13.5799 20.941L11.6025 19.109L9.62511 20.941H13.5799ZM8.52012 20.6211L10.8755 18.4693L9.85773 17.5387L8.52012 20.6211Z" fill="#999DC0"/>
<path fill-rule="evenodd" clip-rule="evenodd" d="M5.3264 6.8418C2.69867 6.8418 0.570312 3.66707 0.570312 3.66707C0.570312 3.66707 2.69867 0.492361 5.3264 0.492361C7.95418 0.492361 10.0825 3.66707 10.0825 3.66707C10.0825 3.66707 7.95418 6.8418 5.3264 6.8418ZM5.3264 1.68138C4.2325 1.68138 3.34075 2.5732 3.34075 3.66707C3.34075 4.76097 4.2325 5.65276 5.3264 5.65276C6.42034 5.65276 7.31208 4.76097 7.31208 3.66707C7.31208 2.5732 6.42034 1.68138 5.3264 1.68138ZM5.3264 4.85611C4.67246 4.85611 4.13736 4.32106 4.13736 3.66707C4.13736 3.01309 4.67246 2.47806 5.3264 2.47806C5.98038 2.47806 6.51544 3.01309 6.51544 3.66707C6.51544 4.32106 5.98038 4.85611 5.3264 4.85611Z" fill="#999DC0"/>
</svg>
