<svg width="72" height="70" viewBox="0 0 72 70" fill="#3366ff" xmlns="http://www.w3.org/2000/svg">
<path d="M2 68H70" fill="#3366ff" stroke="#3366ff" stroke-width="3" stroke-linecap="round"/>
<path d="M14.591 62.1319L3.5914 62.212C3.31527 62.214 3.08907 61.9918 3.08618 61.7157L2.91417 45.2739C2.91128 44.9978 3.13279 44.7723 3.40892 44.7703L14.4085 44.6902C14.6846 44.6882 14.9108 44.9104 14.9137 45.1865L15.0857 61.6283C15.0886 61.9045 14.8671 62.1299 14.591 62.1319Z" stroke="#3366ff" stroke-width="3"/>
<path d="M32.6399 62.1316L21.6403 62.2117C21.3642 62.2137 21.138 61.9915 21.1351 61.7154L20.8655 35.9443C20.8626 35.6682 21.0841 35.4427 21.3602 35.4407L32.3598 35.3606C32.6359 35.3586 32.8621 35.5808 32.865 35.857L33.1346 61.628C33.1375 61.9042 32.916 62.1296 32.6399 62.1316Z" stroke="#3366ff" stroke-width="3"/>
<path d="M50.6229 62.1323L39.6233 62.2123C39.3472 62.2144 39.121 61.9921 39.1181 61.716L38.8824 39.1899C38.8795 38.9138 39.101 38.6883 39.3772 38.6863L50.3768 38.6062C50.6529 38.6042 50.8791 38.8264 50.882 39.1026L51.1176 61.6287C51.1205 61.9048 50.899 62.1303 50.6229 62.1323Z" stroke="#3366ff" stroke-width="3"/>
<path d="M68.6992 62.1321L57.6997 62.2122C57.4235 62.2142 57.1973 61.992 57.1945 61.7159L56.806 24.5874C56.8031 24.3112 57.0246 24.0858 57.3008 24.0838L68.3003 24.0037C68.5765 24.0017 68.8027 24.2239 68.8056 24.5L69.194 61.6285C69.1969 61.9046 68.9754 62.1301 68.6992 62.1321Z" stroke="#3366ff" stroke-width="3"/>
<path d="M12.6133 27.3169L22.4223 21.2915" fill="#3366ff" stroke="#3366ff" stroke-width="3"/>
<path d="M50 19.6569L60.5 9.72607" fill="#3366ff" stroke="#3366ff" stroke-width="3"/>
<path d="M32.5 19.8872L40.5 21.9348" fill="#3366ff" stroke="#3366ff" stroke-width="3"/>
<path d="M12.5 30.1506C12.5 32.506 10.5248 34.4862 8 34.4862C5.47517 34.4862 3.5 32.506 3.5 30.1506C3.5 27.7951 5.47517 25.8149 8 25.8149C10.5248 25.8149 12.5 27.7951 12.5 30.1506Z" stroke="#3366ff" stroke-width="3"/>
<path d="M31.5 18.4797C31.5 20.8351 29.5248 22.8153 27 22.8153C24.4752 22.8153 22.5 20.8351 22.5 18.4797C22.5 16.1242 24.4752 14.144 27 14.144C29.5248 14.144 31.5 16.1242 31.5 18.4797Z" stroke="#3366ff" stroke-width="3"/>
<path d="M50.5 23.3425C50.5 25.6979 48.5248 27.6781 46 27.6781C43.4752 27.6781 41.5 25.6979 41.5 23.3425C41.5 20.987 43.4752 19.0068 46 19.0068C48.5248 19.0068 50.5 20.987 50.5 23.3425Z" stroke="#3366ff" stroke-width="3"/>
<path d="M68.5 5.83562C68.5 8.1911 66.5248 10.1712 64 10.1712C61.4752 10.1712 59.5 8.1911 59.5 5.83562C59.5 3.48013 61.4752 1.5 64 1.5C66.5248 1.5 68.5 3.48013 68.5 5.83562Z" stroke="#3366ff" stroke-width="3"/>
</svg>
