<svg width="29" height="28" viewBox="0 0 29 28" fill="none" xmlns="http://www.w3.org/2000/svg">
    <path fill-rule="evenodd" clip-rule="evenodd" d="M11.4565 0C14.6384 0 17.3445 1.07546 19.5711 3.22639C21.799 5.37616 22.9128 7.98882 22.9128 11.0609C22.9128 13.2118 22.3165 15.1705 21.1239 16.9379L29 24.5422L25.4185 28L17.5424 20.3946C15.633 21.5461 13.6044 22.123 11.4565 22.123C8.27334 22.123 5.56964 21.0475 3.34181 18.8966C1.11278 16.7456 0 14.1341 0 11.0609C0 7.98882 1.11278 5.37616 3.34181 3.22639C5.56964 1.07546 8.27334 0 11.4565 0ZM11.4565 4.95473C9.70569 4.95473 8.21367 5.55003 6.98049 6.74064C5.74731 7.93124 5.13075 9.37172 5.13075 11.0609C5.13075 12.7512 5.74731 14.1906 6.98049 15.3812C8.21367 16.5729 9.70569 17.1682 11.4565 17.1682C13.2061 17.1682 14.698 16.5729 15.9312 15.3812C17.1655 14.1906 17.7809 12.7512 17.7809 11.0609C17.7809 9.37172 17.1655 7.93124 15.9312 6.74064C14.698 5.55003 13.2061 4.95473 11.4565 4.95473Z" fill="#9EA4C9"/>
</svg>
