<svg width="12" height="7" viewBox="0 0 12 7" fill="none" xmlns="http://www.w3.org/2000/svg">
    <path d="M11.808 6.41501L11.4152 6.80565C11.2912 6.92771 11.1268 6.99527 10.9508 6.99527C10.7752 6.99527 10.6104 6.92771 10.4864 6.80565L6.00281 2.37718L1.51359 6.81079C1.38999 6.93285 1.22518 7 1.04918 7C0.873581 7 0.708767 6.93285 0.585166 6.81079L0.192001 6.42209C-0.0640002 6.16968 -0.0640002 5.75809 0.192001 5.50528L5.53679 0.208186C5.66039 0.0861273 5.82482 0 6.00242 0H6.00442C6.18002 0 6.34479 0.0861273 6.46839 0.208186L11.808 5.49105C11.932 5.61311 11.9996 5.7806 12 5.95401C12 6.12781 11.932 6.29295 11.808 6.41501Z" fill="#9EA4C9"/>
</svg>
