<svg width="22" height="22" viewBox="0 0 22 22" fill="none" xmlns="http://www.w3.org/2000/svg">
    <path fill-rule="evenodd" clip-rule="evenodd" d="M11.1267 0.863647C5.4804 0.863647 0.88623 5.45744 0.88623 11.1038C0.88623 16.7501 5.4804 21.3443 11.1267 21.3443C16.7727 21.3443 21.3669 16.7501 21.3669 11.1038C21.3669 5.45744 16.7727 0.863647 11.1267 0.863647ZM16.8499 8.40925L10.3054 14.9023C9.92022 15.2871 9.30425 15.3128 8.89376 14.928L5.42894 11.7712C5.01845 11.386 4.99272 10.7447 5.35214 10.3339C5.73691 9.92336 6.37857 9.89763 6.78907 10.2828L9.53542 12.7976L15.3868 6.94622C15.7977 6.53573 16.439 6.53573 16.8499 6.94622C17.2604 7.35672 17.2604 7.99837 16.8499 8.40925Z" fill="#009846"/>
</svg>