<svg width="29" height="29" viewBox="0 0 48 37" fill="none" xmlns="http://www.w3.org/2000/svg">
<path fill-rule="evenodd" clip-rule="evenodd" d="M11.2 21.76C12.6401 21.76 13.76 20.64 13.76 19.2C13.76 17.76 12.6401 16.64 11.2 16.64C9.7601 16.64 8.64005 17.76 8.64005 19.2C8.64005 20.64 9.75994 21.76 11.2 21.76ZM9.60009 30.2401V36.8H12.8001V30.2401C18.24 29.44 22.4 24.8 22.4 19.2C22.4 13.5998 18.24 8.95995 12.8001 8.15993V3.19988H35.1999V7.99994H27.2C26.4 7.99994 25.6001 8.8001 25.6001 9.59996C25.6001 10.5599 26.4 11.2 27.2 11.2V20.8C26.4 20.8 25.6001 21.6 25.6001 22.3999C25.6001 23.3601 26.4 24 27.2 24V33.6C26.4 33.6 25.6001 34.3999 25.6001 35.2C25.6001 36.16 26.4 36.8 27.2 36.8H46.3999C47.2001 36.8 48 36.16 48 35.2001C48 34.4 47.2001 33.6 46.3999 33.6V24C47.2001 24 48 23.3601 48 22.4001C48 21.6 47.2001 20.8 46.3999 20.8V11.2C47.2001 11.2 48 10.5599 48 9.59996C48 8.8001 47.2001 8.0001 46.3999 8.0001L38.4 7.99994V3.19988C38.4 1.44011 36.9599 3.05176e-05 35.1999 3.05176e-05H12.8001C11.04 3.05176e-05 9.60009 1.44011 9.60009 3.19988V8.15993C4.16013 8.95995 0 13.6 0 19.2C0 24.8 4.16013 29.44 9.60009 30.2401ZM33.6 30.4001C33.6 31.36 32.9601 32 31.9999 32C31.04 32 30.4 31.36 30.4 30.4001V24H33.6V30.4001ZM33.6 20.8H30.4V14.4C30.4 13.44 31.04 12.8 31.9999 12.8C32.9601 12.8 33.6 13.44 33.6 14.4V20.8ZM4.80006 17.92H6.23993C6.40007 17.44 6.55999 16.96 6.88013 16.64L5.75991 15.68L7.51999 13.92L8.4799 14.8799C8.96008 14.5601 9.28005 14.4 9.76009 14.4V12.8H12.32V14.24C12.8 14.4 13.2799 14.5601 13.6001 14.72L14.56 13.76L16.3201 15.5199L15.2 16.48C15.52 16.96 15.6799 17.28 15.8399 17.76H17.5999V20.32L16.1601 20.3201C15.9999 20.8 15.8399 21.28 15.5201 21.6L16.6401 22.5599L14.88 24.32L13.9201 23.2001C13.4399 23.5201 13.1199 23.68 12.6401 23.68V25.6H9.91992V24.16C9.44005 23.9999 8.96009 23.84 8.63989 23.68L7.67998 24.8L5.91997 23.0401L7.04009 22.08C6.72011 21.6 6.56007 21.28 6.40008 20.8H4.80006V17.92Z" fill="#3366FF"/>
</svg>