<svg width="25" height="19" viewBox="0 0 25 19" fill="none" xmlns="http://www.w3.org/2000/svg">
<path fill-rule="evenodd" clip-rule="evenodd" d="M5.74218 11.1563C6.4805 11.1563 7.05467 10.582 7.05467 9.84375C7.05467 9.10545 6.4805 8.53121 5.74218 8.53121C5.00395 8.53121 4.42971 9.10545 4.42971 9.84375C4.42971 10.582 5.00387 11.1563 5.74218 11.1563ZM4.92192 15.5039V18.8672H6.56253V15.5039C9.35155 15.0937 11.4844 12.7148 11.4844 9.84375C11.4844 6.97255 9.35155 4.59371 6.56253 4.18354V1.64055H18.0468V4.10151H13.9453C13.5352 4.10151 13.125 4.51175 13.125 4.92184C13.125 5.41398 13.5352 5.74219 13.9453 5.74219V10.664C13.5352 10.664 13.125 11.0742 13.125 11.4843C13.125 11.9766 13.5352 12.3046 13.9453 12.3046V17.2266C13.5352 17.2266 13.125 17.6367 13.125 18.0468C13.125 18.5391 13.5352 18.8672 13.9453 18.8672H23.789C24.1992 18.8672 24.6094 18.5391 24.6094 18.0469C24.6094 17.6367 24.1992 17.2266 23.789 17.2266V12.3046C24.1992 12.3046 24.6094 11.9766 24.6094 11.4844C24.6094 11.0742 24.1992 10.664 23.789 10.664V5.74219C24.1992 5.74219 24.6094 5.41398 24.6094 4.92184C24.6094 4.51175 24.1992 4.1016 23.789 4.1016L19.6875 4.10151V1.64055C19.6875 0.738323 18.9492 0 18.0468 0H6.56253C5.66015 0 4.92192 0.738323 4.92192 1.64055V4.18354C2.13288 4.59371 0 6.97263 0 9.84375C0 12.7148 2.13288 15.0937 4.92192 15.5039ZM17.2266 15.5859C17.2266 16.0781 16.8985 16.4062 16.4062 16.4062C15.9141 16.4062 15.5859 16.0781 15.5859 15.5859V12.3046H17.2266V15.5859ZM17.2266 10.664H15.5859V7.3828C15.5859 6.89061 15.9141 6.56247 16.4062 6.56247C16.8985 6.56247 17.2266 6.89061 17.2266 7.3828V10.664ZM2.46097 9.18749H3.19918C3.28129 8.94138 3.36327 8.69529 3.52741 8.53121L2.95308 8.03907L3.85546 7.13672L4.3476 7.62883C4.59379 7.46485 4.75784 7.3828 5.00395 7.3828V6.56247H6.31641V7.30077C6.56252 7.3828 6.80856 7.46485 6.97269 7.54688L7.46483 7.05466L8.36722 7.95696L7.79296 8.44918C7.95705 8.69529 8.03899 8.85935 8.12102 9.10546H9.0234V10.4179L8.28519 10.418C8.20305 10.664 8.12103 10.9101 7.95706 11.0742L8.53127 11.5663L7.62889 12.4687L7.13677 11.8946C6.89058 12.0586 6.72653 12.1406 6.4805 12.1406V13.125H5.08589V12.3867C4.83987 12.3046 4.59379 12.2226 4.42963 12.1406L3.93749 12.7148L3.03514 11.8125L3.60942 11.3203C3.44537 11.0742 3.36332 10.9101 3.28129 10.664H2.46097V9.18749Z" fill="#999DC0"/>
</svg>
