<svg width="21" height="10" viewBox="0 0 21 10" fill="none" xmlns="http://www.w3.org/2000/svg">
    <path fill-rule="evenodd" clip-rule="evenodd" d="M10.6329 9.57568C14.1607 9.57568 17.6494 8.06172 20.7218 5.19729L20.9261 5.00676L20.7288 4.80932C17.8597 1.94077 14.4903 0.424508 10.9837 0.424508C7.45601 0.424508 3.96732 1.93841 0.894847 4.80285L0.69043 4.99337L0.887817 5.19082C3.75691 8.05936 7.1264 9.57568 10.6329 9.57568ZM10.8083 0.908827C12.9879 0.908827 14.8996 2.82051 14.8996 5.00012C14.8996 7.17973 12.9879 9.09142 10.8083 9.09142C8.62868 9.09142 6.71705 7.17973 6.71705 5.00012C6.71705 2.82051 8.62868 0.908827 10.8083 0.908827Z" fill="#82BAFF"/>
    <path fill-rule="evenodd" clip-rule="evenodd" d="M10.8075 7.65332C12.2209 7.65332 13.4608 6.41346 13.4608 5.00003C13.4608 4.48668 13.2955 3.99701 13.0192 3.58038C12.9342 4.29372 12.3792 4.84711 11.6999 4.84711C10.9614 4.84711 10.3629 4.19656 10.3629 3.39409C10.3629 2.98258 10.5218 2.61311 10.7744 2.34858C9.375 2.36795 8.1543 3.59775 8.1543 5.00003C8.1543 6.41346 9.39404 7.65332 10.8075 7.65332Z" fill="#82BAFF"/>
</svg>
