<svg width="60" height="60" viewBox="0 0 60 60" fill="none" xmlns="http://www.w3.org/2000/svg">
<path fill-rule="evenodd" clip-rule="evenodd" d="M17.9949 52.5H20.9984V43.5068H17.9949V52.5Z" fill="#868BB2"/>
<path fill-rule="evenodd" clip-rule="evenodd" d="M15.0003 54.002H26.9968V50.9985H15.0003V54.002Z" fill="#868BB2"/>
<path fill-rule="evenodd" clip-rule="evenodd" d="M55.5034 0H4.49657C2.01659 0 0 2.01659 0 4.49657V40.5034C0 42.9834 2.01659 45 4.49657 45H24.0017V42.0051H4.49657C3.67277 42.0051 2.99485 41.3272 2.99485 40.5034V4.49657C2.99485 3.67277 3.67277 3.00343 4.49657 3.00343H55.5034C56.3272 3.00343 56.9966 3.67277 56.9966 4.49657V31.5017H60V4.49657C60 2.01659 57.9834 0 55.5034 0Z" fill="#868BB2"/>
<path fill-rule="evenodd" clip-rule="evenodd" d="M51.5476 36.4015C48.896 32.8231 46.2101 29.9313 46.1843 29.9055C46.0385 29.7511 45.8497 29.6738 45.6523 29.6738C45.4464 29.6738 45.2576 29.7511 45.1203 29.9055C45.0945 29.9313 42.4086 32.8231 39.757 36.4015C36.1357 41.2757 34.2993 45.0686 34.2993 47.6601C34.2993 53.9244 39.3966 59.0131 45.6523 59.0131C51.908 59.0131 56.9967 53.9244 56.9967 47.6601C56.9967 45.0686 55.1689 41.2757 51.5476 36.4015ZM46.785 55.3403C46.1929 55.4862 45.5751 55.5548 44.9572 55.5548C40.5894 55.5548 37.0367 52.0022 37.0367 47.6343C37.0367 47.0251 37.2255 45.9353 38.1094 44.1589C38.1952 43.9787 38.4012 43.8929 38.5899 43.9444C38.7787 44.0045 38.9075 44.1933 38.8817 44.3906C38.8645 44.5623 38.856 44.7253 38.856 44.8712C38.856 49.548 42.1769 53.6155 46.7679 54.5337C46.9567 54.5766 47.094 54.7396 47.1025 54.937C47.1025 55.1258 46.9652 55.2974 46.785 55.3403Z" fill="#868BB2"/>
<path fill-rule="evenodd" clip-rule="evenodd" d="M43.5843 26.396V14.3651H37.5517V10.8725H53.7531V14.3651H47.7291V26.396H43.5843ZM43.5843 9.58534H37.5517V6.09277H53.7531V9.58534H43.5843Z" fill="#868BB2"/>
<path fill-rule="evenodd" clip-rule="evenodd" d="M29.4593 26.8851L32.0594 24.2249C32.7288 24.6797 34.0675 26.9023 34.4107 27.7861C34.9685 29.202 35.5606 30.7038 35.5606 32.6174H31.8535C31.8192 31.0899 30.8752 28.773 29.9399 27.4772C29.7597 27.2284 29.631 27.134 29.4593 26.8851ZM10.8209 32.6174H7.12239C7.12239 30.7123 7.67159 29.2707 8.22937 27.872C8.60694 26.9109 9.88555 24.7226 10.5806 24.2507L13.2408 26.8508C12.4428 27.9749 12.4513 27.6317 11.6619 29.3908C11.3444 30.0945 10.8466 31.6563 10.8209 32.6174ZM28.0606 25.4778C26.516 24.1305 24.2934 23.2209 22.294 23.0579V19.3508C24.9971 19.3508 29.6481 21.3159 30.6607 22.8176L28.0606 25.4778ZM11.9879 22.8519C13.0177 21.3245 17.6773 19.3508 20.3804 19.3508V23.0579C18.8529 23.0922 16.536 24.0276 15.2402 24.9715C14.9914 25.1517 14.897 25.2718 14.6481 25.4521L11.9879 22.8519ZM5.08864 32.7375C5.08864 35.0802 5.0629 34.531 11.7734 34.531C12.683 34.531 12.6744 33.9389 12.7688 33.1323C13.2494 29.2106 15.3947 26.2501 19.2391 25.2633C23.5726 24.1477 28.0263 26.5848 29.4851 30.9269C30.901 35.1832 27.5886 34.531 36.6332 34.531C37.7402 34.531 37.5858 33.4669 37.5858 32.7375C37.5858 29.8113 36.29 26.5848 34.651 24.1992C33.4839 22.5173 31.4159 20.5522 29.6224 19.5567C23.8644 16.3645 17.4027 16.5018 11.9708 20.2604C9.91129 21.6763 7.64585 24.2507 6.64184 26.5247C5.94676 28.0865 5.08864 30.5064 5.08864 32.7375Z" fill="#868BB2"/>
<path fill-rule="evenodd" clip-rule="evenodd" d="M16.682 34.5311C17.5144 34.5311 18.3554 34.5311 19.1878 34.5311C21.3931 34.5311 20.5693 34.1793 22.6203 36.2302C23.0064 36.6078 23.7101 37.1141 23.8474 37.6375C21.17 39.0534 18.2782 38.1009 17.0768 35.6896C16.8708 35.2691 16.8365 34.883 16.682 34.5311ZM22.2942 28.9104C25.3319 29.6227 27.0996 32.8664 25.4006 36.0843C24.8857 35.947 24.4309 35.2863 24.0533 34.9173C23.5899 34.4539 23.2209 34.0592 22.7404 33.6044C22.0968 33.0037 22.2942 32.9865 22.2942 31.5363C22.2942 30.6696 22.2942 29.7857 22.2942 28.9104ZM20.3806 28.9104V32.6175H16.682C17.1197 30.6953 18.4584 29.3566 20.3806 28.9104ZM14.6483 33.2096V33.9304C14.6483 37.1913 17.7204 40.2634 20.9812 40.2634H21.6935C24.9629 40.2634 28.0264 37.1999 28.0264 33.9304V33.2096C28.0264 29.9573 24.9543 26.8853 21.6935 26.8853H20.9812C17.7118 26.8853 14.6483 29.9488 14.6483 33.2096Z" fill="#868BB2"/>
<path fill-rule="evenodd" clip-rule="evenodd" d="M13.035 15.3689H14.8885V11.9106C15.7295 11.9793 16.3645 12.5714 16.8107 13.0948C17.2655 13.6269 17.583 14.5022 17.6517 15.3689H19.4966C19.4966 12.2625 17.5058 11.2241 17.1883 10.7522C17.5058 10.2802 17.8576 10.4003 18.7157 9.05308C19.2821 8.15205 19.4966 7.29393 19.4966 6.14404H17.6517C17.583 7.01075 17.2655 7.88603 16.8107 8.41807C16.3645 8.94152 15.7295 9.53363 14.8885 9.60228V6.14404H13.035V15.3689Z" fill="#868BB2"/>
<path fill-rule="evenodd" clip-rule="evenodd" d="M23.9932 9.83421H22.2598V7.98924H23.7615C24.4051 7.98924 25.0316 8.32391 25.0316 8.90744C25.0316 9.36224 24.5081 9.83421 23.9932 9.83421ZM20.4234 7.07105V15.3691H22.2598V11.6792H24.3365C25.7524 11.6792 26.8765 10.4606 26.8765 8.67574C26.8765 7.4143 25.6065 6.14428 24.3365 6.14428C22.2341 6.14428 20.4234 5.75812 20.4234 7.07105Z" fill="#868BB2"/>
<path fill-rule="evenodd" clip-rule="evenodd" d="M27.7945 15.3689H29.6395V6.14404H27.7945V15.3689Z" fill="#868BB2"/>
</svg>
