<svg width="22" height="19" viewBox="0 0 22 19" fill="none" xmlns="http://www.w3.org/2000/svg">
<path fill-rule="evenodd" clip-rule="evenodd" d="M10.8821 6.86096C7.97179 6.86096 5.3322 8.33973 3.38493 10.7414C3.22586 10.9381 3.22586 11.213 3.38493 11.4103C5.3322 13.815 7.97179 15.2935 10.8821 15.2935C13.7926 15.2935 16.4317 13.815 18.3792 11.4133C18.5381 11.2166 18.5381 10.9409 18.3792 10.7445C16.4317 8.33973 13.7926 6.86096 10.8821 6.86096ZM11.091 14.0459C9.1591 14.1592 7.56375 12.6805 7.68534 10.8832C7.78477 9.40162 9.07789 8.20076 10.6732 8.10881C12.6053 7.99553 14.2007 9.47401 14.0792 11.2712C13.9764 12.7501 12.683 13.9509 11.091 14.0459ZM10.9943 12.6746C9.95359 12.7354 9.09368 11.9395 9.16213 10.9732C9.21519 10.1743 9.91328 9.52898 10.7733 9.47704C11.8139 9.4163 12.6739 10.2121 12.6053 11.1785C12.5492 11.9796 11.8512 12.6257 10.9943 12.6746Z" fill="#999DC0"/>
<path fill-rule="evenodd" clip-rule="evenodd" d="M2.89564 16.8455H18.4773L16.946 14.1913C17.3866 13.8466 17.811 13.4656 18.2159 13.0504L21.3732 18.5229H19.9251H0L3.30558 12.794C3.70227 13.2214 4.11808 13.6161 4.55152 13.9758L2.89564 16.8455ZM12.3086 6.15348L10.6868 3.34185L9.01763 6.23388C8.17675 6.41094 7.36375 6.70464 6.588 7.10377L10.6868 1.71661e-05L14.6366 6.8466C13.889 6.51624 13.1106 6.28145 12.3086 6.15348Z" fill="#999DC0"/>
</svg>
