<svg width="23" height="22" viewBox="0 0 23 22" fill="none" xmlns="http://www.w3.org/2000/svg"><path d="M22.4199 6.47655L21.6992 5.7491C21.3271 5.37848 20.824 5.17049 20.2996 5.17049C19.7753 5.17049 19.2722 5.37848 18.9 5.7491L17.9816 6.67054L17.173 7.48176V2.86573C17.1715 2.10616 16.8701 1.37813 16.3348 0.841026C15.7995 0.303925 15.0738 0.00151461 14.3167 0H7.78238C7.71067 0.000599982 7.63949 0.0125019 7.57145 0.0352705C7.48643 0.0617585 7.40836 0.106944 7.34295 0.167535L0.219753 6.56914C0.149128 6.63062 0.0935041 6.70755 0.0571628 6.79399C0.0185468 6.8783 -0.000963225 6.97015 3.65734e-05 7.06293V19.1343C0.000734678 19.8941 0.301891 20.6226 0.837401 21.1599C1.37291 21.6972 2.09902 21.9993 2.85635 22H14.3167C15.0738 21.9985 15.7995 21.6961 16.3348 21.159C16.8701 20.6219 17.1715 19.8938 17.173 19.1343V14.5447L21.4751 10.2285C21.494 10.2154 21.5104 10.1989 21.5234 10.18L22.4199 9.28056C22.6038 9.09666 22.7497 8.87815 22.8492 8.63757C22.9488 8.39698 23 8.13905 23 7.87856C23 7.61806 22.9488 7.36013 22.8492 7.11954C22.7497 6.87896 22.6038 6.66045 22.4199 6.47655ZM15.8547 19.1343C15.8547 19.5435 15.6927 19.936 15.4043 20.2254C15.1158 20.5148 14.7246 20.6774 14.3167 20.6774H2.85635C2.44844 20.6774 2.05724 20.5148 1.76881 20.2254C1.48037 19.936 1.31833 19.5435 1.31833 19.1343V7.72425H5.58522C6.3423 7.72273 7.06793 7.42032 7.60327 6.88322C8.1386 6.34612 8.44002 5.61809 8.44153 4.85852V1.32265H14.3167C14.7246 1.32265 15.1158 1.48522 15.4043 1.7746C15.6927 2.06399 15.8547 2.45648 15.8547 2.86573V8.80441L10.4981 14.1788C10.4154 14.2633 10.3563 14.3682 10.3267 14.483L9.44343 17.9615C9.41548 18.0725 9.41657 18.1889 9.44659 18.2993C9.47661 18.4098 9.53456 18.5106 9.61481 18.592C9.73921 18.7147 9.90618 18.7842 10.0806 18.786C10.1356 18.7876 10.1906 18.7802 10.2432 18.7639L13.7147 17.8866C13.8294 17.8553 13.9339 17.7945 14.0179 17.7102L15.8547 15.8673V19.1343ZM16.0481 13.8084L13.2182 16.6477L10.9946 17.212L11.5615 14.9856L16.9797 9.54509L18.4474 8.07695L20.1041 9.73908L16.0481 13.8084Z" fill="#3366FF"/></svg>