<svg width="17" height="17" viewBox="0 0 17 17" fill="none" xmlns="http://www.w3.org/2000/svg">
<path fill-rule="evenodd" clip-rule="evenodd" d="M16.5823 14.7364H15.7141V11.1102C15.7141 11.0153 15.6193 10.9371 15.5042 10.9371H14.5262V8.16677L14.6293 8.20126C14.6829 8.21848 14.7371 8.22826 14.7902 8.22826C14.9543 8.22826 15.1121 8.14761 15.1782 8.01431L15.7761 6.82495C15.8183 6.73937 15.8183 6.64439 15.7761 6.56028C15.7339 6.47617 15.6511 6.40737 15.548 6.37294L6.47198 3.27649C6.80425 2.75411 7.10213 2.22435 7.35785 1.69852C7.44534 1.52145 7.34227 1.32228 7.1303 1.24997L3.54562 0.0266041C3.33209 -0.0461945 3.08832 0.0354926 2.99613 0.209619C2.10921 1.92334 1.53632 3.83187 1.1952 6.2175C1.17437 6.37146 1.27907 6.51904 1.4525 6.57757L2.98937 7.10183C3.16332 7.16135 3.36227 7.11813 3.47945 6.99663C4.14608 6.30062 4.72105 5.64592 5.23924 4.99663L7.05111 5.61638L6.96257 6.12498L6.6923 7.66855L5.45433 14.7364H2.55503H0.419235C0.18852 14.7364 0 14.8919 0 15.0832V16.6547C0 16.8451 0.18852 17 0.419235 17H16.5823C16.812 17 17 16.8451 17 16.6547V15.0832C17 14.8919 16.812 14.7364 16.5823 14.7364ZM13.6872 10.9371H12.7112C12.594 10.9371 12.4992 11.0153 12.4992 11.1102V14.7364H11.5461L10.3082 7.66855L10.1332 6.66759L13.6872 7.88V10.9371ZM9.54053 8.59323L8.0651 7.68719L9.23848 6.86924L9.54053 8.59323ZM9.04837 9.23768L7.17714 10.2189L7.51256 8.29522L9.04837 9.23768ZM9.74733 9.77135L10.1983 12.3443L7.76828 10.8078L9.74733 9.77135ZM7.94482 14.7364L10.3645 13.2937L10.617 14.7364H7.94482ZM8.77027 6.2027L7.7573 6.90806L7.93022 5.91497L8.77027 6.2027ZM6.9912 11.2721L9.50931 12.8653L6.38658 14.731L6.9912 11.2721Z" fill="#FEFEFE"/>
</svg>
