<svg width="26" height="23" viewBox="0 0 26 23" fill="none" xmlns="http://www.w3.org/2000/svg">
<path d="M22.25 17.75H23C23.4142 17.75 23.75 18.0858 23.75 18.5C23.75 18.9142 23.4142 19.25 23 19.25H22.25V20C22.25 20.4142 21.9142 20.75 21.5 20.75C21.0858 20.75 20.75 20.4142 20.75 20V19.25H20C19.5858 19.25 19.25 18.9142 19.25 18.5C19.25 18.0858 19.5858 17.75 20 17.75H20.75V17C20.75 16.5858 21.0858 16.25 21.5 16.25C21.9142 16.25 22.25 16.5858 22.25 17V17.75ZM21.5 23C19.0147 23 17 20.9853 17 18.5C17 16.0147 19.0147 14 21.5 14C23.9853 14 26 16.0147 26 18.5C26 20.9853 23.9853 23 21.5 23ZM21.5 21.5C23.1569 21.5 24.5 20.1569 24.5 18.5C24.5 16.8431 23.1569 15.5 21.5 15.5C19.8431 15.5 18.5 16.8431 18.5 18.5C18.5 20.1569 19.8431 21.5 21.5 21.5Z" fill="#3366FF"/>
<path d="M14.9801 21.2666L13.2513 10.3132C12.8652 10.6377 12.394 10.8621 11.8759 10.953L12.5781 15.4H10.1555L9.92416 16.8666H12.8098L13.5043 21.2666H9.22933L10.8573 10.9527C10.3396 10.8617 9.86842 10.6373 9.48196 10.3128L7.75313 21.2666H5.86664V19.0666H1.46666V21.2666H0V21.9999H16.5V21.2666H14.9801Z" fill="#3366FF"/>
<path d="M3.30002 8.18919V10.2667H4.03335V8.06416L3.30002 8.18919Z" fill="#3366FF"/>
<path d="M5.13327 10.9999H2.19995V12.4666H5.13327V10.9999Z" fill="#3366FF"/>
<path d="M11.3667 8.79996C11.7717 8.79996 12.1 8.47164 12.1 8.06663C12.1 7.66162 11.7717 7.3333 11.3667 7.3333C10.9616 7.3333 10.6333 7.66162 10.6333 8.06663C10.6333 8.47164 10.9616 8.79996 11.3667 8.79996Z" fill="#3366FF"/>
<path d="M4.40006 13.1997H2.9334V18.333H4.40006V13.1997Z" fill="#3366FF"/>
<path d="M11.3666 5.8668C10.1533 5.8668 9.16662 6.85349 9.16662 8.06679C9.16662 9.28008 10.1533 10.2668 11.3666 10.2668C12.5799 10.2668 13.5666 9.28008 13.5666 8.06679C13.5666 6.85349 12.5799 5.8668 11.3666 5.8668ZM11.3666 9.53345C10.5577 9.53345 9.89995 8.87565 9.89995 8.06679C9.89995 7.25792 10.5577 6.60013 11.3666 6.60013C12.1755 6.60013 12.8333 7.25792 12.8333 8.06679C12.8333 8.87565 12.1755 9.53345 11.3666 9.53345Z" fill="#3366FF"/>
<path d="M1.71885 7.69989C1.77421 7.69989 1.82958 7.69512 1.88458 7.68596L8.89521 6.49246C9.41698 5.67663 10.3285 5.13324 11.3665 5.13324C12.05 5.13324 12.6781 5.3701 13.1775 5.76353L16.8511 5.13837L15.6627 3.08578L1.56521 5.3151C1.08305 5.39137 0.73325 5.80057 0.73325 6.2886V6.71429C0.73325 7.25769 1.17545 7.69989 1.71885 7.69989Z" fill="#3366FF"/>
<path d="M21.6421 4.11142L18.616 0.535331C18.3282 0.195066 17.9076 0 17.4621 0H14.7235L18.5445 6.59997H20.4878C21.3216 6.59997 22 5.92164 22 5.08821C22 4.73108 21.8727 4.38421 21.6421 4.11142ZM20.4882 5.13331H19.3904L17.2674 1.46666H17.4621C17.4757 1.46666 17.4878 1.47253 17.4966 1.48243L20.5333 5.08784C20.5333 5.11241 20.5128 5.13331 20.4882 5.13331Z" fill="#3366FF"/>
<path d="M20.5332 7.3333H19.0665V12.9998H20.5332V7.3333Z" fill="#3366FF"/>
</svg>