<svg width="17" height="23" viewBox="0 0 17 23" fill="none" xmlns="http://www.w3.org/2000/svg">
<path d="M12.3811 0.0483398V4.60042H16.9049L12.3811 0.0483398Z" fill="#3366FF"/>
<path d="M11.9048 5.55833C11.619 5.55833 11.4286 5.36667 11.4286 5.07917V0H1.42857C0.619048 0 0 0.622917 0 1.4375V21.5625C0 22.3771 0.619048 23 1.42857 23H15.5714C16.381 23 17 22.3771 17 21.5625V5.55833H11.9048ZM16 21.5625C16 21.85 15.8095 22.0417 15.5238 22.0417H1.42857C1.14286 22.0417 0.952381 21.85 0.952381 21.5625V1.4375C0.952381 1.15 1.14286 0.958333 1.42857 0.958333H10.4762V5.07917C10.4762 5.89375 11.0952 6.51667 11.9048 6.51667H16V21.5625Z" fill="#3366FF"/>
<path d="M3 4H2V7H3V4Z" fill="#3366FF"/>
<path d="M5 3H4V7H5V3Z" fill="#3366FF"/>
<path d="M7 4H6V7H7V4Z" fill="#3366FF"/>
<path d="M9 2H8V7H9V2Z" fill="#3366FF"/>
<path d="M10.5664 20.5665L9.57774 14.094C9.35695 14.2857 9.08752 14.4183 8.79124 14.4721L9.19277 17.0998H7.80744L7.67513 17.9665H9.32529L9.72242 20.5665H7.27779L8.20876 14.4719C7.91269 14.4181 7.64326 14.2855 7.42226 14.0938L6.43363 20.5665H5.35484V19.2665H2.83871V20.5665H2V20.9998H15V20.5665H10.5664Z" fill="#3366FF"/>
<path d="M12.0647 18.4065C12.0647 19.1197 12.6263 19.7 13.3165 19.7C14.0194 19.7 14.5809 19.1197 14.5809 18.4065C14.5809 18.1599 14.5131 17.9198 14.385 17.7121L13.3228 15.987L12.2606 17.7118C12.1325 17.9198 12.0647 18.1599 12.0647 18.4065ZM13.7422 18.4065C13.7422 18.3252 13.7199 18.2459 13.6776 18.1772L13.3526 17.6497L13.7065 17.417L14.0315 17.9445C14.1166 18.083 14.1615 18.2427 14.1615 18.4065C14.1615 18.8808 13.7881 19.2666 13.3291 19.2666L13.3165 18.8333C13.5568 18.8333 13.7422 18.6418 13.7422 18.4065Z" fill="#3366FF"/>
<path d="M3.88711 12.8394V14.067H4.30646V12.7655L3.88711 12.8394Z" fill="#3366FF"/>
<path d="M4.93558 14.5H3.25816V15.3667H4.93558V14.5Z" fill="#3366FF"/>
<path d="M8.49988 13.1995C8.73148 13.1995 8.91924 13.0055 8.91924 12.7662C8.91924 12.5268 8.73148 12.3328 8.49988 12.3328C8.26828 12.3328 8.08053 12.5268 8.08053 12.7662C8.08053 13.0055 8.26828 13.1995 8.49988 13.1995Z" fill="#3366FF"/>
<path d="M4.51608 15.7997H3.67737V18.833H4.51608V15.7997Z" fill="#3366FF"/>
<path d="M8.49991 11.4664C7.80608 11.4664 7.24184 12.0494 7.24184 12.7664C7.24184 13.4833 7.80608 14.0664 8.49991 14.0664C9.19373 14.0664 9.75797 13.4833 9.75797 12.7664C9.75797 12.0494 9.19373 11.4664 8.49991 11.4664ZM8.49991 13.633C8.03736 13.633 7.6612 13.2443 7.6612 12.7664C7.6612 12.2884 8.03736 11.8997 8.49991 11.8997C8.96245 11.8997 9.33862 12.2884 9.33862 12.7664C9.33862 13.2443 8.96245 13.633 8.49991 13.633Z" fill="#3366FF"/>
<path d="M2.98282 12.5499C3.01448 12.5499 3.04615 12.5471 3.0776 12.5417L7.08663 11.8364C7.385 11.3544 7.90626 11.0333 8.49985 11.0333C8.89069 11.0333 9.24987 11.1732 9.53545 11.4057L11.6362 11.0363L10.9566 9.82339L2.89497 11.1407C2.61924 11.1858 2.41921 11.4276 2.41921 11.716V11.9675C2.41921 12.2886 2.67208 12.5499 2.98282 12.5499Z" fill="#3366FF"/>
<path d="M14.3758 10.4295L12.6453 8.31636C12.4807 8.11529 12.2402 8.00002 11.9855 8.00002H10.4194L12.6044 11.9H13.7157C14.1925 11.9 14.5804 11.4992 14.5804 11.0067C14.5804 10.7957 14.5077 10.5907 14.3758 10.4295ZM13.7159 11.0334H13.0881L11.8741 8.86669H11.9855C11.9932 8.86669 12.0001 8.87016 12.0052 8.87601L13.7417 11.0065C13.7417 11.021 13.73 11.0334 13.7159 11.0334Z" fill="#3366FF"/>
<path d="M13.7419 12.3328H12.9032V14.7164H13.7419V12.3328Z" fill="#3366FF"/>
</svg>