<svg width="17" height="18" viewBox="0 0 17 18" fill="none" xmlns="http://www.w3.org/2000/svg">
    <path fill-rule="evenodd" clip-rule="evenodd"
          d="M14.0574 0.885349H2.71518C1.31949 0.885349 0.184326 2.12119 0.184326 3.64049V14.534C0.184326 16.0533 1.31949 17.2892 2.71518 17.2892H14.0574C15.453 17.2892 16.5882 16.0533 16.5882 14.534V3.64049C16.5879 2.12119 15.453 0.885349 14.0574 0.885349ZM15.4376 14.534C15.4376 15.3627 14.8185 16.0369 14.0574 16.0369H2.71518C1.95362 16.0369 1.33457 15.3627 1.33457 14.534V3.64049C1.33457 2.8118 1.95362 2.13767 2.71518 2.13767H14.0574C14.8189 2.13767 15.4379 2.8118 15.4379 3.64049V14.534H15.4376Z"
          fill="white"/>
    <path fill-rule="evenodd" clip-rule="evenodd"
          d="M12.0382 8.46134H8.96139V5.11168C8.96139 4.76586 8.70389 4.48531 8.3863 4.48531C8.06837 4.48531 7.81121 4.76586 7.81121 5.11168V8.46134H4.73451C4.41658 8.46134 4.15942 8.74146 4.15942 9.08729C4.15942 9.43312 4.41658 9.71331 4.73451 9.71331H7.81121V13.0629C7.81121 13.4091 8.06837 13.6893 8.3863 13.6893C8.70389 13.6893 8.96139 13.4091 8.96139 13.0629V9.71331H12.0382C12.3557 9.71331 12.6133 9.43312 12.6133 9.08729C12.6133 8.74146 12.3557 8.46134 12.0382 8.46134Z"
          fill="white"/>
</svg>