<svg width="28" height="28" viewBox="0 0 28 28" fill="none" xmlns="http://www.w3.org/2000/svg">
    <path fill-rule="evenodd" clip-rule="evenodd"
          d="M0 0L24.0001 0.000397939C26.2092 0.000434567 28 1.79128 28 4.0004V24C28 26.2091 26.2091 28 24 28H0V0Z"
          fill="#363B68"/>
    <path fill-rule="evenodd" clip-rule="evenodd"
          d="M7.09091 6.00018C6.4909 6.00018 6 6.49108 6 7.09109V9.2729H22V7.09109C22 6.49108 21.5091 6.00018 20.9091 6.00018H19.8182H16.1818H12.1818H8.54545H7.09091ZM10.5 7.64994C10.5 8.06415 10.1642 8.39994 9.75 8.39994C9.33579 8.39994 9 8.06415 9 7.64994C9 7.23573 9.33579 6.89994 9.75 6.89994C10.1642 6.89994 10.5 7.23573 10.5 7.64994ZM17.95 8.39984C18.3642 8.39984 18.7 8.06405 18.7 7.64984C18.7 7.23563 18.3642 6.89984 17.95 6.89984C17.5358 6.89984 17.2 7.23563 17.2 7.64984C17.2 8.06405 17.5358 8.39984 17.95 8.39984Z"
          fill="white"/>
    <path d="M6 20.9091C6 21.509 6.4909 22 7.09091 22H20.9091C21.5091 22 22 21.509 22 20.9091V10H6V20.9091ZM18 11.8182C18 11.6182 18.1636 11.4545 18.3636 11.4545H19.8182C20.0182 11.4545 20.1818 11.6182 20.1818 11.8182V13.2727C20.1818 13.4727 20.0182 13.6364 19.8182 13.6364H18.3636C18.1636 13.6364 18 13.4727 18 13.2727V11.8182ZM18 15.0909C18 14.8909 18.1636 14.7273 18.3636 14.7273H19.8182C20.0182 14.7273 20.1818 14.8909 20.1818 15.0909V16.5454C20.1818 16.7454 20.0182 16.9091 19.8182 16.9091H18.3636C18.1636 16.9091 18 16.7454 18 16.5454V15.0909ZM18 18.3636C18 18.1636 18.1636 18 18.3636 18H19.8182C20.0182 18 20.1818 18.1636 20.1818 18.3636V19.8182C20.1818 20.0182 20.0182 20.1818 19.8182 20.1818H18.3636C18.1636 20.1818 18 20.0182 18 19.8182V18.3636ZM14.3636 11.8182C14.3636 11.6182 14.5273 11.4545 14.7273 11.4545H16.1818C16.3818 11.4545 16.5455 11.6182 16.5455 11.8182V13.2727C16.5455 13.4727 16.3818 13.6364 16.1818 13.6364H14.7273C14.5273 13.6364 14.3636 13.4727 14.3636 13.2727V11.8182ZM14.3636 15.0909C14.3636 14.8909 14.5273 14.7273 14.7273 14.7273H16.1818C16.3818 14.7273 16.5455 14.8909 16.5455 15.0909V16.5454C16.5455 16.7454 16.3818 16.9091 16.1818 16.9091H14.7273C14.5273 16.9091 14.3636 16.7454 14.3636 16.5454V15.0909ZM14.3636 18.3636C14.3636 18.1636 14.5273 18 14.7273 18H16.1818C16.3818 18 16.5455 18.1636 16.5455 18.3636V19.8182C16.5455 20.0182 16.3818 20.1818 16.1818 20.1818H14.7273C14.5273 20.1818 14.3636 20.0182 14.3636 19.8182V18.3636ZM11.0909 11.8182C11.0909 11.6182 11.2545 11.4545 11.4545 11.4545H12.9091C13.1091 11.4545 13.2727 11.6182 13.2727 11.8182V13.2727C13.2727 13.4727 13.1091 13.6364 12.9091 13.6364H11.4545C11.2545 13.6364 11.0909 13.4727 11.0909 13.2727V11.8182ZM11.0909 15.0909C11.0909 14.8909 11.2545 14.7273 11.4545 14.7273H12.9091C13.1091 14.7273 13.2727 14.8909 13.2727 15.0909V16.5454C13.2727 16.7454 13.1091 16.9091 12.9091 16.9091H11.4545C11.2545 16.9091 11.0909 16.7454 11.0909 16.5454V15.0909ZM11.0909 18.3636C11.0909 18.1636 11.2545 18 11.4545 18H12.9091C13.1091 18 13.2727 18.1636 13.2727 18.3636V19.8182C13.2727 20.0182 13.1091 20.1818 12.9091 20.1818H11.4545C11.2545 20.1818 11.0909 20.0182 11.0909 19.8182V18.3636ZM7.81818 11.8182C7.81818 11.6182 7.98182 11.4545 8.18182 11.4545H9.63636C9.83636 11.4545 10 11.6182 10 11.8182V13.2727C10 13.4727 9.83636 13.6364 9.63636 13.6364H8.18182C7.98182 13.6364 7.81818 13.4727 7.81818 13.2727V11.8182ZM7.81818 15.0909C7.81818 14.8909 7.98182 14.7273 8.18182 14.7273H9.63636C9.83636 14.7273 10 14.8909 10 15.0909V16.5454C10 16.7454 9.83636 16.9091 9.63636 16.9091H8.18182C7.98182 16.9091 7.81818 16.7454 7.81818 16.5454V15.0909ZM7.81818 18.3636C7.81818 18.1636 7.98182 18 8.18182 18H9.63636C9.83636 18 10 18.1636 10 18.3636V19.8182C10 20.0182 9.83636 20.1818 9.63636 20.1818H8.18182C7.98182 20.1818 7.81818 20.0182 7.81818 19.8182V18.3636Z"
          fill="white"/>
</svg>