<svg width="17" height="17" viewBox="0 0 17 17" fill="none" xmlns="http://www.w3.org/2000/svg">
<path fill-rule="evenodd" clip-rule="evenodd" d="M1.96848 16.4038H14.4354C15.5223 16.4038 16.4038 15.5223 16.4038 14.4353V1.96846C16.4038 0.881557 15.5223 -2.67029e-05 14.4354 -2.67029e-05H1.96848C0.881469 -2.67029e-05 0 0.881557 0 1.96846V14.4353C0 15.5223 0.881469 16.4038 1.96848 16.4038ZM1.31223 1.96846C1.31223 1.6062 1.60622 1.31234 1.96848 1.31234H14.4354C14.7976 1.31234 15.0915 1.6062 15.0915 1.96846V14.4353C15.0915 14.7976 14.7976 15.0916 14.4354 15.0916H1.96848C1.60622 15.0916 1.31223 14.7976 1.31223 14.4353V1.96846Z" fill="#B6BAD9"/>
<path fill-rule="evenodd" clip-rule="evenodd" d="M5.15162 11.2529C5.27465 11.3759 5.44162 11.4456 5.6158 11.4456C5.78999 11.4456 5.95703 11.3759 6.08006 11.2529L8.20268 9.1303L10.3253 11.2529C10.4483 11.3759 10.6154 11.4452 10.7896 11.4452C11.152 11.4452 11.446 11.1513 11.446 10.7887C11.446 10.6146 11.3768 10.4475 11.2538 10.3245L9.13111 8.20186L11.2538 6.07924C11.3768 5.95621 11.446 5.78917 11.446 5.61499C11.446 5.2525 11.152 4.95852 10.7896 4.95852C10.6154 4.95852 10.4483 5.0277 10.3253 5.15073L8.20268 7.27343L6.08006 5.15073C5.95703 5.0277 5.78999 4.95852 5.6158 4.95852C5.2532 4.95852 4.95934 5.2525 4.95934 5.61499C4.95934 5.78917 5.02859 5.95621 5.15162 6.07924L7.27424 8.20186L5.15162 10.3245C5.02859 10.4475 4.95898 10.6146 4.95898 10.7887C4.95898 10.9629 5.02859 11.1299 5.15162 11.2529Z" fill="#B6BAD9"/>
</svg>
