<svg width="19" height="20" viewBox="0 0 19 20" fill="none" xmlns="http://www.w3.org/2000/svg">
<path fill-rule="evenodd" clip-rule="evenodd" d="M15.5625 10.65V6.72801H0V16.1768H10.0358C9.68114 12.985 12.3825 10.2967 15.5625 10.65ZM11.1164 8.39549H12.7839V9.50706H11.1164V8.39549ZM8.33724 8.39549H10.0049V9.50706H8.33724V8.39549ZM4.44661 13.9538H2.77913V12.8421H4.44661V13.9538ZM4.44661 11.7305H2.77913V10.619H4.44661V11.7305ZM4.44661 9.50706H2.77913V8.39549H4.44661V9.50706ZM7.22575 13.9538H5.55811V12.8421H7.22575V13.9538ZM7.22575 11.7305H5.55811V10.619H7.22575V11.7305ZM7.22575 9.50706H5.55811V8.39549H7.22575V9.50706ZM8.33724 10.619H10.0049V11.7305H8.33724V10.619Z" fill="#B6BAD9"/>
<path fill-rule="evenodd" clip-rule="evenodd" d="M15.0078 11.7304C12.8627 11.7304 11.1172 13.476 11.1172 15.6212C11.1172 17.7665 12.8627 19.5118 15.0078 19.5118C17.1533 19.5118 18.8984 17.7665 18.8984 15.6212C18.8984 13.476 17.1533 11.7304 15.0078 11.7304ZM16.6753 16.1767H14.4518V13.9537H15.5633V15.0652H16.6753V16.1767Z" fill="#B6BAD9"/>
<path fill-rule="evenodd" clip-rule="evenodd" d="M5.00228 1.72597C5.00228 1.11224 4.50452 0.614482 3.89079 0.614482C3.27692 0.614482 2.7793 1.11224 2.7793 1.72597V3.39362H5.00228V1.72597Z" fill="#B6BAD9"/>
<path fill-rule="evenodd" clip-rule="evenodd" d="M15.5625 2.28156H13.8955V4.50478H9.44889V2.28156H6.11377V4.50478H1.66748V2.28156H0V5.61627H15.5625V2.28156Z" fill="#B6BAD9"/>
<path fill-rule="evenodd" clip-rule="evenodd" d="M12.784 1.72597C12.784 1.11224 12.2863 0.614482 11.672 0.614482C11.0583 0.614482 10.5605 1.11224 10.5605 1.72597V3.39362H12.784V1.72597Z" fill="#B6BAD9"/>
</svg>
