<svg width="18" height="22" viewBox="0 0 18 22" fill="none" xmlns="http://www.w3.org/2000/svg">
<path fill-rule="evenodd" clip-rule="evenodd" d="M8.09899 10.791C8.21302 10.791 8.32705 10.7454 8.39538 10.654L9.71872 8.85195L10.8365 9.67332C10.9051 9.74164 11.0191 9.76428 11.1105 9.74166C11.2014 9.7187 11.2929 9.67337 11.3384 9.6047L12.6616 7.8252L13.0266 8.09899C13.0953 8.16766 13.2092 8.16764 13.3006 8.12193C13.3915 8.07623 13.4373 7.98497 13.4602 7.89368L13.5059 6.43358C13.5059 6.34229 13.4602 6.27391 13.3915 6.20547C13.3232 6.15988 13.232 6.1372 13.1409 6.15993L11.7718 6.63889C11.6808 6.66186 11.6122 6.75291 11.5894 6.8442C11.5665 6.93561 11.6122 7.02693 11.7035 7.09525L12.0685 7.36891L10.9508 8.87468L9.83274 8.05331C9.76441 8.00795 9.65038 7.96235 9.55909 7.98497C9.4678 8.00793 9.3764 8.05326 9.3307 8.12193L7.77966 10.198C7.6654 10.3578 7.68832 10.5857 7.84794 10.6997C7.93934 10.7684 8.03032 10.791 8.09899 10.791Z" fill="#3366FF"/>
<path fill-rule="evenodd" clip-rule="evenodd" d="M7.9849 13.3005H8.98884C9.12549 13.3005 9.2399 13.1865 9.2399 13.0499V11.7265C9.2399 11.5895 9.12549 11.4755 8.98884 11.4755H7.9849C7.84813 11.4755 7.73419 11.5895 7.73419 11.7265V13.0499C7.73419 13.1865 7.84813 13.3005 7.9849 13.3005Z" fill="#3366FF"/>
<path fill-rule="evenodd" clip-rule="evenodd" d="M10.2201 10.4945C10.0835 10.4945 9.96942 10.6088 9.96942 10.7455V13.0499C9.96942 13.1865 10.0835 13.3005 10.2201 13.3005H11.2242C11.3609 13.3005 11.4751 13.1865 11.4751 13.0499V10.7455C11.4751 10.6088 11.3609 10.4945 11.2242 10.4945H10.2201Z" fill="#3366FF"/>
<path fill-rule="evenodd" clip-rule="evenodd" d="M12.433 9.51369C12.296 9.51369 12.1821 9.62774 12.1821 9.7644V13.0499C12.1821 13.1865 12.296 13.3005 12.433 13.3005H13.4368C13.5738 13.3005 13.6878 13.1865 13.6878 13.0499V9.7644C13.6878 9.62774 13.5738 9.51369 13.4368 9.51369H12.433Z" fill="#3366FF"/>
<path fill-rule="evenodd" clip-rule="evenodd" d="M17.3841 3.44511H14.5323V0.593328C14.5323 0.273977 14.2587 0 13.9393 0H0.593049C0.273698 0 0 0.273977 0 0.593328V17.6353C0 17.9547 0.273698 18.2283 0.593049 18.2283H3.44476V21.0801C3.44476 21.3995 3.71854 21.6734 4.03823 21.6734H17.407C17.7264 21.6734 18 21.3995 18 21.0801V4.03816C17.9774 3.71881 17.7264 3.44511 17.3841 3.44511ZM3.44476 4.03816V17.0419H1.18638V1.18638H13.3462V3.44511H4.03823C3.6958 3.44511 3.44476 3.71881 3.44476 4.03816ZM16.7911 20.4871H4.63121V4.63149H16.7911V20.4871Z" fill="#3366FF"/>
<path fill-rule="evenodd" clip-rule="evenodd" d="M7.2318 16.0157H14.167C14.4867 16.0157 14.7604 15.7416 14.7604 15.4223C14.7604 15.1029 14.4867 14.8293 14.167 14.8293H7.2318C6.91245 14.8293 6.63875 15.1029 6.63875 15.4223C6.63875 15.7646 6.91245 16.0157 7.2318 16.0157Z" fill="#3366FF"/>
<path fill-rule="evenodd" clip-rule="evenodd" d="M7.2318 18.6846H14.167C14.4867 18.6846 14.7604 18.4109 14.7604 18.0916C14.7604 17.7722 14.4867 17.4982 14.167 17.4982H7.2318C6.91245 17.4982 6.63875 17.7722 6.63875 18.0916C6.63875 18.4109 6.91245 18.6846 7.2318 18.6846Z" fill="#3366FF"/>
</svg>
