<svg width="113" height="159" viewBox="0 0 113 159" fill="none" xmlns="http://www.w3.org/2000/svg">
<path fill-rule="evenodd" clip-rule="evenodd" d="M70.4873 0.112793V42.1605H112.632L70.4873 0.112793Z" fill="#3F4453"/>
<path fill-rule="evenodd" clip-rule="evenodd" d="M5.5945 0.112305H70.6498V42.1604H112.606V153.329C112.606 156.075 110.355 158.321 107.602 158.321H5.5945C2.84232 158.321 0.59082 156.075 0.59082 153.329V5.10431C0.59082 2.3584 2.84232 0.112305 5.5945 0.112305Z" fill="#0F1430"/>
<path fill-rule="evenodd" clip-rule="evenodd" d="M55.93 84.3282L59.7457 89.5817C59.9406 89.8882 60.1799 90.1543 60.3883 90.4585C60.5304 90.6657 60.9588 91.1948 61.0136 91.3819L50.8402 91.3815L51.7612 90.0419C51.8519 89.9032 51.9859 89.7619 52.0913 89.6133C52.446 89.1127 55.7351 84.4981 55.93 84.3282ZM44.1067 84.304L44.1107 84.6617L44.0988 85.8292C44.1011 85.9898 44.143 86.1227 44.055 86.2305L42.8156 86.2332L42.5122 86.2343L42.2618 86.2336L42.2378 78.4968L44.1075 78.4903L44.1067 84.304ZM45.1336 84.0502L45.1274 83.8092L45.1281 78.183C45.1108 77.2842 44.521 77.6416 43.6861 77.5407L43.6856 74.9603C43.9979 74.7693 44.5835 74.5244 44.9653 74.3573L48.8956 72.5456C49.4232 72.2903 53.9702 70.172 54.1752 70.1666L48.7501 91.3777L48.0429 91.3769L47.3967 87.3553C47.3878 87.1646 47.3383 86.9317 47.2947 86.7284C47.2434 86.4912 47.2225 86.413 47.0156 86.3113C46.9075 86.1727 46.4209 86.237 46.197 86.232L45.1262 86.2305L45.1398 85.2578L45.1336 84.0502ZM66.579 64.7915C66.5875 64.9209 66.5412 64.9155 66.6559 64.8808L66.8083 65.2293C66.9114 65.4523 67.8255 67.0122 67.9208 67.0834L67.9911 67.1704C67.9683 67.3383 67.9552 67.2471 68.044 67.2856C68.0606 67.4354 68.0226 67.3202 68.1072 67.4712C68.1411 67.532 68.1921 67.5859 68.2388 67.6625C68.3334 67.8173 68.3295 67.8736 68.4739 68.0249C68.5159 68.1855 69.4822 69.7997 69.6115 69.9683L70.3418 69.9976L70.3414 91.3815L63.1074 91.38L57.65 70.0172C58.349 69.6083 58.947 68.9413 59.0779 67.8454L64.5534 65.3502C65.1714 65.0653 65.7603 64.7819 66.3644 64.5169L66.579 64.7915ZM56.8232 83.0822L58.1611 81.193C58.3101 80.9886 58.4737 80.786 58.6169 80.5896L60.5972 88.2883C60.2876 87.956 59.9313 87.4184 59.6441 87.0149C59.4943 86.8046 59.3492 86.6075 59.1871 86.3884L56.8232 83.0822ZM51.2837 88.2852L53.2245 80.6031C53.3897 80.7082 53.4928 80.9119 53.6071 81.0679L54.9925 82.994C55.0905 83.1915 54.2949 84.1192 54.0752 84.4272L53.0609 85.852C52.519 86.6117 51.7735 87.5366 51.2837 88.2852ZM55.93 70.4943C56.0767 70.5563 55.9825 70.482 56.0624 70.6079C56.0875 70.6472 56.1149 70.76 56.128 70.8128L58.0183 78.2203C58.1951 78.8742 58.2616 78.642 57.6247 79.5107C57.3533 79.8807 57.059 80.2893 56.7869 80.6813C56.6576 80.8673 56.025 81.7556 55.93 81.8257L53.836 78.9824C53.6302 78.6951 53.7283 78.6489 53.8233 78.2615C53.9541 77.7305 54.0827 77.223 54.2278 76.6962L55.6244 71.2321C55.7363 70.7893 55.7166 70.5817 55.93 70.4943ZM55.5722 66.3845C57.3922 65.9128 58.1538 68.4874 56.2767 68.909C54.9836 69.1993 54.0151 67.9028 54.7327 66.9382C54.955 66.639 55.0781 66.5123 55.5722 66.3845ZM64.8363 61.9224L63.0606 62.7506C62.4689 63.0229 61.8616 63.2882 61.2687 63.5778C60.6481 63.8808 60.0853 64.1141 59.475 64.4022C57.0652 65.5393 58.002 65.2574 56.9282 64.9278C56.1064 64.6756 55.0871 64.7734 54.3726 65.1504C54.1908 65.2463 53.8788 65.47 53.7761 65.5516C53.1639 66.0399 52.8903 66.7384 52.7702 67.5027C52.3989 67.6163 50.5117 68.5409 49.9327 68.7931C49.2521 69.0892 41.6897 72.6238 41.4002 72.6942C41.4882 72.9753 41.7843 73.4551 41.931 73.7096C42.7022 75.0493 42.6644 74.7235 42.6644 76.0466C42.6644 76.5314 42.6434 77.0547 42.6696 77.5345C42.2941 77.6007 41.7124 77.4633 41.4233 77.66C41.1268 77.8618 41.2172 78.31 41.2172 78.7043L41.2141 86.2359C38.7237 86.2359 39.1397 85.8081 38.744 88.936C38.6502 89.6772 38.5275 90.4192 38.4352 91.1597C38.3692 91.6888 38.1107 92.9391 38.1531 93.3823L73.0438 93.3804L73.0492 91.4073L71.355 91.3807L71.3547 70.0407L72.051 70.0577C72.2602 68.2733 72.3459 66.8173 71.858 65.0695C71.2848 63.0167 70.6676 61.9347 69.5786 60.3024C69.3814 60.0063 69.1687 59.7821 68.9672 59.5037C68.7696 59.2311 68.5325 58.9789 68.3133 58.7398C68.0697 58.4737 67.8393 58.2134 67.5853 57.9916C66.8924 57.3882 65.218 56.0774 63.5867 56.1171L62.8468 57.6073C62.5762 58.1506 62.4767 57.9716 63.1672 59.0752L64.8363 61.9224Z" fill="#82BAFF"/>
<path fill-rule="evenodd" clip-rule="evenodd" d="M110.298 116.58H112.606V149.051H110.298C109.379 149.051 108.627 148.302 108.627 147.385V118.246C108.627 117.329 109.379 116.58 110.298 116.58Z" fill="#24FCFC"/>
</svg>
