<svg width="113" height="159" viewBox="0 0 113 159" fill="none" xmlns="http://www.w3.org/2000/svg">
<path fill-rule="evenodd" clip-rule="evenodd" d="M70.4873 0.112793V42.1605H112.632L70.4873 0.112793Z" fill="#3F4453"/>
<path fill-rule="evenodd" clip-rule="evenodd" d="M5.5945 0.112305H70.6498V42.1604H112.606V153.329C112.606 156.075 110.355 158.321 107.602 158.321H5.5945C2.84232 158.321 0.59082 156.075 0.59082 153.329V5.10431C0.59082 2.3584 2.84232 0.112305 5.5945 0.112305Z" fill="#0F1430"/>
<path fill-rule="evenodd" clip-rule="evenodd" d="M55.93 84.3282L59.7457 89.5817C59.9406 89.8882 60.1799 90.1543 60.3883 90.4585C60.5304 90.6657 60.9588 91.1948 61.0136 91.3819L50.8402 91.3815L51.7612 90.0419C51.8519 89.9032 51.9859 89.7619 52.0913 89.6133C52.446 89.1127 55.7351 84.4981 55.93 84.3282ZM44.1067 84.304L44.1107 84.6617L44.0988 85.8292C44.1011 85.9898 44.143 86.1227 44.055 86.2305L42.8156 86.2332L42.5122 86.2343L42.2618 86.2336L42.2378 78.4968L44.1075 78.4903L44.1067 84.304ZM45.1336 84.0502L45.1274 83.8092L45.1281 78.183C45.1108 77.2842 44.521 77.6416 43.6861 77.5407L43.6856 74.9603C43.9979 74.7693 44.5835 74.5244 44.9653 74.3573L48.8956 72.5456C49.4232 72.2903 53.9702 70.172 54.1752 70.1666L48.7501 91.3777L48.0429 91.3769L47.3967 87.3553C47.3878 87.1646 47.3383 86.9317 47.2947 86.7284C47.2434 86.4912 47.2225 86.413 47.0156 86.3113C46.9075 86.1727 46.4209 86.237 46.197 86.232L45.1262 86.2305L45.1398 85.2578L45.1336 84.0502ZM66.579 64.7915C66.5875 64.9209 66.5412 64.9155 66.6559 64.8808L66.8083 65.2293C66.9114 65.4523 67.8255 67.0122 67.9208 67.0834L67.9911 67.1704C67.9683 67.3383 67.9552 67.2471 68.044 67.2856C68.0606 67.4354 68.0226 67.3202 68.1072 67.4712C68.1411 67.532 68.1921 67.5859 68.2388 67.6625C68.3334 67.8173 68.3295 67.8736 68.4739 68.0249C68.5159 68.1855 69.4822 69.7997 69.6115 69.9683L70.3418 69.9976L70.3414 91.3815L63.1074 91.38L57.65 70.0172C58.349 69.6083 58.947 68.9413 59.0779 67.8454L64.5534 65.3502C65.1714 65.0653 65.7603 64.7819 66.3644 64.5169L66.579 64.7915ZM56.8232 83.0822L58.1611 81.193C58.3101 80.9886 58.4737 80.786 58.6169 80.5896L60.5972 88.2883C60.2876 87.956 59.9313 87.4184 59.6441 87.0149C59.4943 86.8046 59.3492 86.6075 59.1871 86.3884L56.8232 83.0822ZM51.2837 88.2852L53.2245 80.6031C53.3897 80.7082 53.4928 80.9119 53.6071 81.0679L54.9925 82.994C55.0905 83.1915 54.2949 84.1192 54.0752 84.4272L53.0609 85.852C52.519 86.6117 51.7735 87.5366 51.2837 88.2852ZM55.93 70.4943C56.0767 70.5563 55.9825 70.482 56.0624 70.6079C56.0875 70.6472 56.1149 70.76 56.128 70.8128L58.0183 78.2203C58.1951 78.8742 58.2616 78.642 57.6247 79.5107C57.3533 79.8807 57.059 80.2893 56.7869 80.6813C56.6576 80.8673 56.025 81.7556 55.93 81.8257L53.836 78.9824C53.6302 78.6951 53.7283 78.6489 53.8233 78.2615C53.9541 77.7305 54.0827 77.223 54.2278 76.6962L55.6244 71.2321C55.7363 70.7893 55.7166 70.5817 55.93 70.4943ZM55.5722 66.3845C57.3922 65.9128 58.1538 68.4874 56.2767 68.909C54.9836 69.1993 54.0151 67.9028 54.7327 66.9382C54.955 66.639 55.0781 66.5123 55.5722 66.3845ZM64.8363 61.9224L63.0606 62.7506C62.4689 63.0229 61.8616 63.2882 61.2687 63.5778C60.6481 63.8808 60.0853 64.1141 59.475 64.4022C57.0652 65.5393 58.002 65.2574 56.9282 64.9278C56.1064 64.6756 55.0871 64.7734 54.3726 65.1504C54.1908 65.2463 53.8788 65.47 53.7761 65.5516C53.1639 66.0399 52.8903 66.7384 52.7702 67.5027C52.3989 67.6163 50.5117 68.5409 49.9327 68.7931C49.2521 69.0892 41.6897 72.6238 41.4002 72.6942C41.4882 72.9753 41.7843 73.4551 41.931 73.7096C42.7022 75.0493 42.6644 74.7235 42.6644 76.0466C42.6644 76.5314 42.6434 77.0547 42.6696 77.5345C42.2941 77.6007 41.7124 77.4633 41.4233 77.66C41.1268 77.8618 41.2172 78.31 41.2172 78.7043L41.2141 86.2359C38.7237 86.2359 39.1397 85.8081 38.744 88.936C38.6502 89.6772 38.5275 90.4192 38.4352 91.1597C38.3692 91.6888 38.1107 92.9391 38.1531 93.3823L73.0438 93.3804L73.0492 91.4073L71.355 91.3807L71.3547 70.0407L72.051 70.0577C72.2602 68.2733 72.3459 66.8173 71.858 65.0695C71.2848 63.0167 70.6676 61.9347 69.5786 60.3024C69.3814 60.0063 69.1687 59.7821 68.9672 59.5037C68.7696 59.2311 68.5325 58.9789 68.3133 58.7398C68.0697 58.4737 67.8393 58.2134 67.5853 57.9916C66.8924 57.3882 65.218 56.0774 63.5867 56.1171L62.8468 57.6073C62.5762 58.1506 62.4767 57.9716 63.1672 59.0752L64.8363 61.9224Z" fill="#82BAFF"/>
<path d="M16.0919 115.744C16.5386 115.744 16.9452 115.804 17.3119 115.924C17.6786 116.044 17.9852 116.208 18.2319 116.414C18.4786 116.614 18.6786 116.821 18.8319 117.034C18.9919 117.248 19.1219 117.474 19.2219 117.714H18.2819C18.1086 117.348 17.8319 117.051 17.4519 116.824C17.0786 116.598 16.6219 116.484 16.0819 116.484C15.3552 116.484 14.7319 116.741 14.2119 117.254C13.6919 117.768 13.4319 118.471 13.4319 119.364C13.4319 120.184 13.6852 120.874 14.1919 121.434C14.7052 121.988 15.3519 122.264 16.1319 122.264C16.6786 122.264 17.1419 122.144 17.5219 121.904C17.9086 121.658 18.1952 121.324 18.3819 120.904H19.3219C18.6619 122.304 17.5852 123.004 16.0919 123.004C15.0519 123.004 14.2052 122.661 13.5519 121.974C12.8986 121.281 12.5719 120.408 12.5719 119.354C12.5719 118.314 12.9086 117.454 13.5819 116.774C14.2552 116.088 15.0919 115.744 16.0919 115.744ZM20.5186 122.784V117.994H21.3086V120.184L23.5386 117.994H24.5086L22.2286 120.234L24.5786 122.784H23.5586L21.3086 120.314V122.784H20.5186ZM25.3233 122.784V117.994H27.1333C27.6266 117.994 28.0133 118.101 28.2933 118.314C28.5733 118.521 28.7133 118.818 28.7133 119.204C28.7133 119.418 28.65 119.614 28.5233 119.794C28.4033 119.968 28.2133 120.094 27.9533 120.174C28.3466 120.248 28.6333 120.391 28.8133 120.604C29 120.818 29.0933 121.068 29.0933 121.354C29.0933 121.788 28.9366 122.134 28.6233 122.394C28.3166 122.654 27.89 122.784 27.3433 122.784H25.3233ZM27.2733 120.614H26.0833V122.124H27.3933C27.6933 122.124 27.92 122.051 28.0733 121.904C28.2266 121.758 28.3033 121.578 28.3033 121.364C28.3033 120.864 27.96 120.614 27.2733 120.614ZM27.0833 118.654H26.0833V119.954H26.9733C27.6133 119.954 27.9333 119.731 27.9333 119.284C27.9333 118.864 27.65 118.654 27.0833 118.654ZM34.8961 117.994V122.784H34.1061V122.144H34.0861C33.6394 122.684 33.0561 122.954 32.3361 122.954C31.6628 122.954 31.0828 122.718 30.5961 122.244C30.1161 121.764 29.8761 121.144 29.8761 120.384C29.8761 119.644 30.1128 119.034 30.5861 118.554C31.0661 118.074 31.6661 117.834 32.3861 117.834C33.0461 117.834 33.6161 118.118 34.0961 118.684H34.1061V117.994H34.8961ZM31.1561 119.084C30.8494 119.451 30.6961 119.884 30.6961 120.384C30.6961 120.884 30.8494 121.321 31.1561 121.694C31.4628 122.068 31.8928 122.254 32.4461 122.254C32.9128 122.254 33.3161 122.081 33.6561 121.734C34.0028 121.381 34.1761 120.941 34.1761 120.414C34.1761 119.854 34.0094 119.401 33.6761 119.054C33.3494 118.701 32.9461 118.524 32.4661 118.524C31.8994 118.524 31.4628 118.711 31.1561 119.084ZM38.3803 122.784V120.314L36.4803 122.784H35.5103L37.5403 120.234L35.6003 117.994H36.5003L38.3803 120.184V117.994H39.1703V120.184L41.0503 117.994H41.9503L40.0103 120.234L42.0403 122.784H41.0703L39.1703 120.314V122.784H38.3803ZM42.6475 122.784V117.994H43.4375V120.164C43.4375 120.751 43.4275 121.241 43.4075 121.634H43.4275C43.5275 121.448 43.7509 121.131 44.0975 120.684L46.1475 117.994H46.8575V122.784H46.0675V120.614C46.0675 120.028 46.0775 119.538 46.0975 119.144H46.0775C45.9775 119.331 45.7542 119.648 45.4075 120.094L43.3575 122.784H42.6475ZM52.4435 117.994V122.784H51.6535V120.614H49.0235V122.784H48.2335V117.994H49.0235V119.954H51.6535V117.994H52.4435ZM58.5094 117.994V122.784H57.7194V122.144H57.6994C57.2527 122.684 56.6694 122.954 55.9494 122.954C55.2761 122.954 54.6961 122.718 54.2094 122.244C53.7294 121.764 53.4894 121.144 53.4894 120.384C53.4894 119.644 53.7261 119.034 54.1994 118.554C54.6794 118.074 55.2794 117.834 55.9994 117.834C56.6594 117.834 57.2294 118.118 57.7094 118.684H57.7194V117.994H58.5094ZM54.7694 119.084C54.4627 119.451 54.3094 119.884 54.3094 120.384C54.3094 120.884 54.4627 121.321 54.7694 121.694C55.0761 122.068 55.5061 122.254 56.0594 122.254C56.5261 122.254 56.9294 122.081 57.2694 121.734C57.6161 121.381 57.7894 120.941 57.7894 120.414C57.7894 119.854 57.6227 119.401 57.2894 119.054C56.9627 118.701 56.5594 118.524 56.0794 118.524C55.5127 118.524 55.0761 118.711 54.7694 119.084Z" fill="#FEFEFE"/>
<path d="M16.0487 141.649C14.9567 141.649 14.0747 141.323 13.4027 140.669C12.74 140.016 12.4087 138.98 12.4087 137.561V131.793H14.4107V137.715C14.4107 138.415 14.5507 138.961 14.8307 139.353C15.12 139.745 15.5213 139.941 16.0347 139.941C17.136 139.941 17.6867 139.199 17.6867 137.715V131.793H19.6747V137.533C19.6747 138.943 19.348 139.983 18.6947 140.655C18.0507 141.318 17.1687 141.649 16.0487 141.649ZM21.2534 133.529V131.793H28.3934V133.431L23.5214 139.605H28.6174V141.341H21.0154V139.717L25.8734 133.529H21.2534ZM31.8254 134.789H31.7694C31.8067 135.984 31.8254 136.586 31.8254 136.595V141.341H30.1034V131.793H31.8254L34.4854 135.895C35.008 136.698 35.5027 137.538 35.9694 138.415H36.0114C35.9834 137.463 35.9694 136.889 35.9694 136.693V131.793H37.6914V141.341H35.9694L33.5334 137.603C32.908 136.623 32.3387 135.685 31.8254 134.789ZM38.6396 144.673V143.329H46.3396V144.673H38.6396ZM46.7149 138.163C46.7149 137.603 46.8269 137.067 47.0509 136.553C47.2749 136.04 47.5969 135.48 48.0169 134.873L50.1869 131.793H52.3289L50.2289 134.775C50.3316 134.738 50.5369 134.719 50.8449 134.719C51.7502 134.757 52.4969 135.097 53.0849 135.741C53.6822 136.385 53.9809 137.193 53.9809 138.163C53.9809 139.143 53.6356 139.969 52.9449 140.641C52.2636 141.313 51.3909 141.649 50.3269 141.649C49.2536 141.649 48.3809 141.327 47.7089 140.683C47.0462 140.03 46.7149 139.19 46.7149 138.163ZM48.6889 138.177C48.6889 138.7 48.8476 139.129 49.1649 139.465C49.4822 139.792 49.8742 139.955 50.3409 139.955C50.8169 139.955 51.2136 139.792 51.5309 139.465C51.8482 139.129 52.0069 138.7 52.0069 138.177C52.0069 137.664 51.8482 137.235 51.5309 136.889C51.2229 136.544 50.8262 136.371 50.3409 136.371C49.8556 136.371 49.4589 136.539 49.1509 136.875C48.8429 137.202 48.6889 137.636 48.6889 138.177ZM54.7963 136.525C54.7963 135.648 54.9036 134.873 55.1183 134.201C55.333 133.52 55.6176 132.993 55.9723 132.619C56.3363 132.237 56.7236 131.952 57.1343 131.765C57.5543 131.579 57.993 131.485 58.4503 131.485C58.8796 131.485 59.2903 131.569 59.6823 131.737C60.0743 131.905 60.443 132.171 60.7883 132.535C61.143 132.899 61.423 133.422 61.6283 134.103C61.843 134.775 61.9503 135.564 61.9503 136.469C61.9503 137.272 61.8663 137.991 61.6983 138.625C61.5396 139.26 61.3343 139.764 61.0823 140.137C60.8396 140.501 60.555 140.805 60.2283 141.047C59.9016 141.29 59.589 141.453 59.2903 141.537C58.9916 141.621 58.693 141.663 58.3943 141.663C57.9556 141.663 57.5356 141.579 57.1343 141.411C56.7423 141.243 56.3596 140.977 55.9863 140.613C55.6223 140.24 55.333 139.703 55.1183 139.003C54.9036 138.303 54.7963 137.477 54.7963 136.525ZM59.9763 136.525C59.9763 135.424 59.8316 134.593 59.5423 134.033C59.2623 133.464 58.875 133.179 58.3803 133.179C57.9323 133.179 57.5543 133.45 57.2463 133.991C56.9383 134.533 56.7843 135.363 56.7843 136.483C56.7843 137.678 56.929 138.56 57.2183 139.129C57.517 139.689 57.9183 139.969 58.4223 139.969C58.8516 139.969 59.2156 139.689 59.5143 139.129C59.8223 138.569 59.9763 137.701 59.9763 136.525ZM62.7657 138.163C62.7657 137.603 62.8777 137.067 63.1017 136.553C63.3257 136.04 63.6477 135.48 64.0677 134.873L66.2377 131.793H68.3797L66.2797 134.775C66.3824 134.738 66.5877 134.719 66.8957 134.719C67.801 134.757 68.5477 135.097 69.1357 135.741C69.733 136.385 70.0317 137.193 70.0317 138.163C70.0317 139.143 69.6864 139.969 68.9957 140.641C68.3144 141.313 67.4417 141.649 66.3777 141.649C65.3044 141.649 64.4317 141.327 63.7597 140.683C63.097 140.03 62.7657 139.19 62.7657 138.163ZM64.7397 138.177C64.7397 138.7 64.8984 139.129 65.2157 139.465C65.533 139.792 65.925 139.955 66.3917 139.955C66.8677 139.955 67.2644 139.792 67.5817 139.465C67.899 139.129 68.0577 138.7 68.0577 138.177C68.0577 137.664 67.899 137.235 67.5817 136.889C67.2737 136.544 66.877 136.371 66.3917 136.371C65.9064 136.371 65.5097 136.539 65.2017 136.875C64.8937 137.202 64.7397 137.636 64.7397 138.177ZM77.5811 131.793V133.389L73.9551 141.341H71.8271L75.5651 133.501H71.3091V131.793H77.5811Z" fill="#82BAFF"/>
<path fill-rule="evenodd" clip-rule="evenodd" d="M110.298 116.58H112.606V149.051H110.298C109.379 149.051 108.627 148.302 108.627 147.385V118.246C108.627 117.329 109.379 116.58 110.298 116.58Z" fill="#24FCFC"/>
</svg>
