<svg width="17" height="17" viewBox="0 0 17 17" fill="none" xmlns="http://www.w3.org/2000/svg">
<path fill-rule="evenodd" clip-rule="evenodd" d="M9.95355 1.82213C7.22991 1.82213 5.02236 4.02471 5.02236 6.74135C5.02236 8.11796 5.5883 9.36134 6.50274 10.2551C7.39287 11.1253 8.60948 11.6606 9.95355 11.6606C12.6772 11.6606 14.885 9.458 14.885 6.74135C14.885 4.02471 12.6772 1.82213 9.95355 1.82213ZM3.19624 6.74135C3.19624 3.01814 6.22167 0 9.95355 0C13.6858 0 16.7113 3.01814 16.7113 6.74135C16.7113 10.4646 13.6858 13.4827 9.95355 13.4827C8.43578 13.4827 7.03415 12.9825 5.90625 12.14L1.82699 16.1366L0.546997 14.8366L4.60515 10.8616C3.72236 9.72292 3.19624 8.29278 3.19624 6.74135Z" fill="white"/>
</svg>
