<svg width="12" height="14" viewBox="0 0 12 14" fill="none" xmlns="http://www.w3.org/2000/svg">
<path d="M5.67379 13.9728C2.63312 13.9728 0.340454 12.6828 0.340454 10.9728V3.30609H0.371787C0.604934 2.43959 1.23036 1.73225 2.06179 1.39476C3.19258 0.871283 4.42799 0.612936 5.67379 0.639422C8.71445 0.639422 11.0071 1.92942 11.0071 3.63942C11.0065 3.75126 10.9957 3.86282 10.9751 3.97276H11.0071V10.9728C11.0071 12.6828 8.71445 13.9728 5.67379 13.9728ZM1.52512 5.56876V10.9728C1.52512 11.6521 3.14045 12.6394 5.67379 12.6394C8.20712 12.6394 9.82179 11.6521 9.82179 10.9728V5.56876C8.57185 6.31958 7.13092 6.69144 5.67379 6.63944C4.21644 6.69138 2.77532 6.31944 1.52512 5.56876ZM5.67379 1.97276C3.14045 1.97276 1.52512 2.96009 1.52512 3.63942C1.52512 4.31876 3.14045 5.30609 5.67379 5.30609C8.20712 5.30609 9.82179 4.31876 9.82179 3.63942C9.82179 2.96009 8.20712 1.97276 5.67379 1.97276Z" fill="#237DEB"/>
</svg>
