<svg width="16" height="14" viewBox="0 0 16 14" fill="none" xmlns="http://www.w3.org/2000/svg">
<path fill-rule="evenodd" clip-rule="evenodd" d="M14.4243 1.02426C14.6586 0.78995 14.6586 0.41005 14.4243 0.175736C14.19 -0.0585786 13.8101 -0.0585786 13.5757 0.175736L0.775736 12.9757C0.541421 13.2101 0.541421 13.59 0.775736 13.8243C1.01005 14.0586 1.38995 14.0586 1.62426 13.8243L4.05228 11.3963C5.10653 11.8826 6.31348 12.2 7.6 12.2C9.69422 12.2 11.5776 11.3589 12.9347 10.3173C13.6141 9.79585 14.1717 9.2167 14.5628 8.65306C14.9465 8.10015 15.2 7.51877 15.2 7C15.2 6.48123 14.9465 5.89985 14.5628 5.34694C14.1717 4.7833 13.6141 4.20415 12.9347 3.68268C12.7182 3.51654 12.4884 3.35549 12.2464 3.20215L14.4243 1.02426ZM10.103 5.34557L9.22458 6.22395C9.33703 6.45893 9.4 6.72211 9.4 7C9.4 7.99411 8.59411 8.8 7.6 8.8C7.32211 8.8 7.05893 8.73703 6.82395 8.62458L5.94557 9.50296C6.41983 9.81707 6.98855 10 7.6 10C9.25685 10 10.6 8.65685 10.6 7C10.6 6.38855 10.4171 5.81983 10.103 5.34557Z" fill="#BBBFE2"/>
<path d="M8.10842 4.0429C8.19234 4.05723 8.27892 4.03256 8.33911 3.97236L9.82143 2.49005C9.95378 2.3577 9.89881 2.13294 9.71804 2.08435C9.04727 1.90408 8.33668 1.8 7.6 1.8C5.50578 1.8 3.62241 2.64111 2.26529 3.68268C1.58585 4.20415 1.02835 4.7833 0.637192 5.34694C0.253488 5.89985 0 6.48123 0 7C0 7.51877 0.253488 8.10015 0.637192 8.65306C0.964055 9.12405 1.40708 9.60588 1.94034 10.0558C2.03778 10.138 2.1816 10.1299 2.27174 10.0397L4.57236 7.73911C4.63256 7.67892 4.65723 7.59234 4.6429 7.50842C4.61469 7.34317 4.6 7.1733 4.6 7C4.6 5.34315 5.94315 4 7.6 4C7.7733 4 7.94317 4.01469 8.10842 4.0429Z" fill="#BBBFE2"/>
</svg>
