<svg width="15" height="13" viewBox="0 0 15 13" fill="none" xmlns="http://www.w3.org/2000/svg">
<path fill-rule="evenodd" clip-rule="evenodd" d="M10.4004 11.2792V9.46284C10.4004 9.38126 10.5238 9.25782 10.6054 9.25782H13.623C13.7046 9.25782 13.8281 9.38126 13.8281 9.46284V11.2792C13.8281 11.4591 13.6887 11.543 13.5059 11.543H10.7227C10.5398 11.543 10.4004 11.4591 10.4004 11.2792ZM5.77147 11.1914V9.6094C5.77147 9.42522 5.84932 9.25782 6.03517 9.25782H8.96481C9.15066 9.25782 9.22854 9.42522 9.22854 9.6094V11.1914C9.22854 11.3938 9.13461 11.543 8.93551 11.543H6.06447C5.86536 11.543 5.77147 11.3938 5.77147 11.1914ZM10.4004 7.82223V6.00583C10.4004 5.92425 10.5238 5.80074 10.6054 5.80074H13.623C13.7046 5.80074 13.8281 5.92425 13.8281 6.00583V7.82223C13.8281 8.03118 13.6579 8.08594 13.4472 8.08594H10.752C10.5678 8.08594 10.4004 8.00808 10.4004 7.82223ZM5.77147 7.73438V6.18163C5.77147 5.97094 5.82622 5.80074 6.03517 5.80074H8.96481C9.17379 5.80074 9.22854 5.97094 9.22854 6.18163V7.73438C9.22854 7.97552 9.11809 8.08594 8.87695 8.08594H6.12303C5.88188 8.08594 5.77147 7.97552 5.77147 7.73438ZM10.4004 4.36523V2.54883C10.4004 2.37278 10.6429 2.31443 10.8105 2.31443H13.418C13.6293 2.31443 13.8281 2.36686 13.8281 2.57813V4.36523C13.8281 4.57651 13.6293 4.62886 13.418 4.62886H10.8105C10.5992 4.62886 10.4004 4.57651 10.4004 4.36523ZM5.77147 4.27737V2.7246C5.77147 2.38309 5.90221 2.31443 6.24026 2.31443H8.75972C9.09777 2.31443 9.22854 2.38309 9.22854 2.7246V4.27737C9.22854 4.53914 9.08026 4.62886 8.81835 4.62886H6.18163C5.91971 4.62886 5.77147 4.53914 5.77147 4.27737ZM0 1.34765V11.3672C0 11.4943 0.0282975 11.5743 0.054616 11.6641L0.154669 11.9156C0.258439 12.1033 0.317331 12.1867 0.473057 12.3296C0.743762 12.5781 1.04198 12.7148 1.55275 12.7148H13.4472C13.9405 12.7148 14.2462 12.5852 14.5114 12.3434C14.52 12.3356 14.5571 12.3023 14.5576 12.3018L14.6848 12.1652C14.7518 12.0889 14.7826 12.0297 14.8349 11.9345C14.8522 11.9029 14.8852 11.8466 14.8963 11.8202L15 11.3672V1.34765L14.9047 0.915669C14.8833 0.859649 14.8821 0.865787 14.8453 0.799238L14.5576 0.413039C14.2802 0.145859 13.9699 -2.38419e-05 13.4472 -2.38419e-05H1.55275C1.05944 -2.38419e-05 0.753812 0.129594 0.488583 0.371395L0.165125 0.78032C0.0739968 0.946315 0 1.1602 0 1.34765Z" fill="#BBBFE2"/>
</svg>
