<svg width="21" height="17" viewBox="0 0 21 17" fill="none" xmlns="http://www.w3.org/2000/svg">
<path d="M7.70251 16.4058C8.59518 16.7281 9.53745 16.8769 10.4549 16.8769C13.3313 16.8769 16.1085 15.4139 17.6707 12.8847C17.7947 12.6863 17.7203 12.4383 17.5467 12.3143C17.3483 12.1904 17.1004 12.2647 16.9764 12.4383C15.1166 15.4387 11.3476 16.7777 8.00007 15.6123C5.14848 14.6204 3.18956 12.0168 2.9416 9.09081L4.45418 9.1156L2.56965 6.11523L0.585938 9.06601L2.07372 9.09081C2.32169 12.3639 4.50377 15.3147 7.70251 16.4058Z" fill="#999DC0"/>
<path d="M13.2563 0.461537C9.56162 -0.827877 5.37103 0.659908 3.28813 3.98263C3.16415 4.181 3.23854 4.42896 3.41211 4.55295C3.61048 4.67693 3.85845 4.60254 3.98243 4.42896C5.84216 1.4286 9.61122 0.0895905 12.9587 1.25502C15.7359 2.19729 17.6701 4.67693 18.0172 7.47892H16.6038L18.5131 10.4297L20.4473 7.47892H18.8603C18.4883 4.32978 16.3558 1.52778 13.2563 0.461537Z" fill="#999DC0"/>
<path d="M14.347 9.61139C14.347 7.57808 11.1979 3.90821 10.826 3.48667C10.7516 3.38748 10.6276 3.33789 10.5036 3.33789C10.3796 3.33789 10.2556 3.38748 10.1812 3.48667C9.8093 3.90821 6.66016 7.57808 6.66016 9.61139C6.66016 11.7687 8.37111 13.5044 10.5036 13.5044C12.6361 13.5044 14.347 11.7687 14.347 9.61139Z" fill="#999DC0"/>
</svg>
