<svg width="20" height="21" viewBox="0 0 20 21" fill="none" xmlns="http://www.w3.org/2000/svg">
<path d="M6.19 14.8846V14.7346H6.04H4.03V10.65H9.49V14.7346H7.48H7.33V14.8846V20V20.15H7.48H12.52H12.67V20V14.8846V14.7346H12.52H10.51V10.65H15.97V14.7346H13.96H13.81V14.8846V20V20.15H13.96H19H19.15V20V14.8846V14.7346H19H16.99V9.76923V9.61923H16.84H10.51V6.26538H12.52H12.67V6.11538V1V0.85H12.52H7.48H7.33V1V6.11538V6.26538H7.48H9.49V9.61923H3.16H3.01V9.76923V14.7346H1H0.85V14.8846V20V20.15H1H6.04H6.19V20V14.8846ZM18.13 15.7654V19.1192H14.83V15.7654H18.13ZM8.35 5.23462V1.88077H11.65V5.23462H8.35ZM11.65 15.7654V19.1192H8.35V15.7654H11.65ZM5.17 19.1192H1.87V15.7654H5.17V19.1192Z" fill="#3366FF" stroke="#3366FF" stroke-width="0.3"/>
</svg>
