<svg width="18" height="18" viewBox="0 0 18 18" fill="none" xmlns="http://www.w3.org/2000/svg">
<path d="M15.7879 13.2751V13.8751H15.1879H13.5003H12.9003V13.2751V2.40027H12.3381V1.80027V1.05026H11.8505V1.80027V2.40027H11.2879V11.25V11.85H10.6879H9.56289H8.96289V11.25V5.39236L8.43783 4.76237L7.91308 5.39228V13.2751V13.8751H7.31308H6.18807H5.58807V13.2751V8.13104L3.97531 6.58282V9.89999V10.5H3.37531H2.25066H1.65066V9.89999V2.63041L1.12555 1.6855L0.600488 2.6304V13.2751V14.6253V17.4H17.4005V14.6253V13.2751V7.87531C17.4005 7.48397 17.0628 7.12516 16.5942 7.12516C16.1255 7.12516 15.7879 7.48397 15.7879 7.87531V13.2751Z" stroke="#868BB2" stroke-width="1.2"/>
</svg>
