<svg width="35" height="43" viewBox="0 0 35 43" fill="none" xmlns="http://www.w3.org/2000/svg">
<path d="M1.61625 28.8337C1.96391 28.8304 2.30365 28.9376 2.58649 29.1397C2.86933 29.3419 3.08066 29.6287 3.19 29.9587C3.45833 30.8178 3.80391 31.6508 4.2225 32.4475C4.38208 32.7585 4.43819 33.1124 4.38265 33.4575C4.32712 33.8026 4.16284 34.121 3.91375 34.3663C3.76359 34.5163 3.64447 34.6945 3.5632 34.8907C3.48193 35.0868 3.4401 35.2971 3.4401 35.5094C3.4401 35.7217 3.48193 35.9319 3.5632 36.1281C3.64447 36.3242 3.76359 36.5024 3.91375 36.6525L6.3425 39.0813C6.49259 39.2314 6.6708 39.3505 6.86694 39.4318C7.06308 39.5131 7.27331 39.5549 7.48563 39.5549C7.69794 39.5549 7.90817 39.5131 8.10431 39.4318C8.30045 39.3505 8.47866 39.2314 8.62875 39.0813C8.87401 38.8322 9.19239 38.6679 9.53751 38.6123C9.88264 38.5568 10.2365 38.6129 10.5475 38.7725C11.3439 39.1909 12.1764 39.5364 13.035 39.805C13.3664 39.913 13.6549 40.1238 13.8585 40.4068C14.0621 40.6897 14.1703 41.0302 14.1675 41.3787C14.1668 41.5914 14.2082 41.8021 14.2891 41.9988C14.37 42.1955 14.489 42.3742 14.6391 42.5248C14.7893 42.6755 14.9677 42.795 15.1641 42.8765C15.3605 42.958 15.5711 43 15.7838 43H19.2163C19.4286 43.0002 19.6389 42.9585 19.8351 42.8773C20.0314 42.7962 20.2097 42.6772 20.3599 42.5271C20.5101 42.377 20.6293 42.1987 20.7106 42.0026C20.7919 41.8064 20.8337 41.5961 20.8337 41.3838C20.8309 41.0352 20.9392 40.6947 21.1428 40.4118C21.3464 40.1288 21.6348 39.918 21.9663 39.81C22.8248 39.5414 23.6574 39.1959 24.4538 38.7775C24.7648 38.6179 25.1186 38.5618 25.4637 38.6173C25.8089 38.6729 26.1272 38.8372 26.3725 39.0862C26.5226 39.2364 26.7008 39.3555 26.8969 39.4368C27.0931 39.5181 27.3033 39.5599 27.5156 39.5599C27.7279 39.5599 27.9382 39.5181 28.1343 39.4368C28.3304 39.3555 28.5087 39.2364 28.6587 39.0862L31.0875 36.6575C31.2377 36.5074 31.3568 36.3292 31.438 36.1331C31.5193 35.9369 31.5611 35.7267 31.5611 35.5144C31.5611 35.3021 31.5193 35.0918 31.438 34.8957C31.3568 34.6995 31.2377 34.5213 31.0875 34.3713C30.8384 34.126 30.6741 33.8076 30.6186 33.4625C30.5631 33.1174 30.6192 32.7635 30.7788 32.4525C31.2029 31.6457 31.5523 30.8018 31.8225 29.9313C31.9269 29.6093 32.1313 29.3291 32.4061 29.1314C32.6809 28.9338 33.0116 28.8291 33.35 28.8325H33.385C33.8134 28.8322 34.2242 28.6617 34.5271 28.3587C34.8299 28.0556 35 27.6447 35 27.2162V25.5H27.5C27.5 28.1522 26.4464 30.6957 24.5711 32.5711C22.6957 34.4464 20.1522 35.5 17.5 35.5C14.8478 35.5 12.3043 34.4464 10.4289 32.5711C8.55357 30.6957 7.5 28.1522 7.5 25.5H4.83412e-07V27.2162C-0.00016375 27.4286 0.041521 27.6389 0.122672 27.8351C0.203822 28.0314 0.322848 28.2097 0.472947 28.3599C0.623046 28.5101 0.801274 28.6293 0.997448 28.7106C1.19362 28.7919 1.4039 28.8337 1.61625 28.8337Z" fill="#999DC0" fill-opacity="0.56"/>
<path d="M35 20.5H32.5V10.5L25 6.75V20.5H22.5V3L17.5 0.5L12.5 3V20.5H10V6.75L2.5 10.5V20.5H0V23H35V20.5ZM20 16.75H15V15.5H20V16.75ZM20 11.75H15V10.5H20V11.75ZM20 6.75H15V5.5H20V6.75Z" fill="#999DC0" fill-opacity="0.56"/>
</svg>
