<svg width="11" height="6" viewBox="0 0 11 6" fill="none" xmlns="http://www.w3.org/2000/svg">
<path d="M10.0799 0.485171L9.75722 0.160946C9.6557 0.0596735 9.52061 0.00383564 9.37586 0.00383564C9.23188 0.00383564 9.09639 0.0596735 8.99487 0.160946L5.31433 3.83297L1.62917 0.156716C1.52765 0.0558281 1.39254 0 1.24818 0C1.10381 0 0.968709 0.0558281 0.86719 0.156716L0.544497 0.479022C0.334126 0.688499 0.334126 1.02966 0.544497 1.23914L4.93181 5.63199C5.03333 5.73288 5.16843 5.8045 5.31395 5.8045H5.3155C5.45986 5.8045 5.59496 5.73288 5.69648 5.63199L10.0799 1.25108C10.1814 1.1498 10.237 1.01119 10.237 0.867174C10.237 0.723158 10.1814 0.586058 10.0799 0.485171Z" fill="#FEFEFE"/>
</svg>
