<svg width="14" height="22" viewBox="0 0 14 22" fill="none" xmlns="http://www.w3.org/2000/svg">
<path d="M12.2882 0.739231L12.9888 1.43312C13.2073 1.65145 13.3278 1.94178 13.3278 2.25253C13.3278 2.56251 13.2073 2.85363 12.9888 3.07196L5.05502 10.9858L12.9977 18.9089C13.2162 19.1269 13.3365 19.4176 13.3365 19.728C13.3365 20.0383 13.2162 20.3291 12.9977 20.5474L12.3013 21.2413C11.8489 21.693 11.1117 21.693 10.659 21.2413L1.16833 11.808C0.949852 11.59 0.795898 11.2997 0.795898 10.9866V10.9827C0.795898 10.6724 0.950238 10.382 1.16833 10.1637L10.6335 0.739231C10.852 0.520899 11.1518 0.401142 11.4629 0.400757C11.7741 0.400757 12.0701 0.520899 12.2882 0.739231Z" fill="#656A8A"/>
</svg>
