<svg width="18" height="14" viewBox="0 0 18 14" fill="#D6D6E2" xmlns="http://www.w3.org/2000/svg">
<path fill-rule="evenodd" clip-rule="evenodd" d="M18 1C18 0.447716 17.5523 0 17 0H9.5L9.5 3.73343L18 3.73343V1ZM18 4.73343L9.5 4.73343V8.4001L18 8.4001V4.73343ZM18 9.4001L9.5 9.4001L9.5 14H17C17.5523 14 18 13.5523 18 13V9.4001ZM8.5 14L8.5 9.4001L0 9.4001V13C0 13.5523 0.447716 14 1 14H8.5ZM0 8.4001L8.5 8.4001V4.73343L0 4.73343V8.4001ZM0 3.73343L8.5 3.73343L8.5 0H1C0.447716 0 0 0.447716 0 1V3.73343Z" fill="#868BB2"/>
</svg>
