<svg width="17" height="18" viewBox="0 0 17 18" fill="none" xmlns="http://www.w3.org/2000/svg">
    <path fill-rule="evenodd" clip-rule="evenodd"
          d="M2.52805 17.2892H14.9949C16.0818 17.2892 16.9634 16.4077 16.9634 15.3207V2.85383C16.9634 1.76693 16.0818 0.885349 14.9949 0.885349H2.52805C1.44104 0.885349 0.55957 1.76693 0.55957 2.85383V15.3207C0.55957 16.4077 1.44104 17.2892 2.52805 17.2892ZM1.8718 2.85383C1.8718 2.49157 2.16579 2.19772 2.52805 2.19772H14.9949C15.3572 2.19772 15.651 2.49157 15.651 2.85383V15.3207C15.651 15.683 15.3572 15.977 14.9949 15.977H2.52805C2.16579 15.977 1.8718 15.683 1.8718 15.3207V2.85383Z"
          fill="white"/>
    <path fill-rule="evenodd" clip-rule="evenodd"
          d="M5.7107 12.1384C5.83373 12.2614 6.0007 12.331 6.17489 12.331C6.34907 12.331 6.51611 12.2614 6.63914 12.1384L8.76176 10.0157L10.8844 12.1384C11.0074 12.2614 11.1744 12.3306 11.3486 12.3306C11.7111 12.3306 12.0051 12.0368 12.0051 11.6742C12.0051 11.5 11.9359 11.333 11.8129 11.2099L9.6902 9.0873L11.8129 6.96468C11.9359 6.84165 12.0051 6.67461 12.0051 6.50042C12.0051 6.13793 11.7111 5.84396 11.3486 5.84396C11.1744 5.84396 11.0074 5.91314 10.8844 6.03617L8.76176 8.15886L6.63914 6.03617C6.51611 5.91314 6.34907 5.84396 6.17489 5.84396C5.81228 5.84396 5.51842 6.13793 5.51842 6.50042C5.51842 6.67461 5.58767 6.84165 5.7107 6.96468L7.83333 9.0873L5.7107 11.2099C5.58767 11.333 5.51807 11.5 5.51807 11.6742C5.51807 11.8484 5.58767 12.0153 5.7107 12.1384Z"
          fill="white"/>
</svg>