<svg width="10" height="7" viewBox="0 0 10 7" fill="none" xmlns="http://www.w3.org/2000/svg">
<path fill-rule="evenodd" clip-rule="evenodd" d="M8.91841 3.77484H0.649339C0.441669 3.77484 0.273438 3.61311 0.273438 3.41403C0.273438 3.21495 0.441669 3.05322 0.649339 3.05322H8.91841C9.12608 3.05322 9.29431 3.21495 9.29431 3.41403C9.29431 3.61311 9.12608 3.77484 8.91841 3.77484Z" fill="#FEFEFE"/>
<path fill-rule="evenodd" clip-rule="evenodd" d="M8.91841 1.00586H0.649339C0.441669 1.00586 0.273438 0.845274 0.273438 0.645029C0.273438 0.445555 0.441669 0.283447 0.649339 0.283447H8.91841C9.12608 0.283447 9.29431 0.445555 9.29431 0.645029C9.29431 0.845274 9.12608 1.00586 8.91841 1.00586Z" fill="#FEFEFE"/>
<path fill-rule="evenodd" clip-rule="evenodd" d="M8.91841 6.54419H0.649339C0.441669 6.54419 0.273438 6.38247 0.273438 6.18342C0.273438 5.98282 0.441669 5.82227 0.649339 5.82227H8.91841C9.12608 5.82227 9.29431 5.98282 9.29431 6.18342C9.29431 6.38247 9.12608 6.54419 8.91841 6.54419Z" fill="#FEFEFE"/>
</svg>
