<svg width="17" height="17" viewBox="0 0 17 17" fill="none" xmlns="http://www.w3.org/2000/svg">
<path fill-rule="evenodd" clip-rule="evenodd" d="M9.95342 2.20201C7.22979 2.20201 5.02224 4.40459 5.02224 7.12123C5.02224 8.49785 5.58818 9.74123 6.50262 10.635C7.39274 11.5052 8.60936 12.0405 9.95342 12.0405C12.6771 12.0405 14.8849 9.83788 14.8849 7.12123C14.8849 4.40459 12.6771 2.20201 9.95342 2.20201ZM3.19612 7.12123C3.19612 3.39803 6.22155 0.379883 9.95342 0.379883C13.6857 0.379883 16.7112 3.39803 16.7112 7.12123C16.7112 10.8444 13.6857 13.8626 9.95342 13.8626C8.43566 13.8626 7.03403 13.3624 5.90613 12.5199L1.82687 16.5165L0.546875 15.2165L4.60503 11.2414C3.72224 10.1028 3.19612 8.67267 3.19612 7.12123Z" fill="white"/>
</svg>
