<svg width="13" height="12" viewBox="0 0 13 12" fill="none" xmlns="http://www.w3.org/2000/svg">
<path fill-rule="evenodd" clip-rule="evenodd" d="M2.07292 1.67037V10.0779H10.5009V7.57345C10.5009 6.4918 12.077 6.48024 12.077 7.57345V10.83C12.077 11.3117 11.7377 11.6502 11.2548 11.6502H1.31901C0.836124 11.6502 0.496948 11.3117 0.496948 10.83V0.91834C0.496948 0.436621 0.836124 0.0981445 1.31901 0.0981445H4.71086C5.79553 0.0981445 5.80711 1.67037 4.71086 1.67037H2.07292ZM10.5014 2.80054L8.94995 4.32156C8.51686 4.75437 7.20245 6.28694 6.6273 6.28694C6.02861 6.28694 5.87309 5.91689 5.87309 5.39898C5.87309 4.99466 7.51935 3.54026 7.87563 3.18523L9.36837 1.66999C9.02174 1.66961 8.67581 1.6696 8.32918 1.67037C7.69421 1.67191 6.89404 1.73738 6.89404 0.850182C6.89404 0.41082 7.29328 0.0981445 7.71595 0.0981445H11.2548C11.7377 0.0981445 12.077 0.436621 12.077 0.91834V4.44863C12.077 4.92997 11.7377 5.26844 11.2548 5.26844C10.416 5.26844 10.5001 4.34697 10.5009 3.76937C10.5013 3.4463 10.5014 3.12323 10.5014 2.80054Z" fill="#82BAFF"/>
</svg>
