<svg width="15" height="11" viewBox="0 0 15 11" fill="none" xmlns="http://www.w3.org/2000/svg">
<path d="M7.5 3.35526C6.51897 3.35526 5.72368 4.15055 5.72368 5.13158C5.72368 6.11261 6.51897 6.90789 7.5 6.90789C8.48103 6.90789 9.27632 6.11261 9.27632 5.13158C9.27632 4.15055 8.48103 3.35526 7.5 3.35526Z" fill="#BBBFE2"/>
<path fill-rule="evenodd" clip-rule="evenodd" d="M7.5 0C5.43334 0 3.57474 0.830042 2.23549 1.85791C1.56499 2.37252 1.01482 2.94405 0.628808 3.50027C0.250153 4.0459 0 4.61963 0 5.13158C0 5.64353 0.250153 6.21726 0.628808 6.76288C1.01482 7.31911 1.56499 7.89064 2.23549 8.40525C3.57474 9.43312 5.43334 10.2632 7.5 10.2632C9.56666 10.2632 11.4253 9.43312 12.7645 8.40525C13.435 7.89064 13.9852 7.31911 14.3712 6.76288C14.7498 6.21726 15 5.64353 15 5.13158C15 4.61963 14.7498 4.0459 14.3712 3.50027C13.9852 2.94405 13.435 2.37252 12.7645 1.85791C11.4253 0.830042 9.56666 0 7.5 0ZM4.53947 5.13158C4.53947 3.49653 5.86495 2.17105 7.5 2.17105C9.13505 2.17105 10.4605 3.49653 10.4605 5.13158C10.4605 6.76663 9.13505 8.0921 7.5 8.0921C5.86495 8.0921 4.53947 6.76663 4.53947 5.13158Z" fill="#BBBFE2"/>
</svg>
