<svg width="31" height="31" viewBox="0 0 31 31" fill="none" xmlns="http://www.w3.org/2000/svg">
<path fill-rule="evenodd" clip-rule="evenodd" d="M0.304688 0.389811L25.8124 0.390217C28.1599 0.390217 30.0636 2.29357 30.0636 4.64144V25.8975C30.0636 28.2453 28.1599 30.1487 25.8124 30.1487H0.304688V0.389811Z" fill="#363B68"/>
<path fill-rule="evenodd" clip-rule="evenodd" d="M7.84115 6.76676C7.20355 6.76676 6.68164 7.28876 6.68164 7.92676V10.2454H23.6868V7.92676C23.6868 7.28876 23.1649 6.76676 22.5269 6.76676H21.3677H17.5035H13.252H9.38623H7.84115ZM11.4642 8.52002C11.4642 8.96029 11.107 9.31755 10.6676 9.31755C10.2272 9.31755 9.87004 8.96029 9.87004 8.52002C9.87004 8.08002 10.2272 7.72339 10.6676 7.72339C11.107 7.72339 11.4642 8.08002 11.4642 8.52002ZM19.3823 9.31714C19.8223 9.31714 20.1794 8.96029 20.1794 8.52002C20.1794 8.08002 19.8223 7.72339 19.3823 7.72339C18.9425 7.72339 18.5853 8.08002 18.5853 8.52002C18.5853 8.96029 18.9425 9.31714 19.3823 9.31714Z" fill="white"/>
<path fill-rule="evenodd" clip-rule="evenodd" d="M6.68164 22.6123C6.68164 23.2499 7.20355 23.7717 7.84115 23.7717H22.5269C23.1649 23.7717 23.6868 23.2499 23.6868 22.6123V11.0177H6.68164V22.6123ZM19.4357 12.9503C19.4357 12.7379 19.6098 12.5636 19.8223 12.5636H21.3677C21.5802 12.5636 21.7547 12.7379 21.7547 12.9503V14.496C21.7547 14.7084 21.5802 14.8827 21.3677 14.8827H19.8223C19.6098 14.8827 19.4357 14.7084 19.4357 14.496V12.9503ZM19.4357 16.4285C19.4357 16.2161 19.6098 16.0423 19.8223 16.0423H21.3677C21.5802 16.0423 21.7547 16.2161 21.7547 16.4285V17.9744C21.7547 18.1868 21.5802 18.3607 21.3677 18.3607H19.8223C19.6098 18.3607 19.4357 18.1868 19.4357 17.9744V16.4285ZM19.4357 19.9068C19.4357 19.6944 19.6098 19.5206 19.8223 19.5206H21.3677C21.5802 19.5206 21.7547 19.6944 21.7547 19.9068V21.4527C21.7547 21.6655 21.5802 21.8389 21.3677 21.8389H19.8223C19.6098 21.8389 19.4357 21.6655 19.4357 21.4527V19.9068ZM15.5707 12.9503C15.5707 12.7379 15.7446 12.5636 15.957 12.5636H17.5035C17.7159 12.5636 17.889 12.7379 17.889 12.9503V14.496C17.889 14.7084 17.7159 14.8827 17.5035 14.8827H15.957C15.7446 14.8827 15.5707 14.7084 15.5707 14.496V12.9503ZM15.5707 16.4285C15.5707 16.2161 15.7446 16.0423 15.957 16.0423H17.5035C17.7159 16.0423 17.889 16.2161 17.889 16.4285V17.9744C17.889 18.1868 17.7159 18.3607 17.5035 18.3607H15.957C15.7446 18.3607 15.5707 18.1868 15.5707 17.9744V16.4285ZM15.5707 19.9068C15.5707 19.6944 15.7446 19.5206 15.957 19.5206H17.5035C17.7159 19.5206 17.889 19.6944 17.889 19.9068V21.4527C17.889 21.6655 17.7159 21.8389 17.5035 21.8389H15.957C15.7446 21.8389 15.5707 21.6655 15.5707 21.4527V19.9068ZM12.0928 12.9503C12.0928 12.7379 12.267 12.5636 12.4794 12.5636H14.0249C14.2373 12.5636 14.4115 12.7379 14.4115 12.9503V14.496C14.4115 14.7084 14.2373 14.8827 14.0249 14.8827H12.4794C12.267 14.8827 12.0928 14.7084 12.0928 14.496V12.9503ZM12.0928 16.4285C12.0928 16.2161 12.267 16.0423 12.4794 16.0423H14.0249C14.2373 16.0423 14.4115 16.2161 14.4115 16.4285V17.9744C14.4115 18.1868 14.2373 18.3607 14.0249 18.3607H12.4794C12.267 18.3607 12.0928 18.1868 12.0928 17.9744V16.4285ZM12.0928 19.9068C12.0928 19.6944 12.267 19.5206 12.4794 19.5206H14.0249C14.2373 19.5206 14.4115 19.6944 14.4115 19.9068V21.4527C14.4115 21.6655 14.2373 21.8389 14.0249 21.8389H12.4794C12.267 21.8389 12.0928 21.6655 12.0928 21.4527V19.9068ZM8.6141 12.9503C8.6141 12.7379 8.78833 12.5636 9.00073 12.5636H10.5462C10.7586 12.5636 10.9329 12.7379 10.9329 12.9503V14.496C10.9329 14.7084 10.7586 14.8827 10.5462 14.8827H9.00073C8.78833 14.8827 8.6141 14.7084 8.6141 14.496V12.9503ZM8.6141 16.4285C8.6141 16.2161 8.78833 16.0423 9.00073 16.0423H10.5462C10.7586 16.0423 10.9329 16.2161 10.9329 16.4285V17.9744C10.9329 18.1868 10.7586 18.3607 10.5462 18.3607H9.00073C8.78833 18.3607 8.6141 18.1868 8.6141 17.9744V16.4285ZM8.6141 19.9068C8.6141 19.6944 8.78833 19.5206 9.00073 19.5206H10.5462C10.7586 19.5206 10.9329 19.6944 10.9329 19.9068V21.4527C10.9329 21.6655 10.7586 21.8389 10.5462 21.8389H9.00073C8.78833 21.8389 8.6141 21.6655 8.6141 21.4527V19.9068Z" fill="white"/>
</svg>
