<svg width="19" height="18" viewBox="0 0 19 18" fill="none" xmlns="http://www.w3.org/2000/svg">
<path fill-rule="evenodd" clip-rule="evenodd" d="M1.11285 4.69314H1.79723V7.8418C1.87773 7.8418 1.99852 7.80424 2.07885 7.80424C2.19964 7.80424 2.36073 7.8418 2.48153 7.8418V4.65568H6.42605V4.61807C6.42605 3.75586 7.19102 3.08118 8.07644 3.08118C9.00223 3.08118 9.72674 3.79354 9.72674 4.61807V4.65568H13.8324C13.7519 4.46823 13.8726 2.81892 13.8726 2.78132H1.11285C0.95193 2.78132 0.791016 2.89373 0.791016 3.08118V4.39318C0.791016 4.54327 0.911808 4.69314 1.11285 4.69314Z" fill="#868BB2"/>
<path fill-rule="evenodd" clip-rule="evenodd" d="M15.9253 8.2167V18H16.8511V8.32917C16.6097 8.36654 16.3682 8.29175 15.9253 8.2167Z" fill="#868BB2"/>
<path fill-rule="evenodd" clip-rule="evenodd" d="M17.3345 0.231626C17.2539 0.0817752 17.0526 -0.0307102 16.8515 0.00673199L16.1271 0.156807C16.006 0.19417 15.8853 0.269214 15.805 0.381701L14.3557 2.74306C14.3155 2.78051 14.2754 2.8555 14.2754 2.93055L14.1948 4.42974C14.1948 4.50479 14.1948 4.54247 14.2349 4.61728L15.4829 7.5785C15.523 7.72835 15.6842 7.8034 15.8451 7.841L16.6502 7.99088C16.8515 8.02832 17.093 7.91584 17.1734 7.72838C19.025 3.19287 17.4149 0.344034 17.3345 0.231626ZM16.4893 0.98137L16.6502 0.943912C16.7308 1.16881 16.8917 1.58123 16.9723 2.06838L15.2012 3.08038L16.4893 0.98137ZM16.4087 7.0537L16.288 7.01624L15.4023 4.91723L16.8111 5.81681C16.6904 6.22916 16.5696 6.60391 16.4087 7.0537ZM16.9723 5.14213L15.2012 4.09243V3.7177L17.093 2.81813C17.1332 3.45537 17.1332 4.24254 16.9723 5.14213Z" fill="#868BB2"/>
<path fill-rule="evenodd" clip-rule="evenodd" d="M9.32421 4.65448C9.32421 4.0127 8.76549 3.49241 8.07633 3.49241C7.38716 3.49241 6.82861 4.0127 6.82861 4.65448C6.82861 5.29602 7.38716 5.81641 8.07633 5.81641C8.76549 5.81641 9.32421 5.29602 9.32421 4.65448Z" fill="#868BB2"/>
<path fill-rule="evenodd" clip-rule="evenodd" d="M13.8324 16.2009H11.377L9.44497 6.15505C9.40484 5.9676 9.24367 5.8551 9.04238 5.8551H7.07016C6.86886 5.8551 6.70795 6.0052 6.66749 6.15505L5.09777 16.1632H2.48146V10.5407C2.36067 10.5781 2.23996 10.5781 2.07878 10.5781C1.95808 10.5781 1.87766 10.5781 1.79716 10.5407V16.1632H0.428485C0.227362 16.1632 0.0661895 16.3133 0.0661895 16.5006V17.5877C0.0260673 17.8502 0.186983 18 0.428485 18H13.8324C14.0338 18 14.1947 17.8501 14.1947 17.6627V16.5757C14.1947 16.3508 14.0338 16.2009 13.8324 16.2009ZM7.23107 8.06687L7.75454 8.51666L7.02978 9.22875L7.23107 8.06687ZM10.1293 13.8767L10.4916 15.8259L8.80088 14.7388L10.1293 13.8767ZM8.23754 14.4015L6.50657 13.3145L8.11675 11.8901L9.92797 13.3521L8.23754 14.4015ZM8.55938 11.4779L9.52555 10.6158L9.88785 12.5273L8.55938 11.4779ZM9.20355 9.07892L8.59975 8.55407L9.04238 8.14164L9.20355 9.07892ZM9.32426 9.9784L8.07637 11.1029L6.94945 10.2033L8.19708 8.96644L9.32426 9.9784ZM6.78828 10.803L7.63375 11.4779L6.54678 12.4523L6.78828 10.803ZM6.30527 13.9143L7.67396 14.7765L6.02357 15.8635L6.30527 13.9143ZM8.23754 15.1138L9.96818 16.2009H6.58715L8.23754 15.1138ZM8.76067 6.56738L8.92158 7.35454L8.19708 8.10428L7.35187 7.35454L7.47258 6.56738H8.76067Z" fill="#868BB2"/>
<path fill-rule="evenodd" clip-rule="evenodd" d="M0.992188 9.19113C0.992188 9.75333 1.47519 10.2031 2.0789 10.2031C2.68287 10.2031 3.16587 9.75333 3.16587 9.19113C3.16587 8.62893 2.68287 8.17913 2.0789 8.17913C1.47519 8.17913 0.992188 8.62893 0.992188 9.19113ZM2.68287 9.19113C2.68287 9.49107 2.40099 9.75329 2.0789 9.75329C1.75707 9.75329 1.47519 9.49107 1.47519 9.19113C1.47519 8.89119 1.75707 8.62892 2.0789 8.62892C2.40099 8.62892 2.68287 8.89119 2.68287 9.19113Z" fill="#868BB2"/>
</svg>
