<svg width="17" height="20" viewBox="0 0 17 20" fill="none" xmlns="http://www.w3.org/2000/svg">
<path d="M8.91662 6.66667V7.26667H9.51662H13.1358C13.7589 7.26667 14.0714 6.51382 13.6316 6.07251L13.2066 6.49607L13.6316 6.07251L9.95867 2.38744L9.95866 2.38743C9.57473 2.00224 8.91662 2.27405 8.91662 2.81806V6.66667ZM1.47237 1.01803L1.47238 1.01804L1.47558 1.01486C1.75345 0.738249 2.08078 0.6 2.49164 0.6H10.3053L15.989 6.26331V18.0307C15.989 18.3928 15.8634 18.7026 15.5793 18.991C15.2969 19.2665 14.9695 19.4 14.5632 19.4H2.49164C2.07619 19.4 1.75025 19.2645 1.47558 18.991C1.18587 18.7027 1.05996 18.3935 1.05996 18.0307V1.97524C1.05996 1.6098 1.18766 1.29721 1.47237 1.01803ZM9.65855 17.2667H10.2586V16.6667V15.7928V15.1928H9.65855H4.20996H3.60996V15.7928V16.6667V17.2667H4.20996H9.65855ZM12.6794 13.1H13.2794V12.5V11.6667V11.0667H12.6794H4.20996H3.60996V11.6667V12.5V13.1H4.20996H12.6794Z" stroke="#868BB2" stroke-width="1.2"/>
</svg>
