<svg width="46" height="35" viewBox="0 0 46 35" fill="none" xmlns="http://www.w3.org/2000/svg">
<path fill-rule="evenodd" clip-rule="evenodd" d="M0.807195 30.157H2.48435V22.7352C2.48435 22.5416 2.66772 22.3823 2.89121 22.3823H4.781V16.7116L4.58154 16.7831C4.4772 16.8188 4.37342 16.8379 4.27042 16.8379C3.95413 16.8379 3.64801 16.6735 3.5202 16.4003L2.3652 13.9671C2.28415 13.7918 2.28415 13.5967 2.3652 13.425C2.44568 13.2526 2.60703 13.1124 2.80576 13.0408L20.3471 6.70522C19.7057 5.63656 19.1301 4.55174 18.6348 3.47576C18.4668 3.11262 18.6662 2.70579 19.0761 2.55676L26.004 0.0540314C26.4161 -0.0941429 26.8872 0.0723495 27.0654 0.428772C28.7806 3.93593 29.8881 7.84188 30.5462 12.7237C30.5872 13.0386 30.3848 13.3403 30.0494 13.4601L27.0787 14.534C26.7426 14.6552 26.3583 14.566 26.1326 14.3178C24.8426 12.8925 23.7315 11.5535 22.7307 10.2254L19.2279 11.4935L19.4004 12.5345L19.922 15.6932L22.3143 30.157H22.7153H26.8427C27.2897 30.157 27.6542 30.4747 27.6542 30.867V34.0827C27.6542 34.472 27.2897 34.7891 26.8427 34.7891H0.807195C0.362283 34.7891 0 34.472 0 34.0827V30.867C0 30.4747 0.362283 30.157 0.807195 30.157ZM6.40202 22.3823H8.28816C8.51457 22.3823 8.69793 22.5416 8.69793 22.7352V30.157H10.541L12.9326 15.6932L13.2715 13.6442L6.40202 16.1257V22.3823ZM14.4169 17.5859L17.2688 15.7306L15.0013 14.0577L14.4169 17.5859ZM15.3687 18.9037L18.9854 20.9118L18.3375 16.9753L15.3687 18.9037ZM14.0181 19.9966L13.1459 25.2619L17.8423 22.1172L14.0181 19.9966ZM17.5011 30.157L12.8252 27.2044L12.3358 30.157H17.5011ZM15.9057 12.6938L17.8641 14.1372L17.5288 12.1051L15.9057 12.6938ZM19.3449 23.0669L14.4776 26.3277L20.5137 30.146L19.3449 23.0669Z" fill="#3366FF"/>
<path fill-rule="evenodd" clip-rule="evenodd" d="M44.113 12.5772H36.8306V15.4904H40.5956L35.3738 20.7119L32.0351 17.3728C31.7619 17.0996 31.391 16.9456 31.0046 16.9456C30.6183 16.9456 30.2468 17.1 29.974 17.3728L24.0325 23.3142L24.7526 26.7163L31.0046 20.4643L34.3437 23.8034C34.6164 24.0766 34.9875 24.2306 35.3738 24.2306C35.7605 24.2306 36.1316 24.0766 36.4044 23.8034L42.6567 17.5512V21.3164H45.5695V14.0337C45.5695 13.2296 44.9172 12.5772 44.113 12.5772Z" fill="#3366FF"/>
<path fill-rule="evenodd" clip-rule="evenodd" d="M36.8301 34.7885H39.7432V28.9626H36.8301V34.7885Z" fill="#3366FF"/>
<path fill-rule="evenodd" clip-rule="evenodd" d="M42.6562 34.7885H45.5692V24.5931H42.6562V34.7885Z" fill="#3366FF"/>
<path fill-rule="evenodd" clip-rule="evenodd" d="M31.1447 34.7885H34.0577V26.884H31.1447V34.7885Z" fill="#3366FF"/>
</svg>
