<svg width="26" height="19" viewBox="0 0 26 19" fill="none" xmlns="http://www.w3.org/2000/svg">
<path fill-rule="evenodd" clip-rule="evenodd" d="M6.90389 16.2775C6.32835 17.1166 5.67613 18.0674 4.33233 18.0674C2.98854 18.0674 2.33629 17.1162 1.76172 16.2775C1.17805 15.4265 0.768259 14.9096 0.00195312 14.9096V13.9622C1.34536 13.9622 1.9976 14.9132 2.5728 15.7519L2.57288 15.7521C3.15688 16.6031 3.56636 17.12 4.33299 17.12C5.09962 17.12 5.50974 16.6031 6.09341 15.7521C6.66863 14.9133 7.32118 13.9622 8.66498 13.9622C10.0091 13.9622 10.6617 14.913 11.2372 15.7521C11.8212 16.6031 12.231 17.12 12.9983 17.12C13.7649 17.12 14.1747 16.6031 14.7587 15.7521C15.3339 14.913 15.9865 13.9622 17.3303 13.9622C18.675 13.9622 19.3276 14.913 19.9035 15.752L19.9035 15.7521C20.4875 16.6031 20.8979 17.12 21.6652 17.12C22.4325 17.12 22.8426 16.6031 23.4269 15.7521L23.4269 15.752C24.0028 14.913 24.6554 13.9622 26.0001 13.9622V14.9096C25.2325 14.9096 24.8224 15.4265 24.2381 16.2775C23.6626 17.1166 23.0096 18.0674 21.6652 18.0674C20.3208 18.0674 19.6682 17.1166 19.0924 16.2776L19.0923 16.2775C18.508 15.4265 18.0979 14.9096 17.3303 14.9096C16.5636 14.9096 16.1535 15.4265 15.5699 16.2775L15.5693 16.2784C14.9939 17.1169 14.3416 18.0674 12.998 18.0674C11.6536 18.0674 11.0011 17.1164 10.4256 16.2778L10.4254 16.2775C9.8414 15.4265 9.4313 14.9096 8.66434 14.9096C7.89771 14.9096 7.48757 15.4265 6.9039 16.2775L6.90389 16.2775ZM17.3293 1.01482C16.5627 1.01482 16.1526 1.53175 15.5689 2.38278C15.1224 3.03361 14.6277 3.75044 13.8007 4.03906C14.1624 5.02999 14.7301 6.61712 15.2293 8.15056C15.7161 7.53763 16.3319 7.01406 17.329 7.01406C18.6737 7.01406 19.3263 7.96486 19.9022 8.80389L19.9022 8.80391C20.4862 9.65494 20.8966 10.1719 21.6639 10.1719C22.4312 10.1719 22.8413 9.65494 23.4256 8.80391L23.4256 8.80389C24.0015 7.96486 24.6541 7.01406 25.9988 7.01406V7.96141C25.2312 7.96141 24.8211 8.47834 24.2368 9.32937C23.6613 10.1684 23.0084 11.1192 21.6639 11.1192C20.3195 11.1192 19.667 10.1685 19.0911 9.32944L19.091 9.32937C18.5067 8.47834 18.0966 7.96141 17.329 7.96141C16.5724 7.96141 16.1626 8.46603 15.5913 9.29686C15.9764 10.5597 16.2585 11.658 16.2585 12.1686C16.2585 13.9145 14.7964 15.3353 12.9996 15.3353C11.2028 15.3353 9.74067 13.9145 9.74067 12.1686C9.74067 11.6586 10.0218 10.5635 10.4059 9.30379C9.83199 8.46855 9.42187 7.96172 8.66304 7.96172C7.89641 7.96172 7.48629 8.47866 6.90262 9.3297C6.32708 10.1687 5.67483 11.1195 4.33103 11.1195C2.98801 11.1195 2.33608 10.1695 1.76078 9.33114L1.75979 9.3297C1.17612 8.47866 0.766306 7.96172 0 7.96172V7.01437C1.34339 7.01437 1.99563 7.9654 2.57082 8.80408L2.57093 8.80424C3.15492 9.65527 3.5644 10.1722 4.33103 10.1722C5.09767 10.1722 5.50779 9.65527 6.09146 8.80424C6.66667 7.96552 7.31924 7.01437 8.66304 7.01437C9.66366 7.01437 10.2808 7.54141 10.7683 8.15656C11.2678 6.62248 11.8358 5.03378 12.1982 4.04128C11.3682 3.75328 10.8723 3.03488 10.4244 2.38247C9.84044 1.53144 9.43032 1.01449 8.66336 1.01449C7.89673 1.01449 7.4866 1.53144 6.90294 2.38247C6.3274 3.22151 5.67515 4.17232 4.33135 4.17232C2.98832 4.17232 2.33639 3.22228 1.76109 2.38391L1.7601 2.38247C1.17644 1.53144 0.766643 1.01449 0.0003372 1.01449V0.0671425C1.34373 0.0671425 1.99597 1.01818 2.57116 1.85686L2.57127 1.85701C3.15526 2.70805 3.56472 3.22497 4.33135 3.22497C5.09798 3.22497 5.50813 2.70805 6.09179 1.85701C6.66701 1.01829 7.31956 0.0671425 8.66336 0.0671425C10.0075 0.0671425 10.66 1.01797 11.2356 1.85701C11.688 2.51668 12.038 2.97172 12.5287 3.14477C12.531 3.13891 12.5336 3.132 12.5361 3.12545C12.5381 3.12001 12.5401 3.11481 12.5417 3.11066C12.6119 2.92372 12.7948 2.79898 12.9999 2.79898C13.205 2.79898 13.3883 2.9234 13.4581 3.11066C13.46 3.11542 13.4622 3.12138 13.4644 3.12742C13.4665 3.133 13.4686 3.13865 13.4705 3.1435C13.9583 2.96919 14.307 2.51446 14.7577 1.85732C15.3329 1.01828 15.9855 0.0674706 17.3293 0.0674706C18.6741 0.0674706 19.3266 1.01824 19.9025 1.85726L19.9025 1.85732C20.4865 2.70835 20.897 3.2253 21.6642 3.2253C22.4315 3.2253 22.8417 2.70835 23.426 1.85732L23.426 1.85726C24.0019 1.01824 24.6544 0.0674706 25.9992 0.0674706V1.01482C25.2316 1.01482 24.8214 1.53175 24.2371 2.38278C23.6616 3.22182 23.0087 4.17265 21.6642 4.17265C20.3198 4.17265 19.6673 3.22187 19.0914 2.38285L19.0914 2.38278C18.507 1.53175 18.0969 1.01482 17.3293 1.01482ZM15.2839 12.1689C15.2839 11.8446 15.1201 11.148 14.863 10.2578C14.7626 9.9101 14.6489 9.53463 14.5234 9.13706C14.0847 7.7454 13.5192 6.1125 12.9999 4.67947C12.4796 6.11439 11.9132 7.75046 11.4745 9.14338C11.3493 9.54095 11.2359 9.91579 11.1355 10.2632C10.8791 11.1508 10.7159 11.8455 10.7159 12.1689C10.7159 13.3926 11.7406 14.3882 12.9999 14.3882C14.2592 14.3882 15.2839 13.3926 15.2839 12.1689Z" fill="white"/>
</svg>
