<svg width="26" height="31" viewBox="0 0 26 31" fill="none" xmlns="http://www.w3.org/2000/svg">
<path fill-rule="evenodd" clip-rule="evenodd" d="M23.8697 22.1697C23.9451 22.216 24.006 22.2823 24.0455 22.3611C24.3768 23.0445 26.0029 26.4866 25.9979 27.5891C26.0127 27.9091 25.962 28.2287 25.849 28.5287C25.736 28.8287 25.563 29.1028 25.3404 29.3345C25.1178 29.5661 24.8503 29.7505 24.5539 29.8765C24.2576 30.0024 23.9387 30.0674 23.6164 30.0674C23.2941 30.0674 22.9752 30.0024 22.6789 29.8765C22.3826 29.7505 22.115 29.5661 21.8924 29.3345C21.6699 29.1028 21.4968 28.8287 21.3838 28.5287C21.2708 28.2287 21.2201 27.9091 21.2349 27.5891C21.2349 26.4916 22.8661 23.0445 23.1923 22.3611C23.2319 22.2823 23.2928 22.216 23.3681 22.1697C23.4435 22.1233 23.5303 22.0988 23.6189 22.0988C23.7075 22.0988 23.7944 22.1233 23.8697 22.1697ZM22.6018 28.6C22.8717 28.8683 23.2373 29.0195 23.6189 29.0208H23.6239C24.0047 29.0182 24.369 28.8664 24.6378 28.5983C24.9066 28.3302 25.0581 27.9676 25.0594 27.5891C25.0594 27.0304 24.2915 25.1746 23.6189 23.6781C22.9464 25.1597 22.1785 27.0254 22.1785 27.5891C22.1798 27.9684 22.332 28.3318 22.6018 28.6ZM24.0211 20.38C24.0787 20.4708 24.1031 20.5785 24.0905 20.685C24.0693 20.7905 24.0143 20.8864 23.9338 20.9583C23.8533 21.0303 23.7516 21.0744 23.6438 21.0841L11.3273 21.3435C11.2671 21.3425 11.2076 21.3306 11.1516 21.3086C11.0936 21.2837 11.0408 21.2482 10.996 21.2039L0.14006 10.4335C0.095743 10.3907 0.0605123 10.3395 0.0364542 10.283C0.0123962 10.2264 0 10.1656 0 10.1042C0 10.0428 0.0123962 9.98206 0.0364542 9.92551C0.0605123 9.86896 0.095743 9.81777 0.14006 9.775L2.25304 7.6748V7.60995L3.23173 0.471275C3.24393 0.384657 3.28025 0.303152 3.3366 0.235973C3.39295 0.168797 3.46708 0.11862 3.55061 0.0911179C3.63414 0.0636158 3.72375 0.0598812 3.8093 0.0803375C3.89486 0.100794 3.97295 0.144627 4.03476 0.206881L7.23183 3.38461L12.5017 8.60268L13.4051 7.6748L11.9998 6.27301C11.956 6.22946 11.9212 6.17774 11.8974 6.12082C11.8737 6.0639 11.8615 6.00288 11.8615 5.94127C11.8615 5.87965 11.8737 5.81863 11.8974 5.76171C11.9212 5.70479 11.956 5.65307 11.9998 5.60952C12.0917 5.52818 12.2105 5.48323 12.3336 5.48323C12.4567 5.48323 12.5754 5.52818 12.6673 5.60952L14.4039 7.34056L16.1806 9.10653C16.2691 9.19451 16.3189 9.31384 16.3189 9.43827C16.3189 9.56269 16.2691 9.68202 16.1806 9.77001C16.0921 9.85799 15.972 9.90742 15.8469 9.90742C15.7217 9.90742 15.6016 9.85799 15.5131 9.77001L14.0827 8.33329L13.1492 9.26616L18.0677 14.155C18.1121 14.1978 18.1473 14.2489 18.1713 14.3055C18.1954 14.362 18.2078 14.4228 18.2078 14.4842C18.2078 14.5456 18.1954 14.6064 18.1713 14.663C18.1473 14.7195 18.1121 14.7707 18.0677 14.8135L15.4579 17.4125L23.7743 20.1862C23.8764 20.2208 23.9636 20.2893 24.0211 20.38ZM6.23306 3.72384L4.03978 1.54382L3.34717 6.59727L6.23306 3.72384ZM17.069 14.4842L6.90058 4.38732L1.13883 10.1042L11.3072 20.2111L17.069 14.4842ZM14.7151 18.1608L12.4716 20.3907L20.8984 20.2012L14.7151 18.1608Z" fill="white"/>
</svg>
