<svg width="22" height="25" viewBox="0 0 22 25" fill="none" xmlns="http://www.w3.org/2000/svg">
<path fill-rule="evenodd" clip-rule="evenodd" d="M19.1399 9.99559V10.7626L19.8806 10.9614C20.792 11.206 21 11.6689 21 11.8564C21 12.044 20.792 12.5068 19.8806 12.7514L19.1399 12.9503V13.7173V20.1978V20.9647L19.8806 21.1636C20.7916 21.4081 21 21.8711 21 22.0593C21 22.1946 20.9248 22.4195 20.5735 22.6541C20.2231 22.8881 19.6726 23.0674 18.9936 23.0674H3.00641C2.32731 23.0674 1.7768 22.8881 1.42642 22.654C1.07513 22.4194 1 22.1945 1 22.0593C1 21.8709 1.20858 21.4079 2.11944 21.1637L2.86047 20.965V20.1978V13.9282V13.161L2.11944 12.9623C1.20822 12.718 1 12.2551 1 12.0674C1 11.8795 1.20843 11.4164 2.11917 11.1725L2.86047 10.974V10.2065V3.93569V3.16848L2.11944 2.9698C1.20834 2.72552 1 2.26238 1 2.07486C1 1.93977 1.07502 1.7151 1.42633 1.48055C1.77677 1.24659 2.32735 1.06738 3.00641 1.06738H18.9936C19.6728 1.06738 20.2233 1.24665 20.5737 1.48063C20.925 1.71522 21 1.9399 21 2.07486C21 2.26278 20.7919 2.72556 19.8809 2.9698L19.1399 3.16848V3.93569V9.99559ZM20.1399 9.99559C21.241 10.2912 22 11.0034 22 11.8564C22 12.7094 21.241 13.4217 20.1399 13.7173V20.1978C21.241 20.4933 22 21.2059 22 22.0593C22 23.1856 20.6793 24.0674 18.9936 24.0674H3.00641C1.32042 24.0674 0 23.1852 0 22.0593C0 21.2056 0.759271 20.493 1.86047 20.1978V13.9282C0.759271 13.633 0 12.9207 0 12.0674C0 11.214 0.759271 10.5015 1.86047 10.2065V3.93569C0.759271 3.64044 0 2.92786 0 2.07486C0 0.948864 1.32074 0.0673828 3.00641 0.0673828H18.9936C20.6796 0.0673828 22 0.949192 22 2.07486C22 2.92819 21.241 3.64044 20.1399 3.93569V9.99559ZM10.9994 17.5285C9.071 17.5285 7.41607 15.8623 7.41607 13.7098C7.41607 13.3024 7.58058 12.6883 7.92193 11.9099C8.25273 11.1556 8.70658 10.3415 9.18665 9.56527C9.86532 8.46794 10.5719 7.48535 10.9994 6.91159C11.4269 7.48535 12.1335 8.46794 12.8122 9.56527C13.2922 10.3415 13.7461 11.1556 14.0769 11.9099C14.4182 12.6883 14.5827 13.3024 14.5827 13.7098C14.5827 15.8623 12.9278 17.5285 10.9994 17.5285ZM10.9994 5.60547C11.1636 5.60547 11.3193 5.68315 11.4232 5.81631C11.849 6.36351 15.5827 11.2325 15.5827 13.7098C15.5827 16.3668 13.5267 18.5285 10.9994 18.5285C8.47209 18.5285 6.41607 16.3668 6.41607 13.7098C6.41607 11.2325 10.1498 6.36351 10.5756 5.81631C10.6795 5.6828 10.8352 5.60547 10.9994 5.60547Z" fill="white"/>
</svg>
