<svg width="28" height="28" viewBox="0 0 28 28" fill="none" xmlns="http://www.w3.org/2000/svg">
<path d="M28 25.375H0V28H28V25.375Z" fill="white"/>
<path d="M1.75 9.7125C2.7125 9.7125 3.5 8.925 3.5 7.9625C3.5 7.7875 3.5 7.6125 3.4125 7.4375L7.4375 3.4125C7.525 3.5 7.7 3.5 7.875 3.5C8.05 3.5 8.1375 3.5 8.3125 3.4125L12.3375 7.4375C12.3375 7.6125 12.25 7.7 12.25 7.875C12.25 8.8375 13.0375 9.625 14 9.625C14.9625 9.625 15.75 8.8375 15.75 7.875C15.75 7.7 15.75 7.525 15.6625 7.35L19.5125 3.5875C19.6875 3.675 19.8625 3.675 20.0375 3.675C20.3 3.675 20.475 3.675 20.7375 3.5L24.5 6.65C24.5 6.7375 24.5 6.825 24.5 7C24.5 7.9625 25.2875 8.75 26.25 8.75C27.2125 8.75 28 7.9625 28 7C28 6.0375 27.2125 5.25 26.25 5.25C26.075 5.25 25.8125 5.25 25.6375 5.3375L21.875 2.275C21.875 2.1875 21.875 2.0125 21.875 1.8375C21.9625 0.875 21.175 0 20.125 0C19.075 0 18.2875 0.875 18.2875 1.8375C18.2875 2.0125 18.2875 2.1875 18.375 2.3625L14.4375 6.2125C14.35 6.2125 14.175 6.2125 14.0875 6.2125C13.9125 6.2125 13.7375 6.2125 13.65 6.3L9.625 2.275C9.625 2.0125 9.625 1.925 9.625 1.75C9.625 0.7875 8.8375 0 7.875 0C6.9125 0 6.125 0.7875 6.125 1.75C6.125 1.925 6.125 2.0125 6.2125 2.1875L2.1875 6.2125C2.1875 6.2125 2.1875 6.2125 2.1 6.2125C2.0125 6.2125 1.8375 6.2125 1.75 6.2125C1.575 6.2125 1.4 6.2125 1.3125 6.3C0.7 6.3875 0.175 6.9125 0.0875 7.525C1.95578e-08 7.6125 0 7.7875 0 7.9625C0 8.925 0.7875 9.7125 1.75 9.7125ZM26.25 6.125C26.6875 6.125 27.125 6.5625 27.125 7C27.125 7.4375 26.6875 7.875 26.25 7.875C25.8125 7.875 25.375 7.4375 25.375 7C25.375 6.5625 25.725 6.125 26.25 6.125ZM20.125 0.875C20.5625 0.875 21 1.3125 21 1.75C21 2.275 20.5625 2.625 20.125 2.625C19.6875 2.625 19.25 2.275 19.25 1.75C19.25 1.225 19.6 0.875 20.125 0.875ZM14 7C14.4375 7 14.875 7.4375 14.875 7.875C14.875 8.3125 14.4375 8.75 14 8.75C13.5625 8.75 13.125 8.3125 13.125 7.875C13.125 7.4375 13.475 7 14 7ZM7.875 0.875C8.3125 0.875 8.75 1.3125 8.75 1.75C8.75 2.1875 8.3125 2.625 7.875 2.625C7.4375 2.625 7 2.1875 7 1.75C7 1.3125 7.35 0.875 7.875 0.875ZM0.875 7.875C0.875 7.4375 1.3125 7 1.75 7C2.1875 7 2.625 7.4375 2.625 7.875C2.625 7.9625 2.625 8.05 2.5375 8.1375V8.225C2.3625 8.4875 2.1 8.6625 1.75 8.6625C1.4875 8.6625 1.225 8.575 1.1375 8.4C0.9625 8.4 0.875 8.1375 0.875 7.875Z" fill="white"/>
<path d="M3.5 18.375H0V23.625H3.5V18.375Z" fill="white"/>
<path d="M9.625 12.25H6.125V23.625H9.625V12.25Z" fill="white"/>
<path d="M15.75 14.875H12.25V23.625H15.75V14.875Z" fill="white"/>
<path d="M21.875 7H18.375V23.625H21.875V7Z" fill="white"/>
<path d="M28 10.5H24.5V23.625H28V10.5Z" fill="white"/>
</svg>
