<svg width="26" height="27" viewBox="0 0 26 27" fill="none" xmlns="http://www.w3.org/2000/svg">
<path fill-rule="evenodd" clip-rule="evenodd" d="M0.0026423 17.6375C0.0026423 16.6927 0.650735 15.8968 1.52576 15.6705V12.5108C0.767352 12.3145 0.172417 11.686 0.0340196 10.8978C-0.160792 9.79461 0.578279 8.73896 1.68546 8.54369L10.4442 7.07841L10.543 6.75687C10.8766 5.67131 11.8638 4.94218 12.9988 4.94218C13.9235 4.94218 14.7694 5.44383 15.2226 6.22599L20.004 5.22949L20.6663 0.765154C20.6987 0.549177 20.865 0.377722 21.0801 0.339832L22.58 0.0751572C22.7951 0.0371304 23.0105 0.141066 23.1145 0.333225L25.4077 4.56964C25.4334 4.61754 25.4511 4.66938 25.4606 4.7231L25.9899 7.7236C26.0034 7.7776 26.0034 7.83257 25.9899 7.88656L25.2837 12.6515C25.2512 12.8679 25.0848 13.0394 24.8697 13.0774L24.47 13.1479V15.3015C24.47 15.5823 24.2425 15.8094 23.9622 15.8094C23.6819 15.8094 23.4546 15.5823 23.4546 15.3015V13.3271C23.4383 13.3257 23.0365 13.4561 22.8348 13.0835L20.7464 9.22613L16.4876 10.121L21.0805 25.0516H21.9318V22.5127C21.9318 22.2322 22.1588 22.0047 22.4391 22.0047H23.4546V19.872C23.4546 19.5916 23.6819 19.3642 23.9622 19.3642C24.2425 19.3642 24.47 19.5916 24.47 19.872V22.0047H25.485C25.7655 22.0047 25.9928 22.2322 25.9928 22.5127V25.5595C25.9928 25.8399 25.7655 26.0674 25.485 26.0674H0.507652C0.22734 26.0674 0 25.8399 0 25.5595V22.5127C0 22.2322 0.22734 22.0047 0.507652 22.0047H1.52312V19.6046C0.648499 19.3786 0 18.5824 0 17.6375H0.0026423ZM1.01811 17.6375C1.01811 18.1976 1.47363 18.6533 2.03358 18.6533C2.59339 18.6533 3.04872 18.1976 3.04872 17.6375C3.04872 17.0774 2.59339 16.6222 2.03358 16.6222C1.47363 16.6222 1.01811 17.0774 1.01811 17.6375ZM1.85721 9.54453C1.30605 9.64196 0.936395 10.1697 1.0338 10.7217C1.12985 11.2691 1.65704 11.6423 2.20996 11.5449C2.20996 11.5446 9.43797 10.3493 9.43797 10.3493L10.1101 8.16396L1.85721 9.54453ZM16.1904 9.14626L21.905 7.94529L21.5523 5.94451L15.5874 7.18732L16.1904 9.14626ZM23.556 12.2779L24.3356 12.1407L24.976 7.81904L24.4756 4.98046L22.396 1.13877L21.617 1.27613L21.0633 5.00892L21.858 4.84311C22.1383 4.78478 22.4118 4.9702 22.4616 5.25208L22.9903 8.25287C23.0377 8.52257 22.8631 8.7816 22.595 8.83789L21.7859 9.00824L23.556 12.2779ZM14.4582 6.97827C14.2362 6.36796 13.6498 5.95793 12.999 5.95793C12.3125 5.95793 11.7155 6.39909 11.5133 7.05541L5.97738 25.0516H7.96274C8.09925 24.6416 12.2781 12.1012 12.5174 11.3835C12.5864 11.1759 12.7805 11.0359 12.999 11.0359C13.2176 11.0359 13.4116 11.1759 13.4807 11.3835C13.5538 11.6028 17.9729 24.8633 18.0354 25.0516H20.0207C19.9801 24.922 14.4954 7.0799 14.4582 6.97827ZM10.7905 19.7777L9.34549 24.1131L14.7637 20.8612L10.7905 19.7777ZM14.4655 17.5501L11.8075 19.0024L15.2634 19.9448L14.4655 17.5501ZM14.1391 16.5708L12.999 13.1495L11.3512 18.0944L14.1391 16.5708ZM15.7635 21.4455L9.75505 25.0516H16.9654L15.7635 21.4455ZM24.9803 23.0206H22.9494V25.0516H24.9803V23.0206ZM1.01811 25.0516H3.04872V23.0206H1.01811V25.0516ZM3.55637 22.0047C3.83669 22.0047 4.06419 22.2322 4.06419 22.5127V25.0516H4.91501L9.10438 11.4336L2.5409 12.5196V15.6705C3.41593 15.8968 4.06419 16.6927 4.06419 17.6375C4.06419 18.5824 3.41593 19.3786 2.5409 19.6046V22.0047H3.55637Z" fill="white"/>
</svg>
