<svg
            width="27"
            height="23"
            viewBox="0 0 27 23"
            fill="none"
            style="margin-right: 13px;"
            xmlns="http://www.w3.org/2000/svg"
          >
            <path
              fill-rule="evenodd"
              clip-rule="evenodd"
              d="M5.14269 8.93182H7.71417V17.8761H5.14269V8.93182ZM15.4286 12.7647H17.9998V17.8761H15.4286V12.7647ZM10.2854 5.09812H12.8571V17.8761H10.2854V5.09812ZM23.143 5.11115V1.27771H20.5713V5.11115H16.7143V7.66659H20.5713V11.5H23.143V7.66659H27V5.11115H23.143ZM20.5713 20.4446H2.57095V2.55544H17.9998V0H2.57095C1.15709 0 0 1.15022 0 2.55544V20.4446C0 21.8498 1.15709 23 2.57095 23H20.5713C21.986 23 23.143 21.8498 23.143 20.4446V14.0557H20.5713V20.4446Z"
              fill="#FEFEFE"
            />
          </svg>