<svg width="18" height="16" viewBox="0 0 18 16" fill="none" xmlns="http://www.w3.org/2000/svg">
<path d="M10.195 11.795C10.4683 11.5217 10.4683 11.0784 10.195 10.8051C9.92161 10.5317 9.47839 10.5317 9.20502 10.8051L10.195 11.795ZM7.70707 13.293L7.2121 12.798L7.21209 12.798L7.70707 13.293ZM7.70707 13.3071L7.21209 13.8021L7.2121 13.8021L7.70707 13.3071ZM9.20502 15.795C9.47839 16.0684 9.92161 16.0684 10.195 15.795C10.4683 15.5217 10.4683 15.0784 10.195 14.8051L9.20502 15.795ZM16.805 10.195C17.0783 10.4684 17.5216 10.4684 17.7949 10.195C18.0683 9.92165 18.0683 9.47843 17.7949 9.20506L16.805 10.195ZM15.307 7.70711L15.802 7.21214L15.802 7.21213L15.307 7.70711ZM15.2929 7.70711L14.7979 7.21213L14.7979 7.21214L15.2929 7.70711ZM12.805 9.20506C12.5316 9.47843 12.5316 9.92165 12.805 10.195C13.0783 10.4684 13.5216 10.4684 13.7949 10.195L12.805 9.20506ZM0.8 1.39995H4.2V-4.88162e-05H0.8V1.39995ZM3.6 0.799951V4.19995H5V0.799951H3.6ZM4.2 3.59995H0.8V4.99995H4.2V3.59995ZM1.4 4.19995V0.799951H-1.78814e-07V4.19995H1.4ZM0.8 3.59995C1.13137 3.59995 1.4 3.86858 1.4 4.19995H-1.78814e-07C-1.78814e-07 4.64178 0.358173 4.99995 0.8 4.99995V3.59995ZM3.6 4.19995C3.6 3.86858 3.86863 3.59995 4.2 3.59995V4.99995C4.64183 4.99995 5 4.64178 5 4.19995H3.6ZM4.2 1.39995C3.86863 1.39995 3.6 1.13132 3.6 0.799951H5C5 0.358122 4.64183 -4.88162e-05 4.2 -4.88162e-05V1.39995ZM0.8 -4.88162e-05C0.358172 -4.88162e-05 -1.78814e-07 0.358124 -1.78814e-07 0.799951H1.4C1.4 1.13132 1.13137 1.39995 0.8 1.39995V-4.88162e-05ZM0.799951 8.39995H4.19995V6.99995H0.799951V8.39995ZM3.59995 7.79995V15.2H4.99995V7.79995H3.59995ZM4.19995 14.6H0.799951V16H4.19995V14.6ZM1.39995 15.2V7.79995H-4.88162e-05V15.2H1.39995ZM0.799951 14.6C1.13133 14.6 1.39995 14.8686 1.39995 15.2H-4.88162e-05C-4.88162e-05 15.6418 0.35812 16 0.799951 16V14.6ZM3.59995 15.2C3.59995 14.8686 3.86858 14.6 4.19995 14.6V16C4.64178 16 4.99995 15.6418 4.99995 15.2H3.59995ZM4.19995 8.39995C3.86858 8.39995 3.59995 8.13132 3.59995 7.79995H4.99995C4.99995 7.35812 4.64178 6.99995 4.19995 6.99995V8.39995ZM0.799951 6.99995C0.358129 6.99995 -4.88162e-05 7.35812 -4.88162e-05 7.79995H1.39995C1.39995 8.13133 1.13132 8.39995 0.799951 8.39995V6.99995ZM7.79995 1.39995H17.2V-4.88162e-05H7.79995V1.39995ZM16.6 0.799951V4.19995H18V0.799951H16.6ZM17.2 3.59995H7.79995V4.99995H17.2V3.59995ZM8.39995 4.19995V0.799951H6.99995V4.19995H8.39995ZM7.79995 3.59995C8.13132 3.59995 8.39995 3.86858 8.39995 4.19995H6.99995C6.99995 4.64178 7.35813 4.99995 7.79995 4.99995V3.59995ZM16.6 4.19995C16.6 3.86858 16.8686 3.59995 17.2 3.59995V4.99995C17.6418 4.99995 18 4.64178 18 4.19995H16.6ZM17.2 1.39995C16.8686 1.39995 16.6 1.13133 16.6 0.799951H18C18 0.35812 17.6418 -4.88162e-05 17.2 -4.88162e-05V1.39995ZM7.79995 -4.88162e-05C7.35812 -4.88162e-05 6.99995 0.358125 6.99995 0.799951H8.39995C8.39995 1.13132 8.13132 1.39995 7.79995 1.39995V-4.88162e-05ZM7.99991 14.0393H14.9273V12.6393H7.99991V14.0393ZM16.0273 12.9393V7.99994H14.6273V12.9393H16.0273ZM14.9273 14.0393C15.5348 14.0393 16.0273 13.5468 16.0273 12.9393H14.6273C14.6273 12.7736 14.7616 12.6393 14.9273 12.6393V14.0393ZM9.20502 10.8051L7.2121 12.798L8.20205 13.788L10.195 11.795L9.20502 10.8051ZM7.2121 13.8021L9.20502 15.795L10.195 14.8051L8.20205 12.8121L7.2121 13.8021ZM7.21209 12.798C6.93482 13.0753 6.93482 13.5248 7.21209 13.8021L8.20205 12.8121C8.47151 13.0816 8.47151 13.5185 8.20205 13.7879L7.21209 12.798ZM17.7949 9.20506L15.802 7.21214L14.8121 8.20208L16.805 10.195L17.7949 9.20506ZM14.7979 7.21214L12.805 9.20506L13.7949 10.195L15.7879 8.20208L14.7979 7.21214ZM15.802 7.21213C15.5247 6.93486 15.0752 6.93486 14.7979 7.21213L15.7879 8.20209C15.5184 8.47155 15.0815 8.47155 14.8121 8.20209L15.802 7.21213Z" fill="white"/>
</svg>





