<svg width="18" height="22" viewBox="0 0 18 22" fill="none" xmlns="http://www.w3.org/2000/svg">
<path d="M9.96233 7.6987H16.0805L9.96233 1.65389V7.6987ZM2.23485 0H11.1026L17.7419 6.61557V19.8337C17.7419 20.4175 17.5269 20.9233 17.0969 21.3579C16.6603 21.786 16.1326 22 15.5136 22H2.23485C1.60935 22 1.08159 21.786 0.651558 21.3579C0.215016 20.9233 0 20.4175 0 19.8337V2.17276C0 1.58903 0.215016 1.07665 0.651558 0.648585C1.08159 0.220518 1.60935 0 2.23485 0ZM12.1907 17.6156V15.3909H2.23485V17.6156H12.1907ZM15.5136 13.2246V11H2.23485V13.2246H15.5136Z" fill="white"/>
</svg>


