<svg width="34" height="34" viewBox="0 0 34 34" fill="none" xmlns="http://www.w3.org/2000/svg">
<path d="M9.17244 10.6855C8.9889 10.6855 8.8147 10.7241 8.65432 10.7877L16.6667 17.7493C16.9508 17.9961 17.2881 17.9959 17.5716 17.7493L25.5693 10.7877C25.409 10.7241 25.2348 10.6855 25.0512 10.6855H9.17244ZM7.78596 11.8896C7.77709 11.9534 7.77148 12.0203 7.77148 12.0866V21.4271C7.77148 21.6187 7.81191 21.801 7.88095 21.9671L13.4269 16.786L7.78608 11.8896H7.78596ZM26.4377 11.8896L20.8115 16.786L26.3428 21.9744C26.4136 21.8066 26.4523 21.6211 26.4523 21.4271V12.0866C26.4523 12.0203 26.4465 11.9534 26.4378 11.8896H26.4377ZM19.7461 17.7055L18.491 18.8001C17.71 19.4797 16.5283 19.4785 15.7472 18.8001L14.4921 17.7128L9.02649 22.8209C9.07371 22.8255 9.12394 22.8281 9.17244 22.8281H25.0512C25.0973 22.8281 25.145 22.8251 25.1899 22.8209L19.7461 17.7055Z" fill="white"/>
<circle cx="17" cy="17" r="16.5" stroke="#2E50E9"/>
</svg>
