<svg width="34" height="34" viewBox="0 0 34 34" fill="none" xmlns="http://www.w3.org/2000/svg">
<circle cx="17" cy="17" r="16.5" stroke="#2E50E9"/>
<path d="M24.8954 21.3925L24.796 21.1981C24.5177 20.5564 21.0983 19.5842 20.82 19.5647L20.6013 19.5842C20.1839 19.6619 19.7266 20.0314 18.832 20.7897C18.6531 20.9453 18.4145 20.9842 18.1959 20.8675C17.0229 20.2258 15.5916 18.9425 14.8759 18.1647C14.1006 17.3286 13.1662 15.948 12.7289 14.8397C12.6494 14.6258 12.7289 14.3924 12.8879 14.2369C13.9018 13.3424 14.3392 12.9147 14.3789 12.448C14.3988 12.1758 13.8024 8.73406 13.1861 8.4035L13.0072 8.28683C12.6096 8.03405 12.0132 7.6646 11.3572 7.80071C11.1981 7.8396 11.0391 7.89794 10.8999 7.97572C10.4626 8.24794 9.36917 8.98684 8.87217 9.93962C8.57397 10.5424 8.43481 16.0064 12.6096 20.6147C16.7446 25.1842 21.8538 25.3787 22.6092 25.2231H22.6291L22.6887 25.2037C23.7225 24.8342 24.5972 23.8814 24.9352 23.4731C25.5514 22.7536 25.134 21.8786 24.8954 21.3925Z" fill="white"/>
</svg>
