<svg width="23" height="23" viewBox="0 0 23 23" fill="none" xmlns="http://www.w3.org/2000/svg">
<path d="M7.21817 0.771484C5.52142 0.771484 4.12682 2.17011 4.12682 3.86685V6.44348H3.07623C1.39005 6.44348 0 7.83353 0 9.51971V20.903C0 21.6953 0.519865 22.3707 1.16139 22.6355C1.80293 22.9002 2.64736 22.7863 3.20617 22.2245L4.10064 21.322C4.38025 21.0409 4.76282 20.8838 5.15929 20.8838H15.4718C17.1686 20.8838 18.5672 19.4852 18.5672 17.7885V16.0731L19.5493 16.8487C20.7397 17.8459 22.69 16.936 22.69 15.3831V3.86685C22.69 2.1701 21.2954 0.771484 19.5986 0.771484H7.21817ZM7.21817 2.83439H19.5986C20.1805 2.83439 20.6311 3.28498 20.6311 3.86685V15.1695C20.0328 14.5976 19.3395 14.1285 18.5672 13.8661V9.53885C18.5672 7.84209 17.1686 6.44348 15.4718 6.44348H6.19074V3.86685C6.19074 3.28498 6.63629 2.83439 7.21817 2.83439ZM3.07623 8.50739H15.4718C16.0537 8.50739 16.5043 8.95697 16.5043 9.53885V17.7885C16.5043 18.3703 16.0537 18.8209 15.4718 18.8209H5.15929C4.21464 18.8209 3.30429 19.1978 2.63807 19.8675L2.06392 20.4467V9.51971C2.06392 8.9484 2.50493 8.50739 3.07623 8.50739ZM4.64054 11.6028C4.35728 11.6038 4.12793 11.8332 4.12682 12.1165C4.12579 12.4013 4.35571 12.6331 4.64054 12.6342H13.9266C14.2115 12.6331 14.4415 12.4013 14.4404 12.1165C14.4393 11.8332 14.2099 11.6039 13.9266 11.6028H4.64054ZM4.64054 14.6971C4.35689 14.6982 4.12738 14.9282 4.12682 15.2118C4.12786 15.4951 4.35728 15.7245 4.64054 15.7256H13.9266C14.2099 15.7245 14.4393 15.4951 14.4404 15.2118C14.4398 14.9282 14.2103 14.6982 13.9266 14.6971H4.64054Z" fill="white"/>
</svg>
