<svg width="22" height="15" viewBox="0 0 22 15" fill="none" xmlns="http://www.w3.org/2000/svg">
<path d="M1.64987 0.685791C1.43372 0.685791 1.22857 0.731194 1.0397 0.806104L10.4757 9.00459C10.8103 9.2953 11.2076 9.295 11.5414 9.00459L20.9602 0.806104C20.7713 0.731194 20.5661 0.685791 20.35 0.685791H1.64987ZM0.0170502 2.10375C0.00660012 2.17894 0 2.25767 0 2.3358V13.3359C0 13.5615 0.0476029 13.7763 0.128921 13.9718L6.66021 7.87021L0.0171876 2.10375H0.0170502ZM21.9828 2.10375L15.357 7.87021L21.8711 13.9804C21.9544 13.7829 22 13.5644 22 13.3359V2.3358C22 2.25767 21.9931 2.17894 21.983 2.10375H21.9828ZM14.1023 8.95303L12.6241 10.2421C11.7043 11.0425 10.3128 11.0411 9.39288 10.2421L7.91474 8.96164L1.478 14.9773C1.5336 14.9828 1.59276 14.9858 1.64987 14.9858H20.35C20.4043 14.9858 20.4604 14.9822 20.5133 14.9773L14.1023 8.95303Z" fill="white"/>
</svg>
