<svg width="22" height="26" viewBox="0 0 22 26" fill="none" xmlns="http://www.w3.org/2000/svg">
<path d="M11 0C4.95 0 0 4.85833 0 10.9083V14.1167C0 14.2083 0 14.2083 0 14.3C0 14.3917 0 14.575 0 14.6667C0 17.2333 2.01667 19.25 4.58333 19.25C5.13333 19.25 5.5 18.8833 5.5 18.3333V11C5.5 10.45 5.13333 10.0833 4.58333 10.0833C3.575 10.0833 2.56667 10.45 1.83333 11V10.8167C1.83333 5.86667 5.95833 1.83333 11 1.83333C16.0417 1.83333 20.1667 5.86667 20.1667 10.9083V11C19.4333 10.45 18.425 10.0833 17.4167 10.0833C16.8667 10.0833 16.5 10.45 16.5 11V18.3333C16.5 18.8833 16.8667 19.25 17.4167 19.25C18.0583 19.25 18.7 19.0667 19.25 18.8833C18.3333 20.8083 16.6833 22.275 14.6667 23.1C14.6667 23.0083 14.6667 23.0083 14.6667 22.9167C14.6667 22.3667 14.3 22 13.75 22H11C10.45 22 10.0833 22.3667 10.0833 22.9167V24.75C10.0833 25.3 10.45 25.6667 11 25.6667C17.05 25.6667 22 20.9 22 15.0333V14.1167V11.9167V10.9083C22 4.85833 17.05 0 11 0Z" fill="white"/>
</svg>
