<svg width="34" height="34" viewBox="0 0 34 34" fill="none" xmlns="http://www.w3.org/2000/svg">
<path d="M16.4314 26.7007C17.7354 26.7007 18.7925 25.6436 18.7925 24.3396C18.7925 23.0356 17.7354 21.9785 16.4314 21.9785C15.1274 21.9785 14.0703 23.0356 14.0703 24.3396C14.0703 25.6436 15.1274 26.7007 16.4314 26.7007Z" fill="white"/>
<path fill-rule="evenodd" clip-rule="evenodd" d="M18.3536 20.09C18.3536 19.8986 18.3536 19.6115 18.3536 19.2287C18.3889 18.6645 18.5828 18.2194 18.9354 17.8932C19.288 17.5671 19.6582 17.2365 20.046 16.9016C20.381 16.6195 20.7072 16.3198 21.0245 16.0025C21.3418 15.6851 21.6283 15.3325 21.8839 14.9447C22.1396 14.5568 22.3467 14.1249 22.5054 13.6489C22.664 13.1729 22.7434 12.6352 22.7434 12.0358C22.7434 11.1367 22.5847 10.3566 22.2674 9.69547C21.95 9.03436 21.5181 8.49225 20.9716 8.06914C20.4251 7.64603 19.7992 7.32869 19.094 7.11714C18.3889 6.90558 17.6484 6.7998 16.8727 6.7998C16.1852 6.7998 15.524 6.87473 14.8894 7.02458C14.2547 7.17443 13.6377 7.37277 13.0383 7.61958C10.6707 8.4339 11.5661 11.7536 14.0527 10.8973C14.4436 10.7627 14.9775 10.5725 15.6298 10.3962C15.6651 10.3786 15.718 10.3654 15.7885 10.3566C15.859 10.3478 15.9119 10.3345 15.9472 10.3169C16.2469 10.264 16.5377 10.2376 16.8198 10.2376C17.4369 10.2376 17.9349 10.3918 18.3139 10.7004C18.693 11.0089 18.8825 11.4364 18.8825 11.9829C18.8825 12.4237 18.7767 12.8159 18.5652 13.1597C18.3536 13.5035 18.0936 13.8296 17.785 14.1381C17.4765 14.4467 17.1416 14.7596 16.7802 15.0769C16.4187 15.3942 16.0838 15.738 15.7753 16.1082C15.4667 16.4785 15.2067 16.8884 14.9952 17.3379C14.7836 17.7875 14.6778 18.312 14.6778 18.9114C14.6778 19.1582 14.691 19.3918 14.7175 19.6121C14.7439 19.8325 14.7836 20.0735 14.8894 20.3489C14.9952 20.6243 15.7735 20.6081 16.4307 20.6243C17.0879 20.6405 18.3536 20.6243 18.3536 20.09Z" fill="white"/>
<circle cx="17" cy="17" r="16.5" stroke="#2E50E9"/>
</svg>
