<svg width="34" height="34" viewBox="0 0 34 34" fill="none" xmlns="http://www.w3.org/2000/svg">
<circle cx="17" cy="17" r="16.5" stroke="#2E50E9"/>
<path d="M13.9521 7.77148C12.4993 7.77148 11.3051 8.96907 11.3051 10.4219V12.6282H10.4055C8.96173 12.6282 7.77148 13.8184 7.77148 15.2623V25.0093C7.77148 25.6878 8.21663 26.2661 8.76594 26.4928C9.31526 26.7195 10.0383 26.6219 10.5168 26.1409L11.2827 25.3681C11.5221 25.1274 11.8497 24.9929 12.1892 24.9929H21.0194C22.4723 24.9929 23.6699 23.7953 23.6699 22.3425V20.8737L24.5108 21.5378C25.5301 22.3916 27.2001 21.6125 27.2001 20.2828V10.4219C27.2001 8.96907 26.0059 7.77148 24.5531 7.77148H13.9521ZM13.9521 9.53787H24.5531C25.0513 9.53787 25.4371 9.92369 25.4371 10.4219V20.1C24.9248 19.6103 24.3312 19.2086 23.6699 18.9839V15.2786C23.6699 13.8258 22.4723 12.6282 21.0194 12.6282H13.0724V10.4219C13.0724 9.9237 13.4539 9.53787 13.9521 9.53787ZM10.4055 14.3954H21.0194C21.5177 14.3954 21.9035 14.7804 21.9035 15.2786V22.3425C21.9035 22.8407 21.5177 23.2265 21.0194 23.2265H12.1892C11.3803 23.2265 10.6008 23.5492 10.0304 24.1227L9.53874 24.6186V15.2623C9.53874 14.7731 9.91636 14.3954 10.4055 14.3954ZM11.745 17.0459C11.5025 17.0468 11.3061 17.2432 11.3051 17.4858C11.3042 17.7297 11.5011 17.9281 11.745 17.9291H19.6963C19.9402 17.9281 20.1372 17.7297 20.1362 17.4858C20.1353 17.2432 19.9389 17.0468 19.6963 17.0459H11.745ZM11.745 19.6955C11.5021 19.6964 11.3056 19.8933 11.3051 20.1362C11.306 20.3788 11.5025 20.5751 11.745 20.5761H19.6963C19.9389 20.5752 20.1353 20.3788 20.1362 20.1362C20.1358 19.8933 19.9392 19.6964 19.6963 19.6955H11.745Z" fill="white"/>
</svg>
