<svg width="28" height="19" viewBox="0 0 28 19" fill="none" xmlns="http://www.w3.org/2000/svg">
<path d="M3.5 0C1.561 0 0 1.54073 0 3.45455V15.5455C0 17.4593 1.561 19 3.5 19H19.25C21.189 19 22.75 17.4593 22.75 15.5455V8.98182L28 3.45455H22.75C22.75 1.54073 21.189 0 19.25 0H3.5ZM11.2665 3.45455C13.5625 3.32673 15.6205 5.07127 15.75 7.34091C15.75 9.27718 15.211 10.0078 13.5082 11.2808C13.3285 11.4061 13.1635 11.551 13.0165 11.7126C12.9465 11.799 12.9605 11.7696 12.9605 11.7662C12.971 12.4968 12.278 13.1169 11.5395 13.1169C11.178 13.1129 10.8325 12.9692 10.577 12.7167C10.3215 12.4642 10.1764 12.123 10.1728 11.7662C10.1728 11.0735 10.486 10.4638 10.829 10.0389C11.1139 9.67552 11.4443 9.34933 11.8125 9.06818C12.1713 8.79589 12.5014 8.48861 12.7978 8.151C12.9272 7.99555 12.9675 7.73645 12.9605 7.55682V7.50327C12.9528 7.3216 12.9082 7.14332 12.8292 6.97902C12.7503 6.81472 12.6387 6.66777 12.5011 6.54691C12.3634 6.42605 12.2026 6.33375 12.0281 6.27549C11.8536 6.21724 11.669 6.19422 11.4853 6.20782C10.696 6.251 10.0625 6.83309 9.996 7.51709C9.97398 7.82786 9.83076 8.11811 9.59645 8.32684C9.36213 8.53556 9.05496 8.64651 8.7395 8.63636C8.42977 8.63478 8.12896 8.53384 7.88243 8.34878C7.6359 8.16371 7.45701 7.90455 7.37275 7.61036C7.33021 7.30444 7.33612 6.99386 7.39025 6.68973C7.399 6.66555 7.40075 6.63791 7.41125 6.61545C7.76475 4.84673 9.31875 3.56164 11.2665 3.45455ZM11.5395 14.5195C11.9155 14.5231 12.2751 14.6722 12.5409 14.9348C12.8066 15.1975 12.9573 15.5526 12.9605 15.9237C12.9605 16.6872 12.313 17.2727 11.5395 17.2727C11.3592 17.2758 11.1801 17.243 11.0128 17.1762C10.8456 17.1095 10.6937 17.0103 10.5662 16.8844C10.4387 16.7585 10.3381 16.6086 10.2705 16.4435C10.2029 16.2785 10.1697 16.1017 10.1728 15.9237C10.1728 15.1603 10.7677 14.5195 11.5395 14.5195Z" fill="white"/>
</svg>
