<svg width="16" height="16" viewBox="0 0 16 16" fill="none" xmlns="http://www.w3.org/2000/svg">
<path fill-rule="evenodd" clip-rule="evenodd" d="M2.17786 2.1776V13.8224H13.822V2.1776H12.8215H3.17803H2.17786ZM15.9997 2.93993H16V14.8639H15.9997V14.895H15.9992L15.9983 14.926H15.998L15.9968 14.9566H15.9964L15.9949 14.9869H15.9944L15.9917 15.0168H15.9912L15.9878 15.0462H15.9873L15.9834 15.0757H15.9831L15.9783 15.1044H15.978L15.9728 15.1331H15.9724L15.9667 15.1614H15.9662L15.9597 15.1888H15.9596L15.9524 15.2164H15.9521L15.9442 15.2439H15.9436L15.9355 15.2707H15.9352L15.9264 15.297H15.926L15.9167 15.3233H15.9162L15.9061 15.3489H15.9056L15.8946 15.3741H15.8942L15.8832 15.3988H15.8829L15.8707 15.4231H15.8702L15.858 15.4475H15.8577L15.8446 15.4707H15.8443L15.8306 15.4939H15.8301L15.8164 15.517H15.816L15.8015 15.5391H15.801L15.7861 15.5607H15.7858L15.77 15.5823H15.7695L15.7531 15.6031H15.7528L15.7362 15.6239H15.7358L15.7189 15.644H15.7186L15.7008 15.6633H15.7006L15.6823 15.6825H15.682L15.6631 15.701H15.6627L15.6438 15.719H15.6436L15.624 15.7363H15.6235L15.6031 15.7532H15.6026L15.5822 15.7702H15.5817L15.5605 15.7863H15.5602L15.5388 15.8019H15.5387L15.5165 15.8165L15.4938 15.831H15.4935L15.4705 15.8447H15.4701L15.4475 15.8582H15.4469L15.4229 15.8708H15.4226L15.3987 15.8833H15.3984L15.3738 15.8946H15.3735L15.3488 15.9062H15.3485L15.3227 15.9167H15.3226L15.2968 15.9266H15.2965L15.2704 15.9356H15.2703L15.2435 15.9443H15.243L15.2163 15.9524H15.2159L15.1889 15.96H15.1884L15.1613 15.967H15.1609L15.133 15.973H15.1325L15.1042 15.9784H15.1041L15.0756 15.9835H15.0753L15.0462 15.9878H15.0457L15.0166 15.9919H15.0162L14.9868 15.9949H14.9865L14.9567 15.9973H14.9562L14.9259 15.9985H14.9255L14.8949 15.9996H14.8946L14.8639 16H14.8634H1.13606L1.10543 15.9996H1.10509L1.07446 15.9985H1.07396L1.04383 15.9973H1.04332L1.01337 15.9949H1.01303L0.983584 15.9919H0.983246L0.954138 15.9878H0.95363L0.924691 15.9835H0.924353L0.896091 15.9784H0.895583L0.867321 15.973H0.866983L0.839059 15.967H0.838551L0.811474 15.96H0.810966L0.784058 15.9524H0.783551L0.756473 15.9443H0.756135L0.729734 15.9356H0.729396L0.703503 15.9266H0.702995L0.677103 15.9167H0.676764L0.651549 15.9062H0.65121L0.626333 15.8946H0.625994L0.601625 15.8833H0.601286L0.577255 15.8708H0.576917L0.552885 15.8582H0.552547L0.5297 15.8447H0.529362L0.506516 15.831H0.506177L0.483331 15.8165H0.482992L0.46133 15.8019H0.460992L0.439838 15.7863H0.43933L0.418176 15.7702H0.417668L0.39736 15.7532H0.396852L0.376375 15.7363H0.376206L0.356405 15.719H0.356067L0.337113 15.701H0.336774L0.317989 15.6825H0.317482L0.299543 15.6633H0.299035L0.281266 15.644H0.281097L0.264173 15.6239H0.263666L0.246742 15.6031L0.230327 15.5823H0.229819L0.214249 15.5607H0.213742L0.198342 15.5391H0.198003L0.183787 15.517H0.183618L0.169403 15.4939H0.169064L0.155525 15.4707H0.155187L0.142325 15.4475H0.141818L0.129633 15.4231H0.129294L0.117109 15.3988H0.116771L0.105602 15.3741H0.105263L0.094263 15.3489H0.0939245L0.0837705 15.3233H0.0832628L0.073955 15.297H0.0734473L0.0648164 15.2707H0.0644779L0.0561855 15.2439H0.0556778L0.0480623 15.2164H0.0475546L0.0404468 15.1888H0.0401083L0.0335082 15.1614H0.0330005L0.0274158 15.1331H0.0270773L0.0220003 15.1044H0.0216619L0.0169233 15.0757H0.0165849L0.0125233 15.0462H0.0121848L0.0086309 15.0168H0.0081232L0.00541547 14.9869H0.005077L0.0030462 14.9566H0.00287697L0.0020308 14.926H0.0015231L0.000676934 14.895H0.0005077V14.8639H0V2.93993H0.0005077V1.1361C0.0005077 0.468823 0.469086 0 1.13606 0H3.17803H12.8215H14.8634C15.5307 0 15.9997 0.468823 15.9997 1.1361V2.93993Z" fill="#82BAFF"/>
</svg>
