<svg width="21" height="20" viewBox="0 0 21 20" fill="none" xmlns="http://www.w3.org/2000/svg">
<path d="M8.5 2C10.1499 2 11.6443 2.66595 12.7289 3.74371L14.1432 2.32949C12.6965 0.889802 10.7022 0 8.5 0C4.08172 0 0.5 3.58172 0.5 8C0.5 12.4183 4.08172 16 8.5 16C10.3487 16 12.051 15.3729 13.4056 14.3199L18.7929 19.7071C19.1834 20.0976 19.8166 20.0976 20.2071 19.7071C20.5976 19.3166 20.5976 18.6834 20.2071 18.2929L14.8199 12.9056C15.8729 11.551 16.5 9.84871 16.5 8C16.5 6.91649 16.2846 5.88329 15.8943 4.94088L14.3159 6.51926C14.4361 6.99289 14.5 7.48898 14.5 8C14.5 11.3137 11.8137 14 8.5 14C5.18629 14 2.5 11.3137 2.5 8C2.5 4.68629 5.18629 2 8.5 2Z" fill="white"/>
<path d="M9.24541 4.41118L11.1564 6.32216L15.9843 1.49428L14.49 0H18.657V4.16699L17.1627 2.67271L11.7456 8.0898C11.4197 8.41566 10.893 8.41566 10.5672 8.0898L9.48959 7.01221V11.6676C9.48959 12.0043 9.28625 12.3093 8.97539 12.4376C8.6637 12.5676 8.30534 12.4951 8.06698 12.2568L6.156 10.3458L4.88924 11.6126C4.51337 11.1809 4.21168 10.6858 4 10.145L5.56679 8.57817C5.89265 8.25231 6.41935 8.25231 6.74521 8.57817L7.8228 9.65575V5.00039C7.8228 4.6637 8.02615 4.35951 8.337 4.23033C8.6487 4.10199 9.00622 4.17283 9.24541 4.41118Z" fill="white"/>
</svg>
