<svg width="20" height="20" viewBox="0 0 20 20" fill="none" xmlns="http://www.w3.org/2000/svg">
<path d="M8.63899 10.221H9.33899C9.33899 10.0503 9.27664 9.88548 9.16365 9.75756L8.63899 10.221ZM5.20196 6.3296L4.6773 6.793L5.20196 6.3296ZM14.7593 6.3296L14.2346 5.8662L14.7593 6.3296ZM11.2848 10.2634L10.7601 9.79995C10.6471 9.92788 10.5848 10.0927 10.5848 10.2634H11.2848ZM11.2848 13.2053L11.6916 13.775C11.8756 13.6436 11.9848 13.4314 11.9848 13.2053H11.2848ZM8.79711 14.9819L8.3903 14.4122L8.3903 14.4122L8.79711 14.9819ZM9.16365 9.75756L5.72661 5.8662L4.6773 6.793L8.11434 10.6844L9.16365 9.75756ZM5.72661 5.8662C5.70665 5.84361 5.70215 5.82697 5.70066 5.81531C5.69874 5.80029 5.70081 5.78017 5.7104 5.75889C5.72 5.73761 5.73371 5.72275 5.74624 5.71424C5.75597 5.70763 5.77142 5.7 5.80156 5.7V4.3C4.50953 4.3 3.82198 5.82461 4.6773 6.793L5.72661 5.8662ZM5.80156 5.7H14.1597V4.3H5.80156V5.7ZM14.1597 5.7C14.1898 5.7 14.2053 5.70763 14.215 5.71424C14.2275 5.72275 14.2412 5.73761 14.2508 5.75889C14.2604 5.78017 14.2625 5.80029 14.2606 5.81531C14.2591 5.82698 14.2546 5.84361 14.2346 5.8662L15.2839 6.793C16.1392 5.82461 15.4517 4.3 14.1597 4.3V5.7ZM14.2346 5.8662L10.7601 9.79995L11.8094 10.7268L15.2839 6.793L14.2346 5.8662ZM10.5848 10.2634V13.2053H11.9848V10.2634H10.5848ZM10.878 12.6357L8.3903 14.4122L9.20392 15.5515L11.6916 13.775L10.878 12.6357ZM8.3903 14.4122C8.78743 14.1286 9.33899 14.4125 9.33899 14.9005H7.93899C7.93899 15.5511 8.67442 15.9297 9.20393 15.5515L8.3903 14.4122ZM9.33899 14.9005V10.221H7.93899V14.9005H9.33899Z" fill="#9EA4C9"/>
</svg>
