<svg width="18" height="18" viewBox="0 0 18 18" fill="none" xmlns="http://www.w3.org/2000/svg">
<path d="M11.596 4.9867L8.99999 3.44325L6.40402 4.9867V8.07359L8.99999 9.61704L11.596 8.07359V4.9867Z" fill="#B3B7DD"/>
<path d="M3.4565 3.94128C3.83551 3.94128 4.14276 3.62494 4.14276 3.23471C4.14276 2.84449 3.83551 2.52814 3.4565 2.52814C3.07749 2.52814 2.77024 2.84449 2.77024 3.23471C2.77024 3.62494 3.07749 3.94128 3.4565 3.94128Z" fill="#B3B7DD"/>
<path d="M17.3137 8.88445C17.6928 8.88445 18 8.56811 18 8.17788C18 7.78766 17.6928 7.47132 17.3137 7.47132C16.9347 7.47132 16.6275 7.78766 16.6275 8.17788C16.6275 8.56811 16.9347 8.88445 17.3137 8.88445Z" fill="#B3B7DD"/>
<path d="M11.9476 4.88204V4.98629L13.7504 3.91486C13.6746 3.82272 13.6147 3.71793 13.5732 3.60501L11.7704 4.67644L11.8575 4.72857C11.8843 4.74379 11.9067 4.76597 11.9225 4.79291C11.9383 4.81985 11.9469 4.85058 11.9476 4.88204Z" fill="#B3B7DD"/>
<path d="M6.05247 4.88211C6.05232 4.85045 6.06031 4.8193 6.07562 4.79184C6.09093 4.76438 6.11303 4.74157 6.13966 4.72574L6.22685 4.67362L4.42401 3.60218C4.38252 3.7151 4.3226 3.81989 4.24682 3.91203L6.04966 4.98346L6.05247 4.88211Z" fill="#B3B7DD"/>
<path d="M14.5435 3.94128C14.9225 3.94128 15.2298 3.62494 15.2298 3.23471C15.2298 2.84449 14.9225 2.52814 14.5435 2.52814C14.1645 2.52814 13.8572 2.84449 13.8572 3.23471C13.8572 3.62494 14.1645 3.94128 14.5435 3.94128Z" fill="#B3B7DD"/>
<path d="M17.3137 15.4723C17.6928 15.4723 18 15.156 18 14.7658C18 14.3755 17.6928 14.0592 17.3137 14.0592C16.9347 14.0592 16.6275 14.3755 16.6275 14.7658C16.6275 15.156 16.9347 15.4723 17.3137 15.4723Z" fill="#B3B7DD"/>
<path d="M14.5439 9.61679L14.6311 9.66891C14.6577 9.68474 14.6798 9.70755 14.6951 9.73501C14.7104 9.76247 14.7184 9.79362 14.7183 9.82528V9.92953L16.5211 8.8581C16.4451 8.76508 16.3851 8.65929 16.3439 8.54535L14.5439 9.61679Z" fill="#B3B7DD"/>
<path d="M1.47933 8.85527L3.28217 9.9267V9.82246C3.28201 9.79079 3.29 9.75965 3.30531 9.73218C3.32062 9.70472 3.34272 9.68192 3.36935 9.66608L3.45654 9.61396L1.65371 8.54252C1.61336 8.65626 1.55438 8.76204 1.47933 8.85527Z" fill="#B3B7DD"/>
<path d="M6.22957 14.9479C6.19904 14.9481 6.16898 14.9401 6.14239 14.9247L6.0552 14.8726V17.8205C6.0552 17.8681 6.07357 17.9137 6.10627 17.9474C6.13897 17.9811 6.18333 18 6.22957 18C6.27582 18 6.32018 17.9811 6.35288 17.9474C6.38558 17.9137 6.40395 17.8681 6.40395 17.8205V14.8697L6.31676 14.9218C6.29044 14.9383 6.26036 14.9472 6.22957 14.9479Z" fill="#B3B7DD"/>
<path d="M9.08755 3.0782L9.17474 3.13033V0.179538C9.17474 0.131922 9.15637 0.086255 9.12367 0.0525852C9.09096 0.0189153 9.04661 0 9.00036 0C8.95411 0 8.90976 0.0189153 8.87706 0.0525852C8.84436 0.086255 8.82599 0.131922 8.82599 0.179538V3.13033L8.91317 3.0782C8.93968 3.06245 8.96975 3.05415 9.00036 3.05415C9.03097 3.05415 9.06104 3.06245 9.08755 3.0782Z" fill="#B3B7DD"/>
<path d="M11.7706 14.9479C11.7401 14.9481 11.71 14.9401 11.6834 14.9247L11.5962 14.8726V17.8205C11.5962 17.8681 11.6146 17.9137 11.6473 17.9474C11.68 17.9811 11.7244 18 11.7706 18C11.8168 18 11.8612 17.9811 11.8939 17.9474C11.9266 17.9137 11.945 17.8681 11.945 17.8205V14.8697L11.8578 14.9218C11.8315 14.9383 11.8014 14.9472 11.7706 14.9479Z" fill="#B3B7DD"/>
<path d="M14.7183 13.1205C14.7184 13.1522 14.7104 13.1833 14.6951 13.2108C14.6798 13.2382 14.6577 13.2611 14.6311 13.2769L14.5439 13.329L16.3467 14.4004C16.3879 14.2865 16.4479 14.1807 16.5239 14.0877L14.7211 13.0163L14.7183 13.1205Z" fill="#B3B7DD"/>
<path d="M3.28217 13.1205V13.0163L1.47933 14.0877C1.55538 14.1807 1.61532 14.2865 1.65652 14.4004L3.45936 13.329L3.37498 13.274C3.34771 13.2591 3.32475 13.2371 3.30844 13.2102C3.29213 13.1832 3.28307 13.1523 3.28217 13.1205Z" fill="#B3B7DD"/>
<path d="M0.686259 8.88445C1.06527 8.88445 1.37252 8.56811 1.37252 8.17788C1.37252 7.78766 1.06527 7.47132 0.686259 7.47132C0.307249 7.47132 0 7.78766 0 8.17788C0 8.56811 0.307249 8.88445 0.686259 8.88445Z" fill="#B3B7DD"/>
<path d="M9.17426 9.92987V13.0168L11.7702 14.5602L14.3662 13.0168V9.92987L11.7702 8.38642L9.17426 9.92987Z" fill="#B3B7DD"/>
<path d="M0.686259 15.4723C1.06527 15.4723 1.37252 15.156 1.37252 14.7658C1.37252 14.3755 1.06527 14.0592 0.686259 14.0592C0.307249 14.0592 0 14.3755 0 14.7658C0 15.156 0.307249 15.4723 0.686259 15.4723Z" fill="#B3B7DD"/>
<path d="M3.63378 9.92987V13.0168L6.22975 14.5602L8.82572 13.0168V9.92987L6.22975 8.38642L3.63378 9.92987Z" fill="#B3B7DD"/>
</svg>
