<svg width="14" height="16" viewBox="0 0 14 16" fill="none" xmlns="http://www.w3.org/2000/svg">
<path d="M11.3751 6.42553C12.82 6.42553 14.0004 5.30392 14.0004 3.93516C14.0004 2.66146 11.9042 0.361199 11.66 0.114063C11.5786 0.0380209 11.4768 0 11.3751 0C11.2733 0 11.1512 0.0380209 11.0902 0.114063C10.8459 0.361199 8.74976 2.66146 8.74976 3.93516C8.74976 5.30392 9.93013 6.42553 11.3751 6.42553ZM10.3168 4.41042C10.4389 4.25834 10.6831 4.23933 10.8459 4.35339C10.907 4.39141 11.3954 4.7336 11.9042 4.35339C12.067 4.23933 12.3112 4.25834 12.4333 4.41042C12.5555 4.56251 12.5351 4.79063 12.3723 4.9047C12.0467 5.15183 11.7007 5.22787 11.3954 5.22787C10.9477 5.22787 10.561 5.05678 10.3575 4.9047C10.1947 4.79063 10.1744 4.56251 10.3168 4.41042Z" fill="white"/>
<path d="M4.07592 15.9077C4.38197 15.9876 4.76453 15.6682 4.6115 15.3489C3.84638 13.7522 4.6115 12.2354 5.2236 11.6765C5.2236 12.1555 5.52965 12.9539 5.8357 13.2732C5.8357 12.1555 6.90687 11.1177 6.67733 9.7605C8.3606 11.5967 8.28409 13.9119 7.51897 15.5086C7.36594 15.7481 7.59548 16.0674 7.90153 15.9876C9.81433 15.1892 10.4264 13.1135 10.5029 11.1177C10.5029 9.20167 9.89084 7.44532 9.27875 6.72681C9.35526 7.68482 8.9727 8.64283 8.43711 8.96216C8.20758 7.36548 6.83036 5.36963 5.2236 4.57129C6.06524 7.12598 2.92824 8.72266 2.92824 11.1177C2.46916 10.7185 2.23963 9.60084 2.0866 8.88233C1.55102 9.68067 1.16846 11.1177 1.16846 12.1555C1.16846 13.6724 2.23963 15.3489 4.07592 15.9077Z" fill="white"/>
<path d="M1.80838 6.81013C2.7912 6.81013 3.57745 6.0307 3.57745 5.06117C3.57745 4.16768 2.16219 2.5708 1.98529 2.3807C1.94598 2.32367 1.86735 2.28564 1.78872 2.28564C1.7101 2.28564 1.65113 2.32367 1.59216 2.3807C1.43491 2.55179 0 4.16768 0 5.06117C0.0393126 6.0307 0.845222 6.81013 1.80838 6.81013ZM1.10075 5.40336C1.19904 5.2893 1.35629 5.27029 1.45457 5.36534C1.49388 5.40336 1.82804 5.63148 2.16219 5.36534C2.28013 5.27029 2.43738 5.2893 2.51601 5.40336C2.61429 5.51742 2.59463 5.6695 2.4767 5.74555C2.26048 5.91664 2.0246 5.97367 1.80838 5.97367C1.51354 5.97367 1.23835 5.8406 1.10075 5.74555C1.02213 5.6695 1.00247 5.49841 1.10075 5.40336Z" fill="white"/>
</svg>
