<svg width="18" height="18" viewBox="0 0 18 18" fill="none" xmlns="http://www.w3.org/2000/svg">
<path d="M3.66735 3.07317C4.07155 3.07317 4.39923 2.73621 4.39923 2.32056C4.39923 1.9049 4.07155 1.56794 3.66735 1.56794C3.26314 1.56794 2.93547 1.9049 2.93547 2.32056C2.93547 2.73621 3.26314 3.07317 3.66735 3.07317Z" fill="#B3B7DD"/>
<path d="M5.49705 1.50523C5.90125 1.50523 6.22893 1.16827 6.22893 0.752613C6.22893 0.336956 5.90125 0 5.49705 0C5.09284 0 4.76517 0.336956 4.76517 0.752613C4.76517 1.16827 5.09284 1.50523 5.49705 1.50523Z" fill="#B3B7DD"/>
<path d="M17.695 15.1777H16.6847C18.5496 12.2561 16.5148 8.14875 13.1207 7.97773C12.6945 7.89372 12.207 8.08179 12.206 8.59237C12.2064 8.75855 12.2708 8.91778 12.3851 9.03529C12.4994 9.15279 12.6542 9.21902 12.8158 9.21951C15.8325 9.21157 17.3159 13.0741 15.1112 15.1777H10.3762V14.5505H13.7307C13.8105 14.5489 13.8866 14.5152 13.9425 14.4565C13.9984 14.3979 14.0298 14.319 14.0297 14.2369C14.0297 14.1548 13.9984 14.0759 13.9425 14.0173C13.8866 13.9587 13.8105 13.9249 13.7307 13.9233H10.0713C9.99042 13.9233 9.91285 13.9564 9.85566 14.0152C9.79848 14.074 9.76635 14.1538 9.76635 14.2369V15.1777C9.68547 15.1777 9.6079 15.2107 9.55071 15.2695C9.49353 15.3283 9.4614 15.4081 9.4614 15.4913V17.0592C9.4614 17.1424 9.49353 17.2222 9.55071 17.281C9.6079 17.3398 9.68547 17.3728 9.76635 17.3728H17.695C17.7759 17.3728 17.8535 17.3398 17.9107 17.281C17.9679 17.2222 18 17.1424 18 17.0592V15.4913C18 15.4081 17.9679 15.3283 17.9107 15.2695C17.8535 15.2107 17.7759 15.1777 17.695 15.1777Z" fill="#B3B7DD"/>
<path d="M9.76635 17.6864C9.60464 17.6862 9.4496 17.6201 9.33526 17.5025C9.22092 17.3849 9.15661 17.2255 9.15645 17.0592V15.4913C9.15652 15.3812 9.18473 15.2731 9.23825 15.1778C9.29178 15.0825 9.36873 15.0034 9.4614 14.9483V14.2369C9.46156 14.0706 9.52587 13.9112 9.64021 13.7936C9.75455 13.676 9.90959 13.6099 10.0713 13.6097H12.8004C12.8071 13.5056 12.8158 13.402 12.8158 13.2962C12.8147 12.7615 12.7236 12.231 12.5468 11.7282H11.8934C12.093 12.2124 12.1986 12.7321 12.2044 13.258C11.2381 12.5017 10.0654 12.0763 8.8515 12.0418C8.04162 12.0418 7.62619 12.5081 7.25974 12.9193C6.71355 13.5324 6.23493 14.0599 4.2851 13.1021C4.32746 12.2599 4.62133 11.4516 5.12665 10.7875C5.63198 10.1233 6.32418 9.63557 7.1089 9.39069C7.17184 9.37139 7.22704 9.33171 7.26629 9.27755C7.30554 9.2234 7.32675 9.15766 7.32675 9.09012V3.43373C7.32676 3.36375 7.304 3.29578 7.26209 3.24065C7.22018 3.18551 7.16154 3.14638 7.0955 3.12949C6.57181 2.9952 6.42262 2.82371 6.4113 2.7966C6.44912 2.66538 7.0693 2.32056 8.2416 2.32056C9.4139 2.32056 10.0341 2.66538 10.0719 2.78512C10.0606 2.82369 9.91139 2.9952 9.38771 3.12949C9.32167 3.14638 9.26303 3.18551 9.22112 3.24065C9.17921 3.29578 9.15645 3.36375 9.15646 3.43373V9.09012C9.15646 9.15766 9.17766 9.2234 9.21692 9.27755C9.25616 9.33171 9.31136 9.37139 9.37431 9.39069C9.72865 9.50036 10.066 9.66133 10.3762 9.86877V9.1404C10.1799 9.03241 9.97605 8.93955 9.76635 8.86258V3.67046C10.3585 3.4737 10.6812 3.16593 10.6812 2.79094C10.6812 2.03682 9.41657 1.69338 8.2416 1.69338C7.06662 1.69338 5.802 2.03682 5.802 2.79094C5.802 3.16593 6.12467 3.4737 6.71685 3.67046V8.86258C5.831 9.18937 5.06384 9.78752 4.51874 10.5764C3.97364 11.3654 3.67678 12.3071 3.66818 13.2749L3.66805 13.2778C3.66803 13.284 3.66735 13.29 3.66735 13.2962C3.66547 14.0588 3.84442 14.8105 4.18869 15.486C4.53297 16.1615 5.03219 16.7406 5.64313 17.173C6.25407 17.6054 6.95831 17.8782 7.69486 17.9676C8.4314 18.0571 9.17805 17.9605 9.87015 17.6864H9.76635Z" fill="#B3B7DD"/>
<path d="M10.9861 11.4146H12.8158C12.8967 11.4144 12.9741 11.3813 13.0312 11.3225C13.0884 11.2637 13.1206 11.1841 13.1208 11.101V9.55191C11.492 9.69538 11.5082 7.44297 13.1208 7.66411V7.33797C13.1206 7.25488 13.0884 7.17526 13.0312 7.11651C12.9741 7.05775 12.8967 7.02463 12.8158 7.02438H12.5109V6.08362C12.5109 6.00045 12.4788 5.92069 12.4216 5.86188C12.3644 5.80307 12.2868 5.77003 12.2059 5.77003H11.596C11.5152 5.77003 11.4376 5.80307 11.3804 5.86188C11.3232 5.92069 11.2911 6.00045 11.2911 6.08362V7.02438H10.9861C10.9053 7.02463 10.8279 7.05775 10.7708 7.11651C10.7136 7.17526 10.6814 7.25488 10.6812 7.33797V11.101C10.6814 11.1841 10.7136 11.2637 10.7708 11.3225C10.8279 11.3813 10.9053 11.4144 10.9861 11.4146Z" fill="#B3B7DD"/>
<path d="M3.3624 13.2962L3.36329 13.2612C3.36819 12.696 3.46659 12.1357 3.65428 11.6045C3.44535 11.6349 3.24435 11.7076 3.06287 11.8183C2.88139 11.929 2.72302 12.0756 2.59689 12.2496C2.21991 12.6726 1.91589 13.0077 0.625697 12.3856C0.666431 11.8133 0.874807 11.2672 1.22337 10.8191C1.57193 10.3711 2.04432 10.0421 2.57829 9.87562C2.64123 9.85632 2.69643 9.81664 2.73568 9.76248C2.77493 9.70833 2.79614 9.64259 2.79614 9.57505V5.53484C2.79615 5.46486 2.77339 5.39689 2.73148 5.34175C2.68957 5.28662 2.63093 5.24749 2.56489 5.23059C2.42944 5.20119 2.29977 5.14855 2.18132 5.07487C2.54791 4.88987 2.95471 4.80527 3.3624 4.82926C3.77008 4.80527 4.17688 4.88987 4.54347 5.07487C4.42501 5.14855 4.29534 5.20119 4.15989 5.23059C4.09386 5.24749 4.03521 5.28662 3.99331 5.34175C3.9514 5.39689 3.92864 5.46486 3.92865 5.53484V9.57505C3.92865 9.64259 3.94985 9.70833 3.9891 9.76248C4.02835 9.81664 4.08355 9.85632 4.14649 9.87562C4.28285 9.91752 4.41577 9.97044 4.54401 10.0339C4.68214 9.86794 4.83063 9.71138 4.98853 9.56523C4.844 9.48192 4.69358 9.40991 4.53855 9.34979V5.76819C5.10112 5.56316 5.1921 5.25402 5.1921 5.07563C5.1921 4.47219 4.27308 4.20209 3.3624 4.20209C2.45171 4.20209 1.53269 4.47219 1.53269 5.07563C1.53269 5.25402 1.62367 5.56316 2.18622 5.76819V9.34981C1.38782 9.6544 0.732075 10.26 0.352138 11.0438C-0.0277989 11.8275 -0.103444 12.7305 0.140564 13.5695C0.384572 14.4084 0.92994 15.1205 1.66593 15.561C2.40191 16.0015 3.27335 16.1375 4.10327 15.9413C3.61956 15.1486 3.36279 14.2319 3.3624 13.2962Z" fill="#B3B7DD"/>
</svg>
