<svg width="18" height="18" viewBox="0 0 18 18" fill="none" xmlns="http://www.w3.org/2000/svg">
<path fill-rule="evenodd" clip-rule="evenodd" d="M14.1239 12.3161L14.4515 12.0872L14.01 11.5041C13.3316 11.8796 12.5596 12.0024 11.8265 11.8908C10.9825 11.763 10.1896 11.326 9.6476 10.6095C9.10506 9.89347 8.91627 9.03404 9.04987 8.22317C9.1829 7.41285 9.6383 6.65052 10.3836 6.12984C11.1288 5.60861 12.0234 5.42779 12.8674 5.55559C13.7115 5.68339 14.5044 6.12091 15.0463 6.83692C15.5889 7.55292 15.7771 8.41291 15.6441 9.22323C15.5285 9.92751 15.1695 10.5955 14.5886 11.1L15.0295 11.6832L15.3577 11.4544L17.8549 14.7531C18.1018 15.0791 18.0257 15.5395 17.687 15.7766C17.3478 16.0138 16.868 15.9407 16.6217 15.6148L14.1239 12.3161ZM12.7739 6.12482C12.0815 6.0199 11.3478 6.16891 10.7368 6.59583C10.1251 7.02331 9.75158 7.64835 9.64237 8.31301C9.53317 8.97824 9.68826 9.68308 10.1326 10.2707C10.5776 10.8578 11.2282 11.2167 11.92 11.3216C12.6124 11.4265 13.3461 11.278 13.9572 10.8506C14.5688 10.4231 14.9424 9.7986 15.0516 9.13338C15.1608 8.46872 15.0057 7.76332 14.5613 7.17623C14.1163 6.58858 13.4657 6.22974 12.7739 6.12482ZM8.80823 10.4337C8.21398 10.6876 7.55585 10.8288 6.86344 10.8288C4.21752 10.8288 2.07291 8.76784 2.07291 6.22639C2.07291 3.68438 4.21752 1.62343 6.86344 1.62343V6.22639H9.35774C8.87328 6.75991 8.55148 7.41675 8.43472 8.12997C8.30402 8.9241 8.43762 9.72661 8.80823 10.4337ZM7.49718 1.66361C9.4199 1.90748 10.9825 3.24741 11.4843 5.00868C10.9767 5.11751 10.4922 5.32232 10.0583 5.61754H7.49718V1.66361ZM0.419397 0H13.8015H14.2209V0.402927V5.37031C13.9566 5.23358 13.6754 5.12588 13.3821 5.04998V0.805854H0.838794V17.1936H13.3821V12.3964C13.4228 12.3858 13.4634 12.3747 13.5035 12.3629C13.5116 12.4695 13.55 12.5756 13.6203 12.6682L14.2209 13.4618V17.5965V18H13.8015H0.419397H0V17.5965V0.402927V0H0.419397ZM13.1468 7.20636H13.8933V10.0983H13.1468V7.20636ZM10.6897 8.96205H11.4356V10.0983H10.6897V8.96205ZM11.9183 8.0351H12.6641V10.0983H11.9183V8.0351ZM2.39356 12.9673H5.64127V13.6125H2.39356V12.9673ZM2.39356 14.3173H12.4567V14.9624H2.39356V14.3173ZM2.39356 15.6673H10.3621V16.3124H2.39356V15.6673Z" fill="#B3B7DD"/>
</svg>
