<svg width="18" height="18" viewBox="0 0 18 18" fill="none" xmlns="http://www.w3.org/2000/svg">
<path d="M18 16.4117H0V18H18V16.4117Z" fill="#868BB2"/>
<path d="M1.125 6.35294C1.74375 6.35294 2.25 5.83784 2.25 5.20827C2.25 5.0938 2.25 4.97933 2.19375 4.86486L4.78125 2.23211C4.8375 2.28935 4.95 2.28935 5.0625 2.28935C5.175 2.28935 5.23125 2.28935 5.34375 2.23211L7.93125 4.86486C7.93125 4.97933 7.875 5.03657 7.875 5.15103C7.875 5.7806 8.38125 6.29571 9 6.29571C9.61875 6.29571 10.125 5.7806 10.125 5.15103C10.125 5.03657 10.125 4.9221 10.0687 4.80763L12.5437 2.34658C12.6562 2.40382 12.7688 2.40382 12.8812 2.40382C13.05 2.40382 13.1625 2.40382 13.3313 2.28935L15.75 4.34976C15.75 4.407 15.75 4.46423 15.75 4.5787C15.75 5.20827 16.2563 5.72337 16.875 5.72337C17.4937 5.72337 18 5.20827 18 4.5787C18 3.94913 17.4937 3.43402 16.875 3.43402C16.7625 3.43402 16.5938 3.43402 16.4812 3.49126L14.0625 1.48808C14.0625 1.43084 14.0625 1.31638 14.0625 1.20191C14.1187 0.572337 13.6125 0 12.9375 0C12.2625 0 11.7562 0.572337 11.7562 1.20191C11.7562 1.31638 11.7563 1.43084 11.8125 1.54531L9.28125 4.06359C9.225 4.06359 9.1125 4.06359 9.05625 4.06359C8.94375 4.06359 8.83125 4.06359 8.775 4.12083L6.1875 1.48808C6.1875 1.31638 6.1875 1.25914 6.1875 1.14467C6.1875 0.515103 5.68125 0 5.0625 0C4.44375 0 3.9375 0.515103 3.9375 1.14467C3.9375 1.25914 3.9375 1.31638 3.99375 1.43084L1.40625 4.06359C1.40625 4.06359 1.40625 4.06359 1.35 4.06359C1.29375 4.06359 1.18125 4.06359 1.125 4.06359C1.0125 4.06359 0.9 4.06359 0.84375 4.12083C0.45 4.17806 0.1125 4.52146 0.05625 4.9221C1.25729e-08 4.97933 0 5.0938 0 5.20827C0 5.83784 0.50625 6.35294 1.125 6.35294ZM16.875 4.00636C17.1562 4.00636 17.4375 4.29253 17.4375 4.5787C17.4375 4.86486 17.1562 5.15103 16.875 5.15103C16.5938 5.15103 16.3125 4.86486 16.3125 4.5787C16.3125 4.29253 16.5375 4.00636 16.875 4.00636ZM12.9375 0.572337C13.2188 0.572337 13.5 0.858506 13.5 1.14467C13.5 1.48808 13.2188 1.71701 12.9375 1.71701C12.6562 1.71701 12.375 1.48808 12.375 1.14467C12.375 0.801272 12.6 0.572337 12.9375 0.572337ZM9 4.5787C9.28125 4.5787 9.5625 4.86486 9.5625 5.15103C9.5625 5.4372 9.28125 5.72337 9 5.72337C8.71875 5.72337 8.4375 5.4372 8.4375 5.15103C8.4375 4.86486 8.6625 4.5787 9 4.5787ZM5.0625 0.572337C5.34375 0.572337 5.625 0.858506 5.625 1.14467C5.625 1.43084 5.34375 1.71701 5.0625 1.71701C4.78125 1.71701 4.5 1.43084 4.5 1.14467C4.5 0.858506 4.725 0.572337 5.0625 0.572337ZM0.5625 5.15103C0.5625 4.86486 0.84375 4.5787 1.125 4.5787C1.40625 4.5787 1.6875 4.86486 1.6875 5.15103C1.6875 5.20827 1.6875 5.2655 1.63125 5.32273V5.37997C1.51875 5.55167 1.35 5.66614 1.125 5.66614C0.95625 5.66614 0.7875 5.6089 0.73125 5.49444C0.61875 5.49444 0.5625 5.32273 0.5625 5.15103Z" fill="#868BB2"/>
<path d="M2.11765 11.9117H0V15.0882H2.11765V11.9117Z" fill="#868BB2"/>
<path d="M6.08835 7.94116H3.9707V15.0882H6.08835V7.94116Z" fill="#868BB2"/>
<path d="M10.0591 9.52942H7.94141V15.0882H10.0591V9.52942Z" fill="#868BB2"/>
<path d="M14.0298 4.5H11.9121V15.0882H14.0298V4.5Z" fill="#868BB2"/>
<path d="M17.9995 6.88232H15.6172V15.0882H17.9995V6.88232Z" fill="#868BB2"/>
</svg>
