<svg width="18" height="19" viewBox="0 0 18 19" fill="none" xmlns="http://www.w3.org/2000/svg">
<path fill-rule="evenodd" clip-rule="evenodd" d="M14.4211 0.194928H3.58023C2.63123 0.195979 1.72138 0.585499 1.05021 1.27807C0.379046 1.97064 0.00135905 2.90971 0 3.88933V15.0799C0.00101993 16.0596 0.378581 16.9988 1.04982 17.6915C1.72106 18.3841 2.63113 18.7735 3.58023 18.7742H14.4211C15.3699 18.7732 16.2796 18.3836 16.9506 17.691C17.6216 16.9984 17.999 16.0593 18 15.0799V3.88933C17.9993 2.90961 17.6221 1.97019 16.9511 1.2773C16.2801 0.584407 15.3702 0.194656 14.4211 0.193604V0.194928ZM2.75 4.83871C2.75 4.70064 2.86193 4.58871 3 4.58871H15C15.1381 4.58871 15.25 4.70064 15.25 4.83871C15.25 4.97678 15.1381 5.08871 15 5.08871H3C2.86193 5.08871 2.75 4.97678 2.75 4.83871ZM2.75 7.93548C2.75 7.79741 2.86193 7.68548 3 7.68548H15C15.1381 7.68548 15.25 7.79741 15.25 7.93548C15.25 8.07355 15.1381 8.18548 15 8.18548H3C2.86193 8.18548 2.75 8.07355 2.75 7.93548ZM2.75 11.0323C2.75 10.8942 2.86193 10.7823 3 10.7823H15C15.1381 10.7823 15.25 10.8942 15.25 11.0323C15.25 11.1703 15.1381 11.2823 15 11.2823H3C2.86193 11.2823 2.75 11.1703 2.75 11.0323ZM2.75 14.129C2.75 13.991 2.86193 13.879 3 13.879H15C15.1381 13.879 15.25 13.991 15.25 14.129C15.25 14.2671 15.1381 14.379 15 14.379H3C2.86193 14.379 2.75 14.2671 2.75 14.129ZM7 6.3871C7 6.9572 6.55228 7.41935 6 7.41935C5.44772 7.41935 5 6.9572 5 6.3871C5 5.817 5.44772 5.35484 6 5.35484C6.55228 5.35484 7 5.817 7 6.3871ZM12 12.5806C12 13.1507 11.5523 13.6129 11 13.6129C10.4477 13.6129 10 13.1507 10 12.5806C10 12.0105 10.4477 11.5484 11 11.5484C11.5523 11.5484 12 12.0105 12 12.5806Z" fill="#868BB2"/>
</svg>
