<svg width="18" height="18" viewBox="0 0 18 18" fill="none" xmlns="http://www.w3.org/2000/svg">
<path d="M17.5958 0H0.404154C0.180974 0 0 0.178758 0 0.399205V17.6008C0 17.8212 0.180974 18 0.404154 18H17.5958C17.819 18 18 17.8212 18 17.6008V0.399205C18 0.178758 17.819 0 17.5958 0ZM0.808309 11.8612H5.79281L0.808309 16.7847V11.8612ZM11.8127 0.798409V5.49918L9.91712 5.9779H6.34253V0.798409H11.8127ZM0.808309 0.798409H6.13396V5.98278H0.808309V0.798409ZM6.33758 6.18411H9.28052C9.2797 6.18655 9.27723 6.18798 9.27661 6.19042C9.26693 6.22418 9.2764 6.26058 9.30111 6.28559L10.3571 7.35285L6.33758 11.3231V6.18411ZM10.8467 7.84743L11.8177 8.82867V11.6646H6.98221L10.8467 7.84743ZM13.0161 5.34747C13.0258 5.31371 13.0163 5.27731 12.9916 5.2523C12.9667 5.22708 12.9301 5.21711 12.8957 5.22586L12.0215 5.44671V0.798409H17.1917V5.98278H12.8358L13.0161 5.34747ZM6.1387 6.17944V11.5198L5.99211 11.6648H0.808309V6.17944H6.1387ZM1.37635 17.2016L6.13849 12.4978V17.2016H1.37635ZM6.33758 17.2016V12.3011L6.78312 11.8612H11.8177V17.2016H6.33758ZM12.0165 11.8612H17.1917V17.2016H12.0165V11.8612ZM12.0165 11.6648V8.84921C12.0202 8.8427 12.0258 8.83761 12.0279 8.83029L12.78 6.17923H17.1917V11.6646H12.0165V11.6648Z" fill="#B3B7DD"/>
</svg>
