<svg width="18" height="18" viewBox="0 0 18 18" fill="none" xmlns="http://www.w3.org/2000/svg">
<path fill-rule="evenodd" clip-rule="evenodd" d="M0 7.6854C0 3.43821 3.54714 0 7.8868 0C12.2264 0 15.7736 3.4382 15.7736 7.66699C15.7736 9.2114 15.3018 10.7007 14.4151 11.9694L14.0566 12.5026L17.6604 16.0511C17.8679 16.2717 18 16.5475 18 16.8601C18 17.1726 17.8868 17.4484 17.6604 17.669C17.434 17.8896 17.1509 18 16.8302 18C16.5095 18 16.2264 17.8896 16 17.669L12.283 14.047L11.9245 14.2676C10.6981 14.9847 9.30189 15.3708 7.8868 15.3708C3.5283 15.3708 0 11.9142 0 7.6854ZM1.96224 7.66699C1.96224 10.8478 4.62266 13.4403 7.8868 13.4403C11.1509 13.4403 13.8113 10.8478 13.8113 7.66699C13.8113 4.48621 11.1509 1.8938 7.8868 1.8938C4.62266 1.8938 1.96224 4.48621 1.96224 7.66699ZM10.4412 6.75426L11.0881 6.96988C11.2116 7.00321 11.2978 7.1169 11.2998 7.24432V7.95392V7.9696C11.2998 8.0931 11.2214 8.20483 11.1018 8.24404L10.4549 8.45966C10.4099 8.60472 10.3511 8.74782 10.2805 8.88307L10.5863 9.49271C10.6059 9.53387 10.6157 9.577 10.6157 9.62208C10.6157 9.69853 10.5843 9.77302 10.5314 9.82791L10.0276 10.3297C9.97272 10.3846 9.9002 10.414 9.82179 10.414C9.77866 10.414 9.73358 10.4042 9.69437 10.3846L9.08474 10.0808C8.94752 10.1494 8.80639 10.2082 8.65937 10.2533L8.4457 10.9021C8.40454 11.0197 8.29476 11.1001 8.16931 11.1001H8.15559H7.44598C7.32053 11.1001 7.21075 11.0197 7.16959 10.9021L6.95592 10.2533C6.80891 10.2082 6.66777 10.1494 6.53055 10.0788L5.92092 10.3846C5.88171 10.4042 5.83663 10.414 5.7935 10.414C5.71509 10.414 5.64257 10.3846 5.58768 10.3297L5.0839 9.82791C5.03097 9.77302 4.99961 9.69853 4.99961 9.62208C4.99961 9.577 5.00941 9.53387 5.02901 9.49271L5.31913 8.88307C5.25052 8.74782 5.19171 8.60472 5.14663 8.45966L4.49779 8.24404C4.38017 8.20483 4.2998 8.0931 4.2998 7.9696V7.95392V7.24432C4.2998 7.11886 4.38017 7.00909 4.49779 6.96988L5.14663 6.75426C5.19171 6.6092 5.25052 6.4661 5.32109 6.33085L5.02901 5.72121C5.00941 5.68005 4.99961 5.63692 4.99961 5.59184C4.99961 5.51539 5.03097 5.4409 5.0839 5.38601L5.58768 4.88419C5.64257 4.82931 5.71509 4.79794 5.7935 4.79794C5.83663 4.79794 5.88171 4.8097 5.92092 4.82931L6.53055 5.11942C6.66777 5.04885 6.80891 4.99005 6.95592 4.94496L7.16959 4.29612C7.21075 4.17851 7.32053 4.1001 7.44598 4.1001H8.13991H8.15559C8.28104 4.1001 8.39082 4.17851 8.43002 4.29808L8.64565 4.94496C8.7907 4.99005 8.9338 5.04885 9.06906 5.11942L9.67869 4.82931C9.71986 4.8097 9.76298 4.79794 9.80807 4.79794C9.88451 4.79794 9.959 4.82931 10.0139 4.88419L10.5157 5.38601C10.5706 5.4409 10.602 5.51539 10.602 5.59184C10.602 5.63692 10.5902 5.68005 10.5706 5.72121L10.2668 6.33085C10.3354 6.4661 10.3942 6.6092 10.4412 6.75426ZM6.7998 7.59912C6.7998 8.1501 7.2498 8.6001 7.80079 8.6001C8.3498 8.6001 8.7998 8.1501 8.7998 7.59912C8.7998 7.0501 8.3498 6.6001 7.80079 6.6001C7.2498 6.6001 6.7998 7.0501 6.7998 7.59912Z" fill="#868BB2"/>
</svg>
