<svg width="20" height="19" viewBox="0 0 20 19" fill="none" xmlns="http://www.w3.org/2000/svg">
<path d="M12.6649 9.47201C12.6649 11.1453 11.2862 12.508 9.59151 12.508C7.89687 12.508 6.51551 11.1453 6.51551 9.47066C6.51551 7.79866 7.89687 6.43734 9.59151 6.43734C11.2875 6.43867 12.6662 7.79866 12.6662 9.47066L12.6649 9.47201ZM16.5459 7.30001L16.0608 6.13999C16.0608 6.13999 17.1884 3.576 17.0879 3.47734L15.5968 2.008C15.4937 1.90666 12.9504 3.07733 12.9504 3.07733L11.7779 2.59867C11.7779 2.59867 10.7415 0 10.5988 0H8.49438C8.34897 0 7.38929 2.60533 7.38929 2.60533L6.21808 3.08533C6.21808 3.08533 3.62194 1.97199 3.52148 2.07066L2.03304 3.54134C1.92993 3.64267 3.11566 6.15466 3.11566 6.15466L2.63052 7.31468C2.63052 7.31468 0 8.336 0 8.47467V10.5547C0 10.7 2.63714 11.648 2.63714 11.648L3.12094 12.8053C3.12094 12.8053 1.99469 15.3667 2.09383 15.4653L3.5849 16.9387C3.68536 17.0387 6.22865 15.868 6.22865 15.868L7.40381 16.348C7.40381 16.348 8.43884 18.944 8.58292 18.944H10.6887C10.8341 18.944 11.7938 16.34 11.7938 16.34L12.9676 15.86C12.9676 15.86 15.5585 16.9733 15.6589 16.876L17.1513 15.4053C17.2544 15.3027 16.0661 12.792 16.0661 12.792L16.5486 11.632C16.5486 11.632 19.1817 10.608 19.1817 10.4693V8.38934C19.1817 8.24534 16.5459 7.30001 16.5459 7.30001Z" fill="#868BB2"/>
</svg>
