<svg width="18" height="18" viewBox="0 0 18 18" fill="none" xmlns="http://www.w3.org/2000/svg">
<path fill-rule="evenodd" clip-rule="evenodd" d="M14.4211 0.00128299H3.58023C2.63123 0.00230172 1.72138 0.379649 1.05021 1.05057C0.379046 1.7215 0.00135905 2.63123 0 3.58023V14.4211C0.00101993 15.3702 0.378581 16.2801 1.04982 16.9511C1.72106 17.6221 2.63113 17.9993 3.58023 18H14.4211C15.3699 17.999 16.2796 17.6216 16.9506 16.9506C17.6216 16.2797 17.999 15.3699 18 14.4211V3.58023C17.9993 2.63113 17.6221 1.72107 16.9511 1.04983C16.2801 0.378591 15.3702 0.00101994 14.4211 0V0.00128299ZM2.75 4.5C2.75 4.36193 2.86193 4.25 3 4.25H15C15.1381 4.25 15.25 4.36193 15.25 4.5C15.25 4.63807 15.1381 4.75 15 4.75H3C2.86193 4.75 2.75 4.63807 2.75 4.5ZM2.75 7.5C2.75 7.36193 2.86193 7.25 3 7.25H15C15.1381 7.25 15.25 7.36193 15.25 7.5C15.25 7.63807 15.1381 7.75 15 7.75H3C2.86193 7.75 2.75 7.63807 2.75 7.5ZM2.75 10.5C2.75 10.3619 2.86193 10.25 3 10.25H15C15.1381 10.25 15.25 10.3619 15.25 10.5C15.25 10.6381 15.1381 10.75 15 10.75H3C2.86193 10.75 2.75 10.6381 2.75 10.5ZM2.75 13.5C2.75 13.3619 2.86193 13.25 3 13.25H15C15.1381 13.25 15.25 13.3619 15.25 13.5C15.25 13.6381 15.1381 13.75 15 13.75H3C2.86193 13.75 2.75 13.6381 2.75 13.5ZM7 6C7 6.55228 6.55228 7 6 7C5.44772 7 5 6.55228 5 6C5 5.44772 5.44772 5 6 5C6.55228 5 7 5.44772 7 6ZM12 12C12 12.5523 11.5523 13 11 13C10.4477 13 10 12.5523 10 12C10 11.4477 10.4477 11 11 11C11.5523 11 12 11.4477 12 12Z" fill="#868BB2"/>
</svg>
