<svg width="858" height="708" viewBox="0 0 858 708" fill="none" xmlns="http://www.w3.org/2000/svg">
<mask id="mask0" style="mask-type:alpha" maskUnits="userSpaceOnUse" x="0" y="0" width="858" height="708">
<path d="M221.001 653.76C220.927 653.615 220.855 653.465 220.785 653.31C219.218 649.833 214.514 648.877 209.9 648.277L208.647 648.121L208.04 648.048C205.77 647.776 203.633 647.52 202.033 647.007C200.566 646.539 198.909 645.516 197.152 644.431C194.807 642.983 192.282 641.425 189.795 640.93L182.605 633.052C180.88 627.697 175.408 625.4 170.141 625.4C169.784 625.4 169.247 625.436 168.612 625.48L168.609 625.48L168.605 625.481C167.689 625.543 166.57 625.619 165.5 625.619C163.747 625.619 162.116 625.414 161.718 624.61C161.526 624.226 162.833 622.758 163.605 621.892C163.819 621.652 163.991 621.458 164.079 621.346C164.825 620.403 164.485 620.04 164.128 619.658C164.066 619.591 164.004 619.524 163.946 619.453C163.859 619.347 163.784 619.231 163.74 619.097C161.815 619.097 157.617 614.822 158.35 612.683C159.479 609.386 161.963 602.192 166.528 602.192C167.098 602.192 167.704 602.305 168.34 602.552C170.455 603.373 171.555 605.202 172.653 607.026C174.121 609.466 175.584 611.898 179.463 611.898L191.364 610.768L197.878 602.442L191.143 589.835L172.5 559.449L159.698 527.039L151.836 526.813L141.507 508.802L134.77 497.325L121.291 487.648L114.552 488.77L91.1992 487.872L72.3319 478.871L72.5562 488.77L70.0865 497.101L55.9405 487.872L49.6474 479.095L53.6899 476.39L44.9327 459.511L51.2202 455.686L52.3459 452.312L55.8083 452.423L56.1451 449.605L47.9435 447.131L49.8573 441.618L47.3824 432.278L47.3873 432.277L48.7351 427.776L19.5368 417.761L15.719 413.708L10.6657 413.821L0 407.968L22.0183 348.997C31.1708 344.649 42.8956 334.061 42.8956 323.113C42.8956 315.653 34.2284 309.009 27.2544 303.663L27.2506 303.66C25.2936 302.16 23.4701 300.763 22.0091 299.478L31.666 237.123L55.2562 228.351L68.0612 209.222L61.3247 197.064L62.6595 195.486C66.2007 195.486 65.9264 192.832 65.0999 190.046L64.8926 189.376C64.7765 189.014 64.6554 188.652 64.5367 188.298C63.9605 186.577 63.4366 185.013 63.7818 184.238C64.9043 181.71 66.5433 181.012 68.2602 180.281C69.8486 179.605 71.5037 178.901 72.8784 176.692C75.5786 172.365 85.5357 158.033 91.0696 167.465C92.9247 170.622 98.9355 178.689 102.413 179.847C109.541 182.215 113.485 190.42 116.993 197.717C117.911 199.627 118.8 201.476 119.708 203.14C120.486 204.569 121.825 206.166 123.186 207.788L123.204 207.81L124.113 208.899C125.912 211.079 127.531 213.249 127.678 215.07C128.137 220.616 128.972 223.665 133.182 227.9C133.456 228.554 133.789 229.519 134.156 230.579C134.966 232.921 135.937 235.728 136.778 236.679C137.755 237.794 138.984 237.585 140.202 237.377L140.206 237.377C141.817 237.099 143.41 236.824 144.411 239.606C144.922 241.024 145.719 240.717 146.588 240.382L146.638 240.363C147.199 240.141 147.79 239.922 148.344 240.167C148.962 240.444 149.46 240.984 149.959 241.526C150.68 242.308 151.403 243.093 152.496 243.093C154.309 237.608 161.321 235.198 168.653 232.842L169.844 232.46C180.178 229.146 190.624 225.618 187.646 213.495C187.764 211.651 184.767 210.379 182.123 209.257C179.588 208.18 177.377 207.242 178.551 206.069C181.728 202.888 179.404 194.741 177.518 188.128C176.775 185.521 176.099 183.152 175.855 181.42C175.199 176.756 173.852 172.121 172.508 167.494C171.033 162.419 169.562 157.354 169.007 152.272L168.668 147.096C166.606 146.411 166.438 143.454 166.425 141.24L166.424 140.569L166.985 139.892C168.388 139.892 169.437 141.393 170.526 142.951C171.474 144.307 172.452 145.707 173.72 146.195C174.734 146.585 175.784 146.29 176.849 145.991L176.878 145.983C178.398 145.554 179.949 145.122 181.471 146.643C185.914 151.088 195.882 138.712 202.665 130.29L202.668 130.286C205.325 126.987 207.493 124.295 208.648 123.461C212.441 120.717 216.349 119.75 219.83 118.889C226.322 117.283 231.328 116.045 231.328 104.33C225.878 102.528 226.25 98.3152 227.126 93.8416L227.378 92.5911C227.423 92.3719 227.468 92.1521 227.513 91.9325L227.545 91.7743C227.571 91.6455 227.596 91.5169 227.621 91.3885C230.119 82.4868 236.006 83.2741 242.726 84.1727L242.956 84.2035L243.482 84.2731L244.544 84.4082C250.41 85.1258 256.723 85.2961 261.875 78.8978C269.025 70.0008 278.713 66.7489 288.936 63.5867C293.096 62.3039 298.226 60.3916 301.742 57.8496C305.362 55.2313 304.442 53.971 303.446 52.6053C302.852 51.7926 302.232 50.9427 302.525 49.7471C306.008 49.7471 306.476 47.3028 306.674 45.0762L306.721 44.5133C306.914 42.0758 307.064 40.1991 311.058 42.654C316.603 46.0623 317.409 34.973 317.933 27.7633C318.139 24.9228 318.302 22.683 318.694 22.1718C321.072 19.0779 324.566 14.7343 327.232 18.0097C327.929 18.8633 329.176 18.4577 330.326 18.0499L330.446 18.0068C331.455 17.6453 332.367 17.3181 332.732 17.8989C333.39 18.9294 331.413 22.4075 330.821 23.1833C335.193 28.9856 337.197 23.1454 338.52 19.2878C338.874 18.2571 339.179 17.3679 339.468 16.8802C336.68 12.7607 335.989 5.36329 335.989 0.227368C342.368 1.83977 342.63 2.80429 343.232 5.02572C343.574 6.28377 344.024 7.94504 345.757 10.3554C347.818 13.219 354.159 12.765 360.495 12.0001L361.805 11.8384L362.92 11.6971C368.587 10.9755 373.796 10.3123 375.406 11.9329C376.328 12.8604 377.507 13.6621 378.679 14.4562L379.317 14.8894C382.274 16.9139 384.884 19.0286 382.818 23.1833C382.374 24.0743 380.397 24.4042 378.729 24.6824L378.727 24.6828C377.933 24.8154 377.209 24.9361 376.754 25.1005C368.129 28.2132 379.973 39.7536 388.323 37.5936C391.574 36.7489 393.908 34.9072 396.138 33.1466C398.043 31.6438 399.872 30.1999 402.133 29.4865C405.212 28.517 404.982 31.242 404.704 34.2546L404.637 34.9815C404.446 37.1681 404.365 39.3626 405.611 40.2936C406.187 38.5573 408.56 37.9664 410.925 37.3775C413.03 36.8532 415.129 36.3305 415.948 35.002C416.915 33.4265 416.126 31.8633 415.32 30.2672C414.548 28.7385 413.76 27.1797 414.486 25.5508C420.78 11.4043 425.21 12.7376 430.299 14.2691L430.497 14.3288C434.051 15.397 437.937 16.4628 443.009 12.3834C443.522 11.9709 443.817 10.8541 444.129 9.67323C444.673 7.6135 445.269 5.35847 447.161 6.30421C450.454 7.95015 453.666 5.69108 456.182 3.4344C456.675 2.99291 457.141 2.55148 457.576 2.13928C459.415 0.396769 460.704 -0.824586 461.089 0.677857L464.904 15.5337C465.054 17.0893 465.971 18.6649 466.885 20.2345C467.571 21.4131 468.256 22.5884 468.611 23.7493C469.886 27.8971 471.548 32.4223 473.106 36.2401C474.472 39.6098 479.905 39.855 482.6 38.1595C485.132 36.4712 487.651 34.8205 490.974 34.1036C493.846 33.484 497.411 33.8346 501.191 34.2063L501.418 34.2286C505.703 34.646 510.242 35.0633 514.323 34.1036C518.172 33.1981 521.275 32.1582 523.95 31.1372L531.498 33.8773C533.325 34.8465 535.201 34.9992 536.949 35.1415C539.835 35.3764 542.368 35.5826 543.736 39.3928C544.372 41.1568 546.617 41.8891 549.204 42.7326C553.657 44.1849 559.121 45.9669 559.121 53.9115C559.121 68.2863 569.282 71.102 581.018 73.3822C587.101 74.5612 592.762 78.5134 597.303 83.0575C599.576 85.3324 600.378 87.6391 601.207 90.0265C601.889 91.9921 602.591 94.0122 604.149 96.1141C603.889 96.463 603.807 97.0755 603.726 97.6864C603.652 98.2438 603.578 98.8005 603.369 99.1537L607.076 103.542C609.493 104.223 610.144 105.905 610.72 107.393C611.243 108.742 611.703 109.931 613.363 110.069C617.49 110.408 619.602 111.797 621.743 113.204C623.405 114.297 625.084 115.401 627.737 116.033C629.787 116.52 628.063 121.015 626.069 126.002L625.639 127.077C624.2 130.677 622.752 134.4 622.571 136.966C622.443 138.777 622.206 140.105 622.014 141.183C621.465 144.259 621.28 145.293 625.036 149.685C625.099 149.759 625.165 149.836 625.234 149.918C625.349 150.054 625.472 150.201 625.601 150.355C626.599 151.546 627.98 153.196 629.344 154.21C630.082 154.759 630.811 155.123 631.474 155.123C632.285 155.123 632.987 154.578 633.461 153.173C634.797 154.17 635.956 154.621 636.975 154.621C647.219 154.621 642.454 108.624 642.22 108.492C641.16 107.896 639.963 107.759 638.74 107.618C637.002 107.419 635.212 107.213 633.689 105.681C632.29 104.275 633.383 93.4023 637.634 93.4023C637.651 93.4023 637.668 93.4024 637.685 93.4028C637.705 93.4031 637.725 93.4038 637.745 93.4047C637.778 93.4062 637.81 93.4085 637.842 93.4118C638.743 93.4863 639.56 93.5433 640.311 93.5958L640.321 93.5964C645.745 93.9749 647.713 94.1123 653.002 98.8142L662.992 107.707C663.341 108.018 664.095 108.124 665.094 108.124C666.218 108.124 667.649 107.987 669.15 107.843L669.153 107.843L669.228 107.836C670.759 107.692 672.362 107.551 673.788 107.551C678.244 107.551 680.959 108.954 674.339 116.146C670.848 119.933 677.001 124.073 682.224 127.588C684.459 129.091 686.524 130.48 687.59 131.679C688.764 132.997 695.089 139.446 697.741 139.446C698.172 139.446 698.509 139.276 698.707 138.88C699.619 137.055 700.703 136.334 701.848 136.334C704.801 136.334 708.191 141.111 710.308 144.094L710.31 144.098C711.206 145.36 711.873 146.3 712.182 146.419C716.215 147.994 717.705 150.185 718.678 151.615C719.269 152.483 719.669 153.071 720.331 153.071C721.349 153.071 722.987 151.678 726.892 147.77C733.429 145.024 737.694 141.63 742.206 138.038L742.209 138.036C745.151 135.694 748.197 133.269 752.047 130.886C756.697 128.01 759.909 113.272 759.909 106.018C760.38 106.018 761.601 106.455 763.186 107.022C766.111 108.068 770.274 109.558 773.238 109.558C776.212 109.558 777.984 108.058 776.078 103.089C775.891 102.603 776.626 102.236 777.584 101.759C778.979 101.063 780.846 100.132 781.02 98.2529C781.124 97.1213 780.683 95.9757 780.261 94.8778C779.723 93.4817 779.216 92.1631 779.898 91.049C780.876 89.4478 782.007 88.797 783.239 88.797C785.935 88.797 789.119 91.8932 792.28 94.9823L792.364 95.0649C795.493 98.1308 798.59 101.165 801.155 101.165C802.366 101.165 803.455 100.488 804.376 98.8142C805.179 97.3541 804.128 95.7657 802.984 94.037C801.476 91.7565 799.805 89.2319 802.017 86.4366C802.156 86.262 802.43 86.1866 802.807 86.1866C803.94 86.1866 806 86.868 807.996 87.5495L808.276 87.6459C810.167 88.2956 811.961 88.9125 812.796 88.9125C812.836 88.9125 812.874 88.9125 812.914 88.9102L830.092 87.4482C831.414 87.3349 832.59 87.2808 833.643 87.2808C836.59 87.2808 838.578 87.7124 840.044 88.5351C841.528 89.3705 842.477 90.607 843.347 92.2031L845.609 112.035L851.501 175.703L855.036 214.611L857.393 259.415V363.171L856.214 379.677L853.858 396.184L851.501 410.332L844.431 437.45L839.718 452.778L833.826 466.926L817.33 490.507L796.12 518.804L780.802 537.669L770.197 551.817L751.344 575.398L741.917 588.367L727.778 606.053L720.708 615.485L711.281 628.455L693.606 646.141L683.001 655.573L671.218 663.826L658.257 672.079L635.869 683.87L626.442 686.228L614.659 689.765L600.519 694.481L574.596 701.555L559.278 703.914L542.781 705.093L527.463 706.272L512.518 708L513.333 703.919V696.845L520.403 690.95L523.938 685.055L521.582 679.159L518.047 673.264L520.403 669.727L523.938 662.653L525.117 656.758L526.295 649.683L526.285 649.678L522.76 647.325L520.403 641.43V636.714L520.393 636.711V636.708C519.789 636.507 518.876 636.14 518.129 635.704C517.423 635.29 516.868 634.814 516.868 634.356V629.64L518.047 626.103L515.69 622.565L513.333 620.207L514.512 616.67L518.047 615.491L515.69 613.133L513.333 611.954V601.343H518.047V593.089H518.037V593.084H507.439L505.085 588.373L505.077 588.372L505.075 588.367L494.47 586.009L489.757 589.547L486.222 591.905L485.044 595.442C485.353 595.674 485.734 595.951 486.151 596.248C487.324 597.082 488.797 598.067 489.848 598.598C490.322 598.837 490.71 598.985 490.945 598.985C491.016 598.985 491.086 599.006 491.156 599.045C492.256 599.699 493.292 604.948 493.292 606.053C493.292 606.996 491.723 611.158 490.937 613.124L488.589 610.775L486.232 606.059L486.224 606.057L486.222 606.053L481.514 604.875L475.627 598.985L475.621 598.983L475.617 598.979L467.369 596.621L462.656 600.158L459.121 607.232L454.417 603.701L454.408 603.695H442.624L434.386 600.164L434.376 600.158H429.663L420.246 595.447L420.236 595.442L413.166 598.979H407.283C406.889 597.797 406.106 595.21 406.106 594.268C406.106 593.325 402.178 589.945 400.215 588.373L400.209 588.371L400.205 588.367L391.966 584.836L389.61 580.12H389.603L389.6 580.114H366.033L360.142 582.472L351.894 584.83L346.012 582.478L346.002 582.472H340.11L336.575 588.367H327.149L322.436 593.084L310.652 595.442V602.516L303.582 606.053L297.691 608.411L295.334 613.127L291.809 610.775L290.631 604.88L290.624 604.889L290.621 604.874C289.05 606.839 285.908 611.005 285.908 611.948C285.908 612.892 283.551 617.058 282.373 619.023C281.98 620.202 281.194 622.795 281.194 623.739C281.194 624.918 275.303 626.097 272.946 626.097C271.061 626.097 269.804 626.883 269.411 627.276L268.233 633.171L270.59 637.887C269.411 639.066 266.819 641.424 265.876 641.424C264.934 641.424 263.912 643.782 263.52 644.961L262.341 650.857V660.289L259.985 665.005H257.634L254.103 660.295L251.746 653.221L251.739 653.222L251.736 653.215L247.023 654.394L244.666 659.11H242.31L241.132 663.826V667.363L238.779 668.54L234.072 662.653L234.062 662.647L221.034 653.622L221.024 653.616C221.016 653.664 221.009 653.712 221.001 653.76Z" fill="#757EB3"/>
</mask>
<g mask="url(#mask0)">
<path d="M222.702 93.1447L263.943 88.4286L326.394 83.7124H368.388C378.086 83.7124 387.77 84.4177 397.365 85.8227L431.265 90.7866L480.754 101.398L559.702 129.695L623.331 152.097L696.387 176.857L719.953 186.289M719.953 186.289L715.24 147.381M719.953 186.289L723.488 236.988L721.233 280.612M702.279 481.049V437.425L709.348 386.726L719.953 305.372L721.233 280.612M702.279 481.049L717.042 477.714C731.507 474.445 746.29 472.796 761.12 472.796H800.079H833.072M702.279 481.049L694.467 484.176C680.085 489.932 666.42 497.34 653.748 506.25L629.223 523.495L602.838 541.829C592.173 549.239 580.813 555.593 568.916 560.801L549.097 569.477M549.097 569.477L506.677 591.879M549.097 569.477L545.562 542.359L541.096 511.082C540.147 504.432 538.713 497.859 536.805 491.418V491.418C532.461 476.747 525.706 462.902 516.817 450.45L512.569 444.499L507.856 437.425M549.097 569.477L554.988 591.879L559.702 620.176L564.415 654.368V666.447C564.415 678.805 563.27 691.136 560.994 703.282L560.88 703.888M507.856 437.425L467.793 432.709L430.087 429.171H390.024L365.279 431.53L316.968 440.962L275.727 451.573L245.103 460.443C235.681 463.173 226.472 466.591 217.552 470.672L189.709 483.407L140.22 505.809M507.856 437.425L519.639 418.56L524.943 411.379C534.724 398.139 546.102 386.156 558.819 375.703L561.671 373.359C568.99 367.343 576.727 361.855 584.824 356.937L605.656 344.28L636.293 321.879L664.572 303.014L668.303 300.961C681.485 293.707 695.443 287.963 709.913 283.839L721.233 280.612" stroke="#2B2E5E" stroke-width="3"/>
</g>
</svg>
