<svg width="14" height="16" viewBox="0 0 14 16" fill="none" xmlns="http://www.w3.org/2000/svg">
<path d="M11.4374 6.88236C12.8476 6.88236 13.9995 5.7255 13.9995 4.31372C13.9995 2.99999 11.9538 0.627433 11.7155 0.37253C11.6361 0.294099 11.5368 0.254883 11.4374 0.254883C11.3381 0.254883 11.219 0.294099 11.1594 0.37253C10.9211 0.627433 8.87537 2.99999 8.87537 4.31372C8.87537 5.7255 10.0273 6.88236 11.4374 6.88236ZM10.4047 4.80392C10.5238 4.64706 10.7622 4.62745 10.9211 4.7451C10.9806 4.78431 11.4573 5.13726 11.9538 4.7451C12.1127 4.62745 12.3511 4.64706 12.4702 4.80392C12.5894 4.96079 12.5695 5.19608 12.4106 5.31373C12.0929 5.56863 11.7552 5.64706 11.4573 5.64706C11.0204 5.64706 10.643 5.47059 10.4444 5.31373C10.2855 5.19608 10.2656 4.96079 10.4047 4.80392Z" fill="white"/>
<path d="M1.82722 4.66669C2.82027 4.66669 3.61472 3.86276 3.61472 2.86276C3.61472 1.94118 2.18472 0.294119 2.00597 0.0980396C1.96625 0.0392159 1.8868 0 1.80736 0C1.72791 0 1.66833 0.0392159 1.60875 0.0980396C1.44986 0.274511 0 1.94118 0 2.86276C0.0397222 3.86276 0.854027 4.66669 1.82722 4.66669ZM1.11222 3.2157C1.21153 3.09805 1.37041 3.07844 1.46972 3.17648C1.50944 3.2157 1.84708 3.451 2.18472 3.17648C2.30389 3.07844 2.46277 3.09805 2.54222 3.2157C2.64152 3.33335 2.62166 3.49021 2.5025 3.56864C2.28402 3.74511 2.04569 3.80394 1.82722 3.80394C1.5293 3.80394 1.25125 3.66668 1.11222 3.56864C1.03278 3.49021 1.01292 3.31374 1.11222 3.2157Z" fill="white"/>
<path d="M6.15527 16C8.93583 16 11.2199 13.7647 11.2199 11C11.2199 8.33333 6.63194 3.21566 6.43333 2.99997C6.35389 2.92154 6.25458 2.88232 6.15527 2.88232C6.05597 2.88232 5.95666 2.92154 5.87722 2.99997C5.67861 3.21566 1.0907 8.33333 1.0907 11C1.0907 13.7647 3.35486 16 6.15527 16ZM3.41445 12.1177C3.6925 11.9216 4.08972 12 4.26847 12.2745C4.30819 12.3137 4.92389 13.1765 6.11555 13.1765H6.13541C7.3668 13.1569 8.02222 12.2745 8.02222 12.2745C8.22083 12 8.59819 11.9216 8.87624 12.1177C9.1543 12.3137 9.23374 12.6863 9.03513 12.9608C8.99541 13.0196 8.02222 14.3922 6.13541 14.3922C6.11555 14.3922 6.11555 14.3922 6.09569 14.3922C4.20889 14.3922 3.25556 13 3.21583 12.9412C3.03708 12.6863 3.11653 12.3137 3.41445 12.1177Z" fill="white"/>
</svg>
