<svg width="28" height="28" viewBox="0 0 28 28" fill="none" xmlns="http://www.w3.org/2000/svg">
<path d="M28 13.9994C28 21.732 21.732 28 13.9994 28C6.26717 28 0 21.732 0 13.9994C0 6.26713 6.26717 0 13.9994 0C21.732 0 28 6.26713 28 13.9994Z" fill="#2E50E9" fill-opacity="0.301961"/>
<path d="M24.7254 14.0015C24.7254 19.9267 19.9221 24.73 13.9969 24.73C8.07168 24.73 3.26953 19.9267 3.26953 14.0015C3.26953 8.07628 8.07168 3.27417 13.9969 3.27417C19.9221 3.27417 24.7254 8.07628 24.7254 14.0015Z" fill="#2E50E9"/>
<path fill-rule="evenodd" clip-rule="evenodd" d="M19.9029 18.8239H19.2687V16.0193C19.2687 15.9459 19.1995 15.8854 19.1154 15.8854H18.401V13.7428L18.4763 13.7695C18.5155 13.7828 18.555 13.7904 18.5938 13.7904C18.7137 13.7904 18.8289 13.728 18.8773 13.6249L19.314 12.705C19.3448 12.6389 19.3448 12.5654 19.314 12.5003C19.2832 12.4353 19.2227 12.3821 19.1474 12.3555L12.5176 9.9606C12.7603 9.55658 12.9779 9.14686 13.1647 8.74018C13.2286 8.60322 13.1533 8.44918 12.9985 8.39326L10.38 7.44709C10.224 7.39079 10.046 7.45396 9.97862 7.58864C9.33075 8.91405 8.91228 10.3901 8.6631 12.2352C8.64788 12.3543 8.72436 12.4684 8.85104 12.5137L9.97368 12.9192C10.1007 12.9652 10.2461 12.9318 10.3317 12.8378C10.8186 12.2995 11.2386 11.7932 11.6171 11.291L12.9407 11.7703L12.876 12.1637L12.6786 13.3575L11.7743 18.8239H9.65641H8.09628C7.92775 18.8239 7.79004 18.9441 7.79004 19.0921V20.3075C7.79004 20.4548 7.92775 20.5746 8.09628 20.5746H19.9029C20.0707 20.5746 20.208 20.4548 20.208 20.3075V19.0921C20.208 18.9441 20.0707 18.8239 19.9029 18.8239ZM17.7881 15.8854H17.0752C16.9896 15.8854 16.9204 15.9459 16.9204 16.0193V18.8239H16.2241L15.3199 13.3575L15.192 12.5833L17.7881 13.521V15.8854ZM14.7591 14.0727L13.6814 13.3719L14.5385 12.7393L14.7591 14.0727ZM14.3996 14.5711L13.0327 15.33L13.2777 13.8422L14.3996 14.5711ZM14.9102 14.9838L15.2396 16.9738L13.4645 15.7854L14.9102 14.9838ZM13.5935 18.8239L15.361 17.7081L15.5455 18.8239H13.5935ZM14.1965 12.2238L13.4565 12.7693L13.5828 12.0012L14.1965 12.2238ZM12.8969 16.1445L14.7363 17.3768L12.4552 18.8197L12.8969 16.1445Z" fill="#FEFEFE"/>
</svg>
