<svg width="29" height="28" viewBox="0 0 29 28" fill="none" xmlns="http://www.w3.org/2000/svg">
<path d="M17.6919 6.85938V9.74349H20.576C20.576 8.15096 19.2844 6.85938 17.6919 6.85938Z" fill="white"/>
<path d="M17.2581 13.0614C18.8507 13.0614 20.1423 11.7704 20.1423 10.1773H17.2581V7.29315C15.6656 7.29315 14.374 8.58417 14.374 10.1773C14.374 11.7704 15.6656 13.0614 17.2581 13.0614Z" fill="white"/>
<path d="M8.71443 11.5509H7.58936V12.5652H8.71443V11.5509Z" fill="white"/>
<path d="M10.3946 9.19562H9.26953V12.5652H10.3946V9.19562Z" fill="white"/>
<path d="M12.0743 7.48322H10.9492V12.5652H12.0743V7.48322Z" fill="white"/>
<path d="M13.7545 10.7245H12.6294V12.5646H13.7545V10.7245Z" fill="white"/>
<path d="M11.0055 20.8749H10.0042V22H18.161V20.8749H17.1597L16.7659 18.0966H22.0832C22.6354 18.0966 23.0832 17.6489 23.0832 17.0966V5C23.0832 4.44772 22.6354 4 22.0832 4H6.08203C5.52975 4 5.08203 4.44772 5.08203 5V17.0971C5.08203 17.6494 5.52975 18.0971 6.08203 18.0971H11.3993L11.0055 20.8749ZM12.1418 20.8749L12.2262 20.2815L15.827 19.49L16.0233 20.8749H12.1418ZM15.6684 18.3728L12.395 19.0928L12.5362 18.0966H15.6296L15.6684 18.3728ZM21.9581 5.12507V15.0459H6.2071V5.12507H21.9581ZM6.2071 16.171H21.9581V16.9715H6.2071V16.171Z" fill="white"/>
</svg>
