<svg width="22" height="22" viewBox="0 0 22 22" fill="none" xmlns="http://www.w3.org/2000/svg">
<path d="M1 1V21H21" stroke="#A1A4DE" stroke-linecap="round"/>
<path d="M19.0004 3.00007C19.0008 5 19.1979 16.426 15.0004 18.0001C10.803 19.5743 10.0004 12.0001 7.00041 11C4.00041 9.99985 3.00041 14 3.00041 15" stroke="#F27E31" stroke-linecap="round"/>
<circle cx="16.5" cy="7.5" r="0.5" transform="rotate(-180 16.5 7.5)" fill="#A1A4DE"/>
<circle cx="15.5" cy="13.1669" r="0.5" transform="rotate(-180 15.5 13.1669)" fill="#A1A4DE"/>
<circle cx="4.5" cy="16.5" r="0.5" transform="rotate(-180 4.5 16.5)" fill="#A1A4DE"/>
<circle cx="12.5" cy="14.5" r="0.5" transform="rotate(-180 12.5 14.5)" fill="#A1A4DE"/>
<circle cx="8.5" cy="17.5" r="0.5" transform="rotate(-180 8.5 17.5)" fill="#A1A4DE"/>
<circle cx="8.5" cy="8.5" r="0.5" transform="rotate(-180 8.5 8.5)" fill="#A1A4DE"/>
<circle cx="3.5" cy="8.90002" r="0.5" transform="rotate(-180 3.5 8.90002)" fill="#A1A4DE"/>
<circle cx="11.5" cy="10.5" r="0.5" transform="rotate(-180 11.5 10.5)" fill="#A1A4DE"/>
<circle cx="6.5" cy="13.5" r="0.5" transform="rotate(-180 6.5 13.5)" fill="#A1A4DE"/>
</svg>
