<svg width="28" height="28" viewBox="0 0 28 28" fill="none" xmlns="http://www.w3.org/2000/svg">
<path d="M28 13.9994C28 21.732 21.7321 28 13.9994 28C6.26721 28 0 21.732 0 13.9994C0 6.26713 6.26721 0 13.9994 0C21.7321 0 28 6.26713 28 13.9994Z" fill="#2E50E9" fill-opacity="0.301961"/>
<path d="M24.7254 14.0012C24.7254 19.9264 19.9225 24.7298 13.9969 24.7298C8.07209 24.7298 3.26953 19.9264 3.26953 14.0012C3.26953 8.07603 8.07209 3.27393 13.9969 3.27393C19.9225 3.27393 24.7254 8.07603 24.7254 14.0012Z" fill="#2E50E9"/>
<path fill-rule="evenodd" clip-rule="evenodd" d="M10.9721 17.793C11.1831 17.793 11.3488 17.6271 11.3488 17.4163C11.3488 17.3034 11.1907 16.9717 10.9721 16.6099C10.7539 16.9717 10.5957 17.3034 10.5957 17.4163C10.5957 17.6271 10.7615 17.793 10.9721 17.793Z" fill="white"/>
<path fill-rule="evenodd" clip-rule="evenodd" d="M12.1033 13.4308V11.7656H11.35V8.32463C11.35 8.11691 11.5185 7.94799 11.7266 7.94799H13.9872C14.1949 7.94799 14.3638 8.11691 14.3638 8.32463V8.73931C13.5044 8.91393 12.8569 9.67439 12.8569 10.5851V13.7321C14.0925 14.3651 14.9668 15.5931 15.1022 17.0399C15.1098 17.1605 15.1174 17.2887 15.1174 17.4169V17.0399C15.1174 16.8885 15.1174 7.83387 15.1174 8.32463C15.1174 7.70148 14.6103 7.19434 13.9872 7.19434H11.7266C11.1035 7.19434 10.5964 7.70148 10.5964 8.32463V11.7656H9.84277V13.4308C10.2046 13.3254 10.5812 13.2725 10.973 13.2725C11.3649 13.2725 11.7419 13.3254 12.1033 13.4308Z" fill="white"/>
<path fill-rule="evenodd" clip-rule="evenodd" d="M19.6633 9.12761V17.7926H18.9097V7.99731H18.156V8.75059H16.6241V7.99731H15.8705V17.7926H14.3232C14.3373 17.6671 14.3636 17.5438 14.3636 17.416C14.3636 15.5473 12.8415 14.0252 10.9728 14.0252C9.10413 14.0252 7.58203 15.5473 7.58203 17.416C7.58203 18.0943 7.79849 18.7448 8.16865 19.2995H7.58203V20.0531H7.78555C7.97538 20.0531 15.2903 20.0531 15.1172 20.0531V19.2995H13.7773C13.9341 19.0648 14.055 18.8114 14.1498 18.5463H15.8705V20.0531H18.9097V18.5463H19.6633V20.0531H20.4166V10.6345C20.4166 10.0166 20.1229 9.47418 19.6633 9.12761ZM10.6639 15.698L10.9728 15.2461L11.2817 15.698C11.5305 16.0521 12.1031 16.9336 12.1031 17.416C12.1031 18.0414 11.5982 18.5463 10.9728 18.5463C10.3474 18.5463 9.84254 18.0414 9.84254 17.416C9.84254 16.9336 10.4155 16.0521 10.6639 15.698ZM18.156 19.2995H16.6241V18.5463H18.156V19.2995ZM18.156 17.7926H16.6241V17.039H18.156V17.7926ZM18.156 16.2857H16.6241V15.5321H18.156V16.2857ZM18.156 14.7788H16.6241V14.0252H18.156V14.7788ZM18.156 13.2716H16.6241V12.5183H18.156V13.2716ZM18.156 11.7647H16.6241V11.0111H18.156V11.7647ZM18.156 10.2578H16.6241V9.50417H18.156V10.2578Z" fill="white"/>
</svg>
