<svg width="18" height="18" viewBox="0 0 18 18" fill="none" xmlns="http://www.w3.org/2000/svg">
<path d="M17.1 7.21437L16.236 7.1316C16.1244 7.12079 16.0308 7.03799 15.9984 6.91917C15.8544 6.44036 15.66 5.96878 15.4152 5.52238C15.3576 5.41439 15.3648 5.28841 15.4368 5.20557L15.9912 4.53239C16.3188 4.13639 16.29 3.56398 15.9264 3.20038L14.7996 2.07C14.436 1.70638 13.8636 1.68119 13.464 2.00877L12.7944 2.56319C12.708 2.63519 12.5856 2.64238 12.474 2.58118C12.0312 2.33999 11.5632 2.14559 11.0772 2.00158C10.9584 1.96556 10.8756 1.87196 10.8648 1.76397L10.7856 0.896382C10.7352 0.385199 10.3104 0 9.79561 0H8.20081C7.68601 0 7.26122 0.385199 7.2144 0.896382L7.1316 1.76397C7.12082 1.87196 7.03802 1.96556 6.9192 2.00158C6.43681 2.14559 5.9652 2.33999 5.52241 2.58118C5.41442 2.64238 5.28841 2.63519 5.20199 2.56319L4.53242 2.00877C4.13639 1.68119 3.56401 1.70999 3.20041 2.07L2.07 3.20038C1.7064 3.56398 1.68122 4.13639 2.0088 4.53239L2.56319 5.20557C2.63158 5.28841 2.6388 5.41439 2.58121 5.52238C2.33999 5.96878 2.14561 6.43678 2.00161 6.91917C1.96559 7.03799 1.87201 7.12079 1.76041 7.1316L0.896382 7.21437C0.385199 7.26119 0 7.68599 0 8.20078V9.79919C0 10.314 0.385199 10.7352 0.896382 10.7856L1.76041 10.8684C1.87201 10.8792 1.96559 10.962 2.00161 11.0808C2.14561 11.5632 2.33999 12.0312 2.58121 12.4776C2.6388 12.5856 2.63158 12.7116 2.56319 12.7944L2.0088 13.4676C1.68122 13.8636 1.7064 14.436 2.07 14.7996L3.20041 15.93C3.56401 16.29 4.13639 16.3188 4.53242 15.9912L5.20199 15.4368C5.28841 15.3648 5.41442 15.3576 5.52241 15.4188C5.96881 15.66 6.43681 15.8544 6.9192 15.9984C7.03802 16.0344 7.12082 16.128 7.1316 16.236L7.2144 17.1036C7.26122 17.6148 7.68601 18 8.20081 18H9.79561C10.3104 18 10.7352 17.6148 10.7856 17.1L10.8648 16.236C10.8756 16.128 10.9584 16.0344 11.0772 15.9984C11.5596 15.8544 12.0312 15.66 12.474 15.4188C12.5856 15.3576 12.708 15.3684 12.7944 15.4368L13.464 15.9912C13.8636 16.3188 14.436 16.29 14.7996 15.93L15.9264 14.7996C16.29 14.436 16.3188 13.8636 15.9912 13.4676L15.4368 12.7944C15.3648 12.7116 15.3576 12.5856 15.4152 12.4776C15.66 12.0312 15.8544 11.5596 15.9984 11.0808C16.0308 10.962 16.1244 10.8792 16.236 10.8684L17.1 10.7856C17.6112 10.7352 18 10.314 18 9.79919V8.20078C18 7.68599 17.6112 7.26119 17.1 7.21437ZM9 13.6368C6.444 13.6368 4.3632 11.556 4.3632 9C4.3632 6.44397 6.444 4.3632 9 4.3632C11.556 4.3632 13.6368 6.44397 13.6368 9C13.6368 11.556 11.556 13.6368 9 13.6368Z" fill="#B3B7DD"/>
<path d="M9.36045 6.03775C9.36045 5.83615 9.19845 5.67777 9.00044 5.67777C8.79884 5.67777 8.64043 5.83615 8.64043 6.03775C8.64043 6.43736 8.31285 6.87657 7.93487 7.38056C7.41647 8.07537 6.77205 8.94296 6.77205 10.095C6.77205 11.3262 7.76926 12.3234 9.00044 12.3234C10.228 12.3234 11.2288 11.3262 11.2288 10.095C11.2288 8.94296 10.5808 8.07537 10.0625 7.38056C9.68445 6.87657 9.36045 6.43736 9.36045 6.03775Z" fill="#B3B7DD"/>
</svg>
