<svg width="20" height="20" viewBox="0 0 20 20" fill="none" xmlns="http://www.w3.org/2000/svg">
<path fill-rule="evenodd" clip-rule="evenodd" d="M17.0711 2.92891C15.1822 1.04 12.6712 0 10 0C7.32882 0 4.81781 1.04 2.92891 2.92891C1.04037 4.81781 0 7.32882 0 10C0 12.6712 1.04 15.1826 2.92891 17.0711C4.81781 18.96 7.32882 20 10 20C12.6712 20 15.1822 18.96 17.0711 17.0711C18.96 15.1826 20 12.6712 20 10C20 7.32882 18.96 4.81781 17.0711 2.92891ZM17.5807 6.97973C17.2163 7.00776 16.9313 6.90182 16.5699 6.76786C16.322 6.67613 16.0405 6.57203 15.7111 6.50651C14.8225 6.32996 13.9114 6.81411 13.3894 7.74018C13.2376 8.00992 12.5106 9.39865 13.1291 10.2505C13.361 10.5697 13.6712 10.7557 13.9205 10.905C14.255 11.1055 14.6009 11.313 14.9929 11.471C15.0763 11.5049 15.1589 11.5351 15.239 11.5646C15.4763 11.6523 15.7224 11.7433 15.8101 11.8634C15.8593 11.9311 15.911 12.0829 15.8757 12.4233C15.8524 12.6508 15.7614 12.8991 15.6649 13.1622C15.4272 13.8098 15.1017 14.6973 15.8644 15.5688C16.0009 15.7246 16.1549 15.8567 16.3219 15.9641C14.7355 17.6448 12.4881 18.6957 10 18.6957C5.20512 18.6957 1.30429 14.7949 1.30429 10C1.30429 9.07612 1.44954 8.18573 1.71783 7.34994C1.85688 7.54906 2.01411 7.72597 2.16482 7.88468C2.64715 8.39249 3.18046 8.85662 3.75197 9.26577C3.79456 9.29635 3.85497 9.33932 3.88627 9.36771C3.90775 9.46381 3.89901 9.60214 3.88954 9.75976C3.86879 10.0936 3.84041 10.5508 4.09231 11.032C4.25685 11.3454 4.48655 11.5868 4.68968 11.7994C4.88698 12.0069 5.0577 12.186 5.10538 12.3596C5.1396 12.483 5.12505 12.6654 5.10976 12.8579C5.08864 13.1237 5.06463 13.4247 5.14108 13.7487C5.24409 14.1837 5.48977 14.5062 5.70673 14.7909C5.84324 14.9703 5.97249 15.1396 6.02855 15.295C6.07151 15.4148 6.08898 15.5761 6.10754 15.7468C6.12611 15.9182 6.14683 16.1123 6.19816 16.3121C6.35141 16.9113 6.84869 17.4861 7.51958 17.4861C7.55525 17.4861 7.59163 17.4846 7.62839 17.481C8.32331 17.4177 8.80018 16.797 8.87335 15.8611C8.88536 15.7093 8.91632 15.31 8.99386 15.2219C9.01752 15.2124 9.07574 15.1982 9.11906 15.1877C9.30289 15.1425 9.58066 15.0748 9.80999 14.8397C10.2326 14.4068 10.1161 13.8641 10.0466 13.5401C10.0255 13.4425 10.0018 13.3319 10.0033 13.274C10.0069 13.1197 10.3233 12.8492 10.4423 12.7476L11.6345 11.7295C12.0986 11.3367 12.2722 10.6542 12.0666 10.0306C11.9195 9.58539 11.5944 9.18496 11.1263 8.87299C10.5486 8.48786 9.92392 8.38921 9.41284 8.60217C9.2392 8.67461 9.09867 8.77399 8.98583 8.85371C8.95161 8.87773 8.90649 8.90977 8.86972 8.9327C8.85298 8.91413 8.83368 8.88829 8.81548 8.85517C8.77252 8.77617 8.73392 8.67388 8.69315 8.56576C8.63928 8.42307 8.57814 8.26144 8.48786 8.09872C8.0048 7.22835 7.21562 7.13152 6.63974 7.06126C6.54109 7.04925 6.44789 7.0376 6.35542 7.02341C5.87019 6.94842 5.37694 6.73547 4.99799 6.44243C5.13668 6.39256 5.3067 6.35397 5.3977 6.35761C5.46395 6.35979 5.5415 6.36853 5.6234 6.378C5.85892 6.40457 6.15159 6.43807 6.46683 6.34961C6.78535 6.26043 7.02013 6.07696 7.20906 5.92953C7.26257 5.88767 7.31354 5.84763 7.3605 5.81487C7.44859 5.75299 7.62039 5.73878 7.8024 5.72349C8.25525 5.68563 9.19734 5.60701 9.33093 4.29654C9.39682 3.64859 9.16021 3.06797 8.96983 2.60166C8.81148 2.21362 8.65786 1.82848 8.5239 1.43024C9.00405 1.34797 9.49692 1.30429 10 1.30429C11.0793 1.30429 12.1135 1.50268 13.068 1.86379C13.0392 1.89182 13.0108 1.91985 12.9821 1.94788C12.6923 2.23218 12.3923 2.52631 12.1863 2.7935C12.0989 2.90635 11.953 3.09526 11.91 3.36719C11.8368 3.82913 12.1131 4.1837 12.2311 4.33513C12.4062 4.56009 12.6992 4.93684 13.1837 5.0577C13.2918 5.08463 13.3963 5.09628 13.4968 5.09628C13.8615 5.09628 14.1721 4.9434 14.413 4.82473C14.5514 4.75665 14.6948 4.68603 14.7803 4.67912C14.8619 4.67257 15.006 4.71988 15.1454 4.76575C15.3493 4.83237 15.5801 4.90809 15.852 4.91792C16.2094 4.93066 16.5269 4.80106 16.7759 4.55644C17.3532 5.27392 17.8192 6.08424 18.1475 6.96153C18.1013 6.96299 18.054 6.96371 18.0114 6.96407C17.8836 6.96553 17.7387 6.96736 17.5807 6.97973Z" fill="#C3CBE4"/>
</svg>
