<svg width="18" height="18" viewBox="0 0 18 18" fill="none" xmlns="http://www.w3.org/2000/svg">
<path fill-rule="evenodd" clip-rule="evenodd" d="M0 7.6854C0 3.43821 3.54714 0 7.8868 0C12.2264 0 15.7736 3.4382 15.7736 7.66699C15.7736 9.2114 15.3018 10.7007 14.4151 11.9694L14.0566 12.5026L17.6604 16.0511C17.8679 16.2717 18 16.5475 18 16.8601C18 17.1726 17.8868 17.4484 17.6604 17.669C17.434 17.8896 17.1509 18 16.8302 18C16.5095 18 16.2264 17.8896 16 17.669L12.283 14.047L11.9245 14.2676C10.6981 14.9847 9.30189 15.3708 7.8868 15.3708C3.5283 15.3708 0 11.9142 0 7.6854ZM1.96224 7.66699C1.96224 10.8478 4.62266 13.4403 7.8868 13.4403C11.1509 13.4403 13.8113 10.8478 13.8113 7.66699C13.8113 4.48621 11.1509 1.8938 7.8868 1.8938C4.62266 1.8938 1.96224 4.48621 1.96224 7.66699ZM11.0995 6.10578C11.0995 6.7725 10.5565 7.31885 9.89177 7.31885C9.22708 7.31885 8.68408 6.7725 8.68408 6.10578C8.68408 5.48535 9.64836 4.36488 9.76071 4.2445C9.78879 4.20746 9.84496 4.18894 9.89177 4.18894C9.93858 4.18894 9.98539 4.20746 10.0228 4.2445C10.1352 4.36488 11.0995 5.48535 11.0995 6.10578ZM9.64836 6.3095C9.57347 6.25394 9.46112 6.2632 9.40495 6.33728C9.33942 6.41136 9.34878 6.52248 9.42368 6.57804C9.5173 6.65212 9.69517 6.73546 9.90114 6.73546C10.0416 6.73546 10.2007 6.69842 10.3505 6.57804C10.4254 6.52248 10.4348 6.41136 10.3786 6.33728C10.3224 6.2632 10.2101 6.25394 10.1352 6.3095C9.91027 6.48748 9.694 6.34049 9.65254 6.31231L9.64836 6.3095ZM5.36094 6.2726C5.82904 6.2726 6.20352 5.89294 6.20352 5.42067C6.20352 4.98545 5.52946 4.2076 5.4452 4.115C5.42648 4.08722 5.38903 4.0687 5.35158 4.0687C5.31413 4.0687 5.28605 4.08722 5.25796 4.115C5.18306 4.19834 4.49964 4.98545 4.49964 5.42067C4.51837 5.89294 4.90221 6.2726 5.36094 6.2726ZM5.02391 5.58736C5.07072 5.5318 5.14562 5.52254 5.19243 5.56884C5.21115 5.58736 5.3703 5.69848 5.52946 5.56884C5.58563 5.52254 5.66052 5.5318 5.69797 5.58736C5.74478 5.64292 5.73542 5.717 5.67925 5.75404C5.57627 5.83738 5.46392 5.86516 5.36094 5.86516C5.22051 5.86516 5.08945 5.80034 5.02391 5.75404C4.98646 5.717 4.9771 5.63366 5.02391 5.58736ZM9.78954 9.2637C9.78954 10.5694 8.71291 11.625 7.40224 11.625C6.0822 11.625 5.01494 10.5694 5.01494 9.2637C5.01494 8.00433 7.17755 5.58745 7.27117 5.48559C7.30862 5.44855 7.35543 5.43003 7.40224 5.43003C7.44905 5.43003 7.49586 5.44855 7.53331 5.48559C7.62693 5.58745 9.78954 8.00433 9.78954 9.2637ZM6.51285 9.86561C6.4286 9.73597 6.24136 9.69893 6.11029 9.79153C5.96986 9.88413 5.93241 10.0601 6.01667 10.1805C6.03539 10.2082 6.48477 10.8657 7.37415 10.8657H7.39288C8.28226 10.8657 8.741 10.2175 8.75972 10.1897C8.85334 10.0601 8.8159 9.88413 8.68483 9.79153C8.55376 9.69893 8.37588 9.73597 8.28226 9.86561C8.28226 9.86561 7.97332 10.2823 7.39288 10.2916H7.38352C6.86296 10.2916 6.57557 9.94166 6.52135 9.87563C6.51706 9.87041 6.51423 9.86697 6.51285 9.86561Z" fill="#868BB2"/>
</svg>
