<svg width="17" height="18" viewBox="0 0 17 18" fill="none" xmlns="http://www.w3.org/2000/svg">
<path d="M5.33671 12.6923V12.5423H5.18671H3.52294V9.15H8.05965V12.5423H6.39588H6.24588V12.6923V17V17.15H6.39588H10.628H10.778V17V12.6923V12.5423H10.628H8.96424V9.15H13.5009V12.5423H11.8372H11.6872V12.6923V17V17.15H11.8372H16.0693H16.2193V17V12.6923V12.5423H16.0693H14.4055V8.38462V8.23462H14.2555H8.96424V5.45769H10.628H10.778V5.30769V1V0.85H10.628H6.39588H6.24588V1V5.30769V5.45769H6.39588H8.05965V8.23462H2.76835H2.61835V8.38462V12.5423H0.95459H0.80459V12.6923V17V17.15H0.95459H5.18671H5.33671V17V12.6923ZM15.3147 13.4577V16.2346H12.5918V13.4577H15.3147ZM7.15047 4.54231V1.76538H9.87341V4.54231H7.15047ZM9.87341 13.4577V16.2346H7.15047V13.4577H9.87341ZM4.43212 16.2346H1.70918V13.4577H4.43212V16.2346Z" fill="#3366FF" stroke="#3366FF" stroke-width="0.3"/>
</svg>
