<svg width="18" height="18" viewBox="0 0 18 18" fill="none" xmlns="http://www.w3.org/2000/svg">
<path d="M18 2.25C18 1.65326 17.7629 1.08097 17.341 0.65901C16.919 0.237053 16.3467 0 15.75 0H12.375V2.25H15.75V5.625H18V2.25Z" fill="#B3B7DD"/>
<path d="M0 5.625H2.25V2.25H5.625V0H2.25C1.65326 0 1.08097 0.237053 0.65901 0.65901C0.237053 1.08097 0 1.65326 0 2.25V5.625Z" fill="#B3B7DD"/>
<path d="M0 15.75C0 16.3467 0.237053 16.919 0.65901 17.341C1.08097 17.7629 1.65326 18 2.25 18H5.625V15.75H2.25V12.375H0V15.75Z" fill="#B3B7DD"/>
<path d="M18 15.75V12.375H15.75V15.75H12.375V18H15.75C16.3467 18 16.919 17.7629 17.341 17.341C17.7629 16.919 18 16.3467 18 15.75Z" fill="#B3B7DD"/>
<path d="M10.2324 11.813L12.7046 14.2852L14.2965 12.6933L11.813 10.2324C12.318 9.34478 12.4839 8.30413 12.2799 7.30351C12.0759 6.30288 11.5159 5.41021 10.7038 4.79111C9.89165 4.17201 8.88251 3.86851 7.8636 3.93691C6.84469 4.00531 5.88518 4.44098 5.16308 5.16308C4.44098 5.88518 4.00531 6.84469 3.93691 7.8636C3.86851 8.88251 4.17201 9.89165 4.79111 10.7038C5.41021 11.5159 6.30289 12.0759 7.30351 12.2799C8.30413 12.4839 9.34478 12.318 10.2324 11.813ZM6.18801 8.15676C6.18801 7.76738 6.30348 7.38674 6.51981 7.06298C6.73614 6.73922 7.04361 6.48688 7.40335 6.33787C7.7631 6.18886 8.15895 6.14987 8.54085 6.22584C8.92275 6.3018 9.27354 6.48931 9.54888 6.76464C9.82421 7.03998 10.0117 7.39078 10.0877 7.77268C10.1636 8.15458 10.1247 8.55043 9.97565 8.91017C9.82664 9.26991 9.5743 9.57739 9.25054 9.79372C8.92678 10.01 8.54614 10.1255 8.15676 10.1255C7.63462 10.1255 7.13386 9.91809 6.76464 9.54888C6.39543 9.17967 6.18801 8.67891 6.18801 8.15676Z" fill="#B3B7DD"/>
</svg>
