<svg width="20" height="18" viewBox="0 0 20 18" fill="none" xmlns="http://www.w3.org/2000/svg">
<path fill-rule="evenodd" clip-rule="evenodd" d="M6.15667 15.9543V13.5009C6.15667 13.2704 5.98667 13.0896 5.77 13.0896H1.92333C1.71 13.0896 1.54 13.2704 1.54 13.5009V15.9543C1.54 16.1848 1.70667 16.362 1.92333 16.362H5.77C5.98667 16.362 6.15667 16.1848 6.15667 15.9543ZM6.15667 11.0439V8.59051C6.15667 8.36006 5.98667 8.18279 5.77 8.18279H1.92333C1.71 8.18279 1.54 8.36006 1.54 8.59051V11.0439C1.54 11.2744 1.70667 11.4552 1.92333 11.4552H5.77C5.98667 11.4552 6.15667 11.2744 6.15667 11.0439ZM12.31 15.9543V13.5009C12.31 13.2704 12.14 13.0896 11.9233 13.0896H8.07667C7.86333 13.0896 7.69333 13.2704 7.69333 13.5009V15.9543C7.69333 16.1848 7.86333 16.362 8.07667 16.362H11.9233C12.14 16.362 12.31 16.1848 12.31 15.9543ZM6.15667 6.13709V3.68013C6.15667 3.45322 5.98667 3.27241 5.77 3.27241H1.92333C1.71 3.27241 1.54 3.44968 1.54 3.68013V6.13709C1.54 6.36754 1.70667 6.54481 1.92333 6.54481H5.77C5.98667 6.54481 6.15667 6.36754 6.15667 6.13709ZM12.31 11.0439V8.59051C12.31 8.36006 12.14 8.18279 11.9233 8.18279H8.07667C7.86333 8.18279 7.69333 8.36006 7.69333 8.59051V11.0439C7.69333 11.2744 7.86333 11.4552 8.07667 11.4552H11.9233C12.14 11.4552 12.31 11.2744 12.31 11.0439ZM18.4633 15.9543V13.5009C18.4633 13.2704 18.2933 13.0896 18.0767 13.0896H14.2333C14.0167 13.0896 13.8467 13.2704 13.8467 13.5009V15.9543C13.8467 16.1848 14.0167 16.362 14.2333 16.362H18.0767C18.2933 16.362 18.4633 16.1848 18.4633 15.9543ZM12.31 6.13709V3.68013C12.31 3.45322 12.14 3.27241 11.9233 3.27241H8.07667C7.86333 3.27241 7.69333 3.44968 7.69333 3.68013V6.13709C7.69333 6.36754 7.86333 6.54481 8.07667 6.54481H11.9233C12.14 6.54481 12.31 6.36754 12.31 6.13709ZM18.4633 11.0439V8.59051C18.4633 8.36006 18.2933 8.18279 18.0767 8.18279H14.2333C14.0167 8.18279 13.8467 8.36006 13.8467 8.59051V11.0439C13.8467 11.2744 14.0167 11.4552 14.2333 11.4552H18.0767C18.2933 11.4552 18.4633 11.2744 18.4633 11.0439ZM19 7C19.5523 7 20 7.44772 20 8V15.9543C20 17.0782 19.1367 18 18.0767 18H1.92333C0.866667 18 0 17.0782 0 15.9543V2.0457C0 0.921804 0.866667 0 1.92333 0H12C12.5523 0 13 0.447715 13 1V6C13 6.55228 13.4477 7 14 7H19Z" fill="#868BB2"/>
<path d="M17.9615 3C17.9615 3.52998 17.5303 3.96157 17.0002 3.96157C16.4701 3.96157 16.038 3.52998 16.038 2.99957C16.038 2.47001 16.4701 2.03885 17.0002 2.03885C17.5307 2.03927 17.962 2.47001 17.962 2.99957L17.9615 3ZM19.1755 2.31208L19.0238 1.94468C19.0238 1.94468 19.3765 1.1326 19.3451 1.10135L18.8786 0.635978C18.8464 0.603883 18.0509 0.974661 18.0509 0.974661L17.6841 0.823059C17.6841 0.823059 17.3599 0 17.3153 0H16.657C16.6115 0 16.3114 0.825166 16.3114 0.825166L15.945 0.977193C15.945 0.977193 15.1329 0.624575 15.1015 0.655825L14.6359 1.12162C14.6037 1.15372 14.9746 1.94932 14.9746 1.94932L14.8228 2.31673C14.8228 2.31673 14 2.6402 14 2.68412V3.3429C14 3.38893 14.8249 3.68919 14.8249 3.68919L14.9762 4.05574C14.9762 4.05574 14.6239 4.86697 14.6549 4.89822L15.1213 5.36486C15.1528 5.39653 15.9483 5.02576 15.9483 5.02576L16.3159 5.17778C16.3159 5.17778 16.6396 6 16.6847 6H17.3434C17.3889 6 17.6891 5.17525 17.6891 5.17525L18.0562 5.02323C18.0562 5.02323 18.8666 5.37584 18.8981 5.34501L19.3649 4.87922C19.3971 4.8467 19.0254 4.05152 19.0254 4.05152L19.1763 3.68412C19.1763 3.68412 20 3.3598 20 3.31588V2.6571C20 2.61149 19.1755 2.31208 19.1755 2.31208Z" fill="#868BB2"/>
</svg>
