<svg width="20" height="18" viewBox="0 0 20 18" fill="none" xmlns="http://www.w3.org/2000/svg">
<path fill-rule="evenodd" clip-rule="evenodd" d="M6.15667 15.9543V13.5009C6.15667 13.2704 5.98667 13.0896 5.77 13.0896H1.92333C1.71 13.0896 1.54 13.2704 1.54 13.5009V15.9543C1.54 16.1848 1.70667 16.362 1.92333 16.362H5.77C5.98667 16.362 6.15667 16.1848 6.15667 15.9543ZM6.15667 11.0439V8.59051C6.15667 8.36005 5.98667 8.18279 5.77 8.18279H1.92333C1.71 8.18279 1.54 8.36005 1.54 8.59051V11.0439C1.54 11.2744 1.70667 11.4552 1.92333 11.4552H5.77C5.98667 11.4552 6.15667 11.2744 6.15667 11.0439ZM12.31 15.9543V13.5009C12.31 13.2704 12.14 13.0896 11.9233 13.0896H8.07667C7.86333 13.0896 7.69333 13.2704 7.69333 13.5009V15.9543C7.69333 16.1848 7.86333 16.362 8.07667 16.362H11.9233C12.14 16.362 12.31 16.1848 12.31 15.9543ZM6.15667 6.13709V3.68013C6.15667 3.45322 5.98667 3.27241 5.77 3.27241H1.92333C1.71 3.27241 1.54 3.44968 1.54 3.68013V6.13709C1.54 6.36754 1.70667 6.54481 1.92333 6.54481H5.77C5.98667 6.54481 6.15667 6.36754 6.15667 6.13709ZM12.31 11.0439V8.59051C12.31 8.36005 12.14 8.18279 11.9233 8.18279H8.07667C7.86333 8.18279 7.69333 8.36005 7.69333 8.59051V11.0439C7.69333 11.2744 7.86333 11.4552 8.07667 11.4552H11.9233C12.14 11.4552 12.31 11.2744 12.31 11.0439ZM18.4633 15.9543V13.5009C18.4633 13.2704 18.2933 13.0896 18.0767 13.0896H14.2333C14.0167 13.0896 13.8467 13.2704 13.8467 13.5009V15.9543C13.8467 16.1848 14.0167 16.362 14.2333 16.362H18.0767C18.2933 16.362 18.4633 16.1848 18.4633 15.9543ZM12.31 6.13709V3.68013C12.31 3.45322 12.14 3.27241 11.9233 3.27241H8.07667C7.86333 3.27241 7.69333 3.44968 7.69333 3.68013V6.13709C7.69333 6.36754 7.86333 6.54481 8.07667 6.54481H11.9233C12.14 6.54481 12.31 6.36754 12.31 6.13709ZM18.4633 11.0439V8.59051C18.4633 8.36005 18.2933 8.18279 18.0767 8.18279H14.2333C14.0167 8.18279 13.8467 8.36005 13.8467 8.59051V11.0439C13.8467 11.2744 14.0167 11.4552 14.2333 11.4552H18.0767C18.2933 11.4552 18.4633 11.2744 18.4633 11.0439ZM18.4633 6.13709V3.68013C18.4633 3.45322 18.2933 3.27241 18.0767 3.27241H14.2333C14.0167 3.27241 13.8467 3.44968 13.8467 3.68013V6.13709C13.8467 6.36754 14.0167 6.54481 14.2333 6.54481H18.0767C18.2933 6.54481 18.4633 6.36754 18.4633 6.13709ZM20 2.0457V15.9543C20 17.0782 19.1367 18 18.0767 18H1.92333C0.866667 18 0 17.0782 0 15.9543V2.0457C0 0.921804 0.866667 0 1.92333 0H18.0767C19.1367 0 20 0.921804 20 2.0457Z" fill="#868BB2"/>
</svg>
