<svg width="25" height="24" viewBox="0 0 25 24" fill="none" xmlns="http://www.w3.org/2000/svg">
<path fill-rule="evenodd" clip-rule="evenodd" d="M9.4569 5.30002C8.73893 5.30002 8.1569 5.88205 8.1569 6.60002V11C8.1569 11.3866 7.8435 11.7 7.4569 11.7C7.0703 11.7 6.7569 11.3866 6.7569 11V6.60002C6.7569 5.10886 7.96573 3.90002 9.4569 3.90002H18.5274C20.0186 3.90002 21.2274 5.10885 21.2274 6.60002V15.6706C21.2274 17.1617 20.0186 18.3706 18.5274 18.3706H14.1229C13.7363 18.3706 13.4229 18.0572 13.4229 17.6706C13.4229 17.284 13.7363 16.9706 14.1229 16.9706H18.5274C19.2454 16.9706 19.8274 16.3885 19.8274 15.6706V6.60002C19.8274 5.88206 19.2454 5.30002 18.5274 5.30002H9.4569ZM7.4569 13.2361C7.8435 13.2361 8.1569 13.5495 8.1569 13.9361V16.9706H11.1918C11.5784 16.9706 11.8918 17.284 11.8918 17.6706C11.8918 18.0572 11.5784 18.3706 11.1918 18.3706H8.1569V21.405C8.1569 21.7916 7.8435 22.105 7.4569 22.105C7.0703 22.105 6.7569 21.7916 6.7569 21.405V18.3706H3.72295C3.33635 18.3706 3.02295 18.0572 3.02295 17.6706C3.02295 17.284 3.33635 16.9706 3.72295 16.9706H6.7569V13.9361C6.7569 13.5495 7.0703 13.2361 7.4569 13.2361Z" fill="white"/>
</svg>
