<svg width="270" height="238" viewBox="0 0 270 238" fill="none" xmlns="http://www.w3.org/2000/svg">
    <path fill-rule="evenodd" clip-rule="evenodd" d="M0 238H270V0H0V238Z" fill="#272953"/>
    <path fill-rule="evenodd" clip-rule="evenodd" d="M13.7315 9H256.268C258.321 9 260 10.6871 260 12.7497V35.25C260 37.3125 258.321 39 256.268 39H13.7315C11.6793 39 10 37.3125 10 35.25V12.7497C10 10.6871 11.6793 9 13.7315 9Z" fill="#333975"/>
    <path fill-rule="evenodd" clip-rule="evenodd" d="M13.7315 47H256.268C258.321 47 260 48.6871 260 50.7495V73.2501C260 75.3126 258.321 77 256.268 77H13.7315C11.6793 77 10 75.3126 10 73.2501V50.7495C10 48.6871 11.6793 47 13.7315 47Z" fill="#333975"/>
    <path fill-rule="evenodd" clip-rule="evenodd" d="M13.7315 85H256.268C258.321 85 260 86.6871 260 88.7497V111.25C260 113.312 258.321 115 256.268 115H13.7315C11.6793 115 10 113.312 10 111.25V88.7497C10 86.6871 11.6793 85 13.7315 85Z" fill="#333975"/>
    <path fill-rule="evenodd" clip-rule="evenodd" d="M13.7315 123H256.268C258.321 123 260 124.687 260 126.75V149.25C260 151.312 258.321 153 256.268 153H13.7315C11.6793 153 10 151.312 10 149.25V126.75C10 124.687 11.6793 123 13.7315 123Z" fill="#333975"/>
    <path fill-rule="evenodd" clip-rule="evenodd" d="M13.7315 161H256.268C258.321 161 260 162.687 260 164.75V187.25C260 189.312 258.321 191 256.268 191H13.7315C11.6793 191 10 189.312 10 187.25V164.75C10 162.687 11.6793 161 13.7315 161Z" fill="#333975"/>
    <path fill-rule="evenodd" clip-rule="evenodd" d="M13.7315 199H256.268C258.321 199 260 200.687 260 202.75V225.25C260 227.312 258.321 229 256.268 229H13.7315C11.6793 229 10 227.312 10 225.25V202.75C10 200.687 11.6793 199 13.7315 199Z" fill="#333975"/>
    <path d="M245.808 22.5855L245.416 22.1945C245.292 22.0734 245.127 22.0057 244.951 22.0057C244.775 22.0057 244.61 22.0734 244.487 22.1945L240.003 26.6228L235.513 22.1896C235.391 22.0699 235.23 22.0023 235.057 22H235.049H235.04C234.868 22.0023 234.706 22.0699 234.585 22.1896L234.191 22.5784C234.064 22.7046 234 22.8709 234 23.0371C234 23.2029 234.064 23.3687 234.191 23.4947L239.536 28.792C239.658 28.9127 239.82 28.9973 239.994 29H240.002H240.004H240.012C240.185 28.9973 240.347 28.9127 240.469 28.792L245.808 23.5093C245.931 23.3898 245.998 23.225 246 23.0545V23.0465V23.0383C245.998 22.8675 245.931 22.7058 245.808 22.5855Z" fill="white"/>
    <path d="M25.184 30V19.088H27.6C28.72 19.088 29.5947 19.3387 30.224 19.84C30.8533 20.3413 31.168 21.0187 31.168 21.872C31.168 22.992 30.576 23.7653 29.392 24.192V24.224C30.2133 24.3093 30.8427 24.608 31.28 25.12C31.728 25.632 31.952 26.256 31.952 26.992C31.952 27.9733 31.6107 28.72 30.928 29.232C30.256 29.744 29.3867 30 28.32 30H25.184ZM30.576 26.896C30.576 26.288 30.368 25.8133 29.952 25.472C29.536 25.1307 28.9493 24.96 28.192 24.96H26.512V28.784H28.416C29.1307 28.784 29.6693 28.6133 30.032 28.272C30.3947 27.9307 30.576 27.472 30.576 26.896ZM29.808 21.984C29.808 21.4187 29.6053 20.9973 29.2 20.72C28.7947 20.4427 28.2613 20.304 27.6 20.304H26.512V23.744H27.696C28.3467 23.744 28.8587 23.584 29.232 23.264C29.616 22.9333 29.808 22.5067 29.808 21.984ZM36.4486 26.528H35.0086V28.944H36.4486C36.886 28.944 37.2166 28.8267 37.4406 28.592C37.6646 28.3573 37.7766 28.0693 37.7766 27.728C37.7766 26.928 37.334 26.528 36.4486 26.528ZM35.0086 25.472H36.4646C37.2753 25.472 37.9046 25.6747 38.3526 26.08C38.8113 26.4747 39.0406 27.0187 39.0406 27.712C39.0406 28.4053 38.8166 28.96 38.3686 29.376C37.9206 29.792 37.302 30 36.5126 30H33.7446V22.336H35.0086V25.472ZM40.4486 30V22.336H41.7126V30H40.4486ZM44.7485 26.16C44.7485 27.0027 45.0205 27.7067 45.5645 28.272C46.1192 28.8373 46.7752 29.12 47.5325 29.12C48.3325 29.12 48.9938 28.8373 49.5165 28.272C50.0498 27.7067 50.3165 27.0027 50.3165 26.16C50.3165 25.328 50.0658 24.6293 49.5645 24.064C49.0632 23.4987 48.4018 23.216 47.5805 23.216C46.7698 23.216 46.0925 23.4933 45.5485 24.048C45.0152 24.6027 44.7485 25.3067 44.7485 26.16ZM48.1885 20.336C46.2045 20.688 45.0685 21.7333 44.7805 23.472H44.8285C45.1058 23.0773 45.5112 22.7467 46.0445 22.48C46.5778 22.2133 47.1165 22.08 47.6605 22.08C48.8338 22.08 49.7885 22.4693 50.5245 23.248C51.2605 24.016 51.6285 24.9867 51.6285 26.16C51.6285 27.3013 51.2392 28.272 50.4605 29.072C49.6818 29.872 48.7058 30.272 47.5325 30.272C46.3485 30.272 45.3778 29.8613 44.6205 29.04C43.8632 28.2187 43.4845 27.0453 43.4845 25.52C43.4845 24.4 43.6018 23.44 43.8365 22.64C44.0818 21.8293 44.4285 21.1947 44.8765 20.736C45.3352 20.2667 45.8258 19.9093 46.3485 19.664C46.8712 19.4187 47.4845 19.2373 48.1885 19.12C48.9778 18.9813 49.6392 18.7307 50.1725 18.368L50.7165 19.44C49.9378 19.888 49.0952 20.1867 48.1885 20.336ZM52.7791 26.16C52.7791 24.9867 53.1685 24.016 53.9471 23.248C54.7365 22.4693 55.7125 22.08 56.8751 22.08C58.0591 22.08 59.0351 22.4693 59.8031 23.248C60.5818 24.0267 60.9711 24.9973 60.9711 26.16C60.9711 27.3013 60.5818 28.272 59.8031 29.072C59.0245 29.872 58.0485 30.272 56.8751 30.272C55.7125 30.272 54.7365 29.8773 53.9471 29.088C53.1685 28.2987 52.7791 27.3227 52.7791 26.16ZM54.0911 26.16C54.0911 27.0027 54.3631 27.7067 54.9071 28.272C55.4618 28.8373 56.1178 29.12 56.8751 29.12C57.6751 29.12 58.3365 28.8373 58.8591 28.272C59.3925 27.7067 59.6591 27.0027 59.6591 26.16C59.6591 25.328 59.3978 24.6293 58.8751 24.064C58.3631 23.4987 57.6965 23.216 56.8751 23.216C56.0645 23.216 55.3978 23.4933 54.8751 24.048C54.3525 24.6027 54.0911 25.3067 54.0911 26.16ZM62.6509 33.76V22.336H63.9149V23.424H63.9469C64.7042 22.528 65.6642 22.08 66.8269 22.08C68.0002 22.08 68.9335 22.4853 69.6269 23.296C70.3309 24.1067 70.6829 25.0613 70.6829 26.16C70.6829 27.3227 70.3095 28.2987 69.5629 29.088C68.8269 29.8773 67.8989 30.272 66.7789 30.272C65.6162 30.272 64.6722 29.84 63.9469 28.976H63.9149V33.76H62.6509ZM69.3709 26.16C69.3709 25.3493 69.1202 24.6507 68.6189 24.064C68.1282 23.4773 67.4402 23.184 66.5549 23.184C65.7762 23.184 65.1202 23.4667 64.5869 24.032C64.0642 24.5867 63.8029 25.312 63.8029 26.208C63.8029 27.0613 64.0749 27.7653 64.6189 28.32C65.1735 28.8747 65.8295 29.152 66.5869 29.152C67.4615 29.152 68.1442 28.8533 68.6349 28.256C69.1255 27.6587 69.3709 26.96 69.3709 26.16ZM75.5856 32.8V28.784H75.8576C76.3696 28.784 76.8283 28.5227 77.2336 28C77.6496 27.4773 77.9003 26.5973 77.9856 25.36L78.4336 19.088H85.3456V28.784H86.6736V32.8H85.3456V30H76.9136V32.8H75.5856ZM84.0176 28.784V20.304H79.6656L79.3136 25.36C79.207 26.9707 78.8176 28.112 78.1456 28.784H84.0176ZM87.7643 27.344H89.1723C89.2469 27.888 89.4816 28.32 89.8763 28.64C90.2709 28.96 90.7616 29.12 91.3483 29.12C91.9563 29.12 92.4523 28.9227 92.8363 28.528C93.2309 28.1227 93.4283 27.6 93.4283 26.96C93.4283 26.352 93.2256 25.8347 92.8203 25.408C92.4256 24.9813 91.8709 24.768 91.1562 24.768H90.0043V23.552H91.1723C91.7483 23.552 92.2016 23.376 92.5323 23.024C92.8736 22.6613 93.0443 22.224 93.0443 21.712C93.0443 21.2213 92.8789 20.8053 92.5483 20.464C92.2176 20.1227 91.7963 19.952 91.2843 19.952C90.8256 19.952 90.4469 20.0693 90.1483 20.304C89.8603 20.5387 89.6843 20.8747 89.6203 21.312H88.2283C88.2923 20.5333 88.6123 19.9093 89.1883 19.44C89.7749 18.9707 90.4896 18.736 91.3323 18.736C92.2283 18.736 92.9589 19.0187 93.5243 19.584C94.1003 20.1387 94.3883 20.848 94.3883 21.712C94.3883 22.2347 94.2443 22.704 93.9563 23.12C93.6789 23.5253 93.2789 23.84 92.7563 24.064V24.112C93.3749 24.3147 93.8709 24.6773 94.2443 25.2C94.6176 25.712 94.8043 26.2987 94.8043 26.96C94.8043 27.92 94.4736 28.7253 93.8123 29.376C93.1509 30.016 92.3243 30.336 91.3323 30.336C90.3509 30.336 89.5296 30.0587 88.8683 29.504C88.2176 28.9387 87.8496 28.2187 87.7643 27.344ZM97.6559 24.544C97.6559 25.8667 98.0772 26.9707 98.9199 27.856C99.7625 28.7307 100.808 29.168 102.056 29.168C103.304 29.168 104.349 28.7307 105.192 27.856C106.045 26.9707 106.472 25.8667 106.472 24.544C106.472 23.2213 106.061 22.1227 105.24 21.248C104.419 20.3627 103.357 19.92 102.056 19.92C100.808 19.92 99.7625 20.3573 98.9199 21.232C98.0772 22.1067 97.6559 23.2107 97.6559 24.544ZM96.2799 24.544C96.2799 22.9547 96.8292 21.5893 97.9279 20.448C99.0372 19.3067 100.419 18.736 102.072 18.736C103.8 18.736 105.192 19.3067 106.248 20.448C107.315 21.5893 107.848 22.9547 107.848 24.544C107.848 26.1547 107.293 27.5253 106.184 28.656C105.075 29.7867 103.704 30.352 102.072 30.352C101.123 30.352 100.264 30.1813 99.4959 29.84C98.7385 29.488 98.1305 29.0293 97.6719 28.464C97.2132 27.888 96.8665 27.2693 96.6319 26.608C96.3972 25.936 96.2799 25.248 96.2799 24.544Z" fill="white"/>
    <path d="M25.184 68V57.088H27.6C28.72 57.088 29.5947 57.3387 30.224 57.84C30.8533 58.3413 31.168 59.0187 31.168 59.872C31.168 60.992 30.576 61.7653 29.392 62.192V62.224C30.2133 62.3093 30.8427 62.608 31.28 63.12C31.728 63.632 31.952 64.256 31.952 64.992C31.952 65.9733 31.6107 66.72 30.928 67.232C30.256 67.744 29.3867 68 28.32 68H25.184ZM30.576 64.896C30.576 64.288 30.368 63.8133 29.952 63.472C29.536 63.1307 28.9493 62.96 28.192 62.96H26.512V66.784H28.416C29.1307 66.784 29.6693 66.6133 30.032 66.272C30.3947 65.9307 30.576 65.472 30.576 64.896ZM29.808 59.984C29.808 59.4187 29.6053 58.9973 29.2 58.72C28.7947 58.4427 28.2613 58.304 27.6 58.304H26.512V61.744H27.696C28.3467 61.744 28.8587 61.584 29.232 61.264C29.616 60.9333 29.808 60.5067 29.808 59.984ZM36.4486 64.528H35.0086V66.944H36.4486C36.886 66.944 37.2166 66.8267 37.4406 66.592C37.6646 66.3573 37.7766 66.0693 37.7766 65.728C37.7766 64.928 37.334 64.528 36.4486 64.528ZM35.0086 63.472H36.4646C37.2753 63.472 37.9046 63.6747 38.3526 64.08C38.8113 64.4747 39.0406 65.0187 39.0406 65.712C39.0406 66.4053 38.8166 66.96 38.3686 67.376C37.9206 67.792 37.302 68 36.5126 68H33.7446V60.336H35.0086V63.472ZM40.4486 68V60.336H41.7126V68H40.4486ZM44.7485 64.16C44.7485 65.0027 45.0205 65.7067 45.5645 66.272C46.1192 66.8373 46.7752 67.12 47.5325 67.12C48.3325 67.12 48.9938 66.8373 49.5165 66.272C50.0498 65.7067 50.3165 65.0027 50.3165 64.16C50.3165 63.328 50.0658 62.6293 49.5645 62.064C49.0632 61.4987 48.4018 61.216 47.5805 61.216C46.7698 61.216 46.0925 61.4933 45.5485 62.048C45.0152 62.6027 44.7485 63.3067 44.7485 64.16ZM48.1885 58.336C46.2045 58.688 45.0685 59.7333 44.7805 61.472H44.8285C45.1058 61.0773 45.5112 60.7467 46.0445 60.48C46.5778 60.2133 47.1165 60.08 47.6605 60.08C48.8338 60.08 49.7885 60.4693 50.5245 61.248C51.2605 62.016 51.6285 62.9867 51.6285 64.16C51.6285 65.3013 51.2392 66.272 50.4605 67.072C49.6818 67.872 48.7058 68.272 47.5325 68.272C46.3485 68.272 45.3778 67.8613 44.6205 67.04C43.8632 66.2187 43.4845 65.0453 43.4845 63.52C43.4845 62.4 43.6018 61.44 43.8365 60.64C44.0818 59.8293 44.4285 59.1947 44.8765 58.736C45.3352 58.2667 45.8258 57.9093 46.3485 57.664C46.8712 57.4187 47.4845 57.2373 48.1885 57.12C48.9778 56.9813 49.6392 56.7307 50.1725 56.368L50.7165 57.44C49.9378 57.888 49.0952 58.1867 48.1885 58.336ZM52.7791 64.16C52.7791 62.9867 53.1685 62.016 53.9471 61.248C54.7365 60.4693 55.7125 60.08 56.8751 60.08C58.0591 60.08 59.0351 60.4693 59.8031 61.248C60.5818 62.0267 60.9711 62.9973 60.9711 64.16C60.9711 65.3013 60.5818 66.272 59.8031 67.072C59.0245 67.872 58.0485 68.272 56.8751 68.272C55.7125 68.272 54.7365 67.8773 53.9471 67.088C53.1685 66.2987 52.7791 65.3227 52.7791 64.16ZM54.0911 64.16C54.0911 65.0027 54.3631 65.7067 54.9071 66.272C55.4618 66.8373 56.1178 67.12 56.8751 67.12C57.6751 67.12 58.3365 66.8373 58.8591 66.272C59.3925 65.7067 59.6591 65.0027 59.6591 64.16C59.6591 63.328 59.3978 62.6293 58.8751 62.064C58.3631 61.4987 57.6965 61.216 56.8751 61.216C56.0645 61.216 55.3978 61.4933 54.8751 62.048C54.3525 62.6027 54.0911 63.3067 54.0911 64.16ZM62.6509 71.76V60.336H63.9149V61.424H63.9469C64.7042 60.528 65.6642 60.08 66.8269 60.08C68.0002 60.08 68.9335 60.4853 69.6269 61.296C70.3309 62.1067 70.6829 63.0613 70.6829 64.16C70.6829 65.3227 70.3095 66.2987 69.5629 67.088C68.8269 67.8773 67.8989 68.272 66.7789 68.272C65.6162 68.272 64.6722 67.84 63.9469 66.976H63.9149V71.76H62.6509ZM69.3709 64.16C69.3709 63.3493 69.1202 62.6507 68.6189 62.064C68.1282 61.4773 67.4402 61.184 66.5549 61.184C65.7762 61.184 65.1202 61.4667 64.5869 62.032C64.0642 62.5867 63.8029 63.312 63.8029 64.208C63.8029 65.0613 64.0749 65.7653 64.6189 66.32C65.1735 66.8747 65.8295 67.152 66.5869 67.152C67.4615 67.152 68.1442 66.8533 68.6349 66.256C69.1255 65.6587 69.3709 64.96 69.3709 64.16ZM84.3856 60.336L85.7616 68H84.5776L83.8576 63.696C83.7296 62.9387 83.639 62.3467 83.5856 61.92H83.5376C83.3883 62.592 83.207 63.184 82.9936 63.696L81.2336 68H80.2416L78.4816 63.6C78.2256 62.9493 78.039 62.3893 77.9216 61.92H77.8736C77.767 62.7413 77.6923 63.296 77.6496 63.584L76.8976 68H75.7296L77.1376 60.336H78.3696L80.3216 65.184C80.471 65.536 80.6043 65.952 80.7216 66.432H80.7696C80.9083 65.92 81.047 65.504 81.1856 65.184L83.1856 60.336H84.3856ZM90.6028 60.08C91.2641 60.08 91.8508 60.208 92.3628 60.464C92.8748 60.72 93.2694 61.0507 93.5468 61.456C93.8348 61.8613 94.0481 62.288 94.1868 62.736C94.3254 63.1733 94.3948 63.616 94.3948 64.064C94.3948 64.2667 94.3841 64.4213 94.3628 64.528H88.1068C88.1068 65.2213 88.3788 65.8347 88.9228 66.368C89.4668 66.8907 90.1014 67.152 90.8268 67.152C91.6161 67.152 92.2721 66.8427 92.7948 66.224H94.2508C93.9521 66.7893 93.5148 67.2747 92.9388 67.68C92.3734 68.0747 91.6801 68.272 90.8588 68.272C89.6534 68.272 88.6721 67.872 87.9148 67.072C87.1681 66.272 86.7948 65.2693 86.7948 64.064C86.7948 62.9653 87.1468 62.0267 87.8508 61.248C88.5548 60.4693 89.4721 60.08 90.6028 60.08ZM90.6028 61.184C89.9094 61.184 89.3388 61.4133 88.8908 61.872C88.4428 62.32 88.1868 62.8533 88.1228 63.472H93.0668C93.0028 62.8427 92.7414 62.304 92.2828 61.856C91.8348 61.408 91.2748 61.184 90.6028 61.184ZM99.5768 60.08C100.558 60.08 101.337 60.3147 101.913 60.784C102.499 61.2427 102.873 61.7493 103.033 62.304H101.625C101.273 61.5573 100.59 61.184 99.5768 61.184C98.8088 61.184 98.1634 61.4453 97.6408 61.968C97.1181 62.48 96.8568 63.2107 96.8568 64.16C96.8568 65.024 97.1181 65.7387 97.6408 66.304C98.1741 66.8693 98.8461 67.152 99.6568 67.152C100.638 67.152 101.331 66.7307 101.737 65.888H103.145C102.91 66.56 102.505 67.1253 101.929 67.584C101.353 68.0427 100.59 68.272 99.6408 68.272C98.4461 68.272 97.4648 67.888 96.6968 67.12C95.9288 66.3413 95.5448 65.3493 95.5448 64.144C95.5448 62.992 95.9128 62.0267 96.6488 61.248C97.3954 60.4693 98.3714 60.08 99.5768 60.08ZM109.432 60.336V61.472H107.272V68H106.008V61.472H103.816V60.336H109.432ZM109.935 64.16C109.935 62.9867 110.325 62.016 111.103 61.248C111.893 60.4693 112.869 60.08 114.031 60.08C115.215 60.08 116.191 60.4693 116.959 61.248C117.738 62.0267 118.127 62.9973 118.127 64.16C118.127 65.3013 117.738 66.272 116.959 67.072C116.181 67.872 115.205 68.272 114.031 68.272C112.869 68.272 111.893 67.8773 111.103 67.088C110.325 66.2987 109.935 65.3227 109.935 64.16ZM111.247 64.16C111.247 65.0027 111.519 65.7067 112.063 66.272C112.618 66.8373 113.274 67.12 114.031 67.12C114.831 67.12 115.493 66.8373 116.015 66.272C116.549 65.7067 116.815 65.0027 116.815 64.16C116.815 63.328 116.554 62.6293 116.031 62.064C115.519 61.4987 114.853 61.216 114.031 61.216C113.221 61.216 112.554 61.4933 112.031 62.048C111.509 62.6027 111.247 63.3067 111.247 64.16ZM119.807 71.76V60.336H121.071V61.424H121.103C121.86 60.528 122.82 60.08 123.983 60.08C125.156 60.08 126.09 60.4853 126.783 61.296C127.487 62.1067 127.839 63.0613 127.839 64.16C127.839 65.3227 127.466 66.2987 126.719 67.088C125.983 67.8773 125.055 68.272 123.935 68.272C122.772 68.272 121.828 67.84 121.103 66.976H121.071V71.76H119.807ZM126.527 64.16C126.527 63.3493 126.276 62.6507 125.775 62.064C125.284 61.4773 124.596 61.184 123.711 61.184C122.932 61.184 122.276 61.4667 121.743 62.032C121.22 62.5867 120.959 63.312 120.959 64.208C120.959 65.0613 121.231 65.7653 121.775 66.32C122.33 66.8747 122.986 67.152 123.743 67.152C124.618 67.152 125.3 66.8533 125.791 66.256C126.282 65.6587 126.527 64.96 126.527 64.16ZM128.998 64.16C128.998 62.9867 129.387 62.016 130.166 61.248C130.955 60.4693 131.931 60.08 133.094 60.08C134.278 60.08 135.254 60.4693 136.022 61.248C136.801 62.0267 137.19 62.9973 137.19 64.16C137.19 65.3013 136.801 66.272 136.022 67.072C135.243 67.872 134.267 68.272 133.094 68.272C131.931 68.272 130.955 67.8773 130.166 67.088C129.387 66.2987 128.998 65.3227 128.998 64.16ZM130.31 64.16C130.31 65.0027 130.582 65.7067 131.126 66.272C131.681 66.8373 132.337 67.12 133.094 67.12C133.894 67.12 134.555 66.8373 135.078 66.272C135.611 65.7067 135.878 65.0027 135.878 64.16C135.878 63.328 135.617 62.6293 135.094 62.064C134.582 61.4987 133.915 61.216 133.094 61.216C132.283 61.216 131.617 61.4933 131.094 62.048C130.571 62.6027 130.31 63.3067 130.31 64.16ZM142.23 68V64.048L139.19 68H137.638L140.886 63.92L137.782 60.336H139.222L142.23 63.84V60.336H143.494V63.84L146.502 60.336H147.942L144.838 63.92L148.086 68H146.534L143.494 64.048V68H142.23ZM148.349 70.48V66.864H148.541C149.576 66.864 150.2 65.7227 150.413 63.44L150.701 60.336H156.013V66.864H157.197V70.48H155.933V68H149.613V70.48H148.349ZM154.749 66.864V61.472H151.805L151.645 63.312C151.56 64.272 151.437 65.0187 151.277 65.552C151.117 66.0853 150.888 66.5227 150.589 66.864H154.749ZM161.822 60.08C162.483 60.08 163.07 60.208 163.582 60.464C164.094 60.72 164.488 61.0507 164.766 61.456C165.054 61.8613 165.267 62.288 165.406 62.736C165.544 63.1733 165.614 63.616 165.614 64.064C165.614 64.2667 165.603 64.4213 165.582 64.528H159.326C159.326 65.2213 159.598 65.8347 160.142 66.368C160.686 66.8907 161.32 67.152 162.046 67.152C162.835 67.152 163.491 66.8427 164.014 66.224H165.47C165.171 66.7893 164.734 67.2747 164.158 67.68C163.592 68.0747 162.899 68.272 162.078 68.272C160.872 68.272 159.891 67.872 159.134 67.072C158.387 66.272 158.014 65.2693 158.014 64.064C158.014 62.9653 158.366 62.0267 159.07 61.248C159.774 60.4693 160.691 60.08 161.822 60.08ZM161.822 61.184C161.128 61.184 160.558 61.4133 160.11 61.872C159.662 62.32 159.406 62.8533 159.342 63.472H164.286C164.222 62.8427 163.96 62.304 163.502 61.856C163.054 61.408 162.494 61.184 161.822 61.184ZM174.028 60.336V68H172.764V64.528H168.556V68H167.292V60.336H168.556V63.472H172.764V60.336H174.028ZM176.229 68V60.336H177.493V63.808C177.493 64.7467 177.477 65.5307 177.445 66.16H177.477C177.637 65.8613 177.994 65.3547 178.549 64.64L181.829 60.336H182.965V68H181.701V64.528C181.701 63.5893 181.717 62.8053 181.749 62.176H181.717C181.557 62.4747 181.2 62.9813 180.645 63.696L177.365 68H176.229ZM188.749 64.848H187.869L185.725 68H184.365L186.605 64.752C186.061 64.624 185.634 64.3733 185.325 64C185.026 63.616 184.877 63.1467 184.877 62.592C184.877 61.9093 185.095 61.3653 185.533 60.96C185.97 60.544 186.578 60.336 187.357 60.336H190.013V68H188.749V64.848ZM187.421 63.792H188.749V61.392H187.421C186.994 61.392 186.674 61.5093 186.461 61.744C186.247 61.968 186.141 62.2453 186.141 62.576C186.141 63.3867 186.567 63.792 187.421 63.792Z" fill="white"/>
    <path d="M25.184 106V95.088H27.6C28.72 95.088 29.5947 95.3387 30.224 95.84C30.8533 96.3413 31.168 97.0187 31.168 97.872C31.168 98.992 30.576 99.7653 29.392 100.192V100.224C30.2133 100.309 30.8427 100.608 31.28 101.12C31.728 101.632 31.952 102.256 31.952 102.992C31.952 103.973 31.6107 104.72 30.928 105.232C30.256 105.744 29.3867 106 28.32 106H25.184ZM30.576 102.896C30.576 102.288 30.368 101.813 29.952 101.472C29.536 101.131 28.9493 100.96 28.192 100.96H26.512V104.784H28.416C29.1307 104.784 29.6693 104.613 30.032 104.272C30.3947 103.931 30.576 103.472 30.576 102.896ZM29.808 97.984C29.808 97.4187 29.6053 96.9973 29.2 96.72C28.7947 96.4427 28.2613 96.304 27.6 96.304H26.512V99.744H27.696C28.3467 99.744 28.8587 99.584 29.232 99.264C29.616 98.9333 29.808 98.5067 29.808 97.984ZM36.4486 102.528H35.0086V104.944H36.4486C36.886 104.944 37.2166 104.827 37.4406 104.592C37.6646 104.357 37.7766 104.069 37.7766 103.728C37.7766 102.928 37.334 102.528 36.4486 102.528ZM35.0086 101.472H36.4646C37.2753 101.472 37.9046 101.675 38.3526 102.08C38.8113 102.475 39.0406 103.019 39.0406 103.712C39.0406 104.405 38.8166 104.96 38.3686 105.376C37.9206 105.792 37.302 106 36.5126 106H33.7446V98.336H35.0086V101.472ZM40.4486 106V98.336H41.7126V106H40.4486ZM44.7485 102.16C44.7485 103.003 45.0205 103.707 45.5645 104.272C46.1192 104.837 46.7752 105.12 47.5325 105.12C48.3325 105.12 48.9938 104.837 49.5165 104.272C50.0498 103.707 50.3165 103.003 50.3165 102.16C50.3165 101.328 50.0658 100.629 49.5645 100.064C49.0632 99.4987 48.4018 99.216 47.5805 99.216C46.7698 99.216 46.0925 99.4933 45.5485 100.048C45.0152 100.603 44.7485 101.307 44.7485 102.16ZM48.1885 96.336C46.2045 96.688 45.0685 97.7333 44.7805 99.472H44.8285C45.1058 99.0773 45.5112 98.7467 46.0445 98.48C46.5778 98.2133 47.1165 98.08 47.6605 98.08C48.8338 98.08 49.7885 98.4693 50.5245 99.248C51.2605 100.016 51.6285 100.987 51.6285 102.16C51.6285 103.301 51.2392 104.272 50.4605 105.072C49.6818 105.872 48.7058 106.272 47.5325 106.272C46.3485 106.272 45.3778 105.861 44.6205 105.04C43.8632 104.219 43.4845 103.045 43.4845 101.52C43.4845 100.4 43.6018 99.44 43.8365 98.64C44.0818 97.8293 44.4285 97.1947 44.8765 96.736C45.3352 96.2667 45.8258 95.9093 46.3485 95.664C46.8712 95.4187 47.4845 95.2373 48.1885 95.12C48.9778 94.9813 49.6392 94.7307 50.1725 94.368L50.7165 95.44C49.9378 95.888 49.0952 96.1867 48.1885 96.336ZM52.7791 102.16C52.7791 100.987 53.1685 100.016 53.9471 99.248C54.7365 98.4693 55.7125 98.08 56.8751 98.08C58.0591 98.08 59.0351 98.4693 59.8031 99.248C60.5818 100.027 60.9711 100.997 60.9711 102.16C60.9711 103.301 60.5818 104.272 59.8031 105.072C59.0245 105.872 58.0485 106.272 56.8751 106.272C55.7125 106.272 54.7365 105.877 53.9471 105.088C53.1685 104.299 52.7791 103.323 52.7791 102.16ZM54.0911 102.16C54.0911 103.003 54.3631 103.707 54.9071 104.272C55.4618 104.837 56.1178 105.12 56.8751 105.12C57.6751 105.12 58.3365 104.837 58.8591 104.272C59.3925 103.707 59.6591 103.003 59.6591 102.16C59.6591 101.328 59.3978 100.629 58.8751 100.064C58.3631 99.4987 57.6965 99.216 56.8751 99.216C56.0645 99.216 55.3978 99.4933 54.8751 100.048C54.3525 100.603 54.0911 101.307 54.0911 102.16ZM62.6509 109.76V98.336H63.9149V99.424H63.9469C64.7042 98.528 65.6642 98.08 66.8269 98.08C68.0002 98.08 68.9335 98.4853 69.6269 99.296C70.3309 100.107 70.6829 101.061 70.6829 102.16C70.6829 103.323 70.3095 104.299 69.5629 105.088C68.8269 105.877 67.8989 106.272 66.7789 106.272C65.6162 106.272 64.6722 105.84 63.9469 104.976H63.9149V109.76H62.6509ZM69.3709 102.16C69.3709 101.349 69.1202 100.651 68.6189 100.064C68.1282 99.4773 67.4402 99.184 66.5549 99.184C65.7762 99.184 65.1202 99.4667 64.5869 100.032C64.0642 100.587 63.8029 101.312 63.8029 102.208C63.8029 103.061 64.0749 103.765 64.6189 104.32C65.1735 104.875 65.8295 105.152 66.5869 105.152C67.4615 105.152 68.1442 104.853 68.6349 104.256C69.1255 103.659 69.3709 102.96 69.3709 102.16ZM81.6656 98.336V99.472H77.6336V106H76.3696V98.336H81.6656ZM82.1698 102.16C82.1698 100.987 82.5591 100.016 83.3378 99.248C84.1271 98.4693 85.1031 98.08 86.2658 98.08C87.4498 98.08 88.4258 98.4693 89.1938 99.248C89.9724 100.027 90.3618 100.997 90.3618 102.16C90.3618 103.301 89.9724 104.272 89.1938 105.072C88.4151 105.872 87.4391 106.272 86.2658 106.272C85.1031 106.272 84.1271 105.877 83.3378 105.088C82.5591 104.299 82.1698 103.323 82.1698 102.16ZM83.4818 102.16C83.4818 103.003 83.7538 103.707 84.2978 104.272C84.8524 104.837 85.5084 105.12 86.2658 105.12C87.0658 105.12 87.7271 104.837 88.2498 104.272C88.7831 103.707 89.0498 103.003 89.0498 102.16C89.0498 101.328 88.7884 100.629 88.2658 100.064C87.7538 99.4987 87.0871 99.216 86.2658 99.216C85.4551 99.216 84.7884 99.4933 84.2658 100.048C83.7431 100.603 83.4818 101.307 83.4818 102.16ZM92.0415 109.76V98.336H93.3055V99.424H93.3375C94.0948 98.528 95.0548 98.08 96.2175 98.08C97.3908 98.08 98.3242 98.4853 99.0175 99.296C99.7215 100.107 100.074 101.061 100.074 102.16C100.074 103.323 99.7002 104.299 98.9535 105.088C98.2175 105.877 97.2895 106.272 96.1695 106.272C95.0068 106.272 94.0628 105.84 93.3375 104.976H93.3055V109.76H92.0415ZM98.7615 102.16C98.7615 101.349 98.5108 100.651 98.0095 100.064C97.5188 99.4773 96.8308 99.184 95.9455 99.184C95.1668 99.184 94.5108 99.4667 93.9775 100.032C93.4548 100.587 93.1935 101.312 93.1935 102.208C93.1935 103.061 93.4655 103.765 94.0095 104.32C94.5642 104.875 95.2202 105.152 95.9775 105.152C96.8522 105.152 97.5348 104.853 98.0255 104.256C98.5162 103.659 98.7615 102.96 98.7615 102.16ZM101.76 106V98.336H103.024V101.808C103.024 102.747 103.008 103.531 102.976 104.16H103.008C103.168 103.861 103.526 103.355 104.08 102.64L107.36 98.336H108.496V106H107.232V102.528C107.232 101.589 107.248 100.805 107.28 100.176H107.248C107.088 100.475 106.731 100.981 106.176 101.696L102.896 106H101.76ZM110.042 104.096H111.386C111.588 104.821 112.143 105.184 113.05 105.184C113.636 105.184 114.084 105.061 114.394 104.816C114.703 104.56 114.858 104.235 114.858 103.84C114.858 103.435 114.698 103.115 114.378 102.88C114.068 102.645 113.711 102.528 113.306 102.528H112.202V101.472H113.306C113.711 101.472 114.036 101.365 114.282 101.152C114.538 100.928 114.666 100.64 114.666 100.288C114.666 99.9787 114.532 99.7173 114.266 99.504C113.999 99.28 113.631 99.168 113.162 99.168C112.778 99.168 112.442 99.2587 112.154 99.44C111.876 99.6213 111.695 99.8667 111.61 100.176H110.298C110.426 99.5253 110.751 99.0133 111.274 98.64C111.796 98.2667 112.42 98.08 113.146 98.08C113.956 98.08 114.618 98.2773 115.13 98.672C115.652 99.056 115.914 99.5573 115.914 100.176C115.914 101.104 115.476 101.701 114.602 101.968C115.071 102.107 115.439 102.347 115.706 102.688C115.983 103.019 116.122 103.403 116.122 103.84C116.122 104.565 115.855 105.157 115.322 105.616C114.788 106.064 114.026 106.288 113.034 106.288C112.255 106.288 111.594 106.096 111.05 105.712C110.506 105.328 110.17 104.789 110.042 104.096ZM117.404 102.16C117.404 100.987 117.793 100.016 118.572 99.248C119.361 98.4693 120.337 98.08 121.5 98.08C122.684 98.08 123.66 98.4693 124.428 99.248C125.207 100.027 125.596 100.997 125.596 102.16C125.596 103.301 125.207 104.272 124.428 105.072C123.649 105.872 122.673 106.272 121.5 106.272C120.337 106.272 119.361 105.877 118.572 105.088C117.793 104.299 117.404 103.323 117.404 102.16ZM118.716 102.16C118.716 103.003 118.988 103.707 119.532 104.272C120.087 104.837 120.743 105.12 121.5 105.12C122.3 105.12 122.961 104.837 123.484 104.272C124.017 103.707 124.284 103.003 124.284 102.16C124.284 101.328 124.023 100.629 123.5 100.064C122.988 99.4987 122.321 99.216 121.5 99.216C120.689 99.216 120.023 99.4933 119.5 100.048C118.977 100.603 118.716 101.307 118.716 102.16ZM134.012 98.336V106H132.748V102.528H128.54V106H127.276V98.336H128.54V101.472H132.748V98.336H134.012ZM140.885 98.336V99.472H138.725V106H137.461V99.472H135.269V98.336H140.885ZM149.421 98.336V106H148.157V104.976H148.125C147.41 105.84 146.477 106.272 145.325 106.272C144.247 106.272 143.319 105.893 142.541 105.136C141.773 104.368 141.389 103.376 141.389 102.16C141.389 100.976 141.767 100 142.525 99.232C143.293 98.464 144.253 98.08 145.405 98.08C146.461 98.08 147.373 98.5333 148.141 99.44H148.157V98.336H149.421ZM143.437 100.08C142.946 100.667 142.701 101.36 142.701 102.16C142.701 102.96 142.946 103.659 143.437 104.256C143.927 104.853 144.615 105.152 145.501 105.152C146.247 105.152 146.893 104.875 147.437 104.32C147.991 103.755 148.269 103.051 148.269 102.208C148.269 101.312 148.002 100.587 147.469 100.032C146.946 99.4667 146.301 99.184 145.533 99.184C144.626 99.184 143.927 99.4827 143.437 100.08Z" fill="white"/>
    <path d="M25.184 144V133.088H27.6C28.72 133.088 29.5947 133.339 30.224 133.84C30.8533 134.341 31.168 135.019 31.168 135.872C31.168 136.992 30.576 137.765 29.392 138.192V138.224C30.2133 138.309 30.8427 138.608 31.28 139.12C31.728 139.632 31.952 140.256 31.952 140.992C31.952 141.973 31.6107 142.72 30.928 143.232C30.256 143.744 29.3867 144 28.32 144H25.184ZM30.576 140.896C30.576 140.288 30.368 139.813 29.952 139.472C29.536 139.131 28.9493 138.96 28.192 138.96H26.512V142.784H28.416C29.1307 142.784 29.6693 142.613 30.032 142.272C30.3947 141.931 30.576 141.472 30.576 140.896ZM29.808 135.984C29.808 135.419 29.6053 134.997 29.2 134.72C28.7947 134.443 28.2613 134.304 27.6 134.304H26.512V137.744H27.696C28.3467 137.744 28.8587 137.584 29.232 137.264C29.616 136.933 29.808 136.507 29.808 135.984ZM36.4486 140.528H35.0086V142.944H36.4486C36.886 142.944 37.2166 142.827 37.4406 142.592C37.6646 142.357 37.7766 142.069 37.7766 141.728C37.7766 140.928 37.334 140.528 36.4486 140.528ZM35.0086 139.472H36.4646C37.2753 139.472 37.9046 139.675 38.3526 140.08C38.8113 140.475 39.0406 141.019 39.0406 141.712C39.0406 142.405 38.8166 142.96 38.3686 143.376C37.9206 143.792 37.302 144 36.5126 144H33.7446V136.336H35.0086V139.472ZM40.4486 144V136.336H41.7126V144H40.4486ZM44.7485 140.16C44.7485 141.003 45.0205 141.707 45.5645 142.272C46.1192 142.837 46.7752 143.12 47.5325 143.12C48.3325 143.12 48.9938 142.837 49.5165 142.272C50.0498 141.707 50.3165 141.003 50.3165 140.16C50.3165 139.328 50.0658 138.629 49.5645 138.064C49.0632 137.499 48.4018 137.216 47.5805 137.216C46.7698 137.216 46.0925 137.493 45.5485 138.048C45.0152 138.603 44.7485 139.307 44.7485 140.16ZM48.1885 134.336C46.2045 134.688 45.0685 135.733 44.7805 137.472H44.8285C45.1058 137.077 45.5112 136.747 46.0445 136.48C46.5778 136.213 47.1165 136.08 47.6605 136.08C48.8338 136.08 49.7885 136.469 50.5245 137.248C51.2605 138.016 51.6285 138.987 51.6285 140.16C51.6285 141.301 51.2392 142.272 50.4605 143.072C49.6818 143.872 48.7058 144.272 47.5325 144.272C46.3485 144.272 45.3778 143.861 44.6205 143.04C43.8632 142.219 43.4845 141.045 43.4845 139.52C43.4845 138.4 43.6018 137.44 43.8365 136.64C44.0818 135.829 44.4285 135.195 44.8765 134.736C45.3352 134.267 45.8258 133.909 46.3485 133.664C46.8712 133.419 47.4845 133.237 48.1885 133.12C48.9778 132.981 49.6392 132.731 50.1725 132.368L50.7165 133.44C49.9378 133.888 49.0952 134.187 48.1885 134.336ZM52.7791 140.16C52.7791 138.987 53.1685 138.016 53.9471 137.248C54.7365 136.469 55.7125 136.08 56.8751 136.08C58.0591 136.08 59.0351 136.469 59.8031 137.248C60.5818 138.027 60.9711 138.997 60.9711 140.16C60.9711 141.301 60.5818 142.272 59.8031 143.072C59.0245 143.872 58.0485 144.272 56.8751 144.272C55.7125 144.272 54.7365 143.877 53.9471 143.088C53.1685 142.299 52.7791 141.323 52.7791 140.16ZM54.0911 140.16C54.0911 141.003 54.3631 141.707 54.9071 142.272C55.4618 142.837 56.1178 143.12 56.8751 143.12C57.6751 143.12 58.3365 142.837 58.8591 142.272C59.3925 141.707 59.6591 141.003 59.6591 140.16C59.6591 139.328 59.3978 138.629 58.8751 138.064C58.3631 137.499 57.6965 137.216 56.8751 137.216C56.0645 137.216 55.3978 137.493 54.8751 138.048C54.3525 138.603 54.0911 139.307 54.0911 140.16ZM62.6509 147.76V136.336H63.9149V137.424H63.9469C64.7042 136.528 65.6642 136.08 66.8269 136.08C68.0002 136.08 68.9335 136.485 69.6269 137.296C70.3309 138.107 70.6829 139.061 70.6829 140.16C70.6829 141.323 70.3095 142.299 69.5629 143.088C68.8269 143.877 67.8989 144.272 66.7789 144.272C65.6162 144.272 64.6722 143.84 63.9469 142.976H63.9149V147.76H62.6509ZM69.3709 140.16C69.3709 139.349 69.1202 138.651 68.6189 138.064C68.1282 137.477 67.4402 137.184 66.5549 137.184C65.7762 137.184 65.1202 137.467 64.5869 138.032C64.0642 138.587 63.8029 139.312 63.8029 140.208C63.8029 141.061 64.0749 141.765 64.6189 142.32C65.1735 142.875 65.8295 143.152 66.5869 143.152C67.4615 143.152 68.1442 142.853 68.6349 142.256C69.1255 141.659 69.3709 140.96 69.3709 140.16ZM76.3696 144V136.336H77.6336V139.84L81.2016 136.336H82.7536L79.1056 139.92L82.8656 144H81.2336L77.6336 140.048V144H76.3696ZM91.5611 136.336V144H90.2971V142.976H90.2651C89.5505 143.84 88.6171 144.272 87.4651 144.272C86.3878 144.272 85.4598 143.893 84.6811 143.136C83.9131 142.368 83.5291 141.376 83.5291 140.16C83.5291 138.976 83.9078 138 84.6651 137.232C85.4331 136.464 86.3931 136.08 87.5451 136.08C88.6011 136.08 89.5131 136.533 90.2811 137.44H90.2971V136.336H91.5611ZM85.5771 138.08C85.0865 138.667 84.8411 139.36 84.8411 140.16C84.8411 140.96 85.0865 141.659 85.5771 142.256C86.0678 142.853 86.7558 143.152 87.6411 143.152C88.3878 143.152 89.0331 142.875 89.5771 142.32C90.1318 141.755 90.4091 141.051 90.4091 140.208C90.4091 139.312 90.1425 138.587 89.6091 138.032C89.0865 137.467 88.4411 137.184 87.6731 137.184C86.7665 137.184 86.0678 137.483 85.5771 138.08ZM93.7759 147.76V136.336H95.0399V137.424H95.0719C95.8292 136.528 96.7892 136.08 97.9519 136.08C99.1252 136.08 100.059 136.485 100.752 137.296C101.456 138.107 101.808 139.061 101.808 140.16C101.808 141.323 101.435 142.299 100.688 143.088C99.9519 143.877 99.0239 144.272 97.9039 144.272C96.7412 144.272 95.7972 143.84 95.0719 142.976H95.0399V147.76H93.7759ZM100.496 140.16C100.496 139.349 100.245 138.651 99.7439 138.064C99.2532 137.477 98.5652 137.184 97.6799 137.184C96.9012 137.184 96.2452 137.467 95.7119 138.032C95.1892 138.587 94.9279 139.312 94.9279 140.208C94.9279 141.061 95.1999 141.765 95.7439 142.32C96.2985 142.875 96.9545 143.152 97.7119 143.152C98.5865 143.152 99.2692 142.853 99.7599 142.256C100.251 141.659 100.496 140.96 100.496 140.16ZM107.932 136.336V137.472H105.772V144H104.508V137.472H102.316V136.336H107.932ZM111.902 140.528H110.462V142.944H111.902C112.339 142.944 112.67 142.827 112.894 142.592C113.118 142.357 113.23 142.069 113.23 141.728C113.23 140.928 112.787 140.528 111.902 140.528ZM110.462 139.472H111.918C112.728 139.472 113.358 139.675 113.806 140.08C114.264 140.475 114.494 141.019 114.494 141.712C114.494 142.405 114.27 142.96 113.822 143.376C113.374 143.792 112.755 144 111.966 144H109.198V136.336H110.462V139.472ZM115.902 144V136.336H117.166V144H115.902Z" fill="white"/>
    <path d="M25.184 182V171.088H27.6C28.72 171.088 29.5947 171.339 30.224 171.84C30.8533 172.341 31.168 173.019 31.168 173.872C31.168 174.992 30.576 175.765 29.392 176.192V176.224C30.2133 176.309 30.8427 176.608 31.28 177.12C31.728 177.632 31.952 178.256 31.952 178.992C31.952 179.973 31.6107 180.72 30.928 181.232C30.256 181.744 29.3867 182 28.32 182H25.184ZM30.576 178.896C30.576 178.288 30.368 177.813 29.952 177.472C29.536 177.131 28.9493 176.96 28.192 176.96H26.512V180.784H28.416C29.1307 180.784 29.6693 180.613 30.032 180.272C30.3947 179.931 30.576 179.472 30.576 178.896ZM29.808 173.984C29.808 173.419 29.6053 172.997 29.2 172.72C28.7947 172.443 28.2613 172.304 27.6 172.304H26.512V175.744H27.696C28.3467 175.744 28.8587 175.584 29.232 175.264C29.616 174.933 29.808 174.507 29.808 173.984ZM36.4486 178.528H35.0086V180.944H36.4486C36.886 180.944 37.2166 180.827 37.4406 180.592C37.6646 180.357 37.7766 180.069 37.7766 179.728C37.7766 178.928 37.334 178.528 36.4486 178.528ZM35.0086 177.472H36.4646C37.2753 177.472 37.9046 177.675 38.3526 178.08C38.8113 178.475 39.0406 179.019 39.0406 179.712C39.0406 180.405 38.8166 180.96 38.3686 181.376C37.9206 181.792 37.302 182 36.5126 182H33.7446V174.336H35.0086V177.472ZM40.4486 182V174.336H41.7126V182H40.4486ZM44.7485 178.16C44.7485 179.003 45.0205 179.707 45.5645 180.272C46.1192 180.837 46.7752 181.12 47.5325 181.12C48.3325 181.12 48.9938 180.837 49.5165 180.272C50.0498 179.707 50.3165 179.003 50.3165 178.16C50.3165 177.328 50.0658 176.629 49.5645 176.064C49.0632 175.499 48.4018 175.216 47.5805 175.216C46.7698 175.216 46.0925 175.493 45.5485 176.048C45.0152 176.603 44.7485 177.307 44.7485 178.16ZM48.1885 172.336C46.2045 172.688 45.0685 173.733 44.7805 175.472H44.8285C45.1058 175.077 45.5112 174.747 46.0445 174.48C46.5778 174.213 47.1165 174.08 47.6605 174.08C48.8338 174.08 49.7885 174.469 50.5245 175.248C51.2605 176.016 51.6285 176.987 51.6285 178.16C51.6285 179.301 51.2392 180.272 50.4605 181.072C49.6818 181.872 48.7058 182.272 47.5325 182.272C46.3485 182.272 45.3778 181.861 44.6205 181.04C43.8632 180.219 43.4845 179.045 43.4845 177.52C43.4845 176.4 43.6018 175.44 43.8365 174.64C44.0818 173.829 44.4285 173.195 44.8765 172.736C45.3352 172.267 45.8258 171.909 46.3485 171.664C46.8712 171.419 47.4845 171.237 48.1885 171.12C48.9778 170.981 49.6392 170.731 50.1725 170.368L50.7165 171.44C49.9378 171.888 49.0952 172.187 48.1885 172.336ZM52.7791 178.16C52.7791 176.987 53.1685 176.016 53.9471 175.248C54.7365 174.469 55.7125 174.08 56.8751 174.08C58.0591 174.08 59.0351 174.469 59.8031 175.248C60.5818 176.027 60.9711 176.997 60.9711 178.16C60.9711 179.301 60.5818 180.272 59.8031 181.072C59.0245 181.872 58.0485 182.272 56.8751 182.272C55.7125 182.272 54.7365 181.877 53.9471 181.088C53.1685 180.299 52.7791 179.323 52.7791 178.16ZM54.0911 178.16C54.0911 179.003 54.3631 179.707 54.9071 180.272C55.4618 180.837 56.1178 181.12 56.8751 181.12C57.6751 181.12 58.3365 180.837 58.8591 180.272C59.3925 179.707 59.6591 179.003 59.6591 178.16C59.6591 177.328 59.3978 176.629 58.8751 176.064C58.3631 175.499 57.6965 175.216 56.8751 175.216C56.0645 175.216 55.3978 175.493 54.8751 176.048C54.3525 176.603 54.0911 177.307 54.0911 178.16ZM62.6509 185.76V174.336H63.9149V175.424H63.9469C64.7042 174.528 65.6642 174.08 66.8269 174.08C68.0002 174.08 68.9335 174.485 69.6269 175.296C70.3309 176.107 70.6829 177.061 70.6829 178.16C70.6829 179.323 70.3095 180.299 69.5629 181.088C68.8269 181.877 67.8989 182.272 66.7789 182.272C65.6162 182.272 64.6722 181.84 63.9469 180.976H63.9149V185.76H62.6509ZM69.3709 178.16C69.3709 177.349 69.1202 176.651 68.6189 176.064C68.1282 175.477 67.4402 175.184 66.5549 175.184C65.7762 175.184 65.1202 175.467 64.5869 176.032C64.0642 176.587 63.8029 177.312 63.8029 178.208C63.8029 179.061 64.0749 179.765 64.6189 180.32C65.1735 180.875 65.8295 181.152 66.5869 181.152C67.4615 181.152 68.1442 180.853 68.6349 180.256C69.1255 179.659 69.3709 178.96 69.3709 178.16ZM79.8736 174.08C80.855 174.08 81.6336 174.315 82.2096 174.784C82.7963 175.243 83.1696 175.749 83.3296 176.304H81.9216C81.5696 175.557 80.887 175.184 79.8736 175.184C79.1056 175.184 78.4603 175.445 77.9376 175.968C77.415 176.48 77.1536 177.211 77.1536 178.16C77.1536 179.024 77.415 179.739 77.9376 180.304C78.471 180.869 79.143 181.152 79.9536 181.152C80.935 181.152 81.6283 180.731 82.0336 179.888H83.4416C83.207 180.56 82.8016 181.125 82.2256 181.584C81.6496 182.043 80.887 182.272 79.9376 182.272C78.743 182.272 77.7616 181.888 76.9936 181.12C76.2256 180.341 75.8416 179.349 75.8416 178.144C75.8416 176.992 76.2096 176.027 76.9456 175.248C77.6923 174.469 78.6683 174.08 79.8736 174.08ZM85.0571 182V174.336H86.3211V177.84L89.8891 174.336H91.4411L87.7931 177.92L91.5531 182H89.9211L86.3211 178.048V182H85.0571ZM92.7446 182V174.336H95.6406C96.43 174.336 97.0486 174.507 97.4966 174.848C97.9446 175.179 98.1686 175.653 98.1686 176.272C98.1686 176.613 98.0673 176.928 97.8646 177.216C97.6726 177.493 97.3686 177.696 96.9526 177.824C97.582 177.941 98.0406 178.171 98.3286 178.512C98.6273 178.853 98.7766 179.253 98.7766 179.712C98.7766 180.405 98.526 180.96 98.0246 181.376C97.534 181.792 96.8513 182 95.9766 182H92.7446ZM95.8646 178.528H93.9606V180.944H96.0566C96.5366 180.944 96.8993 180.827 97.1446 180.592C97.39 180.357 97.5126 180.069 97.5126 179.728C97.5126 178.928 96.9633 178.528 95.8646 178.528ZM95.5606 175.392H93.9606V177.472H95.3846C96.4086 177.472 96.9206 177.115 96.9206 176.4C96.9206 175.728 96.4673 175.392 95.5606 175.392ZM108.061 174.336V182H106.797V180.976H106.765C106.05 181.84 105.117 182.272 103.965 182.272C102.888 182.272 101.96 181.893 101.181 181.136C100.413 180.368 100.029 179.376 100.029 178.16C100.029 176.976 100.408 176 101.165 175.232C101.933 174.464 102.893 174.08 104.045 174.08C105.101 174.08 106.013 174.533 106.781 175.44H106.797V174.336H108.061ZM102.077 176.08C101.586 176.667 101.341 177.36 101.341 178.16C101.341 178.96 101.586 179.659 102.077 180.256C102.568 180.853 103.256 181.152 104.141 181.152C104.888 181.152 105.533 180.875 106.077 180.32C106.632 179.755 106.909 179.051 106.909 178.208C106.909 177.312 106.642 176.587 106.109 176.032C105.586 175.467 104.941 175.184 104.173 175.184C103.266 175.184 102.568 175.483 102.077 176.08ZM113.636 182V178.048L110.596 182H109.044L112.292 177.92L109.188 174.336H110.628L113.636 177.84V174.336H114.9V177.84L117.908 174.336H119.348L116.244 177.92L119.492 182H117.94L114.9 178.048V182H113.636ZM120.463 182V174.336H121.727V177.808C121.727 178.747 121.711 179.531 121.679 180.16H121.711C121.871 179.861 122.229 179.355 122.783 178.64L126.063 174.336H127.199V182H125.935V178.528C125.935 177.589 125.951 176.805 125.983 176.176H125.951C125.791 176.475 125.434 176.981 124.879 177.696L121.599 182H120.463ZM136.137 174.336V182H134.873V178.528H130.665V182H129.401V174.336H130.665V177.472H134.873V174.336H136.137Z" fill="white"/>
    <path d="M25.184 220V209.088H27.6C28.72 209.088 29.5947 209.339 30.224 209.84C30.8533 210.341 31.168 211.019 31.168 211.872C31.168 212.992 30.576 213.765 29.392 214.192V214.224C30.2133 214.309 30.8427 214.608 31.28 215.12C31.728 215.632 31.952 216.256 31.952 216.992C31.952 217.973 31.6107 218.72 30.928 219.232C30.256 219.744 29.3867 220 28.32 220H25.184ZM30.576 216.896C30.576 216.288 30.368 215.813 29.952 215.472C29.536 215.131 28.9493 214.96 28.192 214.96H26.512V218.784H28.416C29.1307 218.784 29.6693 218.613 30.032 218.272C30.3947 217.931 30.576 217.472 30.576 216.896ZM29.808 211.984C29.808 211.419 29.6053 210.997 29.2 210.72C28.7947 210.443 28.2613 210.304 27.6 210.304H26.512V213.744H27.696C28.3467 213.744 28.8587 213.584 29.232 213.264C29.616 212.933 29.808 212.507 29.808 211.984ZM36.4486 216.528H35.0086V218.944H36.4486C36.886 218.944 37.2166 218.827 37.4406 218.592C37.6646 218.357 37.7766 218.069 37.7766 217.728C37.7766 216.928 37.334 216.528 36.4486 216.528ZM35.0086 215.472H36.4646C37.2753 215.472 37.9046 215.675 38.3526 216.08C38.8113 216.475 39.0406 217.019 39.0406 217.712C39.0406 218.405 38.8166 218.96 38.3686 219.376C37.9206 219.792 37.302 220 36.5126 220H33.7446V212.336H35.0086V215.472ZM40.4486 220V212.336H41.7126V220H40.4486ZM44.7485 216.16C44.7485 217.003 45.0205 217.707 45.5645 218.272C46.1192 218.837 46.7752 219.12 47.5325 219.12C48.3325 219.12 48.9938 218.837 49.5165 218.272C50.0498 217.707 50.3165 217.003 50.3165 216.16C50.3165 215.328 50.0658 214.629 49.5645 214.064C49.0632 213.499 48.4018 213.216 47.5805 213.216C46.7698 213.216 46.0925 213.493 45.5485 214.048C45.0152 214.603 44.7485 215.307 44.7485 216.16ZM48.1885 210.336C46.2045 210.688 45.0685 211.733 44.7805 213.472H44.8285C45.1058 213.077 45.5112 212.747 46.0445 212.48C46.5778 212.213 47.1165 212.08 47.6605 212.08C48.8338 212.08 49.7885 212.469 50.5245 213.248C51.2605 214.016 51.6285 214.987 51.6285 216.16C51.6285 217.301 51.2392 218.272 50.4605 219.072C49.6818 219.872 48.7058 220.272 47.5325 220.272C46.3485 220.272 45.3778 219.861 44.6205 219.04C43.8632 218.219 43.4845 217.045 43.4845 215.52C43.4845 214.4 43.6018 213.44 43.8365 212.64C44.0818 211.829 44.4285 211.195 44.8765 210.736C45.3352 210.267 45.8258 209.909 46.3485 209.664C46.8712 209.419 47.4845 209.237 48.1885 209.12C48.9778 208.981 49.6392 208.731 50.1725 208.368L50.7165 209.44C49.9378 209.888 49.0952 210.187 48.1885 210.336ZM52.7791 216.16C52.7791 214.987 53.1685 214.016 53.9471 213.248C54.7365 212.469 55.7125 212.08 56.8751 212.08C58.0591 212.08 59.0351 212.469 59.8031 213.248C60.5818 214.027 60.9711 214.997 60.9711 216.16C60.9711 217.301 60.5818 218.272 59.8031 219.072C59.0245 219.872 58.0485 220.272 56.8751 220.272C55.7125 220.272 54.7365 219.877 53.9471 219.088C53.1685 218.299 52.7791 217.323 52.7791 216.16ZM54.0911 216.16C54.0911 217.003 54.3631 217.707 54.9071 218.272C55.4618 218.837 56.1178 219.12 56.8751 219.12C57.6751 219.12 58.3365 218.837 58.8591 218.272C59.3925 217.707 59.6591 217.003 59.6591 216.16C59.6591 215.328 59.3978 214.629 58.8751 214.064C58.3631 213.499 57.6965 213.216 56.8751 213.216C56.0645 213.216 55.3978 213.493 54.8751 214.048C54.3525 214.603 54.0911 215.307 54.0911 216.16ZM62.6509 223.76V212.336H63.9149V213.424H63.9469C64.7042 212.528 65.6642 212.08 66.8269 212.08C68.0002 212.08 68.9335 212.485 69.6269 213.296C70.3309 214.107 70.6829 215.061 70.6829 216.16C70.6829 217.323 70.3095 218.299 69.5629 219.088C68.8269 219.877 67.8989 220.272 66.7789 220.272C65.6162 220.272 64.6722 219.84 63.9469 218.976H63.9149V223.76H62.6509ZM69.3709 216.16C69.3709 215.349 69.1202 214.651 68.6189 214.064C68.1282 213.477 67.4402 213.184 66.5549 213.184C65.7762 213.184 65.1202 213.467 64.5869 214.032C64.0642 214.587 63.8029 215.312 63.8029 216.208C63.8029 217.061 64.0749 217.765 64.6189 218.32C65.1735 218.875 65.8295 219.152 66.5869 219.152C67.4615 219.152 68.1442 218.853 68.6349 218.256C69.1255 217.659 69.3709 216.96 69.3709 216.16ZM75.8416 216.16C75.8416 214.987 76.231 214.016 77.0096 213.248C77.799 212.469 78.775 212.08 79.9376 212.08C81.1216 212.08 82.0976 212.469 82.8656 213.248C83.6443 214.027 84.0336 214.997 84.0336 216.16C84.0336 217.301 83.6443 218.272 82.8656 219.072C82.087 219.872 81.111 220.272 79.9376 220.272C78.775 220.272 77.799 219.877 77.0096 219.088C76.231 218.299 75.8416 217.323 75.8416 216.16ZM77.1536 216.16C77.1536 217.003 77.4256 217.707 77.9696 218.272C78.5243 218.837 79.1803 219.12 79.9376 219.12C80.7376 219.12 81.399 218.837 81.9216 218.272C82.455 217.707 82.7216 217.003 82.7216 216.16C82.7216 215.328 82.4603 214.629 81.9376 214.064C81.4256 213.499 80.759 213.216 79.9376 213.216C79.127 213.216 78.4603 213.493 77.9376 214.048C77.415 214.603 77.1536 215.307 77.1536 216.16ZM90.151 212.336V213.472H87.991V220H86.727V213.472H84.535V212.336H90.151ZM92.2485 216.16C92.2485 217.003 92.5205 217.707 93.0645 218.272C93.6192 218.837 94.2752 219.12 95.0325 219.12C95.8325 219.12 96.4938 218.837 97.0165 218.272C97.5498 217.707 97.8165 217.003 97.8165 216.16C97.8165 215.328 97.5658 214.629 97.0645 214.064C96.5632 213.499 95.9018 213.216 95.0805 213.216C94.2698 213.216 93.5925 213.493 93.0485 214.048C92.5152 214.603 92.2485 215.307 92.2485 216.16ZM95.6885 210.336C93.7045 210.688 92.5685 211.733 92.2805 213.472H92.3285C92.6058 213.077 93.0112 212.747 93.5445 212.48C94.0778 212.213 94.6165 212.08 95.1605 212.08C96.3338 212.08 97.2885 212.469 98.0245 213.248C98.7605 214.016 99.1285 214.987 99.1285 216.16C99.1285 217.301 98.7392 218.272 97.9605 219.072C97.1818 219.872 96.2058 220.272 95.0325 220.272C93.8485 220.272 92.8778 219.861 92.1205 219.04C91.3632 218.219 90.9845 217.045 90.9845 215.52C90.9845 214.4 91.1018 213.44 91.3365 212.64C91.5818 211.829 91.9285 211.195 92.3765 210.736C92.8352 210.267 93.3258 209.909 93.8485 209.664C94.3712 209.419 94.9845 209.237 95.6885 209.12C96.4778 208.981 97.1392 208.731 97.6725 208.368L98.2165 209.44C97.4378 209.888 96.5952 210.187 95.6885 210.336ZM100.807 220V212.336H102.071V215.808C102.071 216.747 102.055 217.531 102.023 218.16H102.055C102.215 217.861 102.572 217.355 103.127 216.64L106.407 212.336H107.543V220H106.279V216.528C106.279 215.589 106.295 214.805 106.327 214.176H106.295C106.135 214.475 105.778 214.981 105.223 215.696L101.943 220H100.807ZM109.745 220V212.336H112.641C113.43 212.336 114.049 212.507 114.497 212.848C114.945 213.179 115.169 213.653 115.169 214.272C115.169 214.613 115.067 214.928 114.865 215.216C114.673 215.493 114.369 215.696 113.953 215.824C114.582 215.941 115.041 216.171 115.329 216.512C115.627 216.853 115.777 217.253 115.777 217.712C115.777 218.405 115.526 218.96 115.025 219.376C114.534 219.792 113.851 220 112.977 220H109.745ZM112.865 216.528H110.961V218.944H113.057C113.537 218.944 113.899 218.827 114.145 218.592C114.39 218.357 114.513 218.069 114.513 217.728C114.513 216.928 113.963 216.528 112.865 216.528ZM112.561 213.392H110.961V215.472H112.385C113.409 215.472 113.921 215.115 113.921 214.4C113.921 213.728 113.467 213.392 112.561 213.392ZM117.029 216.16C117.029 214.987 117.418 214.016 118.197 213.248C118.986 212.469 119.962 212.08 121.125 212.08C122.309 212.08 123.285 212.469 124.053 213.248C124.832 214.027 125.221 214.997 125.221 216.16C125.221 217.301 124.832 218.272 124.053 219.072C123.274 219.872 122.298 220.272 121.125 220.272C119.962 220.272 118.986 219.877 118.197 219.088C117.418 218.299 117.029 217.323 117.029 216.16ZM118.341 216.16C118.341 217.003 118.613 217.707 119.157 218.272C119.712 218.837 120.368 219.12 121.125 219.12C121.925 219.12 122.586 218.837 123.109 218.272C123.642 217.707 123.909 217.003 123.909 216.16C123.909 215.328 123.648 214.629 123.125 214.064C122.613 213.499 121.946 213.216 121.125 213.216C120.314 213.216 119.648 213.493 119.125 214.048C118.602 214.603 118.341 215.307 118.341 216.16ZM126.901 220V212.336H128.165V215.84L131.733 212.336H133.285L129.637 215.92L133.397 220H131.765L128.165 216.048V220H126.901Z" fill="white"/>
</svg>
