<svg width="100%" viewBox="0 0 348 201" fill="none" xmlns="http://www.w3.org/2000/svg">
    <path fill-rule="evenodd" clip-rule="evenodd" d="M0.75 0.489075H348.001V164.225H0.75V0.489075Z"
          fill="#363B68" />
    <path fill-rule="evenodd" clip-rule="evenodd" d="M0.871094 1.48016H348.001V34.2271H0.871094V1.48016Z"
          fill="#454D7D" />
    <path fill-rule="evenodd" clip-rule="evenodd" d="M0.972656 66.9723H348.001V99.7192H0.972656V66.9723Z"
          fill="#454D7D" />
    <path fill-rule="evenodd" clip-rule="evenodd" d="M0.972656 132.464H348.001V200.522H0.972656V132.464Z"
          fill="#454D7D" />
    <path fill-rule="evenodd" clip-rule="evenodd" d="M189 1H190V201H189V1Z" fill="#20274F" />
    <path
            d="M14.32 26.8V22.016H14.736C15.7493 22.016 16.3147 21.12 16.432 19.328L16.896 13.088H24.656V22.016H26.192V26.8H23.904V24H16.608V26.8H14.32ZM22.368 22.016V15.072H18.976L18.672 19.328C18.576 20.608 18.2933 21.504 17.824 22.016H22.368ZM27.1039 20.912H29.4239C29.4665 21.36 29.6265 21.728 29.9039 22.016C30.1919 22.304 30.5705 22.448 31.0399 22.448C31.5199 22.448 31.9039 22.2987 32.1919 22C32.4905 21.6907 32.6399 21.2747 32.6399 20.752C32.6399 20.2507 32.4799 19.8453 32.1599 19.536C31.8399 19.216 31.3919 19.056 30.8159 19.056H29.9039V17.264H30.7999C31.2585 17.264 31.6212 17.136 31.8879 16.88C32.1545 16.624 32.2879 16.2827 32.2879 15.856C32.2879 15.5147 32.1652 15.2267 31.9199 14.992C31.6852 14.7467 31.3812 14.624 31.0079 14.624C30.6132 14.624 30.3092 14.7467 30.0959 14.992C29.8932 15.2267 29.7812 15.5253 29.7599 15.888H27.4399C27.5145 14.9173 27.8772 14.1493 28.5279 13.584C29.1892 13.0187 30.0159 12.736 31.0079 12.736C32.1279 12.736 33.0025 13.008 33.6319 13.552C34.2612 14.096 34.5759 14.8107 34.5759 15.696C34.5759 16.2187 34.4212 16.688 34.1119 17.104C33.8025 17.5093 33.4079 17.808 32.9279 18V18.048C33.5465 18.2293 34.0372 18.5707 34.3999 19.072C34.7625 19.5733 34.9439 20.1653 34.9439 20.848C34.9439 21.872 34.5812 22.7093 33.8559 23.36C33.1412 24.0107 32.1972 24.336 31.0239 24.336C29.8399 24.336 28.9012 24.016 28.2079 23.376C27.5252 22.736 27.1572 21.9147 27.1039 20.912ZM39.4185 15.872C38.7572 16.5867 38.4265 17.4773 38.4265 18.544C38.4265 19.6107 38.7518 20.5067 39.4025 21.232C40.0638 21.9467 40.8852 22.304 41.8665 22.304C42.8478 22.304 43.6692 21.9467 44.3305 21.232C44.9918 20.5067 45.3225 19.6107 45.3225 18.544C45.3225 17.4773 45.0025 16.5867 44.3625 15.872C43.7332 15.1467 42.9065 14.784 41.8825 14.784C40.9012 14.784 40.0798 15.1467 39.4185 15.872ZM36.0905 18.544C36.0905 16.9653 36.6452 15.6053 37.7545 14.464C38.8638 13.312 40.2452 12.736 41.8985 12.736C43.0612 12.736 44.0852 13.0133 44.9705 13.568C45.8665 14.112 46.5385 14.8213 46.9865 15.696C47.4345 16.5707 47.6585 17.52 47.6585 18.544C47.6585 20.1547 47.1038 21.5253 45.9945 22.656C44.8958 23.7867 43.5252 24.352 41.8825 24.352C41.1145 24.352 40.4052 24.2347 39.7545 24C39.1038 23.776 38.5545 23.472 38.1065 23.088C37.6692 22.704 37.2958 22.2613 36.9865 21.76C36.6772 21.248 36.4478 20.7253 36.2985 20.192C36.1598 19.648 36.0905 19.0987 36.0905 18.544Z"
            fill="white" />
    <path
            d="M25.264 45.088L26.608 56H24.4L23.872 50.64C23.7867 49.8293 23.712 49.0293 23.648 48.24H23.552C23.552 48.2507 23.4613 48.5813 23.28 49.232C23.1093 49.8827 22.9813 50.3573 22.896 50.656L21.312 56H19.712L18.096 50.576C17.776 49.5307 17.568 48.752 17.472 48.24H17.344C17.3227 48.72 17.264 49.488 17.168 50.544L16.608 56H14.544L15.84 45.088H18.368L19.968 50.24C20.224 51.0613 20.416 51.728 20.544 52.24H20.608C20.704 51.8667 20.896 51.2 21.184 50.24L22.752 45.088H25.264ZM31.5723 48.08C32.7883 48.08 33.7429 48.4693 34.4363 49.248C35.1296 50.0267 35.4763 50.9813 35.4763 52.112C35.4763 52.3573 35.4656 52.5493 35.4443 52.688H29.7483C29.7483 53.2213 29.9403 53.6853 30.3243 54.08C30.7189 54.464 31.1883 54.656 31.7323 54.656C32.3936 54.656 32.9056 54.3893 33.2683 53.856H35.3643C35.0869 54.5707 34.6443 55.152 34.0363 55.6C33.4389 56.048 32.6656 56.272 31.7163 56.272C30.5536 56.272 29.5829 55.888 28.8043 55.12C28.0256 54.3413 27.6363 53.3387 27.6363 52.112C27.6363 50.9707 27.9883 50.016 28.6923 49.248C29.4069 48.4693 30.3669 48.08 31.5723 48.08ZM31.5563 49.584C31.0549 49.584 30.6389 49.744 30.3083 50.064C29.9883 50.384 29.8069 50.768 29.7643 51.216H33.3483C33.2949 50.7573 33.1029 50.3733 32.7723 50.064C32.4523 49.744 32.0469 49.584 31.5563 49.584ZM40.56 48.08C41.5733 48.08 42.3947 48.3627 43.024 48.928C43.6533 49.4933 44.0373 50.144 44.176 50.88H42.032C41.8187 50.2293 41.3227 49.904 40.544 49.904C39.968 49.904 39.5093 50.112 39.168 50.528C38.8373 50.9333 38.672 51.4773 38.672 52.16C38.672 52.8107 38.8427 53.3547 39.184 53.792C39.536 54.2187 40.0107 54.432 40.608 54.432C41.3547 54.432 41.8613 54.08 42.128 53.376H44.32C44.0853 54.2293 43.6533 54.928 43.024 55.472C42.4053 56.0053 41.5893 56.272 40.576 56.272C39.4133 56.272 38.4373 55.8933 37.648 55.136C36.8693 54.368 36.48 53.3707 36.48 52.144C36.48 50.992 36.8533 50.0267 37.6 49.248C38.3467 48.4693 39.3333 48.08 40.56 48.08ZM51.1493 48.336V50.176H49.1493V56H46.9893V50.176H44.9573V48.336H51.1493ZM51.8238 52.16C51.8238 50.976 52.2131 50 52.9918 49.232C53.7704 48.464 54.7464 48.08 55.9198 48.08C57.1144 48.08 58.0958 48.4693 58.8638 49.248C59.6318 50.016 60.0158 50.9867 60.0158 52.16C60.0158 53.3013 59.6264 54.272 58.8478 55.072C58.0798 55.872 57.1038 56.272 55.9198 56.272C54.7464 56.272 53.7704 55.8773 52.9918 55.088C52.2131 54.2987 51.8238 53.3227 51.8238 52.16ZM53.9998 52.176C53.9998 52.8053 54.1811 53.328 54.5438 53.744C54.9171 54.1493 55.3758 54.352 55.9198 54.352C56.4958 54.352 56.9544 54.1493 57.2958 53.744C57.6478 53.328 57.8238 52.8053 57.8238 52.176C57.8238 51.5573 57.6531 51.04 57.3118 50.624C56.9704 50.208 56.5064 50 55.9198 50C55.3331 50 54.8638 50.2027 54.5118 50.608C54.1704 51.0133 53.9998 51.536 53.9998 52.176ZM61.4924 59.76V48.336H63.5724V49.248H63.6364C64.255 48.5013 65.0764 48.128 66.1004 48.128C67.007 48.128 67.8177 48.4907 68.5324 49.216C69.2577 49.9413 69.6204 50.9387 69.6204 52.208C69.6204 53.4027 69.263 54.3787 68.5484 55.136C67.8337 55.8827 66.975 56.256 65.9724 56.256C65.0017 56.256 64.2337 55.888 63.6684 55.152H63.6044V59.76H61.4924ZM67.4284 52.208C67.4284 51.5893 67.2577 51.0667 66.9164 50.64C66.575 50.2133 66.0844 50 65.4444 50C64.911 50 64.4577 50.208 64.0844 50.624C63.7217 51.0293 63.5404 51.5573 63.5404 52.208C63.5404 52.848 63.727 53.376 64.1004 53.792C64.4737 54.208 64.927 54.416 65.4604 54.416C66.079 54.416 66.559 54.1973 66.9004 53.76C67.2524 53.312 67.4284 52.7947 67.4284 52.208ZM70.5894 52.16C70.5894 50.976 70.9787 50 71.7574 49.232C72.536 48.464 73.512 48.08 74.6854 48.08C75.88 48.08 76.8614 48.4693 77.6294 49.248C78.3974 50.016 78.7814 50.9867 78.7814 52.16C78.7814 53.3013 78.392 54.272 77.6134 55.072C76.8454 55.872 75.8694 56.272 74.6854 56.272C73.512 56.272 72.536 55.8773 71.7574 55.088C70.9787 54.2987 70.5894 53.3227 70.5894 52.16ZM72.7654 52.176C72.7654 52.8053 72.9467 53.328 73.3094 53.744C73.6827 54.1493 74.1414 54.352 74.6854 54.352C75.2614 54.352 75.72 54.1493 76.0614 53.744C76.4134 53.328 76.5894 52.8053 76.5894 52.176C76.5894 51.5573 76.4187 51.04 76.0774 50.624C75.736 50.208 75.272 50 74.6854 50C74.0987 50 73.6294 50.2027 73.2774 50.608C72.936 51.0133 72.7654 51.536 72.7654 52.176ZM84.338 56V52.304L81.746 56H79.25L82.226 52L79.346 48.336H81.762L84.338 51.76V48.336H86.402V51.76L88.978 48.336H91.378L88.498 52L91.474 56H88.978L86.402 52.304V56H84.338ZM91.7088 58.48V54.16H91.8688C92.9141 54.16 93.5434 53.104 93.7568 50.992L94.0128 48.336H100.269V54.16H101.405V58.48H99.2928V56H93.8207V58.48H91.7088ZM98.1088 54.16V50.176H95.7888L95.6768 51.328C95.5914 52.1493 95.4794 52.7573 95.3408 53.152C95.2128 53.5467 95.0261 53.8827 94.7808 54.16H98.1088ZM106.057 48.08C107.273 48.08 108.227 48.4693 108.921 49.248C109.614 50.0267 109.961 50.9813 109.961 52.112C109.961 52.3573 109.95 52.5493 109.929 52.688H104.233C104.233 53.2213 104.425 53.6853 104.809 54.08C105.203 54.464 105.673 54.656 106.217 54.656C106.878 54.656 107.39 54.3893 107.753 53.856H109.849C109.571 54.5707 109.129 55.152 108.521 55.6C107.923 56.048 107.15 56.272 106.201 56.272C105.038 56.272 104.067 55.888 103.289 55.12C102.51 54.3413 102.121 53.3387 102.121 52.112C102.121 50.9707 102.473 50.016 103.177 49.248C103.891 48.4693 104.851 48.08 106.057 48.08ZM106.041 49.584C105.539 49.584 105.123 49.744 104.793 50.064C104.473 50.384 104.291 50.768 104.249 51.216H107.833C107.779 50.7573 107.587 50.3733 107.257 50.064C106.937 49.744 106.531 49.584 106.041 49.584ZM118.868 48.336V56H116.708V52.896H113.636V56H111.476V48.336H113.636V51.088H116.708V48.336H118.868ZM120.851 56V48.336H122.915V50.896C122.915 51.8453 122.899 52.6347 122.867 53.264H122.899C123.081 52.9227 123.427 52.3893 123.939 51.664L126.339 48.336H128.243V56H126.179V53.456C126.179 52.4853 126.195 51.6907 126.227 51.072H126.195C125.939 51.5413 125.593 52.0747 125.155 52.672L122.771 56H120.851ZM133.65 48.08C134.866 48.08 135.821 48.4693 136.514 49.248C137.208 50.0267 137.554 50.9813 137.554 52.112C137.554 52.3573 137.544 52.5493 137.522 52.688H131.826C131.826 53.2213 132.018 53.6853 132.402 54.08C132.797 54.464 133.266 54.656 133.81 54.656C134.472 54.656 134.984 54.3893 135.346 53.856H137.442C137.165 54.5707 136.722 55.152 136.114 55.6C135.517 56.048 134.744 56.272 133.794 56.272C132.632 56.272 131.661 55.888 130.882 55.12C130.104 54.3413 129.714 53.3387 129.714 52.112C129.714 50.9707 130.066 50.016 130.77 49.248C131.485 48.4693 132.445 48.08 133.65 48.08ZM133.634 49.584C133.133 49.584 132.717 49.744 132.386 50.064C132.066 50.384 131.885 50.768 131.842 51.216H135.426C135.373 50.7573 135.181 50.3733 134.85 50.064C134.53 49.744 134.125 49.584 133.634 49.584Z"
            fill="white" />
    <path
            d="M15.088 88V77.088H21.776V79.072H17.296V88H15.088ZM22.3863 84.16C22.3863 82.976 22.7756 82 23.5543 81.232C24.3329 80.464 25.3089 80.08 26.4823 80.08C27.6769 80.08 28.6583 80.4693 29.4263 81.248C30.1943 82.016 30.5783 82.9867 30.5783 84.16C30.5783 85.3013 30.1889 86.272 29.4103 87.072C28.6423 87.872 27.6663 88.272 26.4823 88.272C25.3089 88.272 24.3329 87.8773 23.5543 87.088C22.7756 86.2987 22.3863 85.3227 22.3863 84.16ZM24.5623 84.176C24.5623 84.8053 24.7436 85.328 25.1063 85.744C25.4796 86.1493 25.9383 86.352 26.4823 86.352C27.0583 86.352 27.5169 86.1493 27.8583 85.744C28.2103 85.328 28.3863 84.8053 28.3863 84.176C28.3863 83.5573 28.2156 83.04 27.8743 82.624C27.5329 82.208 27.0689 82 26.4823 82C25.8956 82 25.4263 82.2027 25.0743 82.608C24.7329 83.0133 24.5623 83.536 24.5623 84.176ZM31.2869 90.48V86.16H31.4469C32.4922 86.16 33.1215 85.104 33.3349 82.992L33.5909 80.336H39.8469V86.16H40.9829V90.48H38.8709V88H33.3989V90.48H31.2869ZM37.6869 86.16V82.176H35.3669L35.2549 83.328C35.1695 84.1493 35.0575 84.7573 34.9189 85.152C34.7909 85.5467 34.6042 85.8827 34.3589 86.16H37.6869ZM47.9388 84.176C47.9388 84.8053 48.1201 85.328 48.4828 85.744C48.8454 86.1493 49.2988 86.352 49.8428 86.352C50.4188 86.352 50.8828 86.1493 51.2348 85.744C51.5868 85.328 51.7628 84.8053 51.7628 84.176C51.7628 83.5573 51.5921 83.04 51.2508 82.624C50.9201 82.208 50.4561 82 49.8588 82C49.2721 82 48.8028 82.2027 48.4508 82.608C48.1094 83.0133 47.9388 83.536 47.9388 84.176ZM50.9308 78.896C49.2028 79.1093 48.2481 79.7707 48.0668 80.88H48.1148C48.6374 80.3893 49.3094 80.144 50.1308 80.144C51.2614 80.144 52.1788 80.5227 52.8828 81.28C53.5868 82.0267 53.9388 82.9867 53.9388 84.16C53.9388 85.3013 53.5494 86.272 52.7708 87.072C52.0028 87.872 51.0268 88.272 49.8428 88.272C48.6161 88.272 47.6294 87.856 46.8828 87.024C46.1361 86.192 45.7628 85.0453 45.7628 83.584C45.7628 82.528 45.8694 81.6107 46.0828 80.832C46.3068 80.0427 46.6268 79.4027 47.0428 78.912C47.4694 78.4107 47.9601 78.016 48.5148 77.728C49.0694 77.44 49.7148 77.232 50.4508 77.104C51.3148 76.944 52.0348 76.6987 52.6108 76.368L53.4588 78.128C52.7014 78.5333 51.8588 78.7893 50.9308 78.896ZM62.0059 80.336L57.8139 91.76H55.7659L57.1739 87.936L54.3899 80.336H56.6299L57.7339 83.664C58.0005 84.5173 58.1712 85.1467 58.2459 85.552H58.3099C58.4059 85.0293 58.5712 84.4 58.8059 83.664L59.8779 80.336H62.0059ZM62.8986 91.76V80.336H64.9786V81.248H65.0426C65.6613 80.5013 66.4826 80.128 67.5066 80.128C68.4133 80.128 69.224 80.4907 69.9386 81.216C70.664 81.9413 71.0266 82.9387 71.0266 84.208C71.0266 85.4027 70.6693 86.3787 69.9546 87.136C69.24 87.8827 68.3813 88.256 67.3786 88.256C66.408 88.256 65.64 87.888 65.0746 87.152H65.0106V91.76H62.8986ZM68.8346 84.208C68.8346 83.5893 68.664 83.0667 68.3226 82.64C67.9813 82.2133 67.4906 82 66.8506 82C66.3173 82 65.864 82.208 65.4906 82.624C65.128 83.0293 64.9466 83.5573 64.9466 84.208C64.9466 84.848 65.1333 85.376 65.5066 85.792C65.88 86.208 66.3333 86.416 66.8666 86.416C67.4853 86.416 67.9653 86.1973 68.3066 85.76C68.6586 85.312 68.8346 84.7947 68.8346 84.208ZM75.9316 80.08C77.1476 80.08 78.1023 80.4693 78.7956 81.248C79.489 82.0267 79.8356 82.9813 79.8356 84.112C79.8356 84.3573 79.825 84.5493 79.8036 84.688H74.1076C74.1076 85.2213 74.2996 85.6853 74.6836 86.08C75.0783 86.464 75.5476 86.656 76.0916 86.656C76.753 86.656 77.265 86.3893 77.6276 85.856H79.7236C79.4463 86.5707 79.0036 87.152 78.3956 87.6C77.7983 88.048 77.025 88.272 76.0756 88.272C74.913 88.272 73.9423 87.888 73.1636 87.12C72.385 86.3413 71.9956 85.3387 71.9956 84.112C71.9956 82.9707 72.3476 82.016 73.0516 81.248C73.7663 80.4693 74.7263 80.08 75.9316 80.08ZM75.9156 81.584C75.4143 81.584 74.9983 81.744 74.6676 82.064C74.3476 82.384 74.1663 82.768 74.1236 83.216H77.7076C77.6543 82.7573 77.4623 82.3733 77.1316 82.064C76.8116 81.744 76.4063 81.584 75.9156 81.584ZM88.7434 80.336V88H86.5834V84.896H83.5114V88H81.3514V80.336H83.5114V83.088H86.5834V80.336H88.7434ZM90.7264 88V80.336H92.7904V82.896C92.7904 83.8453 92.7744 84.6347 92.7424 85.264H92.7744C92.9557 84.9227 93.3024 84.3893 93.8144 83.664L96.2144 80.336H98.1184V88H96.0544V85.456C96.0544 84.4853 96.0704 83.6907 96.1024 83.072H96.0704C95.8144 83.5413 95.4677 84.0747 95.0304 84.672L92.6464 88H90.7264ZM103.909 85.184H103.461L101.749 88H99.3494L101.445 84.928C100.987 84.7893 100.613 84.5387 100.325 84.176C100.048 83.8027 99.9094 83.344 99.9094 82.8C99.9094 82.0427 100.165 81.4453 100.677 81.008C101.189 80.56 101.92 80.336 102.869 80.336H106.085V88H103.909V85.184ZM103.141 83.76H103.909V81.872H103.125C102.773 81.872 102.507 81.9627 102.325 82.144C102.155 82.3147 102.069 82.5387 102.069 82.816C102.069 83.4453 102.427 83.76 103.141 83.76Z"
            fill="white" />
    <path
            d="M15.088 120V109.088H21.776V111.072H17.296V120H15.088ZM22.3863 116.16C22.3863 114.976 22.7756 114 23.5543 113.232C24.3329 112.464 25.3089 112.08 26.4823 112.08C27.6769 112.08 28.6583 112.469 29.4263 113.248C30.1943 114.016 30.5783 114.987 30.5783 116.16C30.5783 117.301 30.1889 118.272 29.4103 119.072C28.6423 119.872 27.6663 120.272 26.4823 120.272C25.3089 120.272 24.3329 119.877 23.5543 119.088C22.7756 118.299 22.3863 117.323 22.3863 116.16ZM24.5623 116.176C24.5623 116.805 24.7436 117.328 25.1063 117.744C25.4796 118.149 25.9383 118.352 26.4823 118.352C27.0583 118.352 27.5169 118.149 27.8583 117.744C28.2103 117.328 28.3863 116.805 28.3863 116.176C28.3863 115.557 28.2156 115.04 27.8743 114.624C27.5329 114.208 27.0689 114 26.4823 114C25.8956 114 25.4263 114.203 25.0743 114.608C24.7329 115.013 24.5623 115.536 24.5623 116.176ZM32.0549 123.76V112.336H34.1349V113.248H34.1989C34.8175 112.501 35.6389 112.128 36.6629 112.128C37.5695 112.128 38.3802 112.491 39.0949 113.216C39.8202 113.941 40.1829 114.939 40.1829 116.208C40.1829 117.403 39.8255 118.379 39.1109 119.136C38.3962 119.883 37.5375 120.256 36.5349 120.256C35.5642 120.256 34.7962 119.888 34.2309 119.152H34.1669V123.76H32.0549ZM37.9909 116.208C37.9909 115.589 37.8202 115.067 37.4789 114.64C37.1375 114.213 36.6469 114 36.0069 114C35.4735 114 35.0202 114.208 34.6469 114.624C34.2842 115.029 34.1029 115.557 34.1029 116.208C34.1029 116.848 34.2895 117.376 34.6629 117.792C35.0362 118.208 35.4895 118.416 36.0229 118.416C36.6415 118.416 37.1215 118.197 37.4629 117.76C37.8149 117.312 37.9909 116.795 37.9909 116.208ZM41.6639 120V112.336H43.7279V114.896C43.7279 115.845 43.7119 116.635 43.6799 117.264H43.7119C43.8932 116.923 44.2399 116.389 44.7519 115.664L47.1519 112.336H49.0559V120H46.9919V117.456C46.9919 116.485 47.0079 115.691 47.0399 115.072H47.0079C46.7519 115.541 46.4052 116.075 45.9679 116.672L43.5839 120H41.6639ZM50.3669 117.824H52.3349C52.3669 118.091 52.4895 118.309 52.7029 118.48C52.9269 118.64 53.2202 118.72 53.5829 118.72C53.9775 118.72 54.2815 118.635 54.4949 118.464C54.7189 118.283 54.8309 118.053 54.8309 117.776C54.8309 117.467 54.7135 117.227 54.4789 117.056C54.2549 116.875 53.9669 116.784 53.6149 116.784H52.9109V115.344H53.7109C54.0202 115.344 54.2602 115.269 54.4309 115.12C54.6122 114.96 54.7029 114.741 54.7029 114.464C54.7029 114.229 54.6069 114.032 54.4149 113.872C54.2229 113.712 53.9615 113.632 53.6309 113.632C53.3322 113.632 53.0762 113.701 52.8629 113.84C52.6602 113.968 52.5375 114.155 52.4949 114.4H50.5749C50.6602 113.685 50.9749 113.12 51.5189 112.704C52.0735 112.288 52.7989 112.08 53.6949 112.08C54.6335 112.08 55.3642 112.277 55.8869 112.672C56.4202 113.067 56.6869 113.579 56.6869 114.208C56.6869 115.189 56.2069 115.797 55.2469 116.032C55.7269 116.128 56.1162 116.336 56.4149 116.656C56.7135 116.976 56.8629 117.365 56.8629 117.824C56.8629 118.549 56.5855 119.141 56.0309 119.6C55.4869 120.048 54.6442 120.272 53.5029 120.272C52.6175 120.272 51.8975 120.059 51.3429 119.632C50.7989 119.205 50.4735 118.603 50.3669 117.824ZM57.8706 116.16C57.8706 114.976 58.26 114 59.0386 113.232C59.8173 112.464 60.7933 112.08 61.9666 112.08C63.1613 112.08 64.1426 112.469 64.9106 113.248C65.6786 114.016 66.0626 114.987 66.0626 116.16C66.0626 117.301 65.6733 118.272 64.8946 119.072C64.1266 119.872 63.1506 120.272 61.9666 120.272C60.7933 120.272 59.8173 119.877 59.0386 119.088C58.26 118.299 57.8706 117.323 57.8706 116.16ZM60.0466 116.176C60.0466 116.805 60.228 117.328 60.5906 117.744C60.964 118.149 61.4226 118.352 61.9666 118.352C62.5426 118.352 63.0013 118.149 63.3426 117.744C63.6946 117.328 63.8706 116.805 63.8706 116.176C63.8706 115.557 63.7 115.04 63.3586 114.624C63.0173 114.208 62.5533 114 61.9666 114C61.38 114 60.9106 114.203 60.5586 114.608C60.2173 115.013 60.0466 115.536 60.0466 116.176ZM74.9153 112.336V120H72.7553V116.896H69.6833V120H67.5233V112.336H69.6833V115.088H72.7553V112.336H74.9153ZM82.2743 112.336V114.176H80.2743V120H78.1143V114.176H76.0823V112.336H82.2743Z"
            fill="white" />
    <path
            d="M15.088 141.088H17.312V146.688C17.312 147.456 17.296 148.112 17.264 148.656H17.312C17.536 148.165 18.0853 147.205 18.96 145.776L21.824 141.088H23.92V152H21.712V146.576C21.712 146.224 21.728 145.536 21.76 144.512H21.712C21.5307 144.875 20.896 145.947 19.808 147.728L17.184 152H15.088V141.088ZM33.4153 144.336V152H31.2553V148.896H28.1833V152H26.0233V144.336H28.1833V147.088H31.2553V144.336H33.4153ZM40.7743 144.336V146.176H38.7743V152H36.6143V146.176H34.5823V144.336H40.7743ZM45.3848 144.08C46.6008 144.08 47.5554 144.469 48.2488 145.248C48.9421 146.027 49.2888 146.981 49.2888 148.112C49.2888 148.357 49.2781 148.549 49.2568 148.688H43.5608C43.5608 149.221 43.7528 149.685 44.1368 150.08C44.5314 150.464 45.0008 150.656 45.5448 150.656C46.2061 150.656 46.7181 150.389 47.0808 149.856H49.1768C48.8994 150.571 48.4568 151.152 47.8488 151.6C47.2514 152.048 46.4781 152.272 45.5288 152.272C44.3661 152.272 43.3954 151.888 42.6168 151.12C41.8381 150.341 41.4488 149.339 41.4488 148.112C41.4488 146.971 41.8008 146.016 42.5048 145.248C43.2194 144.469 44.1794 144.08 45.3848 144.08ZM45.3688 145.584C44.8674 145.584 44.4514 145.744 44.1208 146.064C43.8008 146.384 43.6194 146.768 43.5768 147.216H47.1608C47.1074 146.757 46.9154 146.373 46.5848 146.064C46.2648 145.744 45.8594 145.584 45.3688 145.584ZM50.8205 155.76V144.336H52.9005V145.248H52.9645C53.5832 144.501 54.4045 144.128 55.4285 144.128C56.3352 144.128 57.1458 144.491 57.8605 145.216C58.5858 145.941 58.9485 146.939 58.9485 148.208C58.9485 149.403 58.5912 150.379 57.8765 151.136C57.1618 151.883 56.3032 152.256 55.3005 152.256C54.3298 152.256 53.5618 151.888 52.9965 151.152H52.9325V155.76H50.8205ZM56.7565 148.208C56.7565 147.589 56.5858 147.067 56.2445 146.64C55.9032 146.213 55.4125 146 54.7725 146C54.2392 146 53.7858 146.208 53.4125 146.624C53.0498 147.029 52.8685 147.557 52.8685 148.208C52.8685 148.848 53.0552 149.376 53.4285 149.792C53.8018 150.208 54.2552 150.416 54.7885 150.416C55.4072 150.416 55.8872 150.197 56.2285 149.76C56.5805 149.312 56.7565 148.795 56.7565 148.208ZM60.4295 152V144.336H63.8695C64.7228 144.336 65.3682 144.496 65.8055 144.816C66.2535 145.136 66.4775 145.589 66.4775 146.176C66.4775 147.04 66.0348 147.589 65.1495 147.824C65.7788 147.941 66.2428 148.171 66.5415 148.512C66.8402 148.853 66.9895 149.253 66.9895 149.712C66.9895 150.405 66.7442 150.96 66.2535 151.376C65.7628 151.792 65.0642 152 64.1575 152H60.4295ZM63.6775 148.672H62.4775V150.608H63.8055C64.5522 150.608 64.9255 150.283 64.9255 149.632C64.9255 149.344 64.8188 149.115 64.6055 148.944C64.4028 148.763 64.0935 148.672 63.6775 148.672ZM63.4215 145.728H62.4775V147.328H63.3095C64.0562 147.328 64.4295 147.051 64.4295 146.496C64.4295 145.984 64.0935 145.728 63.4215 145.728ZM76.2018 144.336V152H74.1218V151.04H74.0578C73.4498 151.851 72.6178 152.256 71.5618 152.256C71.1671 152.256 70.7724 152.176 70.3778 152.016C69.9938 151.856 69.6204 151.621 69.2578 151.312C68.9058 150.992 68.6178 150.56 68.3938 150.016C68.1804 149.472 68.0738 148.853 68.0738 148.16C68.0738 146.965 68.4258 145.995 69.1298 145.248C69.8444 144.501 70.7084 144.128 71.7218 144.128C72.7351 144.128 73.5138 144.528 74.0578 145.328H74.1218V144.336H76.2018ZM70.2658 148.176C70.2658 148.784 70.4364 149.307 70.7778 149.744C71.1191 150.171 71.6044 150.384 72.2338 150.384C72.7564 150.384 73.2044 150.176 73.5778 149.76C73.9618 149.344 74.1538 148.821 74.1538 148.192C74.1538 147.531 73.9724 146.997 73.6098 146.592C73.2471 146.176 72.7938 145.968 72.2498 145.968C71.6204 145.968 71.1298 146.187 70.7778 146.624C70.4364 147.061 70.2658 147.579 70.2658 148.176ZM78.7228 149.344L79.1868 144.336H85.5388V152H83.3788V146.176H80.9948L80.6588 149.68C80.5841 150.555 80.3601 151.179 79.9868 151.552C79.6241 151.925 79.0481 152.112 78.2588 152.112C77.9814 152.112 77.7041 152.075 77.4268 152V150.24C77.6188 150.283 77.7894 150.304 77.9388 150.304C78.4081 150.304 78.6694 149.984 78.7228 149.344ZM90.5633 148.656H89.6833V150.432H90.5633C90.9153 150.432 91.1766 150.347 91.3473 150.176C91.5179 150.005 91.6033 149.792 91.6033 149.536C91.6033 148.949 91.2566 148.656 90.5633 148.656ZM89.6833 147.088H90.8353C91.7739 147.088 92.4939 147.296 92.9953 147.712C93.5073 148.128 93.7633 148.736 93.7633 149.536C93.7633 150.293 93.5073 150.896 92.9953 151.344C92.4939 151.781 91.8006 152 90.9153 152H87.5233V144.336H89.6833V147.088ZM95.0273 152V144.336H97.1873V152H95.0273ZM22.384 163.336V171H20.224V165.176H17.152V171H14.992V163.336H22.384ZM27.791 163.08C29.007 163.08 29.9617 163.469 30.655 164.248C31.3483 165.027 31.695 165.981 31.695 167.112C31.695 167.357 31.6843 167.549 31.663 167.688H25.967C25.967 168.221 26.159 168.685 26.543 169.08C26.9377 169.464 27.407 169.656 27.951 169.656C28.6123 169.656 29.1243 169.389 29.487 168.856H31.583C31.3057 169.571 30.863 170.152 30.255 170.6C29.6577 171.048 28.8843 171.272 27.935 171.272C26.7723 171.272 25.8017 170.888 25.023 170.12C24.2443 169.341 23.855 168.339 23.855 167.112C23.855 165.971 24.207 165.016 24.911 164.248C25.6257 163.469 26.5857 163.08 27.791 163.08ZM27.775 164.584C27.2737 164.584 26.8577 164.744 26.527 165.064C26.207 165.384 26.0257 165.768 25.983 166.216H29.567C29.5137 165.757 29.3217 165.373 28.991 165.064C28.671 164.744 28.2657 164.584 27.775 164.584ZM33.2268 174.76V163.336H35.3068V164.248H35.3708C35.9894 163.501 36.8108 163.128 37.8348 163.128C38.7414 163.128 39.5521 163.491 40.2668 164.216C40.9921 164.941 41.3548 165.939 41.3548 167.208C41.3548 168.403 40.9974 169.379 40.2828 170.136C39.5681 170.883 38.7094 171.256 37.7068 171.256C36.7361 171.256 35.9681 170.888 35.4028 170.152H35.3388V174.76H33.2268ZM39.1628 167.208C39.1628 166.589 38.9921 166.067 38.6508 165.64C38.3094 165.213 37.8188 165 37.1788 165C36.6454 165 36.1921 165.208 35.8188 165.624C35.4561 166.029 35.2748 166.557 35.2748 167.208C35.2748 167.848 35.4614 168.376 35.8348 168.792C36.2081 169.208 36.6614 169.416 37.1948 169.416C37.8134 169.416 38.2934 169.197 38.6348 168.76C38.9868 168.312 39.1628 167.795 39.1628 167.208ZM47.4918 164.136H47.5558V159.48H49.6678V164.12H49.7158C50.2171 163.459 50.8944 163.128 51.7478 163.128C52.5584 163.128 53.2731 163.475 53.8918 164.168C54.5211 164.861 54.8358 165.875 54.8358 167.208C54.8358 168.424 54.5371 169.405 53.9398 170.152C53.3424 170.888 52.5904 171.256 51.6838 171.256C50.8304 171.256 50.1744 170.92 49.7158 170.248H49.6678V174.76H47.5558V170.264H47.4918C46.9371 170.925 46.2651 171.256 45.4758 171.256C44.5478 171.256 43.7958 170.883 43.2198 170.136C42.6438 169.389 42.3558 168.397 42.3558 167.16C42.3558 165.955 42.6598 164.984 43.2678 164.248C43.8758 163.501 44.6544 163.128 45.6038 163.128C46.0091 163.128 46.3771 163.229 46.7078 163.432C47.0491 163.624 47.3104 163.859 47.4918 164.136ZM44.4838 167.176C44.4838 167.859 44.6224 168.413 44.8998 168.84C45.1878 169.267 45.5824 169.48 46.0838 169.48C46.5104 169.48 46.8678 169.272 47.1558 168.856C47.4544 168.44 47.6038 167.885 47.6038 167.192C47.6038 166.477 47.4598 165.917 47.1718 165.512C46.8944 165.107 46.5264 164.904 46.0677 164.904C45.5771 164.904 45.1878 165.123 44.8998 165.56C44.6224 165.987 44.4838 166.525 44.4838 167.176ZM52.2918 168.84C52.5691 168.403 52.7078 167.859 52.7078 167.208C52.7078 166.557 52.5744 166.013 52.3078 165.576C52.0518 165.128 51.6624 164.904 51.1398 164.904C50.6918 164.904 50.3238 165.107 50.0358 165.512C49.7478 165.917 49.6038 166.483 49.6038 167.208C49.6038 167.88 49.7478 168.429 50.0358 168.856C50.3238 169.272 50.6971 169.48 51.1558 169.48C51.6358 169.48 52.0144 169.267 52.2918 168.84ZM55.8238 167.16C55.8238 165.976 56.2131 165 56.9918 164.232C57.7704 163.464 58.7464 163.08 59.9198 163.08C61.1144 163.08 62.0958 163.469 62.8638 164.248C63.6318 165.016 64.0158 165.987 64.0158 167.16C64.0158 168.301 63.6264 169.272 62.8478 170.072C62.0798 170.872 61.1038 171.272 59.9198 171.272C58.7464 171.272 57.7704 170.877 56.9918 170.088C56.2131 169.299 55.8238 168.323 55.8238 167.16ZM57.9998 167.176C57.9998 167.805 58.1811 168.328 58.5438 168.744C58.9171 169.149 59.3758 169.352 59.9198 169.352C60.4958 169.352 60.9544 169.149 61.2958 168.744C61.6478 168.328 61.8238 167.805 61.8238 167.176C61.8238 166.557 61.6531 166.04 61.3118 165.624C60.9704 165.208 60.5064 165 59.9198 165C59.3331 165 58.8638 165.203 58.5118 165.608C58.1704 166.013 57.9998 166.536 57.9998 167.176ZM65.4924 174.76V163.336H67.5724V164.248H67.6364C68.255 163.501 69.0764 163.128 70.1004 163.128C71.007 163.128 71.8177 163.491 72.5324 164.216C73.2577 164.941 73.6204 165.939 73.6204 167.208C73.6204 168.403 73.263 169.379 72.5484 170.136C71.8337 170.883 70.975 171.256 69.9724 171.256C69.0017 171.256 68.2337 170.888 67.6684 170.152H67.6044V174.76H65.4924ZM71.4284 167.208C71.4284 166.589 71.2577 166.067 70.9164 165.64C70.575 165.213 70.0844 165 69.4444 165C68.911 165 68.4577 165.208 68.0844 165.624C67.7217 166.029 67.5404 166.557 67.5404 167.208C67.5404 167.848 67.727 168.376 68.1004 168.792C68.4737 169.208 68.927 169.416 69.4604 169.416C70.079 169.416 70.559 169.197 70.9004 168.76C71.2524 168.312 71.4284 167.795 71.4284 167.208ZM82.7174 163.336V171H80.6374V170.04H80.5734C79.9654 170.851 79.1334 171.256 78.0774 171.256C77.6827 171.256 77.288 171.176 76.8934 171.016C76.5094 170.856 76.136 170.621 75.7734 170.312C75.4214 169.992 75.1334 169.56 74.9094 169.016C74.696 168.472 74.5894 167.853 74.5894 167.16C74.5894 165.965 74.9414 164.995 75.6454 164.248C76.36 163.501 77.224 163.128 78.2374 163.128C79.2507 163.128 80.0294 163.528 80.5734 164.328H80.6374V163.336H82.7174ZM76.7814 167.176C76.7814 167.784 76.952 168.307 77.2934 168.744C77.6347 169.171 78.12 169.384 78.7494 169.384C79.272 169.384 79.72 169.176 80.0934 168.76C80.4774 168.344 80.6694 167.821 80.6694 167.192C80.6694 166.531 80.488 165.997 80.1254 165.592C79.7627 165.176 79.3094 164.968 78.7654 164.968C78.136 164.968 77.6454 165.187 77.2934 165.624C76.952 166.061 76.7814 166.579 76.7814 167.176ZM92.1184 169.16H93.2544V173.48H91.0944V171H84.7264V163.336H86.8864V169.16H89.9584V163.336H92.1184V169.16ZM94.492 171V163.336H96.556V165.896C96.556 166.845 96.54 167.635 96.508 168.264H96.54C96.7213 167.923 97.068 167.389 97.58 166.664L99.98 163.336H101.884V171H99.82V168.456C99.82 167.485 99.836 166.691 99.868 166.072H99.836C99.58 166.541 99.2333 167.075 98.796 167.672L96.412 171H94.492ZM103.867 171V163.336H105.931V165.896C105.931 166.845 105.915 167.635 105.883 168.264H105.915C106.096 167.923 106.443 167.389 106.955 166.664L109.355 163.336H111.259V171H109.195V168.456C109.195 167.485 109.211 166.691 109.243 166.072H109.211C108.955 166.541 108.608 167.075 108.171 167.672L105.787 171H103.867Z"
            fill="white" />
    <path
            d="M215.168 13.088L216.368 24H215.072L214.448 17.632C214.352 16.576 214.267 15.6107 214.192 14.736H214.144C213.941 15.3973 213.632 16.368 213.216 17.648L211.088 24H209.936L207.808 17.472C207.264 15.7973 206.971 14.8853 206.928 14.736H206.864C206.789 15.8133 206.709 16.72 206.624 17.456L205.952 24H204.672L205.936 13.088H207.552L209.92 20.112C210.165 20.816 210.363 21.4827 210.512 22.112H210.576C210.704 21.5893 210.907 20.9227 211.184 20.112L213.568 13.088H215.168ZM228.215 13.088L229.415 24H228.119L227.495 17.632C227.399 16.576 227.314 15.6107 227.239 14.736H227.191C226.988 15.3973 226.679 16.368 226.263 17.648L224.135 24H222.983L220.855 17.472C220.311 15.7973 220.018 14.8853 219.975 14.736H219.911C219.836 15.8133 219.756 16.72 219.671 17.456L218.999 24H217.719L218.983 13.088H220.599L222.967 20.112C223.212 20.816 223.41 21.4827 223.559 22.112H223.623C223.751 21.5893 223.954 20.9227 224.231 20.112L226.615 13.088H228.215ZM231.278 24V13.088H237.438V14.304H232.606V24H231.278Z"
            fill="white" />
    <path
            d="M209.936 50.4L205.536 56H203.872L208.48 50.288L204.08 45.088H205.68L209.936 50.256V45.088H211.264V50.256L215.52 45.088H217.12L212.72 50.288L217.328 56H215.664L211.264 50.4V56H209.936V50.4ZM221.275 48.08C221.936 48.08 222.523 48.208 223.035 48.464C223.547 48.72 223.941 49.0507 224.219 49.456C224.507 49.8613 224.72 50.288 224.859 50.736C224.997 51.1733 225.067 51.616 225.067 52.064C225.067 52.2667 225.056 52.4213 225.035 52.528H218.779C218.779 53.2213 219.051 53.8347 219.595 54.368C220.139 54.8907 220.773 55.152 221.499 55.152C222.288 55.152 222.944 54.8427 223.467 54.224H224.923C224.624 54.7893 224.187 55.2747 223.611 55.68C223.045 56.0747 222.352 56.272 221.531 56.272C220.325 56.272 219.344 55.872 218.587 55.072C217.84 54.272 217.467 53.2693 217.467 52.064C217.467 50.9653 217.819 50.0267 218.523 49.248C219.227 48.4693 220.144 48.08 221.275 48.08ZM221.275 49.184C220.581 49.184 220.011 49.4133 219.563 49.872C219.115 50.32 218.859 50.8533 218.795 51.472H223.739C223.675 50.8427 223.413 50.304 222.955 49.856C222.507 49.408 221.947 49.184 221.275 49.184ZM231.417 48.336V49.472H229.257V56H227.993V49.472H225.801V48.336H231.417ZM235.386 52.528H233.946V54.944H235.386C235.823 54.944 236.154 54.8267 236.378 54.592C236.602 54.3573 236.714 54.0693 236.714 53.728C236.714 52.928 236.271 52.528 235.386 52.528ZM233.946 51.472H235.402C236.213 51.472 236.842 51.6747 237.29 52.08C237.749 52.4747 237.978 53.0187 237.978 53.712C237.978 54.4053 237.754 54.96 237.306 55.376C236.858 55.792 236.239 56 235.45 56H232.682V48.336H233.946V51.472ZM239.386 56V48.336H240.65V56H239.386ZM243.686 52.16C243.686 53.0027 243.958 53.7067 244.502 54.272C245.057 54.8373 245.713 55.12 246.47 55.12C247.27 55.12 247.931 54.8373 248.454 54.272C248.987 53.7067 249.254 53.0027 249.254 52.16C249.254 51.328 249.003 50.6293 248.502 50.064C248.001 49.4987 247.339 49.216 246.518 49.216C245.707 49.216 245.03 49.4933 244.486 50.048C243.953 50.6027 243.686 51.3067 243.686 52.16ZM247.126 46.336C245.142 46.688 244.006 47.7333 243.718 49.472H243.766C244.043 49.0773 244.449 48.7467 244.982 48.48C245.515 48.2133 246.054 48.08 246.598 48.08C247.771 48.08 248.726 48.4693 249.462 49.248C250.198 50.016 250.566 50.9867 250.566 52.16C250.566 53.3013 250.177 54.272 249.398 55.072C248.619 55.872 247.643 56.272 246.47 56.272C245.286 56.272 244.315 55.8613 243.558 55.04C242.801 54.2187 242.422 53.0453 242.422 51.52C242.422 50.4 242.539 49.44 242.774 48.64C243.019 47.8293 243.366 47.1947 243.814 46.736C244.273 46.2667 244.763 45.9093 245.286 45.664C245.809 45.4187 246.422 45.2373 247.126 45.12C247.915 44.9813 248.577 44.7307 249.11 44.368L249.654 45.44C248.875 45.888 248.033 46.1867 247.126 46.336ZM259.749 48.336V56H258.485V54.976H258.453C257.738 55.84 256.805 56.272 255.653 56.272C254.575 56.272 253.647 55.8933 252.869 55.136C252.101 54.368 251.717 53.376 251.717 52.16C251.717 50.976 252.095 50 252.853 49.232C253.621 48.464 254.581 48.08 255.733 48.08C256.789 48.08 257.701 48.5333 258.469 49.44H258.485V48.336H259.749ZM253.765 50.08C253.274 50.6667 253.029 51.36 253.029 52.16C253.029 52.96 253.274 53.6587 253.765 54.256C254.255 54.8533 254.943 55.152 255.829 55.152C256.575 55.152 257.221 54.8747 257.765 54.32C258.319 53.7547 258.597 53.0507 258.597 52.208C258.597 51.312 258.33 50.5867 257.797 50.032C257.274 49.4667 256.629 49.184 255.861 49.184C254.954 49.184 254.255 49.4827 253.765 50.08ZM261.963 56V48.336H263.227V51.808C263.227 52.7467 263.211 53.5307 263.179 54.16H263.211C263.371 53.8613 263.729 53.3547 264.283 52.64L267.563 48.336H268.699V56H267.435V52.528C267.435 51.5893 267.451 50.8053 267.483 50.176H267.451C267.291 50.4747 266.934 50.9813 266.379 51.696L263.099 56H261.963ZM266.843 44.576H267.899C267.867 45.248 267.611 45.808 267.131 46.256C266.662 46.704 266.086 46.928 265.403 46.928C264.71 46.928 264.129 46.704 263.659 46.256C263.19 45.808 262.939 45.248 262.907 44.576H263.963C263.985 44.9707 264.129 45.2853 264.395 45.52C264.662 45.744 264.998 45.856 265.403 45.856C265.809 45.856 266.145 45.7387 266.411 45.504C266.678 45.2693 266.822 44.96 266.843 44.576Z"
            fill="white" />
    <path
            d="M205.312 88V86.784L208.816 82.896C209.36 82.288 209.765 81.744 210.032 81.264C210.309 80.7733 210.448 80.2667 210.448 79.744C210.448 79.2213 210.283 78.7893 209.952 78.448C209.632 78.096 209.184 77.92 208.608 77.92C208.085 77.92 207.648 78.096 207.296 78.448C206.944 78.7893 206.768 79.2533 206.768 79.84H205.376C205.408 78.9333 205.733 78.192 206.352 77.616C206.971 77.0293 207.733 76.736 208.64 76.736C209.653 76.736 210.437 77.0187 210.992 77.584C211.547 78.1387 211.824 78.816 211.824 79.616C211.824 80.32 211.653 80.976 211.312 81.584C210.971 82.1813 210.453 82.864 209.76 83.632L206.896 86.784H212.016V88H205.312ZM216.184 78.304L215.88 81.2C216.307 81.0827 216.787 81.024 217.32 81.024C218.483 81.024 219.416 81.3387 220.12 81.968C220.835 82.5867 221.192 83.4453 221.192 84.544C221.192 84.992 221.112 85.44 220.952 85.888C220.792 86.3253 220.563 86.7307 220.264 87.104C219.966 87.4773 219.571 87.776 219.08 88C218.59 88.2347 218.046 88.352 217.448 88.352C216.392 88.352 215.539 88.064 214.888 87.488C214.238 86.912 213.87 86.1973 213.784 85.344H215.192C215.278 85.8667 215.512 86.2987 215.896 86.64C216.291 86.9813 216.824 87.152 217.496 87.152C218.147 87.152 218.696 86.928 219.144 86.48C219.592 86.032 219.816 85.4507 219.816 84.736C219.816 83.9253 219.582 83.3067 219.112 82.88C218.654 82.4533 217.987 82.24 217.112 82.24C216.334 82.24 215.454 82.384 214.472 82.672L215 77.088H220.44V78.304H216.184ZM222.929 88V86.24H224.689V87.2C224.689 88.288 224.401 89.2747 223.825 90.16H222.945C223.286 89.6373 223.499 88.9173 223.585 88H222.929ZM229.497 88V78.304H228.025V77.088H230.809V88H229.497ZM235.921 88V86.784L239.425 82.896C239.969 82.288 240.375 81.744 240.641 81.264C240.919 80.7733 241.057 80.2667 241.057 79.744C241.057 79.2213 240.892 78.7893 240.561 78.448C240.241 78.096 239.793 77.92 239.217 77.92C238.695 77.92 238.257 78.096 237.905 78.448C237.553 78.7893 237.377 79.2533 237.377 79.84H235.985C236.017 78.9333 236.343 78.192 236.961 77.616C237.58 77.0293 238.343 76.736 239.249 76.736C240.263 76.736 241.047 77.0187 241.601 77.584C242.156 78.1387 242.433 78.816 242.433 79.616C242.433 80.32 242.263 80.976 241.921 81.584C241.58 82.1813 241.063 82.864 240.369 83.632L237.505 86.784H242.625V88H235.921ZM244.554 88V86.24H246.314V87.2C246.314 88.288 246.026 89.2747 245.45 90.16H244.57C244.911 89.6373 245.124 88.9173 245.21 88H244.554ZM251.122 88V78.304H249.65V77.088H252.434V88H251.122ZM264.714 80.656C264.714 81.6587 264.33 82.688 263.562 83.744L260.474 88H259.002L261.69 84.368C261.402 84.496 260.992 84.56 260.458 84.56C259.402 84.56 258.522 84.1813 257.818 83.424C257.114 82.6667 256.762 81.744 256.762 80.656C256.762 79.568 257.146 78.6453 257.914 77.888C258.682 77.12 259.626 76.736 260.746 76.736C261.877 76.736 262.821 77.1093 263.578 77.856C264.336 78.592 264.714 79.5253 264.714 80.656ZM263.338 80.64C263.338 79.8613 263.093 79.216 262.602 78.704C262.112 78.1813 261.493 77.92 260.746 77.92C260 77.92 259.376 78.1813 258.874 78.704C258.384 79.216 258.138 79.8613 258.138 80.64C258.138 81.4187 258.378 82.0747 258.858 82.608C259.338 83.1307 259.968 83.392 260.746 83.392C261.514 83.392 262.138 83.136 262.618 82.624C263.098 82.112 263.338 81.4507 263.338 80.64ZM273.699 80.656C273.699 81.6587 273.315 82.688 272.547 83.744L269.459 88H267.987L270.675 84.368C270.387 84.496 269.976 84.56 269.443 84.56C268.387 84.56 267.507 84.1813 266.803 83.424C266.099 82.6667 265.747 81.744 265.747 80.656C265.747 79.568 266.131 78.6453 266.899 77.888C267.667 77.12 268.611 76.736 269.731 76.736C270.861 76.736 271.805 77.1093 272.563 77.856C273.32 78.592 273.699 79.5253 273.699 80.656ZM272.323 80.64C272.323 79.8613 272.077 79.216 271.587 78.704C271.096 78.1813 270.477 77.92 269.731 77.92C268.984 77.92 268.36 78.1813 267.859 78.704C267.368 79.216 267.123 79.8613 267.123 80.64C267.123 81.4187 267.363 82.0747 267.843 82.608C268.323 83.1307 268.952 83.392 269.731 83.392C270.499 83.392 271.123 83.136 271.603 82.624C272.083 82.112 272.323 81.4507 272.323 80.64ZM276.827 79.728C276.827 80.272 277.008 80.7253 277.371 81.088C277.744 81.44 278.182 81.616 278.683 81.616C279.248 81.616 279.702 81.4453 280.043 81.104C280.395 80.752 280.571 80.2933 280.571 79.728C280.571 79.1947 280.395 78.768 280.043 78.448C279.702 78.1173 279.254 77.952 278.699 77.952C278.176 77.952 277.734 78.1173 277.371 78.448C277.008 78.768 276.827 79.1947 276.827 79.728ZM276.475 84.992C276.475 85.6213 276.683 86.1387 277.099 86.544C277.515 86.9493 278.054 87.152 278.715 87.152C279.376 87.152 279.91 86.9653 280.315 86.592C280.72 86.2187 280.923 85.6853 280.923 84.992C280.923 84.3413 280.715 83.8133 280.299 83.408C279.894 83.0027 279.371 82.8 278.731 82.8C278.07 82.8 277.526 83.008 277.099 83.424C276.683 83.8293 276.475 84.352 276.475 84.992ZM282.283 85.008C282.283 85.9573 281.974 86.752 281.355 87.392C280.747 88.0213 279.867 88.336 278.715 88.336C277.563 88.336 276.672 88.0213 276.043 87.392C275.424 86.7627 275.115 85.9947 275.115 85.088C275.115 83.6693 275.782 82.6987 277.115 82.176V82.144C276.006 81.6853 275.451 80.8533 275.451 79.648C275.451 78.8373 275.755 78.1493 276.363 77.584C276.971 77.0187 277.755 76.736 278.715 76.736C279.664 76.736 280.438 77.0187 281.035 77.584C281.643 78.1493 281.947 78.8373 281.947 79.648C281.947 80.256 281.798 80.784 281.499 81.232C281.2 81.6693 280.811 81.9733 280.331 82.144V82.176C281.632 82.6453 282.283 83.5893 282.283 85.008Z"
            fill="white" />
    <path
            d="M205.184 120V109.088H211.344V110.304H206.512V120H205.184ZM209.732 116.16C209.732 114.987 210.122 114.016 210.9 113.248C211.69 112.469 212.666 112.08 213.828 112.08C215.012 112.08 215.988 112.469 216.756 113.248C217.535 114.027 217.924 114.997 217.924 116.16C217.924 117.301 217.535 118.272 216.756 119.072C215.978 119.872 215.002 120.272 213.828 120.272C212.666 120.272 211.69 119.877 210.9 119.088C210.122 118.299 209.732 117.323 209.732 116.16ZM211.044 116.16C211.044 117.003 211.316 117.707 211.86 118.272C212.415 118.837 213.071 119.12 213.828 119.12C214.628 119.12 215.29 118.837 215.812 118.272C216.346 117.707 216.612 117.003 216.612 116.16C216.612 115.328 216.351 114.629 215.828 114.064C215.316 113.499 214.65 113.216 213.828 113.216C213.018 113.216 212.351 113.493 211.828 114.048C211.306 114.603 211.044 115.307 211.044 116.16ZM219.604 123.76V112.336H220.868V113.424H220.9C221.657 112.528 222.617 112.08 223.78 112.08C224.953 112.08 225.887 112.485 226.58 113.296C227.284 114.107 227.636 115.061 227.636 116.16C227.636 117.323 227.263 118.299 226.516 119.088C225.78 119.877 224.852 120.272 223.732 120.272C222.569 120.272 221.625 119.84 220.9 118.976H220.868V123.76H219.604ZM226.324 116.16C226.324 115.349 226.073 114.651 225.572 114.064C225.081 113.477 224.393 113.184 223.508 113.184C222.729 113.184 222.073 113.467 221.54 114.032C221.017 114.587 220.756 115.312 220.756 116.208C220.756 117.061 221.028 117.765 221.572 118.32C222.127 118.875 222.783 119.152 223.54 119.152C224.415 119.152 225.097 118.853 225.588 118.256C226.079 117.659 226.324 116.96 226.324 116.16ZM229.323 120V112.336H230.587V115.808C230.587 116.747 230.571 117.531 230.539 118.16H230.571C230.731 117.861 231.088 117.355 231.643 116.64L234.923 112.336H236.059V120H234.795V116.528C234.795 115.589 234.811 114.805 234.843 114.176H234.811C234.651 114.475 234.293 114.981 233.739 115.696L230.459 120H229.323ZM237.604 118.096H238.948C239.151 118.821 239.706 119.184 240.612 119.184C241.199 119.184 241.647 119.061 241.956 118.816C242.266 118.56 242.42 118.235 242.42 117.84C242.42 117.435 242.26 117.115 241.94 116.88C241.631 116.645 241.274 116.528 240.868 116.528H239.764V115.472H240.868C241.274 115.472 241.599 115.365 241.844 115.152C242.1 114.928 242.228 114.64 242.228 114.288C242.228 113.979 242.095 113.717 241.828 113.504C241.562 113.28 241.194 113.168 240.724 113.168C240.34 113.168 240.004 113.259 239.716 113.44C239.439 113.621 239.258 113.867 239.172 114.176H237.86C237.988 113.525 238.314 113.013 238.836 112.64C239.359 112.267 239.983 112.08 240.708 112.08C241.519 112.08 242.18 112.277 242.692 112.672C243.215 113.056 243.476 113.557 243.476 114.176C243.476 115.104 243.039 115.701 242.164 115.968C242.634 116.107 243.002 116.347 243.268 116.688C243.546 117.019 243.684 117.403 243.684 117.84C243.684 118.565 243.418 119.157 242.884 119.616C242.351 120.064 241.588 120.288 240.596 120.288C239.818 120.288 239.156 120.096 238.612 119.712C238.068 119.328 237.732 118.789 237.604 118.096ZM244.967 116.16C244.967 114.987 245.356 114.016 246.135 113.248C246.924 112.469 247.9 112.08 249.063 112.08C250.247 112.08 251.223 112.469 251.991 113.248C252.769 114.027 253.159 114.997 253.159 116.16C253.159 117.301 252.769 118.272 251.991 119.072C251.212 119.872 250.236 120.272 249.063 120.272C247.9 120.272 246.924 119.877 246.135 119.088C245.356 118.299 244.967 117.323 244.967 116.16ZM246.279 116.16C246.279 117.003 246.551 117.707 247.095 118.272C247.649 118.837 248.305 119.12 249.063 119.12C249.863 119.12 250.524 118.837 251.047 118.272C251.58 117.707 251.847 117.003 251.847 116.16C251.847 115.328 251.585 114.629 251.063 114.064C250.551 113.499 249.884 113.216 249.063 113.216C248.252 113.216 247.585 113.493 247.063 114.048C246.54 114.603 246.279 115.307 246.279 116.16ZM261.574 112.336V120H260.31V116.528H256.102V120H254.838V112.336H256.102V115.472H260.31V112.336H261.574ZM268.448 112.336V113.472H266.288V120H265.024V113.472H262.832V112.336H268.448ZM282.369 120.352C281.463 120.352 280.641 120.197 279.905 119.888C279.18 119.568 278.588 119.147 278.129 118.624C277.681 118.101 277.329 117.531 277.073 116.912C276.828 116.293 276.684 115.643 276.641 114.96H275.121V120H273.793V109.088H275.121V113.744H276.673C276.865 112.325 277.484 111.136 278.529 110.176C279.585 109.216 280.865 108.736 282.369 108.736C284.097 108.736 285.489 109.307 286.545 110.448C287.612 111.589 288.145 112.955 288.145 114.544C288.145 116.155 287.591 117.525 286.481 118.656C285.372 119.787 284.001 120.352 282.369 120.352ZM277.953 114.544C277.953 115.867 278.375 116.971 279.217 117.856C280.06 118.731 281.105 119.168 282.353 119.168C283.601 119.168 284.647 118.731 285.489 117.856C286.343 116.971 286.769 115.867 286.769 114.544C286.769 113.221 286.359 112.123 285.537 111.248C284.716 110.363 283.655 109.92 282.353 109.92C281.105 109.92 280.06 110.357 279.217 111.232C278.375 112.107 277.953 113.211 277.953 114.544ZM295.15 116.416H289.998V115.136H295.15V116.416ZM299.145 111.472H297.785C297.86 110.747 298.169 110.112 298.713 109.568C299.268 109.013 300.036 108.736 301.017 108.736C301.945 108.736 302.692 109.003 303.257 109.536C303.833 110.059 304.121 110.72 304.121 111.52C304.121 112.149 303.924 112.683 303.529 113.12C303.145 113.547 302.665 113.84 302.089 114V114.032C302.793 114.139 303.375 114.448 303.833 114.96C304.292 115.461 304.521 116.128 304.521 116.96C304.521 117.909 304.212 118.709 303.593 119.36C302.985 120.011 302.121 120.336 301.001 120.336C299.956 120.336 299.129 120.053 298.521 119.488C297.913 118.923 297.567 118.208 297.481 117.344H298.889C298.985 117.888 299.22 118.325 299.593 118.656C299.977 118.987 300.473 119.152 301.081 119.152C301.689 119.152 302.185 118.944 302.569 118.528C302.964 118.112 303.161 117.6 303.161 116.992C303.161 116.352 302.953 115.819 302.537 115.392C302.132 114.965 301.503 114.747 300.649 114.736H300.041V113.52H300.569C301.22 113.52 301.743 113.349 302.137 113.008C302.543 112.667 302.745 112.192 302.745 111.584C302.745 111.136 302.596 110.747 302.297 110.416C302.009 110.085 301.577 109.92 301.001 109.92C300.415 109.92 299.967 110.075 299.657 110.384C299.359 110.683 299.188 111.045 299.145 111.472Z"
            fill="white" />
    <path
            d="M205.312 152V150.784L208.816 146.896C209.36 146.288 209.765 145.744 210.032 145.264C210.309 144.773 210.448 144.267 210.448 143.744C210.448 143.221 210.283 142.789 209.952 142.448C209.632 142.096 209.184 141.92 208.608 141.92C208.085 141.92 207.648 142.096 207.296 142.448C206.944 142.789 206.768 143.253 206.768 143.84H205.376C205.408 142.933 205.733 142.192 206.352 141.616C206.971 141.029 207.733 140.736 208.64 140.736C209.653 140.736 210.437 141.019 210.992 141.584C211.547 142.139 211.824 142.816 211.824 143.616C211.824 144.32 211.653 144.976 211.312 145.584C210.971 146.181 210.453 146.864 209.76 147.632L206.896 150.784H212.016V152H205.312ZM216.184 142.304L215.88 145.2C216.307 145.083 216.787 145.024 217.32 145.024C218.483 145.024 219.416 145.339 220.12 145.968C220.835 146.587 221.192 147.445 221.192 148.544C221.192 148.992 221.112 149.44 220.952 149.888C220.792 150.325 220.563 150.731 220.264 151.104C219.966 151.477 219.571 151.776 219.08 152C218.59 152.235 218.046 152.352 217.448 152.352C216.392 152.352 215.539 152.064 214.888 151.488C214.238 150.912 213.87 150.197 213.784 149.344H215.192C215.278 149.867 215.512 150.299 215.896 150.64C216.291 150.981 216.824 151.152 217.496 151.152C218.147 151.152 218.696 150.928 219.144 150.48C219.592 150.032 219.816 149.451 219.816 148.736C219.816 147.925 219.582 147.307 219.112 146.88C218.654 146.453 217.987 146.24 217.112 146.24C216.334 146.24 215.454 146.384 214.472 146.672L215 141.088H220.44V142.304H216.184ZM230.449 144.656C230.449 145.659 230.065 146.688 229.297 147.744L226.209 152H224.737L227.425 148.368C227.137 148.496 226.726 148.56 226.193 148.56C225.137 148.56 224.257 148.181 223.553 147.424C222.849 146.667 222.497 145.744 222.497 144.656C222.497 143.568 222.881 142.645 223.649 141.888C224.417 141.12 225.361 140.736 226.481 140.736C227.611 140.736 228.555 141.109 229.313 141.856C230.07 142.592 230.449 143.525 230.449 144.656ZM229.073 144.64C229.073 143.861 228.827 143.216 228.337 142.704C227.846 142.181 227.227 141.92 226.481 141.92C225.734 141.92 225.11 142.181 224.609 142.704C224.118 143.216 223.873 143.861 223.873 144.64C223.873 145.419 224.113 146.075 224.593 146.608C225.073 147.131 225.702 147.392 226.481 147.392C227.249 147.392 227.873 147.136 228.353 146.624C228.833 146.112 229.073 145.451 229.073 144.64ZM239.433 144.656C239.433 145.659 239.049 146.688 238.281 147.744L235.193 152H233.721L236.409 148.368C236.121 148.496 235.71 148.56 235.177 148.56C234.121 148.56 233.241 148.181 232.537 147.424C231.833 146.667 231.481 145.744 231.481 144.656C231.481 143.568 231.865 142.645 232.633 141.888C233.401 141.12 234.345 140.736 235.465 140.736C236.596 140.736 237.54 141.109 238.297 141.856C239.054 142.592 239.433 143.525 239.433 144.656ZM238.057 144.64C238.057 143.861 237.812 143.216 237.321 142.704C236.83 142.181 236.212 141.92 235.465 141.92C234.718 141.92 234.094 142.181 233.593 142.704C233.102 143.216 232.857 143.861 232.857 144.64C232.857 145.419 233.097 146.075 233.577 146.608C234.057 147.131 234.686 147.392 235.465 147.392C236.233 147.392 236.857 147.136 237.337 146.624C237.817 146.112 238.057 145.451 238.057 144.64ZM246.338 148.416H241.186V147.136H246.338V148.416ZM248.781 152V150.784L252.285 146.896C252.829 146.288 253.234 145.744 253.501 145.264C253.778 144.773 253.917 144.267 253.917 143.744C253.917 143.221 253.751 142.789 253.421 142.448C253.101 142.096 252.653 141.92 252.077 141.92C251.554 141.92 251.117 142.096 250.765 142.448C250.413 142.789 250.237 143.253 250.237 143.84H248.845C248.877 142.933 249.202 142.192 249.821 141.616C250.439 141.029 251.202 140.736 252.109 140.736C253.122 140.736 253.906 141.019 254.461 141.584C255.015 142.139 255.293 142.816 255.293 143.616C255.293 144.32 255.122 144.976 254.781 145.584C254.439 146.181 253.922 146.864 253.229 147.632L250.365 150.784H255.485V152H248.781ZM256.965 148.432C256.965 147.429 257.349 146.4 258.117 145.344L261.205 141.088H262.677L259.989 144.72C260.277 144.592 260.688 144.528 261.221 144.528C262.277 144.528 263.157 144.907 263.861 145.664C264.565 146.421 264.917 147.344 264.917 148.432C264.917 149.52 264.533 150.448 263.765 151.216C262.997 151.973 262.053 152.352 260.933 152.352C259.802 152.352 258.858 151.984 258.101 151.248C257.344 150.501 256.965 149.563 256.965 148.432ZM258.341 148.448C258.341 149.227 258.586 149.877 259.077 150.4C259.568 150.912 260.186 151.168 260.933 151.168C261.68 151.168 262.298 150.912 262.789 150.4C263.29 149.877 263.541 149.227 263.541 148.448C263.541 147.669 263.301 147.019 262.821 146.496C262.341 145.963 261.712 145.696 260.933 145.696C260.165 145.696 259.541 145.952 259.061 146.464C258.581 146.976 258.341 147.637 258.341 148.448ZM268.302 143.472H266.942C267.016 142.747 267.326 142.112 267.87 141.568C268.424 141.013 269.192 140.736 270.174 140.736C271.102 140.736 271.848 141.003 272.414 141.536C272.99 142.059 273.278 142.72 273.278 143.52C273.278 144.149 273.08 144.683 272.686 145.12C272.302 145.547 271.822 145.84 271.246 146V146.032C271.95 146.139 272.531 146.448 272.99 146.96C273.448 147.461 273.678 148.128 273.678 148.96C273.678 149.909 273.368 150.709 272.75 151.36C272.142 152.011 271.278 152.336 270.158 152.336C269.112 152.336 268.286 152.053 267.678 151.488C267.07 150.923 266.723 150.208 266.638 149.344H268.046C268.142 149.888 268.376 150.325 268.75 150.656C269.134 150.987 269.63 151.152 270.238 151.152C270.846 151.152 271.342 150.944 271.726 150.528C272.12 150.112 272.318 149.6 272.318 148.992C272.318 148.352 272.11 147.819 271.694 147.392C271.288 146.965 270.659 146.747 269.806 146.736H269.198V145.52H269.726C270.376 145.52 270.899 145.349 271.294 145.008C271.699 144.667 271.902 144.192 271.902 143.584C271.902 143.136 271.752 142.747 271.454 142.416C271.166 142.085 270.734 141.92 270.158 141.92C269.571 141.92 269.123 142.075 268.814 142.384C268.515 142.683 268.344 143.045 268.302 143.472ZM274.998 146.48C274.998 145.477 275.11 144.592 275.334 143.824C275.569 143.056 275.878 142.459 276.262 142.032C276.657 141.595 277.078 141.269 277.526 141.056C277.974 140.843 278.449 140.736 278.95 140.736C279.441 140.736 279.899 140.832 280.326 141.024C280.763 141.216 281.174 141.52 281.558 141.936C281.953 142.352 282.262 142.944 282.486 143.712C282.721 144.48 282.838 145.381 282.838 146.416C282.838 147.344 282.747 148.171 282.566 148.896C282.395 149.611 282.177 150.181 281.91 150.608C281.643 151.024 281.329 151.371 280.966 151.648C280.603 151.925 280.257 152.112 279.926 152.208C279.606 152.304 279.275 152.352 278.934 152.352C278.443 152.352 277.979 152.256 277.542 152.064C277.105 151.872 276.689 151.568 276.294 151.152C275.899 150.725 275.585 150.112 275.35 149.312C275.115 148.512 274.998 147.568 274.998 146.48ZM281.478 146.48C281.478 144.965 281.254 143.829 280.806 143.072C280.369 142.304 279.739 141.92 278.918 141.92C278.171 141.92 277.558 142.288 277.078 143.024C276.609 143.749 276.374 144.885 276.374 146.432C276.374 149.589 277.238 151.168 278.966 151.168C279.691 151.168 280.289 150.789 280.758 150.032C281.238 149.275 281.478 148.091 281.478 146.48Z"
            fill="white" />
</svg>
