<svg width="24" height="24" viewBox="0 0 24 24" fill="none" xmlns="http://www.w3.org/2000/svg">
<path fill-rule="evenodd" clip-rule="evenodd" d="M11.9997 -1.90735e-06C18.6266 -1.90735e-06 24 5.37184 24 12.0003C24 18.6281 18.6266 24 11.9997 24C5.37287 24 0 18.6281 0 12.0003C0 5.37184 5.37287 -1.90735e-06 11.9997 -1.90735e-06ZM1.97324 7.56562C3.09317 4.97738 5.17333 2.90524 7.77317 1.80666C9.1601 3.25989 9.25312 3.86847 9.66624 3.89742C10.1468 3.9292 11.1733 3.65472 11.2396 4.30158C11.3062 4.9481 9.08001 5.20681 8.89303 6.17733C8.72025 7.14785 7.2531 7.62579 6.58637 7.74647C5.93337 7.86805 4.83963 7.29375 4.57307 7.94152C4.31957 8.58827 5.97298 9.97107 5.41308 10.5213C4.8534 11.071 3.74675 10.1816 2.73342 8.68541L1.97324 7.56562ZM16.9867 2.12006C18.1201 2.69222 19.1331 3.45491 19.9997 4.36436C19.1598 4.99601 18.2263 5.63766 17.5866 5.91091C16.1062 6.53359 15.9199 5.1347 15.3065 5.20838C14.6931 5.28013 13.0665 5.40923 12.7733 4.89235C12.4931 4.37456 13.3332 3.9218 14.6269 3.6389C15.7066 3.4014 16.0132 2.98535 16.9867 2.12006ZM21.6531 6.63076C22.5201 8.19763 23.0134 9.99774 23.0134 11.9121C23.0134 14.771 21.9199 17.3747 20.1198 19.3271C18.6266 18.0885 19.5063 15.9151 18.7601 14.9297C17.9865 13.8935 17.9199 12.7214 18.0265 11.9372C18.1202 11.1521 17.1601 10.5696 15.1997 10.5696C13.2531 10.5696 12.4531 8.2083 12.7332 7.28569C12.9998 6.36432 15.6396 6.83347 17.4664 7.73905C19.0266 8.51363 19.2801 7.76283 21.6531 6.63076ZM9.09287 19.7017C9.37316 18.2294 9.04008 17.4857 9.7999 17.2029C10.56 16.9188 12.1732 14.6626 12.1066 14.1455C12.04 13.6271 11.7995 13.8871 10.96 13.4416C10.1201 12.9959 10.16 11.7269 9.3333 11.8163C8.49333 11.9041 8.22652 12.204 7.75993 11.7188C7.30651 11.2335 7.27989 10.6987 6.61304 10.9506C5.96016 11.2016 4.78621 11.9933 5.15982 13.1096C5.51992 14.2256 7.30653 14.2414 7.53335 14.8896C7.75995 15.536 7.41338 18.2134 7.56017 19.1189C7.7065 20.0254 8.89306 20.5909 9.09287 19.7017Z" fill="white"/>
</svg>
