<svg width="1333" height="860" viewBox="0 0 1333 860" fill="none" xmlns="http://www.w3.org/2000/svg">
<line x1="19.5" y1="2.19254e-08" x2="19.5" y2="860" stroke="#545580" stroke-opacity="0.3"/>
<line x1="39.5" y1="2.19254e-08" x2="39.5" y2="860" stroke="#545580" stroke-opacity="0.3"/>
<line x1="59.5" y1="2.19254e-08" x2="59.5" y2="860" stroke="#545580" stroke-opacity="0.3"/>
<line x1="79.5" y1="2.19254e-08" x2="79.5" y2="860" stroke="#545580" stroke-opacity="0.3"/>
<line x1="99.5" y1="2.19254e-08" x2="99.5" y2="860" stroke="#545580" stroke-opacity="0.3"/>
<line x1="119.5" y1="2.19254e-08" x2="119.5" y2="860" stroke="#545580" stroke-opacity="0.3"/>
<line x1="139.5" y1="2.19254e-08" x2="139.5" y2="860" stroke="#545580" stroke-opacity="0.3"/>
<line x1="159.5" y1="2.19254e-08" x2="159.5" y2="860" stroke="#545580" stroke-opacity="0.3"/>
<line x1="179.5" y1="2.19254e-08" x2="179.5" y2="860" stroke="#545580" stroke-opacity="0.3"/>
<line x1="199.5" y1="2.19254e-08" x2="199.5" y2="860" stroke="#545580" stroke-opacity="0.3"/>
<line x1="219.5" y1="2.19254e-08" x2="219.5" y2="860" stroke="#545580" stroke-opacity="0.3"/>
<line x1="239.5" y1="2.19254e-08" x2="239.5" y2="860" stroke="#545580" stroke-opacity="0.3"/>
<line x1="259.5" y1="2.19254e-08" x2="259.5" y2="860" stroke="#545580" stroke-opacity="0.3"/>
<line x1="279.5" y1="2.19254e-08" x2="279.5" y2="860" stroke="#545580" stroke-opacity="0.3"/>
<line x1="299.5" y1="2.19254e-08" x2="299.5" y2="860" stroke="#545580" stroke-opacity="0.3"/>
<line x1="319.5" y1="2.19254e-08" x2="319.5" y2="860" stroke="#545580" stroke-opacity="0.3"/>
<line x1="339.5" y1="2.19254e-08" x2="339.5" y2="860" stroke="#545580" stroke-opacity="0.3"/>
<line x1="359.5" y1="2.19254e-08" x2="359.5" y2="860" stroke="#545580" stroke-opacity="0.3"/>
<line x1="379.5" y1="2.19254e-08" x2="379.5" y2="860" stroke="#545580" stroke-opacity="0.3"/>
<line x1="399.5" y1="2.19254e-08" x2="399.5" y2="860" stroke="#545580" stroke-opacity="0.3"/>
<line x1="419.5" y1="2.19254e-08" x2="419.5" y2="860" stroke="#545580" stroke-opacity="0.3"/>
<line x1="439.5" y1="2.19254e-08" x2="439.5" y2="860" stroke="#545580" stroke-opacity="0.3"/>
<line x1="459.5" y1="2.19254e-08" x2="459.5" y2="860" stroke="#545580" stroke-opacity="0.3"/>
<line x1="479.5" y1="2.19254e-08" x2="479.5" y2="860" stroke="#545580" stroke-opacity="0.3"/>
<line x1="2.19254e-08" y1="479.5" x2="1333" y2="479.5" stroke="#545580" stroke-opacity="0.3"/>
<line x1="2.19254e-08" y1="459.5" x2="1333" y2="459.5" stroke="#545580" stroke-opacity="0.3"/>
<line x1="2.19254e-08" y1="439.5" x2="1333" y2="439.5" stroke="#545580" stroke-opacity="0.3"/>
<line x1="2.19254e-08" y1="419.5" x2="1333" y2="419.5" stroke="#545580" stroke-opacity="0.3"/>
<line x1="2.19254e-08" y1="399.5" x2="1333" y2="399.5" stroke="#545580" stroke-opacity="0.3"/>
<line x1="2.19254e-08" y1="379.5" x2="1333" y2="379.5" stroke="#545580" stroke-opacity="0.3"/>
<line x1="2.19254e-08" y1="359.5" x2="1333" y2="359.5" stroke="#545580" stroke-opacity="0.3"/>
<line x1="2.19254e-08" y1="339.5" x2="1333" y2="339.5" stroke="#545580" stroke-opacity="0.3"/>
<line x1="2.19254e-08" y1="319.5" x2="1333" y2="319.5" stroke="#545580" stroke-opacity="0.3"/>
<line x1="2.19254e-08" y1="299.5" x2="1333" y2="299.5" stroke="#545580" stroke-opacity="0.3"/>
<line x1="2.19254e-08" y1="279.5" x2="1333" y2="279.5" stroke="#545580" stroke-opacity="0.3"/>
<line x1="2.19254e-08" y1="259.5" x2="1333" y2="259.5" stroke="#545580" stroke-opacity="0.3"/>
<line x1="2.19254e-08" y1="239.5" x2="1333" y2="239.5" stroke="#545580" stroke-opacity="0.3"/>
<line x1="2.19254e-08" y1="219.5" x2="1333" y2="219.5" stroke="#545580" stroke-opacity="0.3"/>
<line x1="2.19254e-08" y1="199.5" x2="1333" y2="199.5" stroke="#545580" stroke-opacity="0.3"/>
<line x1="2.19254e-08" y1="179.5" x2="1333" y2="179.5" stroke="#545580" stroke-opacity="0.3"/>
<line x1="2.19254e-08" y1="159.5" x2="1333" y2="159.5" stroke="#545580" stroke-opacity="0.3"/>
<line x1="2.19254e-08" y1="139.5" x2="1333" y2="139.5" stroke="#545580" stroke-opacity="0.3"/>
<line x1="2.19254e-08" y1="119.5" x2="1333" y2="119.5" stroke="#545580" stroke-opacity="0.3"/>
<line x1="2.19254e-08" y1="99.5" x2="1333" y2="99.5001" stroke="#545580" stroke-opacity="0.3"/>
<line x1="2.19254e-08" y1="79.5" x2="1333" y2="79.5001" stroke="#545580" stroke-opacity="0.3"/>
<line x1="2.19254e-08" y1="59.5" x2="1333" y2="59.5001" stroke="#545580" stroke-opacity="0.3"/>
<line x1="2.19254e-08" y1="39.5" x2="1333" y2="39.5001" stroke="#545580" stroke-opacity="0.3"/>
<line x1="2.19254e-08" y1="19.5" x2="1333" y2="19.5001" stroke="#545580" stroke-opacity="0.3"/>
<line x1="2.19254e-08" y1="779.503" x2="1333" y2="779.503" stroke="#545580" stroke-opacity="0.3"/>
<line x1="2.19254e-08" y1="759.503" x2="1333" y2="759.503" stroke="#545580" stroke-opacity="0.3"/>
<line x1="2.19254e-08" y1="739.503" x2="1333" y2="739.503" stroke="#545580" stroke-opacity="0.3"/>
<line x1="2.27268e-08" y1="839.5" x2="1333" y2="839.5" stroke="#545580" stroke-opacity="0.3"/>
<line x1="2.27268e-08" y1="819.5" x2="1333" y2="819.5" stroke="#545580" stroke-opacity="0.3"/>
<line x1="2.27268e-08" y1="799.5" x2="1333" y2="799.5" stroke="#545580" stroke-opacity="0.3"/>
<line x1="2.19254e-08" y1="719.503" x2="1333" y2="719.503" stroke="#545580" stroke-opacity="0.3"/>
<line x1="2.19254e-08" y1="699.503" x2="1333" y2="699.503" stroke="#545580" stroke-opacity="0.3"/>
<line x1="2.19254e-08" y1="679.503" x2="1333" y2="679.503" stroke="#545580" stroke-opacity="0.3"/>
<line x1="2.19254e-08" y1="659.503" x2="1333" y2="659.503" stroke="#545580" stroke-opacity="0.3"/>
<line x1="2.19254e-08" y1="639.503" x2="1333" y2="639.503" stroke="#545580" stroke-opacity="0.3"/>
<line x1="2.19254e-08" y1="619.503" x2="1333" y2="619.503" stroke="#545580" stroke-opacity="0.3"/>
<line x1="2.19254e-08" y1="599.503" x2="1333" y2="599.503" stroke="#545580" stroke-opacity="0.3"/>
<line x1="2.19254e-08" y1="579.503" x2="1333" y2="579.503" stroke="#545580" stroke-opacity="0.3"/>
<line x1="2.19254e-08" y1="559.503" x2="1333" y2="559.503" stroke="#545580" stroke-opacity="0.3"/>
<line x1="2.19254e-08" y1="539.503" x2="1333" y2="539.503" stroke="#545580" stroke-opacity="0.3"/>
<line x1="2.19254e-08" y1="519.503" x2="1333" y2="519.503" stroke="#545580" stroke-opacity="0.3"/>
<line x1="2.19254e-08" y1="499.503" x2="1333" y2="499.503" stroke="#545580" stroke-opacity="0.3"/>
<line x1="499.5" y1="2.19254e-08" x2="499.5" y2="860" stroke="#545580" stroke-opacity="0.3"/>
<line x1="519.5" y1="2.19254e-08" x2="519.5" y2="860" stroke="#545580" stroke-opacity="0.3"/>
<line x1="539.5" y1="2.19254e-08" x2="539.5" y2="860" stroke="#545580" stroke-opacity="0.3"/>
<line x1="559.5" y1="2.19254e-08" x2="559.5" y2="860" stroke="#545580" stroke-opacity="0.3"/>
<line x1="579.5" y1="2.19254e-08" x2="579.5" y2="860" stroke="#545580" stroke-opacity="0.3"/>
<line x1="599.5" y1="2.19254e-08" x2="599.5" y2="860" stroke="#545580" stroke-opacity="0.3"/>
<line x1="619.5" y1="2.19254e-08" x2="619.5" y2="860" stroke="#545580" stroke-opacity="0.3"/>
<line x1="639.5" y1="2.19254e-08" x2="639.5" y2="860" stroke="#545580" stroke-opacity="0.3"/>
<line x1="659.5" y1="2.19254e-08" x2="659.5" y2="860" stroke="#545580" stroke-opacity="0.3"/>
<line x1="679.5" y1="2.19254e-08" x2="679.5" y2="860" stroke="#545580" stroke-opacity="0.3"/>
<line x1="699.5" y1="2.19254e-08" x2="699.5" y2="860" stroke="#545580" stroke-opacity="0.3"/>
<line x1="719.5" y1="2.19254e-08" x2="719.5" y2="860" stroke="#545580" stroke-opacity="0.3"/>
<line x1="739.5" y1="2.19254e-08" x2="739.5" y2="860" stroke="#545580" stroke-opacity="0.3"/>
<line x1="759.5" y1="2.19254e-08" x2="759.5" y2="860" stroke="#545580" stroke-opacity="0.3"/>
<line x1="779.5" y1="2.19254e-08" x2="779.5" y2="860" stroke="#545580" stroke-opacity="0.3"/>
<line x1="799.5" y1="2.19254e-08" x2="799.5" y2="860" stroke="#545580" stroke-opacity="0.3"/>
<line x1="819.5" y1="2.19254e-08" x2="819.5" y2="860" stroke="#545580" stroke-opacity="0.3"/>
<line x1="839.5" y1="2.19254e-08" x2="839.5" y2="860" stroke="#545580" stroke-opacity="0.3"/>
<line x1="859.5" y1="2.19254e-08" x2="859.5" y2="860" stroke="#545580" stroke-opacity="0.3"/>
<line x1="879.5" y1="2.19254e-08" x2="879.5" y2="860" stroke="#545580" stroke-opacity="0.3"/>
<line x1="899.5" y1="2.19254e-08" x2="899.5" y2="860" stroke="#545580" stroke-opacity="0.3"/>
<line x1="919.5" y1="2.19254e-08" x2="919.5" y2="860" stroke="#545580" stroke-opacity="0.3"/>
<line x1="939.5" y1="2.19254e-08" x2="939.5" y2="860" stroke="#545580" stroke-opacity="0.3"/>
<line x1="959.5" y1="2.19254e-08" x2="959.5" y2="860" stroke="#545580" stroke-opacity="0.3"/>
<line x1="979.5" y1="2.19254e-08" x2="979.5" y2="860" stroke="#545580" stroke-opacity="0.3"/>
<line x1="999.5" y1="2.19254e-08" x2="999.5" y2="860" stroke="#545580" stroke-opacity="0.3"/>
<line x1="1019.5" y1="2.19254e-08" x2="1019.5" y2="860" stroke="#545580" stroke-opacity="0.3"/>
<line x1="1039.5" y1="2.19254e-08" x2="1039.5" y2="860" stroke="#545580" stroke-opacity="0.3"/>
<line x1="1059.5" y1="2.19254e-08" x2="1059.5" y2="860" stroke="#545580" stroke-opacity="0.3"/>
<line x1="1079.5" y1="2.19254e-08" x2="1079.5" y2="860" stroke="#545580" stroke-opacity="0.3"/>
<line x1="1099.5" y1="2.19254e-08" x2="1099.5" y2="860" stroke="#545580" stroke-opacity="0.3"/>
<line x1="1119.5" y1="2.19254e-08" x2="1119.5" y2="860" stroke="#545580" stroke-opacity="0.3"/>
<line x1="1139.5" y1="2.19254e-08" x2="1139.5" y2="860" stroke="#545580" stroke-opacity="0.3"/>
<line x1="1159.5" y1="2.19254e-08" x2="1159.5" y2="860" stroke="#545580" stroke-opacity="0.3"/>
<line x1="1179.5" y1="2.19254e-08" x2="1179.5" y2="860" stroke="#545580" stroke-opacity="0.3"/>
<line x1="1199.5" y1="2.19254e-08" x2="1199.5" y2="860" stroke="#545580" stroke-opacity="0.3"/>
<line x1="1219.5" y1="2.19254e-08" x2="1219.5" y2="860" stroke="#545580" stroke-opacity="0.3"/>
<line x1="1239.5" y1="2.19254e-08" x2="1239.5" y2="860" stroke="#545580" stroke-opacity="0.3"/>
<line x1="1259.5" y1="2.19254e-08" x2="1259.5" y2="860" stroke="#545580" stroke-opacity="0.3"/>
<line x1="1279.5" y1="2.19254e-08" x2="1279.5" y2="860" stroke="#545580" stroke-opacity="0.3"/>
<line x1="1299.5" y1="2.19254e-08" x2="1299.5" y2="860" stroke="#545580" stroke-opacity="0.3"/>
<line x1="1319.5" y1="2.19254e-08" x2="1319.5" y2="860" stroke="#545580" stroke-opacity="0.3"/>
</svg>
