<svg width="24" height="24" viewBox="0 0 24 24" fill="none" xmlns="http://www.w3.org/2000/svg">
<path fill-rule="evenodd" clip-rule="evenodd" d="M20.5069 -6.10352e-05H3.50704C1.60018 -6.10352e-05 0 1.59973 0 3.49961V9.4999C0 9.94104 0.360368 10.3 0.8003 10.3H5.00007V23.2C5.00007 23.6411 5.36018 23.9999 5.80037 23.9999H23.2005C23.6404 23.9999 24 23.6411 24 23.2V3.49961C24 1.59973 22.4002 -6.10352e-05 20.5069 -6.10352e-05ZM5.00007 8.29961H2.26664C2.12031 8.29961 2.00026 8.17993 2.00026 8.03307V3.49961C2.00026 2.70009 2.70658 2.00012 3.50704 2.00012C4.30683 2.00012 5.00007 2.70009 5.00007 3.49961V8.29961ZM9.507 3.99997H19.5068V5.9999H9.507V3.99997ZM9.507 8.00008H19.5068V9.99993H9.507V8.00008ZM12.0002 20.0003H10.0005V17.0001H12.0002V20.0003ZM15.9999 20.0003H14V14.9998H15.9999V20.0003ZM20.0005 20.0003H18.0002V13.0001H20.0005V20.0003Z" fill="white"/>
</svg>
