<svg width="29" height="24" viewBox="0 0 29 24" fill="none" xmlns="http://www.w3.org/2000/svg">
<path fill-rule="evenodd" clip-rule="evenodd" d="M22.5137 9.71214C21.1932 9.71214 19.8646 10.1186 18.7176 10.9644C18.6075 11.044 18.5015 11.128 18.4001 11.2169C15.783 13.414 15.2578 17.3467 17.2751 20.1798C19.3238 23.0505 23.2346 23.7452 26.1115 21.7985C26.1811 21.7475 26.2562 21.6946 26.3258 21.6437C29.2188 19.5092 29.8656 15.3772 27.769 12.4327C26.4986 10.657 24.5208 9.71214 22.5137 9.71214ZM26.0679 20.793C26.0633 20.8007 26.0633 20.8129 26.0608 20.8216C26.0521 20.8578 26.0405 20.8936 26.0244 20.9255C26.0174 20.9373 26.0129 20.9446 26.0052 20.957C25.978 20.9975 25.9507 21.0337 25.9112 21.0603C25.8766 21.0885 25.8402 21.1037 25.8011 21.1205C25.7619 21.1323 25.7199 21.1367 25.6808 21.1367C25.6256 21.1367 25.5665 21.1247 25.5109 21.0965C25.5109 21.0965 25.5084 21.0966 25.5039 21.0933C25.4993 21.0933 25.4993 21.0933 25.4969 21.0933L20.2143 18.224C20.1083 18.1686 20.0346 18.0649 20.0098 17.9419L18.9756 11.9423C18.9686 11.8985 18.9714 11.8585 18.9756 11.8183C18.9756 11.8057 18.9802 11.7984 18.9833 11.7865C18.9917 11.7503 19.0036 11.7189 19.0196 11.6874C19.0267 11.6754 19.0312 11.6636 19.0382 11.6516C19.0654 11.6155 19.0934 11.5796 19.1326 11.551V11.5479C19.1717 11.5197 19.2151 11.5029 19.2584 11.491C19.27 11.4877 19.2847 11.483 19.2979 11.483C19.3326 11.4759 19.3676 11.4758 19.4039 11.479C19.4109 11.479 19.4225 11.479 19.4301 11.479C19.4734 11.4877 19.5094 11.5001 19.5483 11.5196L24.8298 14.3827C24.9354 14.4431 25.0106 14.5462 25.0343 14.6662L26.0679 20.6702C26.0723 20.7093 26.0723 20.753 26.0679 20.793Z" fill="white"/>
<path fill-rule="evenodd" clip-rule="evenodd" d="M16.4966 12.188C16.6745 11.9168 17.3996 11.1639 17.8594 10.7336C17.8594 10.7336 18.0479 12.1899 17.2172 8.58106C17.1158 8.1464 17.0057 7.66719 16.8851 7.12945C16.6021 5.86732 16.798 4.73074 17.4682 3.74992C18.9341 1.60762 22.2211 0.857813 23.2909 0.662619V0.000120163H13.3732C14.1812 1.2495 15.5758 4.05009 13.7923 6.42241C12.6131 7.98984 10.8661 8.38141 9.41592 8.38141C8.56639 8.38141 7.81404 8.24478 7.34277 8.13379V14.5282C8.4793 14.7155 11.9362 15.4898 11.8695 18.0499C11.8447 18.9557 12.2842 19.2423 13.1309 19.7178C14.0867 20.2472 15.2579 20.9025 15.3873 23.0597H19.8348C19.8348 23.0597 18.5439 22.5375 17.8594 21.8985C16.8127 20.9188 16.3557 20.1977 16.3557 20.1977C14.8276 17.6853 14.9492 14.5491 16.4966 12.188Z" fill="white"/>
<path fill-rule="evenodd" clip-rule="evenodd" d="M22.5217 16.1378C22.4853 16.1378 22.4551 16.1499 22.4232 16.1709C22.3517 16.222 22.3361 16.3306 22.3882 16.4027C22.4232 16.4506 22.4713 16.4676 22.494 16.4705C22.5217 16.4748 22.5683 16.4748 22.616 16.4432C22.6671 16.4074 22.6787 16.3592 22.6833 16.3306C22.6875 16.3063 22.6921 16.2554 22.6556 16.2072C22.6237 16.1618 22.5729 16.1378 22.5217 16.1378Z" fill="white"/>
<path fill-rule="evenodd" clip-rule="evenodd" d="M23.2895 8.96642V1.47718C22.1917 1.69305 19.3355 2.41488 18.109 4.20582C17.5654 5.00791 17.4116 5.90518 17.6465 6.95502C17.7681 7.48906 17.8782 7.96758 17.9754 8.39791C18.1321 9.08313 18.1233 9.30385 18.3639 10.2506C19.8536 9.18992 21.6052 8.77875 23.2895 8.96642ZM22.7301 7.72162C22.7301 7.94042 22.5529 8.12054 22.3386 8.12054H21.7037C21.4876 8.12054 21.3118 7.94042 21.3118 7.72162C21.3118 7.50104 21.4876 7.32248 21.7037 7.32248H22.3386C22.5529 7.32248 22.7301 7.50104 22.7301 7.72162ZM21.1786 3.58055H21.8138C22.0282 3.58055 22.2051 3.75548 22.2051 3.97899C22.2051 4.19817 22.0282 4.37682 21.8138 4.37682H21.1786C20.9601 4.37682 20.7874 4.19817 20.7874 3.97899C20.7874 3.75548 20.9601 3.58055 21.1786 3.58055ZM18.7558 5.60067H19.3911C19.6051 5.60067 19.7823 5.77886 19.7823 5.99919C19.7823 6.22335 19.6051 6.39842 19.3911 6.39842H18.7558C18.5366 6.39842 18.3639 6.22335 18.3639 5.99919C18.3639 5.77886 18.5366 5.60067 18.7558 5.60067Z" fill="white"/>
<path fill-rule="evenodd" clip-rule="evenodd" d="M23.3088 17.196C23.4658 17.141 23.6427 17.196 23.744 17.3389L25.0013 19.1073L24.2919 14.9976L20.6762 13.0357L21.9335 14.8027C22.0638 14.9824 22.0244 15.2302 21.8475 15.3607C21.7764 15.4131 21.6981 15.437 21.6198 15.437C21.4982 15.437 21.3776 15.3817 21.2993 15.2739L20.041 13.5069L20.7501 17.6151L24.3677 19.5739L23.1088 17.8069C22.9802 17.6315 23.0189 17.3793 23.1959 17.2518C23.2312 17.2236 23.2701 17.2086 23.3088 17.196ZM22.9484 17.1631C22.8144 17.235 22.6698 17.2717 22.5219 17.2717C22.4736 17.2717 22.4232 17.268 22.3722 17.2597C22.1212 17.2159 21.9026 17.081 21.753 16.8723C21.495 16.5063 21.523 16.0161 21.7967 15.6844C21.8429 15.6248 21.9026 15.572 21.9653 15.5239C22.3883 15.2139 22.9802 15.3094 23.2885 15.7397C23.4381 15.9465 23.4972 16.2033 23.4585 16.4586C23.4189 16.7136 23.2815 16.937 23.0787 17.0839C23.0347 17.1168 22.9959 17.1439 22.9484 17.1631Z" fill="white"/>
<path fill-rule="evenodd" clip-rule="evenodd" d="M12.7541 20.4185C11.9549 19.971 11.0458 19.4645 11.0854 18.0291C11.1328 16.2022 8.42134 15.5363 7.34277 15.3399V23.0624H14.5996C14.4867 21.3873 13.6444 20.9135 12.7541 20.4185ZM9.45092 20.8097H8.81735C8.59646 20.8097 8.4244 20.6347 8.4244 20.4104C8.4244 20.1906 8.59646 20.012 8.81735 20.012H9.45092C9.66701 20.012 9.84387 20.1906 9.84387 20.4104C9.84387 20.6347 9.66701 20.8097 9.45092 20.8097ZM10.0861 17.7937H9.45092C9.2362 17.7937 9.05971 17.6135 9.05971 17.3947C9.05971 17.1709 9.2362 16.9956 9.45092 16.9956H10.0861C10.3022 16.9956 10.4773 17.1709 10.4773 17.3947C10.4773 17.6135 10.3022 17.7937 10.0861 17.7937ZM13.3616 22.2494H12.7264C12.5117 22.2494 12.3349 22.0701 12.3349 21.8505C12.3349 21.627 12.5117 21.452 12.7264 21.452H13.3616C13.5819 21.452 13.7529 21.627 13.7529 21.8505C13.7529 22.0701 13.5819 22.2494 13.3616 22.2494Z" fill="white"/>
<path fill-rule="evenodd" clip-rule="evenodd" d="M7.34142 7.31184C8.28949 7.55233 11.4983 8.15837 13.1673 5.93647C14.8884 3.6509 12.9138 0.678303 12.4118 0.00022459H6.39258C6.98903 0.39189 7.34142 0.901461 7.34142 1.46842V7.31184ZM12.4073 3.38653H13.0425C13.2617 3.38653 13.4344 3.56704 13.4344 3.78584C13.4344 4.00936 13.2617 4.18507 13.0425 4.18507H12.4073C12.1929 4.18507 12.016 4.00936 12.016 3.78584C12.016 3.56704 12.1929 3.38653 12.4073 3.38653ZM11.6867 5.96403C11.6867 6.18283 11.5101 6.36279 11.2955 6.36279H10.6602C10.4441 6.36279 10.269 6.18283 10.269 5.96403C10.269 5.74051 10.4441 5.56465 10.6602 5.56465H11.2955C11.5101 5.56465 11.6867 5.74051 11.6867 5.96403ZM9.76705 0.607748H10.4022C10.6169 0.607748 10.7938 0.783198 10.7938 1.00518C10.7938 1.22577 10.6169 1.40371 10.4022 1.40371H9.76705C9.55097 1.40371 9.37545 1.22577 9.37545 1.00518C9.37545 0.783198 9.55097 0.607748 9.76705 0.607748ZM8.17662 3.38653H8.81426C9.03034 3.38653 9.20585 3.56704 9.20585 3.78584C9.20585 4.00936 9.03034 4.18507 8.81426 4.18507H8.17662C7.96054 4.18507 7.78367 4.00936 7.78367 3.78584C7.78367 3.56704 7.96054 3.38653 8.17662 3.38653Z" fill="white"/>
<path fill-rule="evenodd" clip-rule="evenodd" d="M0 2.82315V22.5289C0 23.2265 1.34881 24.0004 3.28011 24.0004C5.21129 24.0004 6.56007 23.2265 6.56007 22.5289V2.82315C5.82623 3.38156 4.64284 3.737 3.28011 3.737C1.91553 3.737 0.732116 3.38156 0 2.82315Z" fill="white"/>
<path fill-rule="evenodd" clip-rule="evenodd" d="M1.83789 0.535576C1.83789 0.718141 2.39795 1.06897 3.27942 1.06897C4.16114 1.06897 4.72501 0.718141 4.72501 0.535576C4.72501 0.350715 4.16114 2.5034e-06 3.27942 2.5034e-06C2.39795 2.5034e-06 1.83789 0.350715 1.83789 0.535576Z" fill="white"/>
<path fill-rule="evenodd" clip-rule="evenodd" d="M5.4973 0.408965C5.50606 0.449152 5.50889 0.492893 5.50889 0.537291C5.50889 1.29498 4.54886 1.86961 3.28011 1.86961C2.00964 1.86961 1.05441 1.29498 1.05441 0.537291C1.05441 0.492893 1.05899 0.45349 1.06145 0.408965C0.396184 0.696781 0 1.0953 0 1.47077C0 2.16505 1.34881 2.93756 3.28011 2.93756C5.21129 2.93756 6.56007 2.16505 6.56007 1.47077C6.56007 1.0953 6.16429 0.696781 5.4973 0.408965Z" fill="white"/>
</svg>
