<svg width="24" height="24" viewBox="0 0 24 24" fill="none" xmlns="http://www.w3.org/2000/svg">
<path fill-rule="evenodd" clip-rule="evenodd" d="M18.1063 16.2504C18.298 15.9748 18.4717 15.6853 18.6268 15.3829C18.6364 15.364 18.6471 15.3433 18.6583 15.3229C18.7348 15.1705 18.8056 15.0145 18.8728 14.8564C18.8728 14.8549 18.8728 14.855 18.8728 14.8537V14.8549C19.2388 13.9756 19.4413 13.0117 19.4413 12.0004C19.4413 7.89131 16.1101 4.56015 12.003 4.56015C9.02444 4.56015 6.45485 6.31209 5.26747 8.8396C5.25276 8.86966 5.239 8.90173 5.22482 8.93327C5.18132 9.02926 5.13878 9.12759 5.09951 9.22485C5.08448 9.26327 5.06977 9.30038 5.05538 9.33764C5.01728 9.43839 4.98034 9.53896 4.94647 9.64246C4.936 9.67336 4.92424 9.70606 4.9144 9.73813C4.82857 10.0057 4.7584 10.2796 4.70284 10.5589C4.69532 10.6012 4.68844 10.6429 4.68125 10.6837C4.66294 10.7836 4.64675 10.8829 4.63352 10.984C4.62727 11.0317 4.62039 11.0798 4.61499 11.1292C4.60356 11.2286 4.59361 11.3296 4.58642 11.4304C4.58282 11.4748 4.57869 11.5192 4.57626 11.5637C4.56874 11.7089 4.5625 11.854 4.5625 12.0004C4.5625 16.1089 7.89316 19.4404 12.003 19.4404C12.1742 19.4404 12.3446 19.4317 12.5139 19.4201C12.5562 19.4177 12.5979 19.4141 12.6386 19.4105C12.8069 19.3958 12.9747 19.3777 13.139 19.3537C13.1426 19.3528 13.1454 19.3529 13.149 19.3513C13.311 19.3261 13.4715 19.2952 13.6302 19.2589C13.6683 19.2508 13.7082 19.2412 13.7463 19.2313C13.9074 19.1932 14.067 19.1509 14.223 19.1029C14.2274 19.1005 14.2311 19.0993 14.2371 19.0985C14.3895 19.0489 14.538 18.9964 14.6874 18.9374C14.7219 18.9241 14.7567 18.9109 14.7918 18.8965C14.9427 18.8354 15.0928 18.7706 15.2394 18.6998C15.2439 18.6973 15.2475 18.6962 15.2526 18.6925C15.3954 18.6244 15.5356 18.5485 15.6723 18.4694C15.7024 18.4525 15.7323 18.4357 15.7614 18.4189C15.9027 18.3349 16.0422 18.2497 16.1779 18.1572C16.1799 18.1564 16.1823 18.1537 16.1851 18.1514C16.3179 18.0616 16.4464 17.9653 16.5723 17.867C16.5964 17.848 16.6204 17.8285 16.6443 17.8093C16.7743 17.7074 16.8997 17.5993 17.0224 17.4893C17.0224 17.4878 17.0251 17.4865 17.0251 17.4856C17.1448 17.3761 17.2611 17.261 17.3743 17.1421C17.3932 17.1232 17.4124 17.1037 17.4304 17.0833C17.6572 16.8409 17.8696 16.5817 18.0628 16.3096C18.0772 16.2904 18.0916 16.2709 18.1063 16.2504ZM18.9835 12.0004C18.9835 12.8077 18.844 13.5856 18.5896 14.3068C18.544 14.1566 18.4876 14.0078 18.3832 13.8781C18.0808 13.5025 17.7097 13.3852 17.2887 13.2253C16.3311 12.8629 16.1691 12.2716 15.6651 11.4721C15.1179 10.6057 15.4143 9.90018 16.3455 9.67095C16.7239 9.57856 17.1532 9.64689 17.2984 9.30727C17.524 8.77567 16.996 8.66411 16.6744 8.47244C16.6876 8.24204 16.6396 8.02963 16.5568 7.81331C16.2559 7.74515 16.0311 7.92405 15.7384 7.91802C15.7039 8.45417 15.7143 8.9572 15.0498 9.00768C14.4125 9.05562 14.3856 8.70401 14.2791 8.21199C14.1618 7.666 13.7718 7.32851 13.5879 6.81131C13.4334 6.37697 13.5078 5.85043 13.3275 5.40287C13.281 5.28761 13.217 5.19277 13.1426 5.11244C16.4512 5.6596 18.9835 8.53933 18.9835 12.0004ZM10.6874 5.14487C10.6103 5.18054 10.5365 5.2178 10.47 5.25643C10.1882 5.41729 10.0004 5.59239 9.67364 5.6761C9.40132 5.74691 9.10096 5.73878 8.81626 5.79128C9.39773 5.49166 10.0259 5.27081 10.6874 5.14487ZM12.0014 18.9817C11.8949 18.9817 11.787 18.9781 11.6799 18.9737C11.5983 18.7477 11.6078 18.5093 11.6055 18.16C11.5997 17.5156 11.3774 17.0524 11.0441 16.5037C10.7219 15.9757 10.3724 15.5869 10.3511 14.9608C10.3343 14.4436 10.406 13.894 10.3007 13.3946C10.2014 12.9292 9.87621 12.6385 9.41 12.5057C9.21494 12.4489 9.04698 12.5665 8.7989 12.4417C8.53812 12.3124 8.44393 12.1085 8.2765 11.8817C7.77939 11.2081 7.95613 10.9912 8.20125 10.2493C8.38424 9.69365 8.17902 9.48136 8.04969 8.95717C7.95348 8.57204 8.15807 8.39084 7.7017 8.22013C7.56137 8.16764 7.11527 8.19008 6.95355 8.22162C6.60461 8.2885 6.32467 8.38483 5.99827 8.44092C6.52025 7.56526 7.2265 6.81132 8.06599 6.23686C7.93486 6.46006 7.9393 6.73481 7.95708 7.06723C8.15023 7.08491 8.39715 7.0777 8.56395 7.17252C8.80398 7.30937 8.92548 7.7389 9.20087 7.85045C9.35147 7.91078 9.90023 7.91326 10.0412 7.82319C10.1671 7.7416 10.154 7.44375 10.3097 7.33485C10.5593 7.15843 11.4459 7.3189 11.6078 7.54485C11.9657 8.04132 11.4341 8.58044 10.9326 8.54531C10.7963 9.05923 11.3823 9.20557 11.7638 8.99528C12.1865 8.7616 12.1626 8.23604 12.8054 8.43278C13.8906 8.76764 12.7202 10.0333 12.0749 10.1572C11.5875 10.2493 11.3402 10.2362 11.1869 10.7837C11.0762 11.1737 11.3499 12.0809 10.6121 11.8286C10.1726 11.6788 10.2944 11.2348 9.68602 11.2525C8.81838 11.2765 9.24014 11.8037 9.72645 12.0508C10.1951 12.2893 10.5962 12.6473 11.1339 12.7157C11.7543 12.7945 12.1443 12.604 12.6102 13.1257C13.0062 13.5672 13.1586 13.8241 13.7454 14.0317C14.2587 14.212 14.7759 14.2696 14.7888 14.8957C14.8056 15.6184 14.1458 15.5149 13.6551 15.8065C13.2386 16.0552 12.8955 16.5172 12.7094 16.9585C12.4071 17.6773 12.1886 18.2752 12.0663 18.9805C12.0458 18.9805 12.0243 18.9817 12.0014 18.9817Z" fill="white"/>
<path fill-rule="evenodd" clip-rule="evenodd" d="M21.6519 13.948L24 13.6671V10.3344L21.6519 10.0515C21.3975 8.78077 20.8958 7.59722 20.2035 6.55476L21.6639 4.69234L20.4864 3.51367L19.3082 2.33668L18.4898 2.97992L17.4473 3.79802C16.403 3.10471 15.2197 2.60286 13.9477 2.34843L13.666 0H10.3347L10.0521 2.34843C9.85534 2.38833 9.6606 2.43513 9.46978 2.4855C9.4302 2.4963 9.38755 2.50836 9.34828 2.51916C9.18032 2.56594 9.01373 2.61873 8.85021 2.6727C8.82894 2.68117 8.80735 2.68678 8.78608 2.69557C7.99167 2.97031 7.24225 3.33997 6.55337 3.79802L4.69245 2.33764L2.33707 4.69234L3.79846 6.55476C3.54191 6.93756 3.3151 7.3392 3.1156 7.7583C3.11349 7.75926 3.11349 7.76188 3.11232 7.76431C3.03168 7.93195 2.95568 8.10269 2.88519 8.27668C2.87016 8.31754 2.85524 8.35566 2.83937 8.39799C2.78624 8.52637 2.73819 8.65949 2.69173 8.79241C2.6713 8.84999 2.65331 8.90913 2.63415 8.96882C2.5951 9.08757 2.55912 9.21151 2.52493 9.3312C2.50694 9.39238 2.48831 9.45362 2.47275 9.51627C2.43434 9.66359 2.40015 9.8124 2.36893 9.96237C2.3629 9.99147 2.3521 10.0201 2.34819 10.0515L0 10.3344V13.668L2.3485 13.9488C2.38756 14.1457 2.43433 14.3388 2.48683 14.532C2.49731 14.5719 2.5081 14.6127 2.52006 14.6536C2.56716 14.8191 2.61764 14.9883 2.67373 15.1515C2.68146 15.1719 2.68633 15.1932 2.69416 15.216C2.83058 15.6096 2.99198 15.9936 3.17497 16.3647C3.17497 16.3656 3.17624 16.3656 3.17624 16.3656C3.3622 16.7388 3.56985 17.1012 3.79909 17.4483L2.33771 19.3104L4.69309 21.6648L6.55548 20.2044C7.09577 20.5631 7.67427 20.8707 8.28262 21.1179C8.31415 21.1311 8.34623 21.1428 8.37565 21.1561C8.51758 21.2127 8.65823 21.264 8.80291 21.3132C8.85413 21.33 8.90461 21.3468 8.95679 21.3636C9.08634 21.4068 9.21662 21.4452 9.3468 21.4825C9.40173 21.4972 9.45476 21.5115 9.50704 21.5283C9.67437 21.5691 9.84423 21.6087 10.014 21.6456C10.0263 21.648 10.0398 21.6504 10.053 21.6516L10.3347 24H13.666L13.9477 21.6516C14.1085 21.6205 14.2654 21.5859 14.4205 21.546C15.5138 21.2687 16.535 20.8104 17.4473 20.2035L19.3082 21.6648L20.0931 20.8787L21.6639 19.3104L21.3494 18.9061L20.2035 17.4456C20.2707 17.3439 20.3367 17.2405 20.4002 17.1327C20.9916 16.1679 21.4224 15.0948 21.6519 13.948ZM12 20.4171C7.35116 20.4171 3.58276 16.6491 3.58276 12.0003C3.58308 7.35146 7.35169 3.5835 12 3.5835C16.649 3.5835 20.417 7.35146 20.417 12.0003C20.417 16.6491 16.649 20.4171 12 20.4171Z" fill="white"/>
</svg>
