<svg width="85" height="832" viewBox="0 0 85 832" fill="none" xmlns="http://www.w3.org/2000/svg">
    <path fill-rule="evenodd" clip-rule="evenodd" d="M0.830078 0.360352H84.6189V831.174H0.830078V0.360352Z" fill="#B3B3B3" fill-opacity="0.3"/>
    <path fill-rule="evenodd" clip-rule="evenodd" d="M0.830078 636.102H84.6189V469.6H0.830078V636.102Z" fill="#FBE950"/>
    <path fill-rule="evenodd" clip-rule="evenodd" d="M0.830078 216.267H84.6189V137.733H0.830078V216.267Z" fill="black"/>
    <path fill-rule="evenodd" clip-rule="evenodd" d="M0.830078 801.769H84.6189V723.144H0.830078V801.769Z" fill="#B3B3B3"/>
    <path d="M15.1475 160.453V156.067H15.5254C16.4465 156.067 16.9606 155.245 17.0676 153.603L17.4892 147.883H24.5396V156.067H25.935V160.453H23.8563V157.885H17.2262V160.452L15.1475 160.453ZM22.4609 156.067V149.701H19.379L19.1016 153.603C19.0157 154.776 18.7579 155.597 18.3324 156.067H22.4609ZM34.192 150.86V157.887H32.3022V157.007H32.2441C31.6917 157.748 30.9358 158.12 29.9764 158.12C29.617 158.12 29.2614 158.047 28.9072 157.9C28.5343 157.741 28.1903 157.52 27.8896 157.247C27.5658 156.959 27.3028 156.565 27.1046 156.067C26.9064 155.568 26.806 155 26.806 154.365C26.806 153.271 27.1284 152.38 27.7733 151.696C28.0704 151.367 28.4335 151.105 28.8383 150.928C29.2431 150.751 29.6806 150.663 30.1218 150.669C31.0415 150.669 31.7498 151.036 32.2441 151.769H32.3022V150.86H34.192ZM28.7988 154.38C28.7988 154.937 28.9535 155.415 29.2627 155.811C29.5733 156.207 30.0146 156.404 30.5868 156.404C31.0613 156.404 31.4711 156.213 31.8146 155.832C32.1582 155.451 32.3299 154.972 32.3299 154.395C32.3299 153.788 32.1662 153.297 31.8358 152.921C31.6845 152.741 31.4953 152.596 31.2818 152.498C31.0683 152.401 30.8358 152.352 30.6014 152.356C30.0291 152.356 29.5852 152.556 29.2706 152.957C28.9561 153.357 28.7988 153.833 28.7988 154.38ZM42.7384 150.86V157.887H40.7772V155.04H37.9861V157.885H36.0223V150.86H37.9861V153.383H40.7772V150.86H42.7384ZM51.2581 150.86V157.887H49.2957V155.04H46.5047V157.885H44.5423V150.86H46.5047V153.383H49.2957V150.86H51.2581ZM55.8228 154.82H55.0233V156.448H55.8228C56.1426 156.448 56.3791 156.369 56.5351 156.213C56.6115 156.137 56.6715 156.045 56.7115 155.944C56.7515 155.844 56.7707 155.735 56.7677 155.627C56.7677 155.089 56.4519 154.82 55.8228 154.82ZM55.0233 153.383H56.07C56.9224 153.383 57.5791 153.573 58.039 153.955C58.4989 154.336 58.7301 154.893 58.7301 155.627C58.7301 156.32 58.4989 156.871 58.039 157.277C57.5791 157.683 56.9461 157.885 56.1426 157.885H53.0607V150.86H55.0233V153.383ZM59.8786 157.885V150.86H61.841V157.887L59.8786 157.885ZM66.7545 150.625C67.8593 150.625 68.7262 150.983 69.3566 151.696C69.9856 152.409 70.3014 153.285 70.3014 154.321C70.3014 154.547 70.2909 154.721 70.2724 154.849H65.0972C65.0972 155.339 65.2743 155.761 65.6272 156.119C65.9813 156.475 66.4056 156.653 66.8998 156.653C67.4998 156.653 67.965 156.409 68.2954 155.92H70.1983C69.9597 156.559 69.5435 157.114 68.9997 157.52C68.4526 157.929 67.7469 158.135 66.8853 158.135C65.8281 158.135 64.9467 157.78 64.2397 157.071C63.5313 156.363 63.1783 155.445 63.1783 154.321C63.1783 153.275 63.4996 152.397 64.1445 151.688C64.7894 150.98 65.6589 150.625 66.7545 150.625ZM66.74 152.004C66.284 152.004 65.9074 152.151 65.6127 152.444C65.3166 152.737 65.1501 153.089 65.1105 153.5H68.368C68.327 153.095 68.1443 152.719 67.8526 152.437C67.7052 152.294 67.5309 152.182 67.3397 152.107C67.1486 152.033 66.9447 151.998 66.74 152.004ZM22.7145 176.028V169.003H24.6771V172.053L27.3518 169.003H29.6196L26.6395 172.363L29.6922 176.029H27.3518L24.6771 172.728V176.028H22.7145ZM33.7758 168.768C34.8819 168.768 35.7488 169.125 36.3792 169.839C37.0095 170.552 37.324 171.428 37.324 172.465C37.324 172.689 37.3148 172.865 37.295 172.992H32.1199C32.1199 173.481 32.297 173.904 32.6498 174.261C33.004 174.617 33.4282 174.796 33.9224 174.796C34.5237 174.796 34.989 174.552 35.318 174.063H37.2209C36.9699 174.717 36.5708 175.251 36.0223 175.663C35.4752 176.072 34.7709 176.277 33.9079 176.277C32.8507 176.277 31.9691 175.923 31.2621 175.215C30.5551 174.505 30.201 173.588 30.201 172.464C30.201 171.417 30.5235 170.54 31.1684 169.832C31.812 169.123 32.6816 168.768 33.7771 168.768H33.7758ZM33.7626 170.147C33.308 170.147 32.9313 170.293 32.6353 170.587C32.3406 170.88 32.1727 171.232 32.1331 171.643H35.3906C35.3497 171.238 35.1669 170.861 34.8752 170.58C34.7278 170.437 34.5535 170.324 34.3624 170.25C34.1712 170.175 33.9673 170.14 33.7626 170.147ZM38.7196 179.475V169.003H40.6093V169.839H40.6675C41.2292 169.155 41.9758 168.812 42.9062 168.812C43.7295 168.812 44.4695 169.145 45.1237 169.809C45.7778 170.475 46.1043 171.388 46.1043 172.552C46.1043 173.647 45.7805 174.539 45.1303 175.229C44.4814 175.919 43.7004 176.263 42.7898 176.263C41.9084 176.263 41.2106 175.925 40.6966 175.251H40.6385V179.475H38.7196ZM44.1127 172.552C44.1127 171.985 43.9581 171.507 43.6476 171.115C43.3383 170.724 42.8916 170.528 42.3101 170.528C42.0766 170.525 41.8455 170.574 41.633 170.672C41.4206 170.77 41.2321 170.914 41.0812 171.093C40.7481 171.469 40.5803 171.956 40.5803 172.552C40.5803 173.139 40.7507 173.623 41.0891 174.005C41.4287 174.385 41.8411 174.576 42.3248 174.576C42.8877 174.576 43.3251 174.373 43.641 173.968C43.9555 173.561 44.1127 173.091 44.1127 172.552ZM54.1722 169.003V176.029H52.2098V173.183H49.4186V176.028H47.4562V169.003H49.4186V171.525H52.2098V169.003H54.1722ZM62.8943 169.003V176.029H61.0044V175.149H60.9463C60.3939 175.892 59.6381 176.263 58.6787 176.263C58.3205 176.263 57.9649 176.189 57.6107 176.043C57.2378 175.884 56.8941 175.663 56.5933 175.389C56.2682 175.101 56.0065 174.709 55.8083 174.209C55.6101 173.711 55.5096 173.143 55.5096 172.508C55.5096 171.413 55.8321 170.524 56.477 169.839C56.774 169.51 57.1366 169.248 57.5412 169.071C57.9458 168.894 58.3831 168.806 58.824 168.812C59.7451 168.812 60.4521 169.179 60.9463 169.912H61.0044V169.003H62.8943ZM57.5025 172.523C57.5025 173.08 57.657 173.557 57.9663 173.953C58.2768 174.349 58.7169 174.547 59.2891 174.547C59.7649 174.547 60.1746 174.356 60.5182 173.975C60.8618 173.593 61.0336 173.115 61.0336 172.537C61.0336 171.931 60.8697 171.44 60.5393 171.064C60.3879 170.883 60.1984 170.739 59.9847 170.641C59.771 170.543 59.5383 170.495 59.3036 170.499C58.7314 170.499 58.2887 170.699 57.9742 171.1C57.6583 171.5 57.5012 171.976 57.5012 172.523H57.5025ZM32.5388 195.867L29.1108 203.728C28.4434 205.224 27.5381 205.972 26.3963 205.972C26.0434 205.972 25.7342 205.923 25.4672 205.825V204.095C25.6483 204.164 25.8677 204.197 26.1241 204.197C26.3541 204.208 26.5818 204.147 26.7757 204.021C26.9422 203.904 27.1099 203.669 27.2817 203.317L27.5394 202.731L23.8814 195.867H26.0964L28.039 199.709C28.22 200.072 28.368 200.408 28.4816 200.723H28.5108C28.5967 200.419 28.7195 200.076 28.8807 199.696L30.3967 195.867H32.5388ZM38.4817 198.844V200.531H35.3232V205.869H33.3964V198.844H38.4817ZM39.0671 202.351C39.0671 201.264 39.4147 200.369 40.1111 199.665C40.8049 198.961 41.6772 198.609 42.7239 198.609C43.7917 198.609 44.6665 198.964 45.3537 199.673C46.0382 200.381 46.3818 201.273 46.3818 202.349C46.3818 203.396 46.0355 204.285 45.3456 205.019C44.6558 205.752 43.7811 206.119 42.7239 206.119C41.6772 206.119 40.805 205.757 40.1098 205.033C39.4147 204.311 39.0671 203.415 39.0671 202.349V202.351ZM41.0098 202.364C41.0098 202.941 41.1736 203.417 41.5027 203.795C41.8317 204.171 42.2389 204.359 42.7239 204.359C43.2393 204.359 43.6502 204.171 43.9594 203.795C44.27 203.417 44.4247 202.941 44.4247 202.364C44.4247 201.797 44.2713 201.324 43.9673 200.941C43.6634 200.56 43.2485 200.369 42.7252 200.369C42.2005 200.369 41.7842 200.556 41.4736 200.927C41.1644 201.299 41.0111 201.777 41.0111 202.364H41.0098ZM48.1381 203.435L48.553 198.844H54.2237V205.871H52.2956V200.531H50.1679L49.8666 203.744C49.8005 204.544 49.6023 205.117 49.2746 205.459C48.9455 205.801 48.4288 205.972 47.7244 205.972C47.476 205.972 47.2289 205.937 46.9804 205.869V204.256C47.1522 204.296 47.3056 204.315 47.4391 204.315C47.858 204.315 48.0905 204.021 48.1394 203.435H48.1381ZM58.7103 202.804H57.924V204.432H58.709C59.0235 204.432 59.2575 204.353 59.4094 204.197C59.4848 204.12 59.5437 204.028 59.583 203.928C59.6223 203.827 59.6411 203.719 59.638 203.611C59.638 203.073 59.3288 202.804 58.709 202.804H58.7103ZM57.924 201.367H58.9521C59.79 201.367 60.4363 201.557 60.8883 201.94C61.3402 202.32 61.5661 202.877 61.5661 203.611C61.5661 204.304 61.3415 204.855 60.8883 205.261C60.4363 205.667 59.8138 205.869 59.0249 205.869H55.9959V198.844H57.924V201.367Z" fill="white"/>
    <path d="M15.1474 534.347V529.961H15.5254C16.4465 529.961 16.9605 529.14 17.0676 527.497L17.4891 521.777H24.5396V529.961H25.935V534.348H23.8562V531.78H17.2261V534.347H15.1474ZM22.4608 529.961V523.596H19.379L19.1015 527.497C19.0156 528.671 18.7578 529.492 18.3323 529.961H22.4608ZM34.1919 524.755V531.781H32.3021V530.901H32.244C31.6916 531.643 30.9358 532.015 29.9763 532.015C29.6169 532.015 29.2613 531.941 28.9071 531.795C28.5342 531.636 28.1903 531.415 27.8895 531.141C27.5657 530.853 27.3028 530.46 27.1045 529.961C26.9063 529.463 26.8059 528.895 26.8059 528.26C26.8059 527.165 27.1283 526.275 27.7732 525.591C28.0703 525.262 28.4334 525 28.8382 524.823C29.2431 524.646 29.6805 524.558 30.1217 524.564C31.0415 524.564 31.7498 524.931 32.244 525.664H32.3021V524.755H34.1919ZM28.7987 528.275C28.7987 528.832 28.9534 529.309 29.2627 529.705C29.5732 530.101 30.0146 530.299 30.5868 530.299C31.0612 530.299 31.471 530.108 31.8146 529.727C32.1582 529.345 32.3298 528.867 32.3298 528.289C32.3298 527.683 32.1661 527.192 31.8357 526.816C31.6845 526.635 31.4952 526.491 31.2817 526.393C31.0682 526.295 30.8357 526.247 30.6013 526.251C30.0291 526.251 29.5851 526.451 29.2706 526.852C28.956 527.252 28.7987 527.728 28.7987 528.275ZM42.7383 524.755V531.781H40.7772V528.935H37.986V531.78H36.0223V524.755H37.986V527.277H40.7772V524.755H42.7383ZM51.2581 524.755V531.781H49.2956V528.935H46.5046V531.78H44.5422V524.755H46.5046V527.277H49.2956V524.755H51.2581ZM55.8228 528.715H55.0233V530.343H55.8228C56.1426 530.343 56.379 530.264 56.535 530.108C56.6114 530.031 56.6715 529.94 56.7115 529.839C56.7515 529.738 56.7706 529.63 56.7676 529.521C56.7676 528.984 56.4518 528.715 55.8228 528.715ZM55.0233 527.277H56.0699C56.9223 527.277 57.5791 527.468 58.039 527.849C58.4989 528.231 58.7301 528.788 58.7301 529.521C58.7301 530.215 58.4989 530.765 58.039 531.172C57.5791 531.577 56.946 531.78 56.1425 531.78H53.0607V524.755H55.0233V527.277ZM59.8785 531.78V524.755H61.8409V531.781L59.8785 531.78ZM66.7544 524.52C67.8592 524.52 68.7261 524.877 69.3565 525.591C69.9855 526.304 70.3013 527.18 70.3013 528.216C70.3013 528.441 70.2908 528.616 70.2723 528.744H65.0972C65.0972 529.233 65.2743 529.656 65.6271 530.013C65.9813 530.369 66.4055 530.548 66.8998 530.548C67.4997 530.548 67.9649 530.304 68.2953 529.815H70.1982C69.9472 530.469 69.5481 531.003 68.9996 531.415C68.4525 531.824 67.7469 532.029 66.8852 532.029C65.828 532.029 64.9466 531.675 64.2396 530.967C63.5313 530.257 63.1783 529.34 63.1783 528.216C63.1783 527.169 63.4995 526.292 64.1444 525.583C64.7893 524.875 65.6589 524.52 66.7544 524.52ZM66.7399 525.899C66.284 525.899 65.9073 526.045 65.6126 526.339C65.3166 526.632 65.15 526.984 65.1104 527.395H68.3679C68.327 526.99 68.1442 526.613 67.8525 526.332C67.7051 526.188 67.5308 526.076 67.3397 526.002C67.1486 525.927 66.9446 525.892 66.7399 525.899ZM22.7144 549.923V542.897H24.677V545.948L27.3517 542.897H29.6195L26.6395 546.257L29.6921 549.924H27.3517L24.677 546.623V549.923H22.7144ZM33.7757 542.663C34.8819 542.663 35.7487 543.02 36.3791 543.733C37.0095 544.447 37.324 545.323 37.324 546.36C37.324 546.584 37.3147 546.76 37.2949 546.887H32.1198C32.1198 547.376 32.2969 547.799 32.6497 548.156C33.0039 548.512 33.4281 548.691 33.9224 548.691C34.5237 548.691 34.9889 548.447 35.3179 547.957H37.2209C36.9698 548.612 36.5707 549.145 36.0223 549.557C35.4752 549.967 34.7708 550.172 33.9079 550.172C32.8506 550.172 31.9691 549.817 31.2621 549.109C30.555 548.4 30.2009 547.483 30.2009 546.359C30.2009 545.313 30.5234 544.435 31.1683 543.727C31.8119 543.017 32.6815 542.663 33.777 542.663H33.7757ZM33.7625 544.041C33.3079 544.041 32.9312 544.188 32.6352 544.481C32.3405 544.775 32.1727 545.127 32.133 545.537H35.3905C35.3496 545.133 35.1668 544.756 34.8751 544.475C34.7278 544.331 34.5534 544.219 34.3623 544.144C34.1712 544.07 33.9673 544.035 33.7625 544.041ZM38.7195 553.369V542.897H40.6092V543.733H40.6675C41.2291 543.049 41.9757 542.707 42.9061 542.707C43.7294 542.707 44.4694 543.04 45.1236 543.704C45.7777 544.369 46.1042 545.283 46.1042 546.447C46.1042 547.541 45.7804 548.433 45.1302 549.124C44.4813 549.813 43.7003 550.157 42.7898 550.157C41.9083 550.157 41.2106 549.82 40.6965 549.145H40.6384V553.369H38.7195ZM44.1126 546.447C44.1126 545.88 43.9581 545.401 43.6475 545.009C43.3383 544.619 42.8915 544.423 42.31 544.423C42.0765 544.42 41.8454 544.469 41.633 544.567C41.4205 544.664 41.2321 544.808 41.0811 544.988C40.7481 545.364 40.5802 545.851 40.5802 546.447C40.5802 547.033 40.7507 547.517 41.089 547.9C41.4286 548.28 41.841 548.471 42.3247 548.471C42.8877 548.471 43.3251 548.268 43.6409 547.863C43.9554 547.456 44.1126 546.985 44.1126 546.447ZM54.1721 542.897V549.924H52.2097V547.077H49.4185V549.923H47.4561V542.897H49.4185V545.42H52.2097V542.897H54.1721ZM62.8942 542.897V549.924H61.0043V549.044H60.9463C60.3939 549.787 59.638 550.157 58.6786 550.157C58.3205 550.157 57.9648 550.084 57.6107 549.937C57.2378 549.778 56.894 549.557 56.5932 549.284C56.2681 548.996 56.0065 548.604 55.8082 548.104C55.61 547.605 55.5095 547.037 55.5095 546.403C55.5095 545.308 55.832 544.419 56.4769 543.733C56.774 543.405 57.1367 543.143 57.5413 542.966C57.9459 542.789 58.383 542.701 58.8239 542.707C59.7451 542.707 60.452 543.073 60.9463 543.807H61.0043V542.897H62.8942ZM57.5024 546.417C57.5024 546.975 57.657 547.452 57.9662 547.848C58.2768 548.244 58.7168 548.441 59.289 548.441C59.7648 548.441 60.1745 548.251 60.5181 547.869C60.8617 547.488 61.0335 547.009 61.0335 546.432C61.0335 545.827 60.8696 545.335 60.5393 544.959C60.3878 544.778 60.1984 544.633 59.9846 544.535C59.7709 544.438 59.5382 544.389 59.3036 544.393C58.7313 544.393 58.2886 544.593 57.9741 544.995C57.6583 545.395 57.5011 545.871 57.5011 546.417H57.5024ZM15.6522 583.677V575.493H11.8965V583.677H9.91016V573.675H17.6398V583.677H15.6522ZM22.5532 576.417C23.6395 576.417 24.492 576.775 25.1105 577.488C25.7303 578.201 26.0395 579.077 26.0395 580.115C26.0395 580.339 26.0288 580.515 26.0103 580.641H20.9252C20.9252 581.131 21.0982 581.553 21.4458 581.911C21.7933 582.267 22.211 582.445 22.696 582.445C23.2867 582.445 23.7439 582.201 24.0677 581.712H25.939C25.7059 582.348 25.2968 582.903 24.7602 583.312C24.2224 583.721 23.5299 583.927 22.6828 583.927C21.6441 583.927 20.7771 583.572 20.082 582.864C19.3869 582.155 19.0379 581.237 19.0379 580.113C19.0379 579.067 19.3552 578.189 19.9895 577.48C20.6226 576.772 21.4775 576.417 22.5532 576.417ZM22.54 577.796C22.0907 577.796 21.722 577.943 21.4313 578.236C21.1405 578.529 20.978 578.881 20.9397 579.292H24.139C24.0992 578.889 23.9196 578.512 23.6317 578.229C23.488 578.086 23.317 577.974 23.1291 577.9C22.9413 577.825 22.7405 577.79 22.5387 577.796H22.54ZM30.5829 576.417C31.4868 576.417 32.2202 576.676 32.7818 577.195C33.3435 577.713 33.6872 578.309 33.8101 578.984H31.8965C31.7062 578.388 31.2622 578.091 30.5684 578.091C30.053 578.091 29.6459 578.277 29.3459 578.655C29.0459 579.031 28.8966 579.532 28.8966 580.157C28.8966 580.755 29.0512 581.251 29.3604 581.645C29.6697 582.043 30.0913 582.24 30.6252 582.24C31.2912 582.24 31.7432 581.917 31.9823 581.272H33.9382C33.7294 582.055 33.3461 582.692 32.7885 583.187C32.2321 583.68 31.5014 583.927 30.5961 583.927C29.5587 583.927 28.6891 583.577 27.9887 582.879C27.2883 582.179 26.9393 581.268 26.9393 580.143C26.9393 579.087 27.2725 578.201 27.9398 577.489C28.6059 576.775 29.486 576.417 30.5829 576.417ZM41.5675 576.652V583.679H39.6247V580.436H39.5811C39.153 581.169 38.5054 581.536 37.6385 581.536C36.8668 581.536 36.2575 581.264 35.8095 580.723C35.3628 580.18 35.1381 579.389 35.1381 578.353V576.652H37.0676V578.221C37.0676 578.729 37.1746 579.116 37.3886 579.381C37.6027 579.644 37.9014 579.776 38.282 579.776C38.4671 579.782 38.6509 579.745 38.8194 579.667C38.9878 579.59 39.1363 579.474 39.2533 579.329C39.5005 579.031 39.6234 578.603 39.6234 578.045V576.652H41.5675ZM50.1388 576.652V583.679H48.2821V582.799H48.2253C47.6808 583.54 46.9381 583.912 45.9958 583.912C45.6443 583.912 45.2929 583.839 44.9466 583.692C44.5791 583.533 44.2408 583.312 43.9461 583.039C43.6276 582.751 43.3699 582.357 43.1744 581.859C42.9712 581.315 42.8722 580.738 42.8824 580.157C42.8824 579.063 43.1981 578.173 43.8311 577.488C44.4654 576.804 45.2334 576.461 46.1386 576.461C47.0438 576.461 47.7376 576.828 48.2253 577.561H48.2821V576.652H50.1388ZM44.8395 580.172C44.8395 580.729 44.9914 581.207 45.2954 581.603C45.5993 581.999 46.0341 582.196 46.5958 582.196C47.0623 582.196 47.4653 582.005 47.8023 581.624C48.1406 581.243 48.3098 580.764 48.3098 580.187C48.3098 579.58 48.1486 579.089 47.8249 578.713C47.6776 578.533 47.4918 578.389 47.2816 578.291C47.0713 578.193 46.8418 578.144 46.6103 578.148C46.0487 578.148 45.6126 578.348 45.302 578.749C44.9928 579.149 44.8395 579.625 44.8395 580.172ZM58.5384 576.652V583.679H56.609V580.832H53.8669V583.677H51.9374V576.652H53.8669V579.175H56.6103V576.652H58.5384ZM60.3094 583.679V576.652H62.1528V579C62.1528 579.871 62.1383 580.593 62.1092 581.171H62.1383C62.2995 580.857 62.61 580.369 63.0673 579.704L65.2094 576.653H66.9104V583.68H65.0668V581.347C65.0668 580.457 65.08 579.728 65.1091 579.161H65.0814C64.8527 579.592 64.5435 580.081 64.1523 580.628L62.0247 583.679H60.3094ZM68.6812 583.679V576.652H70.6106V579.703L73.2378 576.652H75.4673L72.5387 580.012L75.5386 583.679H73.2378L70.6093 580.377V583.677L68.6812 583.679Z" fill="black"/>
    <path d="M15.1475 744.774V740.389H15.5254C16.4465 740.389 16.9606 739.568 17.0676 737.925L17.4892 732.205H24.5396V740.389H25.935V744.776H23.8563V742.208H17.2262V744.774H15.1475ZM22.4609 740.389V734.024H19.379L19.1016 737.925C19.0157 739.098 18.7579 739.92 18.3324 740.389H22.4609ZM34.192 735.182V742.209H32.3022V741.329H32.2441C31.6917 742.072 30.9358 742.442 29.9764 742.442C29.617 742.442 29.2614 742.369 28.9072 742.222C28.5343 742.063 28.1903 741.843 27.8896 741.569C27.5658 741.282 27.3028 740.889 27.1046 740.389C26.9064 739.89 26.806 739.322 26.806 738.688C26.806 737.593 27.1284 736.704 27.7733 736.018C28.0704 735.689 28.4335 735.428 28.8383 735.251C29.2431 735.074 29.6806 734.986 30.1218 734.992C31.0415 734.992 31.7498 735.358 32.2441 736.092H32.3022V735.182H34.192ZM28.7988 738.702C28.7988 739.26 28.9535 739.737 29.2627 740.133C29.5733 740.529 30.0146 740.726 30.5868 740.726C31.0613 740.726 31.4711 740.536 31.8146 740.154C32.1582 739.773 32.3299 739.294 32.3299 738.717C32.3299 738.112 32.1662 737.62 31.8358 737.244C31.6845 737.063 31.4951 736.919 31.2816 736.821C31.0682 736.723 30.8358 736.674 30.6014 736.678C30.0291 736.678 29.5852 736.878 29.2706 737.28C28.9561 737.68 28.7988 738.156 28.7988 738.702ZM42.7384 735.182V742.209H40.7772V739.362H37.9861V742.208H36.0223V735.182H37.9861V737.705H40.7772V735.182H42.7384ZM51.2581 735.182V742.209H49.2957V739.362H46.5047V742.208H44.5423V735.182H46.5047V737.705H49.2957V735.182H51.2581ZM55.8228 739.142H55.0233V740.77H55.8228C56.1426 740.77 56.3791 740.693 56.5351 740.536C56.6115 740.459 56.6715 740.368 56.7115 740.267C56.7515 740.166 56.7707 740.058 56.7677 739.949C56.7677 739.412 56.4519 739.142 55.8228 739.142ZM55.0233 737.705H56.07C56.9224 737.705 57.5791 737.896 58.039 738.278C58.4989 738.658 58.7301 739.216 58.7301 739.949C58.7301 740.644 58.4989 741.193 58.039 741.6C57.5791 742.005 56.9461 742.208 56.1426 742.208H53.0607V735.182H55.0233V737.705ZM59.8786 742.208V735.182H61.841V742.209L59.8786 742.208ZM66.7545 734.948C67.8593 734.948 68.7262 735.305 69.3566 736.018C69.9856 736.732 70.3014 737.608 70.3014 738.645C70.3014 738.869 70.2909 739.045 70.2724 739.172H65.0972C65.0972 739.661 65.2743 740.084 65.6272 740.441C65.9813 740.797 66.4056 740.976 66.8998 740.976C67.4998 740.976 67.965 740.732 68.2954 740.242H70.1983C69.9472 740.897 69.5481 741.43 68.9997 741.842C68.4526 742.252 67.7469 742.457 66.8853 742.457C65.8281 742.457 64.9467 742.102 64.2397 741.394C63.5313 740.685 63.1783 739.768 63.1783 738.644C63.1783 737.597 63.4996 736.72 64.1445 736.012C64.7894 735.302 65.6589 734.948 66.7545 734.948ZM66.74 736.326C66.284 736.326 65.9074 736.473 65.6127 736.766C65.3166 737.06 65.1501 737.412 65.1105 737.822H68.368C68.327 737.418 68.1443 737.041 67.8526 736.76C67.7052 736.616 67.5309 736.504 67.3397 736.429C67.1486 736.355 66.9447 736.32 66.74 736.326ZM22.7145 760.35V753.325H24.6771V756.376L27.3518 753.325H29.6196L26.6395 756.685L29.6922 760.352H27.3518L24.6771 757.05V760.35H22.7145ZM33.7758 753.09C34.8819 753.09 35.7488 753.448 36.3792 754.161C37.0095 754.876 37.324 755.75 37.324 756.788C37.324 757.012 37.3148 757.188 37.295 757.314H32.1199C32.1199 757.804 32.297 758.226 32.6498 758.584C33.004 758.94 33.4282 759.118 33.9224 759.118C34.5237 759.118 34.989 758.874 35.318 758.385H37.2209C36.9699 759.041 36.5708 759.573 36.0223 759.985C35.4752 760.394 34.7709 760.6 33.9079 760.6C32.8507 760.6 31.9691 760.246 31.2621 759.537C30.5551 758.828 30.201 757.91 30.201 756.786C30.201 755.741 30.5235 754.862 31.1684 754.154C31.812 753.445 32.6816 753.09 33.7771 753.09H33.7758ZM33.7626 754.469C33.308 754.469 32.9313 754.616 32.6353 754.909C32.3406 755.202 32.1727 755.554 32.1331 755.965H35.3906C35.3498 755.56 35.167 755.183 34.8752 754.902C34.7278 754.759 34.5535 754.647 34.3624 754.572C34.1712 754.498 33.9673 754.463 33.7626 754.469ZM38.7196 763.797V753.325H40.6093V754.161H40.6675C41.2292 753.477 41.9758 753.134 42.9062 753.134C43.7295 753.134 44.4695 753.468 45.1237 754.132C45.7778 754.797 46.1043 755.712 46.1043 756.874C46.1043 757.97 45.7805 758.861 45.1303 759.552C44.4814 760.241 43.7004 760.585 42.7898 760.585C41.9084 760.585 41.2106 760.248 40.6966 759.573H40.6385V763.797H38.7196ZM44.1127 756.874C44.1127 756.308 43.9581 755.829 43.6476 755.437C43.3383 755.046 42.8916 754.85 42.3101 754.85C42.0766 754.848 41.8455 754.897 41.633 754.994C41.4206 755.092 41.2321 755.236 41.0812 755.416C40.7481 755.792 40.5803 756.278 40.5803 756.874C40.5803 757.461 40.7507 757.945 41.0891 758.328C41.4287 758.708 41.8411 758.898 42.3248 758.898C42.8877 758.898 43.3251 758.696 43.641 758.29C43.9555 757.885 44.1127 757.413 44.1127 756.874ZM54.1722 753.325V760.352H52.2098V757.505H49.4186V760.35H47.4562V753.325H49.4186V755.848H52.2098V753.325H54.1722ZM62.8943 753.325V760.352H61.0044V759.472H60.9463C60.3939 760.214 59.6381 760.585 58.6787 760.585C58.3205 760.585 57.9649 760.512 57.6107 760.365C57.2378 760.206 56.894 759.985 56.5933 759.712C56.2682 759.425 56.0065 759.032 55.8083 758.532C55.6101 758.033 55.5096 757.466 55.5096 756.83C55.5096 755.736 55.8321 754.846 56.477 754.161C56.774 753.832 57.1366 753.571 57.5412 753.394C57.9458 753.217 58.3831 753.128 58.824 753.134C59.7451 753.134 60.4521 753.501 60.9463 754.234H61.0044V753.325H62.8943ZM57.5025 756.845C57.5025 757.402 57.657 757.88 57.9663 758.276C58.2768 758.672 58.7169 758.869 59.2891 758.869C59.7649 758.869 60.1746 758.678 60.5182 758.297C60.8618 757.916 61.0336 757.437 61.0336 756.86C61.0336 756.254 60.8697 755.762 60.5393 755.386C60.3879 755.206 60.1984 755.061 59.9847 754.963C59.771 754.865 59.5383 754.817 59.3036 754.821C58.7314 754.821 58.2887 755.021 57.9742 755.422C57.6583 755.824 57.5012 756.298 57.5012 756.845H57.5025ZM23.3105 792.473V782.47H29.2813V784.289H25.2823V792.473H23.3105ZM30.7388 790.038L31.1524 785.448H36.8244V792.473H34.895V787.134H32.7674L32.4673 790.346C32.4013 791.149 32.2031 791.72 31.874 792.062C31.5463 792.405 31.0283 792.576 30.3239 792.576C30.0768 792.576 29.8296 792.541 29.5812 792.473V790.86C29.753 790.9 29.905 790.918 30.0385 790.918C30.4574 790.918 30.6912 790.625 30.7388 790.038ZM38.5954 792.473V785.448H40.4389V787.794C40.4389 788.665 40.4243 789.388 40.3952 789.965H40.4243C40.5855 789.652 40.896 789.164 41.3533 788.498L43.4942 785.448H45.1951V792.473H43.3528V790.141C43.3528 789.252 43.366 788.522 43.3951 787.956H43.3674C43.1387 788.386 42.8282 788.876 42.4383 789.422L40.3107 792.473H38.5954ZM53.5669 785.448V792.473H51.6376V789.628H48.8953V792.473H46.9659V785.448H48.8953V787.97H51.6389V785.448H53.5669ZM62.1383 785.448V792.473H60.2815V791.593H60.2235C59.6816 792.336 58.9376 792.708 57.9953 792.708C57.6425 792.708 57.2923 792.634 56.9461 792.488C56.5787 792.328 56.2406 792.107 55.9458 791.834C55.6259 791.546 55.3694 791.153 55.1738 790.654C54.9704 790.111 54.8709 789.534 54.8806 788.953C54.8806 787.858 55.1977 786.968 55.832 786.284C56.4637 785.6 57.2328 785.257 58.1381 785.257C59.0433 785.257 59.7371 785.624 60.2235 786.357H60.2815V785.448H62.1383ZM56.839 788.968C56.839 789.525 56.9911 790.002 57.295 790.398C57.599 790.794 58.0336 790.992 58.5953 790.992C59.0618 790.992 59.4636 790.801 59.8019 790.42C60.1402 790.038 60.3094 789.56 60.3094 788.982C60.3094 788.376 60.1482 787.885 59.8231 787.508C59.6757 787.328 59.4901 787.184 59.2801 787.086C59.0701 786.989 58.8411 786.94 58.6099 786.944C58.0483 786.944 57.6122 787.144 57.3016 787.544C56.9924 787.946 56.839 788.42 56.839 788.968Z" fill="black"/>
    <path d="M16.2178 772.708H69.2308" stroke="black" stroke-width="0.756" stroke-miterlimit="22.926"/>
</svg>
