<svg width="451" height="845" viewBox="0 0 451 845" fill="none" xmlns="http://www.w3.org/2000/svg">
<path fill-rule="evenodd" clip-rule="evenodd" d="M450.407 831.339V0.543945H47.2686V831.34L450.407 831.339Z" fill="white"/>
<path fill-rule="evenodd" clip-rule="evenodd" d="M57.9932 1.01074V832.171H59.0293V1.01074H57.9932ZM91.2124 1.01074V832.171H92.2485V1.01074H91.2124Z" fill="#B6BAD9"/>
<path fill-rule="evenodd" clip-rule="evenodd" d="M46.7432 800.098H449.878V799.045H46.7432V800.098ZM46.7432 768.556H449.878V767.504H46.7432V768.556ZM46.7432 735.965H449.878V734.912H46.7432V735.965ZM46.7432 702.318H449.878V701.266H46.7432V702.318ZM46.7432 669.724H449.878V668.673H46.7432V669.724ZM46.7432 637.125H449.878V636.074H46.7432V637.125ZM46.7432 604.533H449.878V603.48H46.7432V604.533ZM46.7432 572.993H449.878V571.94H46.7432V572.993ZM46.7432 506.749H449.878V505.697H46.7432V506.749ZM46.7432 473.1H449.878V472.05H46.7432V473.1ZM46.7432 439.457H449.878V438.406H46.7432V439.457ZM46.7432 406.866H449.878V405.813H46.7432V406.866ZM46.7432 373.222H449.878V372.169H46.7432V373.222ZM46.7432 338.524H449.878V337.473H46.7432V338.524ZM46.7432 304.87H449.878V303.82H46.7432V304.87ZM46.7432 271.228H449.878V270.176H46.7432V271.228ZM46.7432 237.582H449.878V236.532H46.7432V237.582ZM46.7432 204.992H449.878V203.938H46.7432V204.992ZM46.7432 169.24H449.878V168.189H46.7432V169.24ZM46.7432 135.588H449.878V134.537H46.7432V135.588ZM46.7432 101.952H449.878V100.898H46.7432V101.952ZM46.7432 69.3596H449.878V68.3076H46.7432V69.3596ZM46.7432 35.7063H449.878V34.6543H46.7432V35.7063ZM46.7432 540.392H449.878V539.341H46.7432V540.392Z" fill="#B6BAD9"/>
<path fill-rule="evenodd" clip-rule="evenodd" d="M124.429 1.01074V832.171H125.465V1.01074H124.429ZM157.631 1.01074V832.171H158.666V1.01074H157.631ZM188.771 1.01074V832.171H189.809V1.01074H188.771ZM221.973 1.01074V832.171H223.009V1.01074H221.973ZM255.191 1.01074V832.171H256.227V1.01074H255.191ZM288.393 1.01074V832.171H289.429V1.01074H288.393ZM321.615 1.01074V832.171H322.646V1.01074H321.615ZM354.819 1.01074V832.171H355.86V1.01074H354.819ZM385.96 1.01074V832.171H386.991V1.01074H385.96ZM417.093 1.01074V832.171H418.133V1.01074H417.093Z" fill="#B6BAD9"/>
<path fill-rule="evenodd" clip-rule="evenodd" d="M0.0478516 831.485V0.0205078H59.0303V831.485H0.0478516Z" fill="#323370"/>
<path fill-rule="evenodd" clip-rule="evenodd" d="M449.878 101.952V0.0185547H59.0312V101.952H449.878Z" fill="#DCDFF2"/>
<path d="M22.0684 141.554V133.736H20.6016V132.034H24.0917V141.554H22.0684ZM27.6123 136.751C27.6123 135.876 27.7259 135.102 27.9505 134.427C28.1752 133.752 28.4765 133.227 28.8518 132.85C29.2285 132.472 29.6355 132.191 30.0703 132.006C30.5064 131.819 30.9623 131.726 31.4421 131.726C31.8914 131.726 32.3222 131.81 32.7332 131.978C33.1429 132.144 33.5326 132.41 33.8987 132.772C34.2648 133.136 34.5595 133.655 34.7789 134.33C34.9996 135.004 35.1093 135.792 35.1093 136.695C35.1093 137.495 35.0234 138.212 34.8529 138.846C34.6811 139.479 34.4657 139.979 34.2067 140.346C33.9601 140.701 33.6548 141.01 33.3041 141.26C32.9618 141.503 32.6353 141.666 32.3221 141.75C32.0161 141.832 31.7007 141.875 31.3839 141.875C30.9227 141.875 30.4852 141.791 30.0703 141.624C29.6228 141.435 29.2148 141.162 28.8677 140.82C28.4805 140.454 28.1752 139.92 27.9505 139.223C27.7259 138.524 27.6123 137.7 27.6123 136.751ZM33.0411 136.751C33.0411 135.654 32.8917 134.823 32.5931 134.26C32.2944 133.696 31.8874 133.415 31.368 133.415C30.8989 133.415 30.5024 133.684 30.18 134.224C29.8575 134.764 29.6963 135.592 29.6963 136.71C29.6963 137.9 29.8496 138.778 30.1588 139.342C30.4668 139.904 30.8844 140.186 31.4117 140.186C31.8623 140.186 32.2469 139.906 32.564 139.348C32.8812 138.79 33.0398 137.924 33.0398 136.751H33.0411ZM43.5737 135.202C43.5737 135.762 43.4561 136.295 43.2222 136.807C42.9402 137.398 42.6011 137.959 42.2098 138.483L39.9355 141.554H37.6902L39.8919 138.58C39.7835 138.618 39.5681 138.636 39.2456 138.636C38.277 138.608 37.488 138.274 36.8762 137.631C36.2656 136.988 35.9603 136.179 35.9603 135.202C35.9603 134.224 36.3184 133.402 37.0373 132.731C37.7563 132.062 38.6734 131.726 39.7888 131.726C40.9121 131.726 41.8253 132.05 42.5244 132.696C43.2248 133.343 43.5737 134.178 43.5737 135.203V135.202ZM41.5055 135.188C41.5055 134.667 41.339 134.242 41.006 133.911C40.847 133.75 40.6573 133.623 40.4484 133.537C40.2394 133.452 40.0155 133.41 39.7901 133.415C39.28 133.415 38.8597 133.58 38.5267 133.911C38.195 134.242 38.0285 134.667 38.0285 135.188C38.0285 135.708 38.1924 136.139 38.5201 136.479C38.8478 136.819 39.2708 136.988 39.7888 136.988C40.287 136.988 40.698 136.824 41.0205 136.494C41.3442 136.163 41.5055 135.727 41.5055 135.187V135.188ZM44.4247 136.751C44.4247 135.876 44.5371 135.102 44.7617 134.427C44.9864 133.752 45.2877 133.227 45.6643 132.85C46.0409 132.472 46.4467 132.191 46.8814 132.006C47.3176 131.819 47.7734 131.726 48.2531 131.726C48.7025 131.726 49.1334 131.81 49.5443 131.978C49.954 132.144 50.3438 132.41 50.7099 132.772C51.0773 133.136 51.3707 133.655 51.59 134.33C51.8107 135.004 51.9204 135.792 51.9204 136.695C51.9204 137.495 51.8346 138.212 51.6641 138.846C51.4923 139.479 51.2769 139.979 51.0178 140.346C50.7717 140.7 50.4668 141.01 50.1165 141.26C49.7729 141.503 49.4465 141.666 49.1333 141.75C48.8273 141.832 48.5119 141.875 48.1951 141.875C47.7339 141.875 47.2964 141.791 46.8814 141.624C46.4339 141.435 46.0258 141.162 45.6788 140.82C45.2916 140.454 44.9864 139.92 44.7617 139.223C44.5371 138.524 44.4247 137.7 44.4247 136.751ZM49.8522 136.751C49.8522 135.654 49.7029 134.823 49.4042 134.26C49.1069 133.696 48.6985 133.415 48.1792 133.415C47.71 133.415 47.3136 133.684 46.9911 134.224C46.6687 134.764 46.5074 135.592 46.5074 136.71C46.5074 137.9 46.6621 138.778 46.97 139.342C47.2779 139.904 47.6968 140.186 48.2241 140.186C48.6734 140.186 49.0566 139.906 49.3751 139.348C49.6923 138.79 49.8509 137.924 49.8509 136.751H49.8522ZM22.0684 220.714V212.896H20.6016V211.192H24.0917V220.712L22.0684 220.714ZM27.6123 215.911C27.6123 215.036 27.7259 214.262 27.9505 213.587C28.1752 212.912 28.4765 212.387 28.8518 212.01C29.2285 211.632 29.6355 211.351 30.0703 211.164C30.5064 210.978 30.9623 210.884 31.4421 210.884C31.8914 210.884 32.3222 210.97 32.7332 211.138C33.1429 211.304 33.5326 211.57 33.8987 211.932C34.2648 212.295 34.5595 212.814 34.7789 213.49C34.9996 214.164 35.1093 214.952 35.1093 215.855C35.1093 216.655 35.0234 217.372 34.8529 218.004C34.6811 218.638 34.4657 219.138 34.2067 219.506C33.9602 219.861 33.6549 220.17 33.3041 220.42C32.9618 220.662 32.6353 220.824 32.3221 220.908C32.0162 220.992 31.7008 221.034 31.3839 221.035C30.9227 221.035 30.4852 220.951 30.0703 220.783C29.6229 220.594 29.2149 220.322 28.8677 219.98C28.4805 219.612 28.1752 219.08 27.9505 218.382C27.7259 217.684 27.6123 216.862 27.6123 215.911ZM33.0411 215.911C33.0411 214.812 32.8917 213.983 32.5931 213.419C32.2944 212.856 31.8874 212.575 31.368 212.575C30.8989 212.575 30.5024 212.844 30.18 213.384C29.8575 213.924 29.6963 214.752 29.6963 215.87C29.6963 217.06 29.8496 217.938 30.1588 218.5C30.4668 219.063 30.8844 219.346 31.4117 219.346C31.8623 219.346 32.2469 219.066 32.564 218.507C32.8812 217.95 33.0398 217.084 33.0398 215.911H33.0411ZM43.5737 214.362C43.5737 214.92 43.4561 215.455 43.2222 215.967C42.9401 216.557 42.601 217.118 42.2098 217.642L39.9355 220.714H37.6902L39.8919 217.74C39.7835 217.778 39.5681 217.795 39.2456 217.795C38.277 217.768 37.488 217.432 36.8762 216.791C36.2656 216.148 35.9603 215.338 35.9603 214.362C35.9603 213.384 36.3184 212.562 37.0373 211.891C37.7563 211.22 38.6734 210.886 39.7888 210.886C40.9121 210.886 41.8253 211.208 42.5244 211.855C43.2248 212.502 43.5737 213.338 43.5737 214.362ZM41.5055 214.348C41.5055 213.826 41.339 213.402 41.006 213.07C40.8469 212.909 40.6572 212.782 40.4482 212.697C40.2392 212.612 40.0154 212.57 39.7901 212.575C39.28 212.575 38.8597 212.74 38.5267 213.07C38.195 213.4 38.0285 213.826 38.0285 214.347C38.0285 214.868 38.1924 215.299 38.5201 215.639C38.8478 215.979 39.2708 216.148 39.7888 216.148C40.287 216.148 40.698 215.983 41.0205 215.652C41.3442 215.323 41.5055 214.887 41.5055 214.347V214.348ZM47.5633 212.895L47.3731 214.612C47.6045 214.562 47.8407 214.539 48.0774 214.543C49.1531 214.543 50.0134 214.827 50.6583 215.395C51.3046 215.962 51.6271 216.73 51.6271 217.698C51.6271 218.591 51.3046 219.368 50.6583 220.03C50.0134 220.69 49.1571 221.02 48.092 221.02C47.0348 221.02 46.2114 220.748 45.6207 220.204C45.3334 219.947 45.0994 219.635 44.9318 219.286C44.7642 218.938 44.6665 218.559 44.6441 218.172H46.7572C46.8061 218.507 46.9422 218.778 47.1669 218.982C47.3916 219.187 47.71 219.288 48.121 219.288C48.3014 219.292 48.4805 219.258 48.6472 219.188C48.8139 219.119 48.9645 219.015 49.0897 218.884C49.354 218.615 49.4862 218.262 49.4862 217.823C49.4862 217.322 49.3144 216.928 48.9708 216.644C48.6298 216.36 48.1356 216.218 47.4907 216.218C46.736 216.23 45.9842 216.314 45.2453 216.47L45.7595 211.192H50.9372V212.895H47.5633ZM22.0684 299.872V292.055H20.6016V290.352H24.0917V299.872H22.0684ZM30.4733 299.872V292.055H29.0065V290.352H32.4979V299.872H30.4733ZM36.0184 295.071C36.0184 294.196 36.1308 293.42 36.3554 292.746C36.5801 292.071 36.8815 291.546 37.2581 291.168C37.6347 290.792 38.0404 290.51 38.4752 290.324C38.9113 290.138 39.3686 290.044 39.847 290.044C40.2963 290.044 40.7271 290.128 41.1381 290.296C41.5491 290.463 41.9376 290.73 42.305 291.092C42.671 291.455 42.9658 291.974 43.1851 292.648C43.4045 293.323 43.5155 294.112 43.5155 295.015C43.5155 295.815 43.4296 296.532 43.2578 297.164C43.086 297.798 42.8719 298.298 42.6129 298.666C42.3661 299.02 42.0608 299.329 41.7103 299.579C41.4135 299.799 41.0807 299.964 40.7271 300.068C40.4211 300.151 40.1056 300.193 39.7888 300.194C39.3289 300.194 38.8901 300.11 38.4752 299.943C38.0278 299.754 37.6198 299.482 37.2726 299.14C36.8867 298.772 36.5814 298.239 36.3554 297.542C36.1308 296.843 36.0184 296.02 36.0184 295.071ZM41.446 295.071C41.446 293.972 41.2967 293.142 40.9993 292.578C40.7007 292.015 40.2923 291.734 39.7743 291.734C39.3051 291.734 38.9086 292.004 38.5849 292.544C38.2624 293.084 38.1012 293.912 38.1012 295.028C38.1012 296.22 38.2558 297.098 38.5637 297.66C38.8717 298.223 39.2905 298.504 39.8178 298.504C40.2672 298.504 40.6517 298.226 40.9702 297.667C41.2874 297.108 41.446 296.243 41.446 295.071ZM44.4247 295.071C44.4247 294.196 44.5371 293.42 44.7617 292.746C44.9864 292.071 45.2877 291.546 45.6643 291.168C46.0409 290.792 46.4467 290.51 46.8814 290.324C47.3176 290.138 47.7734 290.044 48.2531 290.044C48.7025 290.044 49.1334 290.128 49.5443 290.296C49.954 290.463 50.3438 290.73 50.7099 291.092C51.0773 291.455 51.3707 291.974 51.59 292.648C51.8107 293.323 51.9204 294.112 51.9204 295.015C51.9204 295.815 51.8346 296.532 51.6641 297.164C51.4923 297.798 51.2769 298.298 51.0178 298.666C50.7716 299.02 50.4667 299.329 50.1165 299.579C49.7729 299.822 49.4465 299.984 49.1333 300.068C48.8273 300.151 48.5119 300.193 48.1951 300.194C47.7339 300.194 47.2964 300.11 46.8814 299.943C46.434 299.754 46.0259 299.482 45.6788 299.14C45.2916 298.772 44.9864 298.239 44.7617 297.542C44.5371 296.843 44.4247 296.02 44.4247 295.071ZM49.8522 295.071C49.8522 293.972 49.7029 293.142 49.4042 292.578C49.1069 292.015 48.6985 291.734 48.1792 291.734C47.71 291.734 47.3136 292.004 46.9911 292.544C46.6687 293.084 46.5074 293.912 46.5074 295.028C46.5074 296.22 46.6621 297.098 46.97 297.66C47.2779 298.223 47.6968 298.504 48.2241 298.504C48.6734 298.504 49.0566 298.226 49.3751 297.667C49.6923 297.108 49.8509 296.243 49.8509 295.071H49.8522ZM22.0684 379.032V371.215H20.6016V369.512H24.0917V379.032H22.0684ZM30.4733 379.032V371.215H29.0065V369.512H32.4979V379.032H30.4733ZM36.0184 374.23C36.0184 373.355 36.1308 372.58 36.3554 371.906C36.5801 371.231 36.8815 370.706 37.2581 370.328C37.6347 369.951 38.0404 369.67 38.4752 369.484C38.9113 369.298 39.3686 369.204 39.847 369.204C40.2963 369.204 40.7271 369.288 41.1381 369.456C41.5491 369.623 41.9376 369.888 42.305 370.251C42.671 370.615 42.9658 371.134 43.1851 371.808C43.4045 372.483 43.5155 373.271 43.5155 374.174C43.5155 374.974 43.4296 375.691 43.2578 376.324C43.086 376.958 42.8719 377.458 42.6129 377.824C42.3662 378.179 42.0609 378.489 41.7103 378.739C41.4135 378.959 41.0807 379.124 40.7271 379.228C40.4211 379.311 40.1056 379.353 39.7888 379.354C39.3289 379.354 38.8901 379.27 38.4752 379.103C38.0277 378.914 37.6197 378.641 37.2726 378.299C36.8867 377.932 36.5814 377.399 36.3554 376.702C36.1308 376.003 36.0184 375.179 36.0184 374.23ZM41.446 374.23C41.446 373.132 41.2967 372.302 40.9993 371.739C40.7007 371.175 40.2923 370.894 39.7743 370.894C39.3051 370.894 38.9086 371.163 38.5849 371.703C38.2624 372.243 38.1012 373.071 38.1012 374.188C38.1012 375.379 38.2558 376.256 38.5637 376.82C38.8717 377.383 39.2905 377.664 39.8178 377.664C40.2672 377.664 40.6517 377.384 40.9702 376.827C41.2874 376.268 41.446 375.403 41.446 374.23ZM47.5646 371.215L47.3731 372.932C47.6044 372.882 47.8407 372.858 48.0774 372.862C49.1531 372.862 50.0134 373.146 50.6583 373.714C51.3046 374.282 51.6271 375.05 51.6271 376.018C51.6271 376.911 51.3046 377.687 50.6583 378.348C50.0134 379.008 49.1571 379.34 48.092 379.34C47.0348 379.34 46.2114 379.067 45.6207 378.523C45.3336 378.266 45.0996 377.954 44.9321 377.606C44.7645 377.257 44.6666 376.879 44.6441 376.492H46.7572C46.8061 376.826 46.9422 377.096 47.1669 377.302C47.3916 377.506 47.71 377.608 48.121 377.608C48.3015 377.612 48.4807 377.578 48.6474 377.508C48.8141 377.438 48.9646 377.334 49.0897 377.203C49.354 376.934 49.4862 376.58 49.4862 376.143C49.4862 375.64 49.3144 375.247 48.9708 374.963C48.6298 374.679 48.1356 374.536 47.4907 374.536C46.8444 374.536 46.0964 374.62 45.2453 374.788L45.7595 369.512H50.9372V371.215H47.5646ZM22.0684 458.192V450.374H20.6016V448.671H24.0917V458.191L22.0684 458.192ZM30.4733 458.192V450.374H29.0065V448.671H32.4979V458.191L30.4733 458.192ZM38.8782 458.192V450.374H37.4114V448.671H40.9042V458.191L38.8782 458.192ZM44.4247 453.39C44.4247 452.515 44.5371 451.74 44.7617 451.066C44.9864 450.391 45.2877 449.866 45.6643 449.488C46.0409 449.111 46.4467 448.83 46.8814 448.643C47.3176 448.456 47.7734 448.363 48.2531 448.363C48.7025 448.363 49.1334 448.448 49.5443 448.616C49.954 448.783 50.3438 449.048 50.7099 449.411C51.0773 449.774 51.3707 450.292 51.59 450.968C51.8107 451.643 51.9204 452.431 51.9204 453.334C51.9204 454.134 51.8346 454.851 51.6641 455.483C51.4923 456.116 51.2769 456.616 51.0178 456.984C50.7717 457.339 50.4668 457.648 50.1165 457.899C49.7729 458.142 49.4465 458.303 49.1333 458.387C48.8273 458.47 48.512 458.513 48.1951 458.514C47.7339 458.514 47.2964 458.43 46.8814 458.262C46.434 458.073 46.0259 457.801 45.6788 457.459C45.2916 457.091 44.9864 456.559 44.7617 455.86C44.5371 455.163 44.4247 454.34 44.4247 453.39ZM49.8522 453.39C49.8522 452.291 49.7029 451.46 49.4042 450.898C49.1069 450.335 48.6985 450.054 48.1792 450.054C47.71 450.054 47.3136 450.323 46.9911 450.863C46.6687 451.403 46.5074 452.231 46.5074 453.348C46.5074 454.539 46.6621 455.416 46.97 455.979C47.2779 456.542 47.6968 456.824 48.2241 456.824C48.6734 456.824 49.0566 456.544 49.3751 455.986C49.6923 455.428 49.8509 454.563 49.8509 453.39H49.8522ZM22.0684 537.351V529.534H20.6016V527.831H24.0917V537.351H22.0684ZM30.4733 537.351V529.534H29.0065V527.831H32.4979V537.351H30.4733ZM38.8782 537.351V529.534H37.4114V527.831H40.9042V537.351H38.8782ZM47.5633 529.534L47.3731 531.251C47.6045 531.201 47.8407 531.178 48.0774 531.182C49.1531 531.182 50.0134 531.464 50.6583 532.032C51.3046 532.6 51.6271 533.368 51.6271 534.336C51.6271 535.23 51.3046 536.007 50.6583 536.667C50.0134 537.328 49.1571 537.659 48.092 537.659C47.0348 537.659 46.2114 537.386 45.6207 536.842C45.3336 536.585 45.0996 536.273 44.9321 535.924C44.7645 535.576 44.6666 535.198 44.6441 534.811H46.7572C46.8061 535.146 46.9422 535.415 47.1669 535.62C47.3916 535.826 47.71 535.927 48.121 535.927C48.3014 535.931 48.4805 535.897 48.6472 535.827C48.8139 535.758 48.9645 535.654 49.0897 535.523C49.354 535.252 49.4862 534.899 49.4862 534.462C49.4862 533.959 49.3144 533.566 48.9708 533.282C48.6298 532.998 48.1356 532.856 47.4907 532.856C46.7361 532.868 45.9842 532.952 45.2453 533.107L45.7595 527.831H50.9372V529.534H47.5633ZM22.0684 616.511V608.694H20.6016V606.991H24.0917V616.511H22.0684ZM30.4733 616.511V608.694H29.0065V606.991H32.4979V616.511H30.4733ZM36.5761 616.511V615.059L39.5681 611.862C40.0174 611.387 40.3676 610.959 40.6174 610.578C40.8672 610.196 40.9914 609.824 40.9914 609.462C40.996 609.316 40.9704 609.171 40.9159 609.036C40.8615 608.902 40.7796 608.78 40.6756 608.679C40.4655 608.475 40.1799 608.372 39.8178 608.372C39.4267 608.372 39.1214 608.503 38.9007 608.763C38.6814 609.024 38.5704 609.359 38.5704 609.768H36.518C36.5365 608.866 36.8299 608.126 37.3968 607.548C37.9651 606.971 38.7871 606.683 39.8615 606.683C40.85 606.683 41.6336 606.935 42.2164 607.438C42.7979 607.939 43.0887 608.587 43.0887 609.378C43.0887 609.974 42.9208 610.543 42.5825 611.087C42.2455 611.632 41.6865 612.291 40.9042 613.063L39.1862 614.808H43.2367V616.511H36.5761ZM44.4247 611.708C44.4247 610.834 44.5371 610.059 44.7617 609.384C44.9864 608.71 45.2877 608.184 45.6643 607.807C46.0409 607.43 46.4467 607.148 46.8814 606.963C47.3176 606.776 47.7734 606.683 48.2531 606.683C48.7025 606.683 49.1334 606.767 49.5443 606.935C49.954 607.102 50.3438 607.367 50.7099 607.73C51.0773 608.094 51.3707 608.612 51.59 609.287C51.8107 609.962 51.9204 610.75 51.9204 611.652C51.9204 612.452 51.8346 613.17 51.6641 613.803C51.4923 614.436 51.2769 614.936 51.0178 615.303C50.7717 615.658 50.4668 615.967 50.1165 616.218C49.7729 616.46 49.4465 616.623 49.1333 616.707C48.8273 616.79 48.5119 616.832 48.1951 616.832C47.7339 616.832 47.2964 616.748 46.8814 616.58C46.434 616.392 46.0259 616.119 45.6788 615.778C45.2916 615.411 44.9864 614.878 44.7617 614.18C44.5371 613.482 44.4247 612.658 44.4247 611.708ZM49.8522 611.708C49.8522 610.611 49.7029 609.78 49.4042 609.216C49.1069 608.654 48.6985 608.372 48.1792 608.372C47.71 608.372 47.3136 608.642 46.9911 609.182C46.6687 609.722 46.5074 610.55 46.5074 611.667C46.5074 612.858 46.6621 613.735 46.97 614.299C47.2779 614.862 47.6968 615.143 48.2241 615.143C48.6734 615.143 49.0566 614.863 49.3751 614.306C49.6923 613.747 49.8509 612.882 49.8509 611.708H49.8522ZM22.0684 695.671V687.854H20.6016V686.15H24.0917V695.67L22.0684 695.671ZM30.4733 695.671V687.854H29.0065V686.15H32.4979V695.67L30.4733 695.671ZM36.5761 695.671V694.218L39.5681 691.022C40.0174 690.547 40.3676 690.119 40.6174 689.738C40.8672 689.356 40.9914 688.984 40.9914 688.62C40.9958 688.475 40.97 688.33 40.9156 688.196C40.8612 688.061 40.7795 687.94 40.6756 687.839C40.4655 687.634 40.1799 687.532 39.8178 687.532C39.4267 687.532 39.1214 687.662 38.9007 687.923C38.6814 688.183 38.5704 688.518 38.5704 688.928H36.518C36.5365 688.024 36.8299 687.286 37.3968 686.708C37.9651 686.131 38.7871 685.842 39.8615 685.842C40.85 685.842 41.6336 686.095 42.2164 686.596C42.7979 687.099 43.0887 687.746 43.0887 688.538C43.0887 689.132 42.9208 689.703 42.5825 690.247C42.2455 690.792 41.6865 691.45 40.9042 692.223L39.1862 693.967H43.2367V695.671H36.5761ZM47.5633 687.854L47.3731 689.57C47.5687 689.523 47.8038 689.5 48.0774 689.5C49.1531 689.5 50.0134 689.784 50.6583 690.351C51.3046 690.919 51.6271 691.687 51.6271 692.655C51.6271 693.548 51.3046 694.326 50.6583 694.987C50.0134 695.647 49.1571 695.978 48.092 695.978C47.0348 695.978 46.2114 695.706 45.6207 695.162C45.3334 694.904 45.0994 694.592 44.9318 694.244C44.7642 693.895 44.6665 693.516 44.6441 693.13H46.7572C46.8061 693.464 46.9422 693.735 47.1669 693.939C47.3916 694.144 47.71 694.246 48.121 694.246C48.3014 694.249 48.4805 694.215 48.6472 694.146C48.8139 694.076 48.9645 693.973 49.0897 693.842C49.354 693.572 49.4862 693.219 49.4862 692.78C49.4862 692.279 49.3144 691.886 48.9708 691.602C48.6298 691.318 48.1356 691.175 47.4907 691.175C46.736 691.187 45.9842 691.271 45.2453 691.427L45.7595 686.15H50.9372V687.854H47.5633ZM22.0684 774.83V767.012H20.6016V765.31H24.0917V774.83H22.0684ZM30.4733 774.83V767.012H29.0065V765.31H32.4979V774.83H30.4733ZM38.5267 767.794H36.5471C36.5656 766.975 36.8643 766.306 37.4418 765.784C38.0193 765.264 38.8016 765.002 39.7888 765.002C40.7958 765.002 41.586 765.238 42.1583 765.708C42.7305 766.178 43.016 766.78 43.016 767.515C43.016 768.027 42.8547 768.468 42.5323 768.842C42.2098 769.214 41.8279 769.46 41.3879 769.582V769.623C41.9945 769.763 42.4741 770.05 42.8256 770.482C43.1772 770.914 43.3543 771.447 43.3543 772.08C43.3543 772.927 43.0411 773.646 42.4147 774.236C41.7883 774.828 40.9082 775.123 39.7743 775.123C38.6695 775.123 37.8184 774.856 37.2211 774.32C36.6251 773.786 36.3026 773.058 36.2537 772.136H38.2334C38.273 772.563 38.4263 772.904 38.6959 773.155C38.9641 773.407 39.3302 773.532 39.7888 773.532C40.2381 773.532 40.6002 773.39 40.8738 773.106C41.1486 772.822 41.2848 772.447 41.2848 771.982C41.2848 771.535 41.1288 771.179 40.8156 770.915C40.5024 770.648 40.0478 770.516 39.4505 770.516H38.8505V768.98H39.51C39.9593 768.98 40.3121 768.864 40.5672 768.632C40.8209 768.399 40.9478 768.087 40.9478 767.696C40.9498 767.554 40.9237 767.413 40.8708 767.281C40.8179 767.149 40.7393 767.029 40.6398 766.928C40.4337 766.715 40.1403 766.608 39.7597 766.608C39.3579 766.608 39.058 766.722 38.8571 766.95C38.6562 767.178 38.5465 767.459 38.5267 767.794ZM44.4247 770.028C44.4247 769.152 44.5371 768.378 44.7617 767.703C44.9864 767.028 45.2877 766.503 45.6643 766.126C46.0409 765.75 46.4467 765.467 46.8814 765.282C47.3176 765.095 47.7734 765.002 48.2531 765.002C48.7025 765.002 49.1334 765.086 49.5443 765.254C49.954 765.422 50.3438 765.686 50.7099 766.05C51.0773 766.412 51.3707 766.931 51.59 767.606C51.8107 768.28 51.9204 769.07 51.9204 769.972C51.9204 770.772 51.8346 771.49 51.6641 772.122C51.4923 772.755 51.2769 773.255 51.0178 773.623C50.7716 773.977 50.4667 774.286 50.1165 774.536C49.7729 774.779 49.4465 774.942 49.1333 775.026C48.8273 775.108 48.5119 775.151 48.1951 775.151C47.7339 775.151 47.2964 775.067 46.8814 774.9C46.434 774.712 46.0259 774.439 45.6788 774.098C45.2916 773.73 44.9864 773.196 44.7617 772.499C44.5371 771.8 44.4247 770.978 44.4247 770.028ZM49.8522 770.028C49.8522 768.93 49.7029 768.099 49.4042 767.535C49.1069 766.972 48.6985 766.691 48.1792 766.691C47.71 766.691 47.3136 766.962 46.9911 767.502C46.6687 768.04 46.5074 768.87 46.5074 769.986C46.5074 771.178 46.6621 772.055 46.97 772.618C47.2779 773.18 47.6968 773.462 48.2241 773.462C48.6734 773.462 49.0566 773.183 49.3751 772.624C49.6923 772.066 49.8509 771.2 49.8509 770.028" fill="white"/>
<path fill-rule="evenodd" clip-rule="evenodd" d="M0.790039 101.952V100.941H449.782V101.952H0.790039Z" fill="#545580"/>
<path d="M94.1919 12.0252H100.72V12.1719C100.72 13.9812 100.178 15.4652 99.0948 16.6252C98.0137 17.7879 96.5679 18.3692 94.7574 18.3692C92.9945 18.3692 91.5422 17.7799 90.403 16.6012C89.2639 15.4239 88.6943 14.0239 88.6943 12.4026C88.6943 10.7599 89.2758 9.35457 90.4374 8.18791C91.6003 7.02124 93.0461 6.43724 94.7746 6.43724C96.1609 6.43724 97.3252 6.73324 98.2714 7.32524C99.2163 7.9159 99.8943 8.70524 100.307 9.69057H98.7261C98.4168 9.07724 97.9199 8.58389 97.2327 8.21189C96.5455 7.83856 95.7261 7.65324 94.7746 7.65324C93.3897 7.65324 92.2757 8.10524 91.4339 9.00924C90.592 9.91324 90.1704 11.0226 90.1704 12.3372C90.1704 13.7719 90.6171 14.9332 91.5118 15.8212C92.4051 16.7092 93.5272 17.1519 94.8791 17.1519C96.0579 17.1519 97.049 16.7879 97.8511 16.0586C98.652 15.3306 99.1053 14.4026 99.2084 13.2732H94.1919V12.0252ZM107.282 13.1919L110.975 18.0066H109.171L105.632 13.3226H104.07V18.0066H102.643V6.79856H106.029C107.369 6.79856 108.365 7.12524 109.017 7.77724C109.67 8.42791 109.996 9.19856 109.996 10.0852C109.996 10.8626 109.736 11.5386 109.215 12.1146C108.694 12.6906 108.049 13.0492 107.282 13.1919ZM108.519 10.0852C108.519 9.42789 108.319 8.92524 107.917 8.57324C107.517 8.22258 106.939 8.04789 106.182 8.04789H104.07V12.0746H106.199C106.945 12.0746 107.517 11.8852 107.917 11.5066C108.319 11.1292 108.519 10.6559 108.519 10.0852ZM111.08 21.9186V20.7026H120.529V21.9186H111.08ZM125.475 9.87191C126.53 9.87191 127.368 10.1106 127.993 10.5866C128.616 11.0626 129.015 11.5866 129.186 12.1559H127.674C127.296 11.3892 126.564 11.0052 125.475 11.0052C124.65 11.0052 123.958 11.2719 123.396 11.8026C122.836 12.3346 122.554 13.0879 122.554 14.0626C122.554 14.9506 122.839 15.6839 123.406 16.2652C123.973 16.8452 124.691 17.1359 125.562 17.1359C126.616 17.1359 127.36 16.7026 127.796 15.8372H129.306C129.055 16.5279 128.619 17.1079 128.001 17.5799C127.382 18.0506 126.564 18.2866 125.544 18.2866C124.262 18.2866 123.207 17.8892 122.383 17.0946C121.558 16.2999 121.146 15.2839 121.146 14.0466C121.146 12.8626 121.545 11.8706 122.34 11.0719C123.136 10.2719 124.181 9.87191 125.475 9.87191ZM130.474 14.0626C130.474 12.8572 130.896 11.8572 131.738 11.0626C132.58 10.2692 133.625 9.87191 134.872 9.87191C136.144 9.87191 137.194 10.2719 138.026 11.0719C138.856 11.8719 139.271 12.8679 139.271 14.0626C139.271 15.2359 138.853 16.2319 138.016 17.0532C137.18 17.8759 136.133 18.2866 134.872 18.2866C133.625 18.2866 132.58 17.8812 131.738 17.0706C130.896 16.2599 130.474 15.2572 130.474 14.0626ZM131.883 14.0626C131.883 14.9292 132.178 15.6506 132.769 16.2319C133.358 16.8132 134.06 17.1026 134.872 17.1026C135.731 17.1026 136.445 16.8132 137.012 16.2319C137.579 15.6519 137.862 14.9279 137.862 14.0626C137.862 13.2092 137.584 12.4892 137.029 11.9092C136.474 11.3292 135.755 11.0386 134.872 11.0386C134.002 11.0386 133.287 11.3239 132.725 11.8932C132.165 12.4626 131.883 13.1866 131.883 14.0626ZM145.336 9.92122V11.1212C145.075 11.0744 144.81 11.0467 144.545 11.0386C143.914 11.0386 143.406 11.2692 143.016 11.7292C142.626 12.1892 142.432 12.8892 142.432 13.8319V18.0066H141.074V10.1346H142.432V11.1212H142.466C142.626 10.8146 142.907 10.5292 143.308 10.2666C143.706 10.0043 144.172 9.86699 144.648 9.87191C144.912 9.87191 145.141 9.88789 145.335 9.92122H145.336ZM149.956 9.87191C150.667 9.87191 151.296 10.0039 151.846 10.2666C152.396 10.5292 152.823 10.8692 153.127 11.2852C153.431 11.7012 153.655 12.1372 153.805 12.5919C153.953 13.0452 154.029 13.5039 154.029 13.9652C154.029 14.1719 154.016 14.3306 153.994 14.4399H147.276C147.276 15.1532 147.568 15.7799 148.152 16.3226C148.737 16.8652 149.419 17.1359 150.197 17.1359C151.044 17.1359 151.748 16.8186 152.311 16.1826H153.873C153.532 16.7854 153.052 17.2959 152.473 17.6706C151.861 18.0812 151.113 18.2866 150.231 18.2866C148.936 18.2866 147.887 17.8759 147.079 17.0532C146.272 16.2319 145.868 15.2026 145.868 13.9639C145.868 12.8359 146.246 11.8706 147.001 11.0706C147.757 10.2706 148.743 9.87191 149.956 9.87191ZM149.956 11.0052C149.212 11.0052 148.599 11.2386 148.119 11.7039C147.655 12.1353 147.361 12.7224 147.293 13.3559H152.602C152.538 12.7177 152.241 12.1262 151.77 11.6959C151.282 11.2359 150.678 11.0052 149.956 11.0052ZM154.82 8.85323L155.229 7.68656L157.533 8.52391L157.414 6.15723H158.718L158.598 8.52391L160.9 7.68656L161.312 8.85323L158.907 9.47723L160.453 11.3172L159.422 12.0412L158.065 10.0532L156.708 12.0412L155.677 11.3186L157.223 9.47858L154.82 8.85323ZM224.648 10.2826C224.648 9.59324 224.424 9.04791 223.978 8.64791C223.531 8.24791 222.851 8.04789 221.933 8.04789H219.837V12.5012H221.882C223.725 12.5012 224.648 11.7612 224.648 10.2826ZM218.412 18.0066V6.79856H221.813C223.119 6.79856 224.161 7.08923 224.94 7.66923C225.72 8.25056 226.108 9.10923 226.108 10.2492C226.108 11.3559 225.747 12.2132 225.026 12.8226C224.304 13.4292 223.194 13.7332 221.693 13.7332H219.837V18.0066H218.412ZM235.557 18.0066V12.8306H229.115V18.0066H227.689V6.79856H229.116V11.5812H235.557V6.79856H236.983V18.0066H235.557ZM239.526 18.0066V6.79856H240.953V18.0066H239.526ZM249.919 6.79856V8.04789H244.92V11.5812H249.73V12.8306H244.92V16.7572H250.108V18.0066H243.494V6.79856H249.919ZM251.208 21.9186V20.7026H260.657V21.9186H251.208ZM265.605 9.87191C266.658 9.87191 267.498 10.1106 268.122 10.5866C268.746 11.0626 269.144 11.5866 269.315 12.1559H267.804C267.426 11.3892 266.694 11.0052 265.605 11.0052C264.78 11.0052 264.087 11.2719 263.526 11.8026C262.966 12.3346 262.684 13.0879 262.684 14.0626C262.684 14.9506 262.968 15.6839 263.535 16.2652C264.102 16.8452 264.821 17.1359 265.692 17.1359C266.745 17.1359 267.489 16.7026 267.925 15.8372H269.436C269.179 16.5345 268.725 17.1405 268.13 17.5799C267.513 18.0506 266.694 18.2866 265.673 18.2866C264.391 18.2866 263.337 17.8892 262.512 17.0946C261.688 16.2999 261.275 15.2839 261.275 14.0466C261.275 12.8626 261.674 11.8706 262.47 11.0719C263.265 10.2719 264.311 9.87191 265.605 9.87191ZM270.604 14.0626C270.604 12.8572 271.026 11.8572 271.867 11.0626C272.709 10.2692 273.753 9.87191 275.002 9.87191C276.273 9.87191 277.324 10.2719 278.154 11.0719C278.985 11.8719 279.4 12.8679 279.4 14.0626C279.4 15.2359 278.982 16.2319 278.146 17.0532C277.311 17.8759 276.263 18.2866 275.002 18.2866C273.753 18.2866 272.709 17.8812 271.867 17.0706C271.026 16.2599 270.604 15.2572 270.604 14.0626ZM272.013 14.0626C272.013 14.9292 272.307 15.6506 272.898 16.2319C273.487 16.8132 274.189 17.1026 275.002 17.1026C275.861 17.1026 276.575 16.8132 277.142 16.2319C277.708 15.6519 277.991 14.9279 277.991 14.0626C277.991 13.2092 277.714 12.4892 277.159 11.9092C276.604 11.3292 275.883 11.0386 275.002 11.0386C274.132 11.0386 273.416 11.3239 272.855 11.8932C272.293 12.4626 272.013 13.1866 272.013 14.0626ZM285.465 9.92122V11.1212C285.203 11.0744 284.939 11.0468 284.674 11.0386C284.045 11.0386 283.535 11.2692 283.145 11.7292C282.755 12.1892 282.561 12.8892 282.561 13.8319V18.0066H281.204V10.1346H282.561V11.1212H282.595C282.755 10.8146 283.037 10.5292 283.437 10.2666C283.836 10.0042 284.302 9.86691 284.777 9.87191C285.042 9.87191 285.27 9.88789 285.465 9.92122ZM290.086 9.87191C290.797 9.87191 291.426 10.0039 291.976 10.2666C292.525 10.5292 292.952 10.8692 293.256 11.2852C293.56 11.7012 293.785 12.1372 293.934 12.5919C294.084 13.0452 294.159 13.5039 294.159 13.9652C294.159 14.1719 294.146 14.3306 294.123 14.4399H287.406C287.406 15.1532 287.698 15.7799 288.282 16.3226C288.866 16.8652 289.548 17.1359 290.326 17.1359C290.727 17.1446 291.124 17.0635 291.49 16.8987C291.855 16.7338 292.18 16.4893 292.441 16.1826H294.003C293.662 16.7854 293.181 17.2959 292.602 17.6706C291.99 18.0812 291.242 18.2866 290.361 18.2866C289.066 18.2866 288.016 17.8759 287.209 17.0532C286.402 16.2319 285.997 15.2026 285.997 13.9639C285.997 12.8359 286.375 11.8706 287.131 11.0706C287.887 10.2706 288.873 9.87191 290.086 9.87191ZM290.086 11.0052C289.342 11.0052 288.729 11.2386 288.249 11.7039C287.767 12.1706 287.492 12.7212 287.423 13.3559H292.732C292.667 12.7177 292.37 12.1263 291.899 11.6959C291.411 11.2359 290.807 11.0052 290.086 11.0052ZM353.091 10.2826C353.091 9.59324 352.868 9.04791 352.422 8.64791C351.976 8.24791 351.294 8.04789 350.378 8.04789H348.282V12.5012H350.326C352.17 12.5012 353.091 11.7612 353.091 10.2826ZM346.856 18.0066V6.79856H350.256C351.562 6.79856 352.605 7.08923 353.383 7.66923C354.163 8.25056 354.551 9.10923 354.551 10.2492C354.551 11.3559 354.192 12.2132 353.47 12.8226C352.747 13.4292 351.637 13.7332 350.136 13.7332H348.282V18.0066H346.856ZM360.772 13.1919L364.464 18.0066H362.661L359.122 13.3226H357.559V18.0066H356.132V6.79856H359.518C360.858 6.79856 361.854 7.12524 362.506 7.77724C363.158 8.42791 363.485 9.19856 363.485 10.0852C363.485 10.8626 363.225 11.5386 362.704 12.1146C362.183 12.6906 361.538 13.0492 360.771 13.1919H360.772ZM362.007 10.0852C362.007 9.42789 361.808 8.92524 361.406 8.57324C361.006 8.22258 360.428 8.04789 359.671 8.04789H357.559V12.0746H359.688C360.433 12.0746 361.006 11.8852 361.406 11.5066C361.808 11.1292 362.007 10.6559 362.007 10.0852ZM376.559 6.79856L377.847 18.0066H376.456L375.786 11.4666C375.684 10.3812 375.591 9.38923 375.512 8.49056H375.459C375.243 9.17056 374.909 10.1679 374.463 11.4826L372.178 18.0066H370.941L368.656 11.3012C368.073 9.58123 367.757 8.64524 367.711 8.4919H367.642C367.563 9.59857 367.477 10.5292 367.386 11.2852L366.664 18.0066H365.29L366.646 6.79856H368.381L370.924 14.0132C371.188 14.7359 371.399 15.4212 371.559 16.0666H371.629C371.766 15.5306 371.984 14.8466 372.281 14.0132L374.841 6.79991L376.559 6.79856ZM379.841 18.0066V6.79856H382.434C383.637 6.79856 384.577 7.0559 385.252 7.5719C385.928 8.08657 386.265 8.78124 386.265 9.65857C386.265 10.8079 385.631 11.6026 384.358 12.0412V12.0746C385.241 12.1626 385.919 12.4679 386.393 12.9946C386.869 13.5199 387.107 14.1612 387.107 14.9172C387.107 15.9252 386.745 16.6919 386.017 17.2186C385.29 17.7439 384.353 18.0066 383.207 18.0066H379.841ZM385.63 14.8186C385.63 14.1946 385.406 13.7066 384.961 13.3559C384.513 13.0052 383.884 12.8306 383.071 12.8306H381.267V16.7572H383.31C384.078 16.7572 384.657 16.5826 385.046 16.2319C385.436 15.8812 385.631 15.4106 385.631 14.8186H385.63ZM384.805 9.77323C384.805 9.19323 384.588 8.7599 384.152 8.47457C383.717 8.19057 383.145 8.04789 382.434 8.04789H381.267V11.5812H382.539C383.236 11.5812 383.789 11.4146 384.196 11.0799C384.603 10.7466 384.805 10.3106 384.805 9.77323ZM387.846 21.9186V20.7026H397.295V21.9186H387.846ZM402.243 9.87191C403.297 9.87191 404.136 10.1106 404.76 10.5866C405.384 11.0626 405.783 11.5866 405.953 12.1559H404.442C404.064 11.3892 403.332 11.0052 402.243 11.0052C401.419 11.0052 400.725 11.2719 400.165 11.8026C399.604 12.3346 399.322 13.0879 399.322 14.0626C399.322 14.9506 399.606 15.6839 400.173 16.2652C400.74 16.8452 401.459 17.1359 402.33 17.1359C403.382 17.1359 404.127 16.7026 404.563 15.8372H406.074C405.817 16.5345 405.363 17.1405 404.768 17.5799C404.151 18.0506 403.332 18.2866 402.311 18.2866C401.029 18.2866 399.975 17.8892 399.15 17.0946C398.327 16.2999 397.913 15.2839 397.913 14.0466C397.913 12.8626 398.312 11.8706 399.108 11.0719C399.904 10.2719 400.949 9.87191 402.243 9.87191ZM407.242 14.0626C407.242 12.8572 407.664 11.8572 408.505 11.0626C409.347 10.2692 410.391 9.87191 411.64 9.87191C412.911 9.87191 413.962 10.2719 414.793 11.0719C415.623 11.8719 416.038 12.8679 416.038 14.0626C416.038 15.2359 415.62 16.2319 414.784 17.0532C413.949 17.8759 412.901 18.2866 411.64 18.2866C410.391 18.2866 409.347 17.8812 408.505 17.0706C407.664 16.2599 407.242 15.2572 407.242 14.0626ZM408.651 14.0626C408.651 14.9292 408.945 15.6506 409.536 16.2319C410.126 16.8132 410.827 17.1026 411.64 17.1026C412.499 17.1026 413.213 16.8132 413.78 16.2319C414.346 15.6519 414.629 14.9279 414.629 14.0626C414.629 13.2092 414.352 12.4892 413.797 11.9092C413.242 11.3292 412.521 11.0386 411.64 11.0386C410.77 11.0386 410.054 11.3239 409.492 11.8932C408.931 12.4626 408.651 13.1866 408.651 14.0626ZM422.102 9.92122V11.1212C421.841 11.0744 421.577 11.0468 421.312 11.0386C420.683 11.0386 420.173 11.2692 419.783 11.7292C419.393 12.1892 419.199 12.8892 419.199 13.8319V18.0066H417.842V10.1346H419.199V11.1212H419.234C419.393 10.8146 419.675 10.5292 420.075 10.2666C420.474 10.0042 420.94 9.86691 421.415 9.87191C421.68 9.87191 421.908 9.88789 422.102 9.92122ZM426.724 9.87191C427.435 9.87191 428.064 10.0039 428.614 10.2666C429.163 10.5292 429.59 10.8692 429.893 11.2852C430.197 11.7012 430.424 12.1372 430.572 12.5919C430.722 13.0452 430.797 13.5039 430.797 13.9652C430.797 14.1719 430.784 14.3306 430.761 14.4399H424.044C424.044 15.1532 424.336 15.7799 424.92 16.3226C425.504 16.8652 426.186 17.1359 426.964 17.1359C427.812 17.1359 428.516 16.8186 429.079 16.1826H430.641C430.3 16.7854 429.819 17.296 429.24 17.6706C428.628 18.0812 427.88 18.2866 426.999 18.2866C425.704 18.2866 424.654 17.8759 423.847 17.0532C423.04 16.2319 422.635 15.2026 422.635 13.9639C422.635 12.8359 423.013 11.8706 423.769 11.0706C424.525 10.2706 425.511 9.87191 426.724 9.87191ZM426.724 11.0052C425.98 11.0052 425.367 11.2386 424.887 11.7039C424.405 12.1706 424.13 12.7212 424.061 13.3559H429.37C429.305 12.7177 429.008 12.1263 428.537 11.6959C428.049 11.2359 427.446 11.0052 426.724 11.0052Z" fill="black"/>
<path d="M188.752 0.543945H189.809V831.34H188.752V0.543945Z" stroke="#656A8A" stroke-width="0.945333" stroke-miterlimit="22.926"/>
<path d="M58.8838 74.1386V73.1279H189.808V74.1386H58.8838Z" stroke="#E3553F" stroke-width="0.945333" stroke-miterlimit="22.926"/>
<path d="M321.591 0.543945H322.648V831.34H321.591V0.543945Z" stroke="#656A8A" stroke-width="0.945333" stroke-miterlimit="22.926"/>
<path fill-rule="evenodd" clip-rule="evenodd" d="M0 1.01066V0H450.838V1.01066H0ZM59.0313 28.156V27.1453H450.838V28.156H59.0313Z" fill="#545580"/>
<path d="M68.1982 42.5738C68.1982 41.5431 68.3212 40.6338 68.5683 39.8458C68.8141 39.0565 69.1458 38.4405 69.5647 37.9965C69.9456 37.58 70.4036 37.2426 70.9127 37.0031C71.3937 36.7831 71.9038 36.6738 72.4417 36.6738C72.969 36.6738 73.4645 36.7725 73.9284 36.9698C74.3909 37.1671 74.8323 37.4791 75.2499 37.9058C75.6688 38.3338 76.0005 38.9418 76.2477 39.7311C76.4935 40.5191 76.6177 41.4458 76.6177 42.5085C76.6177 43.4605 76.5226 44.3085 76.3336 45.0471C76.1446 45.7871 75.9068 46.3725 75.62 46.8058C75.3485 47.2226 75.0051 47.587 74.6063 47.8818C74.2736 48.138 73.8987 48.333 73.4989 48.4578C72.6501 48.6983 71.746 48.6462 70.9299 48.3098C70.4251 48.0881 69.9695 47.7666 69.5898 47.3645C69.1669 46.9325 68.8286 46.3045 68.5762 45.4831C68.3251 44.6605 68.1982 43.6911 68.1982 42.5738ZM75.1561 42.5738C75.1561 41.0178 74.9183 39.8485 74.4425 39.0645C73.9668 38.2818 73.2901 37.8911 72.4073 37.8911C71.6065 37.8911 70.9497 38.2645 70.4409 39.0151C69.9308 39.7658 69.6757 40.9351 69.6757 42.5245C69.6757 45.7685 70.6034 47.3898 72.4588 47.3898C73.2385 47.3898 73.8821 47.0005 74.3923 46.2231C74.901 45.4445 75.1561 44.2285 75.1561 42.5738ZM111.096 40.3711V48.2431H109.739V47.2738H109.705C109.064 48.1071 108.233 48.5231 107.214 48.5231C106.4 48.5323 105.615 48.2231 105.023 47.6605C104.399 47.0845 104.087 46.1898 104.087 44.9738V40.3711H105.444V44.8751C105.444 45.6631 105.625 46.2711 105.986 46.6991C106.345 47.1258 106.83 47.3391 107.437 47.3391C108.159 47.3391 108.723 47.1045 109.129 46.6325C109.536 46.1618 109.739 45.4778 109.739 44.5791V40.3711H111.096ZM118.193 43.4285L121.885 48.2431H120.081L116.542 43.5605H114.979V48.2431H113.553V37.0351H116.937C118.278 37.0351 119.274 37.3618 119.927 38.0138C120.58 38.6658 120.905 39.4351 120.905 40.3218C120.905 41.1005 120.646 41.7765 120.125 42.3511C119.603 42.9271 118.959 43.2858 118.192 43.4285H118.193ZM119.429 40.3218C119.429 39.6645 119.229 39.1618 118.827 38.8111C118.427 38.4591 117.848 38.2845 117.092 38.2845H114.979V42.3111H117.109C117.855 42.3111 118.427 42.1218 118.827 41.7431C119.228 41.3658 119.429 40.8925 119.429 40.3218ZM126.507 36.4111H127.881L123.002 50.1178H121.645L126.507 36.4111ZM129.341 48.2431V36.4111H130.699V41.3578H130.733C131.42 40.5245 132.284 40.1085 133.327 40.1085C134.198 40.1085 134.957 40.3938 135.603 40.9631C136.25 41.5325 136.574 42.4311 136.574 43.6591V48.2431H135.217V43.7231C135.217 42.9458 135.031 42.3445 134.658 41.9165C134.286 41.4898 133.772 41.2765 133.121 41.2765C132.365 41.2765 131.773 41.5111 131.342 41.9831C130.913 42.4525 130.699 43.1378 130.699 44.0365V48.2431H129.341ZM167.498 48.2431V38.2831H165.917V37.0351H168.907V48.2431H167.498ZM176.431 38.2831L176.105 41.2591C176.564 41.1391 177.078 41.0778 177.651 41.0778C178.9 41.0778 179.904 41.3978 180.666 42.0391C181.428 42.6805 181.809 43.5658 181.809 44.6938C181.809 45.1538 181.723 45.6111 181.551 46.0671C181.379 46.5205 181.133 46.9405 180.812 47.3231C180.491 47.7071 180.068 48.0165 179.541 48.2525C179.014 48.4871 178.431 48.6058 177.789 48.6058C176.655 48.6058 175.739 48.3098 175.04 47.7178C174.341 47.1258 173.946 46.3925 173.854 45.5151H175.366C175.459 46.0525 175.712 46.4965 176.13 46.8471C176.549 47.1978 177.119 47.3725 177.84 47.3725C178.539 47.3725 179.129 47.1431 179.61 46.6831C180.091 46.2231 180.331 45.6258 180.331 44.8911C180.331 44.0578 180.083 43.4231 179.585 42.9845C179.085 42.5471 178.367 42.3271 177.428 42.3271C176.591 42.3271 175.646 42.4738 174.593 42.7711L175.16 37.0351H181.001V38.2845L176.431 38.2831Z" fill="black"/>
<path d="M118.922 61.8682H125.519V62.4108C125.519 63.0028 125.445 63.5828 125.296 64.1522C125.144 64.7288 124.91 65.28 124.6 65.7882C124.289 66.3032 123.898 66.7639 123.441 67.1522C122.936 67.5669 122.359 67.8842 121.74 68.0882C121.026 68.3298 120.277 68.4493 119.524 68.4415C117.749 68.4415 116.289 67.8775 115.143 66.7482C113.997 65.6202 113.425 64.2282 113.425 62.5748C113.425 60.8442 114.004 59.4108 115.16 58.2775C116.318 57.1442 117.771 56.5762 119.524 56.5762C120.91 56.5762 122.095 56.8855 123.08 57.5042C124.04 58.0934 124.773 58.9948 125.159 60.0602H122.496C122.229 59.5852 121.824 59.2038 121.337 58.9668C120.827 58.7095 120.24 58.5802 119.575 58.5802C118.534 58.5802 117.663 58.9375 116.964 59.6495C116.265 60.3615 115.916 61.3162 115.916 62.5095C115.916 63.7148 116.267 64.6695 116.973 65.3762C117.677 66.0828 118.591 66.4375 119.713 66.4375C120.56 66.4375 121.281 66.1842 121.877 65.6815C122.472 65.1762 122.817 64.5522 122.908 63.8068H118.922V61.8682ZM132.957 63.3802L136.583 68.1135H133.663L130.484 63.7095H129.711V68.1135H127.255V56.9055H130.897C132.443 56.9055 133.572 57.2228 134.28 57.8575C134.991 58.4935 135.346 59.3148 135.346 60.3242C135.346 61.1015 135.123 61.7588 134.676 62.2948C134.232 62.8308 133.63 63.2107 132.958 63.3802H132.957ZM132.821 60.4215C132.821 59.9068 132.666 59.5068 132.357 59.2215C132.048 58.9375 131.601 58.7948 131.017 58.7948H129.711V61.9828H131.034C131.584 61.9828 132.019 61.8402 132.34 61.5562C132.661 61.2708 132.821 60.8935 132.821 60.4228" fill="#E3553F"/>
<path d="M449.782 74.1386V73.1279H189.809V74.1386H449.782Z" stroke="#3366FF" stroke-width="0.945333" stroke-miterlimit="22.926"/>
<path d="M245.187 60.5363C245.187 60.0336 245.021 59.6163 244.689 59.2883C244.356 58.959 243.852 58.795 243.177 58.795H241.94V62.2616H243.126C244.5 62.2616 245.187 61.6883 245.187 60.5363ZM239.483 68.1136V56.9056H243.229C244.546 56.9056 245.613 57.2096 246.432 57.8176C247.251 58.4256 247.661 59.3203 247.661 60.5043C247.661 61.655 247.283 62.5496 246.527 63.191C245.771 63.8323 244.643 64.1523 243.143 64.1523H241.94V68.1123L239.483 68.1136ZM256.32 68.1136V63.3469H251.628V68.1136H249.173V56.9056H251.63V61.3096H256.32V56.9056H258.776V68.1136H256.32ZM261.13 68.1136V56.9056H263.587V68.1136H261.13ZM272.897 56.9056V58.943H268.363V61.3589H272.742V63.2976H268.363V66.075H273.086V68.1136H265.906V56.9056H272.897ZM373.459 60.5363C373.459 60.0336 373.292 59.6163 372.96 59.2883C372.629 58.959 372.124 58.795 371.448 58.795H370.211V62.2616H371.397C372.771 62.2616 373.459 61.6883 373.459 60.5363ZM367.755 68.1136V56.9056H371.5C372.818 56.9056 373.885 57.2096 374.705 57.8176C375.523 58.4256 375.933 59.3203 375.933 60.5043C375.933 61.655 375.555 62.5496 374.799 63.191C374.043 63.8323 372.914 64.1523 371.414 64.1523H370.211V68.1123L367.755 68.1136ZM383.148 63.3803L386.773 68.1136H383.852L380.674 63.7096H379.901V68.1136H377.443V56.9056H381.086C382.633 56.9056 383.76 57.223 384.47 57.8576C385.181 58.4936 385.536 59.3149 385.536 60.3243C385.536 61.1016 385.311 61.759 384.866 62.295C384.421 62.8309 383.82 63.2108 383.148 63.3803ZM383.009 60.4216C383.009 59.9069 382.856 59.507 382.547 59.2216C382.238 58.9376 381.791 58.795 381.207 58.795H379.901V61.983H381.223C381.774 61.983 382.208 61.8403 382.53 61.5563C382.849 61.271 383.009 60.8936 383.009 60.423V60.4216ZM398.782 56.9056L400.225 68.1136H397.854L397.286 62.607C397.196 61.7867 397.116 60.9653 397.046 60.1429H396.943C396.943 60.1536 396.848 60.4936 396.659 61.1616C396.47 61.8296 396.329 62.3176 396.239 62.6243L394.538 68.1136H392.82L391.085 62.5416C390.741 61.4683 390.517 60.6683 390.415 60.1416H390.278C390.254 60.635 390.192 61.4243 390.089 62.5096L389.487 68.1136H387.271L388.663 56.9056H391.377L393.095 62.1963C393.37 63.0403 393.576 63.7256 393.714 64.251H393.782C393.885 63.8683 394.092 63.1829 394.401 62.1976L396.084 56.9043L398.782 56.9056ZM401.977 68.1136V56.9056H405.224C406.472 56.9056 407.46 57.1456 408.187 57.6283C408.914 58.1096 409.279 58.8109 409.279 59.7323C409.279 60.3336 409.08 60.8416 408.685 61.2523C408.29 61.6629 407.789 61.939 407.183 62.0816V62.1149C408.042 62.2243 408.709 62.5389 409.183 63.0603C409.659 63.5803 409.897 64.191 409.897 64.8923C409.897 65.9003 409.516 66.6883 408.754 67.259C407.993 67.8283 407.01 68.1123 405.807 68.1123L401.977 68.1136ZM407.422 64.6949C407.422 64.2123 407.25 63.827 406.906 63.5363C406.563 63.2456 406.082 63.1003 405.465 63.1003H404.295V66.3389H405.568C406.162 66.3389 406.621 66.1963 406.942 65.9109C407.262 65.627 407.423 65.2203 407.423 64.6949H407.422ZM406.855 59.9616C406.855 59.5456 406.702 59.2243 406.392 59.0016C406.082 58.775 405.652 58.663 405.104 58.663H404.296V61.375H405.19C406.3 61.375 406.855 60.9043 406.855 59.9616Z" fill="#3366FF"/>
<path fill-rule="evenodd" clip-rule="evenodd" d="M0.078125 832.21V831.199H450.785V832.21H0.078125Z" fill="#545580"/>
<path d="M66.5322 88.624C66.5322 87.5946 66.6644 86.6826 66.9287 85.888C67.1917 85.0933 67.5432 84.4746 67.9846 84.0306C68.3923 83.6102 68.8764 83.273 69.4105 83.0373C69.9179 82.8185 70.4643 82.7064 71.0162 82.708C71.5448 82.708 72.0469 82.8067 72.528 83.004C73.0402 83.222 73.5046 83.5401 73.8944 83.94C74.3239 84.368 74.6676 84.98 74.9253 85.7733C75.183 86.568 75.3111 87.496 75.3111 88.56C75.3111 89.5013 75.2107 90.344 75.0112 91.0893C74.8103 91.836 74.5592 92.4226 74.2552 92.856C73.9666 93.2736 73.609 93.638 73.198 93.9333C72.8512 94.1915 72.462 94.3861 72.0483 94.508C71.6809 94.6066 71.3148 94.6546 70.9475 94.6546C70.4096 94.6546 69.8968 94.5573 69.4105 94.36C68.8859 94.1376 68.4078 93.8168 68.0018 93.4147C67.5498 92.9827 67.1917 92.3547 66.9274 91.5333C66.6631 90.712 66.5322 89.7426 66.5322 88.624ZM72.8888 88.624C72.8888 87.3306 72.7143 86.3533 72.3655 85.6907C72.0152 85.028 71.5382 84.696 70.9303 84.696C70.3805 84.696 69.9166 85.0146 69.5387 85.6493C69.1607 86.2853 68.9731 87.26 68.9731 88.5746C68.9731 89.9773 69.1528 91.0107 69.5136 91.6733C69.8743 92.336 70.3633 92.668 70.9818 92.668C71.5104 92.668 71.9584 92.3386 72.3297 91.6813C72.7037 91.024 72.8888 90.0053 72.8888 88.624ZM110.341 86.4053V94.2773H108.039V93.2906H107.987C107.393 94.124 106.59 94.5413 105.582 94.5413C104.805 94.5508 104.053 94.2565 103.486 93.72C102.891 93.1707 102.594 92.2893 102.594 91.0733V86.4067H104.913V90.7933C104.913 91.364 105.042 91.8013 105.299 92.108C105.557 92.4147 105.915 92.5693 106.374 92.5693C106.889 92.5693 107.292 92.3986 107.584 92.06C107.876 91.72 108.022 91.2266 108.022 90.58V86.4067L110.341 86.4053ZM118.278 89.5453L121.903 94.2786H118.982L115.804 89.8733H115.031V94.2773H112.574V83.0693H116.216C117.763 83.0693 118.891 83.3866 119.601 84.0226C120.312 84.6586 120.666 85.48 120.666 86.488C120.666 87.2653 120.443 87.924 119.996 88.4613C119.551 88.9967 118.95 89.3762 118.278 89.5453ZM118.141 86.5853C118.141 86.072 117.986 85.672 117.678 85.3867C117.367 85.1013 116.921 84.96 116.337 84.96H115.031V88.1466H116.354C116.904 88.1466 117.338 88.0053 117.659 87.72C117.981 87.436 118.141 87.0573 118.141 86.5866V86.5853ZM126.713 82.4453H128.723L123.415 96.152H121.422L126.713 82.4453ZM130.012 94.2773V82.4453H132.331V87.392H132.4C132.939 86.5693 133.745 86.1587 134.822 86.1587C135.774 86.1587 136.532 86.464 137.099 87.072C137.666 87.68 137.949 88.5746 137.949 89.7586V94.2786H135.63V89.8893C135.63 89.3093 135.495 88.868 135.227 88.5667C134.957 88.2653 134.576 88.1146 134.083 88.1146C133.556 88.1146 133.132 88.288 132.812 88.6333C132.491 88.9773 132.331 89.4733 132.331 90.12V94.2773H130.012ZM168.548 94.2773V85.0746H166.83V83.0693H170.917V94.2773H168.548ZM178.717 85.0746L178.493 87.096C178.723 87.0413 178.998 87.0146 179.318 87.0146C180.577 87.0146 181.586 87.348 182.342 88.016C183.098 88.684 183.476 89.5893 183.476 90.728C183.476 91.78 183.098 92.6947 182.342 93.472C181.586 94.2507 180.584 94.64 179.335 94.64C178.098 94.64 177.133 94.32 176.441 93.6786C175.761 93.0656 175.35 92.2053 175.298 91.2866H177.772C177.83 91.6813 177.99 91.9987 178.253 92.24C178.517 92.48 178.888 92.6013 179.37 92.6013C179.816 92.6013 180.194 92.4413 180.503 92.1253C180.813 91.8067 180.967 91.392 180.967 90.876C180.967 90.284 180.768 89.8227 180.366 89.4867C179.966 89.1533 179.388 88.9853 178.631 88.9853C177.875 88.9853 176.999 89.084 176.002 89.2813L176.604 83.0693H182.669V85.0746H178.717Z" fill="#E3553F"/>
<path d="M199.885 42.5738C199.885 41.5431 200.008 40.6338 200.254 39.8458C200.5 39.0565 200.833 38.4405 201.25 37.9965C201.631 37.58 202.089 37.2426 202.598 37.0031C203.079 36.7831 203.589 36.6738 204.129 36.6738C204.655 36.6738 205.15 36.7725 205.614 36.9698C206.076 37.1671 206.519 37.4791 206.935 37.9058C207.354 38.3338 207.687 38.9418 207.933 39.7311C208.179 40.5191 208.303 41.4458 208.303 42.5085C208.303 43.4605 208.208 44.3085 208.019 45.0471C207.83 45.7871 207.592 46.3725 207.306 46.8058C207.034 47.2225 206.692 47.5869 206.293 47.8818C205.96 48.1383 205.584 48.3333 205.183 48.4578C204.335 48.698 203.431 48.6459 202.615 48.3098C202.111 48.0879 201.656 47.7665 201.277 47.3645C200.852 46.9325 200.514 46.3045 200.262 45.4831C200.011 44.6605 199.884 43.6911 199.884 42.5738H199.885ZM206.842 42.5738C206.842 41.0178 206.604 39.8485 206.128 39.0645C205.654 38.2818 204.976 37.8911 204.093 37.8911C203.292 37.8911 202.637 38.2645 202.126 39.0151C201.616 39.7658 201.361 40.9351 201.361 42.5245C201.361 45.7685 202.289 47.3898 204.144 47.3898C204.924 47.3898 205.568 47.0005 206.078 46.2231C206.588 45.4445 206.843 44.2285 206.843 42.5738H206.842ZM209.951 48.2431V46.4365H211.841V48.2431H209.951ZM215.93 39.4831H214.469C214.55 38.7391 214.886 38.0831 215.474 37.5205C216.065 36.9551 216.887 36.6738 217.94 36.6738C218.936 36.6738 219.741 36.9445 220.354 37.4871C220.967 38.0298 221.273 38.7111 221.273 39.5338C221.273 40.1791 221.064 40.7245 220.646 41.1685C220.227 41.6125 219.711 41.9165 219.091 42.0805V42.1138C219.847 42.2231 220.471 42.5378 220.963 43.0591C221.456 43.5791 221.704 44.2671 221.704 45.1205C221.704 46.0965 221.373 46.9178 220.715 47.5871C220.057 48.2538 219.125 48.5885 217.923 48.5885C216.801 48.5885 215.914 48.2991 215.261 47.7178C214.619 47.1583 214.218 46.3682 214.143 45.5151H215.656C215.758 46.0751 216.013 46.5231 216.42 46.8631C216.827 47.2031 217.357 47.3725 218.009 47.3725C218.661 47.3725 219.198 47.1591 219.616 46.7325C219.82 46.5258 219.982 46.2793 220.089 46.008C220.197 45.7366 220.249 45.446 220.242 45.1538C220.242 44.4965 220.023 43.9485 219.581 43.5111C219.14 43.0711 218.462 42.8471 217.546 42.8365H216.893V41.5871H217.459C218.159 41.5871 218.722 41.4138 219.15 41.0618C219.581 40.7111 219.795 40.2231 219.795 39.5991C219.795 39.1391 219.638 38.7391 219.323 38.3991C219.009 38.0605 218.541 37.8898 217.923 37.8898C217.294 37.8898 216.815 38.0458 216.489 38.3578C216.171 38.6511 215.972 39.0523 215.93 39.4845V39.4831ZM255.668 40.3711L252.626 48.2431H251.337L248.298 40.3711H249.69L251.408 44.9578C251.681 45.6805 251.87 46.2885 251.973 46.7805H252.042C252.191 46.1671 252.374 45.5591 252.592 44.9565L254.292 40.3711H255.668ZM260.219 36.4111H261.594L256.715 50.1178H255.358L260.219 36.4111ZM269.256 40.3711L266.217 48.2431H264.927L261.887 40.3711H263.278L264.995 44.9578C265.27 45.6805 265.459 46.2885 265.564 46.7805H265.631C265.78 46.1671 265.963 45.5591 266.181 44.9565L267.882 40.3711H269.256ZM304.269 42.5738C304.269 41.5431 304.393 40.6338 304.639 39.8458C304.886 39.0565 305.218 38.4405 305.635 37.9965C306.016 37.58 306.474 37.2425 306.983 37.0031C307.465 36.7831 307.974 36.6738 308.513 36.6738C309.039 36.6738 309.535 36.7725 309.999 36.9698C310.461 37.1671 310.903 37.4791 311.32 37.9058C311.739 38.3338 312.072 38.9418 312.318 39.7311C312.564 40.5191 312.688 41.4458 312.688 42.5085C312.688 43.4605 312.593 44.3085 312.404 45.0471C312.215 45.7871 311.977 46.3725 311.69 46.8058C311.419 47.2225 311.076 47.5869 310.678 47.8818C310.345 48.1381 309.97 48.3331 309.569 48.4578C308.72 48.698 307.816 48.6459 307 48.3098C306.496 48.0878 306.041 47.7664 305.661 47.3645C305.237 46.9325 304.899 46.3045 304.648 45.4831C304.396 44.6605 304.269 43.6911 304.269 42.5738ZM311.226 42.5738C311.226 41.0178 310.989 39.8485 310.514 39.0645C310.038 38.2818 309.36 37.8911 308.479 37.8911C307.677 37.8911 307.021 38.2645 306.511 39.0151C306.001 39.7658 305.747 40.9351 305.747 42.5245C305.747 45.7685 306.675 47.3898 308.531 47.3898C309.309 47.3898 309.952 47.0005 310.463 46.2231C310.973 45.4445 311.226 44.2285 311.226 42.5738Z" fill="black"/>
<path d="M198.132 88.624C198.132 87.5946 198.264 86.6826 198.528 85.888C198.791 85.0933 199.143 84.4746 199.584 84.0306C199.992 83.6102 200.476 83.273 201.01 83.0373C201.518 82.8185 202.064 82.7064 202.616 82.708C203.144 82.708 203.647 82.8067 204.129 83.004C204.641 83.2222 205.105 83.5403 205.494 83.94C205.924 84.368 206.267 84.98 206.525 85.7733C206.783 86.568 206.911 87.496 206.911 88.56C206.911 89.5013 206.81 90.344 206.611 91.0893C206.41 91.836 206.159 92.4226 205.855 92.856C205.566 93.2736 205.209 93.638 204.798 93.9333C204.451 94.1915 204.062 94.386 203.648 94.508C203.281 94.6066 202.914 94.6546 202.547 94.6546C202.009 94.6546 201.496 94.5573 201.01 94.36C200.485 94.1376 200.007 93.8168 199.601 93.4147C199.149 92.9827 198.791 92.3547 198.527 91.5333C198.263 90.712 198.132 89.7426 198.132 88.624ZM204.488 88.624C204.488 87.3306 204.314 86.3533 203.965 85.6907C203.615 85.028 203.138 84.696 202.53 84.696C201.98 84.696 201.516 85.0146 201.138 85.6493C200.76 86.2853 200.573 87.26 200.573 88.5746C200.573 89.9773 200.752 91.0107 201.113 91.6733C201.474 92.336 201.963 92.668 202.581 92.668C203.11 92.668 203.559 92.3386 203.929 91.6813C204.303 91.024 204.488 90.0053 204.488 88.624ZM208.423 94.2773V91.78H211.206V94.2773H208.423ZM215.655 85.9946H213.336C213.358 85.0306 213.709 84.2413 214.384 83.628C215.061 83.0147 215.976 82.708 217.133 82.708C218.313 82.708 219.238 82.9853 219.908 83.5373C220.577 84.092 220.912 84.8013 220.912 85.6666C220.912 86.2693 220.723 86.7893 220.345 87.2266C219.996 87.647 219.529 87.951 219.005 88.0987V88.148C219.716 88.312 220.277 88.6493 220.689 89.1587C221.101 89.668 221.307 90.296 221.307 91.04C221.307 92.0373 220.941 92.884 220.208 93.58C219.476 94.2746 218.444 94.6226 217.116 94.6226C215.82 94.6226 214.825 94.308 214.126 93.6786C213.427 93.048 213.051 92.1906 212.992 91.1053H215.312C215.358 91.6106 215.538 92.0093 215.853 92.3053C216.168 92.6013 216.594 92.7493 217.133 92.7493C217.661 92.7493 218.084 92.5827 218.404 92.248C218.725 91.9147 218.885 91.4733 218.885 90.9253C218.885 90.4 218.703 89.98 218.335 89.668C217.969 89.356 217.437 89.2 216.738 89.2H216.033V87.392H216.806C217.334 87.392 217.745 87.2547 218.043 86.9813C218.341 86.7067 218.49 86.3413 218.49 85.88C218.493 85.7127 218.462 85.5465 218.4 85.3912C218.338 85.236 218.246 85.0948 218.129 84.976C217.889 84.724 217.545 84.5987 217.098 84.5987C216.629 84.5987 216.276 84.732 216.041 85C215.807 85.2693 215.679 85.6 215.655 85.9946ZM255.822 86.4053L252.782 94.2773H250.721L247.679 86.4053H250.084L251.218 89.824C251.458 90.58 251.642 91.2813 251.769 91.928H251.837C252.009 91.084 252.192 90.3826 252.386 89.824L253.554 86.4053H255.822ZM260.615 82.4453H262.626L257.316 96.152H255.324L260.615 82.4453ZM270.871 86.4053L267.832 94.2773H265.77L262.728 86.4053H265.133L266.267 89.824C266.508 90.58 266.69 91.2813 266.817 91.928H266.886C267.057 91.084 267.241 90.3826 267.435 89.824L268.604 86.4053H270.871ZM305.662 88.624C305.662 87.5946 305.794 86.6826 306.056 85.888C306.32 85.0933 306.672 84.4746 307.113 84.0306C307.521 83.6103 308.005 83.2731 308.539 83.0373C309.048 82.8173 309.583 82.708 310.146 82.708C310.672 82.708 311.177 82.8067 311.658 83.004C312.139 83.2013 312.593 83.5133 313.023 83.94C313.452 84.368 313.796 84.98 314.054 85.7733C314.311 86.568 314.441 87.496 314.441 88.56C314.441 89.5013 314.34 90.344 314.14 91.0893C313.939 91.836 313.688 92.4226 313.384 92.856C313.08 93.2893 312.728 93.648 312.326 93.9333C311.98 94.1916 311.59 94.3861 311.177 94.508C310.809 94.6066 310.443 94.6546 310.077 94.6546C309.538 94.6546 309.025 94.5573 308.539 94.36C308.014 94.1378 307.536 93.817 307.13 93.4147C306.678 92.9827 306.32 92.3547 306.056 91.5333C305.793 90.712 305.662 89.7426 305.662 88.624ZM312.018 88.624C312.018 87.3306 311.843 86.3533 311.494 85.6907C311.145 85.028 310.667 84.696 310.06 84.696C309.51 84.696 309.046 85.0146 308.668 85.6493C308.29 86.2853 308.1 87.26 308.1 88.5746C308.1 89.9773 308.281 91.0107 308.642 91.6733C309.003 92.336 309.493 92.668 310.11 92.668C310.639 92.668 311.088 92.3386 311.458 91.6813C311.832 91.024 312.018 90.0053 312.018 88.624Z" fill="#3366FF"/>
<path d="M330.037 42.5739C330.037 41.5432 330.16 40.6339 330.407 39.8459C330.653 39.0565 330.985 38.4405 331.402 37.9965C331.784 37.5799 332.242 37.2424 332.752 37.0032C333.233 36.7832 333.743 36.6739 334.281 36.6739C334.807 36.6739 335.302 36.7725 335.766 36.9699C336.23 37.1672 336.671 37.4792 337.089 37.9059C337.508 38.3339 337.839 38.9419 338.085 39.7312C338.331 40.5192 338.455 41.4458 338.455 42.5085C338.455 43.4605 338.36 44.3085 338.171 45.0472C337.982 45.7872 337.746 46.3725 337.457 46.8059C337.186 47.2225 336.843 47.5869 336.445 47.8818C336.112 48.1382 335.737 48.3332 335.336 48.4579C334.488 48.6981 333.584 48.646 332.769 48.3098C332.264 48.0881 331.808 47.7667 331.429 47.3645C331.006 46.9325 330.667 46.3045 330.415 45.4832C330.163 44.6605 330.037 43.6912 330.037 42.5739ZM336.995 42.5739C336.995 41.0179 336.757 39.8485 336.281 39.0645C335.806 38.2819 335.128 37.8912 334.246 37.8912C333.445 37.8912 332.789 38.2645 332.278 39.0152C331.77 39.7659 331.515 40.9352 331.515 42.5245C331.515 45.7685 332.442 47.3899 334.298 47.3899C335.076 47.3899 335.721 47.0005 336.23 46.2232C336.74 45.4445 336.995 44.2285 336.995 42.5739ZM340.104 48.2432V46.4365H341.994V48.2432H340.104ZM347.165 48.2432V38.2832H345.585V37.0352H348.573V48.2432H347.165ZM375.322 48.2432V40.3712H376.679V41.3579H376.715C377.368 40.5245 378.186 40.1085 379.172 40.1085C379.801 40.1085 380.362 40.2618 380.855 40.5685C381.347 40.8752 381.68 41.2645 381.852 41.7352C382.08 41.2858 382.444 40.9032 382.942 40.5858C383.44 40.2672 384.021 40.1085 384.686 40.1085C385.638 40.1085 386.398 40.4179 386.971 41.0379C387.543 41.6565 387.83 42.5298 387.83 43.6578V48.2445H386.473V43.5605C386.473 42.9019 386.307 42.3579 385.975 41.9245C385.642 41.4925 385.15 41.2752 384.497 41.2752C383.867 41.2752 383.337 41.4952 382.907 41.9338C382.478 42.3712 382.264 43.0179 382.264 43.8725V48.2432H380.89V43.5605C380.89 42.8912 380.711 42.3445 380.357 41.9165C380.001 41.4898 379.526 41.2765 378.93 41.2765C378.232 41.2765 377.682 41.5059 377.28 41.9659C376.88 42.4259 376.679 43.0619 376.679 43.8725V48.2432H375.322ZM390.184 37.0352H393.979C396.007 37.0352 397.579 37.5672 398.696 38.6299C399.813 39.6925 400.37 41.0299 400.37 42.6392C400.37 44.2285 399.798 45.5592 398.652 46.6339C397.508 47.7072 395.938 48.2432 393.946 48.2432H390.184V37.0352ZM391.608 46.9952H394.031C395.589 46.9952 396.789 46.5832 397.631 45.7619C398.472 44.9405 398.894 43.8992 398.894 42.6392C398.894 41.3245 398.467 40.2698 397.612 39.4765C396.76 38.6818 395.566 38.2845 394.031 38.2845H391.608V46.9952ZM413.77 48.2432V38.2832H412.191V37.0352H415.179V48.2432H413.77ZM419.886 42.5739C419.886 41.5432 420.011 40.6339 420.256 39.8459C420.502 39.0565 420.835 38.4405 421.253 37.9965C421.634 37.5801 422.092 37.2427 422.601 37.0032C423.081 36.784 423.603 36.6717 424.13 36.6739C424.657 36.6739 425.153 36.7725 425.617 36.9699C426.079 37.1672 426.521 37.4792 426.938 37.9059C427.357 38.3339 427.69 38.9419 427.936 39.7312C428.182 40.5192 428.306 41.4458 428.306 42.5085C428.306 43.4605 428.211 44.3085 428.022 45.0472C427.833 45.7872 427.595 46.3725 427.308 46.8059C427.037 47.2225 426.694 47.5868 426.296 47.8818C425.962 48.1383 425.587 48.3333 425.186 48.4579C424.337 48.698 423.434 48.6459 422.618 48.3098C422.113 48.088 421.658 47.7666 421.278 47.3645C420.855 46.9325 420.517 46.3045 420.264 45.4832C420.013 44.6605 419.886 43.6912 419.886 42.5739ZM426.844 42.5739C426.844 41.0179 426.606 39.8485 426.131 39.0645C425.656 38.2819 424.978 37.8912 424.096 37.8912C423.295 37.8912 422.639 38.2645 422.129 39.0152C421.619 39.7659 421.364 40.9352 421.364 42.5245C421.364 45.7685 422.292 47.3899 424.147 47.3899C424.927 47.3899 425.57 47.0005 426.08 46.2232C426.591 45.4445 426.846 44.2285 426.846 42.5739H426.844ZM429.542 42.5739C429.542 41.5432 429.664 40.6339 429.912 39.8459C430.157 39.0565 430.489 38.4405 430.908 37.9965C431.289 37.5801 431.747 37.2427 432.256 37.0032C432.737 36.7832 433.247 36.6739 433.785 36.6739C434.312 36.6739 434.808 36.7725 435.272 36.9699C435.734 37.1672 436.176 37.4792 436.593 37.9059C437.012 38.3339 437.344 38.9419 437.591 39.7312C437.837 40.5192 437.961 41.4458 437.961 42.5085C437.961 43.4605 437.866 44.3085 437.677 45.0472C437.488 45.7872 437.25 46.3725 436.963 46.8059C436.692 47.2226 436.348 47.587 435.95 47.8818C435.616 48.1382 435.241 48.3332 434.841 48.4579C433.992 48.6981 433.089 48.646 432.273 48.3098C431.768 48.0881 431.313 47.7667 430.933 47.3645C430.51 46.9325 430.172 46.3045 429.919 45.4832C429.668 44.6605 429.542 43.6912 429.542 42.5739ZM436.499 42.5739C436.499 41.0179 436.261 39.8485 435.786 39.0645C435.31 38.2819 434.633 37.8912 433.751 37.8912C432.95 37.8912 432.293 38.2645 431.784 39.0152C431.274 39.7659 431.019 40.9352 431.019 42.5245C431.019 45.7685 431.947 47.3899 433.802 47.3899C434.582 47.3899 435.225 47.0005 435.736 46.2232C436.244 45.4445 436.499 44.2285 436.499 42.5739ZM439.195 42.5739C439.195 41.5432 439.32 40.6339 439.565 39.8459C439.813 39.0565 440.144 38.4405 440.562 37.9965C440.943 37.5799 441.401 37.2424 441.911 37.0032C442.392 36.7832 442.902 36.6739 443.44 36.6739C443.966 36.6739 444.462 36.7725 444.927 36.9699C445.389 37.1672 445.831 37.4792 446.248 37.9059C446.667 38.3339 446.999 38.9419 447.245 39.7312C447.492 40.5192 447.615 41.4458 447.615 42.5085C447.615 43.4605 447.52 44.3085 447.331 45.0472C447.142 45.7872 446.905 46.3725 446.617 46.8059C446.346 47.2226 446.003 47.587 445.605 47.8818C445.272 48.1381 444.896 48.3331 444.496 48.4579C443.648 48.6978 442.744 48.6457 441.928 48.3098C441.424 48.0881 440.968 47.7667 440.588 47.3645C440.165 46.9325 439.827 46.3045 439.575 45.4832C439.324 44.6605 439.197 43.6912 439.197 42.5739H439.195ZM446.155 42.5739C446.155 41.0179 445.917 39.8485 445.441 39.0645C444.965 38.2819 444.287 37.8912 443.406 37.8912C442.604 37.8912 441.948 38.2645 441.438 39.0152C440.929 39.7659 440.674 40.9352 440.674 42.5245C440.674 45.7685 441.602 47.3899 443.457 47.3899C444.237 47.3899 444.881 47.0005 445.389 46.2232C445.899 45.4445 446.155 44.2285 446.155 42.5739Z" fill="black"/>
<path d="M328.853 88.3613C328.853 87.332 328.984 86.42 329.247 85.6254C329.511 84.8307 329.863 84.212 330.304 83.768C330.711 83.3473 331.195 83.0096 331.729 82.7733C332.236 82.5547 332.783 82.4431 333.336 82.4453C333.864 82.4453 334.366 82.544 334.847 82.7413C335.36 82.9594 335.824 83.2775 336.214 83.6773C336.643 84.104 336.987 84.716 337.245 85.5107C337.502 86.304 337.63 87.2333 337.63 88.296C337.641 89.1492 337.541 90.0001 337.33 90.8267C337.13 91.572 336.877 92.16 336.575 92.5934C336.286 93.0105 335.928 93.3744 335.517 93.6693C335.171 93.928 334.781 94.123 334.368 94.2454C334 94.344 333.634 94.392 333.267 94.392C332.729 94.392 332.216 94.2947 331.73 94.0973C331.205 93.875 330.727 93.5542 330.321 93.152C329.868 92.7187 329.51 92.092 329.247 91.2707C328.982 90.448 328.852 89.4787 328.852 88.3613H328.853ZM335.209 88.3613C335.209 87.068 335.034 86.0907 334.683 85.428C334.335 84.7653 333.858 84.4333 333.25 84.4333C332.7 84.4333 332.236 84.7507 331.858 85.3867C331.48 86.0227 331.291 86.9974 331.291 88.312C331.291 89.7147 331.472 90.7467 331.833 91.4094C332.192 92.0734 332.683 92.404 333.301 92.404C333.828 92.404 334.278 92.076 334.649 91.4174C335.022 90.76 335.208 89.7413 335.208 88.3613H335.209ZM339.142 94.0147V91.5173H341.925V94.0147H339.142ZM346.787 94.0147V84.812H345.069V82.8067H349.158V94.0147H346.787ZM375.289 94.0147V86.1427H377.575V87.1293H377.608C378.203 86.3067 379 85.896 379.996 85.896C380.58 85.896 381.086 86.0333 381.516 86.3067C381.947 86.5813 382.247 86.9147 382.418 87.3093C382.647 86.9267 383.003 86.5947 383.484 86.3147C383.97 86.0339 384.522 85.8893 385.083 85.896C386.043 85.896 386.802 86.208 387.358 86.8333C387.913 87.4573 388.191 88.3454 388.191 89.496V94.016H385.872V89.5614C385.872 89.068 385.754 88.66 385.52 88.3374C385.285 88.0134 384.938 87.852 384.48 87.852C384.045 87.852 383.674 88.016 383.363 88.3454C383.054 88.6734 382.901 89.156 382.901 89.7907V94.0147H380.58V89.5614C380.58 89.068 380.455 88.66 380.202 88.3374C380.084 88.1807 379.93 88.0549 379.754 87.9704C379.578 87.886 379.384 87.8454 379.189 87.852C378.708 87.852 378.324 88.0213 378.039 88.3613C377.752 88.7013 377.608 89.1774 377.608 89.7907V94.0147H375.289ZM390.338 82.8067H394.358C396.386 82.8067 397.966 83.3387 399.1 84.4C400.234 85.464 400.801 86.8 400.801 88.4107C400.801 90 400.219 91.3307 399.056 92.404C397.893 93.4787 396.317 94.0147 394.324 94.0147H390.338V82.8067ZM392.796 91.944H394.272C395.589 91.944 396.589 91.6134 397.27 90.9494C397.952 90.2867 398.293 89.44 398.293 88.4107C398.293 87.3373 397.946 86.48 397.252 85.8387C396.56 85.1987 395.566 84.8774 394.272 84.8774H392.795L392.796 91.944ZM413.84 94.0147V84.812H412.122V82.8067H416.211V94.0147H413.84ZM420.334 88.3613C420.334 87.332 420.466 86.42 420.729 85.6254C420.994 84.8307 421.345 84.212 421.787 83.768C422.194 83.3472 422.678 83.0095 423.211 82.7733C423.719 82.5547 424.266 82.4431 424.818 82.4453C425.346 82.4453 425.849 82.544 426.33 82.7413C426.842 82.9595 427.306 83.2776 427.695 83.6773C428.126 84.104 428.47 84.716 428.726 85.5107C428.985 86.304 429.113 87.2333 429.113 88.296C429.124 89.1492 429.023 90.0001 428.813 90.8267C428.612 91.572 428.36 92.16 428.057 92.5934C427.753 93.0267 427.401 93.3853 427 93.6693C426.653 93.9282 426.263 94.1232 425.849 94.2454C425.482 94.344 425.117 94.392 424.75 94.392C424.212 94.392 423.699 94.2947 423.211 94.0973C422.687 93.8748 422.21 93.5541 421.804 93.152C421.351 92.7187 420.992 92.092 420.729 91.2707C420.465 90.448 420.334 89.4787 420.334 88.3613ZM426.691 88.3613C426.691 87.068 426.516 86.0907 426.166 85.428C425.817 84.7653 425.339 84.4333 424.732 84.4333C424.183 84.4333 423.719 84.7507 423.341 85.3867C422.963 86.0227 422.774 86.9974 422.774 88.312C422.774 89.7147 422.954 90.7467 423.316 91.4094C423.675 92.0734 424.165 92.404 424.784 92.404C425.311 92.404 425.761 92.076 426.132 91.4174C426.505 90.76 426.691 89.7413 426.691 88.3613ZM430.178 88.3613C430.178 87.332 430.31 86.42 430.573 85.6254C430.838 84.8307 431.189 84.212 431.631 83.768C432.038 83.3472 432.522 83.0095 433.055 82.7733C433.563 82.5547 434.11 82.4431 434.662 82.4453C435.19 82.4453 435.693 82.544 436.174 82.7413C436.655 82.9373 437.11 83.2507 437.539 83.6773C437.969 84.104 438.312 84.716 438.57 85.5107C438.828 86.304 438.957 87.2333 438.957 88.296C438.957 89.2373 438.857 90.0827 438.657 90.8267C438.456 91.572 438.204 92.16 437.901 92.5934C437.597 93.0267 437.245 93.3853 436.844 93.6693C436.497 93.9281 436.107 94.1231 435.693 94.2454C435.327 94.344 434.96 94.392 434.594 94.392C434.056 94.392 433.543 94.2947 433.055 94.0973C432.531 93.875 432.053 93.5542 431.647 93.152C431.195 92.7187 430.836 92.092 430.573 91.2707C430.309 90.448 430.177 89.4787 430.177 88.3613H430.178ZM436.535 88.3613C436.535 87.068 436.36 86.0907 436.01 85.428C435.661 84.7653 435.183 84.4333 434.576 84.4333C434.027 84.4333 433.563 84.7507 433.185 85.3867C432.807 86.0227 432.618 86.9974 432.618 88.312C432.618 89.7147 432.798 90.7467 433.16 91.4094C433.519 92.0734 434.009 92.404 434.627 92.404C435.155 92.404 435.605 92.076 435.976 91.4174C436.349 90.76 436.535 89.7413 436.535 88.3613ZM440.024 88.3613C440.024 87.332 440.155 86.42 440.418 85.6254C440.682 84.8307 441.033 84.212 441.475 83.768C441.882 83.3472 442.366 83.0095 442.899 82.7733C443.41 82.5547 443.945 82.4453 444.506 82.4453C445.034 82.4453 445.537 82.544 446.018 82.7413C446.499 82.9373 446.954 83.2507 447.383 83.6773C447.814 84.104 448.156 84.716 448.414 85.5107C448.673 86.304 448.801 87.2333 448.801 88.296C448.801 89.2373 448.701 90.0827 448.501 90.8267C448.3 91.572 448.048 92.16 447.744 92.5934C447.44 93.0267 447.089 93.3853 446.687 93.6693C446.34 93.9281 445.951 94.1231 445.537 94.2454C445.171 94.344 444.804 94.392 444.438 94.392C443.9 94.392 443.387 94.2947 442.899 94.0973C442.375 93.875 441.897 93.5542 441.492 93.152C441.039 92.7187 440.68 92.092 440.418 91.2707C440.153 90.448 440.022 89.4787 440.022 88.3613H440.024ZM446.379 88.3613C446.379 87.068 446.204 86.0907 445.854 85.428C445.505 84.7653 445.027 84.4333 444.42 84.4333C443.871 84.4333 443.407 84.7507 443.029 85.3867C442.651 86.0227 442.462 86.9974 442.462 88.312C442.462 89.7147 442.642 90.7467 443.004 91.4094C443.363 92.0734 443.853 92.404 444.471 92.404C444.999 92.404 445.449 92.076 445.82 91.4174C446.193 90.76 446.379 89.7413 446.379 88.3613Z" fill="#3366FF"/>
<path d="M27.6578 24.9906L29.1009 36.1986H26.73L26.1631 30.6919C26.0706 29.8599 25.9913 29.0386 25.9226 28.2279H25.8195C25.5938 29.0576 25.359 29.8848 25.1151 30.7092L23.4144 36.1986H21.6964L19.9612 30.6266C19.6176 29.5533 19.3943 28.7532 19.2912 28.2266H19.1538C19.1313 28.7199 19.0678 29.5093 18.9648 30.5933L18.3634 36.1986H16.1472L17.5402 24.9906H20.2532L21.9712 30.2812C22.2461 31.1253 22.4523 31.8106 22.5911 32.3359H22.6584C22.7615 31.9533 22.9677 31.2679 23.2769 30.2826L24.9605 24.9893L27.6578 24.9906ZM30.8532 24.9906H34.8733C36.9005 24.9906 38.4811 25.5213 39.6149 26.5839C40.7488 27.6466 41.3157 28.9839 41.3157 30.5933C41.3157 32.1826 40.7343 33.5132 39.5714 34.5879C38.4084 35.6612 36.8318 36.1986 34.8403 36.1986H30.8532V24.9906ZM33.3113 34.1279H34.7874C36.1049 34.1279 37.1041 33.7959 37.786 33.1333C38.4666 32.4706 38.8075 31.6239 38.8075 30.5933C38.8075 29.5199 38.4613 28.6626 37.7688 28.0226C37.075 27.3812 36.0811 27.0599 34.7874 27.0599H33.3099L33.3113 34.1279ZM20.9576 60.0613H18.7414C17.8684 58.9603 17.2097 57.7026 16.8001 56.3546C16.3737 55.0132 16.1535 53.6139 16.1472 52.2053C16.151 50.7912 16.3712 49.3862 16.8001 48.0399C17.2362 46.6533 17.8837 45.4133 18.7427 44.3173H20.9576C20.0809 45.4031 19.4268 46.654 19.0335 47.9973C18.2106 50.7384 18.2106 53.6641 19.0335 56.4053C19.4209 57.7436 20.0757 58.9878 20.9576 60.0613ZM22.3148 56.5279V48.6559H24.6011V49.6426H24.6341C25.2301 48.8199 26.0257 48.4093 27.0221 48.4093C27.6062 48.4093 28.1137 48.5466 28.5419 48.8199C28.9727 49.0946 29.2727 49.4279 29.4445 49.8226C29.6731 49.4386 30.0285 49.1079 30.5096 48.8279C30.9961 48.5471 31.5482 48.4026 32.1087 48.4093C33.0694 48.4093 33.8279 48.7212 34.3843 49.3466C34.9394 49.9706 35.2169 50.8572 35.2169 52.0079V56.5279H32.8976V52.0746C32.8976 51.5813 32.78 51.1733 32.5448 50.8506C32.3109 50.5266 31.9633 50.3653 31.5061 50.3653C31.0699 50.3653 30.6999 50.5292 30.3893 50.8586C30.0801 51.1866 29.9268 51.6692 29.9268 52.3039V56.5279H27.6062V52.0746C27.6062 51.5813 27.4807 51.1733 27.2283 50.8506C27.1101 50.6938 26.9563 50.568 26.78 50.4835C26.6036 50.3991 26.4097 50.3585 26.2146 50.3653C25.7336 50.3653 25.3503 50.5346 25.0649 50.8746C24.7781 51.2146 24.6341 51.6906 24.6341 52.3039V56.5279H22.3148ZM38.7044 60.0613H36.4882C37.3605 58.984 38.009 57.7406 38.3952 56.4053C38.8075 55.0186 39.0136 53.6186 39.0136 52.2053C39.0136 50.7813 38.8075 49.3786 38.3952 47.9986C38.0033 46.6578 37.3556 45.4073 36.4882 44.3173H38.7044C39.5616 45.4319 40.2133 46.6928 40.6286 48.0399C41.0574 49.3862 41.2776 50.7912 41.2814 52.2053C41.2765 53.6171 41.0564 55.0197 40.6286 56.3639C40.219 57.7057 39.5666 58.9593 38.7044 60.0613ZM10.4436 76.8573V67.6546H8.72559V65.6493H12.8144V76.8573H10.4436ZM17.4872 71.5986V69.0839H20.2876V71.5986H17.4872ZM17.4872 76.8573V74.3599H20.2876V76.8573H17.4872ZM25.5618 67.6546L25.3385 69.6759C25.6093 69.6166 25.886 69.5889 26.1631 69.5933C27.4225 69.5933 28.4308 69.9279 29.1868 70.5959C29.9427 71.2639 30.3207 72.1693 30.3207 73.3079C30.3207 74.3599 29.9427 75.2746 29.1868 76.0519C28.4308 76.8306 27.4291 77.2199 26.1803 77.2199C24.9433 77.2199 23.9786 76.8999 23.2861 76.2573C22.6064 75.6445 22.1953 74.7848 22.143 73.8666H24.6169C24.6737 74.2613 24.835 74.5786 25.098 74.8199C25.3623 75.0599 25.7336 75.1813 26.2146 75.1813C26.6613 75.1813 27.0393 75.0213 27.3485 74.7053C27.6578 74.3866 27.8124 73.9706 27.8124 73.4559C27.8124 72.8639 27.6115 72.4013 27.2111 72.0666C26.8107 71.7333 26.2318 71.5652 25.4759 71.5652C24.72 71.5652 23.8439 71.6639 22.8461 71.8612L23.4487 65.6493H29.5132V67.6546H25.5618ZM31.7294 71.2039C31.7294 70.1746 31.8616 69.2626 32.1245 68.4679C32.3889 67.6733 32.7404 67.0546 33.1818 66.6106C33.589 66.1902 34.0727 65.853 34.6064 65.6172C35.1165 65.3973 35.6517 65.2879 36.2133 65.2879C36.7406 65.2879 37.2441 65.3866 37.7252 65.5839C38.2062 65.7799 38.6608 66.0933 39.0903 66.5199C39.5211 66.9466 39.8634 67.5586 40.1211 68.3533C40.3801 69.1466 40.5083 70.0759 40.5083 71.1386C40.5083 72.0813 40.4078 72.9253 40.207 73.6693C40.0074 74.4146 39.7551 75.0026 39.4511 75.4359C39.1472 75.8692 38.7956 76.2279 38.3938 76.5119C38.0471 76.7705 37.6579 76.9655 37.2441 77.0879C36.8767 77.1866 36.5107 77.2346 36.1446 77.2346C35.6068 77.2346 35.094 77.1373 34.6064 76.9399C34.0821 76.7176 33.6045 76.3968 33.1989 75.9946C32.7457 75.5626 32.3889 74.9346 32.1245 74.1133C31.8602 73.2919 31.728 72.3213 31.728 71.2039H31.7294ZM38.0859 71.2039C38.0859 69.9106 37.9115 68.9333 37.5613 68.2706C37.2124 67.6079 36.734 67.2759 36.1274 67.2759C35.5777 67.2759 35.1138 67.5946 34.7358 68.2292C34.3579 68.8652 34.1689 69.8399 34.1689 71.1546C34.1689 72.5573 34.3486 73.5893 34.7107 74.2533C35.0702 74.9159 35.5605 75.2466 36.1776 75.2466C36.7062 75.2466 37.1555 74.9186 37.5269 74.2599C37.8996 73.6039 38.0859 72.5839 38.0859 71.2039ZM41.5734 71.2039C41.5734 70.1746 41.7056 69.2626 41.9686 68.4679C42.2329 67.6733 42.5844 67.0546 43.0258 66.6106C43.433 66.1903 43.9167 65.853 44.4504 65.6172C44.9583 65.3983 45.5051 65.2862 46.0574 65.2879C46.5847 65.2879 47.0881 65.3866 47.5692 65.5839C48.0502 65.7799 48.5048 66.0933 48.9343 66.5199C49.3652 66.9466 49.7088 67.5586 49.9652 68.3533C50.2242 69.1466 50.3523 70.0759 50.3523 71.1386C50.3523 72.0813 50.2519 72.9253 50.0511 73.6693C49.8515 74.4146 49.5991 75.0026 49.2964 75.4359C48.9925 75.8692 48.6396 76.2279 48.2392 76.5119C47.8921 76.7708 47.5025 76.9658 47.0882 77.0879C46.7208 77.1866 46.3547 77.2346 45.9887 77.2346C45.4508 77.2346 44.938 77.1373 44.4504 76.9399C43.9262 76.7174 43.4486 76.3966 43.043 75.9946C42.5897 75.5626 42.2316 74.9346 41.9686 74.1133C41.7043 73.2919 41.5734 72.3213 41.5734 71.2039ZM47.93 71.2039C47.93 69.9106 47.7556 68.9333 47.4054 68.2706C47.0565 67.6079 46.5781 67.2759 45.9715 67.2759C45.4217 67.2759 44.9579 67.5946 44.5799 68.2292C44.202 68.8652 44.0117 69.8399 44.0117 71.1546C44.0117 72.5573 44.1927 73.5893 44.5535 74.2533C44.9143 74.9159 45.4045 75.2466 46.023 75.2466C46.5503 75.2466 46.9996 74.9186 47.371 74.2599C47.7437 73.6039 47.93 72.5839 47.93 71.2039Z" fill="white"/>
<path fill-rule="evenodd" clip-rule="evenodd" d="M0.790039 217.048V215.992H15.9017V217.048H0.790039ZM0.790039 137.286V136.23H15.9017V137.288L0.790039 137.286Z" fill="#545580"/>
<path d="M0.790039 216.52H8.34656M0.790039 136.76H8.34656H0.790039ZM0.790039 144.682H8.34656H0.790039ZM0.790039 153.133H8.34656H0.790039ZM0.790039 160.529H8.34656H0.790039ZM0.790039 168.98H8.34656H0.790039ZM0.790039 176.376H8.34656H0.790039ZM0.790039 184.826H8.34656H0.790039ZM0.790039 192.221H8.34656H0.790039ZM0.790039 200.673H8.34656H0.790039ZM0.790039 208.068H8.34656H0.790039Z" stroke="#545580" stroke-miterlimit="22.926"/>
<path fill-rule="evenodd" clip-rule="evenodd" d="M0.790039 295.647V294.591H15.9017V295.647H0.790039Z" fill="#545580"/>
<path d="M0.790039 295.119H8.34656M0.790039 223.281H8.34656H0.790039ZM0.790039 231.733H8.34656H0.790039ZM0.790039 239.128H8.34656H0.790039ZM0.790039 247.58H8.34656H0.790039ZM0.790039 254.975H8.34656H0.790039ZM0.790039 263.425H8.34656H0.790039ZM0.790039 270.82H8.34656H0.790039ZM0.790039 279.273H8.34656H0.790039ZM0.790039 286.667H8.34656H0.790039Z" stroke="#545580" stroke-miterlimit="22.926"/>
<path fill-rule="evenodd" clip-rule="evenodd" d="M0.790039 374.846V373.789H15.9017V374.845L0.790039 374.846Z" fill="#545580"/>
<path d="M0.790039 374.318H8.34656M0.790039 302.48H8.34656H0.790039ZM0.790039 310.932H8.34656H0.790039ZM0.790039 318.327H8.34656H0.790039ZM0.790039 326.779H8.34656H0.790039ZM0.790039 334.174H8.34656H0.790039ZM0.790039 342.626H8.34656H0.790039ZM0.790039 350.02H8.34656H0.790039ZM0.790039 358.471H8.34656H0.790039ZM0.790039 365.866H8.34656H0.790039Z" stroke="#545580" stroke-miterlimit="22.926"/>
<path fill-rule="evenodd" clip-rule="evenodd" d="M0.790039 453.444V452.388H15.9017V453.444H0.790039Z" fill="#545580"/>
<path d="M0.790039 452.916H8.34656M0.790039 381.079H8.34656H0.790039ZM0.790039 389.531H8.34656H0.790039ZM0.790039 396.927H8.34656H0.790039ZM0.790039 405.378H8.34656H0.790039ZM0.790039 412.772H8.34656H0.790039ZM0.790039 421.224H8.34656H0.790039ZM0.790039 428.619H8.34656H0.790039ZM0.790039 437.071H8.34656H0.790039ZM0.790039 444.466H8.34656H0.790039Z" stroke="#545580" stroke-miterlimit="22.926"/>
<path fill-rule="evenodd" clip-rule="evenodd" d="M0.790039 531.235V530.179H15.9017V531.235H0.790039Z" fill="#545580"/>
<path d="M0.790039 530.707H8.34656M0.790039 458.869H8.34656H0.790039ZM0.790039 467.321H8.34656H0.790039ZM0.790039 474.716H8.34656H0.790039ZM0.790039 483.167H8.34656H0.790039ZM0.790039 490.563H8.34656H0.790039ZM0.790039 499.013H8.34656H0.790039ZM0.790039 506.409H8.34656H0.790039ZM0.790039 514.86H8.34656H0.790039ZM0.790039 522.255H8.34656H0.790039Z" stroke="#545580" stroke-miterlimit="22.926"/>
<path fill-rule="evenodd" clip-rule="evenodd" d="M0.790039 610.433V609.377H15.9017V610.433H0.790039Z" fill="#545580"/>
<path d="M0.790039 609.906H8.34656M0.790039 538.068H8.34656H0.790039ZM0.790039 546.52H8.34656H0.790039ZM0.790039 553.914H8.34656H0.790039ZM0.790039 562.367H8.34656H0.790039ZM0.790039 569.76H8.34656H0.790039ZM0.790039 578.212H8.34656H0.790039ZM0.790039 585.607H8.34656H0.790039ZM0.790039 594.06H8.34656H0.790039ZM0.790039 601.454H8.34656H0.790039Z" stroke="#545580" stroke-miterlimit="22.926"/>
<path fill-rule="evenodd" clip-rule="evenodd" d="M0.790039 689.034V687.977H15.9017V689.033L0.790039 689.034Z" fill="#545580"/>
<path d="M0.790039 688.504H8.34656M0.790039 616.667H8.34656H0.790039ZM0.790039 625.119H8.34656H0.790039ZM0.790039 632.514H8.34656H0.790039ZM0.790039 640.966H8.34656H0.790039ZM0.790039 648.36H8.34656H0.790039ZM0.790039 656.812H8.34656H0.790039ZM0.790039 664.207H8.34656H0.790039ZM0.790039 672.659H8.34656H0.790039ZM0.790039 680.054H8.34656H0.790039Z" stroke="#545580" stroke-miterlimit="22.926"/>
<path fill-rule="evenodd" clip-rule="evenodd" d="M0.790039 767.91V766.853H15.9017V767.91H0.790039Z" fill="#545580"/>
<path d="M0.790039 127.93H8.34656M0.790039 695.543H8.34656H0.790039ZM0.790039 703.995H8.34656H0.790039ZM0.790039 711.391H8.34656H0.790039ZM0.790039 719.842H8.34656H0.790039ZM0.790039 727.236H8.34656H0.790039ZM0.790039 735.688H8.34656H0.790039ZM0.790039 743.083H8.34656H0.790039ZM0.790039 751.535H8.34656H0.790039ZM0.790039 758.93H8.34656H0.790039ZM0.790039 767.38H8.34656H0.790039ZM0.790039 778.234H8.34656H0.790039ZM0.790039 786.687H8.34656H0.790039ZM0.790039 794.082H8.34656H0.790039ZM0.790039 802.534H8.34656H0.790039ZM0.790039 809.927H8.34656H0.790039ZM0.790039 818.38H8.34656H0.790039ZM0.790039 825.775H8.34656H0.790039ZM0.790039 112.083H8.34656H0.790039ZM0.790039 120.535H8.34656H0.790039Z" stroke="#545580" stroke-miterlimit="22.926"/>
<path fill-rule="evenodd" clip-rule="evenodd" d="M450.838 636.075H59.0312V472.051H450.838V636.075Z" fill="#FBE950" fill-opacity="0.5"/>
<path fill-rule="evenodd" clip-rule="evenodd" d="M450.838 216.112H59.0312V137.364H450.838V216.112Z" fill="black" fill-opacity="0.5"/>
<path fill-rule="evenodd" clip-rule="evenodd" d="M450.838 802.166H59.0312V723.417H450.838V802.166Z" fill="#B3B3B3" fill-opacity="0.5"/>
<path fill-rule="evenodd" clip-rule="evenodd" d="M449.782 473.1H59.9688V469.627H449.782V473.1ZM449.782 636.075H59.9688V632.602H449.782V636.075Z" fill="#FBE950"/>
<path d="M127.601 102.544C127.234 123.984 98.4799 140.384 126.28 192.869C144.675 227.601 141.592 237.232 126.887 285.82C116.554 319.971 117.05 315.631 125.603 366.497C128.897 386.097 130.984 414.051 124.48 451.56C108.621 542.997 105.993 496.307 127.942 597.063C133.393 622.089 137.563 649.035 136.038 673.943C134.285 702.537 125.365 706.028 129.034 737.076C131.077 754.359 132.271 753.617 139.08 766.916C160.939 809.616 135.53 794.965 135.53 831.199" stroke="#E3553F" stroke-width="3.78" stroke-miterlimit="22.926"/>
<path d="M123.184 102.544C122.563 123.984 82.5894 147.565 124.429 203.94C151.647 240.612 154.37 252.247 138.798 280.223C121.947 310.491 105.659 317.521 114.536 352.316C123.848 388.807 138.712 417.735 133.76 456.3C128.713 495.599 122.798 510.536 118.548 522.18C93.5978 590.527 146.2 637.457 142.418 673.944C139.452 702.536 113.207 711.555 119.416 742.601C122.118 756.111 143.006 756.68 153.582 776.955C169.691 807.833 137.651 798.324 141.56 831.199" stroke="#656A8A" stroke-width="1.88933" stroke-miterlimit="22.926" stroke-dasharray="18.89 9.45"/>
<path d="M394.824 101.952C397.118 126.561 382.98 166.283 386.617 216.873C389.406 255.7 402.02 253.497 364.971 282.963C342.522 300.815 322.842 317.238 385.649 336.207C469.817 361.63 362.958 382.973 403.744 420.037C449.887 461.968 423.993 483.691 394.457 499.715C336.124 531.365 372.503 603.767 374.065 605.238C408.531 637.674 414.62 639.597 386.46 657.357C344.901 683.571 391.461 799.045 391.355 832.211M244.549 101.952C242.255 130.8 256.393 177.363 252.756 236.668C249.966 282.181 237.353 279.599 274.402 314.14C296.85 335.067 316.531 354.319 253.724 376.556C169.556 406.356 276.415 431.376 235.627 474.825C189.486 523.979 215.382 549.441 244.916 568.225C303.249 605.327 266.87 690.199 265.306 691.924C230.842 729.947 224.753 732.2 252.913 753.021C294.472 783.751 248.903 791.816 236.619 831.199L244.549 101.952Z" stroke="#3366FF" stroke-width="3.78" stroke-miterlimit="22.926"/>
<path fill-rule="evenodd" clip-rule="evenodd" d="M231.793 475.552C234.11 475.745 235.823 477.7 235.62 479.917C235.417 482.133 233.373 483.773 231.056 483.578C228.74 483.384 227.026 481.429 227.229 479.213C227.433 476.996 229.476 475.357 231.793 475.552Z" fill="#0C1533"/>
<path fill-rule="evenodd" clip-rule="evenodd" d="M228.415 478.481C230.731 478.675 232.445 480.63 232.242 482.846C232.038 485.063 229.995 486.702 227.679 486.507C225.362 486.313 223.648 484.358 223.851 482.142C224.055 479.925 226.098 478.286 228.415 478.481Z" fill="#0C1533"/>
<path fill-rule="evenodd" clip-rule="evenodd" d="M225.199 482.687C227.516 482.883 229.23 484.837 229.026 487.054C228.823 489.27 226.779 490.91 224.463 490.715C222.145 490.521 220.432 488.566 220.634 486.35C220.838 484.133 222.881 482.494 225.198 482.689" fill="#0C1533"/>
<path fill-rule="evenodd" clip-rule="evenodd" d="M221.343 487.059C223.66 487.253 225.374 489.208 225.17 491.424C224.967 493.641 222.924 495.28 220.607 495.085C218.289 494.891 216.577 492.937 216.779 490.72C216.982 488.503 219.025 486.864 221.343 487.059ZM217.537 495.944C219.734 496.677 220.891 498.976 220.125 501.077C219.358 503.177 216.956 504.285 214.759 503.552C212.564 502.819 211.405 500.521 212.172 498.42C212.938 496.32 215.341 495.211 217.537 495.944Z" fill="#0C1533"/>
<path fill-rule="evenodd" clip-rule="evenodd" d="M215.144 501.423C217.34 502.156 218.498 504.453 217.732 506.555C216.965 508.655 214.563 509.764 212.366 509.031C210.171 508.297 209.012 505.999 209.78 503.897C210.547 501.797 212.948 500.689 215.145 501.423" fill="#0C1533"/>
<path fill-rule="evenodd" clip-rule="evenodd" d="M213.493 507.023C215.689 507.756 216.847 510.054 216.08 512.155C215.314 514.255 212.911 515.364 210.715 514.63C208.52 513.896 207.361 511.599 208.128 509.498C208.894 507.398 211.297 506.29 213.493 507.023ZM207.919 521.524C210.113 520.783 212.518 521.884 213.291 523.983C214.065 526.082 212.914 528.383 210.72 529.123C208.527 529.863 206.122 528.763 205.347 526.663C204.574 524.566 205.725 522.263 207.919 521.524Z" fill="#0C1533"/>
<path fill-rule="evenodd" clip-rule="evenodd" d="M209.319 525.322C211.513 524.582 213.918 525.682 214.691 527.782C215.466 529.881 214.315 532.182 212.12 532.921C209.926 533.661 207.521 532.561 206.747 530.462C205.974 528.364 207.125 526.062 209.319 525.322Z" fill="#0C1533"/>
<path fill-rule="evenodd" clip-rule="evenodd" d="M209.193 531.399C211.387 530.659 213.792 531.759 214.567 533.857C215.34 535.956 214.189 538.257 211.995 538.997C209.801 539.737 207.396 538.637 206.623 536.539C205.849 534.44 207 532.139 209.193 531.399Z" fill="#0C1533"/>
<path fill-rule="evenodd" clip-rule="evenodd" d="M210.595 535.197C212.789 534.457 215.194 535.557 215.968 537.657C216.741 539.756 215.59 542.057 213.397 542.797C211.203 543.537 208.798 542.436 208.025 540.337C207.25 538.239 208.401 535.937 210.595 535.197ZM218.463 543.776C220.789 543.776 222.675 545.58 222.675 547.805C222.675 550.031 220.789 551.835 218.463 551.835C216.137 551.835 214.252 550.031 214.252 547.805C214.252 545.58 216.137 543.776 218.463 543.776Z" fill="#0C1533"/>
<path fill-rule="evenodd" clip-rule="evenodd" d="M223.915 547.569C226.241 547.569 228.127 549.373 228.127 551.597C228.127 553.824 226.241 555.627 223.915 555.627C221.589 555.627 219.703 553.823 219.703 551.597C219.703 549.373 221.589 547.569 223.915 547.569ZM243.348 560.941C245.38 562.024 246.11 564.477 244.979 566.421C243.847 568.365 241.284 569.064 239.251 567.981C237.219 566.9 236.489 564.445 237.619 562.501C238.752 560.557 241.315 559.859 243.348 560.941ZM250.682 567.832C252.715 568.915 253.444 571.368 252.313 573.312C251.182 575.256 248.617 575.955 246.586 574.872C244.552 573.791 243.822 571.336 244.954 569.392C246.085 567.448 248.65 566.749 250.682 567.832ZM258.232 574.837C260.265 575.92 260.994 578.373 259.864 580.317C258.732 582.261 256.168 582.96 254.136 581.877C252.103 580.796 251.374 578.343 252.505 576.397C253.636 574.453 256.2 573.755 258.232 574.837ZM264.821 581.06C266.854 582.141 267.583 584.596 266.452 586.54C265.321 588.484 262.756 589.183 260.723 588.1C258.691 587.017 257.961 584.564 259.093 582.62C260.224 580.676 262.789 579.977 264.821 581.06Z" fill="#0C1533"/>
<path fill-rule="evenodd" clip-rule="evenodd" d="M269.724 587.74C271.757 588.822 272.486 591.276 271.355 593.22C270.224 595.165 267.658 595.864 265.627 594.78C263.595 593.698 262.864 591.245 263.995 589.3C265.126 587.356 267.692 586.658 269.724 587.74Z" fill="#0C1533"/>
<path fill-rule="evenodd" clip-rule="evenodd" d="M273.449 593.522C275.481 594.605 276.211 597.058 275.08 599.002C273.948 600.946 271.383 601.645 269.351 600.562C267.318 599.48 266.589 597.028 267.72 595.082C268.851 593.138 271.416 592.44 273.449 593.522ZM273.197 606.14C275.093 604.852 277.721 605.278 279.068 607.094C280.413 608.908 279.967 611.424 278.07 612.712C276.173 613.998 273.544 613.572 272.197 611.757C270.852 609.941 271.299 607.426 273.197 606.138" fill="#0C1533"/>
<path fill-rule="evenodd" clip-rule="evenodd" d="M274.128 611.9C276.025 610.613 278.653 611.041 280 612.856C281.345 614.67 280.898 617.185 279.001 618.473C277.104 619.761 274.476 619.333 273.129 617.518C271.784 615.704 272.231 613.189 274.127 611.901" fill="#0C1533"/>
<path fill-rule="evenodd" clip-rule="evenodd" d="M274.25 615.929C276.148 614.641 278.776 615.069 280.123 616.884C281.47 618.697 281.022 621.213 279.125 622.501C277.227 623.788 274.599 623.361 273.252 621.546C271.907 619.73 272.354 617.216 274.25 615.929Z" fill="#0C1533"/>
<path fill-rule="evenodd" clip-rule="evenodd" d="M274.355 621.629C276.253 620.341 278.881 620.769 280.227 622.584C281.573 624.399 281.125 626.913 279.229 628.201C277.333 629.488 274.703 629.061 273.357 627.247C272.011 625.432 272.459 622.916 274.355 621.629Z" fill="#0C1533"/>
<path fill-rule="evenodd" clip-rule="evenodd" d="M274.744 625.642C276.641 624.355 279.269 624.782 280.616 626.596C281.961 628.411 281.515 630.926 279.618 632.214C277.72 633.502 275.092 633.074 273.745 631.259C272.4 629.444 272.847 626.93 274.744 625.642ZM415.314 487.007C414.867 484.823 412.654 483.399 410.371 483.828C408.089 484.255 406.601 486.372 407.048 488.556C407.497 490.74 409.709 492.163 411.992 491.735C414.275 491.307 415.762 489.19 415.314 487.007Z" fill="#0C1533"/>
<path fill-rule="evenodd" clip-rule="evenodd" d="M412.628 490.529C412.179 488.345 409.966 486.922 407.684 487.35C405.402 487.778 403.914 489.896 404.362 492.08C404.809 494.262 407.022 495.686 409.304 495.258C411.587 494.83 413.075 492.712 412.628 490.529Z" fill="#0C1533"/>
<path fill-rule="evenodd" clip-rule="evenodd" d="M408.594 494.034C408.148 491.851 405.934 490.427 403.652 490.855C401.37 491.283 399.882 493.402 400.33 495.585C400.776 497.769 402.99 499.191 405.272 498.763C407.554 498.337 409.042 496.218 408.596 494.034" fill="#0C1533"/>
<path fill-rule="evenodd" clip-rule="evenodd" d="M404.459 498.164C404.012 495.981 401.799 494.557 399.516 494.985C397.234 495.413 395.746 497.532 396.194 499.714C396.641 501.898 398.854 503.321 401.137 502.893C403.419 502.465 404.907 500.348 404.459 498.165V498.164ZM395.626 502.726C394.631 500.713 392.119 499.854 390.016 500.806C387.915 501.76 387.016 504.161 388.011 506.173C389.006 508.184 391.517 509.042 393.621 508.09C395.722 507.138 396.621 504.737 395.626 502.725" fill="#0C1533"/>
<path fill-rule="evenodd" clip-rule="evenodd" d="M390.185 505.581C389.19 503.57 386.679 502.712 384.576 503.664C382.474 504.616 381.576 507.017 382.57 509.029C383.565 511.04 386.078 511.898 388.179 510.948C390.283 509.996 391.179 507.593 390.185 505.582" fill="#0C1533"/>
<path fill-rule="evenodd" clip-rule="evenodd" d="M384.538 507.745C383.543 505.733 381.032 504.875 378.93 505.827C376.829 506.779 375.93 509.181 376.925 511.192C377.92 513.204 380.431 514.063 382.534 513.111C384.635 512.159 385.533 509.756 384.538 507.745ZM366.768 524.257C369.045 524.719 370.498 526.857 370.016 529.035C369.534 531.211 367.298 532.603 365.022 532.141C362.746 531.68 361.293 529.541 361.775 527.364C362.257 525.187 364.493 523.796 366.769 524.257" fill="#0C1533"/>
<path fill-rule="evenodd" clip-rule="evenodd" d="M365.896 528.199C368.171 528.66 369.625 530.799 369.143 532.976C368.66 535.152 366.426 536.543 364.15 536.083C361.874 535.62 360.421 533.483 360.903 531.305C361.384 529.128 363.62 527.737 365.896 528.199Z" fill="#0C1533"/>
<path fill-rule="evenodd" clip-rule="evenodd" d="M362.481 533.323C364.756 533.784 366.21 535.923 365.728 538.1C365.245 540.276 363.011 541.668 360.735 541.207C358.459 540.745 357.006 538.607 357.488 536.429C357.97 534.252 360.205 532.861 362.481 533.323Z" fill="#0C1533"/>
<path fill-rule="evenodd" clip-rule="evenodd" d="M361.608 537.264C363.884 537.725 365.337 539.864 364.855 542.041C364.373 544.217 362.137 545.608 359.861 545.148C357.585 544.687 356.132 542.548 356.614 540.371C357.096 538.194 359.332 536.803 361.608 537.264ZM363.652 548.508C365.639 549.668 366.266 552.147 365.053 554.045C363.843 555.945 361.251 556.546 359.265 555.387C357.28 554.227 356.652 551.747 357.864 549.848C359.076 547.95 361.667 547.35 363.652 548.508Z" fill="#0C1533"/>
<path fill-rule="evenodd" clip-rule="evenodd" d="M366.242 554.461C368.227 555.621 368.855 558.1 367.643 559.999C366.432 561.899 363.841 562.499 361.854 561.34C359.868 560.18 359.242 557.701 360.454 555.802C361.664 553.902 364.256 553.303 366.242 554.461ZM361.278 573.038C363.176 571.752 365.805 572.178 367.151 573.993C368.497 575.808 368.05 578.324 366.152 579.611C364.256 580.899 361.626 580.472 360.281 578.656C358.935 576.843 359.382 574.326 361.278 573.038ZM367.246 592.696C369.144 591.408 371.773 591.836 373.119 593.651C374.465 595.465 374.018 597.98 372.121 599.268C370.224 600.556 367.595 600.128 366.249 598.313C364.903 596.499 365.35 593.984 367.246 592.696ZM380.62 610.354C382.517 609.066 385.146 609.494 386.492 611.309C387.838 613.124 387.39 615.64 385.494 616.927C383.598 618.215 380.968 617.787 379.622 615.972C378.276 614.159 378.724 611.642 380.62 610.354ZM395.284 624.656C397.182 623.368 399.81 623.796 401.157 625.611C402.502 627.425 402.055 629.94 400.159 631.228C398.261 632.516 395.633 632.088 394.286 630.273C392.941 628.459 393.387 625.944 395.284 624.656Z" fill="#0C1533"/>
<path d="M57.9759 0.543945H59.0318V831.34H57.9746L57.9759 0.543945Z" stroke="#656A8A" stroke-width="0.945333" stroke-miterlimit="22.926"/>
</svg>
