<svg width="230" height="157" viewBox="0 0 230 157" fill="none" xmlns="http://www.w3.org/2000/svg">
<path fill-rule="evenodd" clip-rule="evenodd" d="M112.319 19.6481C126.255 19.8767 140.028 22.7309 152.916 28.069C165.861 33.4317 177.667 41.1981 187.713 50.9529L164.2 74.4658C157.245 67.7964 149.104 62.4769 140.192 58.7862C131.34 55.119 121.889 53.1262 112.319 52.9023V19.6481Z" fill="#FFEC08"/>
<path fill-rule="evenodd" clip-rule="evenodd" d="M221.33 130.457C221.329 123.233 220.624 115.991 219.201 108.837C215.035 87.8902 204.906 68.6065 190.052 53.2942L166.539 76.8071C176.745 87.4664 183.709 100.826 186.593 115.324C187.589 120.331 188.083 125.4 188.083 130.457H221.33Z" fill="#00963F"/>
<path fill-rule="evenodd" clip-rule="evenodd" d="M109.01 19.6484C95.074 19.877 81.3008 22.7312 68.4129 28.0694C55.4735 33.4296 43.6717 41.1924 33.6284 50.9417L57.1412 74.4546C64.0939 67.7904 72.2304 62.4752 81.1367 58.7865C89.9896 55.1189 99.4408 53.1265 109.01 52.9026V19.6484Z" fill="#FBA409"/>
<path fill-rule="evenodd" clip-rule="evenodd" d="M0 130.457C0.000583387 123.233 0.706231 115.991 2.12888 108.837C6.29624 87.8845 16.4287 68.5958 31.2891 53.2819L54.8023 76.7949C44.5899 87.4562 37.6225 100.82 34.7372 115.324C33.7411 120.331 33.2471 125.4 33.2471 130.457H0Z" fill="#E3000F"/>
<path fill-rule="evenodd" clip-rule="evenodd" d="M105.532 127.288C104.111 124.919 104.931 121.838 107.301 120.415L167.117 90.8233L112.407 129.089C110.023 130.495 106.956 129.69 105.532 127.288Z" fill="white"/>
<path d="M96.6157 2.91L96.3307 5.625C96.7307 5.515 97.1807 5.46 97.6807 5.46C98.7707 5.46 99.6457 5.755 100.306 6.345C100.976 6.925 101.311 7.73 101.311 8.76C101.311 9.18 101.236 9.6 101.086 10.02C100.936 10.43 100.721 10.81 100.441 11.16C100.161 11.51 99.7907 11.79 99.3307 12C98.8707 12.22 98.3607 12.33 97.8007 12.33C96.8107 12.33 96.0107 12.06 95.4007 11.52C94.7907 10.98 94.4457 10.31 94.3657 9.51H95.6857C95.7657 10 95.9857 10.405 96.3457 10.725C96.7157 11.045 97.2157 11.205 97.8457 11.205C98.4557 11.205 98.9707 10.995 99.3907 10.575C99.8107 10.155 100.021 9.61 100.021 8.94C100.021 8.18 99.8007 7.6 99.3607 7.2C98.9307 6.8 98.3057 6.6 97.4857 6.6C96.7557 6.6 95.9307 6.735 95.0107 7.005L95.5057 1.77H100.606V2.91H96.6157ZM106.329 6.825C106.329 5.885 106.434 5.055 106.644 4.335C106.864 3.615 107.154 3.055 107.514 2.655C107.884 2.245 108.279 1.94 108.699 1.74C109.119 1.54 109.564 1.44 110.034 1.44C110.494 1.44 110.924 1.53 111.324 1.71C111.734 1.89 112.119 2.175 112.479 2.565C112.849 2.955 113.139 3.51 113.349 4.23C113.569 4.95 113.679 5.795 113.679 6.765C113.679 7.635 113.594 8.41 113.424 9.09C113.264 9.76 113.059 10.295 112.809 10.695C112.559 11.085 112.264 11.41 111.924 11.67C111.584 11.93 111.259 12.105 110.949 12.195C110.649 12.285 110.339 12.33 110.019 12.33C109.559 12.33 109.124 12.24 108.714 12.06C108.304 11.88 107.914 11.595 107.544 11.205C107.174 10.805 106.879 10.23 106.659 9.48C106.439 8.73 106.329 7.845 106.329 6.825ZM112.404 6.825C112.404 5.405 112.194 4.34 111.774 3.63C111.364 2.91 110.774 2.55 110.004 2.55C109.304 2.55 108.729 2.895 108.279 3.585C107.839 4.265 107.619 5.33 107.619 6.78C107.619 9.74 108.429 11.22 110.049 11.22C110.729 11.22 111.289 10.865 111.729 10.155C112.179 9.445 112.404 8.335 112.404 6.825ZM114.751 6.825C114.751 5.885 114.856 5.055 115.066 4.335C115.286 3.615 115.576 3.055 115.936 2.655C116.306 2.245 116.701 1.94 117.121 1.74C117.541 1.54 117.986 1.44 118.456 1.44C118.916 1.44 119.346 1.53 119.746 1.71C120.156 1.89 120.541 2.175 120.901 2.565C121.271 2.955 121.561 3.51 121.771 4.23C121.991 4.95 122.101 5.795 122.101 6.765C122.101 7.635 122.016 8.41 121.846 9.09C121.686 9.76 121.481 10.295 121.231 10.695C120.981 11.085 120.686 11.41 120.346 11.67C120.006 11.93 119.681 12.105 119.371 12.195C119.071 12.285 118.761 12.33 118.441 12.33C117.981 12.33 117.546 12.24 117.136 12.06C116.726 11.88 116.336 11.595 115.966 11.205C115.596 10.805 115.301 10.23 115.081 9.48C114.861 8.73 114.751 7.845 114.751 6.825ZM120.826 6.825C120.826 5.405 120.616 4.34 120.196 3.63C119.786 2.91 119.196 2.55 118.426 2.55C117.726 2.55 117.151 2.895 116.701 3.585C116.261 4.265 116.041 5.33 116.041 6.78C116.041 9.74 116.851 11.22 118.471 11.22C119.151 11.22 119.711 10.865 120.151 10.155C120.601 9.445 120.826 8.335 120.826 6.825ZM123.174 6.825C123.174 5.885 123.279 5.055 123.489 4.335C123.709 3.615 123.999 3.055 124.359 2.655C124.729 2.245 125.124 1.94 125.544 1.74C125.964 1.54 126.409 1.44 126.879 1.44C127.339 1.44 127.769 1.53 128.169 1.71C128.579 1.89 128.964 2.175 129.324 2.565C129.694 2.955 129.984 3.51 130.194 4.23C130.414 4.95 130.524 5.795 130.524 6.765C130.524 7.635 130.439 8.41 130.269 9.09C130.109 9.76 129.904 10.295 129.654 10.695C129.404 11.085 129.109 11.41 128.769 11.67C128.429 11.93 128.104 12.105 127.794 12.195C127.494 12.285 127.184 12.33 126.864 12.33C126.404 12.33 125.969 12.24 125.559 12.06C125.149 11.88 124.759 11.595 124.389 11.205C124.019 10.805 123.724 10.23 123.504 9.48C123.284 8.73 123.174 7.845 123.174 6.825ZM129.249 6.825C129.249 5.405 129.039 4.34 128.619 3.63C128.209 2.91 127.619 2.55 126.849 2.55C126.149 2.55 125.574 2.895 125.124 3.585C124.684 4.265 124.464 5.33 124.464 6.78C124.464 9.74 125.274 11.22 126.894 11.22C127.574 11.22 128.134 10.865 128.574 10.155C129.024 9.445 129.249 8.335 129.249 6.825Z" fill="white"/>
<path d="M13.6557 145.075C13.6557 144.135 13.7607 143.305 13.9707 142.585C14.1907 141.865 14.4807 141.305 14.8407 140.905C15.2107 140.495 15.6057 140.19 16.0257 139.99C16.4457 139.79 16.8907 139.69 17.3607 139.69C17.8207 139.69 18.2507 139.78 18.6507 139.96C19.0607 140.14 19.4457 140.425 19.8057 140.815C20.1757 141.205 20.4657 141.76 20.6757 142.48C20.8957 143.2 21.0057 144.045 21.0057 145.015C21.0057 145.885 20.9207 146.66 20.7507 147.34C20.5907 148.01 20.3857 148.545 20.1357 148.945C19.8857 149.335 19.5907 149.66 19.2507 149.92C18.9107 150.18 18.5857 150.355 18.2757 150.445C17.9757 150.535 17.6657 150.58 17.3457 150.58C16.8857 150.58 16.4507 150.49 16.0407 150.31C15.6307 150.13 15.2407 149.845 14.8707 149.455C14.5007 149.055 14.2057 148.48 13.9857 147.73C13.7657 146.98 13.6557 146.095 13.6557 145.075ZM19.7307 145.075C19.7307 143.655 19.5207 142.59 19.1007 141.88C18.6907 141.16 18.1007 140.8 17.3307 140.8C16.6307 140.8 16.0557 141.145 15.6057 141.835C15.1657 142.515 14.9457 143.58 14.9457 145.03C14.9457 147.99 15.7557 149.47 17.3757 149.47C18.0557 149.47 18.6157 149.115 19.0557 148.405C19.5057 147.695 19.7307 146.585 19.7307 145.075Z" fill="white"/>
<path d="M187.371 150.25V141.16H185.991V140.02H188.601V150.25H187.371ZM192.704 145.075C192.704 144.135 192.809 143.305 193.019 142.585C193.239 141.865 193.529 141.305 193.889 140.905C194.259 140.495 194.654 140.19 195.074 139.99C195.494 139.79 195.939 139.69 196.409 139.69C196.869 139.69 197.299 139.78 197.699 139.96C198.109 140.14 198.494 140.425 198.854 140.815C199.224 141.205 199.514 141.76 199.724 142.48C199.944 143.2 200.054 144.045 200.054 145.015C200.054 145.885 199.969 146.66 199.799 147.34C199.639 148.01 199.434 148.545 199.184 148.945C198.934 149.335 198.639 149.66 198.299 149.92C197.959 150.18 197.634 150.355 197.324 150.445C197.024 150.535 196.714 150.58 196.394 150.58C195.934 150.58 195.499 150.49 195.089 150.31C194.679 150.13 194.289 149.845 193.919 149.455C193.549 149.055 193.254 148.48 193.034 147.73C192.814 146.98 192.704 146.095 192.704 145.075ZM198.779 145.075C198.779 143.655 198.569 142.59 198.149 141.88C197.739 141.16 197.149 140.8 196.379 140.8C195.679 140.8 195.104 141.145 194.654 141.835C194.214 142.515 193.994 143.58 193.994 145.03C193.994 147.99 194.804 149.47 196.424 149.47C197.104 149.47 197.664 149.115 198.104 148.405C198.554 147.695 198.779 146.585 198.779 145.075ZM204.876 145.075C204.876 144.135 204.981 143.305 205.191 142.585C205.411 141.865 205.701 141.305 206.061 140.905C206.431 140.495 206.826 140.19 207.246 139.99C207.666 139.79 208.111 139.69 208.581 139.69C209.041 139.69 209.471 139.78 209.871 139.96C210.281 140.14 210.666 140.425 211.026 140.815C211.396 141.205 211.686 141.76 211.896 142.48C212.116 143.2 212.226 144.045 212.226 145.015C212.226 145.885 212.141 146.66 211.971 147.34C211.811 148.01 211.606 148.545 211.356 148.945C211.106 149.335 210.811 149.66 210.471 149.92C210.131 150.18 209.806 150.355 209.496 150.445C209.196 150.535 208.886 150.58 208.566 150.58C208.106 150.58 207.671 150.49 207.261 150.31C206.851 150.13 206.461 149.845 206.091 149.455C205.721 149.055 205.426 148.48 205.206 147.73C204.986 146.98 204.876 146.095 204.876 145.075ZM210.951 145.075C210.951 143.655 210.741 142.59 210.321 141.88C209.911 141.16 209.321 140.8 208.551 140.8C207.851 140.8 207.276 141.145 206.826 141.835C206.386 142.515 206.166 143.58 206.166 145.03C206.166 147.99 206.976 149.47 208.596 149.47C209.276 149.47 209.836 149.115 210.276 148.405C210.726 147.695 210.951 146.585 210.951 145.075ZM213.299 145.075C213.299 144.135 213.404 143.305 213.614 142.585C213.834 141.865 214.124 141.305 214.484 140.905C214.854 140.495 215.249 140.19 215.669 139.99C216.089 139.79 216.534 139.69 217.004 139.69C217.464 139.69 217.894 139.78 218.294 139.96C218.704 140.14 219.089 140.425 219.449 140.815C219.819 141.205 220.109 141.76 220.319 142.48C220.539 143.2 220.649 144.045 220.649 145.015C220.649 145.885 220.564 146.66 220.394 147.34C220.234 148.01 220.029 148.545 219.779 148.945C219.529 149.335 219.234 149.66 218.894 149.92C218.554 150.18 218.229 150.355 217.919 150.445C217.619 150.535 217.309 150.58 216.989 150.58C216.529 150.58 216.094 150.49 215.684 150.31C215.274 150.13 214.884 149.845 214.514 149.455C214.144 149.055 213.849 148.48 213.629 147.73C213.409 146.98 213.299 146.095 213.299 145.075ZM219.374 145.075C219.374 143.655 219.164 142.59 218.744 141.88C218.334 141.16 217.744 140.8 216.974 140.8C216.274 140.8 215.699 141.145 215.249 141.835C214.809 142.515 214.589 143.58 214.589 145.03C214.589 147.99 215.399 149.47 217.019 149.47C217.699 149.47 218.259 149.115 218.699 148.405C219.149 147.695 219.374 146.585 219.374 145.075ZM221.722 145.075C221.722 144.135 221.827 143.305 222.037 142.585C222.257 141.865 222.547 141.305 222.907 140.905C223.277 140.495 223.672 140.19 224.092 139.99C224.512 139.79 224.957 139.69 225.427 139.69C225.887 139.69 226.317 139.78 226.717 139.96C227.127 140.14 227.512 140.425 227.872 140.815C228.242 141.205 228.532 141.76 228.742 142.48C228.962 143.2 229.072 144.045 229.072 145.015C229.072 145.885 228.987 146.66 228.817 147.34C228.657 148.01 228.452 148.545 228.202 148.945C227.952 149.335 227.657 149.66 227.317 149.92C226.977 150.18 226.652 150.355 226.342 150.445C226.042 150.535 225.732 150.58 225.412 150.58C224.952 150.58 224.517 150.49 224.107 150.31C223.697 150.13 223.307 149.845 222.937 149.455C222.567 149.055 222.272 148.48 222.052 147.73C221.832 146.98 221.722 146.095 221.722 145.075ZM227.797 145.075C227.797 143.655 227.587 142.59 227.167 141.88C226.757 141.16 226.167 140.8 225.397 140.8C224.697 140.8 224.122 141.145 223.672 141.835C223.232 142.515 223.012 143.58 223.012 145.03C223.012 147.99 223.822 149.47 225.442 149.47C226.122 149.47 226.682 149.115 227.122 148.405C227.572 147.695 227.797 146.585 227.797 145.075Z" fill="white"/>
</svg>
