<svg width="11" height="19" viewBox="0 0 11 19" fill="none" xmlns="http://www.w3.org/2000/svg">
<path d="M10.0807 18.04L10.6946 17.4399C10.8864 17.2505 10.9926 16.9993 10.9926 16.7304C10.9926 16.4622 10.8864 16.2104 10.6946 16.0209L3.73557 9.17096L10.7027 2.31243C10.8945 2.12359 11 1.87181 11 1.60292C11 1.33464 10.8945 1.08284 10.7027 0.894004L10.0919 0.293334C9.69521 -0.0977781 9.04842 -0.0977781 8.65115 0.293334L0.327149 8.45899C0.135344 8.64783 0 8.89903 0 9.17037V9.17342C0 9.4417 0.135344 9.69343 0.327149 9.88226L8.6288 18.04C8.8206 18.2295 9.08379 18.3327 9.35629 18.3333C9.62942 18.3333 9.88892 18.2295 10.0807 18.04Z" fill="#999DC0"/>
</svg>
