<svg width="16" height="16" viewBox="0 0 16 16" fill="none" xmlns="http://www.w3.org/2000/svg">
<path fill-rule="evenodd" clip-rule="evenodd" d="M2.36266 2.09465V13.2947H13.5631V9.95873C13.5631 8.5178 15.6577 8.50233 15.6577 9.95873V14.2969C15.6577 14.9382 15.2068 15.3892 14.5653 15.3892H1.36094C0.719548 15.3892 0.268555 14.9382 0.268555 14.2969V1.09252C0.268555 0.451127 0.719548 0.00021553 1.36094 0.00021553H5.86884C7.30977 0.00021553 7.32524 2.09465 5.86884 2.09465H2.36266ZM13.5636 3.60007L11.502 5.62655C10.9265 6.203 9.18003 8.24479 8.4153 8.24479C7.61976 8.24479 7.41293 7.75193 7.41293 7.06174C7.41293 6.52275 9.60069 4.58557 10.0745 4.11233L12.058 2.09424C11.5975 2.09344 11.1377 2.09345 10.6772 2.09465C9.83355 2.09651 8.76982 2.18423 8.76982 1.00185C8.76982 0.416734 9.30066 0.00021553 9.86205 0.00021553H14.5653C15.2068 0.00021553 15.6577 0.451127 15.6577 1.09252V5.79591C15.6577 6.43691 15.2068 6.88748 14.5653 6.88748C13.4506 6.88748 13.5621 5.66018 13.5631 4.89064C13.5636 4.46047 13.5636 4.03025 13.5636 3.60007Z" fill="#82BAFF"/>
</svg>
