<svg width="17" height="16" viewBox="0 0 17 16" fill="none" xmlns="http://www.w3.org/2000/svg">
<path fill-rule="evenodd" clip-rule="evenodd" d="M3.02151 2.09465V13.2947H14.2213V2.09465H13.2589H3.98352H3.02151ZM16.3159 2.82787H16.3162V14.2964H16.3159V14.3263H16.3154L16.3146 14.3562H16.3142L16.3131 14.3857H16.3128L16.3113 14.4147H16.3108L16.3082 14.4435H16.3077L16.3045 14.4718H16.304L16.3002 14.5002H16.2999L16.2954 14.5278H16.295L16.29 14.5553H16.2897L16.2841 14.5826H16.2836L16.2774 14.609H16.2773L16.2704 14.6355H16.2701L16.2625 14.662H16.262L16.2542 14.6877H16.2538L16.2454 14.713H16.2451L16.2361 14.7383H16.2356L16.2258 14.7629H16.2254L16.2148 14.7871H16.2145L16.2039 14.8109H16.2035L16.1918 14.8343H16.1913L16.1796 14.8578H16.1793L16.1668 14.8801H16.1664L16.1533 14.9024H16.1528L16.1396 14.9246H16.1393L16.1253 14.9458H16.1248L16.1104 14.9666H16.1101L16.095 14.9874H16.0945L16.0787 15.0075H16.0784L16.0624 15.0274H16.0621L16.0458 15.0468H16.0455L16.0284 15.0653H16.0282L16.0107 15.0838H16.0103L15.9921 15.1015H15.9918L15.9735 15.1189H15.9734L15.9545 15.1356H15.954L15.9345 15.1518H15.934L15.9143 15.1681H15.9138L15.8935 15.1836H15.8931L15.8726 15.1986H15.8725L15.8511 15.2126L15.8293 15.2266H15.829L15.8069 15.2398H15.8065L15.7847 15.2528H15.7842L15.7611 15.2649H15.7608L15.7378 15.2769H15.7375L15.7139 15.2878H15.7136L15.6898 15.2989H15.6895L15.6648 15.3091H15.6646L15.6399 15.3185H15.6395L15.6145 15.3272H15.6143L15.5886 15.3356H15.5881L15.5624 15.3434H15.5621L15.536 15.3507H15.5355L15.5095 15.3574H15.5091L15.4823 15.3632H15.4818L15.4546 15.3684H15.4545L15.4271 15.3733H15.4268L15.3988 15.3774H15.3983L15.3703 15.3813H15.37L15.3417 15.3843H15.3413L15.3127 15.3866H15.3122L15.2831 15.3877H15.2827L15.2533 15.3888H15.2529L15.2235 15.3892H15.223H2.01947L1.99001 15.3888H1.98968L1.96022 15.3877H1.95973L1.93076 15.3866H1.93027L1.90146 15.3843H1.90113L1.87281 15.3813H1.87248L1.84449 15.3774H1.844L1.81616 15.3733H1.81584L1.78865 15.3684H1.78816L1.76098 15.3632H1.76066L1.7338 15.3574H1.73331L1.70727 15.3507H1.70678L1.6809 15.3434H1.68041L1.65436 15.3356H1.65404L1.62865 15.3272H1.62832L1.60341 15.3185H1.60293L1.57802 15.3091H1.5777L1.55344 15.2989H1.55312L1.52919 15.2878H1.52886L1.50542 15.2769H1.5051L1.48198 15.2649H1.48166L1.45854 15.2528H1.45822L1.43624 15.2398H1.43592L1.41394 15.2266H1.41362L1.39164 15.2126H1.39132L1.37048 15.1986H1.37016L1.34981 15.1836H1.34932L1.32898 15.1681H1.32849L1.30895 15.1518H1.30847L1.28877 15.1356H1.28861L1.26956 15.1189H1.26924L1.25101 15.1015H1.25068L1.23261 15.0838H1.23212L1.21487 15.0653H1.21438L1.19729 15.0468H1.19713L1.18085 15.0274H1.18036L1.16408 15.0075L1.1483 14.9874H1.14781L1.13283 14.9666H1.13234L1.11753 14.9458H1.1172L1.10353 14.9246H1.10337L1.0897 14.9024H1.08937L1.07635 14.8801H1.07602L1.06365 14.8578H1.06316L1.05144 14.8343H1.05112L1.0394 14.8109H1.03907L1.02833 14.7871H1.028L1.01742 14.7629H1.0171L1.00733 14.7383H1.00684L0.997891 14.713H0.997402L0.989101 14.6877H0.988775L0.980799 14.662H0.980311L0.972986 14.6355H0.972498L0.965661 14.609H0.965336L0.958987 14.5826H0.958499L0.953127 14.5553H0.952802L0.947919 14.5278H0.947593L0.943035 14.5002H0.94271L0.938803 14.4718H0.938478L0.935059 14.4435H0.934571L0.931967 14.4147H0.931641L0.929688 14.3857H0.929525L0.928711 14.3562H0.928223L0.927409 14.3263H0.927246V14.2964H0.926758V2.82787H0.927246V1.09293C0.927246 0.451135 1.37794 0.00021553 2.01947 0.00021553H3.98352H13.2589H15.223C15.8648 0.00021553 16.3159 0.451135 16.3159 1.09293V2.82787Z" fill="#82BAFF"/>
</svg>
