<svg width="21" height="21" viewBox="0 0 21 21" fill="none" xmlns="http://www.w3.org/2000/svg">
<path fill-rule="evenodd" clip-rule="evenodd" d="M3.26941 12.0814L7.75418 9.98868C8.08274 10.3227 8.53926 10.5303 9.04332 10.5303C9.48841 10.5303 9.89605 10.3686 10.2116 10.1009L12.0901 11.1968C12.0692 11.3065 12.0581 11.4195 12.0581 11.5351C12.0581 12.5325 12.8693 13.3438 13.8665 13.3438C14.8641 13.3438 15.6753 12.5325 15.6753 11.5351C15.6753 11.3269 15.6394 11.1271 15.5745 10.9409L19.0242 8.18115L18.8829 8.98215C18.8251 9.31017 19.0442 9.62266 19.372 9.68075C19.7 9.73847 20.0128 9.51959 20.0705 9.19156L20.4894 6.81666C20.5471 6.48864 20.328 6.17617 20.0003 6.11817L17.6253 5.69956C17.2973 5.64148 16.9846 5.86061 16.9268 6.18836C16.869 6.51639 17.0879 6.82918 17.4159 6.88691L18.4778 7.07413L14.8211 9.99952C14.5437 9.82681 14.2167 9.72655 13.8665 9.72655C13.4217 9.72655 13.014 9.88836 12.6985 10.1558L10.8201 9.06006C10.8409 8.95009 10.8521 8.83715 10.8521 8.72161C10.8521 7.72435 10.0408 6.91282 9.04354 6.91282C8.04601 6.91282 7.23486 7.72435 7.23486 8.72161C7.23486 8.78059 7.2379 8.83895 7.24346 8.8964L2.75951 10.9889C2.45797 11.1297 2.32746 11.4885 2.4684 11.79C2.60907 12.0918 2.96759 12.2223 3.26941 12.0814Z" fill="white"/>
<path fill-rule="evenodd" clip-rule="evenodd" d="M1.20592 0.603062C1.20592 0.270191 0.935961 0.00018692 0.602821 0.00018692C0.26995 0.00018692 0 0.270191 0 0.603062V19.9763C0 20.3092 0.26995 20.5791 0.602821 20.5791H19.8954C20.2285 20.5791 20.4985 20.3091 20.4985 19.976V19.3732H1.20592V0.603062Z" fill="white"/>
<path fill-rule="evenodd" clip-rule="evenodd" d="M8.37363 11.737C8.04049 11.737 7.77075 12.0071 7.77075 12.3399V18.168H10.5842V12.3399C10.5842 12.0071 10.3142 11.737 9.98133 11.737H8.37363Z" fill="white"/>
<path fill-rule="evenodd" clip-rule="evenodd" d="M3.41652 13.3447C3.08338 13.3447 2.81348 13.6148 2.81348 13.9477V18.168H5.62704V13.9477C5.62704 13.6148 5.35709 13.3447 5.02422 13.3447H3.41652Z" fill="white"/>
<path fill-rule="evenodd" clip-rule="evenodd" d="M13.3307 14.5505C12.9978 14.5505 12.7278 14.8204 12.7278 15.1535V18.168H15.5412V15.1535C15.5412 14.8204 15.2715 14.5505 14.9384 14.5505H13.3307Z" fill="white"/>
<path fill-rule="evenodd" clip-rule="evenodd" d="M19.8952 10.9331H18.2877C17.9546 10.9331 17.6846 11.2032 17.6846 11.5361V18.168H20.4983V11.5361C20.4983 11.2032 20.2283 10.9331 19.8952 10.9331Z" fill="white"/>
<path fill-rule="evenodd" clip-rule="evenodd" d="M13.0506 1.19063H10.9919V-0.000272274H16.5178V1.19063H14.4634H13.0506ZM13.0506 6.92285V2.82031H10.9919V1.62957H16.5178V2.82031H14.4634V6.92285H13.0506Z" fill="white"/>
</svg>
