<svg width="425" height="866" viewBox="0 0 425 866" fill="none" xmlns="http://www.w3.org/2000/svg">
<path d="M337 92.1895L424.633 92.1894" stroke="#454D7D" stroke-width="2" stroke-miterlimit="22.9256"/>
<path d="M301 255.949L425 255.949" stroke="#454D7D" stroke-width="2" stroke-miterlimit="22.9256"/>
<path d="M267 617.949L425 617.949" stroke="#454D7D" stroke-width="2" stroke-miterlimit="22.9256"/>
<path fill-rule="evenodd" clip-rule="evenodd" d="M138.916 22.1741V255.233H114.811C114.148 252.794 112.874 251.165 111.786 249.775C110.476 248.099 109.529 246.889 109.529 244.165C109.529 241.44 110.476 240.23 111.786 238.554C113.336 236.575 115.265 234.108 115.265 229.502C115.265 224.898 113.336 222.351 111.786 220.37C110.496 218.722 109.557 217.431 109.529 214.803V214.751C109.557 212.125 110.496 210.833 111.786 209.185C113.336 207.204 115.265 204.656 115.265 200.052C115.265 195.446 113.336 192.98 111.786 191.001C110.476 189.325 109.529 188.115 109.529 185.391C109.529 182.665 110.476 181.455 111.786 179.781C113.336 177.799 115.265 175.336 115.265 170.729C115.265 166.123 113.336 163.659 111.786 161.677C110.476 160.002 109.529 158.792 109.529 156.066C109.529 153.34 110.476 152.129 111.786 150.456C113.336 148.473 115.265 146.088 115.265 141.404V141.389C115.265 136.706 113.336 134.32 111.786 132.338C110.476 130.664 109.529 129.453 109.529 126.728C109.529 124.001 110.476 122.791 111.786 121.116C113.336 119.135 115.265 116.671 115.265 112.065C115.265 107.458 113.336 104.995 111.786 103.013C110.476 101.337 109.529 100.128 109.529 97.4026C109.529 94.6783 110.476 93.4672 111.786 91.7926C111.91 91.6345 112.037 91.4727 112.164 91.307L108.843 22.1741H138.916Z" fill="#CCCCCC"/>
<path d="M138.916 22.1741V255.233H114.811C114.148 252.794 112.874 251.165 111.786 249.775C110.476 248.099 109.529 246.889 109.529 244.165C109.529 241.44 110.476 240.23 111.786 238.554C113.336 236.575 115.265 234.108 115.265 229.502C115.265 224.898 113.336 222.351 111.786 220.37C110.496 218.722 109.557 217.431 109.529 214.803V214.751C109.557 212.125 110.496 210.833 111.786 209.185C113.336 207.204 115.265 204.656 115.265 200.052C115.265 195.446 113.336 192.98 111.786 191.001C110.476 189.325 109.529 188.115 109.529 185.391C109.529 182.665 110.476 181.455 111.786 179.781C113.336 177.799 115.265 175.336 115.265 170.729C115.265 166.123 113.336 163.659 111.786 161.677C110.476 160.002 109.529 158.792 109.529 156.066C109.529 153.34 110.476 152.129 111.786 150.456C113.336 148.473 115.265 146.088 115.265 141.404V141.389C115.265 136.706 113.336 134.32 111.786 132.338C110.476 130.664 109.529 129.453 109.529 126.728C109.529 124.001 110.476 122.791 111.786 121.116C113.336 119.135 115.265 116.671 115.265 112.065C115.265 107.458 113.336 104.995 111.786 103.013C110.476 101.337 109.529 100.128 109.529 97.4026C109.529 94.6783 110.476 93.4672 111.786 91.7926C111.91 91.6345 112.037 91.4727 112.164 91.307L108.843 22.1741H138.916Z" stroke="#757EB3" stroke-miterlimit="22.9256"/>
<path fill-rule="evenodd" clip-rule="evenodd" d="M172.738 22.1746V488.582V491.087V616.952H146.615C147.884 615.187 149.087 612.921 149.087 609.223V609.208C149.087 604.525 147.158 602.139 145.608 600.157C144.298 598.483 143.351 597.272 143.351 594.547C143.351 591.82 144.298 590.611 145.608 588.935C147.158 586.954 149.087 584.49 149.087 579.884C149.087 575.277 147.158 572.814 145.608 570.832C144.298 569.157 143.351 567.948 143.351 565.222C143.351 562.498 144.298 561.287 145.608 559.612C147.158 557.633 149.087 555.166 149.087 550.561C149.087 545.955 147.158 543.408 145.608 541.428C144.318 539.78 143.379 538.488 143.351 535.861V535.809C143.379 533.182 144.318 531.891 145.608 530.242C147.158 528.262 149.087 525.715 149.087 521.11C149.087 516.504 147.158 514.038 145.608 512.058C144.298 510.383 143.351 509.172 143.351 506.448C143.351 503.724 144.298 502.513 145.608 500.838C150.719 494.304 149.981 491.219 145.608 485.628C144.298 483.954 143.351 482.743 143.351 480.019C143.351 477.294 144.298 476.083 145.608 474.408C147.158 472.428 149.087 469.962 149.087 465.356C149.087 460.752 147.158 458.204 145.608 456.224C144.318 454.576 143.379 453.284 143.351 450.657V450.605C143.379 447.978 144.318 446.687 145.608 445.039C147.158 443.058 149.087 440.51 149.087 435.905C149.087 431.3 147.158 428.834 145.608 426.854C144.298 425.18 143.351 423.969 143.351 421.245C143.351 418.519 144.298 417.31 145.608 415.634C147.158 413.653 149.087 411.189 149.087 406.583C149.087 401.976 147.158 399.512 145.608 397.531C144.298 395.856 143.351 394.646 143.351 391.92C143.351 389.194 144.298 387.984 145.608 386.31C147.158 384.327 149.087 381.942 149.087 377.258V377.243C149.087 372.559 147.158 370.174 145.608 368.192C144.298 366.517 143.351 365.307 143.351 362.581C143.351 359.854 144.298 358.645 145.608 356.97C147.158 354.988 149.087 352.525 149.087 347.919C149.087 343.312 147.158 340.849 145.608 338.867C144.298 337.191 143.351 335.982 143.351 333.256C143.351 330.532 144.298 329.321 145.608 327.646C147.158 325.667 149.087 323.201 149.087 318.596C149.087 313.99 147.158 311.443 145.608 309.463C144.318 307.815 143.379 306.523 143.351 303.896V303.843C143.379 301.216 144.318 299.925 145.608 298.277C147.158 296.296 149.087 293.749 149.087 289.145C149.087 284.539 147.158 282.072 145.608 280.093C144.298 278.418 143.351 277.207 143.351 274.483C143.351 271.758 144.298 270.548 145.608 268.872C147.158 266.891 149.087 264.427 149.087 259.82C149.087 258.616 148.955 257.558 148.732 256.617L148.764 22.1746H172.738Z" fill="#CCCCCC"/>
<path d="M172.738 22.1746V488.582V491.087V616.952H146.615C147.884 615.187 149.087 612.921 149.087 609.223V609.208C149.087 604.525 147.158 602.139 145.608 600.157C144.298 598.483 143.351 597.272 143.351 594.547C143.351 591.82 144.298 590.611 145.608 588.935C147.158 586.954 149.087 584.49 149.087 579.884C149.087 575.277 147.158 572.814 145.608 570.832C144.298 569.157 143.351 567.948 143.351 565.222C143.351 562.498 144.298 561.287 145.608 559.612C147.158 557.633 149.087 555.166 149.087 550.561C149.087 545.955 147.158 543.408 145.608 541.428C144.318 539.78 143.379 538.488 143.351 535.861V535.809C143.379 533.182 144.318 531.891 145.608 530.242C147.158 528.262 149.087 525.715 149.087 521.11C149.087 516.504 147.158 514.038 145.608 512.058C144.298 510.383 143.351 509.172 143.351 506.448C143.351 503.724 144.298 502.513 145.608 500.838C150.719 494.304 149.981 491.219 145.608 485.628C144.298 483.954 143.351 482.743 143.351 480.019C143.351 477.294 144.298 476.083 145.608 474.408C147.158 472.428 149.087 469.962 149.087 465.356C149.087 460.752 147.158 458.204 145.608 456.224C144.318 454.576 143.379 453.284 143.351 450.657V450.605C143.379 447.978 144.318 446.687 145.608 445.039C147.158 443.058 149.087 440.51 149.087 435.905C149.087 431.3 147.158 428.834 145.608 426.854C144.298 425.18 143.351 423.969 143.351 421.245C143.351 418.519 144.298 417.31 145.608 415.634C147.158 413.653 149.087 411.189 149.087 406.583C149.087 401.976 147.158 399.512 145.608 397.531C144.298 395.856 143.351 394.646 143.351 391.92C143.351 389.194 144.298 387.984 145.608 386.31C147.158 384.327 149.087 381.942 149.087 377.258V377.243C149.087 372.559 147.158 370.174 145.608 368.192C144.298 366.517 143.351 365.307 143.351 362.581C143.351 359.854 144.298 358.645 145.608 356.97C147.158 354.988 149.087 352.525 149.087 347.919C149.087 343.312 147.158 340.849 145.608 338.867C144.298 337.191 143.351 335.982 143.351 333.256C143.351 330.532 144.298 329.321 145.608 327.646C147.158 325.667 149.087 323.201 149.087 318.596C149.087 313.99 147.158 311.443 145.608 309.463C144.318 307.815 143.379 306.523 143.351 303.896V303.843C143.379 301.216 144.318 299.925 145.608 298.277C147.158 296.296 149.087 293.749 149.087 289.145C149.087 284.539 147.158 282.072 145.608 280.093C144.298 278.418 143.351 277.207 143.351 274.483C143.351 271.758 144.298 270.548 145.608 268.872C147.158 266.891 149.087 264.427 149.087 259.821C149.087 258.616 148.955 257.558 148.732 256.617L148.764 22.1746H172.738Z" stroke="#757EB3" stroke-miterlimit="22.9256"/>
<path fill-rule="evenodd" clip-rule="evenodd" d="M138.966 91.1738H148.762V22.1738H138.966V91.1738Z" fill="#00963F"/>
<path d="M138.966 91.1738H148.762V22.1738H138.966V91.1738Z" stroke="#757EB3" stroke-miterlimit="22.9256"/>
<path fill-rule="evenodd" clip-rule="evenodd" d="M138.966 231.258H148.762V255.233H138.966V231.258Z" fill="#E3000F"/>
<path d="M138.966 231.258H148.762V255.233H138.966V231.258Z" stroke="#757EB3" stroke-miterlimit="22.9256"/>
<path fill-rule="evenodd" clip-rule="evenodd" d="M172.738 561.576H182.534V21.949H172.738V561.576Z" fill="#FFEC08"/>
<path d="M172.738 561.576H182.534V21.949H172.738V561.576Z" stroke="#757EB3" stroke-miterlimit="22.9256"/>
<path fill-rule="evenodd" clip-rule="evenodd" d="M172.738 561.576H182.534V616.952H172.738V561.576Z" fill="#00963F"/>
<path d="M172.738 561.576H182.534V616.952H172.738V561.576Z" stroke="#757EB3" stroke-miterlimit="22.9256"/>
<path fill-rule="evenodd" clip-rule="evenodd" d="M138.966 231.259H148.762V90.2029H138.966V231.259Z" fill="#FFEC08"/>
<path d="M138.966 231.259H148.762V90.2029H138.966V231.259Z" stroke="#757EB3" stroke-miterlimit="22.9256"/>
<path fill-rule="evenodd" clip-rule="evenodd" d="M102.387 22.1738V91.1738H75.7375C77.1785 89.2918 78.7365 86.8808 78.7365 82.7412C78.7365 78.1361 76.8077 75.5885 75.2575 73.6084C73.9674 71.9609 73.0289 70.6686 73 68.0414V67.9895C73.0289 65.3623 73.9674 64.0713 75.2575 62.4224C76.8077 60.4423 78.7365 57.8952 78.7365 53.2904C78.7365 48.6843 76.8077 46.2178 75.2575 44.2386C73.9477 42.5639 73 41.3527 73 38.6285C73 35.9037 73.9477 34.6929 75.2575 33.0181C76.8077 31.0364 78.7365 28.5731 78.7365 23.9666C78.7365 23.3292 78.6997 22.7333 78.6321 22.1738H102.387Z" fill="#CCCCCC"/>
<path d="M102.387 22.1738V91.1738H75.7375C77.1785 89.2918 78.7365 86.8808 78.7365 82.7412C78.7365 78.1361 76.8077 75.5885 75.2575 73.6084C73.9674 71.9609 73.0289 70.6686 73 68.0414V67.9895C73.0289 65.3623 73.9674 64.0713 75.2575 62.4224C76.8077 60.4423 78.7365 57.8952 78.7365 53.2904C78.7365 48.6843 76.8077 46.2178 75.2575 44.2386C73.9477 42.5639 73 41.3527 73 38.6285C73 35.9037 73.9477 34.6929 75.2575 33.018C76.8077 31.0364 78.7365 28.5731 78.7365 23.9666C78.7365 23.3292 78.6997 22.7333 78.6321 22.1738H102.387Z" stroke="#757EB3" stroke-miterlimit="22.9256"/>
<path fill-rule="evenodd" clip-rule="evenodd" d="M102.896 91.1738H112.691V22.1738H102.896V91.1738Z" fill="#E3000F"/>
<path d="M102.896 91.1738H112.691V22.1738H102.896V91.1738Z" stroke="#757EB3" stroke-miterlimit="22.9256"/>
<path fill-rule="evenodd" clip-rule="evenodd" d="M310.726 22.1741V255.233H334.83C335.493 252.794 336.768 251.165 337.855 249.775C339.165 248.099 340.113 246.889 340.113 244.165C340.113 241.44 339.165 240.23 337.855 238.554C336.305 236.575 334.376 234.108 334.376 229.502C334.376 224.898 336.305 222.351 337.855 220.37C339.145 218.722 340.084 217.431 340.113 214.803V214.751C340.084 212.125 339.145 210.833 337.855 209.185C336.305 207.204 334.376 204.656 334.376 200.052C334.376 195.446 336.305 192.98 337.855 191.001C339.165 189.325 340.113 188.115 340.113 185.391C340.113 182.665 339.165 181.455 337.855 179.781C336.305 177.799 334.376 175.336 334.376 170.729C334.376 166.123 336.305 163.659 337.855 161.677C339.165 160.002 340.113 158.792 340.113 156.066C340.113 153.34 339.165 152.129 337.855 150.456C336.305 148.473 334.376 146.088 334.376 141.404V141.389C334.376 136.706 336.305 134.32 337.855 132.338C339.165 130.664 340.113 129.453 340.113 126.728C340.113 124.001 339.165 122.791 337.855 121.116C336.305 119.135 334.376 116.671 334.376 112.065C334.376 107.458 336.305 104.995 337.855 103.013C339.165 101.337 340.113 100.128 340.113 97.4026C340.113 94.6783 339.165 93.4672 337.855 91.7926C337.731 91.6345 337.604 91.4727 337.477 91.307L340.798 22.1741H310.726Z" fill="#CCCCCC"/>
<path d="M310.726 22.1741V255.233H334.83C335.493 252.794 336.768 251.165 337.855 249.775C339.165 248.099 340.113 246.889 340.113 244.165C340.113 241.44 339.165 240.23 337.855 238.554C336.305 236.575 334.376 234.108 334.376 229.502C334.376 224.898 336.305 222.351 337.855 220.37C339.145 218.722 340.084 217.431 340.113 214.803V214.751C340.084 212.125 339.145 210.833 337.855 209.185C336.305 207.204 334.376 204.656 334.376 200.052C334.376 195.446 336.305 192.98 337.855 191.001C339.165 189.325 340.113 188.115 340.113 185.391C340.113 182.665 339.165 181.455 337.855 179.781C336.305 177.799 334.376 175.336 334.376 170.729C334.376 166.123 336.305 163.659 337.855 161.677C339.165 160.002 340.113 158.792 340.113 156.066C340.113 153.34 339.165 152.129 337.855 150.456C336.305 148.473 334.376 146.088 334.376 141.404V141.389C334.376 136.706 336.305 134.32 337.855 132.338C339.165 130.664 340.113 129.453 340.113 126.728C340.113 124.001 339.165 122.791 337.855 121.116C336.305 119.135 334.376 116.671 334.376 112.065C334.376 107.458 336.305 104.995 337.855 103.013C339.165 101.337 340.113 100.128 340.113 97.4026C340.113 94.6783 339.165 93.4672 337.855 91.7926C337.731 91.6345 337.604 91.4727 337.477 91.307L340.798 22.1741H310.726Z" stroke="#757EB3" stroke-miterlimit="22.9256"/>
<path fill-rule="evenodd" clip-rule="evenodd" d="M276.904 22.1746V488.582V491.087V616.952H303.027C301.757 615.187 300.555 612.921 300.555 609.223V609.208C300.555 604.525 302.484 602.139 304.034 600.157C305.344 598.483 306.292 597.272 306.292 594.547C306.292 591.82 305.344 590.611 304.034 588.935C302.484 586.954 300.555 584.49 300.555 579.884C300.555 575.277 302.484 572.814 304.034 570.832C305.344 569.157 306.292 567.948 306.292 565.222C306.292 562.498 305.344 561.287 304.034 559.612C302.484 557.633 300.555 555.166 300.555 550.561C300.555 545.955 302.484 543.408 304.034 541.428C305.324 539.78 306.263 538.488 306.292 535.861V535.809C306.263 533.182 305.324 531.891 304.034 530.242C302.484 528.262 300.555 525.715 300.555 521.11C300.555 516.504 302.484 514.038 304.034 512.058C305.344 510.383 306.292 509.172 306.292 506.448C306.292 503.724 305.344 502.513 304.034 500.838C298.923 494.304 299.661 491.219 304.034 485.628C305.344 483.954 306.292 482.743 306.292 480.019C306.292 477.294 305.344 476.083 304.034 474.408C302.484 472.428 300.555 469.962 300.555 465.356C300.555 460.752 302.484 458.204 304.034 456.224C305.324 454.576 306.263 453.284 306.292 450.657V450.605C306.263 447.978 305.324 446.687 304.034 445.039C302.484 443.058 300.555 440.51 300.555 435.905C300.555 431.3 302.484 428.834 304.034 426.854C305.344 425.18 306.292 423.969 306.292 421.245C306.292 418.519 305.344 417.31 304.034 415.634C302.484 413.653 300.555 411.189 300.555 406.583C300.555 401.976 302.484 399.512 304.034 397.531C305.344 395.856 306.292 394.646 306.292 391.92C306.292 389.194 305.344 387.984 304.034 386.31C302.484 384.327 300.555 381.942 300.555 377.258V377.243C300.555 372.559 302.484 370.174 304.034 368.192C305.344 366.517 306.292 365.307 306.292 362.581C306.292 359.854 305.344 358.645 304.034 356.97C302.484 354.988 300.555 352.525 300.555 347.919C300.555 343.312 302.484 340.849 304.034 338.867C305.344 337.191 306.292 335.982 306.292 333.256C306.292 330.532 305.344 329.321 304.034 327.646C302.484 325.667 300.555 323.201 300.555 318.596C300.555 313.99 302.484 311.443 304.034 309.463C305.324 307.815 306.263 306.523 306.292 303.896V303.843C306.263 301.216 305.324 299.925 304.034 298.277C302.484 296.296 300.555 293.749 300.555 289.145C300.555 284.539 302.484 282.072 304.034 280.093C305.344 278.418 306.292 277.207 306.292 274.483C306.292 271.758 305.344 270.548 304.034 268.872C302.484 266.891 300.555 264.427 300.555 259.82C300.555 258.616 300.687 257.558 300.91 256.617L300.878 22.1746H276.904Z" fill="#CCCCCC"/>
<path d="M276.904 22.1746V488.582V491.087V616.952H303.027C301.757 615.187 300.555 612.921 300.555 609.223V609.208C300.555 604.525 302.484 602.139 304.034 600.157C305.344 598.483 306.292 597.272 306.292 594.547C306.292 591.82 305.344 590.611 304.034 588.935C302.484 586.954 300.555 584.49 300.555 579.884C300.555 575.277 302.484 572.814 304.034 570.832C305.344 569.157 306.292 567.948 306.292 565.222C306.292 562.498 305.344 561.287 304.034 559.612C302.484 557.633 300.555 555.166 300.555 550.561C300.555 545.955 302.484 543.408 304.034 541.428C305.324 539.78 306.263 538.488 306.292 535.861V535.809C306.263 533.182 305.324 531.891 304.034 530.242C302.484 528.262 300.555 525.715 300.555 521.11C300.555 516.504 302.484 514.038 304.034 512.058C305.344 510.383 306.292 509.172 306.292 506.448C306.292 503.724 305.344 502.513 304.034 500.838C298.923 494.304 299.661 491.219 304.034 485.628C305.344 483.954 306.292 482.743 306.292 480.019C306.292 477.294 305.344 476.083 304.034 474.408C302.484 472.428 300.555 469.962 300.555 465.356C300.555 460.752 302.484 458.204 304.034 456.224C305.324 454.576 306.263 453.284 306.292 450.657V450.605C306.263 447.978 305.324 446.687 304.034 445.039C302.484 443.058 300.555 440.51 300.555 435.905C300.555 431.3 302.484 428.834 304.034 426.854C305.344 425.18 306.292 423.969 306.292 421.245C306.292 418.519 305.344 417.31 304.034 415.634C302.484 413.653 300.555 411.189 300.555 406.583C300.555 401.976 302.484 399.512 304.034 397.531C305.344 395.856 306.292 394.646 306.292 391.92C306.292 389.194 305.344 387.984 304.034 386.31C302.484 384.327 300.555 381.942 300.555 377.258V377.243C300.555 372.559 302.484 370.174 304.034 368.192C305.344 366.517 306.292 365.307 306.292 362.581C306.292 359.854 305.344 358.645 304.034 356.97C302.484 354.988 300.555 352.525 300.555 347.919C300.555 343.312 302.484 340.849 304.034 338.867C305.344 337.191 306.292 335.982 306.292 333.256C306.292 330.532 305.344 329.321 304.034 327.646C302.484 325.667 300.555 323.201 300.555 318.596C300.555 313.99 302.484 311.443 304.034 309.463C305.324 307.815 306.263 306.523 306.292 303.896V303.843C306.263 301.216 305.324 299.925 304.034 298.277C302.484 296.296 300.555 293.749 300.555 289.145C300.555 284.539 302.484 282.072 304.034 280.093C305.344 278.418 306.292 277.207 306.292 274.483C306.292 271.758 305.344 270.548 304.034 268.872C302.484 266.891 300.555 264.427 300.555 259.821C300.555 258.616 300.687 257.558 300.91 256.617L300.878 22.1746H276.904Z" stroke="#757EB3" stroke-miterlimit="22.9256"/>
<path fill-rule="evenodd" clip-rule="evenodd" d="M310.678 91.1738H300.882V22.1738H310.678V91.1738Z" fill="#00963F"/>
<path d="M310.678 91.1738H300.882V22.1738H310.678V91.1738Z" stroke="#757EB3" stroke-miterlimit="22.9256"/>
<path fill-rule="evenodd" clip-rule="evenodd" d="M310.678 231.258H300.882V255.233H310.678V231.258Z" fill="#E3000F"/>
<path d="M310.678 231.258H300.882V255.233H310.678V231.258Z" stroke="#757EB3" stroke-miterlimit="22.9256"/>
<path fill-rule="evenodd" clip-rule="evenodd" d="M276.904 561.576H267.108V21.949H276.904V561.576Z" fill="#FFEC08"/>
<path d="M276.904 561.576H267.108V21.949H276.904V561.576Z" stroke="#757EB3" stroke-miterlimit="22.9256"/>
<path fill-rule="evenodd" clip-rule="evenodd" d="M276.904 561.576H267.108V616.952H276.904V561.576Z" fill="#00963F"/>
<path d="M276.904 561.576H267.108V616.952H276.904V561.576Z" stroke="#757EB3" stroke-miterlimit="22.9256"/>
<path fill-rule="evenodd" clip-rule="evenodd" d="M310.678 231.259H300.882V90.2029H310.678V231.259Z" fill="#FFEC08"/>
<path d="M310.678 231.259H300.882V90.2029H310.678V231.259Z" stroke="#757EB3" stroke-miterlimit="22.9256"/>
<path fill-rule="evenodd" clip-rule="evenodd" d="M347.255 22.1738V91.1738H373.905C372.464 89.2918 370.906 86.8808 370.906 82.7412C370.906 78.1361 372.835 75.5885 374.385 73.6084C375.675 71.9609 376.613 70.6686 376.642 68.0414V67.9895C376.613 65.3623 375.675 64.0713 374.385 62.4224C372.835 60.4423 370.906 57.8952 370.906 53.2904C370.906 48.6843 372.835 46.2178 374.385 44.2386C375.694 42.5639 376.642 41.3527 376.642 38.6285C376.642 35.9037 375.694 34.6929 374.385 33.0181C372.835 31.0364 370.906 28.5731 370.906 23.9666C370.906 23.3292 370.942 22.7333 371.01 22.1738H347.255Z" fill="#CCCCCC"/>
<path d="M347.255 22.1738V91.1738H373.905C372.464 89.2918 370.906 86.8808 370.906 82.7412C370.906 78.1361 372.835 75.5885 374.385 73.6084C375.675 71.9609 376.613 70.6686 376.642 68.0414V67.9895C376.613 65.3623 375.675 64.0713 374.385 62.4224C372.835 60.4423 370.906 57.8952 370.906 53.2904C370.906 48.6843 372.835 46.2178 374.385 44.2386C375.694 42.5639 376.642 41.3527 376.642 38.6285C376.642 35.9037 375.694 34.6929 374.385 33.018C372.835 31.0364 370.906 28.5731 370.906 23.9666C370.906 23.3292 370.942 22.7333 371.01 22.1738H347.255Z" stroke="#757EB3" stroke-miterlimit="22.9256"/>
<path fill-rule="evenodd" clip-rule="evenodd" d="M346.749 91.1738H336.953V22.1738H346.749V91.1738Z" fill="#E3000F"/>
<path d="M346.749 91.1738H336.953V22.1738H346.749V91.1738Z" stroke="#757EB3" stroke-miterlimit="22.9256"/>
<path d="M75.9756 442L177.636 498.503" stroke="#454D7D" stroke-width="2" stroke-miterlimit="22.9256"/>
<path d="M43.9756 174L145.636 230.503" stroke="#454D7D" stroke-width="2" stroke-miterlimit="22.9256"/>
<path d="M0.975586 1L102.636 57.5033" stroke="#454D7D" stroke-width="2" stroke-miterlimit="22.9256"/>
<mask id="path-43-outside-1_1029_14231" maskUnits="userSpaceOnUse" x="233" y="616.76" width="42" height="249" fill="black">
<rect fill="white" x="233" y="616.76" width="42" height="249"/>
<path d="M234.629 864.01H267.226L267.224 863.766C267.222 860.761 267.753 858.45 268.495 856.565C269.235 854.688 270.179 853.25 271.018 851.971C272.384 849.889 273.371 848.385 273.371 845.033C273.371 841.681 272.384 840.177 271.019 838.098L271.016 838.092C269.324 835.514 267.222 832.308 267.222 826.303C267.222 820.298 269.324 817.093 271.013 814.517L271.018 814.511C271.709 813.458 272.305 812.551 272.718 811.502C273.129 810.461 273.371 809.253 273.371 807.573C273.371 804.22 272.384 802.716 271.02 800.637L270.934 800.507C269.373 798.127 267.499 795.269 267.251 790.016H267.222V788.466H267.251C267.499 783.213 269.373 780.355 270.934 777.975L271.034 777.822C272.392 775.754 273.371 774.249 273.371 770.909C273.371 769.229 273.129 768.021 272.718 766.98C272.306 765.933 271.711 765.027 271.022 763.978L271.013 763.964C269.323 761.388 267.222 758.184 267.222 752.179C267.222 746.172 269.324 742.968 271.013 740.392L271.025 740.375C272.386 738.301 273.371 736.796 273.371 733.449C273.371 730.097 272.384 728.593 271.02 726.514C270.179 725.232 269.235 723.794 268.495 721.917C267.753 720.032 267.222 717.721 267.222 714.718C267.222 711.717 267.752 709.381 268.493 707.472C269.232 705.571 270.177 704.104 271.018 702.822C271.696 701.79 272.282 700.87 272.697 699.807C273.108 698.759 273.358 697.556 273.373 695.941L273.371 695.874C273.358 694.259 273.108 693.056 272.698 692.008C272.282 690.945 271.696 690.024 271.018 688.993C270.177 687.711 269.232 686.244 268.493 684.343C267.752 682.434 267.222 680.097 267.222 677.095C267.222 671.164 269.273 667.962 270.951 665.406L271.018 665.303C272.384 663.221 273.371 661.717 273.371 658.366C273.371 655.013 272.385 653.511 271.02 651.433L271.013 651.421C269.324 648.846 267.222 645.64 267.222 639.635C267.222 633.63 269.324 630.425 271.013 627.85L271.019 627.841C272.384 625.763 273.371 624.26 273.371 620.905C273.371 620.377 273.347 619.897 273.303 619.456C273.269 619.124 273.222 618.811 273.164 618.516L273.052 617.76L273.65 617.767L273.713 618.045C273.805 618.453 273.878 618.891 273.926 619.366C273.974 619.841 274 620.351 274 620.905C274 624.513 272.956 626.104 271.512 628.301L271.495 628.327C269.868 630.808 267.851 633.898 267.851 639.635C267.851 645.387 269.878 648.478 271.507 650.962L271.514 650.973C272.957 653.17 274 654.759 274 658.366C274 661.917 272.988 663.512 271.579 665.659L271.512 665.763C269.882 668.246 267.851 671.338 267.851 677.095C267.851 679.975 268.356 682.209 269.063 684.03C269.773 685.858 270.694 687.285 271.512 688.533C272.217 689.606 272.826 690.566 273.267 691.692C273.712 692.833 273.983 694.134 273.999 695.871L274 695.941C273.983 697.681 273.712 698.982 273.266 700.122C272.826 701.249 272.216 702.209 271.512 703.281C270.694 704.529 269.773 705.957 269.063 707.785C268.356 709.606 267.851 711.839 267.851 714.718C267.851 717.599 268.356 719.807 269.062 721.601C269.771 723.4 270.692 724.803 271.512 726.052C272.956 728.253 274 729.842 274 733.449C274 737.055 272.956 738.645 271.513 740.843L271.5 740.864C269.872 743.345 267.851 746.434 267.851 752.179C267.851 757.925 269.874 761.015 271.503 763.498L271.512 763.512C272.226 764.599 272.841 765.536 273.286 766.665C273.734 767.802 274 769.11 274 770.909C274 774.518 272.956 776.108 271.513 778.306L271.428 778.435C269.887 780.782 268.031 783.612 267.863 788.854C267.854 789.137 267.854 789.345 267.863 789.628C268.031 794.87 269.887 797.7 271.428 800.047L271.512 800.175C272.956 802.376 274 803.966 274 807.573C274 809.372 273.734 810.68 273.286 811.817C272.841 812.945 272.226 813.884 271.512 814.97L271.506 814.977C269.878 817.461 267.851 820.552 267.851 826.303C267.851 832.041 269.868 835.131 271.495 837.611L271.513 837.638C272.956 839.836 274 841.426 274 845.033C274 848.64 272.956 850.229 271.513 852.428C270.692 853.679 269.771 855.082 269.062 856.881C268.356 858.675 267.851 860.882 267.851 863.763L267.866 864.76H234V864.385V864.01H234.629Z"/>
</mask>
<path d="M234.629 864.01H267.226L267.224 863.766C267.222 860.761 267.753 858.45 268.495 856.565C269.235 854.688 270.179 853.25 271.018 851.971C272.384 849.889 273.371 848.385 273.371 845.033C273.371 841.681 272.384 840.177 271.019 838.098L271.016 838.092C269.324 835.514 267.222 832.308 267.222 826.303C267.222 820.298 269.324 817.093 271.013 814.517L271.018 814.511C271.709 813.458 272.305 812.551 272.718 811.502C273.129 810.461 273.371 809.253 273.371 807.573C273.371 804.22 272.384 802.716 271.02 800.637L270.934 800.507C269.373 798.127 267.499 795.269 267.251 790.016H267.222V788.466H267.251C267.499 783.213 269.373 780.355 270.934 777.975L271.034 777.822C272.392 775.754 273.371 774.249 273.371 770.909C273.371 769.229 273.129 768.021 272.718 766.98C272.306 765.933 271.711 765.027 271.022 763.978L271.013 763.964C269.323 761.388 267.222 758.184 267.222 752.179C267.222 746.172 269.324 742.968 271.013 740.392L271.025 740.375C272.386 738.301 273.371 736.796 273.371 733.449C273.371 730.097 272.384 728.593 271.02 726.514C270.179 725.232 269.235 723.794 268.495 721.917C267.753 720.032 267.222 717.721 267.222 714.718C267.222 711.717 267.752 709.381 268.493 707.472C269.232 705.571 270.177 704.104 271.018 702.822C271.696 701.79 272.282 700.87 272.697 699.807C273.108 698.759 273.358 697.556 273.373 695.941L273.371 695.874C273.358 694.259 273.108 693.056 272.698 692.008C272.282 690.945 271.696 690.024 271.018 688.993C270.177 687.711 269.232 686.244 268.493 684.343C267.752 682.434 267.222 680.097 267.222 677.095C267.222 671.164 269.273 667.962 270.951 665.406L271.018 665.303C272.384 663.221 273.371 661.717 273.371 658.366C273.371 655.013 272.385 653.511 271.02 651.433L271.013 651.421C269.324 648.846 267.222 645.64 267.222 639.635C267.222 633.63 269.324 630.425 271.013 627.85L271.019 627.841C272.384 625.763 273.371 624.26 273.371 620.905C273.371 620.377 273.347 619.897 273.303 619.456C273.269 619.124 273.222 618.811 273.164 618.516L273.052 617.76L273.65 617.767L273.713 618.045C273.805 618.453 273.878 618.891 273.926 619.366C273.974 619.841 274 620.351 274 620.905C274 624.513 272.956 626.104 271.512 628.301L271.495 628.327C269.868 630.808 267.851 633.898 267.851 639.635C267.851 645.387 269.878 648.478 271.507 650.962L271.514 650.973C272.957 653.17 274 654.759 274 658.366C274 661.917 272.988 663.512 271.579 665.659L271.512 665.763C269.882 668.246 267.851 671.338 267.851 677.095C267.851 679.975 268.356 682.209 269.063 684.03C269.773 685.858 270.694 687.285 271.512 688.533C272.217 689.606 272.826 690.566 273.267 691.692C273.712 692.833 273.983 694.134 273.999 695.871L274 695.941C273.983 697.681 273.712 698.982 273.266 700.122C272.826 701.249 272.216 702.209 271.512 703.281C270.694 704.529 269.773 705.957 269.063 707.785C268.356 709.606 267.851 711.839 267.851 714.718C267.851 717.599 268.356 719.807 269.062 721.601C269.771 723.4 270.692 724.803 271.512 726.052C272.956 728.253 274 729.842 274 733.449C274 737.055 272.956 738.645 271.513 740.843L271.5 740.864C269.872 743.345 267.851 746.434 267.851 752.179C267.851 757.925 269.874 761.015 271.503 763.498L271.512 763.512C272.226 764.599 272.841 765.536 273.286 766.665C273.734 767.802 274 769.11 274 770.909C274 774.518 272.956 776.108 271.513 778.306L271.428 778.435C269.887 780.782 268.031 783.612 267.863 788.854C267.854 789.137 267.854 789.345 267.863 789.628C268.031 794.87 269.887 797.7 271.428 800.047L271.512 800.175C272.956 802.376 274 803.966 274 807.573C274 809.372 273.734 810.68 273.286 811.817C272.841 812.945 272.226 813.884 271.512 814.97L271.506 814.977C269.878 817.461 267.851 820.552 267.851 826.303C267.851 832.041 269.868 835.131 271.495 837.611L271.513 837.638C272.956 839.836 274 841.426 274 845.033C274 848.64 272.956 850.229 271.513 852.428C270.692 853.679 269.771 855.082 269.062 856.881C268.356 858.675 267.851 860.882 267.851 863.763L267.866 864.76H234V864.385V864.01H234.629Z" fill="#FBA409"/>
<path d="M234.629 864.01H267.226L267.224 863.766C267.222 860.761 267.753 858.45 268.495 856.565C269.235 854.688 270.179 853.25 271.018 851.971C272.384 849.889 273.371 848.385 273.371 845.033C273.371 841.681 272.384 840.177 271.019 838.098L271.016 838.092C269.324 835.514 267.222 832.308 267.222 826.303C267.222 820.298 269.324 817.093 271.013 814.517L271.018 814.511C271.709 813.458 272.305 812.551 272.718 811.502C273.129 810.461 273.371 809.253 273.371 807.573C273.371 804.22 272.384 802.716 271.02 800.637L270.934 800.507C269.373 798.127 267.499 795.269 267.251 790.016H267.222V788.466H267.251C267.499 783.213 269.373 780.355 270.934 777.975L271.034 777.822C272.392 775.754 273.371 774.249 273.371 770.909C273.371 769.229 273.129 768.021 272.718 766.98C272.306 765.933 271.711 765.027 271.022 763.978L271.013 763.964C269.323 761.388 267.222 758.184 267.222 752.179C267.222 746.172 269.324 742.968 271.013 740.392L271.025 740.375C272.386 738.301 273.371 736.796 273.371 733.449C273.371 730.097 272.384 728.593 271.02 726.514C270.179 725.232 269.235 723.794 268.495 721.917C267.753 720.032 267.222 717.721 267.222 714.718C267.222 711.717 267.752 709.381 268.493 707.472C269.232 705.571 270.177 704.104 271.018 702.822C271.696 701.79 272.282 700.87 272.697 699.807C273.108 698.759 273.358 697.556 273.373 695.941L273.371 695.874C273.358 694.259 273.108 693.056 272.698 692.008C272.282 690.945 271.696 690.024 271.018 688.993C270.177 687.711 269.232 686.244 268.493 684.343C267.752 682.434 267.222 680.097 267.222 677.095C267.222 671.164 269.273 667.962 270.951 665.406L271.018 665.303C272.384 663.221 273.371 661.717 273.371 658.366C273.371 655.013 272.385 653.511 271.02 651.433L271.013 651.421C269.324 648.846 267.222 645.64 267.222 639.635C267.222 633.63 269.324 630.425 271.013 627.85L271.019 627.841C272.384 625.763 273.371 624.26 273.371 620.905C273.371 620.377 273.347 619.897 273.303 619.456C273.269 619.124 273.222 618.811 273.164 618.516L273.052 617.76L273.65 617.767L273.713 618.045C273.805 618.453 273.878 618.891 273.926 619.366C273.974 619.841 274 620.351 274 620.905C274 624.513 272.956 626.104 271.512 628.301L271.495 628.327C269.868 630.808 267.851 633.898 267.851 639.635C267.851 645.387 269.878 648.478 271.507 650.962L271.514 650.973C272.957 653.17 274 654.759 274 658.366C274 661.917 272.988 663.512 271.579 665.659L271.512 665.763C269.882 668.246 267.851 671.338 267.851 677.095C267.851 679.975 268.356 682.209 269.063 684.03C269.773 685.858 270.694 687.285 271.512 688.533C272.217 689.606 272.826 690.566 273.267 691.692C273.712 692.833 273.983 694.134 273.999 695.871L274 695.941C273.983 697.681 273.712 698.982 273.266 700.122C272.826 701.249 272.216 702.209 271.512 703.281C270.694 704.529 269.773 705.957 269.063 707.785C268.356 709.606 267.851 711.839 267.851 714.718C267.851 717.599 268.356 719.807 269.062 721.601C269.771 723.4 270.692 724.803 271.512 726.052C272.956 728.253 274 729.842 274 733.449C274 737.055 272.956 738.645 271.513 740.843L271.5 740.864C269.872 743.345 267.851 746.434 267.851 752.179C267.851 757.925 269.874 761.015 271.503 763.498L271.512 763.512C272.226 764.599 272.841 765.536 273.286 766.665C273.734 767.802 274 769.11 274 770.909C274 774.518 272.956 776.108 271.513 778.306L271.428 778.435C269.887 780.782 268.031 783.612 267.863 788.854C267.854 789.137 267.854 789.345 267.863 789.628C268.031 794.87 269.887 797.7 271.428 800.047L271.512 800.175C272.956 802.376 274 803.966 274 807.573C274 809.372 273.734 810.68 273.286 811.817C272.841 812.945 272.226 813.884 271.512 814.97L271.506 814.977C269.878 817.461 267.851 820.552 267.851 826.303C267.851 832.041 269.868 835.131 271.495 837.611L271.513 837.638C272.956 839.836 274 841.426 274 845.033C274 848.64 272.956 850.229 271.513 852.428C270.692 853.679 269.771 855.082 269.062 856.881C268.356 858.675 267.851 860.882 267.851 863.763L267.866 864.76H234V864.385V864.01H234.629Z" stroke="#FBA409" mask="url(#path-43-outside-1_1029_14231)"/>
<mask id="path-44-outside-2_1029_14231" maskUnits="userSpaceOnUse" x="177" y="616.76" width="42" height="249" fill="black">
<rect fill="white" x="177" y="616.76" width="42" height="249"/>
<path d="M217.371 864.01H184.774L184.776 863.766C184.778 860.761 184.247 858.45 183.505 856.565C182.765 854.688 181.821 853.25 180.982 851.971C179.616 849.889 178.629 848.385 178.629 845.033C178.629 841.681 179.616 840.177 180.981 838.098L180.984 838.092C182.676 835.514 184.778 832.308 184.778 826.303C184.778 820.298 182.676 817.093 180.987 814.517L180.982 814.511C180.291 813.458 179.695 812.551 179.282 811.502C178.871 810.461 178.629 809.253 178.629 807.573C178.629 804.22 179.616 802.716 180.98 800.637L181.066 800.507C182.627 798.127 184.501 795.269 184.749 790.016H184.778V788.466H184.749C184.501 783.213 182.627 780.355 181.066 777.975L180.966 777.822C179.608 775.754 178.629 774.249 178.629 770.909C178.629 769.229 178.871 768.021 179.282 766.98C179.694 765.933 180.289 765.027 180.978 763.978L180.987 763.964C182.677 761.388 184.778 758.184 184.778 752.179C184.778 746.172 182.676 742.968 180.987 740.392L180.975 740.375C179.614 738.301 178.629 736.796 178.629 733.449C178.629 730.097 179.616 728.593 180.98 726.514C181.821 725.232 182.765 723.794 183.505 721.917C184.247 720.032 184.778 717.721 184.778 714.718C184.778 711.717 184.248 709.381 183.507 707.472C182.768 705.571 181.823 704.104 180.982 702.822C180.304 701.79 179.718 700.87 179.303 699.807C178.892 698.759 178.642 697.556 178.627 695.941L178.629 695.874C178.642 694.259 178.892 693.056 179.302 692.008C179.718 690.945 180.304 690.024 180.982 688.993C181.823 687.711 182.768 686.244 183.507 684.343C184.248 682.434 184.778 680.097 184.778 677.095C184.778 671.164 182.727 667.962 181.049 665.406L180.982 665.303C179.616 663.221 178.629 661.717 178.629 658.366C178.629 655.013 179.615 653.511 180.98 651.433L180.987 651.421C182.676 648.846 184.778 645.64 184.778 639.635C184.778 633.63 182.676 630.425 180.987 627.85L180.981 627.841C179.616 625.763 178.629 624.26 178.629 620.905C178.629 620.377 178.653 619.897 178.697 619.456C178.731 619.124 178.778 618.811 178.836 618.516L178.948 617.76L178.35 617.767L178.287 618.045C178.195 618.453 178.122 618.891 178.074 619.366C178.026 619.841 178 620.351 178 620.905C178 624.513 179.044 626.104 180.488 628.301L180.505 628.327C182.132 630.808 184.149 633.898 184.149 639.635C184.149 645.387 182.122 648.478 180.493 650.962L180.486 650.973C179.043 653.17 178 654.759 178 658.366C178 661.917 179.012 663.512 180.421 665.659L180.488 665.763C182.118 668.246 184.149 671.338 184.149 677.095C184.149 679.975 183.644 682.209 182.937 684.03C182.227 685.858 181.306 687.285 180.488 688.533C179.783 689.606 179.174 690.566 178.733 691.692C178.288 692.833 178.017 694.134 178.001 695.871L178 695.941C178.017 697.681 178.288 698.982 178.734 700.122C179.174 701.249 179.784 702.209 180.488 703.281C181.306 704.529 182.227 705.957 182.937 707.785C183.644 709.606 184.149 711.839 184.149 714.718C184.149 717.599 183.644 719.807 182.938 721.601C182.229 723.4 181.308 724.803 180.488 726.052C179.044 728.253 178 729.842 178 733.449C178 737.055 179.044 738.645 180.487 740.843L180.5 740.864C182.128 743.345 184.149 746.434 184.149 752.179C184.149 757.925 182.126 761.015 180.497 763.498L180.488 763.512C179.774 764.599 179.159 765.536 178.714 766.665C178.266 767.802 178 769.11 178 770.909C178 774.518 179.044 776.108 180.487 778.306L180.572 778.435C182.113 780.782 183.969 783.612 184.137 788.854C184.146 789.137 184.146 789.345 184.137 789.628C183.969 794.87 182.113 797.7 180.572 800.047L180.488 800.175C179.044 802.376 178 803.966 178 807.573C178 809.372 178.266 810.68 178.714 811.817C179.159 812.945 179.774 813.884 180.488 814.97L180.494 814.977C182.122 817.461 184.149 820.552 184.149 826.303C184.149 832.041 182.132 835.131 180.505 837.611L180.487 837.638C179.044 839.836 178 841.426 178 845.033C178 848.64 179.044 850.229 180.487 852.428C181.308 853.679 182.229 855.082 182.938 856.881C183.644 858.675 184.149 860.882 184.149 863.763L184.134 864.76H218V864.385V864.01H217.371Z"/>
</mask>
<path d="M217.371 864.01H184.774L184.776 863.766C184.778 860.761 184.247 858.45 183.505 856.565C182.765 854.688 181.821 853.25 180.982 851.971C179.616 849.889 178.629 848.385 178.629 845.033C178.629 841.681 179.616 840.177 180.981 838.098L180.984 838.092C182.676 835.514 184.778 832.308 184.778 826.303C184.778 820.298 182.676 817.093 180.987 814.517L180.982 814.511C180.291 813.458 179.695 812.551 179.282 811.502C178.871 810.461 178.629 809.253 178.629 807.573C178.629 804.22 179.616 802.716 180.98 800.637L181.066 800.507C182.627 798.127 184.501 795.269 184.749 790.016H184.778V788.466H184.749C184.501 783.213 182.627 780.355 181.066 777.975L180.966 777.822C179.608 775.754 178.629 774.249 178.629 770.909C178.629 769.229 178.871 768.021 179.282 766.98C179.694 765.933 180.289 765.027 180.978 763.978L180.987 763.964C182.677 761.388 184.778 758.184 184.778 752.179C184.778 746.172 182.676 742.968 180.987 740.392L180.975 740.375C179.614 738.301 178.629 736.796 178.629 733.449C178.629 730.097 179.616 728.593 180.98 726.514C181.821 725.232 182.765 723.794 183.505 721.917C184.247 720.032 184.778 717.721 184.778 714.718C184.778 711.717 184.248 709.381 183.507 707.472C182.768 705.571 181.823 704.104 180.982 702.822C180.304 701.79 179.718 700.87 179.303 699.807C178.892 698.759 178.642 697.556 178.627 695.941L178.629 695.874C178.642 694.259 178.892 693.056 179.302 692.008C179.718 690.945 180.304 690.024 180.982 688.993C181.823 687.711 182.768 686.244 183.507 684.343C184.248 682.434 184.778 680.097 184.778 677.095C184.778 671.164 182.727 667.962 181.049 665.406L180.982 665.303C179.616 663.221 178.629 661.717 178.629 658.366C178.629 655.013 179.615 653.511 180.98 651.433L180.987 651.421C182.676 648.846 184.778 645.64 184.778 639.635C184.778 633.63 182.676 630.425 180.987 627.85L180.981 627.841C179.616 625.763 178.629 624.26 178.629 620.905C178.629 620.377 178.653 619.897 178.697 619.456C178.731 619.124 178.778 618.811 178.836 618.516L178.948 617.76L178.35 617.767L178.287 618.045C178.195 618.453 178.122 618.891 178.074 619.366C178.026 619.841 178 620.351 178 620.905C178 624.513 179.044 626.104 180.488 628.301L180.505 628.327C182.132 630.808 184.149 633.898 184.149 639.635C184.149 645.387 182.122 648.478 180.493 650.962L180.486 650.973C179.043 653.17 178 654.759 178 658.366C178 661.917 179.012 663.512 180.421 665.659L180.488 665.763C182.118 668.246 184.149 671.338 184.149 677.095C184.149 679.975 183.644 682.209 182.937 684.03C182.227 685.858 181.306 687.285 180.488 688.533C179.783 689.606 179.174 690.566 178.733 691.692C178.288 692.833 178.017 694.134 178.001 695.871L178 695.941C178.017 697.681 178.288 698.982 178.734 700.122C179.174 701.249 179.784 702.209 180.488 703.281C181.306 704.529 182.227 705.957 182.937 707.785C183.644 709.606 184.149 711.839 184.149 714.718C184.149 717.599 183.644 719.807 182.938 721.601C182.229 723.4 181.308 724.803 180.488 726.052C179.044 728.253 178 729.842 178 733.449C178 737.055 179.044 738.645 180.487 740.843L180.5 740.864C182.128 743.345 184.149 746.434 184.149 752.179C184.149 757.925 182.126 761.015 180.497 763.498L180.488 763.512C179.774 764.599 179.159 765.536 178.714 766.665C178.266 767.802 178 769.11 178 770.909C178 774.518 179.044 776.108 180.487 778.306L180.572 778.435C182.113 780.782 183.969 783.612 184.137 788.854C184.146 789.137 184.146 789.345 184.137 789.628C183.969 794.87 182.113 797.7 180.572 800.047L180.488 800.175C179.044 802.376 178 803.966 178 807.573C178 809.372 178.266 810.68 178.714 811.817C179.159 812.945 179.774 813.884 180.488 814.97L180.494 814.977C182.122 817.461 184.149 820.552 184.149 826.303C184.149 832.041 182.132 835.131 180.505 837.611L180.487 837.638C179.044 839.836 178 841.426 178 845.033C178 848.64 179.044 850.229 180.487 852.428C181.308 853.679 182.229 855.082 182.938 856.881C183.644 858.675 184.149 860.882 184.149 863.763L184.134 864.76H218V864.385V864.01H217.371Z" fill="#FBA409"/>
<path d="M217.371 864.01H184.774L184.776 863.766C184.778 860.761 184.247 858.45 183.505 856.565C182.765 854.688 181.821 853.25 180.982 851.971C179.616 849.889 178.629 848.385 178.629 845.033C178.629 841.681 179.616 840.177 180.981 838.098L180.984 838.092C182.676 835.514 184.778 832.308 184.778 826.303C184.778 820.298 182.676 817.093 180.987 814.517L180.982 814.511C180.291 813.458 179.695 812.551 179.282 811.502C178.871 810.461 178.629 809.253 178.629 807.573C178.629 804.22 179.616 802.716 180.98 800.637L181.066 800.507C182.627 798.127 184.501 795.269 184.749 790.016H184.778V788.466H184.749C184.501 783.213 182.627 780.355 181.066 777.975L180.966 777.822C179.608 775.754 178.629 774.249 178.629 770.909C178.629 769.229 178.871 768.021 179.282 766.98C179.694 765.933 180.289 765.027 180.978 763.978L180.987 763.964C182.677 761.388 184.778 758.184 184.778 752.179C184.778 746.172 182.676 742.968 180.987 740.392L180.975 740.375C179.614 738.301 178.629 736.796 178.629 733.449C178.629 730.097 179.616 728.593 180.98 726.514C181.821 725.232 182.765 723.794 183.505 721.917C184.247 720.032 184.778 717.721 184.778 714.718C184.778 711.717 184.248 709.381 183.507 707.472C182.768 705.571 181.823 704.104 180.982 702.822C180.304 701.79 179.718 700.87 179.303 699.807C178.892 698.759 178.642 697.556 178.627 695.941L178.629 695.874C178.642 694.259 178.892 693.056 179.302 692.008C179.718 690.945 180.304 690.024 180.982 688.993C181.823 687.711 182.768 686.244 183.507 684.343C184.248 682.434 184.778 680.097 184.778 677.095C184.778 671.164 182.727 667.962 181.049 665.406L180.982 665.303C179.616 663.221 178.629 661.717 178.629 658.366C178.629 655.013 179.615 653.511 180.98 651.433L180.987 651.421C182.676 648.846 184.778 645.64 184.778 639.635C184.778 633.63 182.676 630.425 180.987 627.85L180.981 627.841C179.616 625.763 178.629 624.26 178.629 620.905C178.629 620.377 178.653 619.897 178.697 619.456C178.731 619.124 178.778 618.811 178.836 618.516L178.948 617.76L178.35 617.767L178.287 618.045C178.195 618.453 178.122 618.891 178.074 619.366C178.026 619.841 178 620.351 178 620.905C178 624.513 179.044 626.104 180.488 628.301L180.505 628.327C182.132 630.808 184.149 633.898 184.149 639.635C184.149 645.387 182.122 648.478 180.493 650.962L180.486 650.973C179.043 653.17 178 654.759 178 658.366C178 661.917 179.012 663.512 180.421 665.659L180.488 665.763C182.118 668.246 184.149 671.338 184.149 677.095C184.149 679.975 183.644 682.209 182.937 684.03C182.227 685.858 181.306 687.285 180.488 688.533C179.783 689.606 179.174 690.566 178.733 691.692C178.288 692.833 178.017 694.134 178.001 695.871L178 695.941C178.017 697.681 178.288 698.982 178.734 700.122C179.174 701.249 179.784 702.209 180.488 703.281C181.306 704.529 182.227 705.957 182.937 707.785C183.644 709.606 184.149 711.839 184.149 714.718C184.149 717.599 183.644 719.807 182.938 721.601C182.229 723.4 181.308 724.803 180.488 726.052C179.044 728.253 178 729.842 178 733.449C178 737.055 179.044 738.645 180.487 740.843L180.5 740.864C182.128 743.345 184.149 746.434 184.149 752.179C184.149 757.925 182.126 761.015 180.497 763.498L180.488 763.512C179.774 764.599 179.159 765.536 178.714 766.665C178.266 767.802 178 769.11 178 770.909C178 774.518 179.044 776.108 180.487 778.306L180.572 778.435C182.113 780.782 183.969 783.612 184.137 788.854C184.146 789.137 184.146 789.345 184.137 789.628C183.969 794.87 182.113 797.7 180.572 800.047L180.488 800.175C179.044 802.376 178 803.966 178 807.573C178 809.372 178.266 810.68 178.714 811.817C179.159 812.945 179.774 813.884 180.488 814.97L180.494 814.977C182.122 817.461 184.149 820.552 184.149 826.303C184.149 832.041 182.132 835.131 180.505 837.611L180.487 837.638C179.044 839.836 178 841.426 178 845.033C178 848.64 179.044 850.229 180.487 852.428C181.308 853.679 182.229 855.082 182.938 856.881C183.644 858.675 184.149 860.882 184.149 863.763L184.134 864.76H218V864.385V864.01H217.371Z" stroke="#FBA409" mask="url(#path-44-outside-2_1029_14231)"/>
</svg>
