<svg width="559" height="834" viewBox="0 0 559 834" fill="none" xmlns="http://www.w3.org/2000/svg">
<path d="M472 25.6504L558.363 2.16068" stroke="#454D7D" stroke-width="2" stroke-miterlimit="22.9256"/>
<path d="M438 94.4297H553.574" stroke="#454D7D" stroke-width="2" stroke-miterlimit="22.9256"/>
<path d="M407 275.189L554 275.189" stroke="#454D7D" stroke-width="2" stroke-miterlimit="22.9256"/>
<path d="M379 635.189L554 635.189" stroke="#454D7D" stroke-width="2" stroke-miterlimit="22.9256"/>
<path d="M324 832.189L554 832.189" stroke="#454D7D" stroke-width="2" stroke-miterlimit="22.9256"/>
<path d="M438 209.84L524.363 186.35" stroke="#454D7D" stroke-width="2" stroke-miterlimit="22.9256"/>
<path d="M406 471.84L492.363 448.35" stroke="#454D7D" stroke-width="2" stroke-miterlimit="22.9256"/>
<path d="M377 724.84L463.363 701.35" stroke="#454D7D" stroke-width="2" stroke-miterlimit="22.9256"/>
<path d="M223 662.189L97 701.189" stroke="#454D7D" stroke-width="2" stroke-miterlimit="22.9256"/>
<path d="M225.005 584.774V832.044H185.149C185.155 831.838 185.159 831.63 185.159 831.417C185.159 825.497 182.679 822.825 180.688 820.281C179.003 818.128 177.784 816.571 177.784 813.07C177.784 809.567 179.003 808.011 180.688 805.859C182.679 803.311 185.159 800.144 185.159 794.224C185.159 788.302 182.679 785.135 180.688 782.589C179.003 780.436 177.784 778.879 177.784 775.377C177.784 771.873 179.003 770.318 180.688 768.165C182.588 765.733 184.933 762.828 185.143 757.334H185.159V756.53H185.143C184.933 751.035 182.588 748.13 180.688 745.699C179.003 743.546 177.784 741.989 177.784 738.486C177.784 734.984 179.003 733.427 180.688 731.275C182.679 728.728 185.159 725.562 185.159 719.64C185.159 713.719 182.679 710.551 180.688 708.006C179.003 705.851 177.784 704.295 177.784 700.794C177.784 697.292 179.003 695.737 180.688 693.583C182.679 691.039 185.159 687.87 185.159 681.948C185.159 676.03 182.679 672.754 180.688 670.209C179.029 668.09 177.821 666.431 177.784 663.055V662.987C177.821 659.61 179.029 657.95 180.688 655.831C182.679 653.286 185.159 650.012 185.159 644.092C185.159 638.172 182.679 635.002 180.688 632.458C179.003 630.303 177.784 628.749 177.784 625.246C177.784 621.744 179.003 620.188 180.688 618.035C182.679 615.489 185.159 612.322 185.159 606.4C185.159 600.479 182.679 597.312 180.688 594.765C179.003 592.613 177.784 591.058 177.784 587.554C177.784 586.464 177.902 585.563 178.115 584.774H225.005Z" stroke="#FBA409" stroke-width="1.3" stroke-miterlimit="22.9256"/>
<path fill-rule="evenodd" clip-rule="evenodd" d="M237.099 584.775V832.572H225.178V584.775H237.099Z" fill="#E3000F"/>
<path d="M237.099 584.775V832.572H225.178V584.775H237.099Z" stroke="#757EB3" stroke-miterlimit="22.9256"/>
<path fill-rule="evenodd" clip-rule="evenodd" d="M213.086 584.775H225.007V598.475H213.086V584.775Z" fill="#272953"/>
<path d="M213.086 584.775H225.007V598.475H213.086V584.775Z" stroke="#757EB3" stroke-miterlimit="22.9256"/>
<path fill-rule="evenodd" clip-rule="evenodd" d="M194.552 584.775H213.085V598.475H194.552V584.775Z" fill="#E6E6E6"/>
<path fill-rule="evenodd" clip-rule="evenodd" d="M194.552 584.775H213.085V598.475H194.552V584.775Z" fill="white"/>
<path d="M194.552 584.775H213.085V598.475H194.552V584.775Z" stroke="#757EB3" stroke-miterlimit="22.9256"/>
<path d="M194.552 584.775L213.085 598.475" stroke="#757EB3" stroke-miterlimit="22.9256"/>
<path d="M194.552 598.475L213.085 584.775" stroke="#757EB3" stroke-miterlimit="22.9256"/>
<path fill-rule="evenodd" clip-rule="evenodd" d="M223.289 816.974V830.673H211.366L223.289 816.974Z" fill="#272953"/>
<path fill-rule="evenodd" clip-rule="evenodd" d="M183.878 570.228H193.932V17.1946H183.878V570.228Z" fill="#FFEC08"/>
<path d="M183.878 570.228H193.932V17.1946H183.878V570.228Z" stroke="#757EB3" stroke-miterlimit="22.9256"/>
<path fill-rule="evenodd" clip-rule="evenodd" d="M183.878 570.223H193.932V634.261H183.878V570.223Z" fill="#00963F"/>
<path d="M183.878 570.223H193.932V634.261H183.878V570.223Z" stroke="#757EB3" stroke-miterlimit="22.9256"/>
<path fill-rule="evenodd" clip-rule="evenodd" d="M183.859 17.1899V100.109V103.283V182.756V262.765V471.605V474.779V634.261H157.049C158.352 632.024 159.586 629.153 159.586 624.468V624.449C159.586 618.515 157.606 615.491 156.015 612.98C154.671 610.859 153.698 609.325 153.698 605.872C153.698 602.417 154.671 600.884 156.015 598.761C157.606 596.25 159.586 593.129 159.586 587.292C159.586 581.456 157.606 578.334 156.015 575.823C154.671 573.699 153.698 572.168 153.698 568.714C153.698 565.262 154.671 563.728 156.015 561.605C157.606 559.098 159.586 555.972 159.586 550.138C159.586 544.302 157.606 541.074 156.015 538.565C154.691 536.477 153.728 534.841 153.698 531.511V531.446C153.728 528.117 154.691 526.48 156.015 524.392C157.606 521.882 159.586 518.656 159.586 512.82C159.586 506.984 157.606 503.859 156.015 501.352C154.671 499.229 153.698 497.695 153.698 494.243C153.698 490.79 154.671 489.257 156.015 487.134C161.261 478.855 160.504 474.947 156.015 467.862C154.671 465.74 153.698 464.205 153.698 460.754C153.698 457.301 154.671 455.768 156.015 453.645C157.606 451.137 159.586 448.012 159.586 442.176C159.586 436.343 157.606 433.113 156.015 430.604C154.691 428.517 153.728 426.88 153.698 423.551V423.485C153.728 420.157 154.691 418.52 156.015 416.432C157.606 413.923 159.586 410.693 159.586 404.859C159.586 399.023 157.606 395.9 156.015 393.39C154.671 391.268 153.698 389.733 153.698 386.282C153.698 382.829 154.671 381.297 156.015 379.174C157.606 376.663 159.586 373.541 159.586 367.705C159.586 361.869 157.606 358.746 156.015 356.235C154.671 354.112 153.698 352.58 153.698 349.125C153.698 345.671 154.671 344.138 156.015 342.017C157.606 339.504 159.586 336.482 159.586 330.547V330.528C159.586 324.593 157.606 321.572 156.015 319.061C154.671 316.94 153.698 315.404 153.698 311.951C153.698 308.495 154.671 306.965 156.015 304.841C157.606 302.331 159.586 299.21 159.586 293.372C159.586 287.534 157.606 284.414 156.015 281.903C154.671 279.779 153.698 278.247 153.698 274.794C153.698 271.341 154.671 269.808 156.015 267.685C156.873 266.334 157.842 264.803 158.555 262.765H157.049C158.193 260.801 159.284 258.347 159.532 254.604C159.208 249.768 157.453 246.912 156.015 244.645C154.691 242.557 153.728 240.92 153.698 237.591V237.526C153.703 236.983 153.732 236.486 153.784 236.026C153.727 235.525 153.698 234.979 153.698 234.375C153.698 230.919 154.671 229.388 156.015 227.265C157.459 224.986 159.222 222.206 159.536 217.349C159.222 212.491 157.459 209.707 156.015 207.431C154.671 205.308 153.698 203.775 153.698 200.323C153.698 199.757 153.724 199.245 153.774 198.771C153.724 198.297 153.698 197.783 153.698 197.217C153.698 193.767 154.671 192.231 156.015 190.109C157.209 188.226 158.622 185.999 159.252 182.536L159.222 177.685C159.37 178.454 159.479 179.287 159.537 180.191C159.569 179.697 159.586 179.181 159.586 178.641C159.586 172.805 157.606 169.578 156.015 167.069C154.691 164.982 153.728 163.345 153.698 160.015V159.949C153.728 156.62 154.691 154.984 156.015 152.896C157.606 150.387 159.586 147.159 159.586 141.324C159.586 135.488 157.606 132.363 156.015 129.855C154.671 127.733 153.698 126.199 153.698 122.746C153.698 119.295 154.671 117.76 156.015 115.637C161.261 107.359 160.504 103.45 156.015 96.3661C154.671 94.2445 153.698 92.7088 153.698 89.2572C153.698 85.8045 154.671 84.2723 156.015 82.149C157.606 79.6411 159.586 76.5156 159.586 70.6794C159.586 64.8461 157.606 61.6171 156.015 59.1077C154.691 57.0203 153.728 55.3834 153.698 52.055V51.9892C153.728 48.6606 154.691 47.0243 156.015 44.9357C157.606 42.4257 159.586 39.1982 159.586 33.363C159.586 27.5269 157.606 24.4036 156.015 21.8943C155.03 20.3403 154.245 19.0992 153.895 17.1899H183.859Z" fill="#CCCCCC"/>
<path d="M183.859 17.1899V100.109V103.283V182.756V262.765V471.605V474.779V634.261H157.049C158.352 632.024 159.586 629.153 159.586 624.468V624.449C159.586 618.515 157.606 615.491 156.015 612.98C154.671 610.859 153.698 609.325 153.698 605.872C153.698 602.417 154.671 600.884 156.015 598.761C157.606 596.25 159.586 593.129 159.586 587.292C159.586 581.456 157.606 578.334 156.015 575.823C154.671 573.699 153.698 572.168 153.698 568.714C153.698 565.262 154.671 563.728 156.015 561.605C157.606 559.098 159.586 555.972 159.586 550.138C159.586 544.302 157.606 541.074 156.015 538.565C154.691 536.477 153.728 534.841 153.698 531.511V531.446C153.728 528.117 154.691 526.48 156.015 524.392C157.606 521.882 159.586 518.656 159.586 512.82C159.586 506.984 157.606 503.859 156.015 501.352C154.671 499.229 153.698 497.695 153.698 494.243C153.698 490.79 154.671 489.257 156.015 487.134C161.261 478.855 160.504 474.947 156.015 467.862C154.671 465.74 153.698 464.205 153.698 460.754C153.698 457.302 154.671 455.768 156.015 453.645C157.606 451.137 159.586 448.012 159.586 442.176C159.586 436.343 157.606 433.113 156.015 430.604C154.691 428.517 153.728 426.88 153.698 423.551V423.485C153.728 420.157 154.691 418.52 156.015 416.432C157.606 413.923 159.586 410.693 159.586 404.859C159.586 399.023 157.606 395.9 156.015 393.39C154.671 391.268 153.698 389.733 153.698 386.282C153.698 382.829 154.671 381.297 156.015 379.174C157.606 376.663 159.586 373.541 159.586 367.705C159.586 361.869 157.606 358.746 156.015 356.235C154.671 354.112 153.698 352.58 153.698 349.125C153.698 345.671 154.671 344.138 156.015 342.017C157.606 339.504 159.586 336.482 159.586 330.547V330.528C159.586 324.593 157.606 321.572 156.015 319.061C154.671 316.94 153.698 315.404 153.698 311.951C153.698 308.495 154.671 306.965 156.015 304.841C157.606 302.331 159.586 299.21 159.586 293.372C159.586 287.534 157.606 284.414 156.015 281.903C154.671 279.779 153.698 278.247 153.698 274.794C153.698 271.341 154.671 269.808 156.015 267.685C156.873 266.334 157.842 264.803 158.555 262.765H157.049C158.193 260.801 159.284 258.347 159.532 254.604C159.208 249.768 157.453 246.912 156.015 244.645C154.691 242.557 153.728 240.92 153.698 237.591V237.526C153.703 236.983 153.732 236.486 153.784 236.026C153.727 235.525 153.698 234.979 153.698 234.375C153.698 230.919 154.671 229.388 156.015 227.265C157.459 224.986 159.222 222.206 159.536 217.349C159.222 212.491 157.459 209.707 156.015 207.431C154.671 205.308 153.698 203.775 153.698 200.323C153.698 199.757 153.724 199.245 153.774 198.771C153.724 198.297 153.698 197.783 153.698 197.217C153.698 193.767 154.671 192.231 156.015 190.109C157.209 188.226 158.622 185.999 159.252 182.536L159.222 177.685C159.37 178.454 159.479 179.287 159.537 180.191C159.569 179.697 159.586 179.181 159.586 178.641C159.586 172.805 157.606 169.578 156.015 167.069C154.691 164.982 153.728 163.345 153.698 160.015V159.949C153.728 156.62 154.691 154.984 156.015 152.896C157.606 150.387 159.586 147.159 159.586 141.324C159.586 135.488 157.606 132.363 156.015 129.855C154.671 127.733 153.698 126.199 153.698 122.746C153.698 119.295 154.671 117.76 156.015 115.637C161.261 107.359 160.504 103.45 156.015 96.3662C154.671 94.2445 153.698 92.7088 153.698 89.2572C153.698 85.8045 154.671 84.2723 156.015 82.1491C157.606 79.641 159.586 76.5156 159.586 70.6795C159.586 64.846 157.606 61.6172 156.015 59.1077C154.691 57.0203 153.728 55.3834 153.698 52.055V51.9892C153.728 48.6606 154.691 47.0243 156.015 44.9356C157.606 42.4256 159.586 39.1982 159.586 33.363C159.586 27.5269 157.606 24.4035 156.015 21.8943C155.03 20.3403 154.245 19.0992 153.895 17.1899H183.859Z" stroke="#757EB3" stroke-miterlimit="22.9256"/>
<path fill-rule="evenodd" clip-rule="evenodd" d="M149.651 17.1922V273.825H124.912C124.231 271.138 122.923 269.345 121.807 267.814C120.463 265.969 119.49 264.637 119.49 261.637C119.49 258.637 120.463 257.304 121.807 255.459C123.398 253.279 125.377 250.563 125.377 245.491C125.377 240.421 123.398 237.616 121.807 235.435C120.483 233.621 119.52 232.199 119.49 229.305V229.248C119.52 226.356 120.483 224.934 121.807 223.119C123.398 220.937 125.377 218.132 125.377 213.061C125.377 207.991 123.398 205.275 121.807 203.095C120.463 201.251 119.49 199.917 119.49 196.918C119.49 193.916 120.463 192.585 121.807 190.74C123.398 188.559 125.377 185.845 125.377 180.773C125.377 175.7 123.398 172.988 121.807 170.806C120.463 168.961 119.49 167.628 119.49 164.627C119.49 161.625 120.463 160.293 121.807 158.449C123.398 156.266 125.377 153.639 125.377 148.482V148.466C125.377 143.308 123.398 140.682 121.807 138.499C120.463 136.655 119.49 135.323 119.49 132.321C119.49 129.318 120.463 127.987 121.807 126.141C123.398 123.96 125.377 121.248 125.377 116.175C125.377 111.102 123.398 108.389 121.807 106.208C120.463 104.362 119.49 103.031 119.49 100.03C119.49 97.03 120.463 95.6966 121.807 93.8522C121.934 93.6782 122.064 93.5002 122.195 93.3179L118.786 17.1922H149.651Z" fill="#CCCCCC"/>
<path d="M149.651 17.1922V273.825H124.912C124.231 271.138 122.923 269.345 121.807 267.814C120.463 265.969 119.49 264.637 119.49 261.637C119.49 258.637 120.463 257.304 121.807 255.459C123.398 253.279 125.377 250.563 125.377 245.491C125.377 240.421 123.398 237.616 121.807 235.435C120.483 233.621 119.52 232.199 119.49 229.305V229.248C119.52 226.356 120.483 224.934 121.807 223.119C123.398 220.937 125.377 218.132 125.377 213.061C125.377 207.991 123.398 205.275 121.807 203.095C120.463 201.251 119.49 199.917 119.49 196.918C119.49 193.916 120.463 192.585 121.807 190.74C123.398 188.559 125.377 185.845 125.377 180.773C125.377 175.7 123.398 172.988 121.807 170.806C120.463 168.961 119.49 167.628 119.49 164.627C119.49 161.625 120.463 160.293 121.807 158.449C123.398 156.266 125.377 153.639 125.377 148.482V148.466C125.377 143.308 123.398 140.682 121.807 138.499C120.463 136.655 119.49 135.323 119.49 132.321C119.49 129.318 120.463 127.987 121.807 126.141C123.398 123.96 125.377 121.248 125.377 116.175C125.377 111.102 123.398 108.389 121.807 106.208C120.463 104.362 119.49 103.031 119.49 100.03C119.49 97.03 120.463 95.6966 121.807 93.8522C121.934 93.6782 122.064 93.5002 122.195 93.3179L118.786 17.1922H149.651Z" stroke="#757EB3" stroke-miterlimit="22.9256"/>
<path fill-rule="evenodd" clip-rule="evenodd" d="M149.702 93.1729H159.756V17.1934H149.702V93.1729Z" fill="#00963F"/>
<path d="M149.702 93.1729H159.756V17.1934H149.702V93.1729Z" stroke="#757EB3" stroke-miterlimit="22.9256"/>
<path fill-rule="evenodd" clip-rule="evenodd" d="M149.702 247.425H159.756V273.825H149.702V247.425Z" fill="#E3000F"/>
<path d="M149.702 247.425H159.756V273.825H149.702V247.425Z" stroke="#757EB3" stroke-miterlimit="22.9256"/>
<path fill-rule="evenodd" clip-rule="evenodd" d="M149.702 247.422H159.756V92.0991H149.702V247.422Z" fill="#FFEC08"/>
<path d="M149.702 247.422H159.756V92.0991H149.702V247.422Z" stroke="#757EB3" stroke-miterlimit="22.9256"/>
<path fill-rule="evenodd" clip-rule="evenodd" d="M112.161 17.1934V93.1729H84.8095C86.2883 91.0998 87.8875 88.4458 87.8875 83.887C87.8875 78.8165 85.9079 76.0111 84.3169 73.8306C82.9929 72.0166 82.0296 70.5934 82 67.7V67.6438C82.0296 64.7497 82.9929 63.3276 84.3169 61.5132C85.9079 59.3322 87.8875 56.5275 87.8875 51.4576C87.8875 46.3855 85.9079 43.6705 84.3169 41.4895C82.9727 39.6452 82 38.3127 82 35.3122C82 32.3123 82.9727 30.9787 84.3169 29.135C85.9079 26.9521 87.8875 24.2394 87.8875 19.1677C87.8875 18.4654 87.8497 17.8099 87.7804 17.1934H112.161Z" fill="#CCCCCC"/>
<path d="M112.161 17.1934V93.1729H84.8095C86.2883 91.0998 87.8875 88.4458 87.8875 83.887C87.8875 78.8165 85.9079 76.0111 84.3169 73.8306C82.9929 72.0166 82.0296 70.5934 82 67.7V67.6438C82.0296 64.7497 82.9929 63.3276 84.3169 61.5132C85.9079 59.3322 87.8875 56.5275 87.8875 51.4576C87.8875 46.3855 85.9079 43.6705 84.3169 41.4895C82.9727 39.6452 82 38.3127 82 35.3122C82 32.3123 82.9727 30.9787 84.3169 29.135C85.9079 26.9521 87.8875 24.2394 87.8875 19.1677C87.8875 18.4654 87.8497 17.8099 87.7804 17.1934H112.161Z" stroke="#757EB3" stroke-miterlimit="22.9256"/>
<path fill-rule="evenodd" clip-rule="evenodd" d="M112.683 93.1729H122.736V17.1934H112.683V93.1729Z" fill="#E3000F"/>
<path d="M112.683 93.1729H122.736V17.1934H112.683V93.1729Z" stroke="#757EB3" stroke-miterlimit="22.9256"/>
<path d="M335.994 584.774V832.044H375.851C375.844 831.838 375.84 831.63 375.84 831.417C375.84 825.497 378.32 822.825 380.312 820.281C381.997 818.128 383.215 816.571 383.215 813.07C383.215 809.567 381.997 808.011 380.312 805.859C378.32 803.311 375.84 800.144 375.84 794.224C375.84 788.302 378.32 785.135 380.312 782.589C381.997 780.436 383.215 778.879 383.215 775.377C383.215 771.873 381.997 770.318 380.312 768.165C378.411 765.733 376.066 762.828 375.856 757.334H375.84V756.53H375.856C376.066 751.035 378.411 748.13 380.312 745.699C381.997 743.546 383.215 741.989 383.215 738.486C383.215 734.984 381.997 733.427 380.312 731.275C378.32 728.728 375.84 725.562 375.84 719.64C375.84 713.719 378.32 710.551 380.312 708.006C381.997 705.851 383.215 704.295 383.215 700.794C383.215 697.292 381.997 695.737 380.312 693.583C378.32 691.039 375.84 687.87 375.84 681.948C375.84 676.03 378.32 672.754 380.312 670.209C381.97 668.09 383.178 666.431 383.215 663.055V662.987C383.178 659.61 381.97 657.95 380.312 655.831C378.32 653.286 375.84 650.012 375.84 644.092C375.84 638.172 378.32 635.002 380.312 632.458C381.997 630.303 383.215 628.749 383.215 625.246C383.215 621.744 381.997 620.188 380.312 618.035C378.32 615.489 375.84 612.322 375.84 606.4C375.84 600.479 378.32 597.312 380.312 594.765C381.997 592.613 383.215 591.058 383.215 587.554C383.215 586.464 383.097 585.563 382.884 584.774H335.994Z" stroke="#FBA409" stroke-width="1.3" stroke-miterlimit="22.9256"/>
<path fill-rule="evenodd" clip-rule="evenodd" d="M323.9 584.775V832.572H335.822V584.775H323.9Z" fill="#E3000F"/>
<path d="M323.9 584.775V832.572H335.822V584.775H323.9Z" stroke="#757EB3" stroke-miterlimit="22.9256"/>
<path fill-rule="evenodd" clip-rule="evenodd" d="M347.915 584.775H335.994V598.475H347.915V584.775Z" fill="#272953"/>
<path d="M347.915 584.775H335.994V598.475H347.915V584.775Z" stroke="#757EB3" stroke-miterlimit="22.9256"/>
<path fill-rule="evenodd" clip-rule="evenodd" d="M366.445 584.775H347.912V598.475H366.445V584.775Z" fill="#E6E6E6"/>
<path fill-rule="evenodd" clip-rule="evenodd" d="M366.445 584.775H347.912V598.475H366.445V584.775Z" fill="white"/>
<path d="M366.445 584.775H347.912V598.475H366.445V584.775Z" stroke="#757EB3" stroke-miterlimit="22.9256"/>
<path d="M366.445 584.775L347.912 598.475" stroke="#757EB3" stroke-miterlimit="22.9256"/>
<path d="M366.445 598.475L347.912 584.775" stroke="#757EB3" stroke-miterlimit="22.9256"/>
<path fill-rule="evenodd" clip-rule="evenodd" d="M337.273 816.974V830.673H349.196L337.273 816.974Z" fill="#272953"/>
<path fill-rule="evenodd" clip-rule="evenodd" d="M377.12 570.228H367.066V17.1946H377.12V570.228Z" fill="#FFEC08"/>
<path d="M377.12 570.228H367.066V17.1946H377.12V570.228Z" stroke="#757EB3" stroke-miterlimit="22.9256"/>
<path fill-rule="evenodd" clip-rule="evenodd" d="M377.12 570.223H367.066V634.261H377.12V570.223Z" fill="#00963F"/>
<path d="M377.12 570.223H367.066V634.261H377.12V570.223Z" stroke="#757EB3" stroke-miterlimit="22.9256"/>
<path fill-rule="evenodd" clip-rule="evenodd" d="M377.139 17.1899V100.109V103.283V182.756V262.765V471.605V474.779V634.261H403.949C402.646 632.024 401.412 629.153 401.412 624.468V624.449C401.412 618.515 403.392 615.491 404.983 612.98C406.327 610.859 407.3 609.325 407.3 605.872C407.3 602.417 406.327 600.884 404.983 598.761C403.392 596.25 401.412 593.129 401.412 587.292C401.412 581.456 403.392 578.334 404.983 575.823C406.327 573.699 407.3 572.168 407.3 568.714C407.3 565.262 406.327 563.728 404.983 561.605C403.392 559.098 401.412 555.972 401.412 550.138C401.412 544.302 403.392 541.074 404.983 538.565C406.307 536.477 407.27 534.841 407.3 531.511V531.446C407.27 528.117 406.307 526.48 404.983 524.392C403.392 521.882 401.412 518.656 401.412 512.82C401.412 506.984 403.392 503.859 404.983 501.352C406.327 499.229 407.3 497.695 407.3 494.243C407.3 490.79 406.327 489.257 404.983 487.134C399.737 478.855 400.494 474.947 404.983 467.862C406.327 465.74 407.3 464.205 407.3 460.754C407.3 457.301 406.327 455.768 404.983 453.645C403.392 451.137 401.412 448.012 401.412 442.176C401.412 436.343 403.392 433.113 404.983 430.604C406.307 428.517 407.27 426.88 407.3 423.551V423.485C407.27 420.157 406.307 418.52 404.983 416.432C403.392 413.923 401.412 410.693 401.412 404.859C401.412 399.023 403.392 395.9 404.983 393.39C406.327 391.268 407.3 389.733 407.3 386.282C407.3 382.829 406.327 381.297 404.983 379.174C403.392 376.663 401.412 373.541 401.412 367.705C401.412 361.869 403.392 358.746 404.983 356.235C406.327 354.112 407.3 352.58 407.3 349.125C407.3 345.671 406.327 344.138 404.983 342.017C403.392 339.504 401.412 336.482 401.412 330.547V330.528C401.412 324.593 403.392 321.572 404.983 319.061C406.327 316.94 407.3 315.404 407.3 311.951C407.3 308.495 406.327 306.965 404.983 304.841C403.392 302.331 401.412 299.21 401.412 293.372C401.412 287.534 403.392 284.414 404.983 281.903C406.327 279.779 407.3 278.247 407.3 274.794C407.3 271.341 406.327 269.808 404.983 267.685C404.125 266.334 403.155 264.803 402.443 262.765H403.949C402.805 260.801 401.714 258.347 401.465 254.604C401.79 249.768 403.545 246.912 404.983 244.645C406.307 242.557 407.27 240.92 407.3 237.591V237.526C407.295 236.983 407.265 236.486 407.214 236.026C407.271 235.525 407.3 234.979 407.3 234.375C407.3 230.919 406.327 229.388 404.983 227.265C403.539 224.986 401.776 222.206 401.461 217.349C401.776 212.491 403.539 209.707 404.983 207.431C406.327 205.308 407.3 203.775 407.3 200.323C407.3 199.757 407.273 199.245 407.224 198.771C407.273 198.297 407.3 197.783 407.3 197.217C407.3 193.767 406.327 192.231 404.983 190.109C403.789 188.226 402.376 185.999 401.745 182.536L401.776 177.685C401.628 178.454 401.519 179.287 401.461 180.191C401.429 179.697 401.412 179.181 401.412 178.641C401.412 172.805 403.392 169.578 404.983 167.069C406.307 164.982 407.27 163.345 407.3 160.015V159.949C407.27 156.62 406.307 154.984 404.983 152.896C403.392 150.387 401.412 147.159 401.412 141.324C401.412 135.488 403.392 132.363 404.983 129.855C406.327 127.733 407.3 126.199 407.3 122.746C407.3 119.295 406.327 117.76 404.983 115.637C399.737 107.359 400.494 103.45 404.983 96.3661C406.327 94.2445 407.3 92.7088 407.3 89.2572C407.3 85.8045 406.327 84.2723 404.983 82.149C403.392 79.6411 401.412 76.5156 401.412 70.6794C401.412 64.8461 403.392 61.6171 404.983 59.1077C406.307 57.0203 407.27 55.3834 407.3 52.055V51.9892C407.27 48.6606 406.307 47.0243 404.983 44.9357C403.392 42.4257 401.412 39.1982 401.412 33.363C401.412 27.5269 403.392 24.4036 404.983 21.8943C405.968 20.3403 406.753 19.0992 407.103 17.1899H377.139Z" fill="#CCCCCC"/>
<path d="M377.139 17.1899V100.109V103.283V182.756V262.765V471.605V474.779V634.261H403.949C402.646 632.024 401.412 629.153 401.412 624.468V624.449C401.412 618.515 403.392 615.491 404.983 612.98C406.327 610.859 407.3 609.325 407.3 605.872C407.3 602.417 406.327 600.884 404.983 598.761C403.392 596.25 401.412 593.129 401.412 587.292C401.412 581.456 403.392 578.334 404.983 575.823C406.327 573.699 407.3 572.168 407.3 568.714C407.3 565.262 406.327 563.728 404.983 561.605C403.392 559.098 401.412 555.972 401.412 550.138C401.412 544.302 403.392 541.074 404.983 538.565C406.307 536.477 407.27 534.841 407.3 531.511V531.446C407.27 528.117 406.307 526.48 404.983 524.392C403.392 521.882 401.412 518.656 401.412 512.82C401.412 506.984 403.392 503.859 404.983 501.352C406.327 499.229 407.3 497.695 407.3 494.243C407.3 490.79 406.327 489.257 404.983 487.134C399.737 478.855 400.494 474.947 404.983 467.862C406.327 465.74 407.3 464.205 407.3 460.754C407.3 457.302 406.327 455.768 404.983 453.645C403.392 451.137 401.412 448.012 401.412 442.176C401.412 436.343 403.392 433.113 404.983 430.604C406.307 428.517 407.27 426.88 407.3 423.551V423.485C407.27 420.157 406.307 418.52 404.983 416.432C403.392 413.923 401.412 410.693 401.412 404.859C401.412 399.023 403.392 395.9 404.983 393.39C406.327 391.268 407.3 389.733 407.3 386.282C407.3 382.829 406.327 381.297 404.983 379.174C403.392 376.663 401.412 373.541 401.412 367.705C401.412 361.869 403.392 358.746 404.983 356.235C406.327 354.112 407.3 352.58 407.3 349.125C407.3 345.671 406.327 344.138 404.983 342.017C403.392 339.504 401.412 336.482 401.412 330.547V330.528C401.412 324.593 403.392 321.572 404.983 319.061C406.327 316.94 407.3 315.404 407.3 311.951C407.3 308.495 406.327 306.965 404.983 304.841C403.392 302.331 401.412 299.21 401.412 293.372C401.412 287.534 403.392 284.414 404.983 281.903C406.327 279.779 407.3 278.247 407.3 274.794C407.3 271.341 406.327 269.808 404.983 267.685C404.125 266.334 403.155 264.803 402.443 262.765H403.949C402.805 260.801 401.714 258.347 401.465 254.604C401.79 249.768 403.545 246.912 404.983 244.645C406.307 242.557 407.27 240.92 407.3 237.591V237.526C407.295 236.983 407.265 236.486 407.214 236.026C407.271 235.525 407.3 234.979 407.3 234.375C407.3 230.919 406.327 229.388 404.983 227.265C403.539 224.986 401.776 222.206 401.461 217.349C401.776 212.491 403.539 209.707 404.983 207.431C406.327 205.308 407.3 203.775 407.3 200.323C407.3 199.757 407.273 199.245 407.224 198.771C407.273 198.297 407.3 197.783 407.3 197.217C407.3 193.767 406.327 192.231 404.983 190.109C403.789 188.226 402.376 185.999 401.745 182.536L401.776 177.685C401.628 178.454 401.519 179.287 401.461 180.191C401.429 179.697 401.412 179.181 401.412 178.641C401.412 172.805 403.392 169.578 404.983 167.069C406.307 164.982 407.27 163.345 407.3 160.015V159.949C407.27 156.62 406.307 154.984 404.983 152.896C403.392 150.387 401.412 147.159 401.412 141.324C401.412 135.488 403.392 132.363 404.983 129.855C406.327 127.733 407.3 126.199 407.3 122.746C407.3 119.295 406.327 117.76 404.983 115.637C399.737 107.359 400.494 103.45 404.983 96.3662C406.327 94.2445 407.3 92.7088 407.3 89.2572C407.3 85.8045 406.327 84.2723 404.983 82.1491C403.392 79.641 401.412 76.5156 401.412 70.6795C401.412 64.846 403.392 61.6172 404.983 59.1077C406.307 57.0203 407.27 55.3834 407.3 52.055V51.9892C407.27 48.6606 406.307 47.0243 404.983 44.9356C403.392 42.4256 401.412 39.1982 401.412 33.363C401.412 27.5269 403.392 24.4035 404.983 21.8943C405.968 20.3403 406.753 19.0992 407.103 17.1899H377.139Z" stroke="#757EB3" stroke-miterlimit="22.9256"/>
<path fill-rule="evenodd" clip-rule="evenodd" d="M411.348 17.1922V273.825H436.087C436.767 271.138 438.075 269.345 439.192 267.814C440.536 265.969 441.509 264.637 441.509 261.637C441.509 258.637 440.536 257.304 439.192 255.459C437.601 253.279 435.621 250.563 435.621 245.491C435.621 240.421 437.601 237.616 439.192 235.435C440.516 233.621 441.479 232.199 441.509 229.305V229.248C441.479 226.356 440.516 224.934 439.192 223.119C437.601 220.937 435.621 218.132 435.621 213.061C435.621 207.991 437.601 205.275 439.192 203.095C440.536 201.251 441.509 199.917 441.509 196.918C441.509 193.916 440.536 192.585 439.192 190.74C437.601 188.559 435.621 185.845 435.621 180.773C435.621 175.7 437.601 172.988 439.192 170.806C440.536 168.961 441.509 167.628 441.509 164.627C441.509 161.625 440.536 160.293 439.192 158.449C437.601 156.266 435.621 153.639 435.621 148.482V148.466C435.621 143.308 437.601 140.682 439.192 138.499C440.536 136.655 441.509 135.323 441.509 132.321C441.509 129.318 440.536 127.987 439.192 126.141C437.601 123.96 435.621 121.248 435.621 116.175C435.621 111.102 437.601 108.389 439.192 106.208C440.536 104.362 441.509 103.031 441.509 100.03C441.509 97.03 440.536 95.6966 439.192 93.8522C439.065 93.6782 438.934 93.5002 438.804 93.3179L442.212 17.1922H411.348Z" fill="#CCCCCC"/>
<path d="M411.348 17.1922V273.825H436.087C436.767 271.138 438.075 269.345 439.192 267.814C440.536 265.969 441.509 264.637 441.509 261.637C441.509 258.637 440.536 257.304 439.192 255.459C437.601 253.279 435.621 250.563 435.621 245.491C435.621 240.421 437.601 237.616 439.192 235.435C440.516 233.621 441.479 232.199 441.509 229.305V229.248C441.479 226.356 440.516 224.934 439.192 223.119C437.601 220.937 435.621 218.132 435.621 213.061C435.621 207.991 437.601 205.275 439.192 203.095C440.536 201.251 441.509 199.917 441.509 196.918C441.509 193.916 440.536 192.585 439.192 190.74C437.601 188.559 435.621 185.845 435.621 180.773C435.621 175.7 437.601 172.988 439.192 170.806C440.536 168.961 441.509 167.628 441.509 164.627C441.509 161.625 440.536 160.293 439.192 158.449C437.601 156.266 435.621 153.639 435.621 148.482V148.466C435.621 143.308 437.601 140.682 439.192 138.499C440.536 136.655 441.509 135.323 441.509 132.321C441.509 129.318 440.536 127.987 439.192 126.141C437.601 123.96 435.621 121.248 435.621 116.175C435.621 111.102 437.601 108.389 439.192 106.208C440.536 104.362 441.509 103.031 441.509 100.03C441.509 97.03 440.536 95.6966 439.192 93.8522C439.065 93.6782 438.934 93.5002 438.804 93.3179L442.212 17.1922H411.348Z" stroke="#757EB3" stroke-miterlimit="22.9256"/>
<path fill-rule="evenodd" clip-rule="evenodd" d="M411.298 93.1729H401.244V17.1934H411.298V93.1729Z" fill="#00963F"/>
<path d="M411.298 93.1729H401.244V17.1934H411.298V93.1729Z" stroke="#757EB3" stroke-miterlimit="22.9256"/>
<path fill-rule="evenodd" clip-rule="evenodd" d="M411.298 247.425H401.244V273.825H411.298V247.425Z" fill="#E3000F"/>
<path d="M411.298 247.425H401.244V273.825H411.298V247.425Z" stroke="#757EB3" stroke-miterlimit="22.9256"/>
<path fill-rule="evenodd" clip-rule="evenodd" d="M411.298 247.422H401.244V92.0991H411.298V247.422Z" fill="#FFEC08"/>
<path d="M411.298 247.422H401.244V92.0991H411.298V247.422Z" stroke="#757EB3" stroke-miterlimit="22.9256"/>
<path fill-rule="evenodd" clip-rule="evenodd" d="M448.84 17.1934V93.1729H476.191C474.712 91.0998 473.113 88.4458 473.113 83.887C473.113 78.8165 475.093 76.0111 476.684 73.8306C478.008 72.0166 478.971 70.5934 479.001 67.7V67.6438C478.971 64.7497 478.008 63.3276 476.684 61.5132C475.093 59.3322 473.113 56.5275 473.113 51.4576C473.113 46.3855 475.093 43.6705 476.684 41.4895C478.028 39.6452 479.001 38.3127 479.001 35.3122C479.001 32.3123 478.028 30.9787 476.684 29.135C475.093 26.9521 473.113 24.2394 473.113 19.1677C473.113 18.4654 473.151 17.8099 473.221 17.1934H448.84Z" fill="#CCCCCC"/>
<path d="M448.84 17.1934V93.1729H476.191C474.712 91.0998 473.113 88.4458 473.113 83.887C473.113 78.8165 475.093 76.0111 476.684 73.8306C478.008 72.0166 478.971 70.5934 479.001 67.7V67.6438C478.971 64.7497 478.008 63.3276 476.684 61.5132C475.093 59.3322 473.113 56.5275 473.113 51.4576C473.113 46.3855 475.093 43.6705 476.684 41.4895C478.028 39.6452 479.001 38.3127 479.001 35.3122C479.001 32.3123 478.028 30.9787 476.684 29.135C475.093 26.9521 473.113 24.2394 473.113 19.1677C473.113 18.4654 473.151 17.8099 473.221 17.1934H448.84Z" stroke="#757EB3" stroke-miterlimit="22.9256"/>
<path fill-rule="evenodd" clip-rule="evenodd" d="M448.317 93.1729H438.264V17.1934H448.317V93.1729Z" fill="#E3000F"/>
<path d="M448.317 93.1729H438.264V17.1934H448.317V93.1729Z" stroke="#757EB3" stroke-miterlimit="22.9256"/>
<path d="M184 505.189L69 470.189" stroke="#454D7D" stroke-width="2" stroke-miterlimit="22.9256"/>
<path d="M150 247.189L35 212.189" stroke="#454D7D" stroke-width="2" stroke-miterlimit="22.9256"/>
<path d="M116 36.1895L0.999998 1.18946" stroke="#454D7D" stroke-width="2" stroke-miterlimit="22.9256"/>
</svg>
