<svg width="526" height="717" viewBox="0 0 526 717" fill="none" xmlns="http://www.w3.org/2000/svg">
<path d="M418 39H526" stroke="#454D7D" stroke-width="2" stroke-miterlimit="22.9256"/>
<path d="M386 170L526 170" stroke="#454D7D" stroke-width="2" stroke-miterlimit="22.9256"/>
<path d="M362 511L526 511" stroke="#454D7D" stroke-width="2" stroke-miterlimit="22.9256"/>
<path d="M313 716L526 716" stroke="#454D7D" stroke-width="2" stroke-miterlimit="22.9256"/>
<path d="M443.976 23.3242L524.887 1.31746" stroke="#454D7D" stroke-width="2" stroke-miterlimit="22.9256"/>
<path d="M417 116.324L497.911 94.3175" stroke="#454D7D" stroke-width="2" stroke-miterlimit="22.9256"/>
<path d="M380 393.324L460.911 371.317" stroke="#454D7D" stroke-width="2" stroke-miterlimit="22.9256"/>
<path d="M358 612.324L438.911 590.317" stroke="#454D7D" stroke-width="2" stroke-miterlimit="22.9256"/>
<path fill-rule="evenodd" clip-rule="evenodd" d="M229.993 465V716H193.675C193.681 715.839 193.685 715.675 193.685 715.508C193.685 710.856 191.425 708.365 189.611 706.366C188.075 704.674 186.965 703.451 186.965 700.699C186.965 697.948 188.075 696.725 189.611 695.033C191.425 693.032 193.685 690.543 193.685 685.89C193.685 681.238 191.425 678.749 189.611 676.748C188.075 675.057 186.965 673.833 186.965 671.081C186.965 668.328 188.075 667.105 189.611 665.413C191.342 663.503 193.479 661.22 193.671 656.903H193.685V656.271H193.671C193.479 651.953 191.342 649.671 189.611 647.76C188.075 646.068 186.965 644.846 186.965 642.093C186.965 639.341 188.075 638.117 189.611 636.426C191.425 634.425 193.685 631.937 193.685 627.283C193.685 622.63 191.425 620.142 189.611 618.141C188.075 616.449 186.965 615.226 186.965 612.474C186.965 609.722 188.075 608.499 189.611 606.807C191.425 604.808 193.685 602.317 193.685 597.665C193.685 593.015 191.425 590.441 189.611 588.441C188.099 586.776 186.999 585.471 186.965 582.819V582.766C186.999 580.112 188.099 578.808 189.611 577.143C191.425 575.142 193.685 572.57 193.685 567.918C193.685 563.266 191.425 560.776 189.611 558.776C188.075 557.084 186.965 555.861 186.965 553.109C186.965 550.357 188.075 549.135 189.611 547.443C191.425 545.442 193.685 542.953 193.685 538.3C193.685 533.648 191.425 531.159 189.611 529.158C188.075 527.466 186.965 526.244 186.965 523.491C186.965 520.737 188.075 519.516 189.611 517.823C191.425 515.822 193.685 513.412 193.685 508.68V508.666C193.685 503.935 191.425 501.526 189.611 499.523C188.075 497.832 186.965 496.61 186.965 493.857C186.965 491.103 188.075 489.881 189.611 488.189C191.425 486.188 193.685 483.699 193.685 479.046C193.685 474.393 191.425 471.905 189.611 469.904C188.224 468.376 187.184 467.232 186.995 465H229.993Z" fill="#E6E6E6"/>
<path d="M229.993 465V716H193.675C193.681 715.839 193.685 715.675 193.685 715.508C193.685 710.856 191.425 708.365 189.611 706.366C188.075 704.674 186.965 703.451 186.965 700.699C186.965 697.948 188.075 696.725 189.611 695.033C191.425 693.032 193.685 690.543 193.685 685.89C193.685 681.238 191.425 678.749 189.611 676.748C188.075 675.057 186.965 673.833 186.965 671.081C186.965 668.328 188.075 667.105 189.611 665.413C191.342 663.503 193.479 661.22 193.671 656.903H193.685V656.271H193.671C193.479 651.953 191.342 649.671 189.611 647.76C188.075 646.068 186.965 644.846 186.965 642.093C186.965 639.341 188.075 638.117 189.611 636.426C191.425 634.425 193.685 631.937 193.685 627.283C193.685 622.63 191.425 620.142 189.611 618.141C188.075 616.449 186.965 615.226 186.965 612.474C186.965 609.722 188.075 608.499 189.611 606.807C191.425 604.808 193.685 602.317 193.685 597.665C193.685 593.015 191.425 590.441 189.611 588.441C188.099 586.776 186.999 585.471 186.965 582.819V582.766C186.999 580.112 188.099 578.808 189.611 577.143C191.425 575.142 193.685 572.57 193.685 567.918C193.685 563.266 191.425 560.776 189.611 558.776C188.075 557.084 186.965 555.861 186.965 553.109C186.965 550.357 188.075 549.135 189.611 547.443C191.425 545.442 193.685 542.953 193.685 538.3C193.685 533.648 191.425 531.159 189.611 529.158C188.075 527.466 186.965 526.244 186.965 523.491C186.965 520.737 188.075 519.516 189.611 517.823C191.425 515.822 193.685 513.412 193.685 508.68V508.666C193.685 503.935 191.425 501.526 189.611 499.523C188.075 497.832 186.965 496.61 186.965 493.857C186.965 491.104 188.075 489.881 189.611 488.189C191.425 486.188 193.685 483.699 193.685 479.046C193.685 474.393 191.425 471.905 189.611 469.904C188.224 468.376 187.184 467.232 186.995 465H229.993Z" stroke="#757EB3" stroke-miterlimit="22.9256"/>
<path fill-rule="evenodd" clip-rule="evenodd" d="M229.993 465H241V716H229.993V465Z" fill="#E3000F"/>
<path d="M229.993 465H241V716H229.993V465Z" stroke="#757EB3" stroke-miterlimit="22.9256"/>
<path fill-rule="evenodd" clip-rule="evenodd" d="M218.985 465H229.993V475H218.985V465Z" fill="#272953"/>
<path d="M218.985 465H229.993V475H218.985V465Z" stroke="#757EB3" stroke-miterlimit="22.9256"/>
<path fill-rule="evenodd" clip-rule="evenodd" d="M201.975 465H218.986V475H201.975V465Z" fill="#E6E6E6"/>
<path fill-rule="evenodd" clip-rule="evenodd" d="M201.975 465H218.986V475H201.975V465Z" fill="white"/>
<path d="M201.975 465H218.986V475H201.975V465Z" stroke="#757EB3" stroke-miterlimit="22.9256"/>
<path d="M201.975 465L218.986 475" stroke="#757EB3" stroke-miterlimit="22.9256"/>
<path d="M201.975 475L218.986 465" stroke="#757EB3" stroke-miterlimit="22.9256"/>
<path fill-rule="evenodd" clip-rule="evenodd" d="M228.993 705V715H217.985L228.993 705Z" fill="#272953"/>
<path fill-rule="evenodd" clip-rule="evenodd" d="M191.968 459H200.974V15H191.968V459Z" fill="#FFEC08"/>
<path d="M191.968 459H200.974V15H191.968V459Z" stroke="#757EB3" stroke-miterlimit="22.9256"/>
<path fill-rule="evenodd" clip-rule="evenodd" d="M191.968 459H200.974V510H191.968V459Z" fill="#00963F"/>
<path d="M191.968 459H200.974V510H191.968V459Z" stroke="#757EB3" stroke-miterlimit="22.9256"/>
<path fill-rule="evenodd" clip-rule="evenodd" d="M191.968 15V81.5155V84.062V147.814V211.995V379.521V382.067V510H167.952C169.119 508.206 170.224 505.903 170.224 502.144V502.129C170.224 497.368 168.451 494.944 167.026 492.929C165.822 491.228 164.95 489.997 164.95 487.227C164.95 484.455 165.822 483.226 167.026 481.523C168.451 479.509 170.224 477.005 170.224 472.323C170.224 467.64 168.451 465.137 167.026 463.123C165.822 461.42 164.95 460.19 164.95 457.42C164.95 454.651 165.822 453.42 167.026 451.718C168.451 449.706 170.224 447.199 170.224 442.518C170.224 437.837 168.451 435.248 167.026 433.235C165.84 431.56 164.977 430.247 164.95 427.577V427.524C164.977 424.853 165.84 423.541 167.026 421.865C168.451 419.853 170.224 417.263 170.224 412.583C170.224 407.901 168.451 405.395 167.026 403.383C165.822 401.681 164.95 400.45 164.95 397.681C164.95 394.911 165.822 393.681 167.026 391.978C171.724 385.337 171.046 382.201 167.026 376.519C165.822 374.816 164.95 373.586 164.95 370.817C164.95 368.048 165.822 366.817 167.026 365.114C168.451 363.103 170.224 360.595 170.224 355.914C170.224 351.234 168.451 348.644 167.026 346.631C165.84 344.956 164.977 343.644 164.95 340.973V340.921C164.977 338.251 165.84 336.938 167.026 335.262C168.451 333.249 170.224 330.659 170.224 325.979C170.224 321.298 168.451 318.792 167.026 316.78C165.822 315.077 164.95 313.846 164.95 311.077C164.95 308.307 165.822 307.078 167.026 305.375C168.451 303.361 170.224 300.857 170.224 296.175C170.224 291.493 168.451 288.988 167.026 286.974C165.822 285.272 164.95 284.042 164.95 281.271C164.95 278.501 165.822 277.27 167.026 275.569C168.451 273.553 170.224 271.129 170.224 266.368V266.353C170.224 261.593 168.451 259.168 167.026 257.153C165.822 255.452 164.95 254.221 164.95 251.45C164.95 248.679 165.822 247.45 167.026 245.747C168.451 243.733 170.224 241.229 170.224 236.547C170.224 231.865 168.451 229.361 167.026 227.347C165.822 225.644 164.95 224.414 164.95 221.644C164.95 218.875 165.822 217.644 167.026 215.942C167.794 214.857 168.662 213.63 169.301 211.995H167.952C168.977 210.419 169.953 208.451 170.176 205.448C169.885 201.569 168.313 199.278 167.026 197.459C165.84 195.784 164.977 194.471 164.95 191.801V191.748C164.955 191.314 164.981 190.915 165.027 190.545C164.976 190.144 164.95 189.706 164.95 189.221C164.95 186.45 165.822 185.221 167.026 183.517C168.319 181.69 169.898 179.459 170.18 175.562C169.898 171.666 168.319 169.433 167.026 167.607C165.822 165.904 164.95 164.674 164.95 161.905C164.95 161.452 164.974 161.04 165.018 160.66C164.974 160.28 164.95 159.868 164.95 159.414C164.95 156.645 165.822 155.415 167.026 153.712C168.095 152.202 169.36 150.415 169.925 147.637L169.898 143.745C170.03 144.363 170.128 145.031 170.18 145.755C170.209 145.359 170.224 144.945 170.224 144.513C170.224 139.832 168.451 137.242 167.026 135.23C165.84 133.555 164.977 132.242 164.95 129.571V129.518C164.977 126.848 165.84 125.536 167.026 123.86C168.451 121.847 170.224 119.258 170.224 114.578C170.224 109.896 168.451 107.389 167.026 105.377C165.822 103.675 164.95 102.445 164.95 99.6752C164.95 96.9058 165.822 95.6751 167.026 93.9726C171.724 87.3317 171.046 84.1959 167.026 78.5137C165.822 76.8114 164.95 75.5804 164.95 72.8115C164.95 70.0421 165.822 68.8119 167.026 67.1089C168.451 65.0973 170.224 62.5894 170.224 57.9083C170.224 53.2288 168.451 50.639 167.026 48.6259C165.84 46.9511 164.977 45.6382 164.95 42.9678V42.9151C164.977 40.2452 165.84 38.9319 167.026 37.257C168.451 35.2437 170.224 32.6538 170.224 27.9737C170.224 23.2923 168.451 20.7861 167.026 18.7745C166.143 17.5267 165.44 16.532 165.126 15H191.968Z" fill="#CCCCCC"/>
<path d="M191.968 15V81.8886V84.4328V148.129V212.254V379.635V382.179V510H167.952C169.119 508.207 170.224 505.907 170.224 502.151V502.136C170.224 497.379 168.451 494.957 167.026 492.944C165.822 491.244 164.95 490.015 164.95 487.247C164.95 484.477 165.822 483.249 167.026 481.548C168.451 479.536 170.224 477.034 170.224 472.356C170.224 467.677 168.451 465.176 167.026 463.163C165.822 461.462 164.95 460.234 164.95 457.466C164.95 454.699 165.822 453.469 167.026 451.768C168.451 449.758 170.224 447.254 170.224 442.577C170.224 437.9 168.451 435.313 167.026 433.302C165.84 431.628 164.977 430.316 164.95 427.648V427.596C164.977 424.928 165.84 423.617 167.026 421.942C168.451 419.931 170.224 417.344 170.224 412.668C170.224 407.99 168.451 405.486 167.026 403.476C165.822 401.775 164.95 400.545 164.95 397.778C164.95 395.011 165.822 393.782 167.026 392.081C171.724 385.446 171.046 382.312 167.026 376.635C165.822 374.934 164.95 373.705 164.95 370.938C164.95 368.171 165.822 366.942 167.026 365.24C168.451 363.23 170.224 360.725 170.224 356.048C170.224 351.372 168.451 348.785 167.026 346.774C165.84 345.1 164.977 343.788 164.95 341.12V341.068C164.977 338.4 165.84 337.088 167.026 335.415C168.451 333.403 170.224 330.815 170.224 326.139C170.224 321.462 168.451 318.958 167.026 316.948C165.822 315.247 164.95 314.017 164.95 311.25C164.95 308.483 165.822 307.254 167.026 305.553C168.451 303.541 170.224 301.039 170.224 296.361C170.224 291.683 168.451 289.181 167.026 287.169C165.822 285.468 164.95 284.239 164.95 281.47C164.95 278.703 165.822 277.473 167.026 275.773C168.451 273.759 170.224 271.337 170.224 266.58V266.565C170.224 261.809 168.451 259.386 167.026 257.373C165.822 255.673 164.95 254.444 164.95 251.676C164.95 248.907 165.822 247.679 167.026 245.977C168.451 243.965 170.224 241.463 170.224 236.785C170.224 232.107 168.451 229.605 167.026 227.593C165.822 225.891 164.95 224.663 164.95 221.895C164.95 219.128 165.822 217.899 167.026 216.198C167.794 215.114 168.662 213.888 169.301 212.254H167.952C168.977 210.68 169.953 208.713 170.176 205.713C169.885 201.837 168.313 199.549 167.026 197.731C165.84 196.058 164.977 194.746 164.95 192.078V192.025C164.955 191.591 164.981 191.193 165.027 190.823C164.976 190.422 164.95 189.985 164.95 189.501C164.95 186.732 165.822 185.503 167.026 183.802C168.319 181.976 169.898 179.747 170.18 175.854C169.898 171.961 168.319 169.729 167.026 167.906C165.822 166.204 164.95 164.974 164.95 162.208C164.95 161.755 164.974 161.344 165.018 160.964C164.974 160.585 164.95 160.173 164.95 159.72C164.95 156.953 165.822 155.724 167.026 154.022C168.095 152.514 169.36 150.728 169.925 147.953L169.898 144.064C170.03 144.681 170.128 145.349 170.18 146.072C170.209 145.676 170.224 145.263 170.224 144.831C170.224 140.154 168.451 137.567 167.026 135.556C165.84 133.883 164.977 132.571 164.95 129.902V129.85C164.977 127.182 165.84 125.871 167.026 124.196C168.451 122.185 170.224 119.598 170.224 114.922C170.224 110.245 168.451 107.74 167.026 105.73C165.822 104.029 164.95 102.799 164.95 100.032C164.95 97.2655 165.822 96.0358 167.026 94.3348C171.724 87.6997 171.046 84.5666 167.026 78.8894C165.822 77.1886 164.95 75.9586 164.95 73.1922C164.95 70.4251 165.822 69.196 167.026 67.4945C168.451 65.4846 170.224 62.979 170.224 58.3019C170.224 53.6265 168.451 51.039 167.026 49.0276C165.84 47.3543 164.977 46.0425 164.95 43.3745V43.3218C164.977 40.6542 165.84 39.3421 167.026 37.6686C168.451 35.657 170.224 33.0694 170.224 28.3934C170.224 23.7161 168.451 21.212 167.026 19.2022C166.143 17.9555 165.44 16.5307 165.126 15H191.968Z" stroke="#757EB3" stroke-miterlimit="22.9256"/>
<path fill-rule="evenodd" clip-rule="evenodd" d="M160.948 15V169H138.49C137.873 167.104 136.685 165.839 135.672 164.758C134.452 163.457 133.569 162.516 133.569 160.399C133.569 158.282 134.452 157.341 135.672 156.039C137.116 154.501 138.913 152.585 138.913 149.006C138.913 145.428 137.116 143.448 135.672 141.909C134.47 140.629 133.595 139.625 133.569 137.584V137.544C133.595 135.503 134.47 134.499 135.672 133.218C137.116 131.679 138.913 129.699 138.913 126.121C138.913 122.542 137.116 120.626 135.672 119.088C134.452 117.786 133.569 116.846 133.569 114.729C133.569 112.611 134.452 111.671 135.672 110.37C137.116 108.83 138.913 106.915 138.913 103.336C138.913 99.7564 137.116 97.8417 135.672 96.3021C134.452 95.0007 133.569 94.0603 133.569 91.9419C133.569 89.8243 134.452 88.8832 135.672 87.5826C137.116 86.0419 138.913 84.1888 138.913 80.5488V80.5374C138.913 76.898 137.116 75.0445 135.672 73.5043C134.452 72.2033 133.569 71.2626 133.569 69.1443C133.569 67.0258 134.452 66.086 135.672 64.784C137.116 63.2447 138.913 61.3301 138.913 57.751C138.913 54.1712 137.116 52.2568 135.672 50.7172C134.452 49.4153 133.569 48.4755 133.569 46.3576C133.569 44.2408 134.452 43.3 135.672 41.9983C135.787 41.8755 135.905 41.7498 136.024 41.621L132.93 15H160.948Z" fill="#CCCCCC"/>
<path d="M160.948 15V169H138.49C137.873 167.104 136.685 165.839 135.672 164.758C134.452 163.457 133.569 162.516 133.569 160.399C133.569 158.282 134.452 157.341 135.672 156.039C137.116 154.501 138.913 152.585 138.913 149.006C138.913 145.428 137.116 143.448 135.672 141.909C134.47 140.629 133.595 139.625 133.569 137.584V137.544C133.595 135.503 134.47 134.499 135.672 133.218C137.116 131.679 138.913 129.699 138.913 126.121C138.913 122.542 137.116 120.626 135.672 119.088C134.452 117.786 133.569 116.846 133.569 114.729C133.569 112.611 134.452 111.671 135.672 110.37C137.116 108.83 138.913 106.915 138.913 103.336C138.913 99.7564 137.116 97.8417 135.672 96.3021C134.452 95.0007 133.569 94.0603 133.569 91.9419C133.569 89.8243 134.452 88.8832 135.672 87.5826C137.116 86.0419 138.913 84.1888 138.913 80.5488V80.5374C138.913 76.898 137.116 75.0445 135.672 73.5043C134.452 72.2033 133.569 71.2626 133.569 69.1443C133.569 67.0258 134.452 66.086 135.672 64.784C137.116 63.2447 138.913 61.3301 138.913 57.751C138.913 54.1712 137.116 52.2568 135.672 50.7172C134.452 49.4153 133.569 48.4755 133.569 46.3576C133.569 44.2408 134.452 43.3 135.672 41.9983C135.787 41.8754 135.905 41.7498 136.024 41.621L132.93 15H160.948Z" stroke="#757EB3" stroke-miterlimit="22.9256"/>
<path fill-rule="evenodd" clip-rule="evenodd" d="M160.948 38H169.954V15H160.948V38Z" fill="#00963F"/>
<path d="M160.95 38H169.954L169.952 15H160.948L160.95 38Z" stroke="#757EB3" stroke-miterlimit="22.9256"/>
<path fill-rule="evenodd" clip-rule="evenodd" d="M160.948 149H169.954V169H160.948V149Z" fill="#E3000F"/>
<path d="M160.948 149H169.954V169H160.948V149Z" stroke="#757EB3" stroke-miterlimit="22.9256"/>
<path fill-rule="evenodd" clip-rule="evenodd" d="M160.948 149H169.954V38H160.948V149Z" fill="#FFEC08"/>
<path d="M160.948 149H169.954V38H160.948V149Z" stroke="#757EB3" stroke-miterlimit="22.9256"/>
<path d="M126.687 37.29L105.794 37.2899C105.623 34.0817 103.821 32.2926 102.453 30.9337L102.441 30.9218C101.825 30.309 101.351 29.8334 101.018 29.2822C100.697 28.7519 100.5 28.1345 100.5 27.2392C100.5 26.3435 100.698 25.726 101.018 25.1957C101.351 24.6445 101.825 24.1691 102.441 23.5563L126.687 37.29ZM126.687 37.29V15H105.774C105.796 15.2546 105.807 15.5178 105.807 15.7901C105.807 19.2822 103.933 22.0729 102.441 23.5563L126.687 37.29Z" fill="#CCCCCC" stroke="#757EB3"/>
<path fill-rule="evenodd" clip-rule="evenodd" d="M126.926 37H136.932V15H126.926V37Z" fill="#E3000F"/>
<path d="M126.926 37.5H136.932V15H126.926V37.5Z" stroke="#757EB3" stroke-miterlimit="22.9256"/>
<path fill-rule="evenodd" clip-rule="evenodd" d="M324.007 465V716H360.325C360.319 715.839 360.315 715.675 360.315 715.508C360.315 710.856 362.575 708.365 364.389 706.366C365.925 704.674 367.035 703.451 367.035 700.699C367.035 697.948 365.925 696.725 364.389 695.033C362.575 693.032 360.315 690.543 360.315 685.89C360.315 681.238 362.575 678.749 364.389 676.748C365.925 675.057 367.035 673.833 367.035 671.081C367.035 668.328 365.925 667.105 364.389 665.413C362.658 663.503 360.521 661.22 360.329 656.903H360.315V656.271H360.329C360.521 651.953 362.658 649.671 364.389 647.76C365.925 646.068 367.035 644.846 367.035 642.093C367.035 639.341 365.925 638.117 364.389 636.426C362.575 634.425 360.315 631.937 360.315 627.283C360.315 622.63 362.575 620.142 364.389 618.141C365.925 616.449 367.035 615.226 367.035 612.474C367.035 609.722 365.925 608.499 364.389 606.807C362.575 604.808 360.315 602.317 360.315 597.665C360.315 593.015 362.575 590.441 364.389 588.441C365.901 586.776 367.001 585.471 367.035 582.819V582.766C367.001 580.112 365.901 578.808 364.389 577.143C362.575 575.142 360.315 572.57 360.315 567.918C360.315 563.266 362.575 560.776 364.389 558.776C365.925 557.084 367.035 555.861 367.035 553.109C367.035 550.357 365.925 549.135 364.389 547.443C362.575 545.442 360.315 542.953 360.315 538.3C360.315 533.648 362.575 531.159 364.389 529.158C365.925 527.466 367.035 526.244 367.035 523.491C367.035 520.737 365.925 519.516 364.389 517.823C362.575 515.822 360.315 513.412 360.315 508.68V508.666C360.315 503.935 362.575 501.526 364.389 499.523C365.925 497.832 367.035 496.61 367.035 493.857C367.035 491.103 365.925 489.881 364.389 488.189C362.575 486.188 360.315 483.699 360.315 479.046C360.315 474.393 362.575 471.905 364.389 469.904C365.776 468.376 366.816 467.232 367.005 465H324.007Z" fill="#E6E6E6"/>
<path d="M324.007 465V716H360.325C360.319 715.839 360.315 715.675 360.315 715.508C360.315 710.856 362.575 708.365 364.389 706.366C365.925 704.674 367.035 703.451 367.035 700.699C367.035 697.948 365.925 696.725 364.389 695.033C362.575 693.032 360.315 690.543 360.315 685.89C360.315 681.238 362.575 678.749 364.389 676.748C365.925 675.057 367.035 673.833 367.035 671.081C367.035 668.328 365.925 667.105 364.389 665.413C362.658 663.503 360.521 661.22 360.329 656.903H360.315V656.271H360.329C360.521 651.953 362.658 649.671 364.389 647.76C365.925 646.068 367.035 644.846 367.035 642.093C367.035 639.341 365.925 638.117 364.389 636.426C362.575 634.425 360.315 631.937 360.315 627.283C360.315 622.63 362.575 620.142 364.389 618.141C365.925 616.449 367.035 615.226 367.035 612.474C367.035 609.722 365.925 608.499 364.389 606.807C362.575 604.808 360.315 602.317 360.315 597.665C360.315 593.015 362.575 590.441 364.389 588.441C365.901 586.776 367.001 585.471 367.035 582.819V582.766C367.001 580.112 365.901 578.808 364.389 577.143C362.575 575.142 360.315 572.57 360.315 567.918C360.315 563.266 362.575 560.776 364.389 558.776C365.925 557.084 367.035 555.861 367.035 553.109C367.035 550.357 365.925 549.135 364.389 547.443C362.575 545.442 360.315 542.953 360.315 538.3C360.315 533.648 362.575 531.159 364.389 529.158C365.925 527.466 367.035 526.244 367.035 523.491C367.035 520.737 365.925 519.516 364.389 517.823C362.575 515.822 360.315 513.412 360.315 508.68V508.666C360.315 503.935 362.575 501.526 364.389 499.523C365.925 497.832 367.035 496.61 367.035 493.857C367.035 491.104 365.925 489.881 364.389 488.189C362.575 486.188 360.315 483.699 360.315 479.046C360.315 474.393 362.575 471.905 364.389 469.904C365.776 468.376 366.816 467.232 367.005 465H324.007Z" stroke="#757EB3" stroke-miterlimit="22.9256"/>
<path fill-rule="evenodd" clip-rule="evenodd" d="M324.007 465H313V716H324.007V465Z" fill="#E3000F"/>
<path d="M324.007 465H313V716H324.007V465Z" stroke="#757EB3" stroke-miterlimit="22.9256"/>
<path fill-rule="evenodd" clip-rule="evenodd" d="M335.014 465H324.007V475H335.014V465Z" fill="#272953"/>
<path d="M335.014 465H324.007V475H335.014V465Z" stroke="#757EB3" stroke-miterlimit="22.9256"/>
<path fill-rule="evenodd" clip-rule="evenodd" d="M352.025 465H335.014V475H352.025V465Z" fill="#E6E6E6"/>
<path fill-rule="evenodd" clip-rule="evenodd" d="M352.025 465H335.014V475H352.025V465Z" fill="white"/>
<path d="M352.025 465H335.014V475H352.025V465Z" stroke="#757EB3" stroke-miterlimit="22.9256"/>
<path d="M352.025 465L335.014 475" stroke="#757EB3" stroke-miterlimit="22.9256"/>
<path d="M352.025 475L335.014 465" stroke="#757EB3" stroke-miterlimit="22.9256"/>
<path fill-rule="evenodd" clip-rule="evenodd" d="M325.007 705V715H336.015L325.007 705Z" fill="#272953"/>
<path fill-rule="evenodd" clip-rule="evenodd" d="M362.032 459H353.026V15H362.032V459Z" fill="#FFEC08"/>
<path d="M362.032 459H353.026V15H362.032V459Z" stroke="#757EB3" stroke-miterlimit="22.9256"/>
<path fill-rule="evenodd" clip-rule="evenodd" d="M362.032 459H353.026V510H362.032V459Z" fill="#00963F"/>
<path d="M362.032 459H353.026V510H362.032V459Z" stroke="#757EB3" stroke-miterlimit="22.9256"/>
<path fill-rule="evenodd" clip-rule="evenodd" d="M362.032 15V81.5155V84.062V147.814V211.995V379.521V382.067V510H386.048C384.881 508.206 383.776 505.903 383.776 502.144V502.129C383.776 497.368 385.549 494.944 386.974 492.929C388.178 491.228 389.05 489.997 389.05 487.227C389.05 484.455 388.178 483.226 386.974 481.523C385.549 479.509 383.776 477.005 383.776 472.323C383.776 467.64 385.549 465.137 386.974 463.123C388.178 461.42 389.05 460.19 389.05 457.42C389.05 454.651 388.178 453.42 386.974 451.718C385.549 449.706 383.776 447.199 383.776 442.518C383.776 437.837 385.549 435.248 386.974 433.235C388.16 431.56 389.023 430.247 389.05 427.577V427.524C389.023 424.853 388.16 423.541 386.974 421.865C385.549 419.853 383.776 417.263 383.776 412.583C383.776 407.901 385.549 405.395 386.974 403.383C388.178 401.681 389.05 400.45 389.05 397.681C389.05 394.911 388.178 393.681 386.974 391.978C382.276 385.337 382.954 382.201 386.974 376.519C388.178 374.816 389.05 373.586 389.05 370.817C389.05 368.048 388.178 366.817 386.974 365.114C385.549 363.103 383.776 360.595 383.776 355.914C383.776 351.234 385.549 348.644 386.974 346.631C388.16 344.956 389.023 343.644 389.05 340.973V340.921C389.023 338.251 388.16 336.938 386.974 335.262C385.549 333.249 383.776 330.659 383.776 325.979C383.776 321.298 385.549 318.792 386.974 316.78C388.178 315.077 389.05 313.846 389.05 311.077C389.05 308.307 388.178 307.078 386.974 305.375C385.549 303.361 383.776 300.857 383.776 296.175C383.776 291.493 385.549 288.988 386.974 286.974C388.178 285.272 389.05 284.042 389.05 281.271C389.05 278.501 388.178 277.27 386.974 275.569C385.549 273.553 383.776 271.129 383.776 266.368V266.353C383.776 261.593 385.549 259.168 386.974 257.153C388.178 255.452 389.05 254.221 389.05 251.45C389.05 248.679 388.178 247.45 386.974 245.747C385.549 243.733 383.776 241.229 383.776 236.547C383.776 231.865 385.549 229.361 386.974 227.347C388.178 225.644 389.05 224.414 389.05 221.644C389.05 218.875 388.178 217.644 386.974 215.942C386.206 214.857 385.338 213.63 384.699 211.995H386.048C385.023 210.419 384.047 208.451 383.824 205.448C384.115 201.569 385.687 199.278 386.974 197.459C388.16 195.784 389.023 194.471 389.05 191.801V191.748C389.045 191.314 389.019 190.915 388.973 190.545C389.024 190.144 389.05 189.706 389.05 189.221C389.05 186.45 388.178 185.221 386.974 183.517C385.681 181.69 384.102 179.459 383.82 175.562C384.102 171.666 385.681 169.433 386.974 167.607C388.178 165.904 389.05 164.674 389.05 161.905C389.05 161.452 389.026 161.04 388.982 160.66C389.026 160.28 389.05 159.868 389.05 159.414C389.05 156.645 388.178 155.415 386.974 153.712C385.905 152.202 384.64 150.415 384.075 147.637L384.102 143.745C383.97 144.363 383.872 145.031 383.82 145.755C383.791 145.359 383.776 144.945 383.776 144.513C383.776 139.832 385.549 137.242 386.974 135.23C388.16 133.555 389.023 132.242 389.05 129.571V129.518C389.023 126.848 388.16 125.536 386.974 123.86C385.549 121.847 383.776 119.258 383.776 114.578C383.776 109.896 385.549 107.389 386.974 105.377C388.178 103.675 389.05 102.445 389.05 99.6752C389.05 96.9058 388.178 95.6751 386.974 93.9726C382.276 87.3317 382.954 84.1959 386.974 78.5137C388.178 76.8114 389.05 75.5804 389.05 72.8115C389.05 70.0421 388.178 68.8119 386.974 67.1089C385.549 65.0973 383.776 62.5894 383.776 57.9083C383.776 53.2288 385.549 50.639 386.974 48.6259C388.16 46.9511 389.023 45.6382 389.05 42.9678V42.9151C389.023 40.2452 388.16 38.9319 386.974 37.257C385.549 35.2437 383.776 32.6538 383.776 27.9737C383.776 23.2923 385.549 20.7861 386.974 18.7745C387.857 17.5267 388.56 16.532 388.874 15H362.032Z" fill="#CCCCCC"/>
<path d="M362.032 15V81.8886V84.4328V148.129V212.254V379.635V382.179V510H386.048C384.881 508.207 383.776 505.907 383.776 502.151V502.136C383.776 497.379 385.549 494.957 386.974 492.944C388.178 491.244 389.05 490.015 389.05 487.247C389.05 484.477 388.178 483.249 386.974 481.548C385.549 479.536 383.776 477.034 383.776 472.356C383.776 467.677 385.549 465.176 386.974 463.163C388.178 461.462 389.05 460.234 389.05 457.466C389.05 454.699 388.178 453.469 386.974 451.768C385.549 449.758 383.776 447.254 383.776 442.577C383.776 437.9 385.549 435.313 386.974 433.302C388.16 431.628 389.023 430.316 389.05 427.648V427.596C389.023 424.928 388.16 423.617 386.974 421.942C385.549 419.931 383.776 417.344 383.776 412.668C383.776 407.99 385.549 405.486 386.974 403.476C388.178 401.775 389.05 400.545 389.05 397.778C389.05 395.011 388.178 393.782 386.974 392.081C382.276 385.446 382.954 382.312 386.974 376.635C388.178 374.934 389.05 373.705 389.05 370.938C389.05 368.171 388.178 366.942 386.974 365.24C385.549 363.23 383.776 360.725 383.776 356.048C383.776 351.372 385.549 348.785 386.974 346.774C388.16 345.1 389.023 343.788 389.05 341.12V341.068C389.023 338.4 388.16 337.088 386.974 335.415C385.549 333.403 383.776 330.815 383.776 326.139C383.776 321.462 385.549 318.958 386.974 316.948C388.178 315.247 389.05 314.017 389.05 311.25C389.05 308.483 388.178 307.254 386.974 305.553C385.549 303.541 383.776 301.039 383.776 296.361C383.776 291.683 385.549 289.181 386.974 287.169C388.178 285.468 389.05 284.239 389.05 281.47C389.05 278.703 388.178 277.473 386.974 275.773C385.549 273.759 383.776 271.337 383.776 266.58V266.565C383.776 261.809 385.549 259.386 386.974 257.373C388.178 255.673 389.05 254.444 389.05 251.676C389.05 248.907 388.178 247.679 386.974 245.977C385.549 243.965 383.776 241.463 383.776 236.785C383.776 232.107 385.549 229.605 386.974 227.593C388.178 225.891 389.05 224.663 389.05 221.895C389.05 219.128 388.178 217.899 386.974 216.198C386.206 215.114 385.338 213.888 384.699 212.254H386.048C385.023 210.68 384.047 208.713 383.824 205.713C384.115 201.837 385.687 199.549 386.974 197.731C388.16 196.058 389.023 194.746 389.05 192.078V192.025C389.045 191.591 389.019 191.193 388.973 190.823C389.024 190.422 389.05 189.985 389.05 189.501C389.05 186.732 388.178 185.503 386.974 183.802C385.681 181.976 384.102 179.747 383.82 175.854C384.102 171.961 385.681 169.729 386.974 167.906C388.178 166.204 389.05 164.974 389.05 162.208C389.05 161.755 389.026 161.344 388.982 160.964C389.026 160.585 389.05 160.173 389.05 159.72C389.05 156.953 388.178 155.724 386.974 154.022C385.905 152.514 384.64 150.728 384.075 147.953L384.102 144.064C383.97 144.681 383.872 145.349 383.82 146.072C383.791 145.676 383.776 145.263 383.776 144.831C383.776 140.154 385.549 137.567 386.974 135.556C388.16 133.883 389.023 132.571 389.05 129.902V129.85C389.023 127.182 388.16 125.871 386.974 124.196C385.549 122.185 383.776 119.598 383.776 114.922C383.776 110.245 385.549 107.74 386.974 105.73C388.178 104.029 389.05 102.799 389.05 100.032C389.05 97.2655 388.178 96.0358 386.974 94.3348C382.276 87.6997 382.954 84.5666 386.974 78.8894C388.178 77.1886 389.05 75.9586 389.05 73.1922C389.05 70.4251 388.178 69.196 386.974 67.4945C385.549 65.4846 383.776 62.979 383.776 58.3019C383.776 53.6265 385.549 51.039 386.974 49.0276C388.16 47.3543 389.023 46.0425 389.05 43.3745V43.3218C389.023 40.6542 388.16 39.3421 386.974 37.6686C385.549 35.657 383.776 33.0694 383.776 28.3934C383.776 23.7161 385.549 21.212 386.974 19.2022C387.857 17.9555 388.56 16.5307 388.874 15H362.032Z" stroke="#757EB3" stroke-miterlimit="22.9256"/>
<path fill-rule="evenodd" clip-rule="evenodd" d="M393.052 15V169H415.51C416.127 167.104 417.315 165.839 418.328 164.758C419.548 163.457 420.431 162.516 420.431 160.399C420.431 158.282 419.548 157.341 418.328 156.039C416.884 154.501 415.087 152.585 415.087 149.006C415.087 145.428 416.884 143.448 418.328 141.909C419.53 140.629 420.405 139.625 420.431 137.584V137.544C420.405 135.503 419.53 134.499 418.328 133.218C416.884 131.679 415.087 129.699 415.087 126.121C415.087 122.542 416.884 120.626 418.328 119.088C419.548 117.786 420.431 116.846 420.431 114.729C420.431 112.611 419.548 111.671 418.328 110.37C416.884 108.83 415.087 106.915 415.087 103.336C415.087 99.7564 416.884 97.8417 418.328 96.3021C419.548 95.0007 420.431 94.0603 420.431 91.9419C420.431 89.8243 419.548 88.8832 418.328 87.5826C416.884 86.0419 415.087 84.1888 415.087 80.5488V80.5374C415.087 76.898 416.884 75.0445 418.328 73.5043C419.548 72.2033 420.431 71.2626 420.431 69.1443C420.431 67.0258 419.548 66.086 418.328 64.784C416.884 63.2447 415.087 61.3301 415.087 57.751C415.087 54.1712 416.884 52.2568 418.328 50.7172C419.548 49.4153 420.431 48.4755 420.431 46.3576C420.431 44.2408 419.548 43.3 418.328 41.9983C418.213 41.8755 418.095 41.7498 417.976 41.621L421.07 15H393.052Z" fill="#CCCCCC"/>
<path d="M393.052 15V169H415.51C416.127 167.104 417.315 165.839 418.328 164.758C419.548 163.457 420.431 162.516 420.431 160.399C420.431 158.282 419.548 157.341 418.328 156.039C416.884 154.501 415.087 152.585 415.087 149.006C415.087 145.428 416.884 143.448 418.328 141.909C419.53 140.629 420.405 139.625 420.431 137.584V137.544C420.405 135.503 419.53 134.499 418.328 133.218C416.884 131.679 415.087 129.699 415.087 126.121C415.087 122.542 416.884 120.626 418.328 119.088C419.548 117.786 420.431 116.846 420.431 114.729C420.431 112.611 419.548 111.671 418.328 110.37C416.884 108.83 415.087 106.915 415.087 103.336C415.087 99.7564 416.884 97.8417 418.328 96.3021C419.548 95.0007 420.431 94.0603 420.431 91.9419C420.431 89.8243 419.548 88.8832 418.328 87.5826C416.884 86.0419 415.087 84.1888 415.087 80.5488V80.5374C415.087 76.898 416.884 75.0445 418.328 73.5043C419.548 72.2033 420.431 71.2626 420.431 69.1443C420.431 67.0258 419.548 66.086 418.328 64.784C416.884 63.2447 415.087 61.3301 415.087 57.751C415.087 54.1712 416.884 52.2568 418.328 50.7172C419.548 49.4153 420.431 48.4755 420.431 46.3576C420.431 44.2408 419.548 43.3 418.328 41.9983C418.213 41.8754 418.095 41.7498 417.976 41.621L421.07 15H393.052Z" stroke="#757EB3" stroke-miterlimit="22.9256"/>
<path fill-rule="evenodd" clip-rule="evenodd" d="M393.053 38H384.047V15H393.053V38Z" fill="#00963F"/>
<path d="M393.051 38H384.047L384.049 15H393.053L393.051 38Z" stroke="#757EB3" stroke-miterlimit="22.9256"/>
<path fill-rule="evenodd" clip-rule="evenodd" d="M393.053 149H384.047V169H393.053V149Z" fill="#E3000F"/>
<path d="M393.053 149H384.047V169H393.053V149Z" stroke="#757EB3" stroke-miterlimit="22.9256"/>
<path fill-rule="evenodd" clip-rule="evenodd" d="M393.053 149H384.047V38H393.053V149Z" fill="#FFEC08"/>
<path d="M393.053 149H384.047V38H393.053V149Z" stroke="#757EB3" stroke-miterlimit="22.9256"/>
<path d="M427.313 37.29L448.206 37.2899C448.377 34.0817 450.179 32.2926 451.547 30.9337L451.559 30.9218C452.175 30.309 452.649 29.8334 452.982 29.2822C453.303 28.7519 453.5 28.1345 453.5 27.2392C453.5 26.3435 453.302 25.726 452.982 25.1957C452.649 24.6445 452.175 24.1691 451.559 23.5563L427.313 37.29ZM427.313 37.29V15H448.226C448.204 15.2546 448.193 15.5178 448.193 15.7901C448.193 19.2822 450.067 22.0729 451.559 23.5563L427.313 37.29Z" fill="#CCCCCC" stroke="#757EB3"/>
<path fill-rule="evenodd" clip-rule="evenodd" d="M427.074 37H417.068V15H427.074V37Z" fill="#E3000F"/>
<path d="M427.074 37.5H417.068V15H427.074V37.5Z" stroke="#757EB3" stroke-miterlimit="22.9256"/>
<path d="M230.064 568L103.976 532.317" stroke="#454D7D" stroke-width="2" stroke-miterlimit="22.9256"/>
<path d="M192.064 389L65.9755 353.317" stroke="#454D7D" stroke-width="2" stroke-miterlimit="22.9256"/>
<path d="M161.064 149L34.9755 113.317" stroke="#454D7D" stroke-width="2" stroke-miterlimit="22.9256"/>
<path d="M127.064 38L0.975508 2.31746" stroke="#454D7D" stroke-width="2" stroke-miterlimit="22.9256"/>
</svg>
