<svg width="474" height="704" viewBox="0 0 474 704" fill="none" xmlns="http://www.w3.org/2000/svg">
<path fill-rule="evenodd" clip-rule="evenodd" d="M171.988 650.547H181.784V3.02832H171.988V650.547Z" fill="#FFEC08"/>
<path d="M171.988 650.547H181.784V3.0283H171.988V650.547Z" stroke="#757EB3" stroke-miterlimit="22.9256"/>
<path fill-rule="evenodd" clip-rule="evenodd" d="M171.988 650.551H181.784V701.091H171.988V650.551Z" fill="#00963F"/>
<path d="M171.988 650.551H181.784V701.091H171.988V650.551Z" stroke="#757EB3" stroke-miterlimit="22.9256"/>
<path fill-rule="evenodd" clip-rule="evenodd" d="M171.969 3.03253V279.531V282.037V344.758V407.902V572.721V575.226V701.091H145.847C147.116 699.326 148.318 697.06 148.318 693.362V693.347C148.318 688.663 146.39 686.278 144.839 684.296C143.53 682.622 142.582 681.411 142.582 678.686C142.582 675.959 143.53 674.75 144.839 673.074C146.39 671.093 148.318 668.629 148.318 664.023C148.318 659.416 146.39 656.953 144.839 654.971C143.53 653.295 142.582 652.086 142.582 649.36C142.582 646.636 143.53 645.426 144.839 643.75C146.39 641.771 148.318 639.305 148.318 634.7C148.318 630.094 146.39 627.547 144.839 625.567C143.549 623.919 142.611 622.627 142.582 620V619.948C142.611 617.321 143.549 616.03 144.839 614.381C146.39 612.401 148.318 609.853 148.318 605.249C148.318 600.643 146.39 598.176 144.839 596.197C143.53 594.522 142.582 593.311 142.582 590.587C142.582 587.862 143.53 586.652 144.839 584.977C149.95 578.443 149.213 575.358 144.839 569.767C143.53 568.092 142.582 566.881 142.582 564.157C142.582 561.432 143.53 560.222 144.839 558.547C146.39 556.568 148.318 554.1 148.318 549.495C148.318 544.891 146.39 542.343 144.839 540.362C143.549 538.715 142.611 537.423 142.582 534.796V534.744C142.611 532.117 143.549 530.826 144.839 529.178C146.39 527.197 148.318 524.649 148.318 520.044C148.318 515.439 146.39 512.973 144.839 510.993C143.53 509.318 142.582 508.108 142.582 505.383C142.582 502.658 143.53 501.448 144.839 499.773C146.39 497.792 148.318 495.328 148.318 490.721C148.318 486.115 146.39 483.651 144.839 481.67C143.53 479.995 142.582 478.785 142.582 476.058C142.582 473.333 143.53 472.122 144.839 470.448C146.39 468.466 148.318 466.081 148.318 461.397V461.382C148.318 456.698 146.39 454.313 144.839 452.331C143.53 450.657 142.582 449.446 142.582 446.72C142.582 443.993 143.53 442.784 144.839 441.108C146.39 439.127 148.318 436.664 148.318 432.057C148.318 427.45 146.39 424.987 144.839 423.006C143.53 421.33 142.582 420.121 142.582 417.395C142.582 414.671 143.53 413.46 144.839 411.785C145.675 410.718 146.62 409.51 147.314 407.902H145.847C146.962 406.351 148.024 404.415 148.266 401.461C147.95 397.644 146.24 395.391 144.839 393.601C143.549 391.953 142.611 390.661 142.582 388.034V387.982C142.587 387.555 142.615 387.163 142.666 386.799C142.61 386.404 142.582 385.973 142.582 385.496C142.582 382.77 143.53 381.56 144.839 379.885C146.246 378.087 147.964 375.892 148.27 372.058C147.964 368.225 146.246 366.028 144.839 364.232C143.53 362.557 142.582 361.346 142.582 358.622C142.582 358.176 142.607 357.77 142.655 357.397C142.607 357.023 142.582 356.617 142.582 356.171C142.582 353.447 143.53 352.236 144.839 350.561C146.003 349.076 147.379 347.317 147.994 344.584L147.964 340.755C148.108 341.363 148.214 342.02 148.271 342.733C148.302 342.342 148.318 341.936 148.318 341.51C148.318 336.905 146.39 334.358 144.839 332.377C143.549 330.73 142.611 329.438 142.582 326.811V326.758C142.611 324.131 143.549 322.84 144.839 321.192C146.39 319.211 148.318 316.664 148.318 312.06C148.318 307.454 146.39 304.987 144.839 303.008C143.53 301.333 142.582 300.122 142.582 297.398C142.582 294.673 143.53 293.462 144.839 291.787C149.95 285.254 149.213 282.168 144.839 276.578C143.53 274.903 142.582 273.692 142.582 270.968C142.582 268.243 143.53 267.033 144.839 265.357C146.39 263.378 148.318 260.911 148.318 256.306C148.318 251.702 146.39 249.154 144.839 247.173C143.549 245.525 142.611 244.234 142.582 241.607V241.555C142.611 238.928 143.549 237.637 144.839 235.988C146.39 234.008 148.318 231.459 148.318 226.855C148.318 222.249 146.39 219.784 144.839 217.804C143.53 216.129 142.582 214.918 142.582 212.194C142.582 209.468 143.53 208.259 144.839 206.584C146.39 204.602 148.318 202.139 148.318 197.532C148.318 192.926 146.39 190.462 144.839 188.481C143.53 186.805 142.582 185.596 142.582 182.869C142.582 180.144 143.53 178.933 144.839 177.259C146.39 175.276 148.318 172.892 148.318 168.207V168.193C148.318 163.509 146.39 161.124 144.839 159.141C143.53 157.467 142.582 156.256 142.582 153.531C142.582 150.804 143.53 149.595 144.839 147.919C146.39 145.938 148.318 143.474 148.318 138.868C148.318 134.261 146.39 131.798 144.839 129.816C143.53 128.141 142.582 126.932 142.582 124.206C142.582 121.482 143.53 120.271 144.839 118.596C146.39 116.617 148.318 114.15 148.318 109.545C148.318 104.94 146.39 102.392 144.839 100.412C143.549 98.764 142.611 97.4724 142.582 94.8448V94.7932C142.611 92.166 143.549 90.8749 144.839 89.2261C146.39 87.246 148.318 84.6985 148.318 80.0939C148.318 75.4882 146.39 73.0215 144.839 71.0423C143.53 69.3673 142.582 68.1566 142.582 65.4323C142.582 62.7076 143.53 61.4969 144.839 59.8218C146.39 57.8401 148.318 55.3762 148.318 50.7701C148.318 49.5649 148.187 48.5071 147.964 47.5658L147.97 3.03253H171.969Z" fill="#CCCCCC"/>
<path d="M171.969 3.03255V279.531V282.037V344.758V407.902V572.721V575.226V701.091H145.847C147.116 699.326 148.318 697.06 148.318 693.362V693.347C148.318 688.663 146.39 686.278 144.839 684.296C143.53 682.622 142.582 681.411 142.582 678.686C142.582 675.959 143.53 674.75 144.839 673.074C146.39 671.093 148.318 668.629 148.318 664.023C148.318 659.416 146.39 656.953 144.839 654.971C143.53 653.295 142.582 652.086 142.582 649.36C142.582 646.636 143.53 645.426 144.839 643.75C146.39 641.771 148.318 639.305 148.318 634.7C148.318 630.094 146.39 627.547 144.839 625.567C143.549 623.919 142.611 622.627 142.582 620V619.948C142.611 617.321 143.549 616.03 144.839 614.381C146.39 612.401 148.318 609.853 148.318 605.249C148.318 600.643 146.39 598.176 144.839 596.197C143.53 594.522 142.582 593.311 142.582 590.587C142.582 587.862 143.53 586.652 144.839 584.977C149.95 578.443 149.213 575.358 144.839 569.767C143.53 568.092 142.582 566.881 142.582 564.157C142.582 561.432 143.53 560.222 144.839 558.547C146.39 556.568 148.318 554.1 148.318 549.495C148.318 544.891 146.39 542.343 144.839 540.362C143.549 538.715 142.611 537.423 142.582 534.796V534.744C142.611 532.117 143.549 530.826 144.839 529.178C146.39 527.197 148.318 524.649 148.318 520.044C148.318 515.439 146.39 512.973 144.839 510.993C143.53 509.318 142.582 508.108 142.582 505.383C142.582 502.658 143.53 501.448 144.839 499.773C146.39 497.791 148.318 495.328 148.318 490.721C148.318 486.115 146.39 483.651 144.839 481.67C143.53 479.995 142.582 478.785 142.582 476.058C142.582 473.333 143.53 472.122 144.839 470.448C146.39 468.466 148.318 466.081 148.318 461.397V461.382C148.318 456.698 146.39 454.313 144.839 452.331C143.53 450.657 142.582 449.446 142.582 446.72C142.582 443.993 143.53 442.784 144.839 441.108C146.39 439.127 148.318 436.664 148.318 432.057C148.318 427.45 146.39 424.987 144.839 423.006C143.53 421.33 142.582 420.121 142.582 417.395C142.582 414.671 143.53 413.46 144.839 411.785C145.675 410.718 146.62 409.51 147.314 407.902H145.847C146.962 406.351 148.024 404.415 148.266 401.461C147.95 397.644 146.24 395.391 144.839 393.601C143.549 391.953 142.611 390.661 142.582 388.034V387.982C142.587 387.555 142.615 387.163 142.666 386.799C142.61 386.404 142.582 385.973 142.582 385.496C142.582 382.77 143.53 381.56 144.839 379.885C146.246 378.087 147.964 375.892 148.27 372.058C147.964 368.225 146.246 366.028 144.839 364.232C143.53 362.557 142.582 361.346 142.582 358.622C142.582 358.176 142.607 357.77 142.655 357.397C142.607 357.023 142.582 356.617 142.582 356.171C142.582 353.447 143.53 352.236 144.839 350.561C146.003 349.076 147.379 347.317 147.994 344.584L147.964 340.755C148.108 341.363 148.214 342.02 148.271 342.733C148.302 342.342 148.318 341.936 148.318 341.51C148.318 336.905 146.39 334.358 144.839 332.377C143.549 330.73 142.611 329.438 142.582 326.811V326.758C142.611 324.131 143.549 322.84 144.839 321.192C146.39 319.211 148.318 316.664 148.318 312.06C148.318 307.454 146.39 304.987 144.839 303.008C143.53 301.333 142.582 300.122 142.582 297.398C142.582 294.673 143.53 293.462 144.839 291.787C149.95 285.254 149.213 282.168 144.839 276.578C143.53 274.903 142.582 273.692 142.582 270.968C142.582 268.243 143.53 267.033 144.839 265.357C146.39 263.378 148.318 260.911 148.318 256.306C148.318 251.702 146.39 249.154 144.839 247.173C143.549 245.525 142.611 244.234 142.582 241.607V241.555C142.611 238.928 143.549 237.637 144.839 235.988C146.39 234.008 148.318 231.459 148.318 226.855C148.318 222.249 146.39 219.784 144.839 217.804C143.53 216.129 142.582 214.918 142.582 212.194C142.582 209.468 143.53 208.259 144.839 206.584C146.39 204.602 148.318 202.139 148.318 197.532C148.318 192.926 146.39 190.462 144.839 188.481C143.53 186.805 142.582 185.596 142.582 182.869C142.582 180.144 143.53 178.933 144.839 177.259C146.39 175.276 148.318 172.892 148.318 168.207V168.193C148.318 163.509 146.39 161.124 144.839 159.141C143.53 157.467 142.582 156.256 142.582 153.531C142.582 150.804 143.53 149.595 144.839 147.919C146.39 145.938 148.318 143.474 148.318 138.868C148.318 134.261 146.39 131.798 144.839 129.816C143.53 128.141 142.582 126.932 142.582 124.206C142.582 121.482 143.53 120.271 144.839 118.596C146.39 116.616 148.318 114.15 148.318 109.545C148.318 104.94 146.39 102.392 144.839 100.412C143.549 98.764 142.611 97.4724 142.582 94.8449V94.7932C142.611 92.166 143.549 90.8749 144.839 89.2262C146.39 87.246 148.318 84.6985 148.318 80.0939C148.318 75.4882 146.39 73.0216 144.839 71.0423C143.53 69.3673 142.582 68.1566 142.582 65.4322C142.582 62.7076 143.53 61.4969 144.839 59.8218C146.39 57.8401 148.318 55.3763 148.318 50.7701C148.318 49.5649 148.187 48.5072 147.964 47.5658L147.97 3.03255H171.969Z" stroke="#757EB3" stroke-miterlimit="22.9256"/>
<path fill-rule="evenodd" clip-rule="evenodd" d="M143.169 338.308H152.965V3.03152H143.169V338.308Z" fill="#FFEC08"/>
<path d="M143.169 338.308H152.965V3.03153H143.169V338.308Z" stroke="#757EB3" stroke-miterlimit="22.9256"/>
<path fill-rule="evenodd" clip-rule="evenodd" d="M143.169 338.307H152.965V364.476H143.169V338.307Z" fill="#E3000F"/>
<path d="M143.169 338.307H152.965V364.476H143.169V338.307Z" stroke="#757EB3" stroke-miterlimit="22.9256"/>
<path fill-rule="evenodd" clip-rule="evenodd" d="M143.169 3.03061V8.1431V71.2863V236.106V238.611V364.476H117.046C118.315 362.71 119.518 360.445 119.518 356.747V356.732C119.518 352.048 117.589 349.663 116.039 347.681C114.729 346.007 113.781 344.796 113.781 342.07C113.781 339.344 114.729 338.134 116.039 336.459C117.589 334.478 119.518 332.014 119.518 327.408C119.518 322.801 117.589 320.337 116.039 318.356C114.729 316.68 113.781 315.471 113.781 312.745C113.781 310.021 114.729 308.81 116.039 307.135C117.589 305.156 119.518 302.69 119.518 298.084C119.518 293.479 117.589 290.932 116.039 288.952C114.749 287.304 113.81 286.012 113.781 283.385V283.333C113.81 280.705 114.749 279.414 116.039 277.766C117.589 275.786 119.518 273.238 119.518 268.634C119.518 264.028 117.589 261.561 116.039 259.582C114.729 257.907 113.781 256.696 113.781 253.972C113.781 251.247 114.729 250.036 116.039 248.361C121.15 241.828 120.412 238.742 116.039 233.152C114.729 231.477 113.781 230.266 113.781 227.542C113.781 224.817 114.729 223.607 116.039 221.931C117.589 219.952 119.518 217.485 119.518 212.88C119.518 208.276 117.589 205.728 116.039 203.747C114.749 202.099 113.81 200.808 113.781 198.181V198.129C113.81 195.502 114.749 194.211 116.039 192.562C117.589 190.582 119.518 188.033 119.518 183.429C119.518 178.823 117.589 176.358 116.039 174.378C114.729 172.703 113.781 171.492 113.781 168.768C113.781 166.042 114.729 164.833 116.039 163.158C117.589 161.176 119.518 158.713 119.518 154.106C119.518 149.5 117.589 147.036 116.039 145.055C114.729 143.379 113.781 142.17 113.781 139.443C113.781 136.718 114.729 135.507 116.039 133.833C117.589 131.85 119.518 129.466 119.518 124.781V124.767C119.518 120.083 117.589 117.698 116.039 115.715C114.729 114.041 113.781 112.831 113.781 110.105C113.781 107.378 114.729 106.169 116.039 104.493C117.589 102.512 119.518 100.049 119.518 95.4421C119.518 90.8353 117.589 88.372 116.039 86.3903C114.729 84.7146 113.781 83.5055 113.781 80.7798C113.781 78.0555 114.729 76.8449 116.039 75.1698C116.874 74.103 117.819 72.8948 118.514 71.2863H117.046C118.161 69.7362 119.223 67.7996 119.466 64.8456C119.149 61.0286 117.439 58.7758 116.039 56.9859C114.749 55.3382 113.81 54.0465 113.781 51.4191V51.3672C113.786 50.9395 113.815 50.5478 113.865 50.1839C113.81 49.7891 113.781 49.3579 113.781 48.8809C113.781 46.1541 114.729 44.9451 116.039 43.2696C117.445 41.4714 119.164 39.2767 119.47 35.4431C119.164 31.6095 117.445 29.4124 116.039 27.6165C114.729 25.9414 113.781 24.7306 113.781 22.0063C113.781 21.5601 113.807 21.1552 113.855 20.7814C113.807 20.4077 113.781 20.002 113.781 19.556C113.781 16.8317 114.729 15.6211 116.039 13.9461C117.202 12.4605 118.578 10.7016 119.193 7.9693C119.183 6.64575 119.153 2.13235 119.47 6.11783C119.501 5.72717 119.518 5.32089 119.518 4.89514C119.518 4.23251 119.477 3.61221 119.404 3.03061H143.169Z" fill="#CCCCCC"/>
<path d="M143.169 3.0306V8.1431V71.2863V236.106V238.611V364.476H117.046C118.315 362.71 119.518 360.445 119.518 356.747V356.732C119.518 352.048 117.589 349.663 116.039 347.681C114.729 346.007 113.781 344.796 113.781 342.07C113.781 339.344 114.729 338.134 116.039 336.459C117.589 334.478 119.518 332.014 119.518 327.408C119.518 322.801 117.589 320.337 116.039 318.356C114.729 316.68 113.781 315.471 113.781 312.745C113.781 310.021 114.729 308.81 116.039 307.135C117.589 305.156 119.518 302.69 119.518 298.084C119.518 293.479 117.589 290.932 116.039 288.952C114.749 287.304 113.81 286.012 113.781 283.385V283.333C113.81 280.705 114.749 279.414 116.039 277.766C117.589 275.786 119.518 273.238 119.518 268.634C119.518 264.028 117.589 261.561 116.039 259.582C114.729 257.907 113.781 256.696 113.781 253.972C113.781 251.247 114.729 250.036 116.039 248.361C121.15 241.828 120.412 238.742 116.039 233.152C114.729 231.477 113.781 230.266 113.781 227.542C113.781 224.817 114.729 223.607 116.039 221.931C117.589 219.952 119.518 217.485 119.518 212.88C119.518 208.276 117.589 205.728 116.039 203.747C114.749 202.099 113.81 200.808 113.781 198.181V198.129C113.81 195.502 114.749 194.211 116.039 192.562C117.589 190.582 119.518 188.033 119.518 183.429C119.518 178.823 117.589 176.358 116.039 174.378C114.729 172.703 113.781 171.492 113.781 168.768C113.781 166.042 114.729 164.833 116.039 163.158C117.589 161.176 119.518 158.713 119.518 154.106C119.518 149.5 117.589 147.036 116.039 145.055C114.729 143.379 113.781 142.17 113.781 139.443C113.781 136.718 114.729 135.507 116.039 133.833C117.589 131.85 119.518 129.466 119.518 124.781V124.767C119.518 120.083 117.589 117.698 116.039 115.715C114.729 114.041 113.781 112.831 113.781 110.105C113.781 107.378 114.729 106.169 116.039 104.493C117.589 102.512 119.518 100.049 119.518 95.4422C119.518 90.8353 117.589 88.372 116.039 86.3903C114.729 84.7146 113.781 83.5055 113.781 80.7798C113.781 78.0555 114.729 76.8449 116.039 75.1698C116.874 74.103 117.819 72.8948 118.514 71.2863H117.046C118.161 69.7362 119.223 67.7996 119.466 64.8456C119.149 61.0286 117.439 58.7758 116.039 56.9859C114.749 55.3382 113.81 54.0465 113.781 51.4191V51.3672C113.786 50.9396 113.815 50.5478 113.865 50.1839C113.81 49.7891 113.781 49.3579 113.781 48.8809C113.781 46.1541 114.729 44.9451 116.039 43.2695C117.445 41.4714 119.164 39.2767 119.47 35.4431C119.164 31.6095 117.445 29.4125 116.039 27.6165C114.729 25.9414 113.781 24.7306 113.781 22.0063C113.781 21.5601 113.807 21.1552 113.855 20.7814C113.807 20.4077 113.781 20.002 113.781 19.556C113.781 16.8317 114.729 15.6211 116.039 13.9461C117.202 12.4605 118.578 10.7016 119.193 7.9693C119.183 6.64576 119.153 2.13236 119.47 6.11784C119.501 5.72717 119.518 5.32088 119.518 4.89514C119.518 4.2325 119.477 3.6122 119.404 3.0306H143.169Z" stroke="#757EB3" stroke-miterlimit="22.9256"/>
<path fill-rule="evenodd" clip-rule="evenodd" d="M113.15 128.446H122.946V3.02805H113.15V128.446Z" fill="#FFEC08"/>
<path d="M113.15 128.446H122.946V3.02805H113.15V128.446Z" stroke="#757EB3" stroke-miterlimit="22.9256"/>
<path fill-rule="evenodd" clip-rule="evenodd" d="M113.15 128.449H122.946V154.618H113.15V128.449Z" fill="#E3000F"/>
<path d="M113.15 128.449H122.946V154.618H113.15V128.449Z" stroke="#757EB3" stroke-miterlimit="22.9256"/>
<path fill-rule="evenodd" clip-rule="evenodd" d="M113.15 3.03104V26.2481V28.7532V154.618H87.0277C88.2966 152.853 89.499 150.588 89.499 146.889V146.875C89.499 142.191 87.5704 139.805 86.0201 137.823C84.7104 136.149 83.7627 134.939 83.7627 132.213C83.7627 129.486 84.7104 128.277 86.0201 126.601C87.5704 124.62 89.499 122.157 89.499 117.55C89.499 112.943 87.5704 110.48 86.0201 108.498C84.7104 106.823 83.7627 105.614 83.7627 102.888C83.7627 100.164 84.7104 98.9528 86.0201 97.2778C87.5704 95.2985 89.499 92.8328 89.499 88.2272C89.499 83.6216 87.5704 81.0741 86.0201 79.0939C84.7301 77.4464 83.7916 76.1543 83.7627 73.5271V73.4752C83.7916 70.848 84.7301 69.5569 86.0201 67.9082C87.5704 65.9281 89.499 63.3808 89.499 58.7762C89.499 54.1703 87.5704 51.7036 86.0201 49.7244C84.7104 48.0494 83.7627 46.8388 83.7627 44.1143C83.7627 41.3898 84.7104 40.1788 86.0201 38.5038C91.1312 31.9701 90.3935 28.8851 86.0201 23.2946C84.7104 21.6196 83.7627 20.4087 83.7627 17.6845C83.7627 14.9599 84.7104 13.7497 86.0201 12.074C87.5693 10.0961 89.4966 7.63043 89.499 3.03104H113.15Z" fill="#CCCCCC"/>
<path d="M113.15 3.03104V26.2481V28.7532V154.618H87.0277C88.2966 152.853 89.499 150.588 89.499 146.889V146.875C89.499 142.191 87.5704 139.805 86.0201 137.823C84.7104 136.149 83.7627 134.939 83.7627 132.213C83.7627 129.486 84.7104 128.277 86.0201 126.601C87.5704 124.62 89.499 122.157 89.499 117.55C89.499 112.943 87.5704 110.48 86.0201 108.498C84.7104 106.823 83.7627 105.614 83.7627 102.888C83.7627 100.164 84.7104 98.9528 86.0201 97.2778C87.5704 95.2985 89.499 92.8328 89.499 88.2272C89.499 83.6216 87.5704 81.0741 86.0201 79.0939C84.7301 77.4464 83.7916 76.1543 83.7627 73.5271V73.4752C83.7916 70.848 84.7301 69.5569 86.0201 67.9082C87.5704 65.9281 89.499 63.3808 89.499 58.7762C89.499 54.1703 87.5704 51.7036 86.0201 49.7244C84.7104 48.0494 83.7627 46.8388 83.7627 44.1143C83.7627 41.3898 84.7104 40.1788 86.0201 38.5038C91.1312 31.9701 90.3935 28.8851 86.0201 23.2946C84.7104 21.6196 83.7627 20.4087 83.7627 17.6845C83.7627 14.9599 84.7104 13.7497 86.0201 12.074C87.5693 10.0962 89.4966 7.63043 89.499 3.03104H113.15Z" stroke="#757EB3" stroke-miterlimit="22.9256"/>
<path fill-rule="evenodd" clip-rule="evenodd" d="M113.15 3.03034H122.946V29.1992H113.15V3.03034Z" fill="#00963F"/>
<path d="M113.15 3.03034H122.946V29.1992H113.15V3.03034Z" stroke="#757EB3" stroke-miterlimit="22.9256"/>
<path fill-rule="evenodd" clip-rule="evenodd" d="M81.3867 3.03034H91.1825V29.1992H81.3867V3.03034Z" fill="#E3000F"/>
<path d="M81.3867 3.03034H91.1825V29.1992H81.3867V3.03034Z" stroke="#757EB3" stroke-miterlimit="22.9256"/>
<path fill-rule="evenodd" clip-rule="evenodd" d="M81.3872 3.02992V29.1992H55.2649C56.5341 27.434 57.7365 25.1689 57.7365 21.4705V21.4557C57.7365 16.772 55.8077 14.3867 54.2574 12.4045C52.9479 10.7304 52 9.5197 52 6.794C52 5.1204 52.3571 4.01929 52.9356 3.02992H81.3872Z" fill="#CCCCCC"/>
<path d="M81.3872 3.02992V29.1992H55.2649C56.5341 27.434 57.7365 25.1689 57.7365 21.4705V21.4557C57.7365 16.772 55.8077 14.3867 54.2574 12.4045C52.9479 10.7304 52 9.5197 52 6.794C52 5.1204 52.3571 4.01929 52.9356 3.02992H81.3872Z" stroke="#757EB3" stroke-miterlimit="22.9256"/>
<path fill-rule="evenodd" clip-rule="evenodd" d="M277.19 650.547H267.395V3.02832H277.19V650.547Z" fill="#FFEC08"/>
<path d="M277.19 650.547H267.395V3.0283H277.19V650.547Z" stroke="#757EB3" stroke-miterlimit="22.9256"/>
<path fill-rule="evenodd" clip-rule="evenodd" d="M277.19 650.551H267.395V701.091H277.19V650.551Z" fill="#00963F"/>
<path d="M277.19 650.551H267.395V701.091H277.19V650.551Z" stroke="#757EB3" stroke-miterlimit="22.9256"/>
<path fill-rule="evenodd" clip-rule="evenodd" d="M277.209 3.03253V279.531V282.037V344.758V407.902V572.721V575.226V701.091H303.331C302.062 699.326 300.86 697.06 300.86 693.362V693.347C300.86 688.663 302.789 686.278 304.339 684.296C305.649 682.622 306.596 681.411 306.596 678.686C306.596 675.959 305.649 674.75 304.339 673.074C302.789 671.093 300.86 668.629 300.86 664.023C300.86 659.416 302.789 656.953 304.339 654.971C305.649 653.295 306.596 652.086 306.596 649.36C306.596 646.636 305.649 645.426 304.339 643.75C302.789 641.771 300.86 639.305 300.86 634.7C300.86 630.094 302.789 627.547 304.339 625.567C305.629 623.919 306.567 622.627 306.596 620V619.948C306.567 617.321 305.629 616.03 304.339 614.381C302.789 612.401 300.86 609.853 300.86 605.249C300.86 600.643 302.789 598.176 304.339 596.197C305.649 594.522 306.596 593.311 306.596 590.587C306.596 587.862 305.649 586.652 304.339 584.977C299.228 578.443 299.965 575.358 304.339 569.767C305.649 568.092 306.596 566.881 306.596 564.157C306.596 561.432 305.649 560.222 304.339 558.547C302.789 556.568 300.86 554.1 300.86 549.495C300.86 544.891 302.789 542.343 304.339 540.362C305.629 538.715 306.567 537.423 306.596 534.796V534.744C306.567 532.117 305.629 530.826 304.339 529.178C302.789 527.197 300.86 524.649 300.86 520.044C300.86 515.439 302.789 512.973 304.339 510.993C305.649 509.318 306.596 508.108 306.596 505.383C306.596 502.658 305.649 501.448 304.339 499.773C302.789 497.792 300.86 495.328 300.86 490.721C300.86 486.115 302.789 483.651 304.339 481.67C305.649 479.995 306.596 478.785 306.596 476.058C306.596 473.333 305.649 472.122 304.339 470.448C302.789 468.466 300.86 466.081 300.86 461.397V461.382C300.86 456.698 302.789 454.313 304.339 452.331C305.649 450.657 306.596 449.446 306.596 446.72C306.596 443.993 305.649 442.784 304.339 441.108C302.789 439.127 300.86 436.664 300.86 432.057C300.86 427.45 302.789 424.987 304.339 423.006C305.649 421.33 306.596 420.121 306.596 417.395C306.596 414.671 305.649 413.46 304.339 411.785C303.503 410.718 302.558 409.51 301.864 407.902H303.331C302.216 406.351 301.154 404.415 300.912 401.461C301.228 397.644 302.938 395.391 304.339 393.601C305.629 391.953 306.567 390.661 306.596 388.034V387.982C306.591 387.555 306.563 387.163 306.512 386.799C306.568 386.404 306.596 385.973 306.596 385.496C306.596 382.77 305.649 381.56 304.339 379.885C302.932 378.087 301.214 375.892 300.908 372.058C301.214 368.225 302.932 366.028 304.339 364.232C305.649 362.557 306.596 361.346 306.596 358.622C306.596 358.176 306.571 357.77 306.523 357.397C306.571 357.023 306.596 356.617 306.596 356.171C306.596 353.447 305.649 352.236 304.339 350.561C303.176 349.076 301.799 347.317 301.185 344.584L301.214 340.755C301.07 341.363 300.964 342.02 300.907 342.733C300.876 342.342 300.86 341.936 300.86 341.51C300.86 336.905 302.789 334.358 304.339 332.377C305.629 330.73 306.567 329.438 306.596 326.811V326.758C306.567 324.131 305.629 322.84 304.339 321.192C302.789 319.211 300.86 316.664 300.86 312.06C300.86 307.454 302.789 304.987 304.339 303.008C305.649 301.333 306.596 300.122 306.596 297.398C306.596 294.673 305.649 293.462 304.339 291.787C299.228 285.254 299.965 282.168 304.339 276.578C305.649 274.903 306.596 273.692 306.596 270.968C306.596 268.243 305.649 267.033 304.339 265.357C302.789 263.378 300.86 260.911 300.86 256.306C300.86 251.702 302.789 249.154 304.339 247.173C305.629 245.525 306.567 244.234 306.596 241.607V241.555C306.567 238.928 305.629 237.637 304.339 235.988C302.789 234.008 300.86 231.459 300.86 226.855C300.86 222.249 302.789 219.784 304.339 217.804C305.649 216.129 306.596 214.918 306.596 212.194C306.596 209.468 305.649 208.259 304.339 206.584C302.789 204.602 300.86 202.139 300.86 197.532C300.86 192.926 302.789 190.462 304.339 188.481C305.649 186.805 306.596 185.596 306.596 182.869C306.596 180.144 305.649 178.933 304.339 177.259C302.789 175.276 300.86 172.892 300.86 168.207V168.193C300.86 163.509 302.789 161.124 304.339 159.141C305.649 157.467 306.596 156.256 306.596 153.531C306.596 150.804 305.649 149.595 304.339 147.919C302.789 145.938 300.86 143.474 300.86 138.868C300.86 134.261 302.789 131.798 304.339 129.816C305.649 128.141 306.596 126.932 306.596 124.206C306.596 121.482 305.649 120.271 304.339 118.596C302.789 116.617 300.86 114.15 300.86 109.545C300.86 104.94 302.789 102.392 304.339 100.412C305.629 98.764 306.567 97.4724 306.596 94.8448V94.7932C306.567 92.166 305.629 90.8749 304.339 89.2261C302.789 87.246 300.86 84.6985 300.86 80.0939C300.86 75.4882 302.789 73.0215 304.339 71.0423C305.649 69.3673 306.596 68.1566 306.596 65.4323C306.596 62.7076 305.649 61.4969 304.339 59.8218C302.789 57.8401 300.86 55.3762 300.86 50.7701C300.86 49.5649 300.992 48.5071 301.214 47.5658L301.209 3.03253H277.209Z" fill="#CCCCCC"/>
<path d="M277.209 3.03255V279.531V282.037V344.758V407.902V572.721V575.226V701.091H303.331C302.062 699.326 300.86 697.06 300.86 693.362V693.347C300.86 688.663 302.789 686.278 304.339 684.296C305.649 682.622 306.596 681.411 306.596 678.686C306.596 675.959 305.649 674.75 304.339 673.074C302.789 671.093 300.86 668.629 300.86 664.023C300.86 659.416 302.789 656.953 304.339 654.971C305.649 653.295 306.596 652.086 306.596 649.36C306.596 646.636 305.649 645.426 304.339 643.75C302.789 641.771 300.86 639.305 300.86 634.7C300.86 630.094 302.789 627.547 304.339 625.567C305.629 623.919 306.567 622.627 306.596 620V619.948C306.567 617.321 305.629 616.03 304.339 614.381C302.789 612.401 300.86 609.853 300.86 605.249C300.86 600.643 302.789 598.176 304.339 596.197C305.649 594.522 306.596 593.311 306.596 590.587C306.596 587.862 305.649 586.652 304.339 584.977C299.228 578.443 299.965 575.358 304.339 569.767C305.649 568.092 306.596 566.881 306.596 564.157C306.596 561.432 305.649 560.222 304.339 558.547C302.789 556.568 300.86 554.1 300.86 549.495C300.86 544.891 302.789 542.343 304.339 540.362C305.629 538.715 306.567 537.423 306.596 534.796V534.744C306.567 532.117 305.629 530.826 304.339 529.178C302.789 527.197 300.86 524.649 300.86 520.044C300.86 515.439 302.789 512.973 304.339 510.993C305.649 509.318 306.596 508.108 306.596 505.383C306.596 502.658 305.649 501.448 304.339 499.773C302.789 497.791 300.86 495.328 300.86 490.721C300.86 486.115 302.789 483.651 304.339 481.67C305.649 479.995 306.596 478.785 306.596 476.058C306.596 473.333 305.649 472.122 304.339 470.448C302.789 468.466 300.86 466.081 300.86 461.397V461.382C300.86 456.698 302.789 454.313 304.339 452.331C305.649 450.657 306.596 449.446 306.596 446.72C306.596 443.993 305.649 442.784 304.339 441.108C302.789 439.127 300.86 436.664 300.86 432.057C300.86 427.45 302.789 424.987 304.339 423.006C305.649 421.33 306.596 420.121 306.596 417.395C306.596 414.671 305.649 413.46 304.339 411.785C303.503 410.718 302.558 409.51 301.864 407.902H303.331C302.216 406.351 301.154 404.415 300.912 401.461C301.228 397.644 302.938 395.391 304.339 393.601C305.629 391.953 306.567 390.661 306.596 388.034V387.982C306.591 387.555 306.563 387.163 306.512 386.799C306.568 386.404 306.596 385.973 306.596 385.496C306.596 382.77 305.649 381.56 304.339 379.885C302.932 378.087 301.214 375.892 300.908 372.058C301.214 368.225 302.932 366.028 304.339 364.232C305.649 362.557 306.596 361.346 306.596 358.622C306.596 358.176 306.571 357.77 306.523 357.397C306.571 357.023 306.596 356.617 306.596 356.171C306.596 353.447 305.649 352.236 304.339 350.561C303.176 349.076 301.799 347.317 301.185 344.584L301.214 340.755C301.07 341.363 300.964 342.02 300.907 342.733C300.876 342.342 300.86 341.936 300.86 341.51C300.86 336.905 302.789 334.358 304.339 332.377C305.629 330.73 306.567 329.438 306.596 326.811V326.758C306.567 324.131 305.629 322.84 304.339 321.192C302.789 319.211 300.86 316.664 300.86 312.06C300.86 307.454 302.789 304.987 304.339 303.008C305.649 301.333 306.596 300.122 306.596 297.398C306.596 294.673 305.649 293.462 304.339 291.787C299.228 285.254 299.965 282.168 304.339 276.578C305.649 274.903 306.596 273.692 306.596 270.968C306.596 268.243 305.649 267.033 304.339 265.357C302.789 263.378 300.86 260.911 300.86 256.306C300.86 251.702 302.789 249.154 304.339 247.173C305.629 245.525 306.567 244.234 306.596 241.607V241.555C306.567 238.928 305.629 237.637 304.339 235.988C302.789 234.008 300.86 231.459 300.86 226.855C300.86 222.249 302.789 219.784 304.339 217.804C305.649 216.129 306.596 214.918 306.596 212.194C306.596 209.468 305.649 208.259 304.339 206.584C302.789 204.602 300.86 202.139 300.86 197.532C300.86 192.926 302.789 190.462 304.339 188.481C305.649 186.805 306.596 185.596 306.596 182.869C306.596 180.144 305.649 178.933 304.339 177.259C302.789 175.276 300.86 172.892 300.86 168.207V168.193C300.86 163.509 302.789 161.124 304.339 159.141C305.649 157.467 306.596 156.256 306.596 153.531C306.596 150.804 305.649 149.595 304.339 147.919C302.789 145.938 300.86 143.474 300.86 138.868C300.86 134.261 302.789 131.798 304.339 129.816C305.649 128.141 306.596 126.932 306.596 124.206C306.596 121.482 305.649 120.271 304.339 118.596C302.789 116.616 300.86 114.15 300.86 109.545C300.86 104.94 302.789 102.392 304.339 100.412C305.629 98.764 306.567 97.4724 306.596 94.8449V94.7932C306.567 92.166 305.629 90.8749 304.339 89.2262C302.789 87.246 300.86 84.6985 300.86 80.0939C300.86 75.4882 302.789 73.0216 304.339 71.0423C305.649 69.3673 306.596 68.1566 306.596 65.4322C306.596 62.7076 305.649 61.4969 304.339 59.8218C302.789 57.8401 300.86 55.3763 300.86 50.7701C300.86 49.5649 300.992 48.5072 301.214 47.5658L301.209 3.03255H277.209Z" stroke="#757EB3" stroke-miterlimit="22.9256"/>
<path fill-rule="evenodd" clip-rule="evenodd" d="M306.01 338.308H296.214V3.03152H306.01V338.308Z" fill="#FFEC08"/>
<path d="M306.01 338.308H296.214V3.03153H306.01V338.308Z" stroke="#757EB3" stroke-miterlimit="22.9256"/>
<path fill-rule="evenodd" clip-rule="evenodd" d="M306.01 338.307H296.214V364.476H306.01V338.307Z" fill="#E3000F"/>
<path d="M306.01 338.307H296.214V364.476H306.01V338.307Z" stroke="#757EB3" stroke-miterlimit="22.9256"/>
<path fill-rule="evenodd" clip-rule="evenodd" d="M306.01 3.03061V8.1431V71.2863V236.106V238.611V364.476H332.132C330.863 362.71 329.661 360.445 329.661 356.747V356.732C329.661 352.048 331.589 349.663 333.14 347.681C334.449 346.007 335.397 344.796 335.397 342.07C335.397 339.344 334.449 338.134 333.14 336.459C331.589 334.478 329.661 332.014 329.661 327.408C329.661 322.801 331.589 320.337 333.14 318.356C334.449 316.68 335.397 315.471 335.397 312.745C335.397 310.021 334.449 308.81 333.14 307.135C331.589 305.156 329.661 302.69 329.661 298.084C329.661 293.479 331.589 290.932 333.14 288.952C334.43 287.304 335.368 286.012 335.397 283.385V283.333C335.368 280.705 334.43 279.414 333.14 277.766C331.589 275.786 329.661 273.238 329.661 268.634C329.661 264.028 331.589 261.561 333.14 259.582C334.449 257.907 335.397 256.696 335.397 253.972C335.397 251.247 334.449 250.036 333.14 248.361C328.029 241.828 328.766 238.742 333.14 233.152C334.449 231.477 335.397 230.266 335.397 227.542C335.397 224.817 334.449 223.607 333.14 221.931C331.589 219.952 329.661 217.485 329.661 212.88C329.661 208.276 331.589 205.728 333.14 203.747C334.43 202.099 335.368 200.808 335.397 198.181V198.129C335.368 195.502 334.43 194.211 333.14 192.562C331.589 190.582 329.661 188.033 329.661 183.429C329.661 178.823 331.589 176.358 333.14 174.378C334.449 172.703 335.397 171.492 335.397 168.768C335.397 166.042 334.449 164.833 333.14 163.158C331.589 161.176 329.661 158.713 329.661 154.106C329.661 149.5 331.589 147.036 333.14 145.055C334.449 143.379 335.397 142.17 335.397 139.443C335.397 136.718 334.449 135.507 333.14 133.833C331.589 131.85 329.661 129.466 329.661 124.781V124.767C329.661 120.083 331.589 117.698 333.14 115.715C334.449 114.041 335.397 112.831 335.397 110.105C335.397 107.378 334.449 106.169 333.14 104.493C331.589 102.512 329.661 100.049 329.661 95.4421C329.661 90.8353 331.589 88.372 333.14 86.3903C334.449 84.7146 335.397 83.5055 335.397 80.7798C335.397 78.0555 334.449 76.8449 333.14 75.1698C332.304 74.103 331.359 72.8948 330.665 71.2863H332.132C331.017 69.7362 329.955 67.7996 329.713 64.8456C330.029 61.0286 331.739 58.7758 333.14 56.9859C334.43 55.3382 335.368 54.0465 335.397 51.4191V51.3672C335.392 50.9395 335.364 50.5478 335.313 50.1839C335.368 49.7891 335.397 49.3579 335.397 48.8809C335.397 46.1541 334.449 44.9451 333.14 43.2696C331.733 41.4714 330.015 39.2767 329.709 35.4431C330.015 31.6095 331.733 29.4124 333.14 27.6165C334.449 25.9414 335.397 24.7306 335.397 22.0063C335.397 21.5601 335.371 21.1552 335.323 20.7814C335.371 20.4077 335.397 20.002 335.397 19.556C335.397 16.8317 334.449 15.6211 333.14 13.9461C331.976 12.4605 330.6 10.7016 329.985 7.9693C329.996 6.64575 330.025 2.13235 329.708 6.11783C329.677 5.72717 329.661 5.32089 329.661 4.89514C329.661 4.23251 329.701 3.61221 329.774 3.03061H306.01Z" fill="#CCCCCC"/>
<path d="M306.01 3.0306V8.1431V71.2863V236.106V238.611V364.476H332.132C330.863 362.71 329.661 360.445 329.661 356.747V356.732C329.661 352.048 331.589 349.663 333.14 347.681C334.449 346.007 335.397 344.796 335.397 342.07C335.397 339.344 334.449 338.134 333.14 336.459C331.589 334.478 329.661 332.014 329.661 327.408C329.661 322.801 331.589 320.337 333.14 318.356C334.449 316.68 335.397 315.471 335.397 312.745C335.397 310.021 334.449 308.81 333.14 307.135C331.589 305.156 329.661 302.69 329.661 298.084C329.661 293.479 331.589 290.932 333.14 288.952C334.43 287.304 335.368 286.012 335.397 283.385V283.333C335.368 280.705 334.43 279.414 333.14 277.766C331.589 275.786 329.661 273.238 329.661 268.634C329.661 264.028 331.589 261.561 333.14 259.582C334.449 257.907 335.397 256.696 335.397 253.972C335.397 251.247 334.449 250.036 333.14 248.361C328.029 241.828 328.766 238.742 333.14 233.152C334.449 231.477 335.397 230.266 335.397 227.542C335.397 224.817 334.449 223.607 333.14 221.931C331.589 219.952 329.661 217.485 329.661 212.88C329.661 208.276 331.589 205.728 333.14 203.747C334.43 202.099 335.368 200.808 335.397 198.181V198.129C335.368 195.502 334.43 194.211 333.14 192.562C331.589 190.582 329.661 188.033 329.661 183.429C329.661 178.823 331.589 176.358 333.14 174.378C334.449 172.703 335.397 171.492 335.397 168.768C335.397 166.042 334.449 164.833 333.14 163.158C331.589 161.176 329.661 158.713 329.661 154.106C329.661 149.5 331.589 147.036 333.14 145.055C334.449 143.379 335.397 142.17 335.397 139.443C335.397 136.718 334.449 135.507 333.14 133.833C331.589 131.85 329.661 129.466 329.661 124.781V124.767C329.661 120.083 331.589 117.698 333.14 115.715C334.449 114.041 335.397 112.831 335.397 110.105C335.397 107.378 334.449 106.169 333.14 104.493C331.589 102.512 329.661 100.049 329.661 95.4422C329.661 90.8353 331.589 88.372 333.14 86.3903C334.449 84.7146 335.397 83.5055 335.397 80.7798C335.397 78.0555 334.449 76.8449 333.14 75.1698C332.304 74.103 331.359 72.8948 330.665 71.2863H332.132C331.017 69.7362 329.955 67.7996 329.713 64.8456C330.029 61.0286 331.739 58.7758 333.14 56.9859C334.43 55.3382 335.368 54.0465 335.397 51.4191V51.3672C335.392 50.9396 335.364 50.5478 335.313 50.1839C335.368 49.7891 335.397 49.3579 335.397 48.8809C335.397 46.1541 334.449 44.9451 333.14 43.2695C331.733 41.4714 330.015 39.2767 329.709 35.4431C330.015 31.6095 331.733 29.4125 333.14 27.6165C334.449 25.9414 335.397 24.7306 335.397 22.0063C335.397 21.5601 335.371 21.1552 335.323 20.7814C335.371 20.4077 335.397 20.002 335.397 19.556C335.397 16.8317 334.449 15.6211 333.14 13.9461C331.976 12.4605 330.6 10.7016 329.985 7.9693C329.996 6.64576 330.025 2.13236 329.708 6.11784C329.677 5.72717 329.661 5.32088 329.661 4.89514C329.661 4.2325 329.701 3.6122 329.774 3.0306H306.01Z" stroke="#757EB3" stroke-miterlimit="22.9256"/>
<path fill-rule="evenodd" clip-rule="evenodd" d="M336.027 128.446H326.231V3.02805H336.027V128.446Z" fill="#FFEC08"/>
<path d="M336.027 128.446H326.231V3.02805H336.027V128.446Z" stroke="#757EB3" stroke-miterlimit="22.9256"/>
<path fill-rule="evenodd" clip-rule="evenodd" d="M336.027 128.449H326.231V154.618H336.027V128.449Z" fill="#E3000F"/>
<path d="M336.027 128.449H326.231V154.618H336.027V128.449Z" stroke="#757EB3" stroke-miterlimit="22.9256"/>
<path fill-rule="evenodd" clip-rule="evenodd" d="M336.028 3.03104V26.2481V28.7532V154.618H362.151C360.882 152.853 359.679 150.588 359.679 146.889V146.875C359.679 142.191 361.608 139.805 363.158 137.823C364.468 136.149 365.415 134.939 365.415 132.213C365.415 129.486 364.468 128.277 363.158 126.601C361.608 124.62 359.679 122.157 359.679 117.55C359.679 112.943 361.608 110.48 363.158 108.498C364.468 106.823 365.415 105.614 365.415 102.888C365.415 100.164 364.468 98.9528 363.158 97.2778C361.608 95.2985 359.679 92.8328 359.679 88.2272C359.679 83.6216 361.608 81.0741 363.158 79.0939C364.448 77.4464 365.387 76.1543 365.415 73.5271V73.4752C365.387 70.848 364.448 69.5569 363.158 67.9082C361.608 65.9281 359.679 63.3808 359.679 58.7762C359.679 54.1703 361.608 51.7036 363.158 49.7244C364.468 48.0494 365.415 46.8388 365.415 44.1143C365.415 41.3898 364.468 40.1788 363.158 38.5038C358.047 31.9701 358.785 28.8851 363.158 23.2946C364.468 21.6196 365.415 20.4087 365.415 17.6845C365.415 14.9599 364.468 13.7497 363.158 12.074C361.609 10.0961 359.681 7.63043 359.679 3.03104H336.028Z" fill="#CCCCCC"/>
<path d="M336.028 3.03104V26.2481V28.7532V154.618H362.151C360.882 152.853 359.679 150.588 359.679 146.889V146.875C359.679 142.191 361.608 139.805 363.158 137.823C364.468 136.149 365.415 134.939 365.415 132.213C365.415 129.486 364.468 128.277 363.158 126.601C361.608 124.62 359.679 122.157 359.679 117.55C359.679 112.943 361.608 110.48 363.158 108.498C364.468 106.823 365.415 105.614 365.415 102.888C365.415 100.164 364.468 98.9528 363.158 97.2778C361.608 95.2985 359.679 92.8328 359.679 88.2272C359.679 83.6216 361.608 81.0741 363.158 79.0939C364.448 77.4464 365.387 76.1543 365.415 73.5271V73.4752C365.387 70.848 364.448 69.5569 363.158 67.9082C361.608 65.9281 359.679 63.3808 359.679 58.7762C359.679 54.1703 361.608 51.7036 363.158 49.7244C364.468 48.0494 365.415 46.8388 365.415 44.1143C365.415 41.3898 364.468 40.1788 363.158 38.5038C358.047 31.9701 358.785 28.8851 363.158 23.2946C364.468 21.6196 365.415 20.4087 365.415 17.6845C365.415 14.9599 364.468 13.7497 363.158 12.074C361.609 10.0962 359.681 7.63043 359.679 3.03104H336.028Z" stroke="#757EB3" stroke-miterlimit="22.9256"/>
<path fill-rule="evenodd" clip-rule="evenodd" d="M336.027 3.03034H326.231V29.1992H336.027V3.03034Z" fill="#00963F"/>
<path d="M336.027 3.03034H326.231V29.1992H336.027V3.03034Z" stroke="#757EB3" stroke-miterlimit="22.9256"/>
<path fill-rule="evenodd" clip-rule="evenodd" d="M367.792 3.03034H357.996V29.1992H367.792V3.03034Z" fill="#E3000F"/>
<path d="M367.792 3.03034H357.996V29.1992H367.792V3.03034Z" stroke="#757EB3" stroke-miterlimit="22.9256"/>
<path fill-rule="evenodd" clip-rule="evenodd" d="M367.791 3.02992V29.1992H393.913C392.644 27.434 391.442 25.1689 391.442 21.4705V21.4557C391.442 16.772 393.371 14.3867 394.921 12.4045C396.231 10.7304 397.178 9.5197 397.178 6.794C397.178 5.1204 396.821 4.01929 396.243 3.02992H367.791Z" fill="#CCCCCC"/>
<path d="M367.791 3.02992V29.1992H393.913C392.644 27.434 391.442 25.1689 391.442 21.4705V21.4557C391.442 16.772 393.371 14.3867 394.921 12.4045C396.231 10.7304 397.178 9.5197 397.178 6.794C397.178 5.1204 396.821 4.01929 396.243 3.02992H367.791Z" stroke="#757EB3" stroke-miterlimit="22.9256"/>
<path fill-rule="evenodd" clip-rule="evenodd" d="M267 688V701.348H278.616L267 688Z" fill="#272953"/>
<path fill-rule="evenodd" clip-rule="evenodd" d="M182.616 688V701.348H171L182.616 688Z" fill="#272953"/>
<path d="M330 155.271H445.574" stroke="#454D7D" stroke-width="2" stroke-miterlimit="22.9256"/>
<path d="M306 365.028L446 365.028" stroke="#454D7D" stroke-width="2" stroke-miterlimit="22.9256"/>
<path d="M272 702.028L446 702.028" stroke="#454D7D" stroke-width="2" stroke-miterlimit="22.9256"/>
<path d="M358 30.2705H473.574" stroke="#454D7D" stroke-width="2" stroke-miterlimit="22.9256"/>
<path d="M113.637 128.218L31.0001 100.189" stroke="#454D7D" stroke-width="2" stroke-miterlimit="22.9256"/>
<path d="M142.637 338.218L60.0001 310.189" stroke="#454D7D" stroke-width="2" stroke-miterlimit="22.9256"/>
<path d="M176.637 584.218L94.0001 556.189" stroke="#454D7D" stroke-width="2" stroke-miterlimit="22.9256"/>
<path d="M83.6367 29.2178L1.00006 1.189" stroke="#454D7D" stroke-width="2" stroke-miterlimit="22.9256"/>
</svg>
