<svg width="550" height="911" viewBox="0 0 550 911" fill="none" xmlns="http://www.w3.org/2000/svg">
<path d="M463 24.6504L549.363 1.16068" stroke="#454D7D" stroke-width="2" stroke-miterlimit="22.9256"/>
<path d="M397 289.84L483.363 266.35" stroke="#454D7D" stroke-width="2" stroke-miterlimit="22.9256"/>
<path d="M333 804.84L419.363 781.35" stroke="#454D7D" stroke-width="2" stroke-miterlimit="22.9256"/>
<path d="M429 119.84L515.363 96.3501" stroke="#454D7D" stroke-width="2" stroke-miterlimit="22.9256"/>
<path fill-rule="evenodd" clip-rule="evenodd" d="M204.934 19.1926V485.6V488.105V550.827V613.97V778.789V781.294V907.159H178.812C180.081 905.394 181.283 903.129 181.283 899.43V899.416C181.283 894.732 179.354 892.347 177.804 890.364C176.495 888.69 175.547 887.48 175.547 884.754C175.547 882.027 176.495 880.818 177.804 879.142C179.354 877.161 181.283 874.698 181.283 870.091C181.283 865.484 179.354 863.021 177.804 861.039C176.495 859.364 175.547 858.154 175.547 855.429C175.547 852.705 176.495 851.494 177.804 849.819C179.354 847.84 181.283 845.374 181.283 840.768C181.283 836.163 179.354 833.615 177.804 831.635C176.514 829.987 175.576 828.695 175.547 826.068V826.016C175.576 823.389 176.514 822.098 177.804 820.449C179.354 818.469 181.283 815.922 181.283 811.317C181.283 806.711 179.354 804.245 177.804 802.266C176.495 800.59 175.547 799.38 175.547 796.656C175.547 793.931 176.495 792.72 177.804 791.045C182.915 784.511 182.178 781.426 177.804 775.835C176.495 774.161 175.547 772.95 175.547 770.226C175.547 767.501 176.495 766.291 177.804 764.615C179.354 762.636 181.283 760.169 181.283 755.563C181.283 750.959 179.354 748.412 177.804 746.431C176.514 744.783 175.576 743.492 175.547 740.864V740.812C175.576 738.186 176.514 736.894 177.804 735.246C179.354 733.265 181.283 730.717 181.283 726.112C181.283 721.507 179.354 719.041 177.804 717.062C176.495 715.387 175.547 714.176 175.547 711.452C175.547 708.726 176.495 707.517 177.804 705.842C179.354 703.86 181.283 701.396 181.283 696.79C181.283 692.184 179.354 689.719 177.804 687.738C176.495 686.063 175.547 684.853 175.547 682.127C175.547 679.402 176.495 678.191 177.804 676.517C179.354 674.534 181.283 672.149 181.283 667.465V667.45C181.283 662.766 179.354 660.381 177.804 658.399C176.495 656.725 175.547 655.514 175.547 652.789C175.547 650.062 176.495 648.853 177.804 647.177C179.354 645.196 181.283 642.732 181.283 638.126C181.283 633.519 179.354 631.056 177.804 629.074C176.495 627.399 175.547 626.189 175.547 623.463C175.547 620.739 176.495 619.529 177.804 617.854C178.64 616.787 179.585 615.578 180.279 613.97H178.812C179.926 612.42 180.989 610.483 181.231 607.529C180.915 603.712 179.205 601.459 177.804 599.67C176.514 598.022 175.576 596.73 175.547 594.103V594.051C175.552 593.623 175.58 593.232 175.631 592.867C175.575 592.473 175.547 592.042 175.547 591.565C175.547 588.838 176.495 587.629 177.804 585.953C179.211 584.155 180.929 581.96 181.235 578.127C180.929 574.293 179.211 572.096 177.804 570.3C176.495 568.625 175.547 567.414 175.547 564.69C175.547 564.244 175.572 563.839 175.62 563.465C175.572 563.091 175.547 562.686 175.547 562.24C175.547 559.515 176.495 558.305 177.804 556.63C178.968 555.144 180.344 553.385 180.959 550.653L180.929 546.824C181.073 547.431 181.179 548.088 181.236 548.801C181.267 548.411 181.283 548.004 181.283 547.579C181.283 542.973 179.354 540.426 177.804 538.446C176.514 536.798 175.576 535.506 175.547 532.879V532.827C175.576 530.2 176.514 528.909 177.804 527.26C179.354 525.28 181.283 522.732 181.283 518.128C181.283 513.522 179.354 511.056 177.804 509.076C176.495 507.401 175.547 506.19 175.547 503.466C175.547 500.742 176.495 499.531 177.804 497.856C182.915 491.322 182.178 488.237 177.804 482.646C176.495 480.971 175.547 479.761 175.547 477.037C175.547 474.312 176.495 473.101 177.804 471.426C179.354 469.447 181.283 466.98 181.283 462.374C181.283 457.77 179.354 455.222 177.804 453.242C176.514 451.594 175.576 450.302 175.547 447.675V447.623C175.576 444.996 176.514 443.705 177.804 442.057C179.354 440.076 181.283 437.528 181.283 432.923C181.283 428.318 179.354 425.852 177.804 423.873C176.495 422.197 175.547 420.987 175.547 418.263C175.547 415.537 176.495 414.327 177.804 412.652C179.354 410.671 181.283 408.207 181.283 403.601C181.283 398.994 179.354 396.53 177.804 394.549C176.495 392.874 175.547 391.664 175.547 388.937C175.547 386.212 176.495 385.001 177.804 383.327C179.354 381.345 181.283 378.96 181.283 374.276V374.261C181.283 369.577 179.354 367.192 177.804 365.21C176.495 363.536 175.547 362.325 175.547 359.599C175.547 356.873 176.495 355.663 177.804 353.988C179.354 352.007 181.283 349.543 181.283 344.937C181.283 340.329 179.354 337.866 177.804 335.885C176.495 334.209 175.547 333 175.547 330.274C175.547 327.55 176.495 326.339 177.804 324.664C179.354 322.685 181.283 320.219 181.283 315.614C181.283 311.008 179.354 308.461 177.804 306.48C176.514 304.833 175.576 303.541 175.547 300.913V300.862C175.576 298.234 176.514 296.943 177.804 295.295C179.354 293.314 181.283 290.767 181.283 286.163C181.283 281.556 179.354 279.09 177.804 277.111C176.495 275.436 175.547 274.225 175.547 271.501C175.547 268.776 176.495 267.565 177.804 265.89C179.354 263.908 181.283 261.445 181.283 256.839C181.283 255.634 181.151 254.576 180.929 253.634L180.96 19.1926H204.934Z" fill="#E6E6E6"/>
<path d="M204.934 19.1926V485.6V488.105V550.827V613.97V778.789V781.294V907.159H178.812C180.081 905.394 181.283 903.129 181.283 899.43V899.416C181.283 894.732 179.354 892.347 177.804 890.364C176.495 888.69 175.547 887.48 175.547 884.754C175.547 882.027 176.495 880.818 177.804 879.142C179.354 877.161 181.283 874.698 181.283 870.091C181.283 865.484 179.354 863.021 177.804 861.039C176.495 859.364 175.547 858.154 175.547 855.429C175.547 852.705 176.495 851.494 177.804 849.819C179.354 847.84 181.283 845.374 181.283 840.768C181.283 836.163 179.354 833.615 177.804 831.635C176.514 829.987 175.576 828.695 175.547 826.068V826.016C175.576 823.389 176.514 822.098 177.804 820.449C179.354 818.469 181.283 815.922 181.283 811.317C181.283 806.711 179.354 804.245 177.804 802.266C176.495 800.59 175.547 799.38 175.547 796.656C175.547 793.931 176.495 792.72 177.804 791.045C182.915 784.511 182.178 781.426 177.804 775.835C176.495 774.161 175.547 772.95 175.547 770.226C175.547 767.501 176.495 766.291 177.804 764.615C179.354 762.636 181.283 760.169 181.283 755.563C181.283 750.959 179.354 748.412 177.804 746.431C176.514 744.783 175.576 743.492 175.547 740.864V740.812C175.576 738.186 176.514 736.894 177.804 735.246C179.354 733.265 181.283 730.717 181.283 726.112C181.283 721.507 179.354 719.041 177.804 717.062C176.495 715.387 175.547 714.176 175.547 711.452C175.547 708.726 176.495 707.517 177.804 705.842C179.354 703.86 181.283 701.396 181.283 696.79C181.283 692.184 179.354 689.719 177.804 687.738C176.495 686.063 175.547 684.853 175.547 682.127C175.547 679.402 176.495 678.191 177.804 676.517C179.354 674.534 181.283 672.149 181.283 667.465V667.45C181.283 662.766 179.354 660.381 177.804 658.399C176.495 656.725 175.547 655.514 175.547 652.789C175.547 650.062 176.495 648.853 177.804 647.177C179.354 645.196 181.283 642.732 181.283 638.126C181.283 633.519 179.354 631.056 177.804 629.074C176.495 627.399 175.547 626.189 175.547 623.463C175.547 620.739 176.495 619.529 177.804 617.854C178.64 616.787 179.585 615.578 180.279 613.97H178.812C179.926 612.42 180.989 610.483 181.231 607.529C180.915 603.712 179.205 601.459 177.804 599.67C176.514 598.022 175.576 596.73 175.547 594.103V594.051C175.552 593.623 175.58 593.232 175.631 592.867C175.575 592.473 175.547 592.042 175.547 591.565C175.547 588.838 176.495 587.629 177.804 585.953C179.211 584.155 180.929 581.96 181.235 578.127C180.929 574.293 179.211 572.096 177.804 570.3C176.495 568.625 175.547 567.414 175.547 564.69C175.547 564.244 175.572 563.839 175.62 563.465C175.572 563.091 175.547 562.686 175.547 562.24C175.547 559.515 176.495 558.305 177.804 556.63C178.968 555.144 180.344 553.385 180.959 550.653L180.929 546.824C181.073 547.431 181.179 548.088 181.236 548.801C181.267 548.411 181.283 548.004 181.283 547.579C181.283 542.973 179.354 540.426 177.804 538.446C176.514 536.798 175.576 535.506 175.547 532.879V532.827C175.576 530.2 176.514 528.909 177.804 527.26C179.354 525.28 181.283 522.732 181.283 518.128C181.283 513.522 179.354 511.056 177.804 509.076C176.495 507.401 175.547 506.19 175.547 503.466C175.547 500.742 176.495 499.531 177.804 497.856C182.915 491.322 182.178 488.237 177.804 482.646C176.495 480.971 175.547 479.761 175.547 477.037C175.547 474.312 176.495 473.101 177.804 471.426C179.354 469.447 181.283 466.98 181.283 462.374C181.283 457.77 179.354 455.222 177.804 453.242C176.514 451.594 175.576 450.302 175.547 447.675V447.623C175.576 444.996 176.514 443.705 177.804 442.057C179.354 440.076 181.283 437.528 181.283 432.923C181.283 428.318 179.354 425.852 177.804 423.873C176.495 422.197 175.547 420.987 175.547 418.263C175.547 415.537 176.495 414.327 177.804 412.652C179.354 410.671 181.283 408.207 181.283 403.601C181.283 398.994 179.354 396.53 177.804 394.549C176.495 392.874 175.547 391.664 175.547 388.937C175.547 386.212 176.495 385.001 177.804 383.327C179.354 381.345 181.283 378.96 181.283 374.276V374.261C181.283 369.577 179.354 367.192 177.804 365.21C176.495 363.536 175.547 362.325 175.547 359.599C175.547 356.873 176.495 355.663 177.804 353.988C179.354 352.007 181.283 349.543 181.283 344.937C181.283 340.329 179.354 337.866 177.804 335.885C176.495 334.209 175.547 333 175.547 330.274C175.547 327.55 176.495 326.339 177.804 324.664C179.354 322.685 181.283 320.219 181.283 315.614C181.283 311.008 179.354 308.461 177.804 306.48C176.514 304.833 175.576 303.541 175.547 300.913V300.862C175.576 298.234 176.514 296.943 177.804 295.295C179.354 293.314 181.283 290.767 181.283 286.163C181.283 281.556 179.354 279.09 177.804 277.111C176.495 275.436 175.547 274.225 175.547 271.501C175.547 268.776 176.495 267.565 177.804 265.89C179.354 263.908 181.283 261.445 181.283 256.839C181.283 255.634 181.151 254.576 180.929 253.634L180.96 19.1926H204.934Z" stroke="#757EB3" stroke-miterlimit="22.9256"/>
<path fill-rule="evenodd" clip-rule="evenodd" d="M205.506 907.188H215.302V19.191H205.506V907.188Z" fill="#FFEC08"/>
<path d="M205.506 907.188H215.302V19.191H205.506V907.188Z" stroke="#757EB3" stroke-miterlimit="22.9256"/>
<path fill-rule="evenodd" clip-rule="evenodd" d="M171.988 666.708H181.784V19.1894H171.988V666.708Z" fill="#FFEC08"/>
<path d="M171.988 666.708H181.784V19.1894H171.988V666.708Z" stroke="#757EB3" stroke-miterlimit="22.9256"/>
<path fill-rule="evenodd" clip-rule="evenodd" d="M171.988 666.712H181.784V717.252H171.988V666.712Z" fill="#00963F"/>
<path d="M171.988 666.712H181.784V717.252H171.988V666.712Z" stroke="#757EB3" stroke-miterlimit="22.9256"/>
<path fill-rule="evenodd" clip-rule="evenodd" d="M171.969 19.1937V295.692V298.198V360.919V424.063V588.882V591.387V717.252H145.847C147.116 715.487 148.318 713.221 148.318 709.523V709.508C148.318 704.825 146.39 702.439 144.839 700.457C143.53 698.783 142.582 697.572 142.582 694.847C142.582 692.12 143.53 690.911 144.839 689.235C146.39 687.254 148.318 684.79 148.318 680.184C148.318 675.577 146.39 673.114 144.839 671.132C143.53 669.457 142.582 668.247 142.582 665.522C142.582 662.797 143.53 661.587 144.839 659.911C146.39 657.932 148.318 655.466 148.318 650.861C148.318 646.255 146.39 643.708 144.839 641.728C143.549 640.08 142.611 638.788 142.582 636.161V636.109C142.611 633.482 143.549 632.191 144.839 630.542C146.39 628.562 148.318 626.014 148.318 621.41C148.318 616.804 146.39 614.337 144.839 612.358C143.53 610.683 142.582 609.472 142.582 606.748C142.582 604.023 143.53 602.813 144.839 601.138C149.95 594.604 149.213 591.519 144.839 585.928C143.53 584.253 142.582 583.043 142.582 580.318C142.582 577.594 143.53 576.383 144.839 574.708C146.39 572.729 148.318 570.262 148.318 565.656C148.318 561.052 146.39 558.504 144.839 556.524C143.549 554.876 142.611 553.584 142.582 550.957V550.905C142.611 548.278 143.549 546.987 144.839 545.339C146.39 543.358 148.318 540.81 148.318 536.205C148.318 531.6 146.39 529.134 144.839 527.154C143.53 525.479 142.582 524.269 142.582 521.545C142.582 518.819 143.53 517.609 144.839 515.934C146.39 513.953 148.318 511.489 148.318 506.883C148.318 502.276 146.39 499.812 144.839 497.831C143.53 496.156 142.582 494.946 142.582 492.219C142.582 489.494 143.53 488.284 144.839 486.609C146.39 484.627 148.318 482.242 148.318 477.558V477.543C148.318 472.859 146.39 470.474 144.839 468.492C143.53 466.818 142.582 465.607 142.582 462.881C142.582 460.155 143.53 458.945 144.839 457.27C146.39 455.289 148.318 452.825 148.318 448.219C148.318 443.612 146.39 441.148 144.839 439.167C143.53 437.491 142.582 436.282 142.582 433.556C142.582 430.832 143.53 429.621 144.839 427.946C145.675 426.879 146.62 425.671 147.314 424.063H145.847C146.962 422.512 148.024 420.576 148.266 417.622C147.95 413.805 146.24 411.552 144.839 409.762C143.549 408.114 142.611 406.822 142.582 404.195V404.144C142.587 403.716 142.615 403.324 142.666 402.96C142.61 402.565 142.582 402.134 142.582 401.657C142.582 398.931 143.53 397.721 144.839 396.046C146.246 394.248 147.964 392.053 148.27 388.22C147.964 384.386 146.246 382.189 144.839 380.393C143.53 378.718 142.582 377.507 142.582 374.783C142.582 374.337 142.607 373.932 142.655 373.558C142.607 373.184 142.582 372.778 142.582 372.332C142.582 369.608 143.53 368.397 144.839 366.722C146.003 365.237 147.379 363.478 147.994 360.745L147.964 356.916C148.108 357.524 148.214 358.181 148.271 358.894C148.302 358.504 148.318 358.097 148.318 357.672C148.318 353.066 146.39 350.519 144.839 348.538C143.549 346.891 142.611 345.599 142.582 342.972V342.92C142.611 340.292 143.549 339.001 144.839 337.353C146.39 335.372 148.318 332.825 148.318 328.221C148.318 323.615 146.39 321.148 144.839 319.169C143.53 317.494 142.582 316.283 142.582 313.559C142.582 310.834 143.53 309.624 144.839 307.948C149.95 301.415 149.213 298.33 144.839 292.739C143.53 291.064 142.582 289.853 142.582 287.129C142.582 284.404 143.53 283.194 144.839 281.519C146.39 279.539 148.318 277.072 148.318 272.467C148.318 267.863 146.39 265.315 144.839 263.334C143.549 261.687 142.611 260.395 142.582 257.768V257.716C142.611 255.089 143.549 253.798 144.839 252.15C146.39 250.169 148.318 247.62 148.318 243.016C148.318 238.41 146.39 235.945 144.839 233.965C143.53 232.29 142.582 231.079 142.582 228.355C142.582 225.63 143.53 224.42 144.839 222.745C146.39 220.764 148.318 218.3 148.318 213.693C148.318 209.087 146.39 206.623 144.839 204.642C143.53 202.967 142.582 201.757 142.582 199.03C142.582 196.305 143.53 195.094 144.839 193.42C146.39 191.437 148.318 189.053 148.318 184.368V184.354C148.318 179.67 146.39 177.285 144.839 175.303C143.53 173.628 142.582 172.418 142.582 169.692C142.582 166.965 143.53 165.756 144.839 164.08C146.39 162.099 148.318 159.636 148.318 155.029C148.318 150.422 146.39 147.959 144.839 145.977C143.53 144.302 142.582 143.093 142.582 140.367C142.582 137.643 143.53 136.432 144.839 134.757C146.39 132.778 148.318 130.311 148.318 125.706C148.318 121.101 146.39 118.553 144.839 116.573C143.549 114.925 142.611 113.634 142.582 111.006V110.954C142.611 108.327 143.549 107.036 144.839 105.387C146.39 103.407 148.318 100.86 148.318 96.2551C148.318 91.6493 146.39 89.1827 144.839 87.2034C143.53 85.5284 142.582 84.3177 142.582 81.5934C142.582 78.8687 143.53 77.6581 144.839 75.9829C146.39 74.0012 148.318 71.5374 148.318 66.9313C148.318 65.7261 148.187 64.6683 147.964 63.727L147.97 19.1937H171.969Z" fill="#CCCCCC"/>
<path d="M171.969 19.1937V295.692V298.198V360.919V424.063V588.882V591.387V717.252H145.847C147.116 715.487 148.318 713.221 148.318 709.523V709.508C148.318 704.825 146.39 702.439 144.839 700.457C143.53 698.783 142.582 697.572 142.582 694.847C142.582 692.12 143.53 690.911 144.839 689.235C146.39 687.254 148.318 684.79 148.318 680.184C148.318 675.577 146.39 673.114 144.839 671.132C143.53 669.457 142.582 668.247 142.582 665.522C142.582 662.797 143.53 661.587 144.839 659.911C146.39 657.932 148.318 655.466 148.318 650.861C148.318 646.255 146.39 643.708 144.839 641.728C143.549 640.08 142.611 638.788 142.582 636.161V636.109C142.611 633.482 143.549 632.191 144.839 630.542C146.39 628.562 148.318 626.014 148.318 621.41C148.318 616.804 146.39 614.337 144.839 612.358C143.53 610.683 142.582 609.472 142.582 606.748C142.582 604.023 143.53 602.813 144.839 601.138C149.95 594.604 149.213 591.519 144.839 585.928C143.53 584.253 142.582 583.043 142.582 580.318C142.582 577.594 143.53 576.383 144.839 574.708C146.39 572.729 148.318 570.262 148.318 565.656C148.318 561.052 146.39 558.504 144.839 556.524C143.549 554.876 142.611 553.584 142.582 550.957V550.905C142.611 548.278 143.549 546.987 144.839 545.339C146.39 543.358 148.318 540.81 148.318 536.205C148.318 531.6 146.39 529.134 144.839 527.154C143.53 525.479 142.582 524.269 142.582 521.545C142.582 518.819 143.53 517.609 144.839 515.934C146.39 513.953 148.318 511.489 148.318 506.883C148.318 502.276 146.39 499.812 144.839 497.831C143.53 496.156 142.582 494.946 142.582 492.219C142.582 489.494 143.53 488.284 144.839 486.609C146.39 484.627 148.318 482.242 148.318 477.558V477.543C148.318 472.859 146.39 470.474 144.839 468.492C143.53 466.818 142.582 465.607 142.582 462.881C142.582 460.155 143.53 458.945 144.839 457.27C146.39 455.289 148.318 452.825 148.318 448.219C148.318 443.612 146.39 441.148 144.839 439.167C143.53 437.491 142.582 436.282 142.582 433.556C142.582 430.832 143.53 429.621 144.839 427.946C145.675 426.879 146.62 425.671 147.314 424.063H145.847C146.962 422.512 148.024 420.576 148.266 417.622C147.95 413.805 146.24 411.552 144.839 409.762C143.549 408.114 142.611 406.822 142.582 404.195V404.144C142.587 403.716 142.615 403.324 142.666 402.96C142.61 402.565 142.582 402.134 142.582 401.657C142.582 398.931 143.53 397.721 144.839 396.046C146.246 394.248 147.964 392.053 148.27 388.22C147.964 384.386 146.246 382.189 144.839 380.393C143.53 378.718 142.582 377.507 142.582 374.783C142.582 374.337 142.607 373.932 142.655 373.558C142.607 373.184 142.582 372.778 142.582 372.332C142.582 369.608 143.53 368.397 144.839 366.722C146.003 365.237 147.379 363.478 147.994 360.745L147.964 356.916C148.108 357.524 148.214 358.181 148.271 358.894C148.302 358.504 148.318 358.097 148.318 357.672C148.318 353.066 146.39 350.519 144.839 348.538C143.549 346.891 142.611 345.599 142.582 342.972V342.92C142.611 340.292 143.549 339.001 144.839 337.353C146.39 335.372 148.318 332.825 148.318 328.221C148.318 323.615 146.39 321.148 144.839 319.169C143.53 317.494 142.582 316.283 142.582 313.559C142.582 310.834 143.53 309.624 144.839 307.948C149.95 301.415 149.213 298.33 144.839 292.739C143.53 291.064 142.582 289.853 142.582 287.129C142.582 284.404 143.53 283.194 144.839 281.519C146.39 279.539 148.318 277.072 148.318 272.467C148.318 267.863 146.39 265.315 144.839 263.334C143.549 261.687 142.611 260.395 142.582 257.768V257.716C142.611 255.089 143.549 253.798 144.839 252.15C146.39 250.169 148.318 247.62 148.318 243.016C148.318 238.41 146.39 235.945 144.839 233.965C143.53 232.29 142.582 231.079 142.582 228.355C142.582 225.63 143.53 224.42 144.839 222.745C146.39 220.764 148.318 218.3 148.318 213.693C148.318 209.087 146.39 206.623 144.839 204.642C143.53 202.967 142.582 201.757 142.582 199.03C142.582 196.305 143.53 195.094 144.839 193.42C146.39 191.437 148.318 189.053 148.318 184.368V184.354C148.318 179.67 146.39 177.285 144.839 175.303C143.53 173.628 142.582 172.418 142.582 169.692C142.582 166.965 143.53 165.756 144.839 164.08C146.39 162.099 148.318 159.636 148.318 155.029C148.318 150.422 146.39 147.959 144.839 145.977C143.53 144.302 142.582 143.093 142.582 140.367C142.582 137.643 143.53 136.432 144.839 134.757C146.39 132.778 148.318 130.311 148.318 125.706C148.318 121.101 146.39 118.553 144.839 116.573C143.549 114.925 142.611 113.634 142.582 111.006V110.954C142.611 108.327 143.549 107.036 144.839 105.387C146.39 103.407 148.318 100.86 148.318 96.2551C148.318 91.6493 146.39 89.1827 144.839 87.2034C143.53 85.5284 142.582 84.3177 142.582 81.5934C142.582 78.8687 143.53 77.6581 144.839 75.9829C146.39 74.0012 148.318 71.5374 148.318 66.9313C148.318 65.7261 148.187 64.6683 147.964 63.727L147.97 19.1937H171.969Z" stroke="#757EB3" stroke-miterlimit="22.9256"/>
<path fill-rule="evenodd" clip-rule="evenodd" d="M143.169 354.469H152.965V19.1927H143.169V354.469Z" fill="#FFEC08"/>
<path d="M143.169 354.469H152.965V19.1927H143.169V354.469Z" stroke="#757EB3" stroke-miterlimit="22.9256"/>
<path fill-rule="evenodd" clip-rule="evenodd" d="M143.169 354.468H152.965V380.637H143.169V354.468Z" fill="#E3000F"/>
<path d="M143.169 354.468H152.965V380.637H143.169V354.468Z" stroke="#757EB3" stroke-miterlimit="22.9256"/>
<path fill-rule="evenodd" clip-rule="evenodd" d="M143.169 19.1917V24.3042V87.4474V252.267V254.772V380.637H117.046C118.315 378.872 119.518 376.606 119.518 372.908V372.893C119.518 368.209 117.589 365.824 116.039 363.842C114.729 362.168 113.781 360.957 113.781 358.231C113.781 355.505 114.729 354.295 116.039 352.62C117.589 350.639 119.518 348.175 119.518 343.569C119.518 338.962 117.589 336.499 116.039 334.517C114.729 332.841 113.781 331.632 113.781 328.906C113.781 326.182 114.729 324.972 116.039 323.297C117.589 321.317 119.518 318.851 119.518 314.246C119.518 309.64 117.589 307.093 116.039 305.113C114.749 303.465 113.81 302.173 113.781 299.546V299.494C113.81 296.866 114.749 295.575 116.039 293.927C117.589 291.947 119.518 289.399 119.518 284.795C119.518 280.189 117.589 277.722 116.039 275.743C114.729 274.068 113.781 272.857 113.781 270.133C113.781 267.408 114.729 266.198 116.039 264.523C121.15 257.989 120.412 254.904 116.039 249.313C114.729 247.638 113.781 246.427 113.781 243.703C113.781 240.979 114.729 239.768 116.039 238.093C117.589 236.113 119.518 233.646 119.518 229.041C119.518 224.437 117.589 221.889 116.039 219.908C114.749 218.261 113.81 216.969 113.781 214.342V214.29C113.81 211.663 114.749 210.372 116.039 208.724C117.589 206.743 119.518 204.195 119.518 199.59C119.518 194.985 117.589 192.519 116.039 190.539C114.729 188.864 113.781 187.653 113.781 184.929C113.781 182.204 114.729 180.994 116.039 179.319C117.589 177.337 119.518 174.874 119.518 170.267C119.518 165.661 117.589 163.197 116.039 161.216C114.729 159.541 113.781 158.331 113.781 155.604C113.781 152.879 114.729 151.668 116.039 149.994C117.589 148.011 119.518 145.627 119.518 140.943V140.928C119.518 136.244 117.589 133.859 116.039 131.877C114.729 130.202 113.781 128.992 113.781 126.266C113.781 123.539 114.729 122.33 116.039 120.655C117.589 118.673 119.518 116.21 119.518 111.603C119.518 106.996 117.589 104.533 116.039 102.551C114.729 100.876 113.781 99.6666 113.781 96.941C113.781 94.2166 114.729 93.0061 116.039 91.3309C116.874 90.2641 117.819 89.0559 118.514 87.4474H117.046C118.161 85.8974 119.223 83.9607 119.466 81.0068C119.149 77.1898 117.439 74.9369 116.039 73.147C114.749 71.4994 113.81 70.2076 113.781 67.5802V67.5283C113.786 67.1007 113.815 66.709 113.865 66.3451C113.81 65.9503 113.781 65.5191 113.781 65.042C113.781 62.3153 114.729 61.1062 116.039 59.4307C117.445 57.6325 119.164 55.4379 119.47 51.6043C119.164 47.7707 117.445 45.5736 116.039 43.7777C114.729 42.1025 113.781 40.8917 113.781 38.1674C113.781 37.7213 113.807 37.3163 113.855 36.9426C113.807 36.5688 113.781 36.1631 113.781 35.7171C113.781 32.9928 114.729 31.7823 116.039 30.1073C117.202 28.6217 118.578 26.8627 119.193 24.1304C119.183 22.8069 119.153 18.2935 119.47 22.279C119.501 21.8883 119.518 21.482 119.518 21.0563C119.518 20.3936 119.477 19.7733 119.404 19.1917H143.169Z" fill="#CCCCCC"/>
<path d="M143.169 19.1917V24.3042V87.4474V252.267V254.772V380.637H117.046C118.315 378.872 119.518 376.606 119.518 372.908V372.893C119.518 368.209 117.589 365.824 116.039 363.842C114.729 362.168 113.781 360.957 113.781 358.231C113.781 355.505 114.729 354.295 116.039 352.62C117.589 350.639 119.518 348.175 119.518 343.569C119.518 338.962 117.589 336.499 116.039 334.517C114.729 332.841 113.781 331.632 113.781 328.906C113.781 326.182 114.729 324.972 116.039 323.297C117.589 321.317 119.518 318.851 119.518 314.246C119.518 309.64 117.589 307.093 116.039 305.113C114.749 303.465 113.81 302.173 113.781 299.546V299.494C113.81 296.866 114.749 295.575 116.039 293.927C117.589 291.947 119.518 289.399 119.518 284.795C119.518 280.189 117.589 277.722 116.039 275.743C114.729 274.068 113.781 272.857 113.781 270.133C113.781 267.408 114.729 266.198 116.039 264.523C121.15 257.989 120.412 254.904 116.039 249.313C114.729 247.638 113.781 246.427 113.781 243.703C113.781 240.979 114.729 239.768 116.039 238.093C117.589 236.113 119.518 233.646 119.518 229.041C119.518 224.437 117.589 221.889 116.039 219.908C114.749 218.261 113.81 216.969 113.781 214.342V214.29C113.81 211.663 114.749 210.372 116.039 208.724C117.589 206.743 119.518 204.195 119.518 199.59C119.518 194.985 117.589 192.519 116.039 190.539C114.729 188.864 113.781 187.653 113.781 184.929C113.781 182.204 114.729 180.994 116.039 179.319C117.589 177.337 119.518 174.874 119.518 170.267C119.518 165.661 117.589 163.197 116.039 161.216C114.729 159.541 113.781 158.331 113.781 155.604C113.781 152.879 114.729 151.668 116.039 149.994C117.589 148.011 119.518 145.627 119.518 140.943V140.928C119.518 136.244 117.589 133.859 116.039 131.877C114.729 130.202 113.781 128.992 113.781 126.266C113.781 123.539 114.729 122.33 116.039 120.655C117.589 118.673 119.518 116.21 119.518 111.603C119.518 106.996 117.589 104.533 116.039 102.551C114.729 100.876 113.781 99.6666 113.781 96.941C113.781 94.2166 114.729 93.0061 116.039 91.3309C116.874 90.2641 117.819 89.0559 118.514 87.4474H117.046C118.161 85.8974 119.223 83.9607 119.466 81.0068C119.149 77.1898 117.439 74.9369 116.039 73.147C114.749 71.4994 113.81 70.2076 113.781 67.5802V67.5283C113.786 67.1007 113.815 66.709 113.865 66.3451C113.81 65.9503 113.781 65.5191 113.781 65.042C113.781 62.3153 114.729 61.1062 116.039 59.4307C117.445 57.6325 119.164 55.4379 119.47 51.6043C119.164 47.7707 117.445 45.5736 116.039 43.7777C114.729 42.1025 113.781 40.8917 113.781 38.1674C113.781 37.7213 113.807 37.3163 113.855 36.9426C113.807 36.5688 113.781 36.1631 113.781 35.7171C113.781 32.9928 114.729 31.7823 116.039 30.1073C117.202 28.6217 118.578 26.8627 119.193 24.1304C119.183 22.8069 119.153 18.2935 119.47 22.279C119.501 21.8883 119.518 21.482 119.518 21.0563C119.518 20.3936 119.477 19.7733 119.404 19.1917H143.169Z" stroke="#757EB3" stroke-miterlimit="22.9256"/>
<path fill-rule="evenodd" clip-rule="evenodd" d="M113.15 144.607H122.946V19.1892H113.15V144.607Z" fill="#FFEC08"/>
<path d="M113.15 144.607H122.946V19.1892H113.15V144.607Z" stroke="#757EB3" stroke-miterlimit="22.9256"/>
<path fill-rule="evenodd" clip-rule="evenodd" d="M113.15 144.61H122.946V170.779H113.15V144.61Z" fill="#E3000F"/>
<path d="M113.15 144.61H122.946V170.779H113.15V144.61Z" stroke="#757EB3" stroke-miterlimit="22.9256"/>
<path fill-rule="evenodd" clip-rule="evenodd" d="M113.15 19.1922V42.4092V44.9143V170.779H87.0277C88.2966 169.014 89.499 166.749 89.499 163.051V163.036C89.499 158.352 87.5704 155.967 86.0201 153.985C84.7104 152.31 83.7627 151.1 83.7627 148.374C83.7627 145.647 84.7104 144.438 86.0201 142.763C87.5704 140.781 89.499 138.318 89.499 133.711C89.499 129.104 87.5704 126.641 86.0201 124.659C84.7104 122.984 83.7627 121.775 83.7627 119.049C83.7627 116.325 84.7104 115.114 86.0201 113.439C87.5704 111.46 89.499 108.994 89.499 104.388C89.499 99.7827 87.5704 97.2352 86.0201 95.2551C84.7301 93.6076 83.7916 92.3155 83.7627 89.6883V89.6364C83.7916 87.0092 84.7301 85.7181 86.0201 84.0693C87.5704 82.0892 89.499 79.5419 89.499 74.9373C89.499 70.3314 87.5704 67.8647 86.0201 65.8855C84.7104 64.2105 83.7627 62.9999 83.7627 60.2754C83.7627 57.5509 84.7104 56.3399 86.0201 54.665C91.1312 48.1312 90.3935 45.0462 86.0201 39.4557C84.7104 37.7807 83.7627 36.5698 83.7627 33.8456C83.7627 31.121 84.7104 29.9108 86.0201 28.2352C87.5693 26.2573 89.4966 23.7916 89.499 19.1922H113.15Z" fill="#CCCCCC"/>
<path d="M113.15 19.1922V42.4092V44.9143V170.779H87.0277C88.2966 169.014 89.499 166.749 89.499 163.051V163.036C89.499 158.352 87.5704 155.967 86.0201 153.985C84.7104 152.31 83.7627 151.1 83.7627 148.374C83.7627 145.647 84.7104 144.438 86.0201 142.763C87.5704 140.781 89.499 138.318 89.499 133.711C89.499 129.104 87.5704 126.641 86.0201 124.659C84.7104 122.984 83.7627 121.775 83.7627 119.049C83.7627 116.325 84.7104 115.114 86.0201 113.439C87.5704 111.46 89.499 108.994 89.499 104.388C89.499 99.7827 87.5704 97.2352 86.0201 95.2551C84.7301 93.6076 83.7916 92.3155 83.7627 89.6883V89.6364C83.7916 87.0092 84.7301 85.7181 86.0201 84.0693C87.5704 82.0892 89.499 79.5419 89.499 74.9373C89.499 70.3314 87.5704 67.8647 86.0201 65.8855C84.7104 64.2105 83.7627 62.9999 83.7627 60.2754C83.7627 57.5509 84.7104 56.3399 86.0201 54.665C91.1312 48.1312 90.3935 45.0462 86.0201 39.4557C84.7104 37.7807 83.7627 36.5698 83.7627 33.8456C83.7627 31.121 84.7104 29.9108 86.0201 28.2352C87.5693 26.2573 89.4966 23.7916 89.499 19.1922H113.15Z" stroke="#757EB3" stroke-miterlimit="22.9256"/>
<path fill-rule="evenodd" clip-rule="evenodd" d="M113.15 19.1915H122.946V45.3604H113.15V19.1915Z" fill="#00963F"/>
<path d="M113.15 19.1915H122.946V45.3604H113.15V19.1915Z" stroke="#757EB3" stroke-miterlimit="22.9256"/>
<path fill-rule="evenodd" clip-rule="evenodd" d="M81.3867 19.1915H91.1825V45.3604H81.3867V19.1915Z" fill="#E3000F"/>
<path d="M81.3867 19.1915H91.1825V45.3604H81.3867V19.1915Z" stroke="#757EB3" stroke-miterlimit="22.9256"/>
<path fill-rule="evenodd" clip-rule="evenodd" d="M81.3872 19.1911V45.3604H55.2649C56.5341 43.5952 57.7365 41.3301 57.7365 37.6316V37.6168C57.7365 32.9331 55.8077 30.5478 54.2574 28.5656C52.9479 26.8915 52 25.6808 52 22.9551C52 21.2815 52.3571 20.1804 52.9356 19.1911H81.3872Z" fill="#CCCCCC"/>
<path d="M81.3872 19.1911V45.3604H55.2649C56.5341 43.5952 57.7365 41.3301 57.7365 37.6316V37.6168C57.7365 32.9331 55.8077 30.5478 54.2574 28.5656C52.9479 26.8915 52 25.6808 52 22.9551C52 21.2815 52.3571 20.1804 52.9356 19.1911H81.3872Z" stroke="#757EB3" stroke-miterlimit="22.9256"/>
<path fill-rule="evenodd" clip-rule="evenodd" d="M310.244 19.1926V485.6V488.105V550.827V613.97V778.789V781.294V907.159H336.366C335.098 905.394 333.895 903.129 333.895 899.43V899.416C333.895 894.732 335.824 892.347 337.374 890.364C338.684 888.69 339.631 887.48 339.631 884.754C339.631 882.027 338.684 880.818 337.374 879.142C335.824 877.161 333.895 874.698 333.895 870.091C333.895 865.484 335.824 863.021 337.374 861.039C338.684 859.364 339.631 858.154 339.631 855.429C339.631 852.705 338.684 851.494 337.374 849.819C335.824 847.84 333.895 845.374 333.895 840.768C333.895 836.163 335.824 833.615 337.374 831.635C338.664 829.987 339.603 828.695 339.631 826.068V826.016C339.603 823.389 338.664 822.098 337.374 820.449C335.824 818.469 333.895 815.922 333.895 811.317C333.895 806.711 335.824 804.245 337.374 802.266C338.684 800.59 339.631 799.38 339.631 796.656C339.631 793.931 338.684 792.72 337.374 791.045C332.263 784.511 333.001 781.426 337.374 775.835C338.684 774.161 339.631 772.95 339.631 770.226C339.631 767.501 338.684 766.291 337.374 764.615C335.824 762.636 333.895 760.169 333.895 755.563C333.895 750.959 335.824 748.412 337.374 746.431C338.664 744.783 339.603 743.492 339.631 740.864V740.812C339.603 738.186 338.664 736.894 337.374 735.246C335.824 733.265 333.895 730.717 333.895 726.112C333.895 721.507 335.824 719.041 337.374 717.062C338.684 715.387 339.631 714.176 339.631 711.452C339.631 708.726 338.684 707.517 337.374 705.842C335.824 703.86 333.895 701.396 333.895 696.79C333.895 692.184 335.824 689.719 337.374 687.738C338.684 686.063 339.631 684.853 339.631 682.127C339.631 679.402 338.684 678.191 337.374 676.517C335.824 674.534 333.895 672.149 333.895 667.465V667.45C333.895 662.766 335.824 660.381 337.374 658.399C338.684 656.725 339.631 655.514 339.631 652.789C339.631 650.062 338.684 648.853 337.374 647.177C335.824 645.196 333.895 642.732 333.895 638.126C333.895 633.519 335.824 631.056 337.374 629.074C338.684 627.399 339.631 626.189 339.631 623.463C339.631 620.739 338.684 619.529 337.374 617.854C336.538 616.787 335.594 615.578 334.899 613.97H336.366C335.252 612.42 334.189 610.483 333.947 607.529C334.263 603.712 335.973 601.459 337.374 599.67C338.664 598.022 339.603 596.73 339.631 594.103V594.051C339.626 593.623 339.598 593.232 339.548 592.867C339.603 592.473 339.631 592.042 339.631 591.565C339.631 588.838 338.684 587.629 337.374 585.953C335.967 584.155 334.249 581.96 333.943 578.127C334.249 574.293 335.967 572.096 337.374 570.3C338.684 568.625 339.631 567.414 339.631 564.69C339.631 564.244 339.606 563.839 339.558 563.465C339.606 563.091 339.631 562.686 339.631 562.24C339.631 559.515 338.684 558.305 337.374 556.63C336.211 555.144 334.834 553.385 334.22 550.653L334.25 546.824C334.106 547.431 333.999 548.088 333.942 548.801C333.912 548.411 333.895 548.004 333.895 547.579C333.895 542.973 335.824 540.426 337.374 538.446C338.664 536.798 339.603 535.506 339.631 532.879V532.827C339.603 530.2 338.664 528.909 337.374 527.26C335.824 525.28 333.895 522.732 333.895 518.128C333.895 513.522 335.824 511.056 337.374 509.076C338.684 507.401 339.631 506.19 339.631 503.466C339.631 500.742 338.684 499.531 337.374 497.856C332.263 491.322 333.001 488.237 337.374 482.646C338.684 480.971 339.631 479.761 339.631 477.037C339.631 474.312 338.684 473.101 337.374 471.426C335.824 469.447 333.895 466.98 333.895 462.374C333.895 457.77 335.824 455.222 337.374 453.242C338.664 451.594 339.603 450.302 339.631 447.675V447.623C339.603 444.996 338.664 443.705 337.374 442.057C335.824 440.076 333.895 437.528 333.895 432.923C333.895 428.318 335.824 425.852 337.374 423.873C338.684 422.197 339.631 420.987 339.631 418.263C339.631 415.537 338.684 414.327 337.374 412.652C335.824 410.671 333.895 408.207 333.895 403.601C333.895 398.994 335.824 396.53 337.374 394.549C338.684 392.874 339.631 391.664 339.631 388.937C339.631 386.212 338.684 385.001 337.374 383.327C335.824 381.345 333.895 378.96 333.895 374.276V374.261C333.895 369.577 335.824 367.192 337.374 365.21C338.684 363.536 339.631 362.325 339.631 359.599C339.631 356.873 338.684 355.663 337.374 353.988C335.824 352.007 333.895 349.543 333.895 344.937C333.895 340.329 335.824 337.866 337.374 335.885C338.684 334.209 339.631 333 339.631 330.274C339.631 327.55 338.684 326.339 337.374 324.664C335.824 322.685 333.895 320.219 333.895 315.614C333.895 311.008 335.824 308.461 337.374 306.48C338.664 304.833 339.603 303.541 339.631 300.913V300.862C339.603 298.234 338.664 296.943 337.374 295.295C335.824 293.314 333.895 290.767 333.895 286.163C333.895 281.556 335.824 279.09 337.374 277.111C338.684 275.436 339.631 274.225 339.631 271.501C339.631 268.776 338.684 267.565 337.374 265.89C335.824 263.908 333.895 261.445 333.895 256.839C333.895 255.634 334.027 254.576 334.25 253.634L334.218 19.1926H310.244Z" fill="#E6E6E6"/>
<path d="M310.244 19.1926V485.6V488.105V550.827V613.97V778.789V781.294V907.159H336.366C335.098 905.394 333.895 903.129 333.895 899.43V899.416C333.895 894.732 335.824 892.347 337.374 890.364C338.684 888.69 339.631 887.48 339.631 884.754C339.631 882.027 338.684 880.818 337.374 879.142C335.824 877.161 333.895 874.698 333.895 870.091C333.895 865.484 335.824 863.021 337.374 861.039C338.684 859.364 339.631 858.154 339.631 855.429C339.631 852.705 338.684 851.494 337.374 849.819C335.824 847.84 333.895 845.374 333.895 840.768C333.895 836.163 335.824 833.615 337.374 831.635C338.664 829.987 339.603 828.695 339.631 826.068V826.016C339.603 823.389 338.664 822.098 337.374 820.449C335.824 818.469 333.895 815.922 333.895 811.317C333.895 806.711 335.824 804.245 337.374 802.266C338.684 800.59 339.631 799.38 339.631 796.656C339.631 793.931 338.684 792.72 337.374 791.045C332.263 784.511 333.001 781.426 337.374 775.835C338.684 774.161 339.631 772.95 339.631 770.226C339.631 767.501 338.684 766.291 337.374 764.615C335.824 762.636 333.895 760.169 333.895 755.563C333.895 750.959 335.824 748.412 337.374 746.431C338.664 744.783 339.603 743.492 339.631 740.864V740.812C339.603 738.186 338.664 736.894 337.374 735.246C335.824 733.265 333.895 730.717 333.895 726.112C333.895 721.507 335.824 719.041 337.374 717.062C338.684 715.387 339.631 714.176 339.631 711.452C339.631 708.726 338.684 707.517 337.374 705.842C335.824 703.86 333.895 701.396 333.895 696.79C333.895 692.184 335.824 689.719 337.374 687.738C338.684 686.063 339.631 684.853 339.631 682.127C339.631 679.402 338.684 678.191 337.374 676.517C335.824 674.534 333.895 672.149 333.895 667.465V667.45C333.895 662.766 335.824 660.381 337.374 658.399C338.684 656.725 339.631 655.514 339.631 652.789C339.631 650.062 338.684 648.853 337.374 647.177C335.824 645.196 333.895 642.732 333.895 638.126C333.895 633.519 335.824 631.056 337.374 629.074C338.684 627.399 339.631 626.189 339.631 623.463C339.631 620.739 338.684 619.529 337.374 617.854C336.538 616.787 335.594 615.578 334.899 613.97H336.366C335.252 612.42 334.189 610.483 333.947 607.529C334.263 603.712 335.973 601.459 337.374 599.67C338.664 598.022 339.603 596.73 339.631 594.103V594.051C339.626 593.623 339.598 593.232 339.548 592.867C339.603 592.473 339.631 592.042 339.631 591.565C339.631 588.838 338.684 587.629 337.374 585.953C335.967 584.155 334.249 581.96 333.943 578.127C334.249 574.293 335.967 572.096 337.374 570.3C338.684 568.625 339.631 567.414 339.631 564.69C339.631 564.244 339.606 563.839 339.558 563.465C339.606 563.091 339.631 562.686 339.631 562.24C339.631 559.515 338.684 558.305 337.374 556.63C336.211 555.144 334.834 553.385 334.22 550.653L334.25 546.824C334.106 547.431 333.999 548.088 333.942 548.801C333.912 548.411 333.895 548.004 333.895 547.579C333.895 542.973 335.824 540.426 337.374 538.446C338.664 536.798 339.603 535.506 339.631 532.879V532.827C339.603 530.2 338.664 528.909 337.374 527.26C335.824 525.28 333.895 522.732 333.895 518.128C333.895 513.522 335.824 511.056 337.374 509.076C338.684 507.401 339.631 506.19 339.631 503.466C339.631 500.742 338.684 499.531 337.374 497.856C332.263 491.322 333.001 488.237 337.374 482.646C338.684 480.971 339.631 479.761 339.631 477.037C339.631 474.312 338.684 473.101 337.374 471.426C335.824 469.447 333.895 466.98 333.895 462.374C333.895 457.77 335.824 455.222 337.374 453.242C338.664 451.594 339.603 450.302 339.631 447.675V447.623C339.603 444.996 338.664 443.705 337.374 442.057C335.824 440.076 333.895 437.528 333.895 432.923C333.895 428.318 335.824 425.852 337.374 423.873C338.684 422.197 339.631 420.987 339.631 418.263C339.631 415.537 338.684 414.327 337.374 412.652C335.824 410.671 333.895 408.207 333.895 403.601C333.895 398.994 335.824 396.53 337.374 394.549C338.684 392.874 339.631 391.664 339.631 388.937C339.631 386.212 338.684 385.001 337.374 383.327C335.824 381.345 333.895 378.96 333.895 374.276V374.261C333.895 369.577 335.824 367.192 337.374 365.21C338.684 363.536 339.631 362.325 339.631 359.599C339.631 356.873 338.684 355.663 337.374 353.988C335.824 352.007 333.895 349.543 333.895 344.937C333.895 340.329 335.824 337.866 337.374 335.885C338.684 334.209 339.631 333 339.631 330.274C339.631 327.55 338.684 326.339 337.374 324.664C335.824 322.685 333.895 320.219 333.895 315.614C333.895 311.008 335.824 308.461 337.374 306.48C338.664 304.833 339.603 303.541 339.631 300.913V300.862C339.603 298.234 338.664 296.943 337.374 295.295C335.824 293.314 333.895 290.767 333.895 286.163C333.895 281.556 335.824 279.09 337.374 277.111C338.684 275.436 339.631 274.225 339.631 271.501C339.631 268.776 338.684 267.565 337.374 265.89C335.824 263.908 333.895 261.445 333.895 256.839C333.895 255.634 334.027 254.576 334.25 253.634L334.218 19.1926H310.244Z" stroke="#757EB3" stroke-miterlimit="22.9256"/>
<path fill-rule="evenodd" clip-rule="evenodd" d="M309.673 907.188H299.877V19.191H309.673V907.188Z" fill="#FFEC08"/>
<path d="M309.673 907.188H299.877V19.191H309.673V907.188Z" stroke="#757EB3" stroke-miterlimit="22.9256"/>
<path fill-rule="evenodd" clip-rule="evenodd" d="M343.19 666.708H333.395V19.1894H343.19V666.708Z" fill="#FFEC08"/>
<path d="M343.19 666.708H333.395V19.1894H343.19V666.708Z" stroke="#757EB3" stroke-miterlimit="22.9256"/>
<path fill-rule="evenodd" clip-rule="evenodd" d="M343.19 666.712H333.395V717.252H343.19V666.712Z" fill="#00963F"/>
<path d="M343.19 666.712H333.395V717.252H343.19V666.712Z" stroke="#757EB3" stroke-miterlimit="22.9256"/>
<path fill-rule="evenodd" clip-rule="evenodd" d="M343.209 19.1937V295.692V298.198V360.919V424.063V588.882V591.387V717.252H369.331C368.062 715.487 366.86 713.221 366.86 709.523V709.508C366.86 704.825 368.789 702.439 370.339 700.457C371.649 698.783 372.596 697.572 372.596 694.847C372.596 692.12 371.649 690.911 370.339 689.235C368.789 687.254 366.86 684.79 366.86 680.184C366.86 675.577 368.789 673.114 370.339 671.132C371.649 669.457 372.596 668.247 372.596 665.522C372.596 662.797 371.649 661.587 370.339 659.911C368.789 657.932 366.86 655.466 366.86 650.861C366.86 646.255 368.789 643.708 370.339 641.728C371.629 640.08 372.567 638.788 372.596 636.161V636.109C372.567 633.482 371.629 632.191 370.339 630.542C368.789 628.562 366.86 626.014 366.86 621.41C366.86 616.804 368.789 614.337 370.339 612.358C371.649 610.683 372.596 609.472 372.596 606.748C372.596 604.023 371.649 602.813 370.339 601.138C365.228 594.604 365.965 591.519 370.339 585.928C371.649 584.253 372.596 583.043 372.596 580.318C372.596 577.594 371.649 576.383 370.339 574.708C368.789 572.729 366.86 570.262 366.86 565.656C366.86 561.052 368.789 558.504 370.339 556.524C371.629 554.876 372.567 553.584 372.596 550.957V550.905C372.567 548.278 371.629 546.987 370.339 545.339C368.789 543.358 366.86 540.81 366.86 536.205C366.86 531.6 368.789 529.134 370.339 527.154C371.649 525.479 372.596 524.269 372.596 521.545C372.596 518.819 371.649 517.609 370.339 515.934C368.789 513.953 366.86 511.489 366.86 506.883C366.86 502.276 368.789 499.812 370.339 497.831C371.649 496.156 372.596 494.946 372.596 492.219C372.596 489.494 371.649 488.284 370.339 486.609C368.789 484.627 366.86 482.242 366.86 477.558V477.543C366.86 472.859 368.789 470.474 370.339 468.492C371.649 466.818 372.596 465.607 372.596 462.881C372.596 460.155 371.649 458.945 370.339 457.27C368.789 455.289 366.86 452.825 366.86 448.219C366.86 443.612 368.789 441.148 370.339 439.167C371.649 437.491 372.596 436.282 372.596 433.556C372.596 430.832 371.649 429.621 370.339 427.946C369.503 426.879 368.558 425.671 367.864 424.063H369.331C368.216 422.512 367.154 420.576 366.912 417.622C367.228 413.805 368.938 411.552 370.339 409.762C371.629 408.114 372.567 406.822 372.596 404.195V404.144C372.591 403.716 372.563 403.324 372.512 402.96C372.568 402.565 372.596 402.134 372.596 401.657C372.596 398.931 371.649 397.721 370.339 396.046C368.932 394.248 367.214 392.053 366.908 388.22C367.214 384.386 368.932 382.189 370.339 380.393C371.649 378.718 372.596 377.507 372.596 374.783C372.596 374.337 372.571 373.932 372.523 373.558C372.571 373.184 372.596 372.778 372.596 372.332C372.596 369.608 371.649 368.397 370.339 366.722C369.176 365.237 367.799 363.478 367.185 360.745L367.214 356.916C367.07 357.524 366.964 358.181 366.907 358.894C366.876 358.504 366.86 358.097 366.86 357.672C366.86 353.066 368.789 350.519 370.339 348.538C371.629 346.891 372.567 345.599 372.596 342.972V342.92C372.567 340.292 371.629 339.001 370.339 337.353C368.789 335.372 366.86 332.825 366.86 328.221C366.86 323.615 368.789 321.148 370.339 319.169C371.649 317.494 372.596 316.283 372.596 313.559C372.596 310.834 371.649 309.624 370.339 307.948C365.228 301.415 365.965 298.33 370.339 292.739C371.649 291.064 372.596 289.853 372.596 287.129C372.596 284.404 371.649 283.194 370.339 281.519C368.789 279.539 366.86 277.072 366.86 272.467C366.86 267.863 368.789 265.315 370.339 263.334C371.629 261.687 372.567 260.395 372.596 257.768V257.716C372.567 255.089 371.629 253.798 370.339 252.15C368.789 250.169 366.86 247.62 366.86 243.016C366.86 238.41 368.789 235.945 370.339 233.965C371.649 232.29 372.596 231.079 372.596 228.355C372.596 225.63 371.649 224.42 370.339 222.745C368.789 220.764 366.86 218.3 366.86 213.693C366.86 209.087 368.789 206.623 370.339 204.642C371.649 202.967 372.596 201.757 372.596 199.03C372.596 196.305 371.649 195.094 370.339 193.42C368.789 191.437 366.86 189.053 366.86 184.368V184.354C366.86 179.67 368.789 177.285 370.339 175.303C371.649 173.628 372.596 172.418 372.596 169.692C372.596 166.965 371.649 165.756 370.339 164.08C368.789 162.099 366.86 159.636 366.86 155.029C366.86 150.422 368.789 147.959 370.339 145.977C371.649 144.302 372.596 143.093 372.596 140.367C372.596 137.643 371.649 136.432 370.339 134.757C368.789 132.778 366.86 130.311 366.86 125.706C366.86 121.101 368.789 118.553 370.339 116.573C371.629 114.925 372.567 113.634 372.596 111.006V110.954C372.567 108.327 371.629 107.036 370.339 105.387C368.789 103.407 366.86 100.86 366.86 96.2551C366.86 91.6493 368.789 89.1827 370.339 87.2034C371.649 85.5284 372.596 84.3177 372.596 81.5934C372.596 78.8687 371.649 77.6581 370.339 75.9829C368.789 74.0012 366.86 71.5374 366.86 66.9313C366.86 65.7261 366.992 64.6683 367.214 63.727L367.209 19.1937H343.209Z" fill="#CCCCCC"/>
<path d="M343.209 19.1937V295.692V298.198V360.919V424.063V588.882V591.387V717.252H369.331C368.062 715.487 366.86 713.221 366.86 709.523V709.508C366.86 704.825 368.789 702.439 370.339 700.457C371.649 698.783 372.596 697.572 372.596 694.847C372.596 692.12 371.649 690.911 370.339 689.235C368.789 687.254 366.86 684.79 366.86 680.184C366.86 675.577 368.789 673.114 370.339 671.132C371.649 669.457 372.596 668.247 372.596 665.522C372.596 662.797 371.649 661.587 370.339 659.911C368.789 657.932 366.86 655.466 366.86 650.861C366.86 646.255 368.789 643.708 370.339 641.728C371.629 640.08 372.567 638.788 372.596 636.161V636.109C372.567 633.482 371.629 632.191 370.339 630.542C368.789 628.562 366.86 626.014 366.86 621.41C366.86 616.804 368.789 614.337 370.339 612.358C371.649 610.683 372.596 609.472 372.596 606.748C372.596 604.023 371.649 602.813 370.339 601.138C365.228 594.604 365.965 591.519 370.339 585.928C371.649 584.253 372.596 583.043 372.596 580.318C372.596 577.594 371.649 576.383 370.339 574.708C368.789 572.729 366.86 570.262 366.86 565.656C366.86 561.052 368.789 558.504 370.339 556.524C371.629 554.876 372.567 553.584 372.596 550.957V550.905C372.567 548.278 371.629 546.987 370.339 545.339C368.789 543.358 366.86 540.81 366.86 536.205C366.86 531.6 368.789 529.134 370.339 527.154C371.649 525.479 372.596 524.269 372.596 521.545C372.596 518.819 371.649 517.609 370.339 515.934C368.789 513.953 366.86 511.489 366.86 506.883C366.86 502.276 368.789 499.812 370.339 497.831C371.649 496.156 372.596 494.946 372.596 492.219C372.596 489.494 371.649 488.284 370.339 486.609C368.789 484.627 366.86 482.242 366.86 477.558V477.543C366.86 472.859 368.789 470.474 370.339 468.492C371.649 466.818 372.596 465.607 372.596 462.881C372.596 460.155 371.649 458.945 370.339 457.27C368.789 455.289 366.86 452.825 366.86 448.219C366.86 443.612 368.789 441.148 370.339 439.167C371.649 437.491 372.596 436.282 372.596 433.556C372.596 430.832 371.649 429.621 370.339 427.946C369.503 426.879 368.558 425.671 367.864 424.063H369.331C368.216 422.512 367.154 420.576 366.912 417.622C367.228 413.805 368.938 411.552 370.339 409.762C371.629 408.114 372.567 406.822 372.596 404.195V404.144C372.591 403.716 372.563 403.324 372.512 402.96C372.568 402.565 372.596 402.134 372.596 401.657C372.596 398.931 371.649 397.721 370.339 396.046C368.932 394.248 367.214 392.053 366.908 388.22C367.214 384.386 368.932 382.189 370.339 380.393C371.649 378.718 372.596 377.507 372.596 374.783C372.596 374.337 372.571 373.932 372.523 373.558C372.571 373.184 372.596 372.778 372.596 372.332C372.596 369.608 371.649 368.397 370.339 366.722C369.176 365.237 367.799 363.478 367.185 360.745L367.214 356.916C367.07 357.524 366.964 358.181 366.907 358.894C366.876 358.504 366.86 358.097 366.86 357.672C366.86 353.066 368.789 350.519 370.339 348.538C371.629 346.891 372.567 345.599 372.596 342.972V342.92C372.567 340.292 371.629 339.001 370.339 337.353C368.789 335.372 366.86 332.825 366.86 328.221C366.86 323.615 368.789 321.148 370.339 319.169C371.649 317.494 372.596 316.283 372.596 313.559C372.596 310.834 371.649 309.624 370.339 307.948C365.228 301.415 365.965 298.33 370.339 292.739C371.649 291.064 372.596 289.853 372.596 287.129C372.596 284.404 371.649 283.194 370.339 281.519C368.789 279.539 366.86 277.072 366.86 272.467C366.86 267.863 368.789 265.315 370.339 263.334C371.629 261.687 372.567 260.395 372.596 257.768V257.716C372.567 255.089 371.629 253.798 370.339 252.15C368.789 250.169 366.86 247.62 366.86 243.016C366.86 238.41 368.789 235.945 370.339 233.965C371.649 232.29 372.596 231.079 372.596 228.355C372.596 225.63 371.649 224.42 370.339 222.745C368.789 220.764 366.86 218.3 366.86 213.693C366.86 209.087 368.789 206.623 370.339 204.642C371.649 202.967 372.596 201.757 372.596 199.03C372.596 196.305 371.649 195.094 370.339 193.42C368.789 191.437 366.86 189.053 366.86 184.368V184.354C366.86 179.67 368.789 177.285 370.339 175.303C371.649 173.628 372.596 172.418 372.596 169.692C372.596 166.965 371.649 165.756 370.339 164.08C368.789 162.099 366.86 159.636 366.86 155.029C366.86 150.422 368.789 147.959 370.339 145.977C371.649 144.302 372.596 143.093 372.596 140.367C372.596 137.643 371.649 136.432 370.339 134.757C368.789 132.778 366.86 130.311 366.86 125.706C366.86 121.101 368.789 118.553 370.339 116.573C371.629 114.925 372.567 113.634 372.596 111.006V110.954C372.567 108.327 371.629 107.036 370.339 105.387C368.789 103.407 366.86 100.86 366.86 96.2551C366.86 91.6493 368.789 89.1827 370.339 87.2034C371.649 85.5284 372.596 84.3177 372.596 81.5934C372.596 78.8687 371.649 77.6581 370.339 75.9829C368.789 74.0012 366.86 71.5374 366.86 66.9313C366.86 65.7261 366.992 64.6683 367.214 63.727L367.209 19.1937H343.209Z" stroke="#757EB3" stroke-miterlimit="22.9256"/>
<path fill-rule="evenodd" clip-rule="evenodd" d="M372.01 354.469H362.214V19.1927H372.01V354.469Z" fill="#FFEC08"/>
<path d="M372.01 354.469H362.214V19.1927H372.01V354.469Z" stroke="#757EB3" stroke-miterlimit="22.9256"/>
<path fill-rule="evenodd" clip-rule="evenodd" d="M372.01 354.468H362.214V380.637H372.01V354.468Z" fill="#E3000F"/>
<path d="M372.01 354.468H362.214V380.637H372.01V354.468Z" stroke="#757EB3" stroke-miterlimit="22.9256"/>
<path fill-rule="evenodd" clip-rule="evenodd" d="M372.01 19.1917V24.3042V87.4474V252.267V254.772V380.637H398.132C396.863 378.872 395.661 376.606 395.661 372.908V372.893C395.661 368.209 397.589 365.824 399.14 363.842C400.449 362.168 401.397 360.957 401.397 358.231C401.397 355.505 400.449 354.295 399.14 352.62C397.589 350.639 395.661 348.175 395.661 343.569C395.661 338.962 397.589 336.499 399.14 334.517C400.449 332.841 401.397 331.632 401.397 328.906C401.397 326.182 400.449 324.972 399.14 323.297C397.589 321.317 395.661 318.851 395.661 314.246C395.661 309.64 397.589 307.093 399.14 305.113C400.43 303.465 401.368 302.173 401.397 299.546V299.494C401.368 296.866 400.43 295.575 399.14 293.927C397.589 291.947 395.661 289.399 395.661 284.795C395.661 280.189 397.589 277.722 399.14 275.743C400.449 274.068 401.397 272.857 401.397 270.133C401.397 267.408 400.449 266.198 399.14 264.523C394.029 257.989 394.766 254.904 399.14 249.313C400.449 247.638 401.397 246.427 401.397 243.703C401.397 240.979 400.449 239.768 399.14 238.093C397.589 236.113 395.661 233.646 395.661 229.041C395.661 224.437 397.589 221.889 399.14 219.908C400.43 218.261 401.368 216.969 401.397 214.342V214.29C401.368 211.663 400.43 210.372 399.14 208.724C397.589 206.743 395.661 204.195 395.661 199.59C395.661 194.985 397.589 192.519 399.14 190.539C400.449 188.864 401.397 187.653 401.397 184.929C401.397 182.204 400.449 180.994 399.14 179.319C397.589 177.337 395.661 174.874 395.661 170.267C395.661 165.661 397.589 163.197 399.14 161.216C400.449 159.541 401.397 158.331 401.397 155.604C401.397 152.879 400.449 151.668 399.14 149.994C397.589 148.011 395.661 145.627 395.661 140.943V140.928C395.661 136.244 397.589 133.859 399.14 131.877C400.449 130.202 401.397 128.992 401.397 126.266C401.397 123.539 400.449 122.33 399.14 120.655C397.589 118.673 395.661 116.21 395.661 111.603C395.661 106.996 397.589 104.533 399.14 102.551C400.449 100.876 401.397 99.6666 401.397 96.941C401.397 94.2166 400.449 93.0061 399.14 91.3309C398.304 90.2641 397.359 89.0559 396.665 87.4474H398.132C397.017 85.8974 395.955 83.9607 395.713 81.0068C396.029 77.1898 397.739 74.9369 399.14 73.147C400.43 71.4994 401.368 70.2076 401.397 67.5802V67.5283C401.392 67.1007 401.364 66.709 401.313 66.3451C401.368 65.9503 401.397 65.5191 401.397 65.042C401.397 62.3153 400.449 61.1062 399.14 59.4307C397.733 57.6325 396.015 55.4379 395.709 51.6043C396.015 47.7707 397.733 45.5736 399.14 43.7777C400.449 42.1025 401.397 40.8917 401.397 38.1674C401.397 37.7213 401.371 37.3163 401.323 36.9426C401.371 36.5688 401.397 36.1631 401.397 35.7171C401.397 32.9928 400.449 31.7823 399.14 30.1073C397.976 28.6217 396.6 26.8627 395.985 24.1304C395.996 22.8069 396.025 18.2935 395.708 22.279C395.677 21.8883 395.661 21.482 395.661 21.0563C395.661 20.3936 395.701 19.7733 395.774 19.1917H372.01Z" fill="#CCCCCC"/>
<path d="M372.01 19.1917V24.3042V87.4474V252.267V254.772V380.637H398.132C396.863 378.872 395.661 376.606 395.661 372.908V372.893C395.661 368.209 397.589 365.824 399.14 363.842C400.449 362.168 401.397 360.957 401.397 358.231C401.397 355.505 400.449 354.295 399.14 352.62C397.589 350.639 395.661 348.175 395.661 343.569C395.661 338.962 397.589 336.499 399.14 334.517C400.449 332.841 401.397 331.632 401.397 328.906C401.397 326.182 400.449 324.972 399.14 323.297C397.589 321.317 395.661 318.851 395.661 314.246C395.661 309.64 397.589 307.093 399.14 305.113C400.43 303.465 401.368 302.173 401.397 299.546V299.494C401.368 296.866 400.43 295.575 399.14 293.927C397.589 291.947 395.661 289.399 395.661 284.795C395.661 280.189 397.589 277.722 399.14 275.743C400.449 274.068 401.397 272.857 401.397 270.133C401.397 267.408 400.449 266.198 399.14 264.523C394.029 257.989 394.766 254.904 399.14 249.313C400.449 247.638 401.397 246.427 401.397 243.703C401.397 240.979 400.449 239.768 399.14 238.093C397.589 236.113 395.661 233.646 395.661 229.041C395.661 224.437 397.589 221.889 399.14 219.908C400.43 218.261 401.368 216.969 401.397 214.342V214.29C401.368 211.663 400.43 210.372 399.14 208.724C397.589 206.743 395.661 204.195 395.661 199.59C395.661 194.985 397.589 192.519 399.14 190.539C400.449 188.864 401.397 187.653 401.397 184.929C401.397 182.204 400.449 180.994 399.14 179.319C397.589 177.337 395.661 174.874 395.661 170.267C395.661 165.661 397.589 163.197 399.14 161.216C400.449 159.541 401.397 158.331 401.397 155.604C401.397 152.879 400.449 151.668 399.14 149.994C397.589 148.011 395.661 145.627 395.661 140.943V140.928C395.661 136.244 397.589 133.859 399.14 131.877C400.449 130.202 401.397 128.992 401.397 126.266C401.397 123.539 400.449 122.33 399.14 120.655C397.589 118.673 395.661 116.21 395.661 111.603C395.661 106.996 397.589 104.533 399.14 102.551C400.449 100.876 401.397 99.6666 401.397 96.941C401.397 94.2166 400.449 93.0061 399.14 91.3309C398.304 90.2641 397.359 89.0559 396.665 87.4474H398.132C397.017 85.8974 395.955 83.9607 395.713 81.0068C396.029 77.1898 397.739 74.9369 399.14 73.147C400.43 71.4994 401.368 70.2076 401.397 67.5802V67.5283C401.392 67.1007 401.364 66.709 401.313 66.3451C401.368 65.9503 401.397 65.5191 401.397 65.042C401.397 62.3153 400.449 61.1062 399.14 59.4307C397.733 57.6325 396.015 55.4379 395.709 51.6043C396.015 47.7707 397.733 45.5736 399.14 43.7777C400.449 42.1025 401.397 40.8917 401.397 38.1674C401.397 37.7213 401.371 37.3163 401.323 36.9426C401.371 36.5688 401.397 36.1631 401.397 35.7171C401.397 32.9928 400.449 31.7823 399.14 30.1073C397.976 28.6217 396.6 26.8627 395.985 24.1304C395.996 22.8069 396.025 18.2935 395.708 22.279C395.677 21.8883 395.661 21.482 395.661 21.0563C395.661 20.3936 395.701 19.7733 395.774 19.1917H372.01Z" stroke="#757EB3" stroke-miterlimit="22.9256"/>
<path fill-rule="evenodd" clip-rule="evenodd" d="M402.027 144.607H392.231V19.1892H402.027V144.607Z" fill="#FFEC08"/>
<path d="M402.027 144.607H392.231V19.1892H402.027V144.607Z" stroke="#757EB3" stroke-miterlimit="22.9256"/>
<path fill-rule="evenodd" clip-rule="evenodd" d="M402.027 144.61H392.231V170.779H402.027V144.61Z" fill="#E3000F"/>
<path d="M402.027 144.61H392.231V170.779H402.027V144.61Z" stroke="#757EB3" stroke-miterlimit="22.9256"/>
<path fill-rule="evenodd" clip-rule="evenodd" d="M402.028 19.1922V42.4092V44.9143V170.779H428.151C426.882 169.014 425.679 166.749 425.679 163.051V163.036C425.679 158.352 427.608 155.967 429.158 153.985C430.468 152.31 431.415 151.1 431.415 148.374C431.415 145.647 430.468 144.438 429.158 142.763C427.608 140.781 425.679 138.318 425.679 133.711C425.679 129.104 427.608 126.641 429.158 124.659C430.468 122.984 431.415 121.775 431.415 119.049C431.415 116.325 430.468 115.114 429.158 113.439C427.608 111.46 425.679 108.994 425.679 104.388C425.679 99.7827 427.608 97.2352 429.158 95.2551C430.448 93.6076 431.387 92.3155 431.415 89.6883V89.6364C431.387 87.0092 430.448 85.7181 429.158 84.0693C427.608 82.0892 425.679 79.5419 425.679 74.9373C425.679 70.3314 427.608 67.8647 429.158 65.8855C430.468 64.2105 431.415 62.9999 431.415 60.2754C431.415 57.5509 430.468 56.3399 429.158 54.665C424.047 48.1312 424.785 45.0462 429.158 39.4557C430.468 37.7807 431.415 36.5698 431.415 33.8456C431.415 31.121 430.468 29.9108 429.158 28.2352C427.609 26.2573 425.681 23.7916 425.679 19.1922H402.028Z" fill="#CCCCCC"/>
<path d="M402.028 19.1922V42.4092V44.9143V170.779H428.151C426.882 169.014 425.679 166.749 425.679 163.051V163.036C425.679 158.352 427.608 155.967 429.158 153.985C430.468 152.31 431.415 151.1 431.415 148.374C431.415 145.647 430.468 144.438 429.158 142.763C427.608 140.781 425.679 138.318 425.679 133.711C425.679 129.104 427.608 126.641 429.158 124.659C430.468 122.984 431.415 121.775 431.415 119.049C431.415 116.325 430.468 115.114 429.158 113.439C427.608 111.46 425.679 108.994 425.679 104.388C425.679 99.7827 427.608 97.2352 429.158 95.2551C430.448 93.6076 431.387 92.3155 431.415 89.6883V89.6364C431.387 87.0092 430.448 85.7181 429.158 84.0693C427.608 82.0892 425.679 79.5419 425.679 74.9373C425.679 70.3314 427.608 67.8647 429.158 65.8855C430.468 64.2105 431.415 62.9999 431.415 60.2754C431.415 57.5509 430.468 56.3399 429.158 54.665C424.047 48.1312 424.785 45.0462 429.158 39.4557C430.468 37.7807 431.415 36.5698 431.415 33.8456C431.415 31.121 430.468 29.9108 429.158 28.2352C427.609 26.2573 425.681 23.7916 425.679 19.1922H402.028Z" stroke="#757EB3" stroke-miterlimit="22.9256"/>
<path fill-rule="evenodd" clip-rule="evenodd" d="M402.027 19.1915H392.231V45.3604H402.027V19.1915Z" fill="#00963F"/>
<path d="M402.027 19.1915H392.231V45.3604H402.027V19.1915Z" stroke="#757EB3" stroke-miterlimit="22.9256"/>
<path fill-rule="evenodd" clip-rule="evenodd" d="M433.792 19.1915H423.996V45.3604H433.792V19.1915Z" fill="#E3000F"/>
<path d="M433.792 19.1915H423.996V45.3604H433.792V19.1915Z" stroke="#757EB3" stroke-miterlimit="22.9256"/>
<path fill-rule="evenodd" clip-rule="evenodd" d="M433.791 19.1911V45.3604H459.913C458.644 43.5952 457.442 41.3301 457.442 37.6316V37.6168C457.442 32.9331 459.371 30.5478 460.921 28.5656C462.231 26.8915 463.178 25.6808 463.178 22.9551C463.178 21.2815 462.821 20.1804 462.243 19.1911H433.791Z" fill="#CCCCCC"/>
<path d="M433.791 19.1911V45.3604H459.913C458.644 43.5952 457.442 41.3301 457.442 37.6316V37.6168C457.442 32.9331 459.371 30.5478 460.921 28.5656C462.231 26.8915 463.178 25.6808 463.178 22.9551C463.178 21.2815 462.821 20.1804 462.243 19.1911H433.791Z" stroke="#757EB3" stroke-miterlimit="22.9256"/>
<path fill-rule="evenodd" clip-rule="evenodd" d="M310.648 893.84V907.188H322.265L310.648 893.84Z" fill="#272953"/>
<path fill-rule="evenodd" clip-rule="evenodd" d="M204.442 893.84V907.188H192.825L204.442 893.84Z" fill="#272953"/>
<path d="M396 171.432H511.574" stroke="#454D7D" stroke-width="2" stroke-miterlimit="22.9256"/>
<path d="M372 381.189L512 381.189" stroke="#454D7D" stroke-width="2" stroke-miterlimit="22.9256"/>
<path d="M338 718.189L512 718.189" stroke="#454D7D" stroke-width="2" stroke-miterlimit="22.9256"/>
<path d="M300 909.189L512 909.189" stroke="#454D7D" stroke-width="2" stroke-miterlimit="22.9256"/>
<path d="M424 46.4316H539.574" stroke="#454D7D" stroke-width="2" stroke-miterlimit="22.9256"/>
<path d="M113.637 144.379L31.0001 116.35" stroke="#454D7D" stroke-width="2" stroke-miterlimit="22.9256"/>
<path d="M142.637 354.379L60.0001 326.35" stroke="#454D7D" stroke-width="2" stroke-miterlimit="22.9256"/>
<path d="M176.637 600.379L94.0001 572.35" stroke="#454D7D" stroke-width="2" stroke-miterlimit="22.9256"/>
<path d="M205.637 780.379L123 752.35" stroke="#454D7D" stroke-width="2" stroke-miterlimit="22.9256"/>
<path d="M83.6367 45.3789L1.00006 17.3501" stroke="#454D7D" stroke-width="2" stroke-miterlimit="22.9256"/>
</svg>
