<svg width="376" height="864" viewBox="0 0 376 864" fill="none" xmlns="http://www.w3.org/2000/svg">
<path d="M260 254.191H375.574" stroke="#454D7D" stroke-width="2" stroke-miterlimit="22.9256"/>
<path d="M260 616.191H375.574" stroke="#454D7D" stroke-width="2" stroke-miterlimit="22.9256"/>
<path fill-rule="evenodd" clip-rule="evenodd" d="M98.3872 20.1755V253.234H74.2829C73.6198 250.795 72.3453 249.166 71.2574 247.776C69.9477 246.101 69 244.89 69 242.166C69 239.441 69.9477 238.231 71.2574 236.555C72.8077 234.576 74.7365 232.109 74.7365 227.503C74.7365 222.899 72.8077 220.351 71.2574 218.371C69.9674 216.723 69.029 215.432 69 212.804V212.753C69.029 210.126 69.9674 208.834 71.2574 207.186C72.8077 205.206 74.7365 202.657 74.7365 198.053C74.7365 193.447 72.8077 190.981 71.2574 189.002C69.9477 187.327 69 186.116 69 183.392C69 180.666 69.9477 179.457 71.2574 177.782C72.8077 175.8 74.7365 173.336 74.7365 168.73C74.7365 164.124 72.8077 161.659 71.2574 159.679C69.9477 158.003 69 156.794 69 154.067C69 151.342 69.9477 150.131 71.2574 148.457C72.8077 146.474 74.7365 144.09 74.7365 139.405V139.391C74.7365 134.707 72.8077 132.322 71.2574 130.339C69.9477 128.665 69 127.454 69 124.729C69 122.002 69.9477 120.793 71.2574 119.117C72.8077 117.136 74.7365 114.672 74.7365 110.066C74.7365 105.459 72.8077 102.996 71.2574 101.014C69.9477 99.3386 69 98.1291 69 95.4036C69 92.6795 69.9477 91.4685 71.2574 89.7935C72.8077 87.8141 74.7365 85.3479 74.7365 80.743C74.7365 76.137 72.8077 73.5901 71.2574 71.6097C69.9674 69.962 69.029 68.6703 69 66.0431V65.9908C69.029 63.3636 69.9674 62.0727 71.2574 60.4242C72.8077 58.444 74.7365 55.8966 74.7365 51.2922C74.7365 46.686 72.8077 44.2197 71.2574 42.2403C69.9477 40.5653 69 39.3546 69 36.6302C69 33.9056 69.9477 32.6949 71.2574 31.0198C72.8077 29.0379 74.7365 26.5744 74.7365 21.9679C74.7365 21.3309 74.6997 20.7348 74.6321 20.1755H98.3872Z" fill="#CCCCCC"/>
<path d="M98.3872 20.1755V253.234H74.2829C73.6198 250.795 72.3453 249.166 71.2574 247.776C69.9477 246.101 69 244.89 69 242.166C69 239.441 69.9477 238.231 71.2574 236.555C72.8077 234.576 74.7365 232.109 74.7365 227.503C74.7365 222.899 72.8077 220.351 71.2574 218.371C69.9674 216.723 69.029 215.432 69 212.804V212.753C69.029 210.126 69.9674 208.834 71.2574 207.186C72.8077 205.206 74.7365 202.657 74.7365 198.053C74.7365 193.447 72.8077 190.981 71.2574 189.002C69.9477 187.327 69 186.116 69 183.392C69 180.666 69.9477 179.457 71.2574 177.782C72.8077 175.8 74.7365 173.336 74.7365 168.73C74.7365 164.124 72.8077 161.659 71.2574 159.679C69.9477 158.003 69 156.794 69 154.067C69 151.342 69.9477 150.131 71.2574 148.457C72.8077 146.474 74.7365 144.09 74.7365 139.405V139.391C74.7365 134.707 72.8077 132.322 71.2574 130.339C69.9477 128.665 69 127.454 69 124.729C69 122.002 69.9477 120.793 71.2574 119.117C72.8077 117.136 74.7365 114.672 74.7365 110.066C74.7365 105.459 72.8077 102.996 71.2574 101.014C69.9477 99.3386 69 98.1291 69 95.4036C69 92.6795 69.9477 91.4685 71.2574 89.7935C72.8077 87.8141 74.7365 85.3479 74.7365 80.743C74.7365 76.137 72.8077 73.5902 71.2574 71.6097C69.9674 69.962 69.029 68.6703 69 66.0431V65.9908C69.029 63.3636 69.9674 62.0727 71.2574 60.4242C72.8077 58.444 74.7365 55.8966 74.7365 51.2922C74.7365 46.686 72.8077 44.2197 71.2574 42.2403C69.9477 40.5653 69 39.3546 69 36.6302C69 33.9056 69.9477 32.6949 71.2574 31.0198C72.8077 29.0379 74.7365 26.5744 74.7365 21.9679C74.7365 21.3309 74.6997 20.7348 74.6321 20.1755H98.3872Z" stroke="#757EB3" stroke-miterlimit="22.9256"/>
<path fill-rule="evenodd" clip-rule="evenodd" d="M132.08 20.1787V486.586V489.091V614.956H105.958C107.227 613.191 108.43 610.925 108.43 607.227V607.212C108.43 602.529 106.501 600.143 104.951 598.161C103.641 596.487 102.693 595.276 102.693 592.55C102.693 589.824 103.641 588.615 104.951 586.939C106.501 584.958 108.43 582.494 108.43 577.888C108.43 573.281 106.501 570.818 104.951 568.836C103.641 567.161 102.693 565.952 102.693 563.225C102.693 560.502 103.641 559.291 104.951 557.616C106.501 555.636 108.43 553.17 108.43 548.565C108.43 543.959 106.501 541.412 104.951 539.432C103.661 537.784 102.722 536.492 102.693 533.865V533.813C102.722 531.186 103.661 529.894 104.951 528.246C106.501 526.266 108.43 523.718 108.43 519.114C108.43 514.508 106.501 512.041 104.951 510.062C103.641 508.387 102.693 507.176 102.693 504.452C102.693 501.727 103.641 500.517 104.951 498.842C110.062 492.308 109.324 489.223 104.951 483.632C103.641 481.957 102.693 480.747 102.693 478.022C102.693 475.298 103.641 474.087 104.951 472.412C106.501 470.433 108.43 467.966 108.43 463.36C108.43 458.756 106.501 456.208 104.951 454.228C103.661 452.58 102.722 451.288 102.693 448.661V448.609C102.722 445.982 103.661 444.691 104.951 443.043C106.501 441.062 108.43 438.514 108.43 433.909C108.43 429.304 106.501 426.838 104.951 424.858C103.641 423.183 102.693 421.973 102.693 419.248C102.693 416.523 103.641 415.313 104.951 413.639C106.501 411.657 108.43 409.193 108.43 404.587C108.43 399.98 106.501 397.516 104.951 395.535C103.641 393.86 102.693 392.65 102.693 389.924C102.693 387.198 103.641 385.987 104.951 384.314C106.501 382.331 108.43 379.946 108.43 375.262V375.247C108.43 370.563 106.501 368.178 104.951 366.196C103.641 364.522 102.693 363.311 102.693 360.585C102.693 357.859 103.641 356.649 104.951 354.974C106.501 352.992 108.43 350.529 108.43 345.922C108.43 341.315 106.501 338.852 104.951 336.871C103.641 335.195 102.693 333.986 102.693 331.26C102.693 328.536 103.641 327.326 104.951 325.65C106.501 323.671 108.43 321.205 108.43 316.599C108.43 311.994 106.501 309.447 104.951 307.466C103.661 305.819 102.722 304.527 102.693 301.899V301.848C102.722 299.22 103.661 297.93 104.951 296.28C106.501 294.3 108.43 291.753 108.43 287.148C108.43 282.543 106.501 280.076 104.951 278.097C103.641 276.422 102.693 275.211 102.693 272.487C102.693 269.762 103.641 268.551 104.951 266.876C106.501 264.895 108.43 262.431 108.43 257.825C108.43 256.619 108.298 255.562 108.075 254.62L108.106 20.1787H132.08Z" fill="#CCCCCC"/>
<path d="M132.08 20.1787V486.586V489.091V614.956H105.958C107.227 613.191 108.43 610.925 108.43 607.227V607.212C108.43 602.529 106.501 600.143 104.951 598.161C103.641 596.487 102.693 595.276 102.693 592.55C102.693 589.824 103.641 588.615 104.951 586.939C106.501 584.958 108.43 582.494 108.43 577.888C108.43 573.281 106.501 570.818 104.951 568.836C103.641 567.161 102.693 565.952 102.693 563.225C102.693 560.502 103.641 559.291 104.951 557.616C106.501 555.636 108.43 553.17 108.43 548.565C108.43 543.959 106.501 541.412 104.951 539.432C103.661 537.784 102.722 536.492 102.693 533.865V533.813C102.722 531.186 103.661 529.894 104.951 528.246C106.501 526.266 108.43 523.718 108.43 519.114C108.43 514.508 106.501 512.041 104.951 510.062C103.641 508.387 102.693 507.176 102.693 504.452C102.693 501.727 103.641 500.517 104.951 498.842C110.062 492.308 109.324 489.223 104.951 483.632C103.641 481.957 102.693 480.747 102.693 478.022C102.693 475.298 103.641 474.087 104.951 472.412C106.501 470.433 108.43 467.966 108.43 463.36C108.43 458.756 106.501 456.208 104.951 454.228C103.661 452.58 102.722 451.288 102.693 448.661V448.609C102.722 445.982 103.661 444.691 104.951 443.043C106.501 441.062 108.43 438.514 108.43 433.909C108.43 429.304 106.501 426.838 104.951 424.858C103.641 423.183 102.693 421.973 102.693 419.248C102.693 416.523 103.641 415.313 104.951 413.639C106.501 411.657 108.43 409.193 108.43 404.587C108.43 399.98 106.501 397.516 104.951 395.535C103.641 393.86 102.693 392.65 102.693 389.924C102.693 387.198 103.641 385.987 104.951 384.314C106.501 382.331 108.43 379.946 108.43 375.262V375.247C108.43 370.563 106.501 368.178 104.951 366.196C103.641 364.522 102.693 363.311 102.693 360.585C102.693 357.859 103.641 356.649 104.951 354.974C106.501 352.992 108.43 350.529 108.43 345.922C108.43 341.315 106.501 338.852 104.951 336.871C103.641 335.195 102.693 333.986 102.693 331.26C102.693 328.536 103.641 327.326 104.951 325.65C106.501 323.671 108.43 321.205 108.43 316.599C108.43 311.994 106.501 309.447 104.951 307.466C103.661 305.819 102.722 304.527 102.693 301.899V301.848C102.722 299.22 103.661 297.93 104.951 296.28C106.501 294.3 108.43 291.753 108.43 287.148C108.43 282.543 106.501 280.076 104.951 278.097C103.641 276.422 102.693 275.211 102.693 272.487C102.693 269.762 103.641 268.551 104.951 266.876C106.501 264.895 108.43 262.431 108.43 257.825C108.43 256.619 108.298 255.562 108.075 254.62L108.106 20.1787H132.08Z" stroke="#757EB3" stroke-miterlimit="22.9256"/>
<path fill-rule="evenodd" clip-rule="evenodd" d="M98.2432 229.467H108.039V19.9521H98.2432V229.467Z" fill="#FFEC08"/>
<path d="M98.2432 229.467H108.039V19.9521H98.2432V229.467Z" stroke="#757EB3" stroke-miterlimit="22.9256"/>
<path fill-rule="evenodd" clip-rule="evenodd" d="M98.2432 229.468H108.039V253.442H98.2432V229.468Z" fill="#E3000F"/>
<path d="M98.2432 229.468H108.039V253.442H98.2432V229.468Z" stroke="#757EB3" stroke-miterlimit="22.9256"/>
<path fill-rule="evenodd" clip-rule="evenodd" d="M132.081 525.423H141.877V19.95H132.081V525.423Z" fill="#FFEC08"/>
<path d="M132.081 525.423H141.877V19.9499H132.081V525.423Z" stroke="#757EB3" stroke-miterlimit="22.9256"/>
<path fill-rule="evenodd" clip-rule="evenodd" d="M132.081 524.243H141.877V614.956H132.081V524.243Z" fill="#00963F"/>
<path d="M132.081 524.243H141.877V614.956H132.081V524.243Z" stroke="#757EB3" stroke-miterlimit="22.9256"/>
<path fill-rule="evenodd" clip-rule="evenodd" d="M269.939 20.1755V253.234H294.044C294.707 250.795 295.981 249.166 297.069 247.776C298.379 246.101 299.327 244.89 299.327 242.166C299.327 239.441 298.379 238.231 297.069 236.555C295.519 234.576 293.59 232.109 293.59 227.503C293.59 222.899 295.519 220.351 297.069 218.371C298.359 216.723 299.298 215.432 299.327 212.804V212.753C299.298 210.126 298.359 208.834 297.069 207.186C295.519 205.206 293.59 202.657 293.59 198.053C293.59 193.447 295.519 190.981 297.069 189.002C298.379 187.327 299.327 186.116 299.327 183.392C299.327 180.666 298.379 179.457 297.069 177.782C295.519 175.8 293.59 173.336 293.59 168.73C293.59 164.124 295.519 161.659 297.069 159.679C298.379 158.003 299.327 156.794 299.327 154.067C299.327 151.342 298.379 150.131 297.069 148.457C295.519 146.474 293.59 144.09 293.59 139.405V139.391C293.59 134.707 295.519 132.322 297.069 130.339C298.379 128.665 299.327 127.454 299.327 124.729C299.327 122.002 298.379 120.793 297.069 119.117C295.519 117.136 293.59 114.672 293.59 110.066C293.59 105.459 295.519 102.996 297.069 101.014C298.379 99.3386 299.327 98.1291 299.327 95.4036C299.327 92.6795 298.379 91.4685 297.069 89.7935C295.519 87.8141 293.59 85.3479 293.59 80.743C293.59 76.137 295.519 73.5901 297.069 71.6097C298.359 69.962 299.298 68.6703 299.327 66.0431V65.9908C299.298 63.3636 298.359 62.0727 297.069 60.4242C295.519 58.444 293.59 55.8966 293.59 51.2922C293.59 46.686 295.519 44.2197 297.069 42.2403C298.379 40.5653 299.327 39.3546 299.327 36.6302C299.327 33.9056 298.379 32.6949 297.069 31.0198C295.519 29.0379 293.59 26.5744 293.59 21.9679C293.59 21.3309 293.627 20.7348 293.695 20.1755H269.939Z" fill="#CCCCCC"/>
<path d="M269.939 20.1755V253.234H294.044C294.707 250.795 295.981 249.166 297.069 247.776C298.379 246.101 299.327 244.89 299.327 242.166C299.327 239.441 298.379 238.231 297.069 236.555C295.519 234.576 293.59 232.109 293.59 227.503C293.59 222.899 295.519 220.351 297.069 218.371C298.359 216.723 299.298 215.432 299.327 212.804V212.753C299.298 210.126 298.359 208.834 297.069 207.186C295.519 205.206 293.59 202.657 293.59 198.053C293.59 193.447 295.519 190.981 297.069 189.002C298.379 187.327 299.327 186.116 299.327 183.392C299.327 180.666 298.379 179.457 297.069 177.782C295.519 175.8 293.59 173.336 293.59 168.73C293.59 164.124 295.519 161.659 297.069 159.679C298.379 158.003 299.327 156.794 299.327 154.067C299.327 151.342 298.379 150.131 297.069 148.457C295.519 146.474 293.59 144.09 293.59 139.405V139.391C293.59 134.707 295.519 132.322 297.069 130.339C298.379 128.665 299.327 127.454 299.327 124.729C299.327 122.002 298.379 120.793 297.069 119.117C295.519 117.136 293.59 114.672 293.59 110.066C293.59 105.459 295.519 102.996 297.069 101.014C298.379 99.3386 299.327 98.1291 299.327 95.4036C299.327 92.6795 298.379 91.4685 297.069 89.7935C295.519 87.8141 293.59 85.3479 293.59 80.743C293.59 76.137 295.519 73.5902 297.069 71.6097C298.359 69.962 299.298 68.6703 299.327 66.0431V65.9908C299.298 63.3636 298.359 62.0727 297.069 60.4242C295.519 58.444 293.59 55.8966 293.59 51.2922C293.59 46.686 295.519 44.2197 297.069 42.2403C298.379 40.5653 299.327 39.3546 299.327 36.6302C299.327 33.9056 298.379 32.6949 297.069 31.0198C295.519 29.0379 293.59 26.5744 293.59 21.9679C293.59 21.3309 293.627 20.7348 293.695 20.1755H269.939Z" stroke="#757EB3" stroke-miterlimit="22.9256"/>
<path fill-rule="evenodd" clip-rule="evenodd" d="M236.246 20.1787V486.586V489.091V614.956H262.368C261.099 613.191 259.897 610.925 259.897 607.227V607.212C259.897 602.529 261.826 600.143 263.376 598.161C264.686 596.487 265.633 595.276 265.633 592.55C265.633 589.824 264.686 588.615 263.376 586.939C261.826 584.958 259.897 582.494 259.897 577.888C259.897 573.281 261.826 570.818 263.376 568.836C264.686 567.161 265.633 565.952 265.633 563.225C265.633 560.502 264.686 559.291 263.376 557.616C261.826 555.636 259.897 553.17 259.897 548.565C259.897 543.959 261.826 541.412 263.376 539.432C264.666 537.784 265.604 536.492 265.633 533.865V533.813C265.604 531.186 264.666 529.894 263.376 528.246C261.826 526.266 259.897 523.718 259.897 519.114C259.897 514.508 261.826 512.041 263.376 510.062C264.686 508.387 265.633 507.176 265.633 504.452C265.633 501.727 264.686 500.517 263.376 498.842C258.265 492.308 259.002 489.223 263.376 483.632C264.686 481.957 265.633 480.747 265.633 478.022C265.633 475.298 264.686 474.087 263.376 472.412C261.826 470.433 259.897 467.966 259.897 463.36C259.897 458.756 261.826 456.208 263.376 454.228C264.666 452.58 265.604 451.288 265.633 448.661V448.609C265.604 445.982 264.666 444.691 263.376 443.043C261.826 441.062 259.897 438.514 259.897 433.909C259.897 429.304 261.826 426.838 263.376 424.858C264.686 423.183 265.633 421.973 265.633 419.248C265.633 416.523 264.686 415.313 263.376 413.639C261.826 411.657 259.897 409.193 259.897 404.587C259.897 399.98 261.826 397.516 263.376 395.535C264.686 393.86 265.633 392.65 265.633 389.924C265.633 387.198 264.686 385.987 263.376 384.314C261.826 382.331 259.897 379.946 259.897 375.262V375.247C259.897 370.563 261.826 368.178 263.376 366.196C264.686 364.522 265.633 363.311 265.633 360.585C265.633 357.859 264.686 356.649 263.376 354.974C261.826 352.992 259.897 350.529 259.897 345.922C259.897 341.315 261.826 338.852 263.376 336.871C264.686 335.195 265.633 333.986 265.633 331.26C265.633 328.536 264.686 327.326 263.376 325.65C261.826 323.671 259.897 321.205 259.897 316.599C259.897 311.994 261.826 309.447 263.376 307.466C264.666 305.819 265.604 304.527 265.633 301.899V301.848C265.604 299.22 264.666 297.93 263.376 296.28C261.826 294.3 259.897 291.753 259.897 287.148C259.897 282.543 261.826 280.076 263.376 278.097C264.686 276.422 265.633 275.211 265.633 272.487C265.633 269.762 264.686 268.551 263.376 266.876C261.826 264.895 259.897 262.431 259.897 257.825C259.897 256.619 260.029 255.562 260.252 254.62L260.22 20.1787H236.246Z" fill="#CCCCCC"/>
<path d="M236.246 20.1787V486.586V489.091V614.956H262.368C261.099 613.191 259.897 610.925 259.897 607.227V607.212C259.897 602.529 261.826 600.143 263.376 598.161C264.686 596.487 265.633 595.276 265.633 592.55C265.633 589.824 264.686 588.615 263.376 586.939C261.826 584.958 259.897 582.494 259.897 577.888C259.897 573.281 261.826 570.818 263.376 568.836C264.686 567.161 265.633 565.952 265.633 563.225C265.633 560.502 264.686 559.291 263.376 557.616C261.826 555.636 259.897 553.17 259.897 548.565C259.897 543.959 261.826 541.412 263.376 539.432C264.666 537.784 265.604 536.492 265.633 533.865V533.813C265.604 531.186 264.666 529.894 263.376 528.246C261.826 526.266 259.897 523.718 259.897 519.114C259.897 514.508 261.826 512.041 263.376 510.062C264.686 508.387 265.633 507.176 265.633 504.452C265.633 501.727 264.686 500.517 263.376 498.842C258.265 492.308 259.002 489.223 263.376 483.632C264.686 481.957 265.633 480.747 265.633 478.022C265.633 475.298 264.686 474.087 263.376 472.412C261.826 470.433 259.897 467.966 259.897 463.36C259.897 458.756 261.826 456.208 263.376 454.228C264.666 452.58 265.604 451.288 265.633 448.661V448.609C265.604 445.982 264.666 444.691 263.376 443.043C261.826 441.062 259.897 438.514 259.897 433.909C259.897 429.304 261.826 426.838 263.376 424.858C264.686 423.183 265.633 421.973 265.633 419.248C265.633 416.523 264.686 415.313 263.376 413.639C261.826 411.657 259.897 409.193 259.897 404.587C259.897 399.98 261.826 397.516 263.376 395.535C264.686 393.86 265.633 392.65 265.633 389.924C265.633 387.198 264.686 385.987 263.376 384.314C261.826 382.331 259.897 379.946 259.897 375.262V375.247C259.897 370.563 261.826 368.178 263.376 366.196C264.686 364.522 265.633 363.311 265.633 360.585C265.633 357.859 264.686 356.649 263.376 354.974C261.826 352.992 259.897 350.529 259.897 345.922C259.897 341.315 261.826 338.852 263.376 336.871C264.686 335.195 265.633 333.986 265.633 331.26C265.633 328.536 264.686 327.326 263.376 325.65C261.826 323.671 259.897 321.205 259.897 316.599C259.897 311.994 261.826 309.447 263.376 307.466C264.666 305.819 265.604 304.527 265.633 301.899V301.848C265.604 299.22 264.666 297.93 263.376 296.28C261.826 294.3 259.897 291.753 259.897 287.148C259.897 282.543 261.826 280.076 263.376 278.097C264.686 276.422 265.633 275.211 265.633 272.487C265.633 269.762 264.686 268.551 263.376 266.876C261.826 264.895 259.897 262.431 259.897 257.825C259.897 256.619 260.029 255.562 260.252 254.62L260.22 20.1787H236.246Z" stroke="#757EB3" stroke-miterlimit="22.9256"/>
<path fill-rule="evenodd" clip-rule="evenodd" d="M270.083 229.467H260.287V19.9521H270.083V229.467Z" fill="#FFEC08"/>
<path d="M270.083 229.467H260.287V19.9521H270.083V229.467Z" stroke="#757EB3" stroke-miterlimit="22.9256"/>
<path fill-rule="evenodd" clip-rule="evenodd" d="M270.083 229.468H260.287V253.442H270.083V229.468Z" fill="#E3000F"/>
<path d="M270.083 229.468H260.287V253.442H270.083V229.468Z" stroke="#757EB3" stroke-miterlimit="22.9256"/>
<path fill-rule="evenodd" clip-rule="evenodd" d="M236.247 525.423H226.451V19.95H236.247V525.423Z" fill="#FFEC08"/>
<path d="M236.247 525.423H226.451V19.9499H236.247V525.423Z" stroke="#757EB3" stroke-miterlimit="22.9256"/>
<path fill-rule="evenodd" clip-rule="evenodd" d="M236.247 524.243H226.451V614.956H236.247V524.243Z" fill="#00963F"/>
<path d="M236.247 524.243H226.451V614.956H236.247V524.243Z" stroke="#757EB3" stroke-miterlimit="22.9256"/>
<path d="M0.975586 1.00098L102.636 57.5042" stroke="#454D7D" stroke-width="2" stroke-miterlimit="22.9256"/>
<path d="M35.2744 407.812L136.935 464.315" stroke="#454D7D" stroke-width="2" stroke-miterlimit="22.9256"/>
<mask id="path-29-outside-1_1029_14232" maskUnits="userSpaceOnUse" x="191" y="614.95" width="41" height="249" fill="black">
<rect fill="white" x="191" y="614.95" width="41" height="249"/>
<path d="M192.613 862.201H224.395L224.393 861.956C224.392 858.951 224.909 856.64 225.632 854.756C226.354 852.878 227.274 851.441 228.093 850.161C229.425 848.079 230.387 846.575 230.387 843.224C230.387 839.871 229.424 838.367 228.093 836.288L228.09 836.283C226.441 833.704 224.392 830.499 224.392 824.494C224.392 818.489 226.441 815.283 228.088 812.708L228.093 812.701C228.766 811.649 229.347 810.741 229.75 809.692C230.15 808.652 230.387 807.444 230.387 805.763C230.387 802.41 229.425 800.907 228.094 798.827L228.011 798.697C226.488 796.317 224.661 793.46 224.42 788.206H224.392V786.657H224.42C224.661 781.403 226.488 778.546 228.011 776.166L228.109 776.013C229.432 773.945 230.387 772.439 230.387 769.1C230.387 767.42 230.15 766.211 229.75 765.171C229.348 764.123 228.768 763.218 228.096 762.168L228.087 762.154C226.44 759.578 224.392 756.375 224.392 750.369C224.392 744.362 226.441 741.158 228.088 738.583L228.099 738.566C229.427 736.491 230.387 734.986 230.387 731.639C230.387 728.288 229.425 726.783 228.094 724.704C227.274 723.422 226.354 721.985 225.632 720.107C224.909 718.222 224.392 715.911 224.392 712.909C224.392 709.908 224.908 707.571 225.631 705.662C226.351 703.762 227.273 702.294 228.093 701.012C228.753 699.98 229.325 699.06 229.73 697.997C230.13 696.949 230.374 695.747 230.388 694.132L230.387 694.065C230.374 692.449 230.13 691.246 229.731 690.198C229.325 689.135 228.753 688.214 228.093 687.183C227.273 685.901 226.351 684.434 225.631 682.533C224.908 680.624 224.392 678.288 224.392 675.285C224.392 669.355 226.391 666.153 228.027 663.597L228.093 663.494C229.425 661.412 230.387 659.908 230.387 656.556C230.387 653.204 229.425 651.701 228.095 649.623L228.088 649.612C226.441 647.036 224.392 643.831 224.392 637.826C224.392 631.821 226.441 628.615 228.088 626.04L228.093 626.032C229.424 623.953 230.387 622.45 230.387 619.095C230.387 618.568 230.364 618.088 230.32 617.647C230.287 617.314 230.242 617.002 230.185 616.707L230.075 615.95L230.658 615.957L230.72 616.236C230.81 616.644 230.881 617.082 230.928 617.556C230.975 618.031 231 618.541 231 619.095C231 622.703 229.982 624.294 228.574 626.492L228.558 626.517C226.971 628.998 225.005 632.088 225.005 637.826C225.005 643.578 226.981 646.669 228.569 649.152L228.576 649.163C229.983 651.361 231 652.949 231 656.556C231 660.107 230.013 661.703 228.64 663.85L228.574 663.953C226.985 666.436 225.005 669.529 225.005 675.285C225.005 678.165 225.497 680.399 226.187 682.22C226.879 684.048 227.776 685.476 228.574 686.723C229.261 687.796 229.856 688.756 230.285 689.882C230.719 691.023 230.983 692.325 230.999 694.062L231 694.132C230.983 695.871 230.719 697.172 230.284 698.313C229.856 699.44 229.261 700.399 228.574 701.472C227.776 702.719 226.879 704.147 226.187 705.975C225.497 707.796 225.005 710.03 225.005 712.909C225.005 715.79 225.497 717.998 226.185 719.791C226.876 721.59 227.775 722.993 228.574 724.242C229.982 726.443 231 728.033 231 731.639C231 735.245 229.982 736.836 228.575 739.034L228.562 739.054C226.975 741.535 225.005 744.625 225.005 750.369C225.005 756.116 226.977 759.205 228.565 761.689L228.574 761.703C229.27 762.789 229.87 763.727 230.304 764.855C230.741 765.993 231 767.301 231 769.1C231 772.708 229.982 774.298 228.575 776.497L228.492 776.626C226.99 778.973 225.18 781.802 225.016 787.045C225.007 787.328 225.007 787.535 225.016 787.818C225.18 793.06 226.99 795.89 228.492 798.237L228.574 798.365C229.982 800.566 231 802.156 231 805.763C231 807.563 230.741 808.87 230.304 810.008C229.87 811.136 229.27 812.074 228.574 813.16L228.569 813.167C226.981 815.651 225.005 818.742 225.005 824.494C225.005 830.232 226.971 833.322 228.557 835.802L228.575 835.828C229.982 838.027 231 839.617 231 843.224C231 846.83 229.983 848.42 228.576 850.618C227.775 851.869 226.876 853.273 226.185 855.072C225.497 856.865 225.005 859.072 225.005 861.953L225.02 862.95H192V862.576V862.201H192.613Z"/>
</mask>
<path d="M192.613 862.201H224.395L224.393 861.956C224.392 858.951 224.909 856.64 225.632 854.756C226.354 852.878 227.274 851.441 228.093 850.161C229.425 848.079 230.387 846.575 230.387 843.224C230.387 839.871 229.424 838.367 228.093 836.288L228.09 836.283C226.441 833.704 224.392 830.499 224.392 824.494C224.392 818.489 226.441 815.283 228.088 812.708L228.093 812.701C228.766 811.649 229.347 810.741 229.75 809.692C230.15 808.652 230.387 807.444 230.387 805.763C230.387 802.41 229.425 800.907 228.094 798.827L228.011 798.697C226.488 796.317 224.661 793.46 224.42 788.206H224.392V786.657H224.42C224.661 781.403 226.488 778.546 228.011 776.166L228.109 776.013C229.432 773.945 230.387 772.439 230.387 769.1C230.387 767.42 230.15 766.211 229.75 765.171C229.348 764.123 228.768 763.218 228.096 762.168L228.087 762.154C226.44 759.578 224.392 756.375 224.392 750.369C224.392 744.362 226.441 741.158 228.088 738.583L228.099 738.566C229.427 736.491 230.387 734.986 230.387 731.639C230.387 728.288 229.425 726.783 228.094 724.704C227.274 723.422 226.354 721.985 225.632 720.107C224.909 718.222 224.392 715.911 224.392 712.909C224.392 709.908 224.908 707.571 225.631 705.662C226.351 703.762 227.273 702.294 228.093 701.012C228.753 699.98 229.325 699.06 229.73 697.997C230.13 696.949 230.374 695.747 230.388 694.132L230.387 694.065C230.374 692.449 230.13 691.246 229.731 690.198C229.325 689.135 228.753 688.214 228.093 687.183C227.273 685.901 226.351 684.434 225.631 682.533C224.908 680.624 224.392 678.288 224.392 675.285C224.392 669.355 226.391 666.153 228.027 663.597L228.093 663.494C229.425 661.412 230.387 659.908 230.387 656.556C230.387 653.204 229.425 651.701 228.095 649.623L228.088 649.612C226.441 647.036 224.392 643.831 224.392 637.826C224.392 631.821 226.441 628.615 228.088 626.04L228.093 626.032C229.424 623.953 230.387 622.45 230.387 619.095C230.387 618.568 230.364 618.088 230.32 617.647C230.287 617.314 230.242 617.002 230.185 616.707L230.075 615.95L230.658 615.957L230.72 616.236C230.81 616.644 230.881 617.082 230.928 617.556C230.975 618.031 231 618.541 231 619.095C231 622.703 229.982 624.294 228.574 626.492L228.558 626.517C226.971 628.998 225.005 632.088 225.005 637.826C225.005 643.578 226.981 646.669 228.569 649.152L228.576 649.163C229.983 651.361 231 652.949 231 656.556C231 660.107 230.013 661.703 228.64 663.85L228.574 663.953C226.985 666.436 225.005 669.529 225.005 675.285C225.005 678.165 225.497 680.399 226.187 682.22C226.879 684.048 227.776 685.476 228.574 686.723C229.261 687.796 229.856 688.756 230.285 689.882C230.719 691.023 230.983 692.325 230.999 694.062L231 694.132C230.983 695.871 230.719 697.172 230.284 698.313C229.856 699.44 229.261 700.399 228.574 701.472C227.776 702.719 226.879 704.147 226.187 705.975C225.497 707.796 225.005 710.03 225.005 712.909C225.005 715.79 225.497 717.998 226.185 719.791C226.876 721.59 227.775 722.993 228.574 724.242C229.982 726.443 231 728.033 231 731.639C231 735.245 229.982 736.836 228.575 739.034L228.562 739.054C226.975 741.535 225.005 744.625 225.005 750.369C225.005 756.116 226.977 759.205 228.565 761.689L228.574 761.703C229.27 762.789 229.87 763.727 230.304 764.855C230.741 765.993 231 767.301 231 769.1C231 772.708 229.982 774.298 228.575 776.497L228.492 776.626C226.99 778.973 225.18 781.802 225.016 787.045C225.007 787.328 225.007 787.535 225.016 787.818C225.18 793.06 226.99 795.89 228.492 798.237L228.574 798.365C229.982 800.566 231 802.156 231 805.763C231 807.563 230.741 808.87 230.304 810.008C229.87 811.136 229.27 812.074 228.574 813.16L228.569 813.167C226.981 815.651 225.005 818.742 225.005 824.494C225.005 830.232 226.971 833.322 228.557 835.802L228.575 835.828C229.982 838.027 231 839.617 231 843.224C231 846.83 229.983 848.42 228.576 850.618C227.775 851.869 226.876 853.273 226.185 855.072C225.497 856.865 225.005 859.072 225.005 861.953L225.02 862.95H192V862.576V862.201H192.613Z" fill="#FBA409"/>
<path d="M192.613 862.201H224.395L224.393 861.956C224.392 858.951 224.909 856.64 225.632 854.756C226.354 852.878 227.274 851.441 228.093 850.161C229.425 848.079 230.387 846.575 230.387 843.224C230.387 839.871 229.424 838.367 228.093 836.288L228.09 836.283C226.441 833.704 224.392 830.499 224.392 824.494C224.392 818.489 226.441 815.283 228.088 812.708L228.093 812.701C228.766 811.649 229.347 810.741 229.75 809.692C230.15 808.652 230.387 807.444 230.387 805.763C230.387 802.41 229.425 800.907 228.094 798.827L228.011 798.697C226.488 796.317 224.661 793.46 224.42 788.206H224.392V786.657H224.42C224.661 781.403 226.488 778.546 228.011 776.166L228.109 776.013C229.432 773.945 230.387 772.439 230.387 769.1C230.387 767.42 230.15 766.211 229.75 765.171C229.348 764.123 228.768 763.218 228.096 762.168L228.087 762.154C226.44 759.578 224.392 756.375 224.392 750.369C224.392 744.362 226.441 741.158 228.088 738.583L228.099 738.566C229.427 736.491 230.387 734.986 230.387 731.639C230.387 728.288 229.425 726.783 228.094 724.704C227.274 723.422 226.354 721.985 225.632 720.107C224.909 718.222 224.392 715.911 224.392 712.909C224.392 709.908 224.908 707.571 225.631 705.662C226.351 703.762 227.273 702.294 228.093 701.012C228.753 699.98 229.325 699.06 229.73 697.997C230.13 696.949 230.374 695.747 230.388 694.132L230.387 694.065C230.374 692.449 230.13 691.246 229.731 690.198C229.325 689.135 228.753 688.214 228.093 687.183C227.273 685.901 226.351 684.434 225.631 682.533C224.908 680.624 224.392 678.288 224.392 675.285C224.392 669.355 226.391 666.153 228.027 663.597L228.093 663.494C229.425 661.412 230.387 659.908 230.387 656.556C230.387 653.204 229.425 651.701 228.095 649.623L228.088 649.612C226.441 647.036 224.392 643.831 224.392 637.826C224.392 631.821 226.441 628.615 228.088 626.04L228.093 626.032C229.424 623.953 230.387 622.45 230.387 619.095C230.387 618.568 230.364 618.088 230.32 617.647C230.287 617.314 230.242 617.002 230.185 616.707L230.075 615.95L230.658 615.957L230.72 616.236C230.81 616.644 230.881 617.082 230.928 617.556C230.975 618.031 231 618.541 231 619.095C231 622.703 229.982 624.294 228.574 626.492L228.558 626.517C226.971 628.998 225.005 632.088 225.005 637.826C225.005 643.578 226.981 646.669 228.569 649.152L228.576 649.163C229.983 651.361 231 652.949 231 656.556C231 660.107 230.013 661.703 228.64 663.85L228.574 663.953C226.985 666.436 225.005 669.529 225.005 675.285C225.005 678.165 225.497 680.399 226.187 682.22C226.879 684.048 227.776 685.476 228.574 686.723C229.261 687.796 229.856 688.756 230.285 689.882C230.719 691.023 230.983 692.325 230.999 694.062L231 694.132C230.983 695.871 230.719 697.172 230.284 698.313C229.856 699.44 229.261 700.399 228.574 701.472C227.776 702.719 226.879 704.147 226.187 705.975C225.497 707.796 225.005 710.03 225.005 712.909C225.005 715.79 225.497 717.998 226.185 719.791C226.876 721.59 227.775 722.993 228.574 724.242C229.982 726.443 231 728.033 231 731.639C231 735.245 229.982 736.836 228.575 739.034L228.562 739.054C226.975 741.535 225.005 744.625 225.005 750.369C225.005 756.116 226.977 759.205 228.565 761.689L228.574 761.703C229.27 762.789 229.87 763.727 230.304 764.855C230.741 765.993 231 767.301 231 769.1C231 772.708 229.982 774.298 228.575 776.497L228.492 776.626C226.99 778.973 225.18 781.802 225.016 787.045C225.007 787.328 225.007 787.535 225.016 787.818C225.18 793.06 226.99 795.89 228.492 798.237L228.574 798.365C229.982 800.566 231 802.156 231 805.763C231 807.563 230.741 808.87 230.304 810.008C229.87 811.136 229.27 812.074 228.574 813.16L228.569 813.167C226.981 815.651 225.005 818.742 225.005 824.494C225.005 830.232 226.971 833.322 228.557 835.802L228.575 835.828C229.982 838.027 231 839.617 231 843.224C231 846.83 229.983 848.42 228.576 850.618C227.775 851.869 226.876 853.273 226.185 855.072C225.497 856.865 225.005 859.072 225.005 861.953L225.02 862.95H192V862.576V862.201H192.613Z" stroke="#FBA409" mask="url(#path-29-outside-1_1029_14232)"/>
<mask id="path-30-outside-2_1029_14232" maskUnits="userSpaceOnUse" x="136" y="614.95" width="41" height="249" fill="black">
<rect fill="white" x="136" y="614.95" width="41" height="249"/>
<path d="M175.387 862.201H143.605L143.607 861.956C143.608 858.951 143.091 856.64 142.368 854.756C141.646 852.878 140.726 851.441 139.907 850.161C138.575 848.079 137.613 846.575 137.613 843.224C137.613 839.871 138.576 838.367 139.907 836.288L139.91 836.283C141.559 833.704 143.608 830.499 143.608 824.494C143.608 818.489 141.559 815.283 139.912 812.708L139.907 812.701C139.234 811.649 138.653 810.741 138.25 809.692C137.85 808.652 137.613 807.444 137.613 805.763C137.613 802.41 138.575 800.907 139.906 798.827L139.989 798.697C141.512 796.317 143.339 793.46 143.58 788.206H143.608V786.657H143.58C143.339 781.403 141.512 778.546 139.989 776.166L139.891 776.013C138.568 773.945 137.613 772.439 137.613 769.1C137.613 767.42 137.85 766.211 138.25 765.171C138.652 764.123 139.232 763.218 139.904 762.168L139.913 762.154C141.56 759.578 143.608 756.375 143.608 750.369C143.608 744.362 141.559 741.158 139.912 738.583L139.901 738.566C138.573 736.491 137.613 734.986 137.613 731.639C137.613 728.288 138.575 726.783 139.906 724.704C140.726 723.422 141.646 721.985 142.368 720.107C143.091 718.222 143.608 715.911 143.608 712.909C143.608 709.908 143.092 707.571 142.369 705.662C141.649 703.762 140.727 702.294 139.907 701.012C139.247 699.98 138.675 699.06 138.27 697.997C137.87 696.949 137.626 695.747 137.612 694.132L137.613 694.065C137.626 692.449 137.87 691.246 138.269 690.198C138.675 689.135 139.247 688.214 139.907 687.183C140.727 685.901 141.649 684.434 142.369 682.533C143.092 680.624 143.608 678.288 143.608 675.285C143.608 669.355 141.609 666.153 139.973 663.597L139.907 663.494C138.575 661.412 137.613 659.908 137.613 656.556C137.613 653.204 138.575 651.701 139.905 649.623L139.912 649.612C141.559 647.036 143.608 643.831 143.608 637.826C143.608 631.821 141.559 628.615 139.912 626.04L139.907 626.032C138.576 623.953 137.613 622.45 137.613 619.095C137.613 618.568 137.636 618.088 137.68 617.647C137.713 617.314 137.758 617.002 137.815 616.707L137.925 615.95L137.342 615.957L137.28 616.236C137.19 616.644 137.119 617.082 137.072 617.556C137.025 618.031 137 618.541 137 619.095C137 622.703 138.018 624.294 139.426 626.492L139.442 626.517C141.029 628.998 142.995 632.088 142.995 637.826C142.995 643.578 141.019 646.669 139.431 649.152L139.424 649.163C138.017 651.361 137 652.949 137 656.556C137 660.107 137.987 661.703 139.36 663.85L139.426 663.953C141.015 666.436 142.995 669.529 142.995 675.285C142.995 678.165 142.503 680.399 141.813 682.22C141.121 684.048 140.224 685.476 139.426 686.723C138.739 687.796 138.144 688.756 137.715 689.882C137.281 691.023 137.017 692.325 137.001 694.062L137 694.132C137.017 695.871 137.281 697.172 137.716 698.313C138.144 699.44 138.739 700.399 139.426 701.472C140.224 702.719 141.121 704.147 141.813 705.975C142.503 707.796 142.995 710.03 142.995 712.909C142.995 715.79 142.503 717.998 141.815 719.791C141.124 721.59 140.225 722.993 139.426 724.242C138.018 726.443 137 728.033 137 731.639C137 735.245 138.018 736.836 139.425 739.034L139.438 739.054C141.025 741.535 142.995 744.625 142.995 750.369C142.995 756.116 141.023 759.205 139.435 761.689L139.426 761.703C138.73 762.789 138.13 763.727 137.696 764.855C137.259 765.993 137 767.301 137 769.1C137 772.708 138.018 774.298 139.425 776.497L139.508 776.626C141.01 778.973 142.82 781.802 142.984 787.045C142.993 787.328 142.993 787.535 142.984 787.818C142.82 793.06 141.01 795.89 139.508 798.237L139.426 798.365C138.018 800.566 137 802.156 137 805.763C137 807.563 137.259 808.87 137.696 810.008C138.13 811.136 138.73 812.074 139.426 813.16L139.431 813.167C141.019 815.651 142.995 818.742 142.995 824.494C142.995 830.232 141.029 833.322 139.443 835.802L139.425 835.828C138.018 838.027 137 839.617 137 843.224C137 846.83 138.017 848.42 139.424 850.618C140.225 851.869 141.124 853.273 141.815 855.072C142.503 856.865 142.995 859.072 142.995 861.953L142.98 862.95H176V862.576V862.201H175.387Z"/>
</mask>
<path d="M175.387 862.201H143.605L143.607 861.956C143.608 858.951 143.091 856.64 142.368 854.756C141.646 852.878 140.726 851.441 139.907 850.161C138.575 848.079 137.613 846.575 137.613 843.224C137.613 839.871 138.576 838.367 139.907 836.288L139.91 836.283C141.559 833.704 143.608 830.499 143.608 824.494C143.608 818.489 141.559 815.283 139.912 812.708L139.907 812.701C139.234 811.649 138.653 810.741 138.25 809.692C137.85 808.652 137.613 807.444 137.613 805.763C137.613 802.41 138.575 800.907 139.906 798.827L139.989 798.697C141.512 796.317 143.339 793.46 143.58 788.206H143.608V786.657H143.58C143.339 781.403 141.512 778.546 139.989 776.166L139.891 776.013C138.568 773.945 137.613 772.439 137.613 769.1C137.613 767.42 137.85 766.211 138.25 765.171C138.652 764.123 139.232 763.218 139.904 762.168L139.913 762.154C141.56 759.578 143.608 756.375 143.608 750.369C143.608 744.362 141.559 741.158 139.912 738.583L139.901 738.566C138.573 736.491 137.613 734.986 137.613 731.639C137.613 728.288 138.575 726.783 139.906 724.704C140.726 723.422 141.646 721.985 142.368 720.107C143.091 718.222 143.608 715.911 143.608 712.909C143.608 709.908 143.092 707.571 142.369 705.662C141.649 703.762 140.727 702.294 139.907 701.012C139.247 699.98 138.675 699.06 138.27 697.997C137.87 696.949 137.626 695.747 137.612 694.132L137.613 694.065C137.626 692.449 137.87 691.246 138.269 690.198C138.675 689.135 139.247 688.214 139.907 687.183C140.727 685.901 141.649 684.434 142.369 682.533C143.092 680.624 143.608 678.288 143.608 675.285C143.608 669.355 141.609 666.153 139.973 663.597L139.907 663.494C138.575 661.412 137.613 659.908 137.613 656.556C137.613 653.204 138.575 651.701 139.905 649.623L139.912 649.612C141.559 647.036 143.608 643.831 143.608 637.826C143.608 631.821 141.559 628.615 139.912 626.04L139.907 626.032C138.576 623.953 137.613 622.45 137.613 619.095C137.613 618.568 137.636 618.088 137.68 617.647C137.713 617.314 137.758 617.002 137.815 616.707L137.925 615.95L137.342 615.957L137.28 616.236C137.19 616.644 137.119 617.082 137.072 617.556C137.025 618.031 137 618.541 137 619.095C137 622.703 138.018 624.294 139.426 626.492L139.442 626.517C141.029 628.998 142.995 632.088 142.995 637.826C142.995 643.578 141.019 646.669 139.431 649.152L139.424 649.163C138.017 651.361 137 652.949 137 656.556C137 660.107 137.987 661.703 139.36 663.85L139.426 663.953C141.015 666.436 142.995 669.529 142.995 675.285C142.995 678.165 142.503 680.399 141.813 682.22C141.121 684.048 140.224 685.476 139.426 686.723C138.739 687.796 138.144 688.756 137.715 689.882C137.281 691.023 137.017 692.325 137.001 694.062L137 694.132C137.017 695.871 137.281 697.172 137.716 698.313C138.144 699.44 138.739 700.399 139.426 701.472C140.224 702.719 141.121 704.147 141.813 705.975C142.503 707.796 142.995 710.03 142.995 712.909C142.995 715.79 142.503 717.998 141.815 719.791C141.124 721.59 140.225 722.993 139.426 724.242C138.018 726.443 137 728.033 137 731.639C137 735.245 138.018 736.836 139.425 739.034L139.438 739.054C141.025 741.535 142.995 744.625 142.995 750.369C142.995 756.116 141.023 759.205 139.435 761.689L139.426 761.703C138.73 762.789 138.13 763.727 137.696 764.855C137.259 765.993 137 767.301 137 769.1C137 772.708 138.018 774.298 139.425 776.497L139.508 776.626C141.01 778.973 142.82 781.802 142.984 787.045C142.993 787.328 142.993 787.535 142.984 787.818C142.82 793.06 141.01 795.89 139.508 798.237L139.426 798.365C138.018 800.566 137 802.156 137 805.763C137 807.563 137.259 808.87 137.696 810.008C138.13 811.136 138.73 812.074 139.426 813.16L139.431 813.167C141.019 815.651 142.995 818.742 142.995 824.494C142.995 830.232 141.029 833.322 139.443 835.802L139.425 835.828C138.018 838.027 137 839.617 137 843.224C137 846.83 138.017 848.42 139.424 850.618C140.225 851.869 141.124 853.273 141.815 855.072C142.503 856.865 142.995 859.072 142.995 861.953L142.98 862.95H176V862.576V862.201H175.387Z" fill="#FBA409"/>
<path d="M175.387 862.201H143.605L143.607 861.956C143.608 858.951 143.091 856.64 142.368 854.756C141.646 852.878 140.726 851.441 139.907 850.161C138.575 848.079 137.613 846.575 137.613 843.224C137.613 839.871 138.576 838.367 139.907 836.288L139.91 836.283C141.559 833.704 143.608 830.499 143.608 824.494C143.608 818.489 141.559 815.283 139.912 812.708L139.907 812.701C139.234 811.649 138.653 810.741 138.25 809.692C137.85 808.652 137.613 807.444 137.613 805.763C137.613 802.41 138.575 800.907 139.906 798.827L139.989 798.697C141.512 796.317 143.339 793.46 143.58 788.206H143.608V786.657H143.58C143.339 781.403 141.512 778.546 139.989 776.166L139.891 776.013C138.568 773.945 137.613 772.439 137.613 769.1C137.613 767.42 137.85 766.211 138.25 765.171C138.652 764.123 139.232 763.218 139.904 762.168L139.913 762.154C141.56 759.578 143.608 756.375 143.608 750.369C143.608 744.362 141.559 741.158 139.912 738.583L139.901 738.566C138.573 736.491 137.613 734.986 137.613 731.639C137.613 728.288 138.575 726.783 139.906 724.704C140.726 723.422 141.646 721.985 142.368 720.107C143.091 718.222 143.608 715.911 143.608 712.909C143.608 709.908 143.092 707.571 142.369 705.662C141.649 703.762 140.727 702.294 139.907 701.012C139.247 699.98 138.675 699.06 138.27 697.997C137.87 696.949 137.626 695.747 137.612 694.132L137.613 694.065C137.626 692.449 137.87 691.246 138.269 690.198C138.675 689.135 139.247 688.214 139.907 687.183C140.727 685.901 141.649 684.434 142.369 682.533C143.092 680.624 143.608 678.288 143.608 675.285C143.608 669.355 141.609 666.153 139.973 663.597L139.907 663.494C138.575 661.412 137.613 659.908 137.613 656.556C137.613 653.204 138.575 651.701 139.905 649.623L139.912 649.612C141.559 647.036 143.608 643.831 143.608 637.826C143.608 631.821 141.559 628.615 139.912 626.04L139.907 626.032C138.576 623.953 137.613 622.45 137.613 619.095C137.613 618.568 137.636 618.088 137.68 617.647C137.713 617.314 137.758 617.002 137.815 616.707L137.925 615.95L137.342 615.957L137.28 616.236C137.19 616.644 137.119 617.082 137.072 617.556C137.025 618.031 137 618.541 137 619.095C137 622.703 138.018 624.294 139.426 626.492L139.442 626.517C141.029 628.998 142.995 632.088 142.995 637.826C142.995 643.578 141.019 646.669 139.431 649.152L139.424 649.163C138.017 651.361 137 652.949 137 656.556C137 660.107 137.987 661.703 139.36 663.85L139.426 663.953C141.015 666.436 142.995 669.529 142.995 675.285C142.995 678.165 142.503 680.399 141.813 682.22C141.121 684.048 140.224 685.476 139.426 686.723C138.739 687.796 138.144 688.756 137.715 689.882C137.281 691.023 137.017 692.325 137.001 694.062L137 694.132C137.017 695.871 137.281 697.172 137.716 698.313C138.144 699.44 138.739 700.399 139.426 701.472C140.224 702.719 141.121 704.147 141.813 705.975C142.503 707.796 142.995 710.03 142.995 712.909C142.995 715.79 142.503 717.998 141.815 719.791C141.124 721.59 140.225 722.993 139.426 724.242C138.018 726.443 137 728.033 137 731.639C137 735.245 138.018 736.836 139.425 739.034L139.438 739.054C141.025 741.535 142.995 744.625 142.995 750.369C142.995 756.116 141.023 759.205 139.435 761.689L139.426 761.703C138.73 762.789 138.13 763.727 137.696 764.855C137.259 765.993 137 767.301 137 769.1C137 772.708 138.018 774.298 139.425 776.497L139.508 776.626C141.01 778.973 142.82 781.802 142.984 787.045C142.993 787.328 142.993 787.535 142.984 787.818C142.82 793.06 141.01 795.89 139.508 798.237L139.426 798.365C138.018 800.566 137 802.156 137 805.763C137 807.563 137.259 808.87 137.696 810.008C138.13 811.136 138.73 812.074 139.426 813.16L139.431 813.167C141.019 815.651 142.995 818.742 142.995 824.494C142.995 830.232 141.029 833.322 139.443 835.802L139.425 835.828C138.018 838.027 137 839.617 137 843.224C137 846.83 138.017 848.42 139.424 850.618C140.225 851.869 141.124 853.273 141.815 855.072C142.503 856.865 142.995 859.072 142.995 861.953L142.98 862.95H176V862.576V862.201H175.387Z" stroke="#FBA409" mask="url(#path-30-outside-2_1029_14232)"/>
</svg>
