<svg width="476" height="870" viewBox="0 0 476 870" fill="none" xmlns="http://www.w3.org/2000/svg">
<path d="M337 96.4297L424.633 96.4297" stroke="#454D7D" stroke-width="2" stroke-miterlimit="22.9256"/>
<path d="M301 260.189L425 260.189" stroke="#454D7D" stroke-width="2" stroke-miterlimit="22.9256"/>
<path d="M267 622.189L425 622.189" stroke="#454D7D" stroke-width="2" stroke-miterlimit="22.9256"/>
<path fill-rule="evenodd" clip-rule="evenodd" d="M138.916 26.4144V259.474H114.811C114.148 257.034 112.874 255.405 111.786 254.015C110.476 252.34 109.529 251.129 109.529 248.405C109.529 245.68 110.476 244.47 111.786 242.794C113.336 240.815 115.265 238.348 115.265 233.743C115.265 229.139 113.336 226.591 111.786 224.61C110.496 222.963 109.557 221.671 109.529 219.044V218.992C109.557 216.365 110.496 215.073 111.786 213.426C113.336 211.445 115.265 208.896 115.265 204.292C115.265 199.686 113.336 197.221 111.786 195.241C110.476 193.566 109.529 192.355 109.529 189.631C109.529 186.905 110.476 185.695 111.786 184.021C113.336 182.039 115.265 179.576 115.265 174.969C115.265 170.363 113.336 167.899 111.786 165.917C110.476 164.242 109.529 163.032 109.529 160.306C109.529 157.581 110.476 156.37 111.786 154.696C113.336 152.713 115.265 150.328 115.265 145.644V145.629C115.265 140.946 113.336 138.56 111.786 136.578C110.476 134.904 109.529 133.693 109.529 130.968C109.529 128.241 110.476 127.032 111.786 125.356C113.336 123.375 115.265 120.911 115.265 116.305C115.265 111.698 113.336 109.235 111.786 107.253C110.476 105.578 109.529 104.368 109.529 101.643C109.529 98.9185 110.476 97.7074 111.786 96.0328C111.91 95.8747 112.037 95.713 112.164 95.5473L108.843 26.4144H138.916Z" fill="#CCCCCC"/>
<path d="M138.916 26.4144V259.474H114.811C114.148 257.034 112.874 255.405 111.786 254.015C110.476 252.34 109.529 251.129 109.529 248.405C109.529 245.68 110.476 244.47 111.786 242.794C113.336 240.815 115.265 238.348 115.265 233.743C115.265 229.139 113.336 226.591 111.786 224.61C110.496 222.963 109.557 221.671 109.529 219.044V218.992C109.557 216.365 110.496 215.073 111.786 213.426C113.336 211.445 115.265 208.896 115.265 204.292C115.265 199.686 113.336 197.221 111.786 195.241C110.476 193.566 109.529 192.355 109.529 189.631C109.529 186.905 110.476 185.695 111.786 184.021C113.336 182.039 115.265 179.576 115.265 174.969C115.265 170.363 113.336 167.899 111.786 165.917C110.476 164.242 109.529 163.032 109.529 160.306C109.529 157.581 110.476 156.37 111.786 154.696C113.336 152.713 115.265 150.328 115.265 145.644V145.629C115.265 140.946 113.336 138.56 111.786 136.578C110.476 134.904 109.529 133.693 109.529 130.968C109.529 128.241 110.476 127.032 111.786 125.356C113.336 123.375 115.265 120.911 115.265 116.305C115.265 111.698 113.336 109.235 111.786 107.253C110.476 105.578 109.529 104.368 109.529 101.643C109.529 98.9185 110.476 97.7074 111.786 96.0328C111.91 95.8747 112.037 95.713 112.164 95.5473L108.843 26.4144H138.916Z" stroke="#757EB3" stroke-miterlimit="22.9256"/>
<path fill-rule="evenodd" clip-rule="evenodd" d="M172.738 26.4148V492.822V495.327V621.192H146.615C147.884 619.427 149.087 617.162 149.087 613.463V613.449C149.087 608.765 147.158 606.38 145.608 604.397C144.298 602.723 143.351 601.513 143.351 598.787C143.351 596.06 144.298 594.851 145.608 593.175C147.158 591.194 149.087 588.731 149.087 584.124C149.087 579.517 147.158 577.054 145.608 575.073C144.298 573.397 143.351 572.188 143.351 569.462C143.351 566.738 144.298 565.527 145.608 563.852C147.158 561.873 149.087 559.407 149.087 554.801C149.087 550.196 147.158 547.648 145.608 545.668C144.318 544.02 143.379 542.728 143.351 540.101V540.049C143.379 537.422 144.318 536.131 145.608 534.482C147.158 532.502 149.087 529.955 149.087 525.35C149.087 520.744 147.158 518.278 145.608 516.299C144.298 514.624 143.351 513.412 143.351 510.689C143.351 507.964 144.298 506.753 145.608 505.078C150.719 498.544 149.981 495.459 145.608 489.869C144.298 488.194 143.351 486.983 143.351 484.259C143.351 481.534 144.298 480.324 145.608 478.648C147.158 476.669 149.087 474.202 149.087 469.596C149.087 464.992 147.158 462.444 145.608 460.464C144.318 458.816 143.379 457.525 143.351 454.898V454.845C143.379 452.219 144.318 450.927 145.608 449.279C147.158 447.298 149.087 444.75 149.087 440.146C149.087 435.54 147.158 433.075 145.608 431.095C144.298 429.42 143.351 428.209 143.351 425.485C143.351 422.759 144.298 421.55 145.608 419.875C147.158 417.893 149.087 415.429 149.087 410.823C149.087 406.216 147.158 403.752 145.608 401.771C144.298 400.096 143.351 398.886 143.351 396.16C143.351 393.435 144.298 392.224 145.608 390.55C147.158 388.567 149.087 386.182 149.087 381.498V381.483C149.087 376.799 147.158 374.414 145.608 372.432C144.298 370.758 143.351 369.547 143.351 366.822C143.351 364.095 144.298 362.886 145.608 361.21C147.158 359.229 149.087 356.765 149.087 352.159C149.087 347.552 147.158 345.089 145.608 343.107C144.298 341.432 143.351 340.222 143.351 337.496C143.351 334.772 144.298 333.562 145.608 331.886C147.158 329.907 149.087 327.441 149.087 322.836C149.087 318.23 147.158 315.683 145.608 313.703C144.318 312.055 143.379 310.763 143.351 308.136V308.084C143.379 305.456 144.318 304.166 145.608 302.517C147.158 300.537 149.087 297.989 149.087 293.385C149.087 288.779 147.158 286.312 145.608 284.333C144.298 282.658 143.351 281.447 143.351 278.723C143.351 275.998 144.298 274.788 145.608 273.113C147.158 271.131 149.087 268.667 149.087 264.061C149.087 262.856 148.955 261.798 148.732 260.857L148.764 26.4148H172.738Z" fill="#CCCCCC"/>
<path d="M172.738 26.4148V492.822V495.327V621.192H146.615C147.884 619.427 149.087 617.162 149.087 613.463V613.449C149.087 608.765 147.158 606.38 145.608 604.397C144.298 602.723 143.351 601.513 143.351 598.787C143.351 596.06 144.298 594.851 145.608 593.175C147.158 591.194 149.087 588.731 149.087 584.124C149.087 579.517 147.158 577.054 145.608 575.073C144.298 573.397 143.351 572.188 143.351 569.462C143.351 566.738 144.298 565.527 145.608 563.852C147.158 561.873 149.087 559.407 149.087 554.801C149.087 550.196 147.158 547.648 145.608 545.668C144.318 544.02 143.379 542.728 143.351 540.101V540.049C143.379 537.422 144.318 536.131 145.608 534.482C147.158 532.502 149.087 529.955 149.087 525.35C149.087 520.744 147.158 518.278 145.608 516.299C144.298 514.624 143.351 513.412 143.351 510.689C143.351 507.964 144.298 506.753 145.608 505.078C150.719 498.544 149.981 495.459 145.608 489.869C144.298 488.194 143.351 486.983 143.351 484.259C143.351 481.534 144.298 480.324 145.608 478.648C147.158 476.669 149.087 474.202 149.087 469.596C149.087 464.992 147.158 462.444 145.608 460.464C144.318 458.816 143.379 457.525 143.351 454.898V454.845C143.379 452.219 144.318 450.927 145.608 449.279C147.158 447.298 149.087 444.75 149.087 440.146C149.087 435.54 147.158 433.075 145.608 431.095C144.298 429.42 143.351 428.209 143.351 425.485C143.351 422.759 144.298 421.55 145.608 419.875C147.158 417.893 149.087 415.429 149.087 410.823C149.087 406.216 147.158 403.752 145.608 401.771C144.298 400.096 143.351 398.886 143.351 396.16C143.351 393.435 144.298 392.224 145.608 390.55C147.158 388.567 149.087 386.182 149.087 381.498V381.483C149.087 376.799 147.158 374.414 145.608 372.432C144.298 370.758 143.351 369.547 143.351 366.822C143.351 364.095 144.298 362.886 145.608 361.21C147.158 359.229 149.087 356.765 149.087 352.159C149.087 347.552 147.158 345.089 145.608 343.107C144.298 341.432 143.351 340.222 143.351 337.496C143.351 334.772 144.298 333.562 145.608 331.886C147.158 329.907 149.087 327.441 149.087 322.836C149.087 318.23 147.158 315.683 145.608 313.703C144.318 312.055 143.379 310.763 143.351 308.136V308.084C143.379 305.456 144.318 304.166 145.608 302.517C147.158 300.537 149.087 297.989 149.087 293.385C149.087 288.779 147.158 286.312 145.608 284.333C144.298 282.658 143.351 281.447 143.351 278.723C143.351 275.998 144.298 274.788 145.608 273.113C147.158 271.131 149.087 268.667 149.087 264.061C149.087 262.856 148.955 261.798 148.732 260.857L148.764 26.4148H172.738Z" stroke="#757EB3" stroke-miterlimit="22.9256"/>
<path fill-rule="evenodd" clip-rule="evenodd" d="M138.966 95.4141H148.762V26.414H138.966V95.4141Z" fill="#00963F"/>
<path d="M138.966 95.4141H148.762V26.414H138.966V95.4141Z" stroke="#757EB3" stroke-miterlimit="22.9256"/>
<path fill-rule="evenodd" clip-rule="evenodd" d="M138.966 235.498H148.762V259.474H138.966V235.498Z" fill="#E3000F"/>
<path d="M138.966 235.498H148.762V259.474H138.966V235.498Z" stroke="#757EB3" stroke-miterlimit="22.9256"/>
<path fill-rule="evenodd" clip-rule="evenodd" d="M172.738 565.816H182.534V26.1892H172.738V565.816Z" fill="#FFEC08"/>
<path d="M172.738 565.816H182.534V26.1892H172.738V565.816Z" stroke="#757EB3" stroke-miterlimit="22.9256"/>
<path fill-rule="evenodd" clip-rule="evenodd" d="M172.738 565.817H182.534V621.192H172.738V565.817Z" fill="#00963F"/>
<path d="M172.738 565.817H182.534V621.192H172.738V565.817Z" stroke="#757EB3" stroke-miterlimit="22.9256"/>
<path fill-rule="evenodd" clip-rule="evenodd" d="M138.966 235.499H148.762V94.4431H138.966V235.499Z" fill="#FFEC08"/>
<path d="M138.966 235.499H148.762V94.4431H138.966V235.499Z" stroke="#757EB3" stroke-miterlimit="22.9256"/>
<path fill-rule="evenodd" clip-rule="evenodd" d="M102.387 26.414V95.4141H75.7375C77.1785 93.5321 78.7365 91.1211 78.7365 86.9815C78.7365 82.3764 76.8077 79.8287 75.2575 77.8486C73.9674 76.2011 73.0289 74.9088 73 72.2816V72.2297C73.0289 69.6025 73.9674 68.3116 75.2575 66.6627C76.8077 64.6826 78.7365 62.1354 78.7365 57.5307C78.7365 52.9245 76.8077 50.4581 75.2575 48.4788C73.9477 46.8042 73 45.5929 73 42.8688C73 40.1439 73.9477 38.9331 75.2575 37.2583C76.8077 35.2766 78.7365 32.8133 78.7365 28.2069C78.7365 27.5694 78.6997 26.9735 78.6321 26.414H102.387Z" fill="#CCCCCC"/>
<path d="M102.387 26.414V95.4141H75.7375C77.1785 93.5321 78.7365 91.1211 78.7365 86.9815C78.7365 82.3764 76.8077 79.8287 75.2575 77.8486C73.9674 76.2011 73.0289 74.9088 73 72.2816V72.2297C73.0289 69.6025 73.9674 68.3116 75.2575 66.6627C76.8077 64.6826 78.7365 62.1354 78.7365 57.5307C78.7365 52.9245 76.8077 50.4581 75.2575 48.4788C73.9477 46.8042 73 45.5929 73 42.8688C73 40.1439 73.9477 38.9331 75.2575 37.2583C76.8077 35.2766 78.7365 32.8133 78.7365 28.2069C78.7365 27.5694 78.6997 26.9735 78.6321 26.414H102.387Z" stroke="#757EB3" stroke-miterlimit="22.9256"/>
<path fill-rule="evenodd" clip-rule="evenodd" d="M102.896 95.4141H112.691V26.414H102.896V95.4141Z" fill="#E3000F"/>
<path d="M102.896 95.4141H112.691V26.414H102.896V95.4141Z" stroke="#757EB3" stroke-miterlimit="22.9256"/>
<path fill-rule="evenodd" clip-rule="evenodd" d="M310.726 26.4144V259.474H334.83C335.493 257.034 336.768 255.405 337.855 254.015C339.165 252.34 340.113 251.129 340.113 248.405C340.113 245.68 339.165 244.47 337.855 242.794C336.305 240.815 334.376 238.348 334.376 233.743C334.376 229.139 336.305 226.591 337.855 224.61C339.145 222.963 340.084 221.671 340.113 219.044V218.992C340.084 216.365 339.145 215.073 337.855 213.426C336.305 211.445 334.376 208.896 334.376 204.292C334.376 199.686 336.305 197.221 337.855 195.241C339.165 193.566 340.113 192.355 340.113 189.631C340.113 186.905 339.165 185.695 337.855 184.021C336.305 182.039 334.376 179.576 334.376 174.969C334.376 170.363 336.305 167.899 337.855 165.917C339.165 164.242 340.113 163.032 340.113 160.306C340.113 157.581 339.165 156.37 337.855 154.696C336.305 152.713 334.376 150.328 334.376 145.644V145.629C334.376 140.946 336.305 138.56 337.855 136.578C339.165 134.904 340.113 133.693 340.113 130.968C340.113 128.241 339.165 127.032 337.855 125.356C336.305 123.375 334.376 120.911 334.376 116.305C334.376 111.698 336.305 109.235 337.855 107.253C339.165 105.578 340.113 104.368 340.113 101.643C340.113 98.9185 339.165 97.7074 337.855 96.0328C337.731 95.8747 337.604 95.713 337.477 95.5473L340.798 26.4144H310.726Z" fill="#CCCCCC"/>
<path d="M310.726 26.4144V259.474H334.83C335.493 257.034 336.768 255.405 337.855 254.015C339.165 252.34 340.113 251.129 340.113 248.405C340.113 245.68 339.165 244.47 337.855 242.794C336.305 240.815 334.376 238.348 334.376 233.743C334.376 229.139 336.305 226.591 337.855 224.61C339.145 222.963 340.084 221.671 340.113 219.044V218.992C340.084 216.365 339.145 215.073 337.855 213.426C336.305 211.445 334.376 208.896 334.376 204.292C334.376 199.686 336.305 197.221 337.855 195.241C339.165 193.566 340.113 192.355 340.113 189.631C340.113 186.905 339.165 185.695 337.855 184.021C336.305 182.039 334.376 179.576 334.376 174.969C334.376 170.363 336.305 167.899 337.855 165.917C339.165 164.242 340.113 163.032 340.113 160.306C340.113 157.581 339.165 156.37 337.855 154.696C336.305 152.713 334.376 150.328 334.376 145.644V145.629C334.376 140.946 336.305 138.56 337.855 136.578C339.165 134.904 340.113 133.693 340.113 130.968C340.113 128.241 339.165 127.032 337.855 125.356C336.305 123.375 334.376 120.911 334.376 116.305C334.376 111.698 336.305 109.235 337.855 107.253C339.165 105.578 340.113 104.368 340.113 101.643C340.113 98.9185 339.165 97.7074 337.855 96.0328C337.731 95.8747 337.604 95.713 337.477 95.5473L340.798 26.4144H310.726Z" stroke="#757EB3" stroke-miterlimit="22.9256"/>
<path fill-rule="evenodd" clip-rule="evenodd" d="M276.904 26.4148V492.822V495.327V621.192H303.027C301.757 619.427 300.555 617.162 300.555 613.463V613.449C300.555 608.765 302.484 606.38 304.034 604.397C305.344 602.723 306.292 601.513 306.292 598.787C306.292 596.06 305.344 594.851 304.034 593.175C302.484 591.194 300.555 588.731 300.555 584.124C300.555 579.517 302.484 577.054 304.034 575.073C305.344 573.397 306.292 572.188 306.292 569.462C306.292 566.738 305.344 565.527 304.034 563.852C302.484 561.873 300.555 559.407 300.555 554.801C300.555 550.196 302.484 547.648 304.034 545.668C305.324 544.02 306.263 542.728 306.292 540.101V540.049C306.263 537.422 305.324 536.131 304.034 534.482C302.484 532.502 300.555 529.955 300.555 525.35C300.555 520.744 302.484 518.278 304.034 516.299C305.344 514.624 306.292 513.412 306.292 510.689C306.292 507.964 305.344 506.753 304.034 505.078C298.923 498.544 299.661 495.459 304.034 489.869C305.344 488.194 306.292 486.983 306.292 484.259C306.292 481.534 305.344 480.324 304.034 478.648C302.484 476.669 300.555 474.202 300.555 469.596C300.555 464.992 302.484 462.444 304.034 460.464C305.324 458.816 306.263 457.525 306.292 454.898V454.845C306.263 452.219 305.324 450.927 304.034 449.279C302.484 447.298 300.555 444.75 300.555 440.146C300.555 435.54 302.484 433.075 304.034 431.095C305.344 429.42 306.292 428.209 306.292 425.485C306.292 422.759 305.344 421.55 304.034 419.875C302.484 417.893 300.555 415.429 300.555 410.823C300.555 406.216 302.484 403.752 304.034 401.771C305.344 400.096 306.292 398.886 306.292 396.16C306.292 393.435 305.344 392.224 304.034 390.55C302.484 388.567 300.555 386.182 300.555 381.498V381.483C300.555 376.799 302.484 374.414 304.034 372.432C305.344 370.758 306.292 369.547 306.292 366.822C306.292 364.095 305.344 362.886 304.034 361.21C302.484 359.229 300.555 356.765 300.555 352.159C300.555 347.552 302.484 345.089 304.034 343.107C305.344 341.432 306.292 340.222 306.292 337.496C306.292 334.772 305.344 333.562 304.034 331.886C302.484 329.907 300.555 327.441 300.555 322.836C300.555 318.23 302.484 315.683 304.034 313.703C305.324 312.055 306.263 310.763 306.292 308.136V308.084C306.263 305.456 305.324 304.166 304.034 302.517C302.484 300.537 300.555 297.989 300.555 293.385C300.555 288.779 302.484 286.312 304.034 284.333C305.344 282.658 306.292 281.447 306.292 278.723C306.292 275.998 305.344 274.788 304.034 273.113C302.484 271.131 300.555 268.667 300.555 264.061C300.555 262.856 300.687 261.798 300.91 260.857L300.878 26.4148H276.904Z" fill="#CCCCCC"/>
<path d="M276.904 26.4148V492.822V495.327V621.192H303.027C301.757 619.427 300.555 617.162 300.555 613.463V613.449C300.555 608.765 302.484 606.38 304.034 604.397C305.344 602.723 306.292 601.513 306.292 598.787C306.292 596.06 305.344 594.851 304.034 593.175C302.484 591.194 300.555 588.731 300.555 584.124C300.555 579.517 302.484 577.054 304.034 575.073C305.344 573.397 306.292 572.188 306.292 569.462C306.292 566.738 305.344 565.527 304.034 563.852C302.484 561.873 300.555 559.407 300.555 554.801C300.555 550.196 302.484 547.648 304.034 545.668C305.324 544.02 306.263 542.728 306.292 540.101V540.049C306.263 537.422 305.324 536.131 304.034 534.482C302.484 532.502 300.555 529.955 300.555 525.35C300.555 520.744 302.484 518.278 304.034 516.299C305.344 514.624 306.292 513.412 306.292 510.689C306.292 507.964 305.344 506.753 304.034 505.078C298.923 498.544 299.661 495.459 304.034 489.869C305.344 488.194 306.292 486.983 306.292 484.259C306.292 481.534 305.344 480.324 304.034 478.648C302.484 476.669 300.555 474.202 300.555 469.596C300.555 464.992 302.484 462.444 304.034 460.464C305.324 458.816 306.263 457.525 306.292 454.898V454.845C306.263 452.219 305.324 450.927 304.034 449.279C302.484 447.298 300.555 444.75 300.555 440.146C300.555 435.54 302.484 433.075 304.034 431.095C305.344 429.42 306.292 428.209 306.292 425.485C306.292 422.759 305.344 421.55 304.034 419.875C302.484 417.893 300.555 415.429 300.555 410.823C300.555 406.216 302.484 403.752 304.034 401.771C305.344 400.096 306.292 398.886 306.292 396.16C306.292 393.435 305.344 392.224 304.034 390.55C302.484 388.567 300.555 386.182 300.555 381.498V381.483C300.555 376.799 302.484 374.414 304.034 372.432C305.344 370.758 306.292 369.547 306.292 366.822C306.292 364.095 305.344 362.886 304.034 361.21C302.484 359.229 300.555 356.765 300.555 352.159C300.555 347.552 302.484 345.089 304.034 343.107C305.344 341.432 306.292 340.222 306.292 337.496C306.292 334.772 305.344 333.562 304.034 331.886C302.484 329.907 300.555 327.441 300.555 322.836C300.555 318.23 302.484 315.683 304.034 313.703C305.324 312.055 306.263 310.763 306.292 308.136V308.084C306.263 305.456 305.324 304.166 304.034 302.517C302.484 300.537 300.555 297.989 300.555 293.385C300.555 288.779 302.484 286.312 304.034 284.333C305.344 282.658 306.292 281.447 306.292 278.723C306.292 275.998 305.344 274.788 304.034 273.113C302.484 271.131 300.555 268.667 300.555 264.061C300.555 262.856 300.687 261.798 300.91 260.857L300.878 26.4148H276.904Z" stroke="#757EB3" stroke-miterlimit="22.9256"/>
<path fill-rule="evenodd" clip-rule="evenodd" d="M310.678 95.4141H300.882V26.414H310.678V95.4141Z" fill="#00963F"/>
<path d="M310.678 95.4141H300.882V26.414H310.678V95.4141Z" stroke="#757EB3" stroke-miterlimit="22.9256"/>
<path fill-rule="evenodd" clip-rule="evenodd" d="M310.678 235.498H300.882V259.474H310.678V235.498Z" fill="#E3000F"/>
<path d="M310.678 235.498H300.882V259.474H310.678V235.498Z" stroke="#757EB3" stroke-miterlimit="22.9256"/>
<path fill-rule="evenodd" clip-rule="evenodd" d="M276.904 565.816H267.108V26.1892H276.904V565.816Z" fill="#FFEC08"/>
<path d="M276.904 565.816H267.108V26.1892H276.904V565.816Z" stroke="#757EB3" stroke-miterlimit="22.9256"/>
<path fill-rule="evenodd" clip-rule="evenodd" d="M276.904 565.817H267.108V621.192H276.904V565.817Z" fill="#00963F"/>
<path d="M276.904 565.817H267.108V621.192H276.904V565.817Z" stroke="#757EB3" stroke-miterlimit="22.9256"/>
<path fill-rule="evenodd" clip-rule="evenodd" d="M310.678 235.499H300.882V94.4431H310.678V235.499Z" fill="#FFEC08"/>
<path d="M310.678 235.499H300.882V94.4431H310.678V235.499Z" stroke="#757EB3" stroke-miterlimit="22.9256"/>
<path fill-rule="evenodd" clip-rule="evenodd" d="M347.255 26.414V95.4141H373.905C372.464 93.5321 370.906 91.1211 370.906 86.9815C370.906 82.3764 372.835 79.8287 374.385 77.8486C375.675 76.2011 376.613 74.9088 376.642 72.2816V72.2297C376.613 69.6025 375.675 68.3116 374.385 66.6627C372.835 64.6826 370.906 62.1354 370.906 57.5307C370.906 52.9245 372.835 50.4581 374.385 48.4788C375.694 46.8042 376.642 45.5929 376.642 42.8688C376.642 40.1439 375.694 38.9331 374.385 37.2583C372.835 35.2766 370.906 32.8133 370.906 28.2069C370.906 27.5694 370.942 26.9735 371.01 26.414H347.255Z" fill="#CCCCCC"/>
<path d="M347.255 26.414V95.4141H373.905C372.464 93.5321 370.906 91.1211 370.906 86.9815C370.906 82.3764 372.835 79.8287 374.385 77.8486C375.675 76.2011 376.613 74.9088 376.642 72.2816V72.2297C376.613 69.6025 375.675 68.3116 374.385 66.6627C372.835 64.6826 370.906 62.1354 370.906 57.5307C370.906 52.9245 372.835 50.4581 374.385 48.4788C375.694 46.8042 376.642 45.5929 376.642 42.8688C376.642 40.1439 375.694 38.9331 374.385 37.2583C372.835 35.2766 370.906 32.8133 370.906 28.2069C370.906 27.5694 370.942 26.9735 371.01 26.414H347.255Z" stroke="#757EB3" stroke-miterlimit="22.9256"/>
<path fill-rule="evenodd" clip-rule="evenodd" d="M346.749 95.4141H336.953V26.414H346.749V95.4141Z" fill="#E3000F"/>
<path d="M346.749 95.4141H336.953V26.414H346.749V95.4141Z" stroke="#757EB3" stroke-miterlimit="22.9256"/>
<path d="M375 38.7012L475.334 1.24092" stroke="#454D7D" stroke-width="2" stroke-miterlimit="22.9256"/>
<path d="M342 219.891L442.334 182.43" stroke="#454D7D" stroke-width="2" stroke-miterlimit="22.9256"/>
<path d="M301 493.891L401.334 456.43" stroke="#454D7D" stroke-width="2" stroke-miterlimit="22.9256"/>
<path d="M75.9756 446.24L177.636 502.744" stroke="#454D7D" stroke-width="2" stroke-miterlimit="22.9256"/>
<path d="M43.9756 178.24L145.636 234.744" stroke="#454D7D" stroke-width="2" stroke-miterlimit="22.9256"/>
<path d="M0.975586 5.24023L102.636 61.7435" stroke="#454D7D" stroke-width="2" stroke-miterlimit="22.9256"/>
<mask id="path-46-outside-1_1029_14231" maskUnits="userSpaceOnUse" x="233" y="621" width="42" height="249" fill="black">
<rect fill="white" x="233" y="621" width="42" height="249"/>
<path d="M234.629 868.251H267.226L267.224 868.006C267.222 865.001 267.753 862.69 268.495 860.806C269.235 858.928 270.179 857.491 271.018 856.211C272.384 854.129 273.371 852.625 273.371 849.274C273.371 845.921 272.384 844.417 271.019 842.338L271.016 842.332C269.324 839.754 267.222 836.549 267.222 830.544C267.222 824.538 269.324 821.333 271.013 818.758L271.018 818.751C271.709 817.699 272.305 816.791 272.718 815.742C273.129 814.702 273.371 813.494 273.371 811.813C273.371 808.46 272.384 806.956 271.02 804.877L270.934 804.747C269.373 802.367 267.499 799.509 267.251 794.256H267.222V792.707H267.251C267.499 787.453 269.373 784.595 270.934 782.216L271.034 782.062C272.392 779.994 273.371 778.489 273.371 775.15C273.371 773.469 273.129 772.261 272.718 771.221C272.306 770.173 271.711 769.267 271.022 768.218L271.013 768.204C269.323 765.628 267.222 762.424 267.222 756.419C267.222 750.412 269.324 747.208 271.013 744.632L271.025 744.616C272.386 742.541 273.371 741.036 273.371 737.689C273.371 734.337 272.384 732.833 271.02 730.754C270.179 729.472 269.235 728.035 268.495 726.157C267.753 724.272 267.222 721.961 267.222 718.959C267.222 715.957 267.752 713.621 268.493 711.712C269.232 709.812 270.177 708.344 271.018 707.062C271.696 706.03 272.282 705.11 272.697 704.047C273.108 702.999 273.358 701.797 273.373 700.182L273.371 700.115C273.358 698.499 273.108 697.296 272.698 696.248C272.282 695.185 271.696 694.264 271.018 693.233C270.177 691.951 269.232 690.484 268.493 688.583C267.752 686.674 267.222 684.338 267.222 681.335C267.222 675.404 269.273 672.202 270.951 669.646L271.018 669.544C272.384 667.461 273.371 665.958 273.371 662.606C273.371 659.254 272.385 657.751 271.02 655.673L271.013 655.661C269.324 653.086 267.222 649.881 267.222 643.876C267.222 637.87 269.324 634.665 271.013 632.09L271.019 632.082C272.384 630.003 273.371 628.5 273.371 625.145C273.371 624.617 273.347 624.137 273.303 623.697C273.269 623.364 273.222 623.052 273.164 622.756L273.052 622L273.65 622.007L273.713 622.285C273.805 622.694 273.878 623.132 273.926 623.606C273.974 624.081 274 624.591 274 625.145C274 628.753 272.956 630.344 271.512 632.541L271.495 632.567C269.868 635.048 267.851 638.138 267.851 643.876C267.851 649.627 269.878 652.718 271.507 655.202L271.514 655.213C272.957 657.41 274 658.999 274 662.606C274 666.157 272.988 667.753 271.579 669.9L271.512 670.003C269.882 672.486 267.851 675.579 267.851 681.335C267.851 684.215 268.356 686.449 269.063 688.27C269.773 690.098 270.694 691.526 271.512 692.773C272.217 693.846 272.826 694.806 273.267 695.932C273.712 697.073 273.983 698.374 273.999 700.112L274 700.182C273.983 701.921 273.712 703.222 273.266 704.363C272.826 705.49 272.216 706.449 271.512 707.521C270.694 708.769 269.773 710.197 269.063 712.025C268.356 713.846 267.851 716.079 267.851 718.959C267.851 721.84 268.356 724.047 269.062 725.841C269.771 727.64 270.692 729.043 271.512 730.292C272.956 732.493 274 734.083 274 737.689C274 741.295 272.956 742.886 271.513 745.084L271.5 745.104C269.872 747.585 267.851 750.675 267.851 756.419C267.851 762.166 269.874 765.255 271.503 767.739L271.512 767.753C272.226 768.839 272.841 769.776 273.286 770.905C273.734 772.043 274 773.35 274 775.15C274 778.758 272.956 780.348 271.513 782.547L271.428 782.675C269.887 785.022 268.031 787.852 267.863 793.094C267.854 793.378 267.854 793.585 267.863 793.868C268.031 799.11 269.887 801.94 271.428 804.287L271.512 804.415C272.956 806.616 274 808.206 274 811.813C274 813.612 273.734 814.92 273.286 816.057C272.841 817.186 272.226 818.124 271.512 819.21L271.506 819.217C269.878 821.701 267.851 824.792 267.851 830.544C267.851 836.281 269.868 839.371 271.495 841.851L271.513 841.878C272.956 844.076 274 845.667 274 849.274C274 852.88 272.956 854.47 271.513 856.668C270.692 857.919 269.771 859.322 269.062 861.122C268.356 862.915 267.851 865.122 267.851 868.003L267.866 869H234V868.625V868.251H234.629Z"/>
</mask>
<path d="M234.629 868.251H267.226L267.224 868.006C267.222 865.001 267.753 862.69 268.495 860.806C269.235 858.928 270.179 857.491 271.018 856.211C272.384 854.129 273.371 852.625 273.371 849.274C273.371 845.921 272.384 844.417 271.019 842.338L271.016 842.332C269.324 839.754 267.222 836.549 267.222 830.544C267.222 824.538 269.324 821.333 271.013 818.758L271.018 818.751C271.709 817.699 272.305 816.791 272.718 815.742C273.129 814.702 273.371 813.494 273.371 811.813C273.371 808.46 272.384 806.956 271.02 804.877L270.934 804.747C269.373 802.367 267.499 799.509 267.251 794.256H267.222V792.707H267.251C267.499 787.453 269.373 784.595 270.934 782.216L271.034 782.062C272.392 779.994 273.371 778.489 273.371 775.15C273.371 773.469 273.129 772.261 272.718 771.221C272.306 770.173 271.711 769.267 271.022 768.218L271.013 768.204C269.323 765.628 267.222 762.424 267.222 756.419C267.222 750.412 269.324 747.208 271.013 744.632L271.025 744.616C272.386 742.541 273.371 741.036 273.371 737.689C273.371 734.337 272.384 732.833 271.02 730.754C270.179 729.472 269.235 728.035 268.495 726.157C267.753 724.272 267.222 721.961 267.222 718.959C267.222 715.957 267.752 713.621 268.493 711.712C269.232 709.812 270.177 708.344 271.018 707.062C271.696 706.03 272.282 705.11 272.697 704.047C273.108 702.999 273.358 701.797 273.373 700.182L273.371 700.115C273.358 698.499 273.108 697.296 272.698 696.248C272.282 695.185 271.696 694.264 271.018 693.233C270.177 691.951 269.232 690.484 268.493 688.583C267.752 686.674 267.222 684.338 267.222 681.335C267.222 675.404 269.273 672.202 270.951 669.646L271.018 669.544C272.384 667.461 273.371 665.958 273.371 662.606C273.371 659.254 272.385 657.751 271.02 655.673L271.013 655.661C269.324 653.086 267.222 649.881 267.222 643.876C267.222 637.87 269.324 634.665 271.013 632.09L271.019 632.082C272.384 630.003 273.371 628.5 273.371 625.145C273.371 624.617 273.347 624.137 273.303 623.697C273.269 623.364 273.222 623.052 273.164 622.756L273.052 622L273.65 622.007L273.713 622.285C273.805 622.694 273.878 623.132 273.926 623.606C273.974 624.081 274 624.591 274 625.145C274 628.753 272.956 630.344 271.512 632.541L271.495 632.567C269.868 635.048 267.851 638.138 267.851 643.876C267.851 649.627 269.878 652.718 271.507 655.202L271.514 655.213C272.957 657.41 274 658.999 274 662.606C274 666.157 272.988 667.753 271.579 669.9L271.512 670.003C269.882 672.486 267.851 675.579 267.851 681.335C267.851 684.215 268.356 686.449 269.063 688.27C269.773 690.098 270.694 691.526 271.512 692.773C272.217 693.846 272.826 694.806 273.267 695.932C273.712 697.073 273.983 698.374 273.999 700.112L274 700.182C273.983 701.921 273.712 703.222 273.266 704.363C272.826 705.49 272.216 706.449 271.512 707.521C270.694 708.769 269.773 710.197 269.063 712.025C268.356 713.846 267.851 716.079 267.851 718.959C267.851 721.84 268.356 724.047 269.062 725.841C269.771 727.64 270.692 729.043 271.512 730.292C272.956 732.493 274 734.083 274 737.689C274 741.295 272.956 742.886 271.513 745.084L271.5 745.104C269.872 747.585 267.851 750.675 267.851 756.419C267.851 762.166 269.874 765.255 271.503 767.739L271.512 767.753C272.226 768.839 272.841 769.776 273.286 770.905C273.734 772.043 274 773.35 274 775.15C274 778.758 272.956 780.348 271.513 782.547L271.428 782.675C269.887 785.022 268.031 787.852 267.863 793.094C267.854 793.378 267.854 793.585 267.863 793.868C268.031 799.11 269.887 801.94 271.428 804.287L271.512 804.415C272.956 806.616 274 808.206 274 811.813C274 813.612 273.734 814.92 273.286 816.057C272.841 817.186 272.226 818.124 271.512 819.21L271.506 819.217C269.878 821.701 267.851 824.792 267.851 830.544C267.851 836.281 269.868 839.371 271.495 841.851L271.513 841.878C272.956 844.076 274 845.667 274 849.274C274 852.88 272.956 854.47 271.513 856.668C270.692 857.919 269.771 859.322 269.062 861.122C268.356 862.915 267.851 865.122 267.851 868.003L267.866 869H234V868.625V868.251H234.629Z" fill="#FBA409"/>
<path d="M234.629 868.251H267.226L267.224 868.006C267.222 865.001 267.753 862.69 268.495 860.806C269.235 858.928 270.179 857.491 271.018 856.211C272.384 854.129 273.371 852.625 273.371 849.274C273.371 845.921 272.384 844.417 271.019 842.338L271.016 842.332C269.324 839.754 267.222 836.549 267.222 830.544C267.222 824.538 269.324 821.333 271.013 818.758L271.018 818.751C271.709 817.699 272.305 816.791 272.718 815.742C273.129 814.702 273.371 813.494 273.371 811.813C273.371 808.46 272.384 806.956 271.02 804.877L270.934 804.747C269.373 802.367 267.499 799.509 267.251 794.256H267.222V792.707H267.251C267.499 787.453 269.373 784.595 270.934 782.216L271.034 782.062C272.392 779.994 273.371 778.489 273.371 775.15C273.371 773.469 273.129 772.261 272.718 771.221C272.306 770.173 271.711 769.267 271.022 768.218L271.013 768.204C269.323 765.628 267.222 762.424 267.222 756.419C267.222 750.412 269.324 747.208 271.013 744.632L271.025 744.616C272.386 742.541 273.371 741.036 273.371 737.689C273.371 734.337 272.384 732.833 271.02 730.754C270.179 729.472 269.235 728.035 268.495 726.157C267.753 724.272 267.222 721.961 267.222 718.959C267.222 715.957 267.752 713.621 268.493 711.712C269.232 709.812 270.177 708.344 271.018 707.062C271.696 706.03 272.282 705.11 272.697 704.047C273.108 702.999 273.358 701.797 273.373 700.182L273.371 700.115C273.358 698.499 273.108 697.296 272.698 696.248C272.282 695.185 271.696 694.264 271.018 693.233C270.177 691.951 269.232 690.484 268.493 688.583C267.752 686.674 267.222 684.338 267.222 681.335C267.222 675.404 269.273 672.202 270.951 669.646L271.018 669.544C272.384 667.461 273.371 665.958 273.371 662.606C273.371 659.254 272.385 657.751 271.02 655.673L271.013 655.661C269.324 653.086 267.222 649.881 267.222 643.876C267.222 637.87 269.324 634.665 271.013 632.09L271.019 632.082C272.384 630.003 273.371 628.5 273.371 625.145C273.371 624.617 273.347 624.137 273.303 623.697C273.269 623.364 273.222 623.052 273.164 622.756L273.052 622L273.65 622.007L273.713 622.285C273.805 622.694 273.878 623.132 273.926 623.606C273.974 624.081 274 624.591 274 625.145C274 628.753 272.956 630.344 271.512 632.541L271.495 632.567C269.868 635.048 267.851 638.138 267.851 643.876C267.851 649.627 269.878 652.718 271.507 655.202L271.514 655.213C272.957 657.41 274 658.999 274 662.606C274 666.157 272.988 667.753 271.579 669.9L271.512 670.003C269.882 672.486 267.851 675.579 267.851 681.335C267.851 684.215 268.356 686.449 269.063 688.27C269.773 690.098 270.694 691.526 271.512 692.773C272.217 693.846 272.826 694.806 273.267 695.932C273.712 697.073 273.983 698.374 273.999 700.112L274 700.182C273.983 701.921 273.712 703.222 273.266 704.363C272.826 705.49 272.216 706.449 271.512 707.521C270.694 708.769 269.773 710.197 269.063 712.025C268.356 713.846 267.851 716.079 267.851 718.959C267.851 721.84 268.356 724.047 269.062 725.841C269.771 727.64 270.692 729.043 271.512 730.292C272.956 732.493 274 734.083 274 737.689C274 741.295 272.956 742.886 271.513 745.084L271.5 745.104C269.872 747.585 267.851 750.675 267.851 756.419C267.851 762.166 269.874 765.255 271.503 767.739L271.512 767.753C272.226 768.839 272.841 769.776 273.286 770.905C273.734 772.043 274 773.35 274 775.15C274 778.758 272.956 780.348 271.513 782.547L271.428 782.675C269.887 785.022 268.031 787.852 267.863 793.094C267.854 793.378 267.854 793.585 267.863 793.868C268.031 799.11 269.887 801.94 271.428 804.287L271.512 804.415C272.956 806.616 274 808.206 274 811.813C274 813.612 273.734 814.92 273.286 816.057C272.841 817.186 272.226 818.124 271.512 819.21L271.506 819.217C269.878 821.701 267.851 824.792 267.851 830.544C267.851 836.281 269.868 839.371 271.495 841.851L271.513 841.878C272.956 844.076 274 845.667 274 849.274C274 852.88 272.956 854.47 271.513 856.668C270.692 857.919 269.771 859.322 269.062 861.122C268.356 862.915 267.851 865.122 267.851 868.003L267.866 869H234V868.625V868.251H234.629Z" stroke="#FBA409" mask="url(#path-46-outside-1_1029_14231)"/>
<mask id="path-47-outside-2_1029_14231" maskUnits="userSpaceOnUse" x="177" y="621" width="42" height="249" fill="black">
<rect fill="white" x="177" y="621" width="42" height="249"/>
<path d="M217.371 868.251H184.774L184.776 868.006C184.778 865.001 184.247 862.69 183.505 860.806C182.765 858.928 181.821 857.491 180.982 856.211C179.616 854.129 178.629 852.625 178.629 849.274C178.629 845.921 179.616 844.417 180.981 842.338L180.984 842.332C182.676 839.754 184.778 836.549 184.778 830.544C184.778 824.538 182.676 821.333 180.987 818.758L180.982 818.751C180.291 817.699 179.695 816.791 179.282 815.742C178.871 814.702 178.629 813.494 178.629 811.813C178.629 808.46 179.616 806.956 180.98 804.877L181.066 804.747C182.627 802.367 184.501 799.509 184.749 794.256H184.778V792.707H184.749C184.501 787.453 182.627 784.595 181.066 782.216L180.966 782.062C179.608 779.994 178.629 778.489 178.629 775.15C178.629 773.469 178.871 772.261 179.282 771.221C179.694 770.173 180.289 769.267 180.978 768.218L180.987 768.204C182.677 765.628 184.778 762.424 184.778 756.419C184.778 750.412 182.676 747.208 180.987 744.632L180.975 744.616C179.614 742.541 178.629 741.036 178.629 737.689C178.629 734.337 179.616 732.833 180.98 730.754C181.821 729.472 182.765 728.035 183.505 726.157C184.247 724.272 184.778 721.961 184.778 718.959C184.778 715.957 184.248 713.621 183.507 711.712C182.768 709.812 181.823 708.344 180.982 707.062C180.304 706.03 179.718 705.11 179.303 704.047C178.892 702.999 178.642 701.797 178.627 700.182L178.629 700.115C178.642 698.499 178.892 697.296 179.302 696.248C179.718 695.185 180.304 694.264 180.982 693.233C181.823 691.951 182.768 690.484 183.507 688.583C184.248 686.674 184.778 684.338 184.778 681.335C184.778 675.404 182.727 672.202 181.049 669.646L180.982 669.544C179.616 667.461 178.629 665.958 178.629 662.606C178.629 659.254 179.615 657.751 180.98 655.673L180.987 655.661C182.676 653.086 184.778 649.881 184.778 643.876C184.778 637.87 182.676 634.665 180.987 632.09L180.981 632.082C179.616 630.003 178.629 628.5 178.629 625.145C178.629 624.617 178.653 624.137 178.697 623.697C178.731 623.364 178.778 623.052 178.836 622.756L178.948 622L178.35 622.007L178.287 622.285C178.195 622.694 178.122 623.132 178.074 623.606C178.026 624.081 178 624.591 178 625.145C178 628.753 179.044 630.344 180.488 632.541L180.505 632.567C182.132 635.048 184.149 638.138 184.149 643.876C184.149 649.627 182.122 652.718 180.493 655.202L180.486 655.213C179.043 657.41 178 658.999 178 662.606C178 666.157 179.012 667.753 180.421 669.9L180.488 670.003C182.118 672.486 184.149 675.579 184.149 681.335C184.149 684.215 183.644 686.449 182.937 688.27C182.227 690.098 181.306 691.526 180.488 692.773C179.783 693.846 179.174 694.806 178.733 695.932C178.288 697.073 178.017 698.374 178.001 700.112L178 700.182C178.017 701.921 178.288 703.222 178.734 704.363C179.174 705.49 179.784 706.449 180.488 707.521C181.306 708.769 182.227 710.197 182.937 712.025C183.644 713.846 184.149 716.079 184.149 718.959C184.149 721.84 183.644 724.047 182.938 725.841C182.229 727.64 181.308 729.043 180.488 730.292C179.044 732.493 178 734.083 178 737.689C178 741.295 179.044 742.886 180.487 745.084L180.5 745.104C182.128 747.585 184.149 750.675 184.149 756.419C184.149 762.166 182.126 765.255 180.497 767.739L180.488 767.753C179.774 768.839 179.159 769.776 178.714 770.905C178.266 772.043 178 773.35 178 775.15C178 778.758 179.044 780.348 180.487 782.547L180.572 782.675C182.113 785.022 183.969 787.852 184.137 793.094C184.146 793.378 184.146 793.585 184.137 793.868C183.969 799.11 182.113 801.94 180.572 804.287L180.488 804.415C179.044 806.616 178 808.206 178 811.813C178 813.612 178.266 814.92 178.714 816.057C179.159 817.186 179.774 818.124 180.488 819.21L180.494 819.217C182.122 821.701 184.149 824.792 184.149 830.544C184.149 836.281 182.132 839.371 180.505 841.851L180.487 841.878C179.044 844.076 178 845.667 178 849.274C178 852.88 179.044 854.47 180.487 856.668C181.308 857.919 182.229 859.322 182.938 861.122C183.644 862.915 184.149 865.122 184.149 868.003L184.134 869H218V868.625V868.251H217.371Z"/>
</mask>
<path d="M217.371 868.251H184.774L184.776 868.006C184.778 865.001 184.247 862.69 183.505 860.806C182.765 858.928 181.821 857.491 180.982 856.211C179.616 854.129 178.629 852.625 178.629 849.274C178.629 845.921 179.616 844.417 180.981 842.338L180.984 842.332C182.676 839.754 184.778 836.549 184.778 830.544C184.778 824.538 182.676 821.333 180.987 818.758L180.982 818.751C180.291 817.699 179.695 816.791 179.282 815.742C178.871 814.702 178.629 813.494 178.629 811.813C178.629 808.46 179.616 806.956 180.98 804.877L181.066 804.747C182.627 802.367 184.501 799.509 184.749 794.256H184.778V792.707H184.749C184.501 787.453 182.627 784.595 181.066 782.216L180.966 782.062C179.608 779.994 178.629 778.489 178.629 775.15C178.629 773.469 178.871 772.261 179.282 771.221C179.694 770.173 180.289 769.267 180.978 768.218L180.987 768.204C182.677 765.628 184.778 762.424 184.778 756.419C184.778 750.412 182.676 747.208 180.987 744.632L180.975 744.616C179.614 742.541 178.629 741.036 178.629 737.689C178.629 734.337 179.616 732.833 180.98 730.754C181.821 729.472 182.765 728.035 183.505 726.157C184.247 724.272 184.778 721.961 184.778 718.959C184.778 715.957 184.248 713.621 183.507 711.712C182.768 709.812 181.823 708.344 180.982 707.062C180.304 706.03 179.718 705.11 179.303 704.047C178.892 702.999 178.642 701.797 178.627 700.182L178.629 700.115C178.642 698.499 178.892 697.296 179.302 696.248C179.718 695.185 180.304 694.264 180.982 693.233C181.823 691.951 182.768 690.484 183.507 688.583C184.248 686.674 184.778 684.338 184.778 681.335C184.778 675.404 182.727 672.202 181.049 669.646L180.982 669.544C179.616 667.461 178.629 665.958 178.629 662.606C178.629 659.254 179.615 657.751 180.98 655.673L180.987 655.661C182.676 653.086 184.778 649.881 184.778 643.876C184.778 637.87 182.676 634.665 180.987 632.09L180.981 632.082C179.616 630.003 178.629 628.5 178.629 625.145C178.629 624.617 178.653 624.137 178.697 623.697C178.731 623.364 178.778 623.052 178.836 622.756L178.948 622L178.35 622.007L178.287 622.285C178.195 622.694 178.122 623.132 178.074 623.606C178.026 624.081 178 624.591 178 625.145C178 628.753 179.044 630.344 180.488 632.541L180.505 632.567C182.132 635.048 184.149 638.138 184.149 643.876C184.149 649.627 182.122 652.718 180.493 655.202L180.486 655.213C179.043 657.41 178 658.999 178 662.606C178 666.157 179.012 667.753 180.421 669.9L180.488 670.003C182.118 672.486 184.149 675.579 184.149 681.335C184.149 684.215 183.644 686.449 182.937 688.27C182.227 690.098 181.306 691.526 180.488 692.773C179.783 693.846 179.174 694.806 178.733 695.932C178.288 697.073 178.017 698.374 178.001 700.112L178 700.182C178.017 701.921 178.288 703.222 178.734 704.363C179.174 705.49 179.784 706.449 180.488 707.521C181.306 708.769 182.227 710.197 182.937 712.025C183.644 713.846 184.149 716.079 184.149 718.959C184.149 721.84 183.644 724.047 182.938 725.841C182.229 727.64 181.308 729.043 180.488 730.292C179.044 732.493 178 734.083 178 737.689C178 741.295 179.044 742.886 180.487 745.084L180.5 745.104C182.128 747.585 184.149 750.675 184.149 756.419C184.149 762.166 182.126 765.255 180.497 767.739L180.488 767.753C179.774 768.839 179.159 769.776 178.714 770.905C178.266 772.043 178 773.35 178 775.15C178 778.758 179.044 780.348 180.487 782.547L180.572 782.675C182.113 785.022 183.969 787.852 184.137 793.094C184.146 793.378 184.146 793.585 184.137 793.868C183.969 799.11 182.113 801.94 180.572 804.287L180.488 804.415C179.044 806.616 178 808.206 178 811.813C178 813.612 178.266 814.92 178.714 816.057C179.159 817.186 179.774 818.124 180.488 819.21L180.494 819.217C182.122 821.701 184.149 824.792 184.149 830.544C184.149 836.281 182.132 839.371 180.505 841.851L180.487 841.878C179.044 844.076 178 845.667 178 849.274C178 852.88 179.044 854.47 180.487 856.668C181.308 857.919 182.229 859.322 182.938 861.122C183.644 862.915 184.149 865.122 184.149 868.003L184.134 869H218V868.625V868.251H217.371Z" fill="#FBA409"/>
<path d="M217.371 868.251H184.774L184.776 868.006C184.778 865.001 184.247 862.69 183.505 860.806C182.765 858.928 181.821 857.491 180.982 856.211C179.616 854.129 178.629 852.625 178.629 849.274C178.629 845.921 179.616 844.417 180.981 842.338L180.984 842.332C182.676 839.754 184.778 836.549 184.778 830.544C184.778 824.538 182.676 821.333 180.987 818.758L180.982 818.751C180.291 817.699 179.695 816.791 179.282 815.742C178.871 814.702 178.629 813.494 178.629 811.813C178.629 808.46 179.616 806.956 180.98 804.877L181.066 804.747C182.627 802.367 184.501 799.509 184.749 794.256H184.778V792.707H184.749C184.501 787.453 182.627 784.595 181.066 782.216L180.966 782.062C179.608 779.994 178.629 778.489 178.629 775.15C178.629 773.469 178.871 772.261 179.282 771.221C179.694 770.173 180.289 769.267 180.978 768.218L180.987 768.204C182.677 765.628 184.778 762.424 184.778 756.419C184.778 750.412 182.676 747.208 180.987 744.632L180.975 744.616C179.614 742.541 178.629 741.036 178.629 737.689C178.629 734.337 179.616 732.833 180.98 730.754C181.821 729.472 182.765 728.035 183.505 726.157C184.247 724.272 184.778 721.961 184.778 718.959C184.778 715.957 184.248 713.621 183.507 711.712C182.768 709.812 181.823 708.344 180.982 707.062C180.304 706.03 179.718 705.11 179.303 704.047C178.892 702.999 178.642 701.797 178.627 700.182L178.629 700.115C178.642 698.499 178.892 697.296 179.302 696.248C179.718 695.185 180.304 694.264 180.982 693.233C181.823 691.951 182.768 690.484 183.507 688.583C184.248 686.674 184.778 684.338 184.778 681.335C184.778 675.404 182.727 672.202 181.049 669.646L180.982 669.544C179.616 667.461 178.629 665.958 178.629 662.606C178.629 659.254 179.615 657.751 180.98 655.673L180.987 655.661C182.676 653.086 184.778 649.881 184.778 643.876C184.778 637.87 182.676 634.665 180.987 632.09L180.981 632.082C179.616 630.003 178.629 628.5 178.629 625.145C178.629 624.617 178.653 624.137 178.697 623.697C178.731 623.364 178.778 623.052 178.836 622.756L178.948 622L178.35 622.007L178.287 622.285C178.195 622.694 178.122 623.132 178.074 623.606C178.026 624.081 178 624.591 178 625.145C178 628.753 179.044 630.344 180.488 632.541L180.505 632.567C182.132 635.048 184.149 638.138 184.149 643.876C184.149 649.627 182.122 652.718 180.493 655.202L180.486 655.213C179.043 657.41 178 658.999 178 662.606C178 666.157 179.012 667.753 180.421 669.9L180.488 670.003C182.118 672.486 184.149 675.579 184.149 681.335C184.149 684.215 183.644 686.449 182.937 688.27C182.227 690.098 181.306 691.526 180.488 692.773C179.783 693.846 179.174 694.806 178.733 695.932C178.288 697.073 178.017 698.374 178.001 700.112L178 700.182C178.017 701.921 178.288 703.222 178.734 704.363C179.174 705.49 179.784 706.449 180.488 707.521C181.306 708.769 182.227 710.197 182.937 712.025C183.644 713.846 184.149 716.079 184.149 718.959C184.149 721.84 183.644 724.047 182.938 725.841C182.229 727.64 181.308 729.043 180.488 730.292C179.044 732.493 178 734.083 178 737.689C178 741.295 179.044 742.886 180.487 745.084L180.5 745.104C182.128 747.585 184.149 750.675 184.149 756.419C184.149 762.166 182.126 765.255 180.497 767.739L180.488 767.753C179.774 768.839 179.159 769.776 178.714 770.905C178.266 772.043 178 773.35 178 775.15C178 778.758 179.044 780.348 180.487 782.547L180.572 782.675C182.113 785.022 183.969 787.852 184.137 793.094C184.146 793.378 184.146 793.585 184.137 793.868C183.969 799.11 182.113 801.94 180.572 804.287L180.488 804.415C179.044 806.616 178 808.206 178 811.813C178 813.612 178.266 814.92 178.714 816.057C179.159 817.186 179.774 818.124 180.488 819.21L180.494 819.217C182.122 821.701 184.149 824.792 184.149 830.544C184.149 836.281 182.132 839.371 180.505 841.851L180.487 841.878C179.044 844.076 178 845.667 178 849.274C178 852.88 179.044 854.47 180.487 856.668C181.308 857.919 182.229 859.322 182.938 861.122C183.644 862.915 184.149 865.122 184.149 868.003L184.134 869H218V868.625V868.251H217.371Z" stroke="#FBA409" mask="url(#path-47-outside-2_1029_14231)"/>
</svg>
