<svg width="394" height="882" viewBox="0 0 394 882" fill="none" xmlns="http://www.w3.org/2000/svg">
<path d="M260 272.241H375.574" stroke="#454D7D" stroke-width="2" stroke-miterlimit="22.9256"/>
<path d="M293 38.5107L393.334 1.0505" stroke="#454D7D" stroke-width="2" stroke-miterlimit="22.9256"/>
<path d="M260 467.019L373.034 413.051" stroke="#454D7D" stroke-width="2" stroke-miterlimit="22.9256"/>
<path d="M260 634.241H375.574" stroke="#454D7D" stroke-width="2" stroke-miterlimit="22.9256"/>
<path fill-rule="evenodd" clip-rule="evenodd" d="M98.3872 38.2253V271.284H74.2829C73.6198 268.845 72.3453 267.216 71.2574 265.826C69.9477 264.15 69 262.94 69 260.216C69 257.491 69.9477 256.281 71.2574 254.605C72.8077 252.626 74.7365 250.159 74.7365 245.553C74.7365 240.949 72.8077 238.401 71.2574 236.421C69.9674 234.773 69.029 233.481 69 230.854V230.803C69.029 228.175 69.9674 226.884 71.2574 225.236C72.8077 223.256 74.7365 220.707 74.7365 216.102C74.7365 211.497 72.8077 209.031 71.2574 207.052C69.9477 205.376 69 204.166 69 201.442C69 198.716 69.9477 197.507 71.2574 195.832C72.8077 193.85 74.7365 191.386 74.7365 186.78C74.7365 182.173 72.8077 179.709 71.2574 177.728C69.9477 176.053 69 174.844 69 172.117C69 169.392 69.9477 168.181 71.2574 166.507C72.8077 164.524 74.7365 162.139 74.7365 157.455V157.44C74.7365 152.756 72.8077 150.371 71.2574 148.389C69.9477 146.715 69 145.504 69 142.778C69 140.052 69.9477 138.843 71.2574 137.167C72.8077 135.186 74.7365 132.722 74.7365 128.116C74.7365 123.509 72.8077 121.046 71.2574 119.064C69.9477 117.388 69 116.179 69 113.453C69 110.729 69.9477 109.518 71.2574 107.843C72.8077 105.864 74.7365 103.398 74.7365 98.7928C74.7365 94.1868 72.8077 91.64 71.2574 89.6595C69.9674 88.0118 69.029 86.7201 69 84.0929V84.0406C69.029 81.4134 69.9674 80.1225 71.2574 78.474C72.8077 76.4938 74.7365 73.9464 74.7365 69.342C74.7365 64.7358 72.8077 62.2695 71.2574 60.2901C69.9477 58.6151 69 57.4044 69 54.6801C69 51.9554 69.9477 50.7447 71.2574 49.0696C72.8077 47.0877 74.7365 44.6242 74.7365 40.0177C74.7365 39.3807 74.6997 38.7846 74.6321 38.2253H98.3872Z" fill="#CCCCCC"/>
<path d="M98.3872 38.2253V271.284H74.2829C73.6198 268.845 72.3453 267.216 71.2574 265.826C69.9477 264.15 69 262.94 69 260.216C69 257.491 69.9477 256.281 71.2574 254.605C72.8077 252.626 74.7365 250.159 74.7365 245.553C74.7365 240.949 72.8077 238.401 71.2574 236.421C69.9674 234.773 69.029 233.481 69 230.854V230.803C69.029 228.175 69.9674 226.884 71.2574 225.236C72.8077 223.256 74.7365 220.707 74.7365 216.102C74.7365 211.497 72.8077 209.031 71.2574 207.052C69.9477 205.376 69 204.166 69 201.442C69 198.716 69.9477 197.507 71.2574 195.832C72.8077 193.85 74.7365 191.386 74.7365 186.78C74.7365 182.173 72.8077 179.709 71.2574 177.728C69.9477 176.053 69 174.844 69 172.117C69 169.392 69.9477 168.181 71.2574 166.507C72.8077 164.524 74.7365 162.139 74.7365 157.455V157.44C74.7365 152.756 72.8077 150.371 71.2574 148.389C69.9477 146.715 69 145.504 69 142.778C69 140.052 69.9477 138.843 71.2574 137.167C72.8077 135.186 74.7365 132.722 74.7365 128.116C74.7365 123.509 72.8077 121.046 71.2574 119.064C69.9477 117.388 69 116.179 69 113.453C69 110.729 69.9477 109.518 71.2574 107.843C72.8077 105.864 74.7365 103.398 74.7365 98.7928C74.7365 94.1868 72.8077 91.64 71.2574 89.6595C69.9674 88.0118 69.029 86.7201 69 84.0929V84.0406C69.029 81.4134 69.9674 80.1225 71.2574 78.474C72.8077 76.4938 74.7365 73.9464 74.7365 69.342C74.7365 64.7358 72.8077 62.2695 71.2574 60.2901C69.9477 58.6151 69 57.4044 69 54.6801C69 51.9554 69.9477 50.7447 71.2574 49.0696C72.8077 47.0877 74.7365 44.6242 74.7365 40.0177C74.7365 39.3807 74.6997 38.7846 74.6321 38.2253H98.3872Z" stroke="#757EB3" stroke-miterlimit="22.9256"/>
<path fill-rule="evenodd" clip-rule="evenodd" d="M132.08 38.2285V504.636V507.141V633.006H105.958C107.227 631.241 108.43 628.975 108.43 625.277V625.262C108.43 620.578 106.501 618.193 104.951 616.211C103.641 614.537 102.693 613.326 102.693 610.6C102.693 607.874 103.641 606.664 104.951 604.989C106.501 603.008 108.43 600.544 108.43 595.937C108.43 591.331 106.501 588.868 104.951 586.886C103.641 585.211 102.693 584.001 102.693 581.275C102.693 578.551 103.641 577.341 104.951 575.666C106.501 573.686 108.43 571.22 108.43 566.614C108.43 562.009 106.501 559.462 104.951 557.482C103.661 555.834 102.722 554.542 102.693 551.915V551.863C102.722 549.235 103.661 547.944 104.951 546.296C106.501 544.316 108.43 541.768 108.43 537.164C108.43 532.558 106.501 530.091 104.951 528.112C103.641 526.437 102.693 525.226 102.693 522.502C102.693 519.777 103.641 518.566 104.951 516.891C110.062 510.358 109.324 507.273 104.951 501.682C103.641 500.007 102.693 498.796 102.693 496.072C102.693 493.347 103.641 492.137 104.951 490.462C106.501 488.482 108.43 486.016 108.43 481.41C108.43 476.806 106.501 474.258 104.951 472.277C103.661 470.63 102.722 469.338 102.693 466.711V466.659C102.722 464.032 103.661 462.741 104.951 461.092C106.501 459.112 108.43 456.564 108.43 451.959C108.43 447.354 106.501 444.888 104.951 442.908C103.641 441.233 102.693 440.022 102.693 437.298C102.693 434.573 103.641 433.363 104.951 431.688C106.501 429.707 108.43 427.243 108.43 422.637C108.43 418.03 106.501 415.566 104.951 413.585C103.641 411.91 102.693 410.7 102.693 407.973C102.693 405.248 103.641 404.037 104.951 402.363C106.501 400.381 108.43 397.996 108.43 393.311V393.297C108.43 388.613 106.501 386.228 104.951 384.246C103.641 382.571 102.693 381.361 102.693 378.635C102.693 375.908 103.641 374.699 104.951 373.023C106.501 371.042 108.43 368.579 108.43 363.972C108.43 359.365 106.501 356.902 104.951 354.921C103.641 353.245 102.693 352.036 102.693 349.31C102.693 346.586 103.641 345.375 104.951 343.7C106.501 341.721 108.43 339.255 108.43 334.649C108.43 330.044 106.501 327.496 104.951 325.516C103.661 323.869 102.722 322.576 102.693 319.949V319.897C102.722 317.27 103.661 315.979 104.951 314.33C106.501 312.35 108.43 309.803 108.43 305.198C108.43 300.592 106.501 298.126 104.951 296.146C103.641 294.472 102.693 293.261 102.693 290.536C102.693 287.812 103.641 286.601 104.951 284.926C106.501 282.944 108.43 280.481 108.43 275.874C108.43 274.669 108.298 273.611 108.075 272.67L108.106 38.2285H132.08Z" fill="#CCCCCC"/>
<path d="M132.08 38.2285V504.636V507.141V633.006H105.958C107.227 631.241 108.43 628.975 108.43 625.277V625.262C108.43 620.578 106.501 618.193 104.951 616.211C103.641 614.537 102.693 613.326 102.693 610.6C102.693 607.874 103.641 606.664 104.951 604.989C106.501 603.008 108.43 600.544 108.43 595.937C108.43 591.331 106.501 588.868 104.951 586.886C103.641 585.211 102.693 584.001 102.693 581.275C102.693 578.551 103.641 577.341 104.951 575.666C106.501 573.686 108.43 571.22 108.43 566.614C108.43 562.009 106.501 559.462 104.951 557.482C103.661 555.834 102.722 554.542 102.693 551.915V551.863C102.722 549.235 103.661 547.944 104.951 546.296C106.501 544.316 108.43 541.768 108.43 537.164C108.43 532.558 106.501 530.091 104.951 528.112C103.641 526.437 102.693 525.226 102.693 522.502C102.693 519.777 103.641 518.566 104.951 516.891C110.062 510.358 109.324 507.273 104.951 501.682C103.641 500.007 102.693 498.796 102.693 496.072C102.693 493.347 103.641 492.137 104.951 490.462C106.501 488.482 108.43 486.016 108.43 481.41C108.43 476.806 106.501 474.258 104.951 472.277C103.661 470.63 102.722 469.338 102.693 466.711V466.659C102.722 464.032 103.661 462.741 104.951 461.092C106.501 459.112 108.43 456.564 108.43 451.959C108.43 447.354 106.501 444.888 104.951 442.908C103.641 441.233 102.693 440.022 102.693 437.298C102.693 434.573 103.641 433.363 104.951 431.688C106.501 429.707 108.43 427.243 108.43 422.637C108.43 418.03 106.501 415.566 104.951 413.585C103.641 411.91 102.693 410.7 102.693 407.973C102.693 405.248 103.641 404.037 104.951 402.363C106.501 400.381 108.43 397.996 108.43 393.311V393.297C108.43 388.613 106.501 386.228 104.951 384.246C103.641 382.571 102.693 381.361 102.693 378.635C102.693 375.908 103.641 374.699 104.951 373.023C106.501 371.042 108.43 368.579 108.43 363.972C108.43 359.365 106.501 356.902 104.951 354.921C103.641 353.245 102.693 352.036 102.693 349.31C102.693 346.586 103.641 345.375 104.951 343.7C106.501 341.721 108.43 339.255 108.43 334.649C108.43 330.044 106.501 327.496 104.951 325.516C103.661 323.869 102.722 322.576 102.693 319.949V319.897C102.722 317.27 103.661 315.979 104.951 314.33C106.501 312.35 108.43 309.803 108.43 305.198C108.43 300.592 106.501 298.126 104.951 296.146C103.641 294.472 102.693 293.261 102.693 290.536C102.693 287.812 103.641 286.601 104.951 284.926C106.501 282.944 108.43 280.481 108.43 275.874C108.43 274.669 108.298 273.611 108.075 272.67L108.106 38.2285H132.08Z" stroke="#757EB3" stroke-miterlimit="22.9256"/>
<path fill-rule="evenodd" clip-rule="evenodd" d="M98.2432 247.517H108.039V38.0019H98.2432V247.517Z" fill="#FFEC08"/>
<path d="M98.2432 247.517H108.039V38.0019H98.2432V247.517Z" stroke="#757EB3" stroke-miterlimit="22.9256"/>
<path fill-rule="evenodd" clip-rule="evenodd" d="M98.2432 247.517H108.039V271.492H98.2432V247.517Z" fill="#E3000F"/>
<path d="M98.2432 247.517H108.039V271.492H98.2432V247.517Z" stroke="#757EB3" stroke-miterlimit="22.9256"/>
<path fill-rule="evenodd" clip-rule="evenodd" d="M132.081 543.473H141.877V37.9998H132.081V543.473Z" fill="#FFEC08"/>
<path d="M132.081 543.473H141.877V37.9998H132.081V543.473Z" stroke="#757EB3" stroke-miterlimit="22.9256"/>
<path fill-rule="evenodd" clip-rule="evenodd" d="M132.081 542.293H141.877V633.006H132.081V542.293Z" fill="#00963F"/>
<path d="M132.081 542.293H141.877V633.006H132.081V542.293Z" stroke="#757EB3" stroke-miterlimit="22.9256"/>
<path fill-rule="evenodd" clip-rule="evenodd" d="M269.939 38.2253V271.284H294.044C294.707 268.845 295.981 267.216 297.069 265.826C298.379 264.15 299.327 262.94 299.327 260.216C299.327 257.491 298.379 256.281 297.069 254.605C295.519 252.626 293.59 250.159 293.59 245.553C293.59 240.949 295.519 238.401 297.069 236.421C298.359 234.773 299.298 233.481 299.327 230.854V230.803C299.298 228.175 298.359 226.884 297.069 225.236C295.519 223.256 293.59 220.707 293.59 216.102C293.59 211.497 295.519 209.031 297.069 207.052C298.379 205.376 299.327 204.166 299.327 201.442C299.327 198.716 298.379 197.507 297.069 195.832C295.519 193.85 293.59 191.386 293.59 186.78C293.59 182.173 295.519 179.709 297.069 177.728C298.379 176.053 299.327 174.844 299.327 172.117C299.327 169.392 298.379 168.181 297.069 166.507C295.519 164.524 293.59 162.139 293.59 157.455V157.44C293.59 152.756 295.519 150.371 297.069 148.389C298.379 146.715 299.327 145.504 299.327 142.778C299.327 140.052 298.379 138.843 297.069 137.167C295.519 135.186 293.59 132.722 293.59 128.116C293.59 123.509 295.519 121.046 297.069 119.064C298.379 117.388 299.327 116.179 299.327 113.453C299.327 110.729 298.379 109.518 297.069 107.843C295.519 105.864 293.59 103.398 293.59 98.7928C293.59 94.1868 295.519 91.64 297.069 89.6595C298.359 88.0118 299.298 86.7201 299.327 84.0929V84.0406C299.298 81.4134 298.359 80.1225 297.069 78.474C295.519 76.4938 293.59 73.9464 293.59 69.342C293.59 64.7358 295.519 62.2695 297.069 60.2901C298.379 58.6151 299.327 57.4044 299.327 54.6801C299.327 51.9554 298.379 50.7447 297.069 49.0696C295.519 47.0877 293.59 44.6242 293.59 40.0177C293.59 39.3807 293.627 38.7846 293.695 38.2253H269.939Z" fill="#CCCCCC"/>
<path d="M269.939 38.2253V271.284H294.044C294.707 268.845 295.981 267.216 297.069 265.826C298.379 264.15 299.327 262.94 299.327 260.216C299.327 257.491 298.379 256.281 297.069 254.605C295.519 252.626 293.59 250.159 293.59 245.553C293.59 240.949 295.519 238.401 297.069 236.421C298.359 234.773 299.298 233.481 299.327 230.854V230.803C299.298 228.175 298.359 226.884 297.069 225.236C295.519 223.256 293.59 220.707 293.59 216.102C293.59 211.497 295.519 209.031 297.069 207.052C298.379 205.376 299.327 204.166 299.327 201.442C299.327 198.716 298.379 197.507 297.069 195.832C295.519 193.85 293.59 191.386 293.59 186.78C293.59 182.173 295.519 179.709 297.069 177.728C298.379 176.053 299.327 174.844 299.327 172.117C299.327 169.392 298.379 168.181 297.069 166.507C295.519 164.524 293.59 162.139 293.59 157.455V157.44C293.59 152.756 295.519 150.371 297.069 148.389C298.379 146.715 299.327 145.504 299.327 142.778C299.327 140.052 298.379 138.843 297.069 137.167C295.519 135.186 293.59 132.722 293.59 128.116C293.59 123.509 295.519 121.046 297.069 119.064C298.379 117.388 299.327 116.179 299.327 113.453C299.327 110.729 298.379 109.518 297.069 107.843C295.519 105.864 293.59 103.398 293.59 98.7928C293.59 94.1868 295.519 91.64 297.069 89.6595C298.359 88.0118 299.298 86.7201 299.327 84.0929V84.0406C299.298 81.4134 298.359 80.1225 297.069 78.474C295.519 76.4938 293.59 73.9464 293.59 69.342C293.59 64.7358 295.519 62.2695 297.069 60.2901C298.379 58.6151 299.327 57.4044 299.327 54.6801C299.327 51.9554 298.379 50.7447 297.069 49.0696C295.519 47.0877 293.59 44.6242 293.59 40.0177C293.59 39.3807 293.627 38.7846 293.695 38.2253H269.939Z" stroke="#757EB3" stroke-miterlimit="22.9256"/>
<path fill-rule="evenodd" clip-rule="evenodd" d="M236.246 38.2285V504.636V507.141V633.006H262.368C261.099 631.241 259.897 628.975 259.897 625.277V625.262C259.897 620.578 261.826 618.193 263.376 616.211C264.686 614.537 265.633 613.326 265.633 610.6C265.633 607.874 264.686 606.664 263.376 604.989C261.826 603.008 259.897 600.544 259.897 595.937C259.897 591.331 261.826 588.868 263.376 586.886C264.686 585.211 265.633 584.001 265.633 581.275C265.633 578.551 264.686 577.341 263.376 575.666C261.826 573.686 259.897 571.22 259.897 566.614C259.897 562.009 261.826 559.462 263.376 557.482C264.666 555.834 265.604 554.542 265.633 551.915V551.863C265.604 549.235 264.666 547.944 263.376 546.296C261.826 544.316 259.897 541.768 259.897 537.164C259.897 532.558 261.826 530.091 263.376 528.112C264.686 526.437 265.633 525.226 265.633 522.502C265.633 519.777 264.686 518.566 263.376 516.891C258.265 510.358 259.002 507.273 263.376 501.682C264.686 500.007 265.633 498.796 265.633 496.072C265.633 493.347 264.686 492.137 263.376 490.462C261.826 488.482 259.897 486.016 259.897 481.41C259.897 476.806 261.826 474.258 263.376 472.277C264.666 470.63 265.604 469.338 265.633 466.711V466.659C265.604 464.032 264.666 462.741 263.376 461.092C261.826 459.112 259.897 456.564 259.897 451.959C259.897 447.354 261.826 444.888 263.376 442.908C264.686 441.233 265.633 440.022 265.633 437.298C265.633 434.573 264.686 433.363 263.376 431.688C261.826 429.707 259.897 427.243 259.897 422.637C259.897 418.03 261.826 415.566 263.376 413.585C264.686 411.91 265.633 410.7 265.633 407.973C265.633 405.248 264.686 404.037 263.376 402.363C261.826 400.381 259.897 397.996 259.897 393.311V393.297C259.897 388.613 261.826 386.228 263.376 384.246C264.686 382.571 265.633 381.361 265.633 378.635C265.633 375.908 264.686 374.699 263.376 373.023C261.826 371.042 259.897 368.579 259.897 363.972C259.897 359.365 261.826 356.902 263.376 354.921C264.686 353.245 265.633 352.036 265.633 349.31C265.633 346.586 264.686 345.375 263.376 343.7C261.826 341.721 259.897 339.255 259.897 334.649C259.897 330.044 261.826 327.496 263.376 325.516C264.666 323.869 265.604 322.576 265.633 319.949V319.897C265.604 317.27 264.666 315.979 263.376 314.33C261.826 312.35 259.897 309.803 259.897 305.198C259.897 300.592 261.826 298.126 263.376 296.146C264.686 294.472 265.633 293.261 265.633 290.536C265.633 287.812 264.686 286.601 263.376 284.926C261.826 282.944 259.897 280.481 259.897 275.874C259.897 274.669 260.029 273.611 260.252 272.67L260.22 38.2285H236.246Z" fill="#CCCCCC"/>
<path d="M236.246 38.2285V504.636V507.141V633.006H262.368C261.099 631.241 259.897 628.975 259.897 625.277V625.262C259.897 620.578 261.826 618.193 263.376 616.211C264.686 614.537 265.633 613.326 265.633 610.6C265.633 607.874 264.686 606.664 263.376 604.989C261.826 603.008 259.897 600.544 259.897 595.937C259.897 591.331 261.826 588.868 263.376 586.886C264.686 585.211 265.633 584.001 265.633 581.275C265.633 578.551 264.686 577.341 263.376 575.666C261.826 573.686 259.897 571.22 259.897 566.614C259.897 562.009 261.826 559.462 263.376 557.482C264.666 555.834 265.604 554.542 265.633 551.915V551.863C265.604 549.235 264.666 547.944 263.376 546.296C261.826 544.316 259.897 541.768 259.897 537.164C259.897 532.558 261.826 530.091 263.376 528.112C264.686 526.437 265.633 525.226 265.633 522.502C265.633 519.777 264.686 518.566 263.376 516.891C258.265 510.358 259.002 507.273 263.376 501.682C264.686 500.007 265.633 498.796 265.633 496.072C265.633 493.347 264.686 492.137 263.376 490.462C261.826 488.482 259.897 486.016 259.897 481.41C259.897 476.806 261.826 474.258 263.376 472.277C264.666 470.63 265.604 469.338 265.633 466.711V466.659C265.604 464.032 264.666 462.741 263.376 461.092C261.826 459.112 259.897 456.564 259.897 451.959C259.897 447.354 261.826 444.888 263.376 442.908C264.686 441.233 265.633 440.022 265.633 437.298C265.633 434.573 264.686 433.363 263.376 431.688C261.826 429.707 259.897 427.243 259.897 422.637C259.897 418.03 261.826 415.566 263.376 413.585C264.686 411.91 265.633 410.7 265.633 407.973C265.633 405.248 264.686 404.037 263.376 402.363C261.826 400.381 259.897 397.996 259.897 393.311V393.297C259.897 388.613 261.826 386.228 263.376 384.246C264.686 382.571 265.633 381.361 265.633 378.635C265.633 375.908 264.686 374.699 263.376 373.023C261.826 371.042 259.897 368.579 259.897 363.972C259.897 359.365 261.826 356.902 263.376 354.921C264.686 353.245 265.633 352.036 265.633 349.31C265.633 346.586 264.686 345.375 263.376 343.7C261.826 341.721 259.897 339.255 259.897 334.649C259.897 330.044 261.826 327.496 263.376 325.516C264.666 323.869 265.604 322.576 265.633 319.949V319.897C265.604 317.27 264.666 315.979 263.376 314.33C261.826 312.35 259.897 309.803 259.897 305.198C259.897 300.592 261.826 298.126 263.376 296.146C264.686 294.472 265.633 293.261 265.633 290.536C265.633 287.812 264.686 286.601 263.376 284.926C261.826 282.944 259.897 280.481 259.897 275.874C259.897 274.669 260.029 273.611 260.252 272.67L260.22 38.2285H236.246Z" stroke="#757EB3" stroke-miterlimit="22.9256"/>
<path fill-rule="evenodd" clip-rule="evenodd" d="M270.083 247.517H260.287V38.0019H270.083V247.517Z" fill="#FFEC08"/>
<path d="M270.083 247.517H260.287V38.0019H270.083V247.517Z" stroke="#757EB3" stroke-miterlimit="22.9256"/>
<path fill-rule="evenodd" clip-rule="evenodd" d="M270.083 247.517H260.287V271.492H270.083V247.517Z" fill="#E3000F"/>
<path d="M270.083 247.517H260.287V271.492H270.083V247.517Z" stroke="#757EB3" stroke-miterlimit="22.9256"/>
<path fill-rule="evenodd" clip-rule="evenodd" d="M236.247 543.473H226.451V37.9998H236.247V543.473Z" fill="#FFEC08"/>
<path d="M236.247 543.473H226.451V37.9998H236.247V543.473Z" stroke="#757EB3" stroke-miterlimit="22.9256"/>
<path fill-rule="evenodd" clip-rule="evenodd" d="M236.247 542.293H226.451V633.006H236.247V542.293Z" fill="#00963F"/>
<path d="M236.247 542.293H226.451V633.006H236.247V542.293Z" stroke="#757EB3" stroke-miterlimit="22.9256"/>
<path d="M0.975586 19.0508L102.636 75.554" stroke="#454D7D" stroke-width="2" stroke-miterlimit="22.9256"/>
<path d="M35.2744 425.861L136.935 482.365" stroke="#454D7D" stroke-width="2" stroke-miterlimit="22.9256"/>
<mask id="path-31-outside-1_1029_14232" maskUnits="userSpaceOnUse" x="191" y="633" width="41" height="249" fill="black">
<rect fill="white" x="191" y="633" width="41" height="249"/>
<path d="M192.613 880.251H224.395L224.393 880.006C224.392 877.001 224.909 874.69 225.632 872.806C226.354 870.928 227.274 869.491 228.093 868.211C229.425 866.129 230.387 864.625 230.387 861.274C230.387 857.921 229.424 856.417 228.093 854.338L228.09 854.332C226.441 851.754 224.392 848.549 224.392 842.544C224.392 836.538 226.441 833.333 228.088 830.758L228.093 830.751C228.766 829.699 229.347 828.791 229.75 827.742C230.15 826.702 230.387 825.494 230.387 823.813C230.387 820.46 229.425 818.956 228.094 816.877L228.011 816.747C226.488 814.367 224.661 811.509 224.42 806.256H224.392V804.707H224.42C224.661 799.453 226.488 796.595 228.011 794.216L228.109 794.062C229.432 791.994 230.387 790.489 230.387 787.15C230.387 785.469 230.15 784.261 229.75 783.221C229.348 782.173 228.768 781.267 228.096 780.218L228.087 780.204C226.44 777.628 224.392 774.424 224.392 768.419C224.392 762.412 226.441 759.208 228.088 756.632L228.099 756.616C229.427 754.541 230.387 753.036 230.387 749.689C230.387 746.337 229.425 744.833 228.094 742.754C227.274 741.472 226.354 740.035 225.632 738.157C224.909 736.272 224.392 733.961 224.392 730.959C224.392 727.957 224.908 725.621 225.631 723.712C226.351 721.812 227.273 720.344 228.093 719.062C228.753 718.03 229.325 717.11 229.73 716.047C230.13 714.999 230.374 713.797 230.388 712.182L230.387 712.115C230.374 710.499 230.13 709.296 229.731 708.248C229.325 707.185 228.753 706.264 228.093 705.233C227.273 703.951 226.351 702.484 225.631 700.583C224.908 698.674 224.392 696.338 224.392 693.335C224.392 687.404 226.391 684.202 228.027 681.646L228.093 681.544C229.425 679.461 230.387 677.958 230.387 674.606C230.387 671.254 229.425 669.751 228.095 667.673L228.088 667.661C226.441 665.086 224.392 661.881 224.392 655.876C224.392 649.87 226.441 646.665 228.088 644.09L228.093 644.082C229.424 642.003 230.387 640.5 230.387 637.145C230.387 636.617 230.364 636.137 230.32 635.697C230.287 635.364 230.242 635.052 230.185 634.756L230.075 634L230.658 634.007L230.72 634.285C230.81 634.694 230.881 635.132 230.928 635.606C230.975 636.081 231 636.591 231 637.145C231 640.753 229.982 642.344 228.574 644.541L228.558 644.567C226.971 647.048 225.005 650.138 225.005 655.876C225.005 661.627 226.981 664.718 228.569 667.202L228.576 667.213C229.983 669.41 231 670.999 231 674.606C231 678.157 230.013 679.753 228.64 681.9L228.574 682.003C226.985 684.486 225.005 687.579 225.005 693.335C225.005 696.215 225.497 698.449 226.187 700.27C226.879 702.098 227.776 703.526 228.574 704.773C229.261 705.846 229.856 706.806 230.285 707.932C230.719 709.073 230.983 710.374 230.999 712.112L231 712.182C230.983 713.921 230.719 715.222 230.284 716.363C229.856 717.49 229.261 718.449 228.574 719.521C227.776 720.769 226.879 722.197 226.187 724.025C225.497 725.846 225.005 728.079 225.005 730.959C225.005 733.84 225.497 736.047 226.185 737.841C226.876 739.64 227.775 741.043 228.574 742.292C229.982 744.493 231 746.083 231 749.689C231 753.295 229.982 754.886 228.575 757.084L228.562 757.104C226.975 759.585 225.005 762.675 225.005 768.419C225.005 774.166 226.977 777.255 228.565 779.739L228.574 779.753C229.27 780.839 229.87 781.776 230.304 782.905C230.741 784.043 231 785.35 231 787.15C231 790.758 229.982 792.348 228.575 794.547L228.492 794.675C226.99 797.022 225.18 799.852 225.016 805.094C225.007 805.378 225.007 805.585 225.016 805.868C225.18 811.11 226.99 813.94 228.492 816.287L228.574 816.415C229.982 818.616 231 820.206 231 823.813C231 825.612 230.741 826.92 230.304 828.057C229.87 829.186 229.27 830.124 228.574 831.21L228.569 831.217C226.981 833.701 225.005 836.792 225.005 842.544C225.005 848.281 226.971 851.371 228.557 853.851L228.575 853.878C229.982 856.076 231 857.667 231 861.274C231 864.88 229.983 866.47 228.576 868.668C227.775 869.919 226.876 871.322 226.185 873.122C225.497 874.915 225.005 877.122 225.005 880.003L225.02 881H192V880.625V880.251H192.613Z"/>
</mask>
<path d="M192.613 880.251H224.395L224.393 880.006C224.392 877.001 224.909 874.69 225.632 872.806C226.354 870.928 227.274 869.491 228.093 868.211C229.425 866.129 230.387 864.625 230.387 861.274C230.387 857.921 229.424 856.417 228.093 854.338L228.09 854.332C226.441 851.754 224.392 848.549 224.392 842.544C224.392 836.538 226.441 833.333 228.088 830.758L228.093 830.751C228.766 829.699 229.347 828.791 229.75 827.742C230.15 826.702 230.387 825.494 230.387 823.813C230.387 820.46 229.425 818.956 228.094 816.877L228.011 816.747C226.488 814.367 224.661 811.509 224.42 806.256H224.392V804.707H224.42C224.661 799.453 226.488 796.595 228.011 794.216L228.109 794.062C229.432 791.994 230.387 790.489 230.387 787.15C230.387 785.469 230.15 784.261 229.75 783.221C229.348 782.173 228.768 781.267 228.096 780.218L228.087 780.204C226.44 777.628 224.392 774.424 224.392 768.419C224.392 762.412 226.441 759.208 228.088 756.632L228.099 756.616C229.427 754.541 230.387 753.036 230.387 749.689C230.387 746.337 229.425 744.833 228.094 742.754C227.274 741.472 226.354 740.035 225.632 738.157C224.909 736.272 224.392 733.961 224.392 730.959C224.392 727.957 224.908 725.621 225.631 723.712C226.351 721.812 227.273 720.344 228.093 719.062C228.753 718.03 229.325 717.11 229.73 716.047C230.13 714.999 230.374 713.797 230.388 712.182L230.387 712.115C230.374 710.499 230.13 709.296 229.731 708.248C229.325 707.185 228.753 706.264 228.093 705.233C227.273 703.951 226.351 702.484 225.631 700.583C224.908 698.674 224.392 696.338 224.392 693.335C224.392 687.404 226.391 684.202 228.027 681.646L228.093 681.544C229.425 679.461 230.387 677.958 230.387 674.606C230.387 671.254 229.425 669.751 228.095 667.673L228.088 667.661C226.441 665.086 224.392 661.881 224.392 655.876C224.392 649.87 226.441 646.665 228.088 644.09L228.093 644.082C229.424 642.003 230.387 640.5 230.387 637.145C230.387 636.617 230.364 636.137 230.32 635.697C230.287 635.364 230.242 635.052 230.185 634.756L230.075 634L230.658 634.007L230.72 634.285C230.81 634.694 230.881 635.132 230.928 635.606C230.975 636.081 231 636.591 231 637.145C231 640.753 229.982 642.344 228.574 644.541L228.558 644.567C226.971 647.048 225.005 650.138 225.005 655.876C225.005 661.627 226.981 664.718 228.569 667.202L228.576 667.213C229.983 669.41 231 670.999 231 674.606C231 678.157 230.013 679.753 228.64 681.9L228.574 682.003C226.985 684.486 225.005 687.579 225.005 693.335C225.005 696.215 225.497 698.449 226.187 700.27C226.879 702.098 227.776 703.526 228.574 704.773C229.261 705.846 229.856 706.806 230.285 707.932C230.719 709.073 230.983 710.374 230.999 712.112L231 712.182C230.983 713.921 230.719 715.222 230.284 716.363C229.856 717.49 229.261 718.449 228.574 719.521C227.776 720.769 226.879 722.197 226.187 724.025C225.497 725.846 225.005 728.079 225.005 730.959C225.005 733.84 225.497 736.047 226.185 737.841C226.876 739.64 227.775 741.043 228.574 742.292C229.982 744.493 231 746.083 231 749.689C231 753.295 229.982 754.886 228.575 757.084L228.562 757.104C226.975 759.585 225.005 762.675 225.005 768.419C225.005 774.166 226.977 777.255 228.565 779.739L228.574 779.753C229.27 780.839 229.87 781.776 230.304 782.905C230.741 784.043 231 785.35 231 787.15C231 790.758 229.982 792.348 228.575 794.547L228.492 794.675C226.99 797.022 225.18 799.852 225.016 805.094C225.007 805.378 225.007 805.585 225.016 805.868C225.18 811.11 226.99 813.94 228.492 816.287L228.574 816.415C229.982 818.616 231 820.206 231 823.813C231 825.612 230.741 826.92 230.304 828.057C229.87 829.186 229.27 830.124 228.574 831.21L228.569 831.217C226.981 833.701 225.005 836.792 225.005 842.544C225.005 848.281 226.971 851.371 228.557 853.851L228.575 853.878C229.982 856.076 231 857.667 231 861.274C231 864.88 229.983 866.47 228.576 868.668C227.775 869.919 226.876 871.322 226.185 873.122C225.497 874.915 225.005 877.122 225.005 880.003L225.02 881H192V880.625V880.251H192.613Z" fill="#FBA409"/>
<path d="M192.613 880.251H224.395L224.393 880.006C224.392 877.001 224.909 874.69 225.632 872.806C226.354 870.928 227.274 869.491 228.093 868.211C229.425 866.129 230.387 864.625 230.387 861.274C230.387 857.921 229.424 856.417 228.093 854.338L228.09 854.332C226.441 851.754 224.392 848.549 224.392 842.544C224.392 836.538 226.441 833.333 228.088 830.758L228.093 830.751C228.766 829.699 229.347 828.791 229.75 827.742C230.15 826.702 230.387 825.494 230.387 823.813C230.387 820.46 229.425 818.956 228.094 816.877L228.011 816.747C226.488 814.367 224.661 811.509 224.42 806.256H224.392V804.707H224.42C224.661 799.453 226.488 796.595 228.011 794.216L228.109 794.062C229.432 791.994 230.387 790.489 230.387 787.15C230.387 785.469 230.15 784.261 229.75 783.221C229.348 782.173 228.768 781.267 228.096 780.218L228.087 780.204C226.44 777.628 224.392 774.424 224.392 768.419C224.392 762.412 226.441 759.208 228.088 756.632L228.099 756.616C229.427 754.541 230.387 753.036 230.387 749.689C230.387 746.337 229.425 744.833 228.094 742.754C227.274 741.472 226.354 740.035 225.632 738.157C224.909 736.272 224.392 733.961 224.392 730.959C224.392 727.957 224.908 725.621 225.631 723.712C226.351 721.812 227.273 720.344 228.093 719.062C228.753 718.03 229.325 717.11 229.73 716.047C230.13 714.999 230.374 713.797 230.388 712.182L230.387 712.115C230.374 710.499 230.13 709.296 229.731 708.248C229.325 707.185 228.753 706.264 228.093 705.233C227.273 703.951 226.351 702.484 225.631 700.583C224.908 698.674 224.392 696.338 224.392 693.335C224.392 687.404 226.391 684.202 228.027 681.646L228.093 681.544C229.425 679.461 230.387 677.958 230.387 674.606C230.387 671.254 229.425 669.751 228.095 667.673L228.088 667.661C226.441 665.086 224.392 661.881 224.392 655.876C224.392 649.87 226.441 646.665 228.088 644.09L228.093 644.082C229.424 642.003 230.387 640.5 230.387 637.145C230.387 636.617 230.364 636.137 230.32 635.697C230.287 635.364 230.242 635.052 230.185 634.756L230.075 634L230.658 634.007L230.72 634.285C230.81 634.694 230.881 635.132 230.928 635.606C230.975 636.081 231 636.591 231 637.145C231 640.753 229.982 642.344 228.574 644.541L228.558 644.567C226.971 647.048 225.005 650.138 225.005 655.876C225.005 661.627 226.981 664.718 228.569 667.202L228.576 667.213C229.983 669.41 231 670.999 231 674.606C231 678.157 230.013 679.753 228.64 681.9L228.574 682.003C226.985 684.486 225.005 687.579 225.005 693.335C225.005 696.215 225.497 698.449 226.187 700.27C226.879 702.098 227.776 703.526 228.574 704.773C229.261 705.846 229.856 706.806 230.285 707.932C230.719 709.073 230.983 710.374 230.999 712.112L231 712.182C230.983 713.921 230.719 715.222 230.284 716.363C229.856 717.49 229.261 718.449 228.574 719.521C227.776 720.769 226.879 722.197 226.187 724.025C225.497 725.846 225.005 728.079 225.005 730.959C225.005 733.84 225.497 736.047 226.185 737.841C226.876 739.64 227.775 741.043 228.574 742.292C229.982 744.493 231 746.083 231 749.689C231 753.295 229.982 754.886 228.575 757.084L228.562 757.104C226.975 759.585 225.005 762.675 225.005 768.419C225.005 774.166 226.977 777.255 228.565 779.739L228.574 779.753C229.27 780.839 229.87 781.776 230.304 782.905C230.741 784.043 231 785.35 231 787.15C231 790.758 229.982 792.348 228.575 794.547L228.492 794.675C226.99 797.022 225.18 799.852 225.016 805.094C225.007 805.378 225.007 805.585 225.016 805.868C225.18 811.11 226.99 813.94 228.492 816.287L228.574 816.415C229.982 818.616 231 820.206 231 823.813C231 825.612 230.741 826.92 230.304 828.057C229.87 829.186 229.27 830.124 228.574 831.21L228.569 831.217C226.981 833.701 225.005 836.792 225.005 842.544C225.005 848.281 226.971 851.371 228.557 853.851L228.575 853.878C229.982 856.076 231 857.667 231 861.274C231 864.88 229.983 866.47 228.576 868.668C227.775 869.919 226.876 871.322 226.185 873.122C225.497 874.915 225.005 877.122 225.005 880.003L225.02 881H192V880.625V880.251H192.613Z" stroke="#FBA409" mask="url(#path-31-outside-1_1029_14232)"/>
<mask id="path-32-outside-2_1029_14232" maskUnits="userSpaceOnUse" x="136" y="633" width="41" height="249" fill="black">
<rect fill="white" x="136" y="633" width="41" height="249"/>
<path d="M175.387 880.251H143.605L143.607 880.006C143.608 877.001 143.091 874.69 142.368 872.806C141.646 870.928 140.726 869.491 139.907 868.211C138.575 866.129 137.613 864.625 137.613 861.274C137.613 857.921 138.576 856.417 139.907 854.338L139.91 854.332C141.559 851.754 143.608 848.549 143.608 842.544C143.608 836.538 141.559 833.333 139.912 830.758L139.907 830.751C139.234 829.699 138.653 828.791 138.25 827.742C137.85 826.702 137.613 825.494 137.613 823.813C137.613 820.46 138.575 818.956 139.906 816.877L139.989 816.747C141.512 814.367 143.339 811.509 143.58 806.256H143.608V804.707H143.58C143.339 799.453 141.512 796.595 139.989 794.216L139.891 794.062C138.568 791.994 137.613 790.489 137.613 787.15C137.613 785.469 137.85 784.261 138.25 783.221C138.652 782.173 139.232 781.267 139.904 780.218L139.913 780.204C141.56 777.628 143.608 774.424 143.608 768.419C143.608 762.412 141.559 759.208 139.912 756.632L139.901 756.616C138.573 754.541 137.613 753.036 137.613 749.689C137.613 746.337 138.575 744.833 139.906 742.754C140.726 741.472 141.646 740.035 142.368 738.157C143.091 736.272 143.608 733.961 143.608 730.959C143.608 727.957 143.092 725.621 142.369 723.712C141.649 721.812 140.727 720.344 139.907 719.062C139.247 718.03 138.675 717.11 138.27 716.047C137.87 714.999 137.626 713.797 137.612 712.182L137.613 712.115C137.626 710.499 137.87 709.296 138.269 708.248C138.675 707.185 139.247 706.264 139.907 705.233C140.727 703.951 141.649 702.484 142.369 700.583C143.092 698.674 143.608 696.338 143.608 693.335C143.608 687.404 141.609 684.202 139.973 681.646L139.907 681.544C138.575 679.461 137.613 677.958 137.613 674.606C137.613 671.254 138.575 669.751 139.905 667.673L139.912 667.661C141.559 665.086 143.608 661.881 143.608 655.876C143.608 649.87 141.559 646.665 139.912 644.09L139.907 644.082C138.576 642.003 137.613 640.5 137.613 637.145C137.613 636.617 137.636 636.137 137.68 635.697C137.713 635.364 137.758 635.052 137.815 634.756L137.925 634L137.342 634.007L137.28 634.285C137.19 634.694 137.119 635.132 137.072 635.606C137.025 636.081 137 636.591 137 637.145C137 640.753 138.018 642.344 139.426 644.541L139.442 644.567C141.029 647.048 142.995 650.138 142.995 655.876C142.995 661.627 141.019 664.718 139.431 667.202L139.424 667.213C138.017 669.41 137 670.999 137 674.606C137 678.157 137.987 679.753 139.36 681.9L139.426 682.003C141.015 684.486 142.995 687.579 142.995 693.335C142.995 696.215 142.503 698.449 141.813 700.27C141.121 702.098 140.224 703.526 139.426 704.773C138.739 705.846 138.144 706.806 137.715 707.932C137.281 709.073 137.017 710.374 137.001 712.112L137 712.182C137.017 713.921 137.281 715.222 137.716 716.363C138.144 717.49 138.739 718.449 139.426 719.521C140.224 720.769 141.121 722.197 141.813 724.025C142.503 725.846 142.995 728.079 142.995 730.959C142.995 733.84 142.503 736.047 141.815 737.841C141.124 739.64 140.225 741.043 139.426 742.292C138.018 744.493 137 746.083 137 749.689C137 753.295 138.018 754.886 139.425 757.084L139.438 757.104C141.025 759.585 142.995 762.675 142.995 768.419C142.995 774.166 141.023 777.255 139.435 779.739L139.426 779.753C138.73 780.839 138.13 781.776 137.696 782.905C137.259 784.043 137 785.35 137 787.15C137 790.758 138.018 792.348 139.425 794.547L139.508 794.675C141.01 797.022 142.82 799.852 142.984 805.094C142.993 805.378 142.993 805.585 142.984 805.868C142.82 811.11 141.01 813.94 139.508 816.287L139.426 816.415C138.018 818.616 137 820.206 137 823.813C137 825.612 137.259 826.92 137.696 828.057C138.13 829.186 138.73 830.124 139.426 831.21L139.431 831.217C141.019 833.701 142.995 836.792 142.995 842.544C142.995 848.281 141.029 851.371 139.443 853.851L139.425 853.878C138.018 856.076 137 857.667 137 861.274C137 864.88 138.017 866.47 139.424 868.668C140.225 869.919 141.124 871.322 141.815 873.122C142.503 874.915 142.995 877.122 142.995 880.003L142.98 881H176V880.625V880.251H175.387Z"/>
</mask>
<path d="M175.387 880.251H143.605L143.607 880.006C143.608 877.001 143.091 874.69 142.368 872.806C141.646 870.928 140.726 869.491 139.907 868.211C138.575 866.129 137.613 864.625 137.613 861.274C137.613 857.921 138.576 856.417 139.907 854.338L139.91 854.332C141.559 851.754 143.608 848.549 143.608 842.544C143.608 836.538 141.559 833.333 139.912 830.758L139.907 830.751C139.234 829.699 138.653 828.791 138.25 827.742C137.85 826.702 137.613 825.494 137.613 823.813C137.613 820.46 138.575 818.956 139.906 816.877L139.989 816.747C141.512 814.367 143.339 811.509 143.58 806.256H143.608V804.707H143.58C143.339 799.453 141.512 796.595 139.989 794.216L139.891 794.062C138.568 791.994 137.613 790.489 137.613 787.15C137.613 785.469 137.85 784.261 138.25 783.221C138.652 782.173 139.232 781.267 139.904 780.218L139.913 780.204C141.56 777.628 143.608 774.424 143.608 768.419C143.608 762.412 141.559 759.208 139.912 756.632L139.901 756.616C138.573 754.541 137.613 753.036 137.613 749.689C137.613 746.337 138.575 744.833 139.906 742.754C140.726 741.472 141.646 740.035 142.368 738.157C143.091 736.272 143.608 733.961 143.608 730.959C143.608 727.957 143.092 725.621 142.369 723.712C141.649 721.812 140.727 720.344 139.907 719.062C139.247 718.03 138.675 717.11 138.27 716.047C137.87 714.999 137.626 713.797 137.612 712.182L137.613 712.115C137.626 710.499 137.87 709.296 138.269 708.248C138.675 707.185 139.247 706.264 139.907 705.233C140.727 703.951 141.649 702.484 142.369 700.583C143.092 698.674 143.608 696.338 143.608 693.335C143.608 687.404 141.609 684.202 139.973 681.646L139.907 681.544C138.575 679.461 137.613 677.958 137.613 674.606C137.613 671.254 138.575 669.751 139.905 667.673L139.912 667.661C141.559 665.086 143.608 661.881 143.608 655.876C143.608 649.87 141.559 646.665 139.912 644.09L139.907 644.082C138.576 642.003 137.613 640.5 137.613 637.145C137.613 636.617 137.636 636.137 137.68 635.697C137.713 635.364 137.758 635.052 137.815 634.756L137.925 634L137.342 634.007L137.28 634.285C137.19 634.694 137.119 635.132 137.072 635.606C137.025 636.081 137 636.591 137 637.145C137 640.753 138.018 642.344 139.426 644.541L139.442 644.567C141.029 647.048 142.995 650.138 142.995 655.876C142.995 661.627 141.019 664.718 139.431 667.202L139.424 667.213C138.017 669.41 137 670.999 137 674.606C137 678.157 137.987 679.753 139.36 681.9L139.426 682.003C141.015 684.486 142.995 687.579 142.995 693.335C142.995 696.215 142.503 698.449 141.813 700.27C141.121 702.098 140.224 703.526 139.426 704.773C138.739 705.846 138.144 706.806 137.715 707.932C137.281 709.073 137.017 710.374 137.001 712.112L137 712.182C137.017 713.921 137.281 715.222 137.716 716.363C138.144 717.49 138.739 718.449 139.426 719.521C140.224 720.769 141.121 722.197 141.813 724.025C142.503 725.846 142.995 728.079 142.995 730.959C142.995 733.84 142.503 736.047 141.815 737.841C141.124 739.64 140.225 741.043 139.426 742.292C138.018 744.493 137 746.083 137 749.689C137 753.295 138.018 754.886 139.425 757.084L139.438 757.104C141.025 759.585 142.995 762.675 142.995 768.419C142.995 774.166 141.023 777.255 139.435 779.739L139.426 779.753C138.73 780.839 138.13 781.776 137.696 782.905C137.259 784.043 137 785.35 137 787.15C137 790.758 138.018 792.348 139.425 794.547L139.508 794.675C141.01 797.022 142.82 799.852 142.984 805.094C142.993 805.378 142.993 805.585 142.984 805.868C142.82 811.11 141.01 813.94 139.508 816.287L139.426 816.415C138.018 818.616 137 820.206 137 823.813C137 825.612 137.259 826.92 137.696 828.057C138.13 829.186 138.73 830.124 139.426 831.21L139.431 831.217C141.019 833.701 142.995 836.792 142.995 842.544C142.995 848.281 141.029 851.371 139.443 853.851L139.425 853.878C138.018 856.076 137 857.667 137 861.274C137 864.88 138.017 866.47 139.424 868.668C140.225 869.919 141.124 871.322 141.815 873.122C142.503 874.915 142.995 877.122 142.995 880.003L142.98 881H176V880.625V880.251H175.387Z" fill="#FBA409"/>
<path d="M175.387 880.251H143.605L143.607 880.006C143.608 877.001 143.091 874.69 142.368 872.806C141.646 870.928 140.726 869.491 139.907 868.211C138.575 866.129 137.613 864.625 137.613 861.274C137.613 857.921 138.576 856.417 139.907 854.338L139.91 854.332C141.559 851.754 143.608 848.549 143.608 842.544C143.608 836.538 141.559 833.333 139.912 830.758L139.907 830.751C139.234 829.699 138.653 828.791 138.25 827.742C137.85 826.702 137.613 825.494 137.613 823.813C137.613 820.46 138.575 818.956 139.906 816.877L139.989 816.747C141.512 814.367 143.339 811.509 143.58 806.256H143.608V804.707H143.58C143.339 799.453 141.512 796.595 139.989 794.216L139.891 794.062C138.568 791.994 137.613 790.489 137.613 787.15C137.613 785.469 137.85 784.261 138.25 783.221C138.652 782.173 139.232 781.267 139.904 780.218L139.913 780.204C141.56 777.628 143.608 774.424 143.608 768.419C143.608 762.412 141.559 759.208 139.912 756.632L139.901 756.616C138.573 754.541 137.613 753.036 137.613 749.689C137.613 746.337 138.575 744.833 139.906 742.754C140.726 741.472 141.646 740.035 142.368 738.157C143.091 736.272 143.608 733.961 143.608 730.959C143.608 727.957 143.092 725.621 142.369 723.712C141.649 721.812 140.727 720.344 139.907 719.062C139.247 718.03 138.675 717.11 138.27 716.047C137.87 714.999 137.626 713.797 137.612 712.182L137.613 712.115C137.626 710.499 137.87 709.296 138.269 708.248C138.675 707.185 139.247 706.264 139.907 705.233C140.727 703.951 141.649 702.484 142.369 700.583C143.092 698.674 143.608 696.338 143.608 693.335C143.608 687.404 141.609 684.202 139.973 681.646L139.907 681.544C138.575 679.461 137.613 677.958 137.613 674.606C137.613 671.254 138.575 669.751 139.905 667.673L139.912 667.661C141.559 665.086 143.608 661.881 143.608 655.876C143.608 649.87 141.559 646.665 139.912 644.09L139.907 644.082C138.576 642.003 137.613 640.5 137.613 637.145C137.613 636.617 137.636 636.137 137.68 635.697C137.713 635.364 137.758 635.052 137.815 634.756L137.925 634L137.342 634.007L137.28 634.285C137.19 634.694 137.119 635.132 137.072 635.606C137.025 636.081 137 636.591 137 637.145C137 640.753 138.018 642.344 139.426 644.541L139.442 644.567C141.029 647.048 142.995 650.138 142.995 655.876C142.995 661.627 141.019 664.718 139.431 667.202L139.424 667.213C138.017 669.41 137 670.999 137 674.606C137 678.157 137.987 679.753 139.36 681.9L139.426 682.003C141.015 684.486 142.995 687.579 142.995 693.335C142.995 696.215 142.503 698.449 141.813 700.27C141.121 702.098 140.224 703.526 139.426 704.773C138.739 705.846 138.144 706.806 137.715 707.932C137.281 709.073 137.017 710.374 137.001 712.112L137 712.182C137.017 713.921 137.281 715.222 137.716 716.363C138.144 717.49 138.739 718.449 139.426 719.521C140.224 720.769 141.121 722.197 141.813 724.025C142.503 725.846 142.995 728.079 142.995 730.959C142.995 733.84 142.503 736.047 141.815 737.841C141.124 739.64 140.225 741.043 139.426 742.292C138.018 744.493 137 746.083 137 749.689C137 753.295 138.018 754.886 139.425 757.084L139.438 757.104C141.025 759.585 142.995 762.675 142.995 768.419C142.995 774.166 141.023 777.255 139.435 779.739L139.426 779.753C138.73 780.839 138.13 781.776 137.696 782.905C137.259 784.043 137 785.35 137 787.15C137 790.758 138.018 792.348 139.425 794.547L139.508 794.675C141.01 797.022 142.82 799.852 142.984 805.094C142.993 805.378 142.993 805.585 142.984 805.868C142.82 811.11 141.01 813.94 139.508 816.287L139.426 816.415C138.018 818.616 137 820.206 137 823.813C137 825.612 137.259 826.92 137.696 828.057C138.13 829.186 138.73 830.124 139.426 831.21L139.431 831.217C141.019 833.701 142.995 836.792 142.995 842.544C142.995 848.281 141.029 851.371 139.443 853.851L139.425 853.878C138.018 856.076 137 857.667 137 861.274C137 864.88 138.017 866.47 139.424 868.668C140.225 869.919 141.124 871.322 141.815 873.122C142.503 874.915 142.995 877.122 142.995 880.003L142.98 881H176V880.625V880.251H175.387Z" stroke="#FBA409" mask="url(#path-32-outside-2_1029_14232)"/>
</svg>
