<svg width="394" height="636" viewBox="0 0 394 636" fill="none" xmlns="http://www.w3.org/2000/svg">
<path d="M260 272.241H375.574" stroke="#454D7D" stroke-width="2" stroke-miterlimit="22.9256"/>
<path d="M293 38.5107L393.334 1.0505" stroke="#454D7D" stroke-width="2" stroke-miterlimit="22.9256"/>
<path d="M260 467.019L373.034 413.051" stroke="#454D7D" stroke-width="2" stroke-miterlimit="22.9256"/>
<path d="M260 634.241H375.574" stroke="#454D7D" stroke-width="2" stroke-miterlimit="22.9256"/>
<path fill-rule="evenodd" clip-rule="evenodd" d="M98.3872 38.2253V271.284H74.2829C73.6198 268.845 72.3453 267.216 71.2574 265.826C69.9477 264.15 69 262.94 69 260.216C69 257.491 69.9477 256.281 71.2574 254.605C72.8077 252.626 74.7365 250.159 74.7365 245.553C74.7365 240.949 72.8077 238.401 71.2574 236.421C69.9674 234.773 69.029 233.481 69 230.854V230.803C69.029 228.175 69.9674 226.884 71.2574 225.236C72.8077 223.256 74.7365 220.707 74.7365 216.102C74.7365 211.497 72.8077 209.031 71.2574 207.052C69.9477 205.376 69 204.166 69 201.442C69 198.716 69.9477 197.507 71.2574 195.832C72.8077 193.85 74.7365 191.386 74.7365 186.78C74.7365 182.173 72.8077 179.709 71.2574 177.728C69.9477 176.053 69 174.844 69 172.117C69 169.392 69.9477 168.181 71.2574 166.507C72.8077 164.524 74.7365 162.139 74.7365 157.455V157.44C74.7365 152.756 72.8077 150.371 71.2574 148.389C69.9477 146.715 69 145.504 69 142.778C69 140.052 69.9477 138.843 71.2574 137.167C72.8077 135.186 74.7365 132.722 74.7365 128.116C74.7365 123.509 72.8077 121.046 71.2574 119.064C69.9477 117.388 69 116.179 69 113.453C69 110.729 69.9477 109.518 71.2574 107.843C72.8077 105.864 74.7365 103.398 74.7365 98.7928C74.7365 94.1868 72.8077 91.64 71.2574 89.6595C69.9674 88.0118 69.029 86.7201 69 84.0929V84.0406C69.029 81.4134 69.9674 80.1225 71.2574 78.474C72.8077 76.4938 74.7365 73.9464 74.7365 69.342C74.7365 64.7358 72.8077 62.2695 71.2574 60.2901C69.9477 58.6151 69 57.4044 69 54.6801C69 51.9554 69.9477 50.7447 71.2574 49.0696C72.8077 47.0877 74.7365 44.6242 74.7365 40.0177C74.7365 39.3807 74.6997 38.7846 74.6321 38.2253H98.3872Z" fill="#CCCCCC"/>
<path d="M98.3872 38.2253V271.284H74.2829C73.6198 268.845 72.3453 267.216 71.2574 265.826C69.9477 264.15 69 262.94 69 260.216C69 257.491 69.9477 256.281 71.2574 254.605C72.8077 252.626 74.7365 250.159 74.7365 245.553C74.7365 240.949 72.8077 238.401 71.2574 236.421C69.9674 234.773 69.029 233.481 69 230.854V230.803C69.029 228.175 69.9674 226.884 71.2574 225.236C72.8077 223.256 74.7365 220.707 74.7365 216.102C74.7365 211.497 72.8077 209.031 71.2574 207.052C69.9477 205.376 69 204.166 69 201.442C69 198.716 69.9477 197.507 71.2574 195.832C72.8077 193.85 74.7365 191.386 74.7365 186.78C74.7365 182.173 72.8077 179.709 71.2574 177.728C69.9477 176.053 69 174.844 69 172.117C69 169.392 69.9477 168.181 71.2574 166.507C72.8077 164.524 74.7365 162.139 74.7365 157.455V157.44C74.7365 152.756 72.8077 150.371 71.2574 148.389C69.9477 146.715 69 145.504 69 142.778C69 140.052 69.9477 138.843 71.2574 137.167C72.8077 135.186 74.7365 132.722 74.7365 128.116C74.7365 123.509 72.8077 121.046 71.2574 119.064C69.9477 117.388 69 116.179 69 113.453C69 110.729 69.9477 109.518 71.2574 107.843C72.8077 105.864 74.7365 103.398 74.7365 98.7928C74.7365 94.1868 72.8077 91.64 71.2574 89.6595C69.9674 88.0118 69.029 86.7201 69 84.0929V84.0406C69.029 81.4134 69.9674 80.1225 71.2574 78.474C72.8077 76.4938 74.7365 73.9464 74.7365 69.342C74.7365 64.7358 72.8077 62.2695 71.2574 60.2901C69.9477 58.6151 69 57.4044 69 54.6801C69 51.9554 69.9477 50.7447 71.2574 49.0696C72.8077 47.0877 74.7365 44.6242 74.7365 40.0177C74.7365 39.3807 74.6997 38.7846 74.6321 38.2253H98.3872Z" stroke="#757EB3" stroke-miterlimit="22.9256"/>
<path fill-rule="evenodd" clip-rule="evenodd" d="M132.08 38.2285V504.636V507.141V633.006H105.958C107.227 631.241 108.43 628.975 108.43 625.277V625.262C108.43 620.578 106.501 618.193 104.951 616.211C103.641 614.537 102.693 613.326 102.693 610.6C102.693 607.874 103.641 606.664 104.951 604.989C106.501 603.008 108.43 600.544 108.43 595.937C108.43 591.331 106.501 588.868 104.951 586.886C103.641 585.211 102.693 584.001 102.693 581.275C102.693 578.551 103.641 577.341 104.951 575.666C106.501 573.686 108.43 571.22 108.43 566.614C108.43 562.009 106.501 559.462 104.951 557.482C103.661 555.834 102.722 554.542 102.693 551.915V551.863C102.722 549.235 103.661 547.944 104.951 546.296C106.501 544.316 108.43 541.768 108.43 537.164C108.43 532.558 106.501 530.091 104.951 528.112C103.641 526.437 102.693 525.226 102.693 522.502C102.693 519.777 103.641 518.566 104.951 516.891C110.062 510.358 109.324 507.273 104.951 501.682C103.641 500.007 102.693 498.796 102.693 496.072C102.693 493.347 103.641 492.137 104.951 490.462C106.501 488.482 108.43 486.016 108.43 481.41C108.43 476.806 106.501 474.258 104.951 472.277C103.661 470.63 102.722 469.338 102.693 466.711V466.659C102.722 464.032 103.661 462.741 104.951 461.092C106.501 459.112 108.43 456.564 108.43 451.959C108.43 447.354 106.501 444.888 104.951 442.908C103.641 441.233 102.693 440.022 102.693 437.298C102.693 434.573 103.641 433.363 104.951 431.688C106.501 429.707 108.43 427.243 108.43 422.637C108.43 418.03 106.501 415.566 104.951 413.585C103.641 411.91 102.693 410.7 102.693 407.973C102.693 405.248 103.641 404.037 104.951 402.363C106.501 400.381 108.43 397.996 108.43 393.311V393.297C108.43 388.613 106.501 386.228 104.951 384.246C103.641 382.571 102.693 381.361 102.693 378.635C102.693 375.908 103.641 374.699 104.951 373.023C106.501 371.042 108.43 368.579 108.43 363.972C108.43 359.365 106.501 356.902 104.951 354.921C103.641 353.245 102.693 352.036 102.693 349.31C102.693 346.586 103.641 345.375 104.951 343.7C106.501 341.721 108.43 339.255 108.43 334.649C108.43 330.044 106.501 327.496 104.951 325.516C103.661 323.869 102.722 322.576 102.693 319.949V319.897C102.722 317.27 103.661 315.979 104.951 314.33C106.501 312.35 108.43 309.803 108.43 305.198C108.43 300.592 106.501 298.126 104.951 296.146C103.641 294.472 102.693 293.261 102.693 290.536C102.693 287.812 103.641 286.601 104.951 284.926C106.501 282.944 108.43 280.481 108.43 275.874C108.43 274.669 108.298 273.611 108.075 272.67L108.106 38.2285H132.08Z" fill="#CCCCCC"/>
<path d="M132.08 38.2285V504.636V507.141V633.006H105.958C107.227 631.241 108.43 628.975 108.43 625.277V625.262C108.43 620.578 106.501 618.193 104.951 616.211C103.641 614.537 102.693 613.326 102.693 610.6C102.693 607.874 103.641 606.664 104.951 604.989C106.501 603.008 108.43 600.544 108.43 595.937C108.43 591.331 106.501 588.868 104.951 586.886C103.641 585.211 102.693 584.001 102.693 581.275C102.693 578.551 103.641 577.341 104.951 575.666C106.501 573.686 108.43 571.22 108.43 566.614C108.43 562.009 106.501 559.462 104.951 557.482C103.661 555.834 102.722 554.542 102.693 551.915V551.863C102.722 549.235 103.661 547.944 104.951 546.296C106.501 544.316 108.43 541.768 108.43 537.164C108.43 532.558 106.501 530.091 104.951 528.112C103.641 526.437 102.693 525.226 102.693 522.502C102.693 519.777 103.641 518.566 104.951 516.891C110.062 510.358 109.324 507.273 104.951 501.682C103.641 500.007 102.693 498.796 102.693 496.072C102.693 493.347 103.641 492.137 104.951 490.462C106.501 488.482 108.43 486.016 108.43 481.41C108.43 476.806 106.501 474.258 104.951 472.277C103.661 470.63 102.722 469.338 102.693 466.711V466.659C102.722 464.032 103.661 462.741 104.951 461.092C106.501 459.112 108.43 456.564 108.43 451.959C108.43 447.354 106.501 444.888 104.951 442.908C103.641 441.233 102.693 440.022 102.693 437.298C102.693 434.573 103.641 433.363 104.951 431.688C106.501 429.707 108.43 427.243 108.43 422.637C108.43 418.03 106.501 415.566 104.951 413.585C103.641 411.91 102.693 410.7 102.693 407.973C102.693 405.248 103.641 404.037 104.951 402.363C106.501 400.381 108.43 397.996 108.43 393.311V393.297C108.43 388.613 106.501 386.228 104.951 384.246C103.641 382.571 102.693 381.361 102.693 378.635C102.693 375.908 103.641 374.699 104.951 373.023C106.501 371.042 108.43 368.579 108.43 363.972C108.43 359.365 106.501 356.902 104.951 354.921C103.641 353.245 102.693 352.036 102.693 349.31C102.693 346.586 103.641 345.375 104.951 343.7C106.501 341.721 108.43 339.255 108.43 334.649C108.43 330.044 106.501 327.496 104.951 325.516C103.661 323.869 102.722 322.576 102.693 319.949V319.897C102.722 317.27 103.661 315.979 104.951 314.33C106.501 312.35 108.43 309.803 108.43 305.198C108.43 300.592 106.501 298.126 104.951 296.146C103.641 294.472 102.693 293.261 102.693 290.536C102.693 287.812 103.641 286.601 104.951 284.926C106.501 282.944 108.43 280.481 108.43 275.874C108.43 274.669 108.298 273.611 108.075 272.67L108.106 38.2285H132.08Z" stroke="#757EB3" stroke-miterlimit="22.9256"/>
<path fill-rule="evenodd" clip-rule="evenodd" d="M98.2432 247.517H108.039V38.0019H98.2432V247.517Z" fill="#FFEC08"/>
<path d="M98.2432 247.517H108.039V38.0019H98.2432V247.517Z" stroke="#757EB3" stroke-miterlimit="22.9256"/>
<path fill-rule="evenodd" clip-rule="evenodd" d="M98.2432 247.517H108.039V271.492H98.2432V247.517Z" fill="#E3000F"/>
<path d="M98.2432 247.517H108.039V271.492H98.2432V247.517Z" stroke="#757EB3" stroke-miterlimit="22.9256"/>
<path fill-rule="evenodd" clip-rule="evenodd" d="M132.081 543.473H141.877V37.9998H132.081V543.473Z" fill="#FFEC08"/>
<path d="M132.081 543.473H141.877V37.9998H132.081V543.473Z" stroke="#757EB3" stroke-miterlimit="22.9256"/>
<path fill-rule="evenodd" clip-rule="evenodd" d="M132.081 542.293H141.877V633.006H132.081V542.293Z" fill="#00963F"/>
<path d="M132.081 542.293H141.877V633.006H132.081V542.293Z" stroke="#757EB3" stroke-miterlimit="22.9256"/>
<path fill-rule="evenodd" clip-rule="evenodd" d="M269.939 38.2253V271.284H294.044C294.707 268.845 295.981 267.216 297.069 265.826C298.379 264.15 299.327 262.94 299.327 260.216C299.327 257.491 298.379 256.281 297.069 254.605C295.519 252.626 293.59 250.159 293.59 245.553C293.59 240.949 295.519 238.401 297.069 236.421C298.359 234.773 299.298 233.481 299.327 230.854V230.803C299.298 228.175 298.359 226.884 297.069 225.236C295.519 223.256 293.59 220.707 293.59 216.102C293.59 211.497 295.519 209.031 297.069 207.052C298.379 205.376 299.327 204.166 299.327 201.442C299.327 198.716 298.379 197.507 297.069 195.832C295.519 193.85 293.59 191.386 293.59 186.78C293.59 182.173 295.519 179.709 297.069 177.728C298.379 176.053 299.327 174.844 299.327 172.117C299.327 169.392 298.379 168.181 297.069 166.507C295.519 164.524 293.59 162.139 293.59 157.455V157.44C293.59 152.756 295.519 150.371 297.069 148.389C298.379 146.715 299.327 145.504 299.327 142.778C299.327 140.052 298.379 138.843 297.069 137.167C295.519 135.186 293.59 132.722 293.59 128.116C293.59 123.509 295.519 121.046 297.069 119.064C298.379 117.388 299.327 116.179 299.327 113.453C299.327 110.729 298.379 109.518 297.069 107.843C295.519 105.864 293.59 103.398 293.59 98.7928C293.59 94.1868 295.519 91.64 297.069 89.6595C298.359 88.0118 299.298 86.7201 299.327 84.0929V84.0406C299.298 81.4134 298.359 80.1225 297.069 78.474C295.519 76.4938 293.59 73.9464 293.59 69.342C293.59 64.7358 295.519 62.2695 297.069 60.2901C298.379 58.6151 299.327 57.4044 299.327 54.6801C299.327 51.9554 298.379 50.7447 297.069 49.0696C295.519 47.0877 293.59 44.6242 293.59 40.0177C293.59 39.3807 293.627 38.7846 293.695 38.2253H269.939Z" fill="#CCCCCC"/>
<path d="M269.939 38.2253V271.284H294.044C294.707 268.845 295.981 267.216 297.069 265.826C298.379 264.15 299.327 262.94 299.327 260.216C299.327 257.491 298.379 256.281 297.069 254.605C295.519 252.626 293.59 250.159 293.59 245.553C293.59 240.949 295.519 238.401 297.069 236.421C298.359 234.773 299.298 233.481 299.327 230.854V230.803C299.298 228.175 298.359 226.884 297.069 225.236C295.519 223.256 293.59 220.707 293.59 216.102C293.59 211.497 295.519 209.031 297.069 207.052C298.379 205.376 299.327 204.166 299.327 201.442C299.327 198.716 298.379 197.507 297.069 195.832C295.519 193.85 293.59 191.386 293.59 186.78C293.59 182.173 295.519 179.709 297.069 177.728C298.379 176.053 299.327 174.844 299.327 172.117C299.327 169.392 298.379 168.181 297.069 166.507C295.519 164.524 293.59 162.139 293.59 157.455V157.44C293.59 152.756 295.519 150.371 297.069 148.389C298.379 146.715 299.327 145.504 299.327 142.778C299.327 140.052 298.379 138.843 297.069 137.167C295.519 135.186 293.59 132.722 293.59 128.116C293.59 123.509 295.519 121.046 297.069 119.064C298.379 117.388 299.327 116.179 299.327 113.453C299.327 110.729 298.379 109.518 297.069 107.843C295.519 105.864 293.59 103.398 293.59 98.7928C293.59 94.1868 295.519 91.64 297.069 89.6595C298.359 88.0118 299.298 86.7201 299.327 84.0929V84.0406C299.298 81.4134 298.359 80.1225 297.069 78.474C295.519 76.4938 293.59 73.9464 293.59 69.342C293.59 64.7358 295.519 62.2695 297.069 60.2901C298.379 58.6151 299.327 57.4044 299.327 54.6801C299.327 51.9554 298.379 50.7447 297.069 49.0696C295.519 47.0877 293.59 44.6242 293.59 40.0177C293.59 39.3807 293.627 38.7846 293.695 38.2253H269.939Z" stroke="#757EB3" stroke-miterlimit="22.9256"/>
<path fill-rule="evenodd" clip-rule="evenodd" d="M236.246 38.2285V504.636V507.141V633.006H262.368C261.099 631.241 259.897 628.975 259.897 625.277V625.262C259.897 620.578 261.826 618.193 263.376 616.211C264.686 614.537 265.633 613.326 265.633 610.6C265.633 607.874 264.686 606.664 263.376 604.989C261.826 603.008 259.897 600.544 259.897 595.937C259.897 591.331 261.826 588.868 263.376 586.886C264.686 585.211 265.633 584.001 265.633 581.275C265.633 578.551 264.686 577.341 263.376 575.666C261.826 573.686 259.897 571.22 259.897 566.614C259.897 562.009 261.826 559.462 263.376 557.482C264.666 555.834 265.604 554.542 265.633 551.915V551.863C265.604 549.235 264.666 547.944 263.376 546.296C261.826 544.316 259.897 541.768 259.897 537.164C259.897 532.558 261.826 530.091 263.376 528.112C264.686 526.437 265.633 525.226 265.633 522.502C265.633 519.777 264.686 518.566 263.376 516.891C258.265 510.358 259.002 507.273 263.376 501.682C264.686 500.007 265.633 498.796 265.633 496.072C265.633 493.347 264.686 492.137 263.376 490.462C261.826 488.482 259.897 486.016 259.897 481.41C259.897 476.806 261.826 474.258 263.376 472.277C264.666 470.63 265.604 469.338 265.633 466.711V466.659C265.604 464.032 264.666 462.741 263.376 461.092C261.826 459.112 259.897 456.564 259.897 451.959C259.897 447.354 261.826 444.888 263.376 442.908C264.686 441.233 265.633 440.022 265.633 437.298C265.633 434.573 264.686 433.363 263.376 431.688C261.826 429.707 259.897 427.243 259.897 422.637C259.897 418.03 261.826 415.566 263.376 413.585C264.686 411.91 265.633 410.7 265.633 407.973C265.633 405.248 264.686 404.037 263.376 402.363C261.826 400.381 259.897 397.996 259.897 393.311V393.297C259.897 388.613 261.826 386.228 263.376 384.246C264.686 382.571 265.633 381.361 265.633 378.635C265.633 375.908 264.686 374.699 263.376 373.023C261.826 371.042 259.897 368.579 259.897 363.972C259.897 359.365 261.826 356.902 263.376 354.921C264.686 353.245 265.633 352.036 265.633 349.31C265.633 346.586 264.686 345.375 263.376 343.7C261.826 341.721 259.897 339.255 259.897 334.649C259.897 330.044 261.826 327.496 263.376 325.516C264.666 323.869 265.604 322.576 265.633 319.949V319.897C265.604 317.27 264.666 315.979 263.376 314.33C261.826 312.35 259.897 309.803 259.897 305.198C259.897 300.592 261.826 298.126 263.376 296.146C264.686 294.472 265.633 293.261 265.633 290.536C265.633 287.812 264.686 286.601 263.376 284.926C261.826 282.944 259.897 280.481 259.897 275.874C259.897 274.669 260.029 273.611 260.252 272.67L260.22 38.2285H236.246Z" fill="#CCCCCC"/>
<path d="M236.246 38.2285V504.636V507.141V633.006H262.368C261.099 631.241 259.897 628.975 259.897 625.277V625.262C259.897 620.578 261.826 618.193 263.376 616.211C264.686 614.537 265.633 613.326 265.633 610.6C265.633 607.874 264.686 606.664 263.376 604.989C261.826 603.008 259.897 600.544 259.897 595.937C259.897 591.331 261.826 588.868 263.376 586.886C264.686 585.211 265.633 584.001 265.633 581.275C265.633 578.551 264.686 577.341 263.376 575.666C261.826 573.686 259.897 571.22 259.897 566.614C259.897 562.009 261.826 559.462 263.376 557.482C264.666 555.834 265.604 554.542 265.633 551.915V551.863C265.604 549.235 264.666 547.944 263.376 546.296C261.826 544.316 259.897 541.768 259.897 537.164C259.897 532.558 261.826 530.091 263.376 528.112C264.686 526.437 265.633 525.226 265.633 522.502C265.633 519.777 264.686 518.566 263.376 516.891C258.265 510.358 259.002 507.273 263.376 501.682C264.686 500.007 265.633 498.796 265.633 496.072C265.633 493.347 264.686 492.137 263.376 490.462C261.826 488.482 259.897 486.016 259.897 481.41C259.897 476.806 261.826 474.258 263.376 472.277C264.666 470.63 265.604 469.338 265.633 466.711V466.659C265.604 464.032 264.666 462.741 263.376 461.092C261.826 459.112 259.897 456.564 259.897 451.959C259.897 447.354 261.826 444.888 263.376 442.908C264.686 441.233 265.633 440.022 265.633 437.298C265.633 434.573 264.686 433.363 263.376 431.688C261.826 429.707 259.897 427.243 259.897 422.637C259.897 418.03 261.826 415.566 263.376 413.585C264.686 411.91 265.633 410.7 265.633 407.973C265.633 405.248 264.686 404.037 263.376 402.363C261.826 400.381 259.897 397.996 259.897 393.311V393.297C259.897 388.613 261.826 386.228 263.376 384.246C264.686 382.571 265.633 381.361 265.633 378.635C265.633 375.908 264.686 374.699 263.376 373.023C261.826 371.042 259.897 368.579 259.897 363.972C259.897 359.365 261.826 356.902 263.376 354.921C264.686 353.245 265.633 352.036 265.633 349.31C265.633 346.586 264.686 345.375 263.376 343.7C261.826 341.721 259.897 339.255 259.897 334.649C259.897 330.044 261.826 327.496 263.376 325.516C264.666 323.869 265.604 322.576 265.633 319.949V319.897C265.604 317.27 264.666 315.979 263.376 314.33C261.826 312.35 259.897 309.803 259.897 305.198C259.897 300.592 261.826 298.126 263.376 296.146C264.686 294.472 265.633 293.261 265.633 290.536C265.633 287.812 264.686 286.601 263.376 284.926C261.826 282.944 259.897 280.481 259.897 275.874C259.897 274.669 260.029 273.611 260.252 272.67L260.22 38.2285H236.246Z" stroke="#757EB3" stroke-miterlimit="22.9256"/>
<path fill-rule="evenodd" clip-rule="evenodd" d="M270.083 247.517H260.287V38.0019H270.083V247.517Z" fill="#FFEC08"/>
<path d="M270.083 247.517H260.287V38.0019H270.083V247.517Z" stroke="#757EB3" stroke-miterlimit="22.9256"/>
<path fill-rule="evenodd" clip-rule="evenodd" d="M270.083 247.517H260.287V271.492H270.083V247.517Z" fill="#E3000F"/>
<path d="M270.083 247.517H260.287V271.492H270.083V247.517Z" stroke="#757EB3" stroke-miterlimit="22.9256"/>
<path fill-rule="evenodd" clip-rule="evenodd" d="M236.247 543.473H226.451V37.9998H236.247V543.473Z" fill="#FFEC08"/>
<path d="M236.247 543.473H226.451V37.9998H236.247V543.473Z" stroke="#757EB3" stroke-miterlimit="22.9256"/>
<path fill-rule="evenodd" clip-rule="evenodd" d="M236.247 542.293H226.451V633.006H236.247V542.293Z" fill="#00963F"/>
<path d="M236.247 542.293H226.451V633.006H236.247V542.293Z" stroke="#757EB3" stroke-miterlimit="22.9256"/>
<path d="M0.975586 19.0508L102.636 75.554" stroke="#454D7D" stroke-width="2" stroke-miterlimit="22.9256"/>
<path d="M35.2744 425.861L136.935 482.365" stroke="#454D7D" stroke-width="2" stroke-miterlimit="22.9256"/>
</svg>
