<svg width="550" height="1155" viewBox="0 0 550 1155" fill="none" xmlns="http://www.w3.org/2000/svg">
<path d="M463 24.4893L549.363 0.999551" stroke="#454D7D" stroke-width="2" stroke-miterlimit="22.9256"/>
<path d="M397 289.679L483.363 266.189" stroke="#454D7D" stroke-width="2" stroke-miterlimit="22.9256"/>
<path d="M333 804.679L419.363 781.189" stroke="#454D7D" stroke-width="2" stroke-miterlimit="22.9256"/>
<path d="M429 119.679L515.363 96.189" stroke="#454D7D" stroke-width="2" stroke-miterlimit="22.9256"/>
<path fill-rule="evenodd" clip-rule="evenodd" d="M204.934 19.0314V485.439V487.944V550.666V613.809V778.628V781.133V906.998H178.812C180.081 905.233 181.283 902.968 181.283 899.269V899.255C181.283 894.571 179.354 892.186 177.804 890.203C176.495 888.529 175.547 887.318 175.547 884.593C175.547 881.866 176.495 880.657 177.804 878.981C179.354 877 181.283 874.536 181.283 869.93C181.283 865.323 179.354 862.86 177.804 860.878C176.495 859.203 175.547 857.993 175.547 855.268C175.547 852.544 176.495 851.333 177.804 849.658C179.354 847.679 181.283 845.212 181.283 840.607C181.283 836.002 179.354 833.454 177.804 831.474C176.514 829.826 175.576 828.534 175.547 825.907V825.855C175.576 823.228 176.514 821.937 177.804 820.288C179.354 818.308 181.283 815.761 181.283 811.156C181.283 806.55 179.354 804.084 177.804 802.104C176.495 800.429 175.547 799.219 175.547 796.494C175.547 793.77 176.495 792.559 177.804 790.884C182.915 784.35 182.178 781.265 177.804 775.674C176.495 773.999 175.547 772.789 175.547 770.064C175.547 767.34 176.495 766.13 177.804 764.454C179.354 762.475 181.283 760.008 181.283 755.402C181.283 750.798 179.354 748.25 177.804 746.27C176.514 744.622 175.576 743.33 175.547 740.703V740.651C175.576 738.025 176.514 736.733 177.804 735.085C179.354 733.104 181.283 730.556 181.283 725.951C181.283 721.346 179.354 718.88 177.804 716.901C176.495 715.225 175.547 714.015 175.547 711.291C175.547 708.565 176.495 707.356 177.804 705.681C179.354 703.699 181.283 701.235 181.283 696.629C181.283 692.022 179.354 689.558 177.804 687.577C176.495 685.902 175.547 684.692 175.547 681.966C175.547 679.24 176.495 678.03 177.804 676.356C179.354 674.373 181.283 671.988 181.283 667.304V667.289C181.283 662.605 179.354 660.22 177.804 658.238C176.495 656.564 175.547 655.353 175.547 652.627C175.547 649.901 176.495 648.692 177.804 647.016C179.354 645.035 181.283 642.571 181.283 637.965C181.283 633.358 179.354 630.895 177.804 628.913C176.495 627.237 175.547 626.028 175.547 623.302C175.547 620.578 176.495 619.368 177.804 617.692C178.64 616.626 179.585 615.417 180.279 613.809H178.812C179.926 612.259 180.989 610.322 181.231 607.368C180.915 603.551 179.205 601.298 177.804 599.509C176.514 597.861 175.576 596.569 175.547 593.941V593.89C175.552 593.462 175.58 593.07 175.631 592.706C175.575 592.312 175.547 591.881 175.547 591.403C175.547 588.677 176.495 587.468 177.804 585.792C179.211 583.994 180.929 581.799 181.235 577.966C180.929 574.132 179.211 571.935 177.804 570.139C176.495 568.464 175.547 567.253 175.547 564.529C175.547 564.083 175.572 563.678 175.62 563.304C175.572 562.93 175.547 562.525 175.547 562.079C175.547 559.354 176.495 558.144 177.804 556.468C178.968 554.983 180.344 553.224 180.959 550.492L180.929 546.662C181.073 547.27 181.179 547.927 181.236 548.64C181.267 548.25 181.283 547.843 181.283 547.418C181.283 542.812 179.354 540.265 177.804 538.285C176.514 536.637 175.576 535.345 175.547 532.718V532.666C175.576 530.039 176.514 528.748 177.804 527.099C179.354 525.119 181.283 522.571 181.283 517.967C181.283 513.361 179.354 510.894 177.804 508.915C176.495 507.24 175.547 506.029 175.547 503.305C175.547 500.581 176.495 499.37 177.804 497.695C182.915 491.161 182.178 488.076 177.804 482.485C176.495 480.81 175.547 479.6 175.547 476.875C175.547 474.151 176.495 472.94 177.804 471.265C179.354 469.286 181.283 466.818 181.283 462.213C181.283 457.609 179.354 455.061 177.804 453.08C176.514 451.433 175.576 450.141 175.547 447.514V447.462C175.576 444.835 176.514 443.544 177.804 441.896C179.354 439.915 181.283 437.367 181.283 432.762C181.283 428.157 179.354 425.691 177.804 423.711C176.495 422.036 175.547 420.826 175.547 418.101C175.547 415.376 176.495 414.166 177.804 412.491C179.354 410.51 181.283 408.046 181.283 403.44C181.283 398.833 179.354 396.369 177.804 394.388C176.495 392.713 175.547 391.503 175.547 388.776C175.547 386.051 176.495 384.84 177.804 383.166C179.354 381.184 181.283 378.799 181.283 374.115V374.1C181.283 369.416 179.354 367.031 177.804 365.049C176.495 363.375 175.547 362.164 175.547 359.438C175.547 356.711 176.495 355.502 177.804 353.827C179.354 351.845 181.283 349.382 181.283 344.775C181.283 340.168 179.354 337.705 177.804 335.724C176.495 334.048 175.547 332.839 175.547 330.113C175.547 327.389 176.495 326.178 177.804 324.503C179.354 322.524 181.283 320.058 181.283 315.452C181.283 310.847 179.354 308.3 177.804 306.319C176.514 304.672 175.576 303.38 175.547 300.752V300.7C175.576 298.073 176.514 296.782 177.804 295.133C179.354 293.153 181.283 290.606 181.283 286.001C181.283 281.395 179.354 278.929 177.804 276.95C176.495 275.275 175.547 274.064 175.547 271.34C175.547 268.615 176.495 267.404 177.804 265.729C179.354 263.747 181.283 261.284 181.283 256.677C181.283 255.473 181.151 254.415 180.929 253.473L180.96 19.0314H204.934Z" fill="#E6E6E6"/>
<path d="M204.934 19.0315V485.439V487.944V550.666V613.809V778.628V781.133V906.998H178.812C180.081 905.233 181.283 902.968 181.283 899.269V899.255C181.283 894.571 179.354 892.186 177.804 890.203C176.495 888.529 175.547 887.318 175.547 884.593C175.547 881.866 176.495 880.657 177.804 878.981C179.354 877 181.283 874.536 181.283 869.93C181.283 865.323 179.354 862.86 177.804 860.878C176.495 859.203 175.547 857.993 175.547 855.268C175.547 852.544 176.495 851.333 177.804 849.658C179.354 847.679 181.283 845.212 181.283 840.607C181.283 836.002 179.354 833.454 177.804 831.474C176.514 829.826 175.576 828.534 175.547 825.907V825.855C175.576 823.228 176.514 821.937 177.804 820.288C179.354 818.308 181.283 815.761 181.283 811.156C181.283 806.55 179.354 804.084 177.804 802.104C176.495 800.429 175.547 799.219 175.547 796.494C175.547 793.77 176.495 792.559 177.804 790.884C182.915 784.35 182.178 781.265 177.804 775.674C176.495 773.999 175.547 772.789 175.547 770.064C175.547 767.34 176.495 766.13 177.804 764.454C179.354 762.475 181.283 760.008 181.283 755.402C181.283 750.798 179.354 748.25 177.804 746.27C176.514 744.622 175.576 743.33 175.547 740.703V740.651C175.576 738.025 176.514 736.733 177.804 735.085C179.354 733.104 181.283 730.556 181.283 725.951C181.283 721.346 179.354 718.88 177.804 716.901C176.495 715.225 175.547 714.015 175.547 711.291C175.547 708.565 176.495 707.356 177.804 705.681C179.354 703.699 181.283 701.235 181.283 696.629C181.283 692.022 179.354 689.558 177.804 687.577C176.495 685.902 175.547 684.692 175.547 681.966C175.547 679.24 176.495 678.03 177.804 676.356C179.354 674.373 181.283 671.988 181.283 667.304V667.289C181.283 662.605 179.354 660.22 177.804 658.238C176.495 656.564 175.547 655.353 175.547 652.627C175.547 649.901 176.495 648.692 177.804 647.016C179.354 645.035 181.283 642.571 181.283 637.965C181.283 633.358 179.354 630.895 177.804 628.913C176.495 627.237 175.547 626.028 175.547 623.302C175.547 620.578 176.495 619.368 177.804 617.692C178.64 616.626 179.585 615.417 180.279 613.809H178.812C179.926 612.259 180.989 610.322 181.231 607.368C180.915 603.551 179.205 601.298 177.804 599.509C176.514 597.861 175.576 596.569 175.547 593.941V593.89C175.552 593.462 175.58 593.07 175.631 592.706C175.575 592.312 175.547 591.881 175.547 591.403C175.547 588.677 176.495 587.468 177.804 585.792C179.211 583.994 180.929 581.799 181.235 577.966C180.929 574.132 179.211 571.935 177.804 570.139C176.495 568.464 175.547 567.253 175.547 564.529C175.547 564.083 175.572 563.678 175.62 563.304C175.572 562.93 175.547 562.525 175.547 562.079C175.547 559.354 176.495 558.144 177.804 556.468C178.968 554.983 180.344 553.224 180.959 550.492L180.929 546.662C181.073 547.27 181.179 547.927 181.236 548.64C181.267 548.25 181.283 547.843 181.283 547.418C181.283 542.812 179.354 540.265 177.804 538.285C176.514 536.637 175.576 535.345 175.547 532.718V532.666C175.576 530.039 176.514 528.748 177.804 527.099C179.354 525.119 181.283 522.571 181.283 517.967C181.283 513.361 179.354 510.894 177.804 508.915C176.495 507.24 175.547 506.029 175.547 503.305C175.547 500.58 176.495 499.37 177.804 497.695C182.915 491.161 182.178 488.076 177.804 482.485C176.495 480.81 175.547 479.6 175.547 476.875C175.547 474.151 176.495 472.94 177.804 471.265C179.354 469.286 181.283 466.818 181.283 462.213C181.283 457.609 179.354 455.061 177.804 453.08C176.514 451.433 175.576 450.141 175.547 447.514V447.462C175.576 444.835 176.514 443.544 177.804 441.896C179.354 439.915 181.283 437.367 181.283 432.762C181.283 428.157 179.354 425.691 177.804 423.711C176.495 422.036 175.547 420.826 175.547 418.101C175.547 415.376 176.495 414.166 177.804 412.491C179.354 410.51 181.283 408.046 181.283 403.44C181.283 398.833 179.354 396.369 177.804 394.388C176.495 392.713 175.547 391.503 175.547 388.776C175.547 386.051 176.495 384.84 177.804 383.166C179.354 381.184 181.283 378.799 181.283 374.115V374.1C181.283 369.416 179.354 367.031 177.804 365.049C176.495 363.375 175.547 362.164 175.547 359.438C175.547 356.711 176.495 355.502 177.804 353.827C179.354 351.845 181.283 349.382 181.283 344.775C181.283 340.168 179.354 337.705 177.804 335.724C176.495 334.048 175.547 332.839 175.547 330.113C175.547 327.389 176.495 326.178 177.804 324.503C179.354 322.524 181.283 320.058 181.283 315.452C181.283 310.847 179.354 308.3 177.804 306.319C176.514 304.672 175.576 303.38 175.547 300.752V300.7C175.576 298.073 176.514 296.782 177.804 295.133C179.354 293.153 181.283 290.606 181.283 286.001C181.283 281.395 179.354 278.929 177.804 276.95C176.495 275.275 175.547 274.064 175.547 271.34C175.547 268.615 176.495 267.404 177.804 265.729C179.354 263.747 181.283 261.284 181.283 256.677C181.283 255.473 181.151 254.415 180.929 253.473L180.96 19.0315H204.934Z" stroke="#757EB3" stroke-miterlimit="22.9256"/>
<path fill-rule="evenodd" clip-rule="evenodd" d="M205.506 907.026H215.302V19.0298H205.506V907.026Z" fill="#FFEC08"/>
<path d="M205.506 907.026H215.302V19.0299H205.506V907.026Z" stroke="#757EB3" stroke-miterlimit="22.9256"/>
<path fill-rule="evenodd" clip-rule="evenodd" d="M171.988 666.547H181.784V19.0283H171.988V666.547Z" fill="#FFEC08"/>
<path d="M171.988 666.547H181.784V19.0283H171.988V666.547Z" stroke="#757EB3" stroke-miterlimit="22.9256"/>
<path fill-rule="evenodd" clip-rule="evenodd" d="M171.988 666.551H181.784V717.091H171.988V666.551Z" fill="#00963F"/>
<path d="M171.988 666.551H181.784V717.091H171.988V666.551Z" stroke="#757EB3" stroke-miterlimit="22.9256"/>
<path fill-rule="evenodd" clip-rule="evenodd" d="M171.969 19.0325V295.531V298.037V360.758V423.902V588.721V591.226V717.091H145.847C147.116 715.326 148.318 713.06 148.318 709.362V709.347C148.318 704.663 146.39 702.278 144.839 700.296C143.53 698.622 142.582 697.411 142.582 694.686C142.582 691.959 143.53 690.75 144.839 689.074C146.39 687.093 148.318 684.629 148.318 680.023C148.318 675.416 146.39 672.953 144.839 670.971C143.53 669.295 142.582 668.086 142.582 665.36C142.582 662.636 143.53 661.426 144.839 659.75C146.39 657.771 148.318 655.305 148.318 650.7C148.318 646.094 146.39 643.547 144.839 641.567C143.549 639.919 142.611 638.627 142.582 636V635.948C142.611 633.321 143.549 632.03 144.839 630.381C146.39 628.401 148.318 625.853 148.318 621.249C148.318 616.643 146.39 614.176 144.839 612.197C143.53 610.522 142.582 609.311 142.582 606.587C142.582 603.862 143.53 602.652 144.839 600.977C149.95 594.443 149.213 591.358 144.839 585.767C143.53 584.092 142.582 582.881 142.582 580.157C142.582 577.432 143.53 576.222 144.839 574.547C146.39 572.568 148.318 570.1 148.318 565.495C148.318 560.891 146.39 558.343 144.839 556.362C143.549 554.715 142.611 553.423 142.582 550.796V550.744C142.611 548.117 143.549 546.826 144.839 545.178C146.39 543.197 148.318 540.649 148.318 536.044C148.318 531.439 146.39 528.973 144.839 526.993C143.53 525.318 142.582 524.108 142.582 521.383C142.582 518.658 143.53 517.448 144.839 515.773C146.39 513.792 148.318 511.328 148.318 506.721C148.318 502.115 146.39 499.651 144.839 497.67C143.53 495.995 142.582 494.785 142.582 492.058C142.582 489.333 143.53 488.122 144.839 486.448C146.39 484.466 148.318 482.081 148.318 477.397V477.382C148.318 472.698 146.39 470.313 144.839 468.331C143.53 466.657 142.582 465.446 142.582 462.72C142.582 459.993 143.53 458.784 144.839 457.108C146.39 455.127 148.318 452.664 148.318 448.057C148.318 443.45 146.39 440.987 144.839 439.006C143.53 437.33 142.582 436.121 142.582 433.395C142.582 430.671 143.53 429.46 144.839 427.785C145.675 426.718 146.62 425.51 147.314 423.902H145.847C146.962 422.351 148.024 420.415 148.266 417.461C147.95 413.644 146.24 411.391 144.839 409.601C143.549 407.953 142.611 406.661 142.582 404.034V403.982C142.587 403.555 142.615 403.163 142.666 402.799C142.61 402.404 142.582 401.973 142.582 401.496C142.582 398.77 143.53 397.56 144.839 395.885C146.246 394.087 147.964 391.892 148.27 388.058C147.964 384.225 146.246 382.028 144.839 380.232C143.53 378.557 142.582 377.346 142.582 374.622C142.582 374.176 142.607 373.77 142.655 373.397C142.607 373.023 142.582 372.617 142.582 372.171C142.582 369.447 143.53 368.236 144.839 366.561C146.003 365.076 147.379 363.317 147.994 360.584L147.964 356.755C148.108 357.363 148.214 358.02 148.271 358.733C148.302 358.342 148.318 357.936 148.318 357.51C148.318 352.905 146.39 350.358 144.839 348.377C143.549 346.73 142.611 345.438 142.582 342.811V342.758C142.611 340.131 143.549 338.84 144.839 337.192C146.39 335.211 148.318 332.664 148.318 328.06C148.318 323.454 146.39 320.987 144.839 319.008C143.53 317.333 142.582 316.122 142.582 313.398C142.582 310.673 143.53 309.462 144.839 307.787C149.95 301.254 149.213 298.168 144.839 292.578C143.53 290.903 142.582 289.692 142.582 286.968C142.582 284.243 143.53 283.033 144.839 281.357C146.39 279.378 148.318 276.911 148.318 272.306C148.318 267.702 146.39 265.154 144.839 263.173C143.549 261.525 142.611 260.234 142.582 257.607V257.555C142.611 254.928 143.549 253.637 144.839 251.988C146.39 250.008 148.318 247.459 148.318 242.855C148.318 238.249 146.39 235.784 144.839 233.804C143.53 232.129 142.582 230.918 142.582 228.194C142.582 225.468 143.53 224.259 144.839 222.584C146.39 220.602 148.318 218.139 148.318 213.532C148.318 208.926 146.39 206.462 144.839 204.481C143.53 202.805 142.582 201.596 142.582 198.869C142.582 196.144 143.53 194.933 144.839 193.259C146.39 191.276 148.318 188.892 148.318 184.207V184.193C148.318 179.509 146.39 177.124 144.839 175.141C143.53 173.467 142.582 172.256 142.582 169.531C142.582 166.804 143.53 165.595 144.839 163.919C146.39 161.938 148.318 159.474 148.318 154.868C148.318 150.261 146.39 147.798 144.839 145.816C143.53 144.141 142.582 142.932 142.582 140.206C142.582 137.482 143.53 136.271 144.839 134.596C146.39 132.617 148.318 130.15 148.318 125.545C148.318 120.94 146.39 118.392 144.839 116.412C143.549 114.764 142.611 113.472 142.582 110.845V110.793C142.611 108.166 143.549 106.875 144.839 105.226C146.39 103.246 148.318 100.698 148.318 96.0939C148.318 91.4882 146.39 89.0215 144.839 87.0423C143.53 85.3673 142.582 84.1566 142.582 81.4323C142.582 78.7076 143.53 77.4969 144.839 75.8218C146.39 73.8401 148.318 71.3762 148.318 66.7701C148.318 65.5649 148.187 64.5071 147.964 63.5658L147.97 19.0325H171.969Z" fill="#CCCCCC"/>
<path d="M171.969 19.0325V295.531V298.037V360.758V423.902V588.721V591.226V717.091H145.847C147.116 715.326 148.318 713.06 148.318 709.362V709.347C148.318 704.663 146.39 702.278 144.839 700.296C143.53 698.622 142.582 697.411 142.582 694.686C142.582 691.959 143.53 690.75 144.839 689.074C146.39 687.093 148.318 684.629 148.318 680.023C148.318 675.416 146.39 672.953 144.839 670.971C143.53 669.295 142.582 668.086 142.582 665.36C142.582 662.636 143.53 661.426 144.839 659.75C146.39 657.771 148.318 655.305 148.318 650.7C148.318 646.094 146.39 643.547 144.839 641.567C143.549 639.919 142.611 638.627 142.582 636V635.948C142.611 633.321 143.549 632.03 144.839 630.381C146.39 628.401 148.318 625.853 148.318 621.249C148.318 616.643 146.39 614.176 144.839 612.197C143.53 610.522 142.582 609.311 142.582 606.587C142.582 603.862 143.53 602.652 144.839 600.977C149.95 594.443 149.213 591.358 144.839 585.767C143.53 584.092 142.582 582.881 142.582 580.157C142.582 577.432 143.53 576.222 144.839 574.547C146.39 572.568 148.318 570.1 148.318 565.495C148.318 560.891 146.39 558.343 144.839 556.362C143.549 554.715 142.611 553.423 142.582 550.796V550.744C142.611 548.117 143.549 546.826 144.839 545.178C146.39 543.197 148.318 540.649 148.318 536.044C148.318 531.439 146.39 528.973 144.839 526.993C143.53 525.318 142.582 524.108 142.582 521.383C142.582 518.658 143.53 517.448 144.839 515.773C146.39 513.791 148.318 511.328 148.318 506.721C148.318 502.115 146.39 499.651 144.839 497.67C143.53 495.995 142.582 494.785 142.582 492.058C142.582 489.333 143.53 488.122 144.839 486.448C146.39 484.466 148.318 482.081 148.318 477.397V477.382C148.318 472.698 146.39 470.313 144.839 468.331C143.53 466.657 142.582 465.446 142.582 462.72C142.582 459.993 143.53 458.784 144.839 457.108C146.39 455.127 148.318 452.664 148.318 448.057C148.318 443.45 146.39 440.987 144.839 439.006C143.53 437.33 142.582 436.121 142.582 433.395C142.582 430.671 143.53 429.46 144.839 427.785C145.675 426.718 146.62 425.51 147.314 423.902H145.847C146.962 422.351 148.024 420.415 148.266 417.461C147.95 413.644 146.24 411.391 144.839 409.601C143.549 407.953 142.611 406.661 142.582 404.034V403.982C142.587 403.555 142.615 403.163 142.666 402.799C142.61 402.404 142.582 401.973 142.582 401.496C142.582 398.77 143.53 397.56 144.839 395.885C146.246 394.087 147.964 391.892 148.27 388.058C147.964 384.225 146.246 382.028 144.839 380.232C143.53 378.557 142.582 377.346 142.582 374.622C142.582 374.176 142.607 373.77 142.655 373.397C142.607 373.023 142.582 372.617 142.582 372.171C142.582 369.447 143.53 368.236 144.839 366.561C146.003 365.076 147.379 363.317 147.994 360.584L147.964 356.755C148.108 357.363 148.214 358.02 148.271 358.733C148.302 358.342 148.318 357.936 148.318 357.51C148.318 352.905 146.39 350.358 144.839 348.377C143.549 346.73 142.611 345.438 142.582 342.811V342.758C142.611 340.131 143.549 338.84 144.839 337.192C146.39 335.211 148.318 332.664 148.318 328.06C148.318 323.454 146.39 320.987 144.839 319.008C143.53 317.333 142.582 316.122 142.582 313.398C142.582 310.673 143.53 309.462 144.839 307.787C149.95 301.254 149.213 298.168 144.839 292.578C143.53 290.903 142.582 289.692 142.582 286.968C142.582 284.243 143.53 283.033 144.839 281.357C146.39 279.378 148.318 276.911 148.318 272.306C148.318 267.702 146.39 265.154 144.839 263.173C143.549 261.525 142.611 260.234 142.582 257.607V257.555C142.611 254.928 143.549 253.637 144.839 251.988C146.39 250.008 148.318 247.459 148.318 242.855C148.318 238.249 146.39 235.784 144.839 233.804C143.53 232.129 142.582 230.918 142.582 228.194C142.582 225.468 143.53 224.259 144.839 222.584C146.39 220.602 148.318 218.139 148.318 213.532C148.318 208.926 146.39 206.462 144.839 204.481C143.53 202.805 142.582 201.596 142.582 198.869C142.582 196.144 143.53 194.933 144.839 193.259C146.39 191.276 148.318 188.892 148.318 184.207V184.193C148.318 179.509 146.39 177.124 144.839 175.141C143.53 173.467 142.582 172.256 142.582 169.531C142.582 166.804 143.53 165.595 144.839 163.919C146.39 161.938 148.318 159.474 148.318 154.868C148.318 150.261 146.39 147.798 144.839 145.816C143.53 144.141 142.582 142.932 142.582 140.206C142.582 137.482 143.53 136.271 144.839 134.596C146.39 132.616 148.318 130.15 148.318 125.545C148.318 120.94 146.39 118.392 144.839 116.412C143.549 114.764 142.611 113.472 142.582 110.845V110.793C142.611 108.166 143.549 106.875 144.839 105.226C146.39 103.246 148.318 100.699 148.318 96.0939C148.318 91.4882 146.39 89.0216 144.839 87.0423C143.53 85.3673 142.582 84.1566 142.582 81.4322C142.582 78.7076 143.53 77.4969 144.839 75.8218C146.39 73.8401 148.318 71.3763 148.318 66.7701C148.318 65.5649 148.187 64.5072 147.964 63.5658L147.97 19.0325H171.969Z" stroke="#757EB3" stroke-miterlimit="22.9256"/>
<path fill-rule="evenodd" clip-rule="evenodd" d="M143.169 354.308H152.965V19.0315H143.169V354.308Z" fill="#FFEC08"/>
<path d="M143.169 354.308H152.965V19.0315H143.169V354.308Z" stroke="#757EB3" stroke-miterlimit="22.9256"/>
<path fill-rule="evenodd" clip-rule="evenodd" d="M143.169 354.307H152.965V380.476H143.169V354.307Z" fill="#E3000F"/>
<path d="M143.169 354.307H152.965V380.476H143.169V354.307Z" stroke="#757EB3" stroke-miterlimit="22.9256"/>
<path fill-rule="evenodd" clip-rule="evenodd" d="M143.169 19.0306V24.1431V87.2863V252.106V254.611V380.476H117.046C118.315 378.71 119.518 376.445 119.518 372.747V372.732C119.518 368.048 117.589 365.663 116.039 363.681C114.729 362.007 113.781 360.796 113.781 358.07C113.781 355.344 114.729 354.134 116.039 352.459C117.589 350.478 119.518 348.014 119.518 343.408C119.518 338.801 117.589 336.337 116.039 334.356C114.729 332.68 113.781 331.471 113.781 328.745C113.781 326.021 114.729 324.81 116.039 323.135C117.589 321.156 119.518 318.69 119.518 314.084C119.518 309.479 117.589 306.932 116.039 304.952C114.749 303.304 113.81 302.012 113.781 299.385V299.333C113.81 296.705 114.749 295.414 116.039 293.766C117.589 291.786 119.518 289.238 119.518 284.634C119.518 280.028 117.589 277.561 116.039 275.582C114.729 273.907 113.781 272.696 113.781 269.972C113.781 267.247 114.729 266.036 116.039 264.361C121.15 257.828 120.412 254.742 116.039 249.152C114.729 247.477 113.781 246.266 113.781 243.542C113.781 240.817 114.729 239.607 116.039 237.931C117.589 235.952 119.518 233.485 119.518 228.88C119.518 224.276 117.589 221.728 116.039 219.747C114.749 218.099 113.81 216.808 113.781 214.181V214.129C113.81 211.502 114.749 210.211 116.039 208.562C117.589 206.582 119.518 204.033 119.518 199.429C119.518 194.823 117.589 192.358 116.039 190.378C114.729 188.703 113.781 187.492 113.781 184.768C113.781 182.042 114.729 180.833 116.039 179.158C117.589 177.176 119.518 174.713 119.518 170.106C119.518 165.5 117.589 163.036 116.039 161.055C114.729 159.379 113.781 158.17 113.781 155.443C113.781 152.718 114.729 151.507 116.039 149.833C117.589 147.85 119.518 145.466 119.518 140.781V140.767C119.518 136.083 117.589 133.698 116.039 131.715C114.729 130.041 113.781 128.831 113.781 126.105C113.781 123.378 114.729 122.169 116.039 120.493C117.589 118.512 119.518 116.049 119.518 111.442C119.518 106.835 117.589 104.372 116.039 102.39C114.729 100.715 113.781 99.5055 113.781 96.7798C113.781 94.0555 114.729 92.8449 116.039 91.1698C116.874 90.103 117.819 88.8948 118.514 87.2863H117.046C118.161 85.7362 119.223 83.7996 119.466 80.8456C119.149 77.0286 117.439 74.7758 116.039 72.9859C114.749 71.3382 113.81 70.0465 113.781 67.4191V67.3672C113.786 66.9395 113.815 66.5478 113.865 66.1839C113.81 65.7891 113.781 65.3579 113.781 64.8809C113.781 62.1541 114.729 60.9451 116.039 59.2696C117.445 57.4714 119.164 55.2767 119.47 51.4431C119.164 47.6095 117.445 45.4124 116.039 43.6165C114.729 41.9414 113.781 40.7306 113.781 38.0063C113.781 37.5601 113.807 37.1552 113.855 36.7814C113.807 36.4077 113.781 36.002 113.781 35.556C113.781 32.8317 114.729 31.6211 116.039 29.9461C117.202 28.4605 118.578 26.7016 119.193 23.9693C119.183 22.6458 119.153 18.1324 119.47 22.1178C119.501 21.7272 119.518 21.3209 119.518 20.8951C119.518 20.2325 119.477 19.6122 119.404 19.0306H143.169Z" fill="#CCCCCC"/>
<path d="M143.169 19.0306V24.1431V87.2863V252.106V254.611V380.476H117.046C118.315 378.71 119.518 376.445 119.518 372.747V372.732C119.518 368.048 117.589 365.663 116.039 363.681C114.729 362.007 113.781 360.796 113.781 358.07C113.781 355.344 114.729 354.134 116.039 352.459C117.589 350.478 119.518 348.014 119.518 343.408C119.518 338.801 117.589 336.337 116.039 334.356C114.729 332.68 113.781 331.471 113.781 328.745C113.781 326.021 114.729 324.81 116.039 323.135C117.589 321.156 119.518 318.69 119.518 314.084C119.518 309.479 117.589 306.932 116.039 304.952C114.749 303.304 113.81 302.012 113.781 299.385V299.333C113.81 296.705 114.749 295.414 116.039 293.766C117.589 291.786 119.518 289.238 119.518 284.634C119.518 280.028 117.589 277.561 116.039 275.582C114.729 273.907 113.781 272.696 113.781 269.972C113.781 267.247 114.729 266.036 116.039 264.361C121.15 257.828 120.412 254.742 116.039 249.152C114.729 247.477 113.781 246.266 113.781 243.542C113.781 240.817 114.729 239.607 116.039 237.931C117.589 235.952 119.518 233.485 119.518 228.88C119.518 224.276 117.589 221.728 116.039 219.747C114.749 218.099 113.81 216.808 113.781 214.181V214.129C113.81 211.502 114.749 210.211 116.039 208.562C117.589 206.582 119.518 204.033 119.518 199.429C119.518 194.823 117.589 192.358 116.039 190.378C114.729 188.703 113.781 187.492 113.781 184.768C113.781 182.042 114.729 180.833 116.039 179.158C117.589 177.176 119.518 174.713 119.518 170.106C119.518 165.5 117.589 163.036 116.039 161.055C114.729 159.379 113.781 158.17 113.781 155.443C113.781 152.718 114.729 151.507 116.039 149.833C117.589 147.85 119.518 145.466 119.518 140.781V140.767C119.518 136.083 117.589 133.698 116.039 131.715C114.729 130.041 113.781 128.831 113.781 126.105C113.781 123.378 114.729 122.169 116.039 120.493C117.589 118.512 119.518 116.049 119.518 111.442C119.518 106.835 117.589 104.372 116.039 102.39C114.729 100.715 113.781 99.5055 113.781 96.7798C113.781 94.0555 114.729 92.8449 116.039 91.1698C116.874 90.103 117.819 88.8948 118.514 87.2863H117.046C118.161 85.7362 119.223 83.7996 119.466 80.8456C119.149 77.0286 117.439 74.7758 116.039 72.9859C114.749 71.3382 113.81 70.0465 113.781 67.4191V67.3672C113.786 66.9396 113.815 66.5478 113.865 66.1839C113.81 65.7891 113.781 65.3579 113.781 64.8809C113.781 62.1541 114.729 60.9451 116.039 59.2695C117.445 57.4714 119.164 55.2767 119.47 51.4431C119.164 47.6095 117.445 45.4125 116.039 43.6165C114.729 41.9414 113.781 40.7306 113.781 38.0063C113.781 37.5601 113.807 37.1552 113.855 36.7814C113.807 36.4077 113.781 36.002 113.781 35.556C113.781 32.8317 114.729 31.6211 116.039 29.9461C117.202 28.4605 118.578 26.7016 119.193 23.9693C119.183 22.6458 119.153 18.1324 119.47 22.1178C119.501 21.7272 119.518 21.3209 119.518 20.8951C119.518 20.2325 119.477 19.6122 119.404 19.0306H143.169Z" stroke="#757EB3" stroke-miterlimit="22.9256"/>
<path fill-rule="evenodd" clip-rule="evenodd" d="M113.15 144.446H122.946V19.028H113.15V144.446Z" fill="#FFEC08"/>
<path d="M113.15 144.446H122.946V19.028H113.15V144.446Z" stroke="#757EB3" stroke-miterlimit="22.9256"/>
<path fill-rule="evenodd" clip-rule="evenodd" d="M113.15 144.449H122.946V170.618H113.15V144.449Z" fill="#E3000F"/>
<path d="M113.15 144.449H122.946V170.618H113.15V144.449Z" stroke="#757EB3" stroke-miterlimit="22.9256"/>
<path fill-rule="evenodd" clip-rule="evenodd" d="M113.15 19.031V42.2481V44.7532V170.618H87.0277C88.2966 168.853 89.499 166.588 89.499 162.889V162.875C89.499 158.191 87.5704 155.805 86.0201 153.823C84.7104 152.149 83.7627 150.939 83.7627 148.213C83.7627 145.486 84.7104 144.277 86.0201 142.601C87.5704 140.62 89.499 138.157 89.499 133.55C89.499 128.943 87.5704 126.48 86.0201 124.498C84.7104 122.823 83.7627 121.614 83.7627 118.888C83.7627 116.164 84.7104 114.953 86.0201 113.278C87.5704 111.299 89.499 108.833 89.499 104.227C89.499 99.6216 87.5704 97.0741 86.0201 95.0939C84.7301 93.4464 83.7916 92.1543 83.7627 89.5271V89.4752C83.7916 86.848 84.7301 85.5569 86.0201 83.9082C87.5704 81.9281 89.499 79.3808 89.499 74.7762C89.499 70.1703 87.5704 67.7036 86.0201 65.7244C84.7104 64.0494 83.7627 62.8388 83.7627 60.1143C83.7627 57.3898 84.7104 56.1788 86.0201 54.5038C91.1312 47.9701 90.3935 44.8851 86.0201 39.2946C84.7104 37.6196 83.7627 36.4087 83.7627 33.6845C83.7627 30.9599 84.7104 29.7497 86.0201 28.074C87.5693 26.0961 89.4966 23.6304 89.499 19.031H113.15Z" fill="#CCCCCC"/>
<path d="M113.15 19.031V42.2481V44.7532V170.618H87.0277C88.2966 168.853 89.499 166.588 89.499 162.889V162.875C89.499 158.191 87.5704 155.805 86.0201 153.823C84.7104 152.149 83.7627 150.939 83.7627 148.213C83.7627 145.486 84.7104 144.277 86.0201 142.601C87.5704 140.62 89.499 138.157 89.499 133.55C89.499 128.943 87.5704 126.48 86.0201 124.498C84.7104 122.823 83.7627 121.614 83.7627 118.888C83.7627 116.164 84.7104 114.953 86.0201 113.278C87.5704 111.299 89.499 108.833 89.499 104.227C89.499 99.6216 87.5704 97.0741 86.0201 95.0939C84.7301 93.4464 83.7916 92.1543 83.7627 89.5271V89.4752C83.7916 86.848 84.7301 85.5569 86.0201 83.9082C87.5704 81.9281 89.499 79.3808 89.499 74.7762C89.499 70.1703 87.5704 67.7036 86.0201 65.7244C84.7104 64.0494 83.7627 62.8388 83.7627 60.1143C83.7627 57.3898 84.7104 56.1788 86.0201 54.5038C91.1312 47.9701 90.3935 44.8851 86.0201 39.2946C84.7104 37.6196 83.7627 36.4087 83.7627 33.6845C83.7627 30.9599 84.7104 29.7497 86.0201 28.074C87.5693 26.0962 89.4966 23.6304 89.499 19.031H113.15Z" stroke="#757EB3" stroke-miterlimit="22.9256"/>
<path fill-rule="evenodd" clip-rule="evenodd" d="M113.15 19.0303H122.946V45.1992H113.15V19.0303Z" fill="#00963F"/>
<path d="M113.15 19.0303H122.946V45.1992H113.15V19.0303Z" stroke="#757EB3" stroke-miterlimit="22.9256"/>
<path fill-rule="evenodd" clip-rule="evenodd" d="M81.3867 19.0303H91.1825V45.1992H81.3867V19.0303Z" fill="#E3000F"/>
<path d="M81.3867 19.0303H91.1825V45.1992H81.3867V19.0303Z" stroke="#757EB3" stroke-miterlimit="22.9256"/>
<path fill-rule="evenodd" clip-rule="evenodd" d="M81.3872 19.0299V45.1992H55.2649C56.5341 43.434 57.7365 41.1689 57.7365 37.4705V37.4557C57.7365 32.772 55.8077 30.3867 54.2574 28.4045C52.9479 26.7304 52 25.5197 52 22.794C52 21.1204 52.3571 20.0193 52.9356 19.0299H81.3872Z" fill="#CCCCCC"/>
<path d="M81.3872 19.0299V45.1992H55.2649C56.5341 43.434 57.7365 41.1689 57.7365 37.4705V37.4557C57.7365 32.772 55.8077 30.3867 54.2574 28.4045C52.9479 26.7304 52 25.5197 52 22.794C52 21.1204 52.3571 20.0193 52.9356 19.0299H81.3872Z" stroke="#757EB3" stroke-miterlimit="22.9256"/>
<path fill-rule="evenodd" clip-rule="evenodd" d="M310.244 19.0314V485.439V487.944V550.666V613.809V778.628V781.133V906.998H336.366C335.098 905.233 333.895 902.968 333.895 899.269V899.255C333.895 894.571 335.824 892.186 337.374 890.203C338.684 888.529 339.631 887.318 339.631 884.593C339.631 881.866 338.684 880.657 337.374 878.981C335.824 877 333.895 874.536 333.895 869.93C333.895 865.323 335.824 862.86 337.374 860.878C338.684 859.203 339.631 857.993 339.631 855.268C339.631 852.544 338.684 851.333 337.374 849.658C335.824 847.679 333.895 845.212 333.895 840.607C333.895 836.002 335.824 833.454 337.374 831.474C338.664 829.826 339.603 828.534 339.631 825.907V825.855C339.603 823.228 338.664 821.937 337.374 820.288C335.824 818.308 333.895 815.761 333.895 811.156C333.895 806.55 335.824 804.084 337.374 802.104C338.684 800.429 339.631 799.219 339.631 796.494C339.631 793.77 338.684 792.559 337.374 790.884C332.263 784.35 333.001 781.265 337.374 775.674C338.684 773.999 339.631 772.789 339.631 770.064C339.631 767.34 338.684 766.13 337.374 764.454C335.824 762.475 333.895 760.008 333.895 755.402C333.895 750.798 335.824 748.25 337.374 746.27C338.664 744.622 339.603 743.33 339.631 740.703V740.651C339.603 738.025 338.664 736.733 337.374 735.085C335.824 733.104 333.895 730.556 333.895 725.951C333.895 721.346 335.824 718.88 337.374 716.901C338.684 715.225 339.631 714.015 339.631 711.291C339.631 708.565 338.684 707.356 337.374 705.681C335.824 703.699 333.895 701.235 333.895 696.629C333.895 692.022 335.824 689.558 337.374 687.577C338.684 685.902 339.631 684.692 339.631 681.966C339.631 679.24 338.684 678.03 337.374 676.356C335.824 674.373 333.895 671.988 333.895 667.304V667.289C333.895 662.605 335.824 660.22 337.374 658.238C338.684 656.564 339.631 655.353 339.631 652.627C339.631 649.901 338.684 648.692 337.374 647.016C335.824 645.035 333.895 642.571 333.895 637.965C333.895 633.358 335.824 630.895 337.374 628.913C338.684 627.237 339.631 626.028 339.631 623.302C339.631 620.578 338.684 619.368 337.374 617.692C336.538 616.626 335.594 615.417 334.899 613.809H336.366C335.252 612.259 334.189 610.322 333.947 607.368C334.263 603.551 335.973 601.298 337.374 599.509C338.664 597.861 339.603 596.569 339.631 593.941V593.89C339.626 593.462 339.598 593.07 339.548 592.706C339.603 592.312 339.631 591.881 339.631 591.403C339.631 588.677 338.684 587.468 337.374 585.792C335.967 583.994 334.249 581.799 333.943 577.966C334.249 574.132 335.967 571.935 337.374 570.139C338.684 568.464 339.631 567.253 339.631 564.529C339.631 564.083 339.606 563.678 339.558 563.304C339.606 562.93 339.631 562.525 339.631 562.079C339.631 559.354 338.684 558.144 337.374 556.468C336.211 554.983 334.834 553.224 334.22 550.492L334.25 546.662C334.106 547.27 333.999 547.927 333.942 548.64C333.912 548.25 333.895 547.843 333.895 547.418C333.895 542.812 335.824 540.265 337.374 538.285C338.664 536.637 339.603 535.345 339.631 532.718V532.666C339.603 530.039 338.664 528.748 337.374 527.099C335.824 525.119 333.895 522.571 333.895 517.967C333.895 513.361 335.824 510.894 337.374 508.915C338.684 507.24 339.631 506.029 339.631 503.305C339.631 500.581 338.684 499.37 337.374 497.695C332.263 491.161 333.001 488.076 337.374 482.485C338.684 480.81 339.631 479.6 339.631 476.875C339.631 474.151 338.684 472.94 337.374 471.265C335.824 469.286 333.895 466.818 333.895 462.213C333.895 457.609 335.824 455.061 337.374 453.08C338.664 451.433 339.603 450.141 339.631 447.514V447.462C339.603 444.835 338.664 443.544 337.374 441.896C335.824 439.915 333.895 437.367 333.895 432.762C333.895 428.157 335.824 425.691 337.374 423.711C338.684 422.036 339.631 420.826 339.631 418.101C339.631 415.376 338.684 414.166 337.374 412.491C335.824 410.51 333.895 408.046 333.895 403.44C333.895 398.833 335.824 396.369 337.374 394.388C338.684 392.713 339.631 391.503 339.631 388.776C339.631 386.051 338.684 384.84 337.374 383.166C335.824 381.184 333.895 378.799 333.895 374.115V374.1C333.895 369.416 335.824 367.031 337.374 365.049C338.684 363.375 339.631 362.164 339.631 359.438C339.631 356.711 338.684 355.502 337.374 353.827C335.824 351.845 333.895 349.382 333.895 344.775C333.895 340.168 335.824 337.705 337.374 335.724C338.684 334.048 339.631 332.839 339.631 330.113C339.631 327.389 338.684 326.178 337.374 324.503C335.824 322.524 333.895 320.058 333.895 315.452C333.895 310.847 335.824 308.3 337.374 306.319C338.664 304.672 339.603 303.38 339.631 300.752V300.7C339.603 298.073 338.664 296.782 337.374 295.133C335.824 293.153 333.895 290.606 333.895 286.001C333.895 281.395 335.824 278.929 337.374 276.95C338.684 275.275 339.631 274.064 339.631 271.34C339.631 268.615 338.684 267.404 337.374 265.729C335.824 263.747 333.895 261.284 333.895 256.677C333.895 255.473 334.027 254.415 334.25 253.473L334.218 19.0314H310.244Z" fill="#E6E6E6"/>
<path d="M310.244 19.0315V485.439V487.944V550.666V613.809V778.628V781.133V906.998H336.366C335.098 905.233 333.895 902.968 333.895 899.269V899.255C333.895 894.571 335.824 892.186 337.374 890.203C338.684 888.529 339.631 887.318 339.631 884.593C339.631 881.866 338.684 880.657 337.374 878.981C335.824 877 333.895 874.536 333.895 869.93C333.895 865.323 335.824 862.86 337.374 860.878C338.684 859.203 339.631 857.993 339.631 855.268C339.631 852.544 338.684 851.333 337.374 849.658C335.824 847.679 333.895 845.212 333.895 840.607C333.895 836.002 335.824 833.454 337.374 831.474C338.664 829.826 339.603 828.534 339.631 825.907V825.855C339.603 823.228 338.664 821.937 337.374 820.288C335.824 818.308 333.895 815.761 333.895 811.156C333.895 806.55 335.824 804.084 337.374 802.104C338.684 800.429 339.631 799.219 339.631 796.494C339.631 793.77 338.684 792.559 337.374 790.884C332.263 784.35 333.001 781.265 337.374 775.674C338.684 773.999 339.631 772.789 339.631 770.064C339.631 767.34 338.684 766.13 337.374 764.454C335.824 762.475 333.895 760.008 333.895 755.402C333.895 750.798 335.824 748.25 337.374 746.27C338.664 744.622 339.603 743.33 339.631 740.703V740.651C339.603 738.025 338.664 736.733 337.374 735.085C335.824 733.104 333.895 730.556 333.895 725.951C333.895 721.346 335.824 718.88 337.374 716.901C338.684 715.225 339.631 714.015 339.631 711.291C339.631 708.565 338.684 707.356 337.374 705.681C335.824 703.699 333.895 701.235 333.895 696.629C333.895 692.022 335.824 689.558 337.374 687.577C338.684 685.902 339.631 684.692 339.631 681.966C339.631 679.24 338.684 678.03 337.374 676.356C335.824 674.373 333.895 671.988 333.895 667.304V667.289C333.895 662.605 335.824 660.22 337.374 658.238C338.684 656.564 339.631 655.353 339.631 652.627C339.631 649.901 338.684 648.692 337.374 647.016C335.824 645.035 333.895 642.571 333.895 637.965C333.895 633.358 335.824 630.895 337.374 628.913C338.684 627.237 339.631 626.028 339.631 623.302C339.631 620.578 338.684 619.368 337.374 617.692C336.538 616.626 335.594 615.417 334.899 613.809H336.366C335.252 612.259 334.189 610.322 333.947 607.368C334.263 603.551 335.973 601.298 337.374 599.509C338.664 597.861 339.603 596.569 339.631 593.941V593.89C339.626 593.462 339.598 593.07 339.548 592.706C339.603 592.312 339.631 591.881 339.631 591.403C339.631 588.677 338.684 587.468 337.374 585.792C335.967 583.994 334.249 581.799 333.943 577.966C334.249 574.132 335.967 571.935 337.374 570.139C338.684 568.464 339.631 567.253 339.631 564.529C339.631 564.083 339.606 563.678 339.558 563.304C339.606 562.93 339.631 562.525 339.631 562.079C339.631 559.354 338.684 558.144 337.374 556.468C336.211 554.983 334.834 553.224 334.22 550.492L334.25 546.662C334.106 547.27 333.999 547.927 333.942 548.64C333.912 548.25 333.895 547.843 333.895 547.418C333.895 542.812 335.824 540.265 337.374 538.285C338.664 536.637 339.603 535.345 339.631 532.718V532.666C339.603 530.039 338.664 528.748 337.374 527.099C335.824 525.119 333.895 522.571 333.895 517.967C333.895 513.361 335.824 510.894 337.374 508.915C338.684 507.24 339.631 506.029 339.631 503.305C339.631 500.58 338.684 499.37 337.374 497.695C332.263 491.161 333.001 488.076 337.374 482.485C338.684 480.81 339.631 479.6 339.631 476.875C339.631 474.151 338.684 472.94 337.374 471.265C335.824 469.286 333.895 466.818 333.895 462.213C333.895 457.609 335.824 455.061 337.374 453.08C338.664 451.433 339.603 450.141 339.631 447.514V447.462C339.603 444.835 338.664 443.544 337.374 441.896C335.824 439.915 333.895 437.367 333.895 432.762C333.895 428.157 335.824 425.691 337.374 423.711C338.684 422.036 339.631 420.826 339.631 418.101C339.631 415.376 338.684 414.166 337.374 412.491C335.824 410.51 333.895 408.046 333.895 403.44C333.895 398.833 335.824 396.369 337.374 394.388C338.684 392.713 339.631 391.503 339.631 388.776C339.631 386.051 338.684 384.84 337.374 383.166C335.824 381.184 333.895 378.799 333.895 374.115V374.1C333.895 369.416 335.824 367.031 337.374 365.049C338.684 363.375 339.631 362.164 339.631 359.438C339.631 356.711 338.684 355.502 337.374 353.827C335.824 351.845 333.895 349.382 333.895 344.775C333.895 340.168 335.824 337.705 337.374 335.724C338.684 334.048 339.631 332.839 339.631 330.113C339.631 327.389 338.684 326.178 337.374 324.503C335.824 322.524 333.895 320.058 333.895 315.452C333.895 310.847 335.824 308.3 337.374 306.319C338.664 304.672 339.603 303.38 339.631 300.752V300.7C339.603 298.073 338.664 296.782 337.374 295.133C335.824 293.153 333.895 290.606 333.895 286.001C333.895 281.395 335.824 278.929 337.374 276.95C338.684 275.275 339.631 274.064 339.631 271.34C339.631 268.615 338.684 267.404 337.374 265.729C335.824 263.747 333.895 261.284 333.895 256.677C333.895 255.473 334.027 254.415 334.25 253.473L334.218 19.0315H310.244Z" stroke="#757EB3" stroke-miterlimit="22.9256"/>
<path fill-rule="evenodd" clip-rule="evenodd" d="M309.673 907.026H299.877V19.0298H309.673V907.026Z" fill="#FFEC08"/>
<path d="M309.673 907.026H299.877V19.0299H309.673V907.026Z" stroke="#757EB3" stroke-miterlimit="22.9256"/>
<path fill-rule="evenodd" clip-rule="evenodd" d="M343.19 666.547H333.395V19.0283H343.19V666.547Z" fill="#FFEC08"/>
<path d="M343.19 666.547H333.395V19.0283H343.19V666.547Z" stroke="#757EB3" stroke-miterlimit="22.9256"/>
<path fill-rule="evenodd" clip-rule="evenodd" d="M343.19 666.551H333.395V717.091H343.19V666.551Z" fill="#00963F"/>
<path d="M343.19 666.551H333.395V717.091H343.19V666.551Z" stroke="#757EB3" stroke-miterlimit="22.9256"/>
<path fill-rule="evenodd" clip-rule="evenodd" d="M343.209 19.0325V295.531V298.037V360.758V423.902V588.721V591.226V717.091H369.331C368.062 715.326 366.86 713.06 366.86 709.362V709.347C366.86 704.663 368.789 702.278 370.339 700.296C371.649 698.622 372.596 697.411 372.596 694.686C372.596 691.959 371.649 690.75 370.339 689.074C368.789 687.093 366.86 684.629 366.86 680.023C366.86 675.416 368.789 672.953 370.339 670.971C371.649 669.295 372.596 668.086 372.596 665.36C372.596 662.636 371.649 661.426 370.339 659.75C368.789 657.771 366.86 655.305 366.86 650.7C366.86 646.094 368.789 643.547 370.339 641.567C371.629 639.919 372.567 638.627 372.596 636V635.948C372.567 633.321 371.629 632.03 370.339 630.381C368.789 628.401 366.86 625.853 366.86 621.249C366.86 616.643 368.789 614.176 370.339 612.197C371.649 610.522 372.596 609.311 372.596 606.587C372.596 603.862 371.649 602.652 370.339 600.977C365.228 594.443 365.965 591.358 370.339 585.767C371.649 584.092 372.596 582.881 372.596 580.157C372.596 577.432 371.649 576.222 370.339 574.547C368.789 572.568 366.86 570.1 366.86 565.495C366.86 560.891 368.789 558.343 370.339 556.362C371.629 554.715 372.567 553.423 372.596 550.796V550.744C372.567 548.117 371.629 546.826 370.339 545.178C368.789 543.197 366.86 540.649 366.86 536.044C366.86 531.439 368.789 528.973 370.339 526.993C371.649 525.318 372.596 524.108 372.596 521.383C372.596 518.658 371.649 517.448 370.339 515.773C368.789 513.792 366.86 511.328 366.86 506.721C366.86 502.115 368.789 499.651 370.339 497.67C371.649 495.995 372.596 494.785 372.596 492.058C372.596 489.333 371.649 488.122 370.339 486.448C368.789 484.466 366.86 482.081 366.86 477.397V477.382C366.86 472.698 368.789 470.313 370.339 468.331C371.649 466.657 372.596 465.446 372.596 462.72C372.596 459.993 371.649 458.784 370.339 457.108C368.789 455.127 366.86 452.664 366.86 448.057C366.86 443.45 368.789 440.987 370.339 439.006C371.649 437.33 372.596 436.121 372.596 433.395C372.596 430.671 371.649 429.46 370.339 427.785C369.503 426.718 368.558 425.51 367.864 423.902H369.331C368.216 422.351 367.154 420.415 366.912 417.461C367.228 413.644 368.938 411.391 370.339 409.601C371.629 407.953 372.567 406.661 372.596 404.034V403.982C372.591 403.555 372.563 403.163 372.512 402.799C372.568 402.404 372.596 401.973 372.596 401.496C372.596 398.77 371.649 397.56 370.339 395.885C368.932 394.087 367.214 391.892 366.908 388.058C367.214 384.225 368.932 382.028 370.339 380.232C371.649 378.557 372.596 377.346 372.596 374.622C372.596 374.176 372.571 373.77 372.523 373.397C372.571 373.023 372.596 372.617 372.596 372.171C372.596 369.447 371.649 368.236 370.339 366.561C369.176 365.076 367.799 363.317 367.185 360.584L367.214 356.755C367.07 357.363 366.964 358.02 366.907 358.733C366.876 358.342 366.86 357.936 366.86 357.51C366.86 352.905 368.789 350.358 370.339 348.377C371.629 346.73 372.567 345.438 372.596 342.811V342.758C372.567 340.131 371.629 338.84 370.339 337.192C368.789 335.211 366.86 332.664 366.86 328.06C366.86 323.454 368.789 320.987 370.339 319.008C371.649 317.333 372.596 316.122 372.596 313.398C372.596 310.673 371.649 309.462 370.339 307.787C365.228 301.254 365.965 298.168 370.339 292.578C371.649 290.903 372.596 289.692 372.596 286.968C372.596 284.243 371.649 283.033 370.339 281.357C368.789 279.378 366.86 276.911 366.86 272.306C366.86 267.702 368.789 265.154 370.339 263.173C371.629 261.525 372.567 260.234 372.596 257.607V257.555C372.567 254.928 371.629 253.637 370.339 251.988C368.789 250.008 366.86 247.459 366.86 242.855C366.86 238.249 368.789 235.784 370.339 233.804C371.649 232.129 372.596 230.918 372.596 228.194C372.596 225.468 371.649 224.259 370.339 222.584C368.789 220.602 366.86 218.139 366.86 213.532C366.86 208.926 368.789 206.462 370.339 204.481C371.649 202.805 372.596 201.596 372.596 198.869C372.596 196.144 371.649 194.933 370.339 193.259C368.789 191.276 366.86 188.892 366.86 184.207V184.193C366.86 179.509 368.789 177.124 370.339 175.141C371.649 173.467 372.596 172.256 372.596 169.531C372.596 166.804 371.649 165.595 370.339 163.919C368.789 161.938 366.86 159.474 366.86 154.868C366.86 150.261 368.789 147.798 370.339 145.816C371.649 144.141 372.596 142.932 372.596 140.206C372.596 137.482 371.649 136.271 370.339 134.596C368.789 132.617 366.86 130.15 366.86 125.545C366.86 120.94 368.789 118.392 370.339 116.412C371.629 114.764 372.567 113.472 372.596 110.845V110.793C372.567 108.166 371.629 106.875 370.339 105.226C368.789 103.246 366.86 100.698 366.86 96.0939C366.86 91.4882 368.789 89.0215 370.339 87.0423C371.649 85.3673 372.596 84.1566 372.596 81.4323C372.596 78.7076 371.649 77.4969 370.339 75.8218C368.789 73.8401 366.86 71.3762 366.86 66.7701C366.86 65.5649 366.992 64.5071 367.214 63.5658L367.209 19.0325H343.209Z" fill="#CCCCCC"/>
<path d="M343.209 19.0325V295.531V298.037V360.758V423.902V588.721V591.226V717.091H369.331C368.062 715.326 366.86 713.06 366.86 709.362V709.347C366.86 704.663 368.789 702.278 370.339 700.296C371.649 698.622 372.596 697.411 372.596 694.686C372.596 691.959 371.649 690.75 370.339 689.074C368.789 687.093 366.86 684.629 366.86 680.023C366.86 675.416 368.789 672.953 370.339 670.971C371.649 669.295 372.596 668.086 372.596 665.36C372.596 662.636 371.649 661.426 370.339 659.75C368.789 657.771 366.86 655.305 366.86 650.7C366.86 646.094 368.789 643.547 370.339 641.567C371.629 639.919 372.567 638.627 372.596 636V635.948C372.567 633.321 371.629 632.03 370.339 630.381C368.789 628.401 366.86 625.853 366.86 621.249C366.86 616.643 368.789 614.176 370.339 612.197C371.649 610.522 372.596 609.311 372.596 606.587C372.596 603.862 371.649 602.652 370.339 600.977C365.228 594.443 365.965 591.358 370.339 585.767C371.649 584.092 372.596 582.881 372.596 580.157C372.596 577.432 371.649 576.222 370.339 574.547C368.789 572.568 366.86 570.1 366.86 565.495C366.86 560.891 368.789 558.343 370.339 556.362C371.629 554.715 372.567 553.423 372.596 550.796V550.744C372.567 548.117 371.629 546.826 370.339 545.178C368.789 543.197 366.86 540.649 366.86 536.044C366.86 531.439 368.789 528.973 370.339 526.993C371.649 525.318 372.596 524.108 372.596 521.383C372.596 518.658 371.649 517.448 370.339 515.773C368.789 513.791 366.86 511.328 366.86 506.721C366.86 502.115 368.789 499.651 370.339 497.67C371.649 495.995 372.596 494.785 372.596 492.058C372.596 489.333 371.649 488.122 370.339 486.448C368.789 484.466 366.86 482.081 366.86 477.397V477.382C366.86 472.698 368.789 470.313 370.339 468.331C371.649 466.657 372.596 465.446 372.596 462.72C372.596 459.993 371.649 458.784 370.339 457.108C368.789 455.127 366.86 452.664 366.86 448.057C366.86 443.45 368.789 440.987 370.339 439.006C371.649 437.33 372.596 436.121 372.596 433.395C372.596 430.671 371.649 429.46 370.339 427.785C369.503 426.718 368.558 425.51 367.864 423.902H369.331C368.216 422.351 367.154 420.415 366.912 417.461C367.228 413.644 368.938 411.391 370.339 409.601C371.629 407.953 372.567 406.661 372.596 404.034V403.982C372.591 403.555 372.563 403.163 372.512 402.799C372.568 402.404 372.596 401.973 372.596 401.496C372.596 398.77 371.649 397.56 370.339 395.885C368.932 394.087 367.214 391.892 366.908 388.058C367.214 384.225 368.932 382.028 370.339 380.232C371.649 378.557 372.596 377.346 372.596 374.622C372.596 374.176 372.571 373.77 372.523 373.397C372.571 373.023 372.596 372.617 372.596 372.171C372.596 369.447 371.649 368.236 370.339 366.561C369.176 365.076 367.799 363.317 367.185 360.584L367.214 356.755C367.07 357.363 366.964 358.02 366.907 358.733C366.876 358.342 366.86 357.936 366.86 357.51C366.86 352.905 368.789 350.358 370.339 348.377C371.629 346.73 372.567 345.438 372.596 342.811V342.758C372.567 340.131 371.629 338.84 370.339 337.192C368.789 335.211 366.86 332.664 366.86 328.06C366.86 323.454 368.789 320.987 370.339 319.008C371.649 317.333 372.596 316.122 372.596 313.398C372.596 310.673 371.649 309.462 370.339 307.787C365.228 301.254 365.965 298.168 370.339 292.578C371.649 290.903 372.596 289.692 372.596 286.968C372.596 284.243 371.649 283.033 370.339 281.357C368.789 279.378 366.86 276.911 366.86 272.306C366.86 267.702 368.789 265.154 370.339 263.173C371.629 261.525 372.567 260.234 372.596 257.607V257.555C372.567 254.928 371.629 253.637 370.339 251.988C368.789 250.008 366.86 247.459 366.86 242.855C366.86 238.249 368.789 235.784 370.339 233.804C371.649 232.129 372.596 230.918 372.596 228.194C372.596 225.468 371.649 224.259 370.339 222.584C368.789 220.602 366.86 218.139 366.86 213.532C366.86 208.926 368.789 206.462 370.339 204.481C371.649 202.805 372.596 201.596 372.596 198.869C372.596 196.144 371.649 194.933 370.339 193.259C368.789 191.276 366.86 188.892 366.86 184.207V184.193C366.86 179.509 368.789 177.124 370.339 175.141C371.649 173.467 372.596 172.256 372.596 169.531C372.596 166.804 371.649 165.595 370.339 163.919C368.789 161.938 366.86 159.474 366.86 154.868C366.86 150.261 368.789 147.798 370.339 145.816C371.649 144.141 372.596 142.932 372.596 140.206C372.596 137.482 371.649 136.271 370.339 134.596C368.789 132.616 366.86 130.15 366.86 125.545C366.86 120.94 368.789 118.392 370.339 116.412C371.629 114.764 372.567 113.472 372.596 110.845V110.793C372.567 108.166 371.629 106.875 370.339 105.226C368.789 103.246 366.86 100.699 366.86 96.0939C366.86 91.4882 368.789 89.0216 370.339 87.0423C371.649 85.3673 372.596 84.1566 372.596 81.4322C372.596 78.7076 371.649 77.4969 370.339 75.8218C368.789 73.8401 366.86 71.3763 366.86 66.7701C366.86 65.5649 366.992 64.5072 367.214 63.5658L367.209 19.0325H343.209Z" stroke="#757EB3" stroke-miterlimit="22.9256"/>
<path fill-rule="evenodd" clip-rule="evenodd" d="M372.01 354.308H362.214V19.0315H372.01V354.308Z" fill="#FFEC08"/>
<path d="M372.01 354.308H362.214V19.0315H372.01V354.308Z" stroke="#757EB3" stroke-miterlimit="22.9256"/>
<path fill-rule="evenodd" clip-rule="evenodd" d="M372.01 354.307H362.214V380.476H372.01V354.307Z" fill="#E3000F"/>
<path d="M372.01 354.307H362.214V380.476H372.01V354.307Z" stroke="#757EB3" stroke-miterlimit="22.9256"/>
<path fill-rule="evenodd" clip-rule="evenodd" d="M372.01 19.0306V24.1431V87.2863V252.106V254.611V380.476H398.132C396.863 378.71 395.661 376.445 395.661 372.747V372.732C395.661 368.048 397.589 365.663 399.14 363.681C400.449 362.007 401.397 360.796 401.397 358.07C401.397 355.344 400.449 354.134 399.14 352.459C397.589 350.478 395.661 348.014 395.661 343.408C395.661 338.801 397.589 336.337 399.14 334.356C400.449 332.68 401.397 331.471 401.397 328.745C401.397 326.021 400.449 324.81 399.14 323.135C397.589 321.156 395.661 318.69 395.661 314.084C395.661 309.479 397.589 306.932 399.14 304.952C400.43 303.304 401.368 302.012 401.397 299.385V299.333C401.368 296.705 400.43 295.414 399.14 293.766C397.589 291.786 395.661 289.238 395.661 284.634C395.661 280.028 397.589 277.561 399.14 275.582C400.449 273.907 401.397 272.696 401.397 269.972C401.397 267.247 400.449 266.036 399.14 264.361C394.029 257.828 394.766 254.742 399.14 249.152C400.449 247.477 401.397 246.266 401.397 243.542C401.397 240.817 400.449 239.607 399.14 237.931C397.589 235.952 395.661 233.485 395.661 228.88C395.661 224.276 397.589 221.728 399.14 219.747C400.43 218.099 401.368 216.808 401.397 214.181V214.129C401.368 211.502 400.43 210.211 399.14 208.562C397.589 206.582 395.661 204.033 395.661 199.429C395.661 194.823 397.589 192.358 399.14 190.378C400.449 188.703 401.397 187.492 401.397 184.768C401.397 182.042 400.449 180.833 399.14 179.158C397.589 177.176 395.661 174.713 395.661 170.106C395.661 165.5 397.589 163.036 399.14 161.055C400.449 159.379 401.397 158.17 401.397 155.443C401.397 152.718 400.449 151.507 399.14 149.833C397.589 147.85 395.661 145.466 395.661 140.781V140.767C395.661 136.083 397.589 133.698 399.14 131.715C400.449 130.041 401.397 128.831 401.397 126.105C401.397 123.378 400.449 122.169 399.14 120.493C397.589 118.512 395.661 116.049 395.661 111.442C395.661 106.835 397.589 104.372 399.14 102.39C400.449 100.715 401.397 99.5055 401.397 96.7798C401.397 94.0555 400.449 92.8449 399.14 91.1698C398.304 90.103 397.359 88.8948 396.665 87.2863H398.132C397.017 85.7362 395.955 83.7996 395.713 80.8456C396.029 77.0286 397.739 74.7758 399.14 72.9859C400.43 71.3382 401.368 70.0465 401.397 67.4191V67.3672C401.392 66.9395 401.364 66.5478 401.313 66.1839C401.368 65.7891 401.397 65.3579 401.397 64.8809C401.397 62.1541 400.449 60.9451 399.14 59.2696C397.733 57.4714 396.015 55.2767 395.709 51.4431C396.015 47.6095 397.733 45.4124 399.14 43.6165C400.449 41.9414 401.397 40.7306 401.397 38.0063C401.397 37.5601 401.371 37.1552 401.323 36.7814C401.371 36.4077 401.397 36.002 401.397 35.556C401.397 32.8317 400.449 31.6211 399.14 29.9461C397.976 28.4605 396.6 26.7016 395.985 23.9693C395.996 22.6458 396.025 18.1324 395.708 22.1178C395.677 21.7272 395.661 21.3209 395.661 20.8951C395.661 20.2325 395.701 19.6122 395.774 19.0306H372.01Z" fill="#CCCCCC"/>
<path d="M372.01 19.0306V24.1431V87.2863V252.106V254.611V380.476H398.132C396.863 378.71 395.661 376.445 395.661 372.747V372.732C395.661 368.048 397.589 365.663 399.14 363.681C400.449 362.007 401.397 360.796 401.397 358.07C401.397 355.344 400.449 354.134 399.14 352.459C397.589 350.478 395.661 348.014 395.661 343.408C395.661 338.801 397.589 336.337 399.14 334.356C400.449 332.68 401.397 331.471 401.397 328.745C401.397 326.021 400.449 324.81 399.14 323.135C397.589 321.156 395.661 318.69 395.661 314.084C395.661 309.479 397.589 306.932 399.14 304.952C400.43 303.304 401.368 302.012 401.397 299.385V299.333C401.368 296.705 400.43 295.414 399.14 293.766C397.589 291.786 395.661 289.238 395.661 284.634C395.661 280.028 397.589 277.561 399.14 275.582C400.449 273.907 401.397 272.696 401.397 269.972C401.397 267.247 400.449 266.036 399.14 264.361C394.029 257.828 394.766 254.742 399.14 249.152C400.449 247.477 401.397 246.266 401.397 243.542C401.397 240.817 400.449 239.607 399.14 237.931C397.589 235.952 395.661 233.485 395.661 228.88C395.661 224.276 397.589 221.728 399.14 219.747C400.43 218.099 401.368 216.808 401.397 214.181V214.129C401.368 211.502 400.43 210.211 399.14 208.562C397.589 206.582 395.661 204.033 395.661 199.429C395.661 194.823 397.589 192.358 399.14 190.378C400.449 188.703 401.397 187.492 401.397 184.768C401.397 182.042 400.449 180.833 399.14 179.158C397.589 177.176 395.661 174.713 395.661 170.106C395.661 165.5 397.589 163.036 399.14 161.055C400.449 159.379 401.397 158.17 401.397 155.443C401.397 152.718 400.449 151.507 399.14 149.833C397.589 147.85 395.661 145.466 395.661 140.781V140.767C395.661 136.083 397.589 133.698 399.14 131.715C400.449 130.041 401.397 128.831 401.397 126.105C401.397 123.378 400.449 122.169 399.14 120.493C397.589 118.512 395.661 116.049 395.661 111.442C395.661 106.835 397.589 104.372 399.14 102.39C400.449 100.715 401.397 99.5055 401.397 96.7798C401.397 94.0555 400.449 92.8449 399.14 91.1698C398.304 90.103 397.359 88.8948 396.665 87.2863H398.132C397.017 85.7362 395.955 83.7996 395.713 80.8456C396.029 77.0286 397.739 74.7758 399.14 72.9859C400.43 71.3382 401.368 70.0465 401.397 67.4191V67.3672C401.392 66.9396 401.364 66.5478 401.313 66.1839C401.368 65.7891 401.397 65.3579 401.397 64.8809C401.397 62.1541 400.449 60.9451 399.14 59.2695C397.733 57.4714 396.015 55.2767 395.709 51.4431C396.015 47.6095 397.733 45.4125 399.14 43.6165C400.449 41.9414 401.397 40.7306 401.397 38.0063C401.397 37.5601 401.371 37.1552 401.323 36.7814C401.371 36.4077 401.397 36.002 401.397 35.556C401.397 32.8317 400.449 31.6211 399.14 29.9461C397.976 28.4605 396.6 26.7016 395.985 23.9693C395.996 22.6458 396.025 18.1324 395.708 22.1178C395.677 21.7272 395.661 21.3209 395.661 20.8951C395.661 20.2325 395.701 19.6122 395.774 19.0306H372.01Z" stroke="#757EB3" stroke-miterlimit="22.9256"/>
<path fill-rule="evenodd" clip-rule="evenodd" d="M402.027 144.446H392.231V19.028H402.027V144.446Z" fill="#FFEC08"/>
<path d="M402.027 144.446H392.231V19.028H402.027V144.446Z" stroke="#757EB3" stroke-miterlimit="22.9256"/>
<path fill-rule="evenodd" clip-rule="evenodd" d="M402.027 144.449H392.231V170.618H402.027V144.449Z" fill="#E3000F"/>
<path d="M402.027 144.449H392.231V170.618H402.027V144.449Z" stroke="#757EB3" stroke-miterlimit="22.9256"/>
<path fill-rule="evenodd" clip-rule="evenodd" d="M402.028 19.031V42.2481V44.7532V170.618H428.151C426.882 168.853 425.679 166.588 425.679 162.889V162.875C425.679 158.191 427.608 155.805 429.158 153.823C430.468 152.149 431.415 150.939 431.415 148.213C431.415 145.486 430.468 144.277 429.158 142.601C427.608 140.62 425.679 138.157 425.679 133.55C425.679 128.943 427.608 126.48 429.158 124.498C430.468 122.823 431.415 121.614 431.415 118.888C431.415 116.164 430.468 114.953 429.158 113.278C427.608 111.299 425.679 108.833 425.679 104.227C425.679 99.6216 427.608 97.0741 429.158 95.0939C430.448 93.4464 431.387 92.1543 431.415 89.5271V89.4752C431.387 86.848 430.448 85.5569 429.158 83.9082C427.608 81.9281 425.679 79.3808 425.679 74.7762C425.679 70.1703 427.608 67.7036 429.158 65.7244C430.468 64.0494 431.415 62.8388 431.415 60.1143C431.415 57.3898 430.468 56.1788 429.158 54.5038C424.047 47.9701 424.785 44.8851 429.158 39.2946C430.468 37.6196 431.415 36.4087 431.415 33.6845C431.415 30.9599 430.468 29.7497 429.158 28.074C427.609 26.0961 425.681 23.6304 425.679 19.031H402.028Z" fill="#CCCCCC"/>
<path d="M402.028 19.031V42.2481V44.7532V170.618H428.151C426.882 168.853 425.679 166.588 425.679 162.889V162.875C425.679 158.191 427.608 155.805 429.158 153.823C430.468 152.149 431.415 150.939 431.415 148.213C431.415 145.486 430.468 144.277 429.158 142.601C427.608 140.62 425.679 138.157 425.679 133.55C425.679 128.943 427.608 126.48 429.158 124.498C430.468 122.823 431.415 121.614 431.415 118.888C431.415 116.164 430.468 114.953 429.158 113.278C427.608 111.299 425.679 108.833 425.679 104.227C425.679 99.6216 427.608 97.0741 429.158 95.0939C430.448 93.4464 431.387 92.1543 431.415 89.5271V89.4752C431.387 86.848 430.448 85.5569 429.158 83.9082C427.608 81.9281 425.679 79.3808 425.679 74.7762C425.679 70.1703 427.608 67.7036 429.158 65.7244C430.468 64.0494 431.415 62.8388 431.415 60.1143C431.415 57.3898 430.468 56.1788 429.158 54.5038C424.047 47.9701 424.785 44.8851 429.158 39.2946C430.468 37.6196 431.415 36.4087 431.415 33.6845C431.415 30.9599 430.468 29.7497 429.158 28.074C427.609 26.0962 425.681 23.6304 425.679 19.031H402.028Z" stroke="#757EB3" stroke-miterlimit="22.9256"/>
<path fill-rule="evenodd" clip-rule="evenodd" d="M402.027 19.0303H392.231V45.1992H402.027V19.0303Z" fill="#00963F"/>
<path d="M402.027 19.0303H392.231V45.1992H402.027V19.0303Z" stroke="#757EB3" stroke-miterlimit="22.9256"/>
<path fill-rule="evenodd" clip-rule="evenodd" d="M433.792 19.0303H423.996V45.1992H433.792V19.0303Z" fill="#E3000F"/>
<path d="M433.792 19.0303H423.996V45.1992H433.792V19.0303Z" stroke="#757EB3" stroke-miterlimit="22.9256"/>
<path fill-rule="evenodd" clip-rule="evenodd" d="M433.791 19.0299V45.1992H459.913C458.644 43.434 457.442 41.1689 457.442 37.4705V37.4557C457.442 32.772 459.371 30.3867 460.921 28.4045C462.231 26.7304 463.178 25.5197 463.178 22.794C463.178 21.1204 462.821 20.0193 462.243 19.0299H433.791Z" fill="#CCCCCC"/>
<path d="M433.791 19.0299V45.1992H459.913C458.644 43.434 457.442 41.1689 457.442 37.4705V37.4557C457.442 32.772 459.371 30.3867 460.921 28.4045C462.231 26.7304 463.178 25.5197 463.178 22.794C463.178 21.1204 462.821 20.0193 462.243 19.0299H433.791Z" stroke="#757EB3" stroke-miterlimit="22.9256"/>
<path fill-rule="evenodd" clip-rule="evenodd" d="M310.648 893.679V907.026H322.265L310.648 893.679Z" fill="#272953"/>
<path fill-rule="evenodd" clip-rule="evenodd" d="M204.442 893.679V907.026H192.825L204.442 893.679Z" fill="#272953"/>
<path d="M396 171.271H511.574" stroke="#454D7D" stroke-width="2" stroke-miterlimit="22.9256"/>
<path d="M372 381.028L512 381.028" stroke="#454D7D" stroke-width="2" stroke-miterlimit="22.9256"/>
<path d="M338 718.028L512 718.028" stroke="#454D7D" stroke-width="2" stroke-miterlimit="22.9256"/>
<path d="M300 909.028L512 909.028" stroke="#454D7D" stroke-width="2" stroke-miterlimit="22.9256"/>
<path d="M424 46.2705H539.574" stroke="#454D7D" stroke-width="2" stroke-miterlimit="22.9256"/>
<path d="M113.637 144.218L31.0001 116.189" stroke="#454D7D" stroke-width="2" stroke-miterlimit="22.9256"/>
<path d="M142.637 354.218L60.0001 326.189" stroke="#454D7D" stroke-width="2" stroke-miterlimit="22.9256"/>
<path d="M176.637 600.218L94.0001 572.189" stroke="#454D7D" stroke-width="2" stroke-miterlimit="22.9256"/>
<path d="M205.637 780.218L123 752.189" stroke="#454D7D" stroke-width="2" stroke-miterlimit="22.9256"/>
<path d="M83.6367 45.2178L1.00006 17.189" stroke="#454D7D" stroke-width="2" stroke-miterlimit="22.9256"/>
<mask id="path-73-outside-1_1029_14230" maskUnits="userSpaceOnUse" x="265" y="905.84" width="42" height="249" fill="black">
<rect fill="white" x="265" y="905.84" width="42" height="249"/>
<path d="M266.629 1153.09H299.226L299.224 1152.85C299.222 1149.84 299.753 1147.53 300.495 1145.65C301.235 1143.77 302.179 1142.33 303.018 1141.05C304.384 1138.97 305.371 1137.46 305.371 1134.11C305.371 1130.76 304.384 1129.26 303.019 1127.18L303.016 1127.17C301.324 1124.59 299.222 1121.39 299.222 1115.38C299.222 1109.38 301.324 1106.17 303.013 1103.6L303.018 1103.59C303.709 1102.54 304.305 1101.63 304.718 1100.58C305.129 1099.54 305.371 1098.33 305.371 1096.65C305.371 1093.3 304.384 1091.8 303.02 1089.72L302.934 1089.59C301.373 1087.21 299.499 1084.35 299.251 1079.1H299.222V1077.55H299.251C299.499 1072.29 301.373 1069.44 302.934 1067.06L303.034 1066.9C304.392 1064.83 305.371 1063.33 305.371 1059.99C305.371 1058.31 305.129 1057.1 304.718 1056.06C304.306 1055.01 303.711 1054.11 303.022 1053.06L303.013 1053.04C301.323 1050.47 299.222 1047.26 299.222 1041.26C299.222 1035.25 301.324 1032.05 303.013 1029.47L303.025 1029.46C304.386 1027.38 305.371 1025.88 305.371 1022.53C305.371 1019.18 304.384 1017.67 303.02 1015.59C302.179 1014.31 301.235 1012.87 300.495 1011C299.753 1009.11 299.222 1006.8 299.222 1003.8C299.222 1000.8 299.752 998.461 300.493 996.552C301.232 994.651 302.177 993.184 303.018 991.902C303.696 990.87 304.282 989.95 304.697 988.887C305.108 987.839 305.358 986.636 305.373 985.021L305.371 984.954C305.358 983.339 305.108 982.136 304.698 981.088C304.282 980.025 303.696 979.104 303.018 978.073C302.177 976.791 301.232 975.324 300.493 973.423C299.752 971.514 299.222 969.177 299.222 966.175C299.222 960.244 301.273 957.042 302.951 954.486L303.018 954.383C304.384 952.301 305.371 950.797 305.371 947.446C305.371 944.093 304.385 942.591 303.02 940.513L303.013 940.501C301.324 937.926 299.222 934.721 299.222 928.715C299.222 922.71 301.324 919.505 303.013 916.93L303.019 916.922C304.384 914.843 305.371 913.34 305.371 909.985C305.371 909.457 305.347 908.977 305.303 908.537C305.269 908.204 305.222 907.891 305.164 907.596L305.052 906.84L305.65 906.847L305.713 907.125C305.805 907.533 305.878 907.972 305.926 908.446C305.974 908.921 306 909.431 306 909.985C306 913.593 304.956 915.184 303.512 917.381L303.495 917.407C301.868 919.888 299.851 922.978 299.851 928.715C299.851 934.467 301.878 937.558 303.507 940.042L303.514 940.053C304.957 942.25 306 943.839 306 947.446C306 950.997 304.988 952.592 303.579 954.74L303.512 954.843C301.882 957.326 299.851 960.419 299.851 966.175C299.851 969.055 300.356 971.289 301.063 973.11C301.773 974.938 302.694 976.365 303.512 977.613C304.217 978.686 304.826 979.646 305.267 980.772C305.712 981.913 305.983 983.214 305.999 984.951L306 985.021C305.983 986.761 305.712 988.062 305.266 989.202C304.826 990.33 304.216 991.289 303.512 992.361C302.694 993.609 301.773 995.037 301.063 996.865C300.356 998.686 299.851 1000.92 299.851 1003.8C299.851 1006.68 300.356 1008.89 301.062 1010.68C301.771 1012.48 302.692 1013.88 303.512 1015.13C304.956 1017.33 306 1018.92 306 1022.53C306 1026.14 304.956 1027.73 303.513 1029.92L303.5 1029.94C301.872 1032.42 299.851 1035.51 299.851 1041.26C299.851 1047.01 301.874 1050.1 303.503 1052.58L303.512 1052.59C304.226 1053.68 304.841 1054.62 305.286 1055.74C305.734 1056.88 306 1058.19 306 1059.99C306 1063.6 304.956 1065.19 303.513 1067.39L303.428 1067.52C301.887 1069.86 300.031 1072.69 299.863 1077.93C299.854 1078.22 299.854 1078.42 299.863 1078.71C300.031 1083.95 301.887 1086.78 303.428 1089.13L303.512 1089.25C304.956 1091.46 306 1093.05 306 1096.65C306 1098.45 305.734 1099.76 305.286 1100.9C304.841 1102.03 304.226 1102.96 303.512 1104.05L303.506 1104.06C301.878 1106.54 299.851 1109.63 299.851 1115.38C299.851 1121.12 301.868 1124.21 303.495 1126.69L303.513 1126.72C304.956 1128.92 306 1130.51 306 1134.11C306 1137.72 304.956 1139.31 303.513 1141.51C302.692 1142.76 301.771 1144.16 301.062 1145.96C300.356 1147.75 299.851 1149.96 299.851 1152.84L299.866 1153.84H266V1153.47V1153.09H266.629Z"/>
</mask>
<path d="M266.629 1153.09H299.226L299.224 1152.85C299.222 1149.84 299.753 1147.53 300.495 1145.65C301.235 1143.77 302.179 1142.33 303.018 1141.05C304.384 1138.97 305.371 1137.46 305.371 1134.11C305.371 1130.76 304.384 1129.26 303.019 1127.18L303.016 1127.17C301.324 1124.59 299.222 1121.39 299.222 1115.38C299.222 1109.38 301.324 1106.17 303.013 1103.6L303.018 1103.59C303.709 1102.54 304.305 1101.63 304.718 1100.58C305.129 1099.54 305.371 1098.33 305.371 1096.65C305.371 1093.3 304.384 1091.8 303.02 1089.72L302.934 1089.59C301.373 1087.21 299.499 1084.35 299.251 1079.1H299.222V1077.55H299.251C299.499 1072.29 301.373 1069.44 302.934 1067.06L303.034 1066.9C304.392 1064.83 305.371 1063.33 305.371 1059.99C305.371 1058.31 305.129 1057.1 304.718 1056.06C304.306 1055.01 303.711 1054.11 303.022 1053.06L303.013 1053.04C301.323 1050.47 299.222 1047.26 299.222 1041.26C299.222 1035.25 301.324 1032.05 303.013 1029.47L303.025 1029.46C304.386 1027.38 305.371 1025.88 305.371 1022.53C305.371 1019.18 304.384 1017.67 303.02 1015.59C302.179 1014.31 301.235 1012.87 300.495 1011C299.753 1009.11 299.222 1006.8 299.222 1003.8C299.222 1000.8 299.752 998.461 300.493 996.552C301.232 994.651 302.177 993.184 303.018 991.902C303.696 990.87 304.282 989.95 304.697 988.887C305.108 987.839 305.358 986.636 305.373 985.021L305.371 984.954C305.358 983.339 305.108 982.136 304.698 981.088C304.282 980.025 303.696 979.104 303.018 978.073C302.177 976.791 301.232 975.324 300.493 973.423C299.752 971.514 299.222 969.177 299.222 966.175C299.222 960.244 301.273 957.042 302.951 954.486L303.018 954.383C304.384 952.301 305.371 950.797 305.371 947.446C305.371 944.093 304.385 942.591 303.02 940.513L303.013 940.501C301.324 937.926 299.222 934.721 299.222 928.715C299.222 922.71 301.324 919.505 303.013 916.93L303.019 916.922C304.384 914.843 305.371 913.34 305.371 909.985C305.371 909.457 305.347 908.977 305.303 908.537C305.269 908.204 305.222 907.891 305.164 907.596L305.052 906.84L305.65 906.847L305.713 907.125C305.805 907.533 305.878 907.972 305.926 908.446C305.974 908.921 306 909.431 306 909.985C306 913.593 304.956 915.184 303.512 917.381L303.495 917.407C301.868 919.888 299.851 922.978 299.851 928.715C299.851 934.467 301.878 937.558 303.507 940.042L303.514 940.053C304.957 942.25 306 943.839 306 947.446C306 950.997 304.988 952.592 303.579 954.74L303.512 954.843C301.882 957.326 299.851 960.419 299.851 966.175C299.851 969.055 300.356 971.289 301.063 973.11C301.773 974.938 302.694 976.365 303.512 977.613C304.217 978.686 304.826 979.646 305.267 980.772C305.712 981.913 305.983 983.214 305.999 984.951L306 985.021C305.983 986.761 305.712 988.062 305.266 989.202C304.826 990.33 304.216 991.289 303.512 992.361C302.694 993.609 301.773 995.037 301.063 996.865C300.356 998.686 299.851 1000.92 299.851 1003.8C299.851 1006.68 300.356 1008.89 301.062 1010.68C301.771 1012.48 302.692 1013.88 303.512 1015.13C304.956 1017.33 306 1018.92 306 1022.53C306 1026.14 304.956 1027.73 303.513 1029.92L303.5 1029.94C301.872 1032.42 299.851 1035.51 299.851 1041.26C299.851 1047.01 301.874 1050.1 303.503 1052.58L303.512 1052.59C304.226 1053.68 304.841 1054.62 305.286 1055.74C305.734 1056.88 306 1058.19 306 1059.99C306 1063.6 304.956 1065.19 303.513 1067.39L303.428 1067.52C301.887 1069.86 300.031 1072.69 299.863 1077.93C299.854 1078.22 299.854 1078.42 299.863 1078.71C300.031 1083.95 301.887 1086.78 303.428 1089.13L303.512 1089.25C304.956 1091.46 306 1093.05 306 1096.65C306 1098.45 305.734 1099.76 305.286 1100.9C304.841 1102.03 304.226 1102.96 303.512 1104.05L303.506 1104.06C301.878 1106.54 299.851 1109.63 299.851 1115.38C299.851 1121.12 301.868 1124.21 303.495 1126.69L303.513 1126.72C304.956 1128.92 306 1130.51 306 1134.11C306 1137.72 304.956 1139.31 303.513 1141.51C302.692 1142.76 301.771 1144.16 301.062 1145.96C300.356 1147.75 299.851 1149.96 299.851 1152.84L299.866 1153.84H266V1153.47V1153.09H266.629Z" fill="#FBA409"/>
<path d="M266.629 1153.09H299.226L299.224 1152.85C299.222 1149.84 299.753 1147.53 300.495 1145.65C301.235 1143.77 302.179 1142.33 303.018 1141.05C304.384 1138.97 305.371 1137.46 305.371 1134.11C305.371 1130.76 304.384 1129.26 303.019 1127.18L303.016 1127.17C301.324 1124.59 299.222 1121.39 299.222 1115.38C299.222 1109.38 301.324 1106.17 303.013 1103.6L303.018 1103.59C303.709 1102.54 304.305 1101.63 304.718 1100.58C305.129 1099.54 305.371 1098.33 305.371 1096.65C305.371 1093.3 304.384 1091.8 303.02 1089.72L302.934 1089.59C301.373 1087.21 299.499 1084.35 299.251 1079.1H299.222V1077.55H299.251C299.499 1072.29 301.373 1069.44 302.934 1067.06L303.034 1066.9C304.392 1064.83 305.371 1063.33 305.371 1059.99C305.371 1058.31 305.129 1057.1 304.718 1056.06C304.306 1055.01 303.711 1054.11 303.022 1053.06L303.013 1053.04C301.323 1050.47 299.222 1047.26 299.222 1041.26C299.222 1035.25 301.324 1032.05 303.013 1029.47L303.025 1029.46C304.386 1027.38 305.371 1025.88 305.371 1022.53C305.371 1019.18 304.384 1017.67 303.02 1015.59C302.179 1014.31 301.235 1012.87 300.495 1011C299.753 1009.11 299.222 1006.8 299.222 1003.8C299.222 1000.8 299.752 998.461 300.493 996.552C301.232 994.651 302.177 993.184 303.018 991.902C303.696 990.87 304.282 989.95 304.697 988.887C305.108 987.839 305.358 986.636 305.373 985.021L305.371 984.954C305.358 983.339 305.108 982.136 304.698 981.088C304.282 980.025 303.696 979.104 303.018 978.073C302.177 976.791 301.232 975.324 300.493 973.423C299.752 971.514 299.222 969.177 299.222 966.175C299.222 960.244 301.273 957.042 302.951 954.486L303.018 954.383C304.384 952.301 305.371 950.797 305.371 947.446C305.371 944.093 304.385 942.591 303.02 940.513L303.013 940.501C301.324 937.926 299.222 934.721 299.222 928.715C299.222 922.71 301.324 919.505 303.013 916.93L303.019 916.922C304.384 914.843 305.371 913.34 305.371 909.985C305.371 909.457 305.347 908.977 305.303 908.537C305.269 908.204 305.222 907.891 305.164 907.596L305.052 906.84L305.65 906.847L305.713 907.125C305.805 907.533 305.878 907.972 305.926 908.446C305.974 908.921 306 909.431 306 909.985C306 913.593 304.956 915.184 303.512 917.381L303.495 917.407C301.868 919.888 299.851 922.978 299.851 928.715C299.851 934.467 301.878 937.558 303.507 940.042L303.514 940.053C304.957 942.25 306 943.839 306 947.446C306 950.997 304.988 952.592 303.579 954.74L303.512 954.843C301.882 957.326 299.851 960.419 299.851 966.175C299.851 969.055 300.356 971.289 301.063 973.11C301.773 974.938 302.694 976.365 303.512 977.613C304.217 978.686 304.826 979.646 305.267 980.772C305.712 981.913 305.983 983.214 305.999 984.951L306 985.021C305.983 986.761 305.712 988.062 305.266 989.202C304.826 990.33 304.216 991.289 303.512 992.361C302.694 993.609 301.773 995.037 301.063 996.865C300.356 998.686 299.851 1000.92 299.851 1003.8C299.851 1006.68 300.356 1008.89 301.062 1010.68C301.771 1012.48 302.692 1013.88 303.512 1015.13C304.956 1017.33 306 1018.92 306 1022.53C306 1026.14 304.956 1027.73 303.513 1029.92L303.5 1029.94C301.872 1032.42 299.851 1035.51 299.851 1041.26C299.851 1047.01 301.874 1050.1 303.503 1052.58L303.512 1052.59C304.226 1053.68 304.841 1054.62 305.286 1055.74C305.734 1056.88 306 1058.19 306 1059.99C306 1063.6 304.956 1065.19 303.513 1067.39L303.428 1067.52C301.887 1069.86 300.031 1072.69 299.863 1077.93C299.854 1078.22 299.854 1078.42 299.863 1078.71C300.031 1083.95 301.887 1086.78 303.428 1089.13L303.512 1089.25C304.956 1091.46 306 1093.05 306 1096.65C306 1098.45 305.734 1099.76 305.286 1100.9C304.841 1102.03 304.226 1102.96 303.512 1104.05L303.506 1104.06C301.878 1106.54 299.851 1109.63 299.851 1115.38C299.851 1121.12 301.868 1124.21 303.495 1126.69L303.513 1126.72C304.956 1128.92 306 1130.51 306 1134.11C306 1137.72 304.956 1139.31 303.513 1141.51C302.692 1142.76 301.771 1144.16 301.062 1145.96C300.356 1147.75 299.851 1149.96 299.851 1152.84L299.866 1153.84H266V1153.47V1153.09H266.629Z" stroke="#FBA409" mask="url(#path-73-outside-1_1029_14230)"/>
<mask id="path-74-outside-2_1029_14230" maskUnits="userSpaceOnUse" x="209" y="905.84" width="42" height="249" fill="black">
<rect fill="white" x="209" y="905.84" width="42" height="249"/>
<path d="M249.371 1153.09H216.774L216.776 1152.85C216.778 1149.84 216.247 1147.53 215.505 1145.65C214.765 1143.77 213.821 1142.33 212.982 1141.05C211.616 1138.97 210.629 1137.46 210.629 1134.11C210.629 1130.76 211.616 1129.26 212.981 1127.18L212.984 1127.17C214.676 1124.59 216.778 1121.39 216.778 1115.38C216.778 1109.38 214.676 1106.17 212.987 1103.6L212.982 1103.59C212.291 1102.54 211.695 1101.63 211.282 1100.58C210.871 1099.54 210.629 1098.33 210.629 1096.65C210.629 1093.3 211.616 1091.8 212.98 1089.72L213.066 1089.59C214.627 1087.21 216.501 1084.35 216.749 1079.1H216.778V1077.55H216.749C216.501 1072.29 214.627 1069.44 213.066 1067.06L212.966 1066.9C211.608 1064.83 210.629 1063.33 210.629 1059.99C210.629 1058.31 210.871 1057.1 211.282 1056.06C211.694 1055.01 212.289 1054.11 212.978 1053.06L212.987 1053.04C214.677 1050.47 216.778 1047.26 216.778 1041.26C216.778 1035.25 214.676 1032.05 212.987 1029.47L212.975 1029.46C211.614 1027.38 210.629 1025.88 210.629 1022.53C210.629 1019.18 211.616 1017.67 212.98 1015.59C213.821 1014.31 214.765 1012.87 215.505 1011C216.247 1009.11 216.778 1006.8 216.778 1003.8C216.778 1000.8 216.248 998.461 215.507 996.552C214.768 994.651 213.823 993.184 212.982 991.902C212.304 990.87 211.718 989.95 211.303 988.887C210.892 987.839 210.642 986.636 210.627 985.021L210.629 984.954C210.642 983.339 210.892 982.136 211.302 981.088C211.718 980.025 212.304 979.104 212.982 978.073C213.823 976.791 214.768 975.324 215.507 973.423C216.248 971.514 216.778 969.177 216.778 966.175C216.778 960.244 214.727 957.042 213.049 954.486L212.982 954.383C211.616 952.301 210.629 950.797 210.629 947.446C210.629 944.093 211.615 942.591 212.98 940.513L212.987 940.501C214.676 937.926 216.778 934.721 216.778 928.715C216.778 922.71 214.676 919.505 212.987 916.93L212.981 916.922C211.616 914.843 210.629 913.34 210.629 909.985C210.629 909.457 210.653 908.977 210.697 908.537C210.731 908.204 210.778 907.891 210.836 907.596L210.948 906.84L210.35 906.847L210.287 907.125C210.195 907.533 210.122 907.972 210.074 908.446C210.026 908.921 210 909.431 210 909.985C210 913.593 211.044 915.184 212.488 917.381L212.505 917.407C214.132 919.888 216.149 922.978 216.149 928.715C216.149 934.467 214.122 937.558 212.493 940.042L212.486 940.053C211.043 942.25 210 943.839 210 947.446C210 950.997 211.012 952.592 212.421 954.74L212.488 954.843C214.118 957.326 216.149 960.419 216.149 966.175C216.149 969.055 215.644 971.289 214.937 973.11C214.227 974.938 213.306 976.365 212.488 977.613C211.783 978.686 211.174 979.646 210.733 980.772C210.288 981.913 210.017 983.214 210.001 984.951L210 985.021C210.017 986.761 210.288 988.062 210.734 989.202C211.174 990.33 211.784 991.289 212.488 992.361C213.306 993.609 214.227 995.037 214.937 996.865C215.644 998.686 216.149 1000.92 216.149 1003.8C216.149 1006.68 215.644 1008.89 214.938 1010.68C214.229 1012.48 213.308 1013.88 212.488 1015.13C211.044 1017.33 210 1018.92 210 1022.53C210 1026.14 211.044 1027.73 212.487 1029.92L212.5 1029.94C214.128 1032.42 216.149 1035.51 216.149 1041.26C216.149 1047.01 214.126 1050.1 212.497 1052.58L212.488 1052.59C211.774 1053.68 211.159 1054.62 210.714 1055.74C210.266 1056.88 210 1058.19 210 1059.99C210 1063.6 211.044 1065.19 212.487 1067.39L212.572 1067.52C214.113 1069.86 215.969 1072.69 216.137 1077.93C216.146 1078.22 216.146 1078.42 216.137 1078.71C215.969 1083.95 214.113 1086.78 212.572 1089.13L212.488 1089.25C211.044 1091.46 210 1093.05 210 1096.65C210 1098.45 210.266 1099.76 210.714 1100.9C211.159 1102.03 211.774 1102.96 212.488 1104.05L212.494 1104.06C214.122 1106.54 216.149 1109.63 216.149 1115.38C216.149 1121.12 214.132 1124.21 212.505 1126.69L212.487 1126.72C211.044 1128.92 210 1130.51 210 1134.11C210 1137.72 211.044 1139.31 212.487 1141.51C213.308 1142.76 214.229 1144.16 214.938 1145.96C215.644 1147.75 216.149 1149.96 216.149 1152.84L216.134 1153.84H250V1153.47V1153.09H249.371Z"/>
</mask>
<path d="M249.371 1153.09H216.774L216.776 1152.85C216.778 1149.84 216.247 1147.53 215.505 1145.65C214.765 1143.77 213.821 1142.33 212.982 1141.05C211.616 1138.97 210.629 1137.46 210.629 1134.11C210.629 1130.76 211.616 1129.26 212.981 1127.18L212.984 1127.17C214.676 1124.59 216.778 1121.39 216.778 1115.38C216.778 1109.38 214.676 1106.17 212.987 1103.6L212.982 1103.59C212.291 1102.54 211.695 1101.63 211.282 1100.58C210.871 1099.54 210.629 1098.33 210.629 1096.65C210.629 1093.3 211.616 1091.8 212.98 1089.72L213.066 1089.59C214.627 1087.21 216.501 1084.35 216.749 1079.1H216.778V1077.55H216.749C216.501 1072.29 214.627 1069.44 213.066 1067.06L212.966 1066.9C211.608 1064.83 210.629 1063.33 210.629 1059.99C210.629 1058.31 210.871 1057.1 211.282 1056.06C211.694 1055.01 212.289 1054.11 212.978 1053.06L212.987 1053.04C214.677 1050.47 216.778 1047.26 216.778 1041.26C216.778 1035.25 214.676 1032.05 212.987 1029.47L212.975 1029.46C211.614 1027.38 210.629 1025.88 210.629 1022.53C210.629 1019.18 211.616 1017.67 212.98 1015.59C213.821 1014.31 214.765 1012.87 215.505 1011C216.247 1009.11 216.778 1006.8 216.778 1003.8C216.778 1000.8 216.248 998.461 215.507 996.552C214.768 994.651 213.823 993.184 212.982 991.902C212.304 990.87 211.718 989.95 211.303 988.887C210.892 987.839 210.642 986.636 210.627 985.021L210.629 984.954C210.642 983.339 210.892 982.136 211.302 981.088C211.718 980.025 212.304 979.104 212.982 978.073C213.823 976.791 214.768 975.324 215.507 973.423C216.248 971.514 216.778 969.177 216.778 966.175C216.778 960.244 214.727 957.042 213.049 954.486L212.982 954.383C211.616 952.301 210.629 950.797 210.629 947.446C210.629 944.093 211.615 942.591 212.98 940.513L212.987 940.501C214.676 937.926 216.778 934.721 216.778 928.715C216.778 922.71 214.676 919.505 212.987 916.93L212.981 916.922C211.616 914.843 210.629 913.34 210.629 909.985C210.629 909.457 210.653 908.977 210.697 908.537C210.731 908.204 210.778 907.891 210.836 907.596L210.948 906.84L210.35 906.847L210.287 907.125C210.195 907.533 210.122 907.972 210.074 908.446C210.026 908.921 210 909.431 210 909.985C210 913.593 211.044 915.184 212.488 917.381L212.505 917.407C214.132 919.888 216.149 922.978 216.149 928.715C216.149 934.467 214.122 937.558 212.493 940.042L212.486 940.053C211.043 942.25 210 943.839 210 947.446C210 950.997 211.012 952.592 212.421 954.74L212.488 954.843C214.118 957.326 216.149 960.419 216.149 966.175C216.149 969.055 215.644 971.289 214.937 973.11C214.227 974.938 213.306 976.365 212.488 977.613C211.783 978.686 211.174 979.646 210.733 980.772C210.288 981.913 210.017 983.214 210.001 984.951L210 985.021C210.017 986.761 210.288 988.062 210.734 989.202C211.174 990.33 211.784 991.289 212.488 992.361C213.306 993.609 214.227 995.037 214.937 996.865C215.644 998.686 216.149 1000.92 216.149 1003.8C216.149 1006.68 215.644 1008.89 214.938 1010.68C214.229 1012.48 213.308 1013.88 212.488 1015.13C211.044 1017.33 210 1018.92 210 1022.53C210 1026.14 211.044 1027.73 212.487 1029.92L212.5 1029.94C214.128 1032.42 216.149 1035.51 216.149 1041.26C216.149 1047.01 214.126 1050.1 212.497 1052.58L212.488 1052.59C211.774 1053.68 211.159 1054.62 210.714 1055.74C210.266 1056.88 210 1058.19 210 1059.99C210 1063.6 211.044 1065.19 212.487 1067.39L212.572 1067.52C214.113 1069.86 215.969 1072.69 216.137 1077.93C216.146 1078.22 216.146 1078.42 216.137 1078.71C215.969 1083.95 214.113 1086.78 212.572 1089.13L212.488 1089.25C211.044 1091.46 210 1093.05 210 1096.65C210 1098.45 210.266 1099.76 210.714 1100.9C211.159 1102.03 211.774 1102.96 212.488 1104.05L212.494 1104.06C214.122 1106.54 216.149 1109.63 216.149 1115.38C216.149 1121.12 214.132 1124.21 212.505 1126.69L212.487 1126.72C211.044 1128.92 210 1130.51 210 1134.11C210 1137.72 211.044 1139.31 212.487 1141.51C213.308 1142.76 214.229 1144.16 214.938 1145.96C215.644 1147.75 216.149 1149.96 216.149 1152.84L216.134 1153.84H250V1153.47V1153.09H249.371Z" fill="#FBA409"/>
<path d="M249.371 1153.09H216.774L216.776 1152.85C216.778 1149.84 216.247 1147.53 215.505 1145.65C214.765 1143.77 213.821 1142.33 212.982 1141.05C211.616 1138.97 210.629 1137.46 210.629 1134.11C210.629 1130.76 211.616 1129.26 212.981 1127.18L212.984 1127.17C214.676 1124.59 216.778 1121.39 216.778 1115.38C216.778 1109.38 214.676 1106.17 212.987 1103.6L212.982 1103.59C212.291 1102.54 211.695 1101.63 211.282 1100.58C210.871 1099.54 210.629 1098.33 210.629 1096.65C210.629 1093.3 211.616 1091.8 212.98 1089.72L213.066 1089.59C214.627 1087.21 216.501 1084.35 216.749 1079.1H216.778V1077.55H216.749C216.501 1072.29 214.627 1069.44 213.066 1067.06L212.966 1066.9C211.608 1064.83 210.629 1063.33 210.629 1059.99C210.629 1058.31 210.871 1057.1 211.282 1056.06C211.694 1055.01 212.289 1054.11 212.978 1053.06L212.987 1053.04C214.677 1050.47 216.778 1047.26 216.778 1041.26C216.778 1035.25 214.676 1032.05 212.987 1029.47L212.975 1029.46C211.614 1027.38 210.629 1025.88 210.629 1022.53C210.629 1019.18 211.616 1017.67 212.98 1015.59C213.821 1014.31 214.765 1012.87 215.505 1011C216.247 1009.11 216.778 1006.8 216.778 1003.8C216.778 1000.8 216.248 998.461 215.507 996.552C214.768 994.651 213.823 993.184 212.982 991.902C212.304 990.87 211.718 989.95 211.303 988.887C210.892 987.839 210.642 986.636 210.627 985.021L210.629 984.954C210.642 983.339 210.892 982.136 211.302 981.088C211.718 980.025 212.304 979.104 212.982 978.073C213.823 976.791 214.768 975.324 215.507 973.423C216.248 971.514 216.778 969.177 216.778 966.175C216.778 960.244 214.727 957.042 213.049 954.486L212.982 954.383C211.616 952.301 210.629 950.797 210.629 947.446C210.629 944.093 211.615 942.591 212.98 940.513L212.987 940.501C214.676 937.926 216.778 934.721 216.778 928.715C216.778 922.71 214.676 919.505 212.987 916.93L212.981 916.922C211.616 914.843 210.629 913.34 210.629 909.985C210.629 909.457 210.653 908.977 210.697 908.537C210.731 908.204 210.778 907.891 210.836 907.596L210.948 906.84L210.35 906.847L210.287 907.125C210.195 907.533 210.122 907.972 210.074 908.446C210.026 908.921 210 909.431 210 909.985C210 913.593 211.044 915.184 212.488 917.381L212.505 917.407C214.132 919.888 216.149 922.978 216.149 928.715C216.149 934.467 214.122 937.558 212.493 940.042L212.486 940.053C211.043 942.25 210 943.839 210 947.446C210 950.997 211.012 952.592 212.421 954.74L212.488 954.843C214.118 957.326 216.149 960.419 216.149 966.175C216.149 969.055 215.644 971.289 214.937 973.11C214.227 974.938 213.306 976.365 212.488 977.613C211.783 978.686 211.174 979.646 210.733 980.772C210.288 981.913 210.017 983.214 210.001 984.951L210 985.021C210.017 986.761 210.288 988.062 210.734 989.202C211.174 990.33 211.784 991.289 212.488 992.361C213.306 993.609 214.227 995.037 214.937 996.865C215.644 998.686 216.149 1000.92 216.149 1003.8C216.149 1006.68 215.644 1008.89 214.938 1010.68C214.229 1012.48 213.308 1013.88 212.488 1015.13C211.044 1017.33 210 1018.92 210 1022.53C210 1026.14 211.044 1027.73 212.487 1029.92L212.5 1029.94C214.128 1032.42 216.149 1035.51 216.149 1041.26C216.149 1047.01 214.126 1050.1 212.497 1052.58L212.488 1052.59C211.774 1053.68 211.159 1054.62 210.714 1055.74C210.266 1056.88 210 1058.19 210 1059.99C210 1063.6 211.044 1065.19 212.487 1067.39L212.572 1067.52C214.113 1069.86 215.969 1072.69 216.137 1077.93C216.146 1078.22 216.146 1078.42 216.137 1078.71C215.969 1083.95 214.113 1086.78 212.572 1089.13L212.488 1089.25C211.044 1091.46 210 1093.05 210 1096.65C210 1098.45 210.266 1099.76 210.714 1100.9C211.159 1102.03 211.774 1102.96 212.488 1104.05L212.494 1104.06C214.122 1106.54 216.149 1109.63 216.149 1115.38C216.149 1121.12 214.132 1124.21 212.505 1126.69L212.487 1126.72C211.044 1128.92 210 1130.51 210 1134.11C210 1137.72 211.044 1139.31 212.487 1141.51C213.308 1142.76 214.229 1144.16 214.938 1145.96C215.644 1147.75 216.149 1149.96 216.149 1152.84L216.134 1153.84H250V1153.47V1153.09H249.371Z" stroke="#FBA409" mask="url(#path-74-outside-2_1029_14230)"/>
</svg>
