<svg width="554" height="833" viewBox="0 0 554 833" fill="none" xmlns="http://www.w3.org/2000/svg">
<path d="M438 94.2402H553.574" stroke="#454D7D" stroke-width="2" stroke-miterlimit="22.9256"/>
<path d="M407 275L554 275" stroke="#454D7D" stroke-width="2" stroke-miterlimit="22.9256"/>
<path d="M379 635L554 635" stroke="#454D7D" stroke-width="2" stroke-miterlimit="22.9256"/>
<path d="M324 832L554 832" stroke="#454D7D" stroke-width="2" stroke-miterlimit="22.9256"/>
<path d="M223 662L97 701" stroke="#454D7D" stroke-width="2" stroke-miterlimit="22.9256"/>
<path d="M225.005 584.584V831.854H185.149C185.155 831.649 185.159 831.441 185.159 831.228C185.159 825.308 182.679 822.636 180.688 820.091C179.003 817.938 177.784 816.381 177.784 812.88C177.784 809.378 179.003 807.822 180.688 805.669C182.679 803.122 185.159 799.955 185.159 794.034C185.159 788.113 182.679 784.946 180.688 782.399C179.003 780.247 177.784 778.69 177.784 775.187C177.784 771.684 179.003 770.129 180.688 767.975C182.588 765.544 184.933 762.639 185.143 757.144H185.159V756.34H185.143C184.933 750.846 182.588 747.941 180.688 745.509C179.003 743.357 177.784 741.799 177.784 738.297C177.784 734.794 179.003 733.238 180.688 731.085C182.679 728.539 185.159 725.372 185.159 719.45C185.159 713.529 182.679 710.361 180.688 707.816C179.003 705.662 177.784 704.105 177.784 700.604C177.784 697.102 179.003 695.547 180.688 693.393C182.679 690.85 185.159 687.681 185.159 681.758C185.159 675.841 182.679 672.564 180.688 670.019C179.029 667.901 177.821 666.241 177.784 662.865V662.798C177.821 659.421 179.029 657.761 180.688 655.642C182.679 653.097 185.159 649.822 185.159 643.902C185.159 637.983 182.679 634.813 180.688 632.268C179.003 630.114 177.784 628.56 177.784 625.057C177.784 621.554 179.003 619.999 180.688 617.846C182.679 615.299 185.159 612.132 185.159 606.211C185.159 600.29 182.679 597.123 180.688 594.576C179.003 592.424 177.784 590.868 177.784 587.365C177.784 586.274 177.902 585.373 178.115 584.584H225.005Z" stroke="#FBA409" stroke-width="1.3" stroke-miterlimit="22.9256"/>
<path fill-rule="evenodd" clip-rule="evenodd" d="M237.099 584.585V832.383H225.178V584.585H237.099Z" fill="#E3000F"/>
<path d="M237.099 584.585V832.383H225.178V584.585H237.099Z" stroke="#757EB3" stroke-miterlimit="22.9256"/>
<path fill-rule="evenodd" clip-rule="evenodd" d="M213.086 584.586H225.007V598.285H213.086V584.586Z" fill="#272953"/>
<path d="M213.086 584.586H225.007V598.285H213.086V584.586Z" stroke="#757EB3" stroke-miterlimit="22.9256"/>
<path fill-rule="evenodd" clip-rule="evenodd" d="M194.552 584.586H213.085V598.285H194.552V584.586Z" fill="#E6E6E6"/>
<path fill-rule="evenodd" clip-rule="evenodd" d="M194.552 584.586H213.085V598.285H194.552V584.586Z" fill="white"/>
<path d="M194.552 584.586H213.085V598.285H194.552V584.586Z" stroke="#757EB3" stroke-miterlimit="22.9256"/>
<path d="M194.552 584.586L213.085 598.285" stroke="#757EB3" stroke-miterlimit="22.9256"/>
<path d="M194.552 598.285L213.085 584.586" stroke="#757EB3" stroke-miterlimit="22.9256"/>
<path fill-rule="evenodd" clip-rule="evenodd" d="M223.289 816.784V830.483H211.366L223.289 816.784Z" fill="#272953"/>
<path fill-rule="evenodd" clip-rule="evenodd" d="M183.878 570.038H193.932V17.0051H183.878V570.038Z" fill="#FFEC08"/>
<path d="M183.878 570.038H193.932V17.0051H183.878V570.038Z" stroke="#757EB3" stroke-miterlimit="22.9256"/>
<path fill-rule="evenodd" clip-rule="evenodd" d="M183.878 570.033H193.932V634.071H183.878V570.033Z" fill="#00963F"/>
<path d="M183.878 570.033H193.932V634.071H183.878V570.033Z" stroke="#757EB3" stroke-miterlimit="22.9256"/>
<path fill-rule="evenodd" clip-rule="evenodd" d="M183.859 17.0004V99.9191V103.093V182.567V262.575V471.415V474.59V634.071H157.049C158.352 631.835 159.586 628.964 159.586 624.278V624.26C159.586 618.326 157.606 615.302 156.015 612.79C154.671 610.669 153.698 609.136 153.698 605.682C153.698 602.227 154.671 600.694 156.015 598.571C157.606 596.061 159.586 592.94 159.586 587.103C159.586 581.266 157.606 578.144 156.015 575.634C154.671 573.51 153.698 571.978 153.698 568.525C153.698 565.073 154.671 563.538 156.015 561.416C157.606 558.908 159.586 555.783 159.586 549.948C159.586 544.112 157.606 540.885 156.015 538.376C154.691 536.287 153.728 534.652 153.698 531.322V531.256C153.728 527.927 154.691 526.29 156.015 524.203C157.606 521.693 159.586 518.467 159.586 512.631C159.586 506.795 157.606 503.67 156.015 501.162C154.671 499.04 153.698 497.506 153.698 494.053C153.698 490.601 154.671 489.068 156.015 486.945C161.261 478.665 160.504 474.757 156.015 467.673C154.671 465.551 153.698 464.016 153.698 460.565C153.698 457.112 154.671 455.579 156.015 453.456C157.606 450.947 159.586 447.822 159.586 441.986C159.586 436.153 157.606 432.924 156.015 430.414C154.691 428.327 153.728 426.69 153.698 423.362V423.296C153.728 419.967 154.691 418.331 156.015 416.242C157.606 413.733 159.586 410.503 159.586 404.67C159.586 398.834 157.606 395.71 156.015 393.201C154.671 391.079 153.698 389.544 153.698 386.093C153.698 382.639 154.671 381.107 156.015 378.985C157.606 376.474 159.586 373.352 159.586 367.515C159.586 361.679 157.606 358.557 156.015 356.046C154.671 353.923 153.698 352.39 153.698 348.936C153.698 345.482 154.671 343.948 156.015 341.828C157.606 339.315 159.586 336.293 159.586 330.358V330.339C159.586 324.404 157.606 321.382 156.015 318.871C154.671 316.75 153.698 315.215 153.698 311.761C153.698 308.306 154.671 306.775 156.015 304.651C157.606 302.141 159.586 299.02 159.586 293.183C159.586 287.345 157.606 284.224 156.015 281.713C154.671 279.59 153.698 278.057 153.698 274.604C153.698 271.152 154.671 269.618 156.015 267.496C156.873 266.144 157.842 264.614 158.555 262.575H157.049C158.193 260.611 159.284 258.157 159.532 254.414C159.208 249.578 157.453 246.723 156.015 244.455C154.691 242.367 153.728 240.73 153.698 237.402V237.336C153.703 236.794 153.732 236.297 153.784 235.836C153.727 235.336 153.698 234.79 153.698 234.186C153.698 230.73 154.671 229.198 156.015 227.075C157.459 224.797 159.222 222.016 159.536 217.159C159.222 212.302 157.459 209.518 156.015 207.241C154.671 205.119 153.698 203.586 153.698 200.133C153.698 199.568 153.724 199.055 153.774 198.581C153.724 198.108 153.698 197.594 153.698 197.028C153.698 193.577 154.671 192.042 156.015 189.92C157.209 188.037 158.622 185.81 159.252 182.347L159.222 177.495C159.37 178.265 159.479 179.098 159.537 180.001C159.569 179.507 159.586 178.991 159.586 178.452C159.586 172.616 157.606 169.389 156.015 166.879C154.691 164.792 153.728 163.155 153.698 159.826V159.76C153.728 156.431 154.691 154.795 156.015 152.706C157.606 150.197 159.586 146.969 159.586 141.135C159.586 135.299 157.606 132.174 156.015 129.666C154.671 127.544 153.698 126.009 153.698 122.557C153.698 119.105 154.671 117.571 156.015 115.448C161.261 107.17 160.504 103.26 156.015 96.1767C154.671 94.0551 153.698 92.5193 153.698 89.0677C153.698 85.6151 154.671 84.0828 156.015 81.9596C157.606 79.4516 159.586 76.3261 159.586 70.49C159.586 64.6566 157.606 61.4277 156.015 58.9182C154.691 56.8308 153.728 55.194 153.698 51.8655V51.7997C153.728 48.4712 154.691 46.8348 156.015 44.7462C157.606 42.2362 159.586 39.0087 159.586 33.1735C159.586 27.3375 157.606 24.2141 156.015 21.7048C155.03 20.1508 154.245 18.9098 153.895 17.0004H183.859Z" fill="#CCCCCC"/>
<path d="M183.859 17.0004V99.9191V103.093V182.567V262.575V471.415V474.59V634.071H157.049C158.352 631.835 159.586 628.964 159.586 624.278V624.26C159.586 618.326 157.606 615.302 156.015 612.79C154.671 610.669 153.698 609.136 153.698 605.682C153.698 602.227 154.671 600.694 156.015 598.571C157.606 596.061 159.586 592.94 159.586 587.103C159.586 581.266 157.606 578.144 156.015 575.634C154.671 573.51 153.698 571.978 153.698 568.525C153.698 565.073 154.671 563.538 156.015 561.416C157.606 558.908 159.586 555.783 159.586 549.948C159.586 544.112 157.606 540.885 156.015 538.376C154.691 536.287 153.728 534.652 153.698 531.322V531.256C153.728 527.927 154.691 526.29 156.015 524.203C157.606 521.693 159.586 518.467 159.586 512.631C159.586 506.795 157.606 503.67 156.015 501.162C154.671 499.04 153.698 497.506 153.698 494.053C153.698 490.601 154.671 489.068 156.015 486.945C161.261 478.665 160.504 474.757 156.015 467.673C154.671 465.551 153.698 464.016 153.698 460.565C153.698 457.112 154.671 455.579 156.015 453.456C157.606 450.947 159.586 447.822 159.586 441.986C159.586 436.153 157.606 432.924 156.015 430.414C154.691 428.327 153.728 426.69 153.698 423.362V423.296C153.728 419.967 154.691 418.331 156.015 416.242C157.606 413.733 159.586 410.503 159.586 404.67C159.586 398.834 157.606 395.71 156.015 393.201C154.671 391.079 153.698 389.544 153.698 386.093C153.698 382.639 154.671 381.107 156.015 378.985C157.606 376.474 159.586 373.352 159.586 367.515C159.586 361.679 157.606 358.557 156.015 356.046C154.671 353.923 153.698 352.39 153.698 348.936C153.698 345.482 154.671 343.948 156.015 341.828C157.606 339.315 159.586 336.293 159.586 330.358V330.339C159.586 324.404 157.606 321.382 156.015 318.871C154.671 316.75 153.698 315.215 153.698 311.761C153.698 308.306 154.671 306.775 156.015 304.651C157.606 302.141 159.586 299.02 159.586 293.183C159.586 287.345 157.606 284.224 156.015 281.713C154.671 279.59 153.698 278.057 153.698 274.604C153.698 271.152 154.671 269.618 156.015 267.496C156.873 266.144 157.842 264.614 158.555 262.575H157.049C158.193 260.611 159.284 258.157 159.532 254.414C159.208 249.578 157.453 246.723 156.015 244.455C154.691 242.367 153.728 240.73 153.698 237.402V237.336C153.703 236.794 153.732 236.297 153.784 235.836C153.727 235.336 153.698 234.79 153.698 234.186C153.698 230.73 154.671 229.198 156.015 227.075C157.459 224.797 159.222 222.016 159.536 217.159C159.222 212.302 157.459 209.518 156.015 207.241C154.671 205.119 153.698 203.586 153.698 200.133C153.698 199.568 153.724 199.055 153.774 198.581C153.724 198.108 153.698 197.594 153.698 197.028C153.698 193.577 154.671 192.042 156.015 189.92C157.209 188.037 158.622 185.81 159.252 182.347L159.222 177.495C159.37 178.265 159.479 179.098 159.537 180.001C159.569 179.507 159.586 178.991 159.586 178.452C159.586 172.616 157.606 169.389 156.015 166.879C154.691 164.792 153.728 163.155 153.698 159.826V159.76C153.728 156.431 154.691 154.795 156.015 152.706C157.606 150.197 159.586 146.969 159.586 141.135C159.586 135.299 157.606 132.174 156.015 129.666C154.671 127.544 153.698 126.009 153.698 122.557C153.698 119.105 154.671 117.571 156.015 115.448C161.261 107.17 160.504 103.261 156.015 96.1767C154.671 94.0551 153.698 92.5194 153.698 89.0677C153.698 85.615 154.671 84.0828 156.015 81.9596C157.606 79.4516 159.586 76.3261 159.586 70.49C159.586 64.6566 157.606 61.4277 156.015 58.9182C154.691 56.8308 153.728 55.1939 153.698 51.8656V51.7997C153.728 48.4712 154.691 46.8348 156.015 44.7462C157.606 42.2362 159.586 39.0087 159.586 33.1735C159.586 27.3375 157.606 24.2141 156.015 21.7048C155.03 20.1508 154.245 18.9098 153.895 17.0004H183.859Z" stroke="#757EB3" stroke-miterlimit="22.9256"/>
<path fill-rule="evenodd" clip-rule="evenodd" d="M149.651 17.0027V273.636H124.912C124.231 270.949 122.923 269.155 121.807 267.625C120.463 265.78 119.49 264.448 119.49 261.447C119.49 258.447 120.463 257.115 121.807 255.269C123.398 253.09 125.377 250.373 125.377 245.302C125.377 240.232 123.398 237.427 121.807 235.246C120.483 233.431 119.52 232.01 119.49 229.116V229.059C119.52 226.167 120.483 224.744 121.807 222.929C123.398 220.748 125.377 217.942 125.377 212.872C125.377 207.802 123.398 205.086 121.807 202.905C120.463 201.061 119.49 199.728 119.49 196.728C119.49 193.726 120.463 192.395 121.807 190.551C123.398 188.369 125.377 185.655 125.377 180.584C125.377 175.51 123.398 172.798 121.807 170.616C120.463 168.772 119.49 167.439 119.49 164.437C119.49 161.435 120.463 160.103 121.807 158.259C123.398 156.076 125.377 153.45 125.377 148.293V148.276C125.377 143.119 123.398 140.492 121.807 138.31C120.463 136.466 119.49 135.133 119.49 132.132C119.49 129.129 120.463 127.797 121.807 125.952C123.398 123.771 125.377 121.058 125.377 115.985C125.377 110.912 123.398 108.2 121.807 106.018C120.463 104.172 119.49 102.841 119.49 99.8409C119.49 96.8405 120.463 95.5072 121.807 93.6627C121.934 93.4888 122.064 93.3108 122.195 93.1285L118.786 17.0027H149.651Z" fill="#CCCCCC"/>
<path d="M149.651 17.0027V273.636H124.912C124.231 270.949 122.923 269.155 121.807 267.625C120.463 265.78 119.49 264.448 119.49 261.447C119.49 258.447 120.463 257.115 121.807 255.269C123.398 253.09 125.377 250.373 125.377 245.302C125.377 240.232 123.398 237.427 121.807 235.246C120.483 233.431 119.52 232.01 119.49 229.116V229.059C119.52 226.167 120.483 224.744 121.807 222.929C123.398 220.748 125.377 217.942 125.377 212.872C125.377 207.802 123.398 205.086 121.807 202.905C120.463 201.061 119.49 199.728 119.49 196.728C119.49 193.726 120.463 192.395 121.807 190.551C123.398 188.369 125.377 185.655 125.377 180.584C125.377 175.51 123.398 172.798 121.807 170.616C120.463 168.772 119.49 167.439 119.49 164.437C119.49 161.435 120.463 160.103 121.807 158.259C123.398 156.076 125.377 153.45 125.377 148.293V148.276C125.377 143.119 123.398 140.492 121.807 138.31C120.463 136.466 119.49 135.133 119.49 132.132C119.49 129.129 120.463 127.797 121.807 125.952C123.398 123.771 125.377 121.058 125.377 115.985C125.377 110.912 123.398 108.2 121.807 106.018C120.463 104.172 119.49 102.841 119.49 99.8409C119.49 96.8405 120.463 95.5072 121.807 93.6627C121.934 93.4888 122.064 93.3108 122.195 93.1285L118.786 17.0027H149.651Z" stroke="#757EB3" stroke-miterlimit="22.9256"/>
<path fill-rule="evenodd" clip-rule="evenodd" d="M149.702 92.9834H159.756V17.004H149.702V92.9834Z" fill="#00963F"/>
<path d="M149.702 92.9834H159.756V17.004H149.702V92.9834Z" stroke="#757EB3" stroke-miterlimit="22.9256"/>
<path fill-rule="evenodd" clip-rule="evenodd" d="M149.702 247.236H159.756V273.636H149.702V247.236Z" fill="#E3000F"/>
<path d="M149.702 247.236H159.756V273.636H149.702V247.236Z" stroke="#757EB3" stroke-miterlimit="22.9256"/>
<path fill-rule="evenodd" clip-rule="evenodd" d="M149.702 247.232H159.756V91.9096H149.702V247.232Z" fill="#FFEC08"/>
<path d="M149.702 247.232H159.756V91.9096H149.702V247.232Z" stroke="#757EB3" stroke-miterlimit="22.9256"/>
<path fill-rule="evenodd" clip-rule="evenodd" d="M112.161 17.004V92.9834H84.8095C86.2883 90.9104 87.8875 88.2563 87.8875 83.6976C87.8875 78.627 85.9079 75.8216 84.3169 73.6411C82.9929 71.8272 82.0296 70.404 82 67.5106V67.4543C82.0296 64.5602 82.9929 63.1381 84.3169 61.3238C85.9079 59.1428 87.8875 56.338 87.8875 51.2682C87.8875 46.1961 85.9079 43.4811 84.3169 41.3C82.9727 39.4558 82 38.1233 82 35.1228C82 32.1228 82.9727 30.7893 84.3169 28.9455C85.9079 26.7627 87.8875 24.05 87.8875 18.9782C87.8875 18.276 87.8497 17.6204 87.7804 17.004H112.161Z" fill="#CCCCCC"/>
<path d="M112.161 17.004V92.9834H84.8095C86.2883 90.9104 87.8875 88.2563 87.8875 83.6976C87.8875 78.627 85.9079 75.8216 84.3169 73.6411C82.9929 71.8272 82.0296 70.404 82 67.5106V67.4543C82.0296 64.5602 82.9929 63.1381 84.3169 61.3238C85.9079 59.1428 87.8875 56.338 87.8875 51.2682C87.8875 46.1961 85.9079 43.4811 84.3169 41.3C82.9727 39.4558 82 38.1233 82 35.1228C82 32.1228 82.9727 30.7893 84.3169 28.9455C85.9079 26.7627 87.8875 24.05 87.8875 18.9782C87.8875 18.276 87.8497 17.6204 87.7804 17.004H112.161Z" stroke="#757EB3" stroke-miterlimit="22.9256"/>
<path fill-rule="evenodd" clip-rule="evenodd" d="M112.683 92.9834H122.736V17.004H112.683V92.9834Z" fill="#E3000F"/>
<path d="M112.683 92.9834H122.736V17.004H112.683V92.9834Z" stroke="#757EB3" stroke-miterlimit="22.9256"/>
<path d="M335.994 584.584V831.854H375.851C375.844 831.649 375.84 831.441 375.84 831.228C375.84 825.308 378.32 822.636 380.312 820.091C381.997 817.938 383.215 816.381 383.215 812.88C383.215 809.378 381.997 807.822 380.312 805.669C378.32 803.122 375.84 799.955 375.84 794.034C375.84 788.113 378.32 784.946 380.312 782.399C381.997 780.247 383.215 778.69 383.215 775.187C383.215 771.684 381.997 770.129 380.312 767.975C378.411 765.544 376.066 762.639 375.856 757.144H375.84V756.34H375.856C376.066 750.846 378.411 747.941 380.312 745.509C381.997 743.357 383.215 741.799 383.215 738.297C383.215 734.794 381.997 733.238 380.312 731.085C378.32 728.539 375.84 725.372 375.84 719.45C375.84 713.529 378.32 710.361 380.312 707.816C381.997 705.662 383.215 704.105 383.215 700.604C383.215 697.102 381.997 695.547 380.312 693.393C378.32 690.85 375.84 687.681 375.84 681.758C375.84 675.841 378.32 672.564 380.312 670.019C381.97 667.901 383.178 666.241 383.215 662.865V662.798C383.178 659.421 381.97 657.761 380.312 655.642C378.32 653.097 375.84 649.822 375.84 643.902C375.84 637.983 378.32 634.813 380.312 632.268C381.997 630.114 383.215 628.56 383.215 625.057C383.215 621.554 381.997 619.999 380.312 617.846C378.32 615.299 375.84 612.132 375.84 606.211C375.84 600.29 378.32 597.123 380.312 594.576C381.997 592.424 383.215 590.868 383.215 587.365C383.215 586.274 383.097 585.373 382.884 584.584H335.994Z" stroke="#FBA409" stroke-width="1.3" stroke-miterlimit="22.9256"/>
<path fill-rule="evenodd" clip-rule="evenodd" d="M323.9 584.585V832.383H335.822V584.585H323.9Z" fill="#E3000F"/>
<path d="M323.9 584.585V832.383H335.822V584.585H323.9Z" stroke="#757EB3" stroke-miterlimit="22.9256"/>
<path fill-rule="evenodd" clip-rule="evenodd" d="M347.915 584.586H335.994V598.285H347.915V584.586Z" fill="#272953"/>
<path d="M347.915 584.586H335.994V598.285H347.915V584.586Z" stroke="#757EB3" stroke-miterlimit="22.9256"/>
<path fill-rule="evenodd" clip-rule="evenodd" d="M366.445 584.586H347.912V598.285H366.445V584.586Z" fill="#E6E6E6"/>
<path fill-rule="evenodd" clip-rule="evenodd" d="M366.445 584.586H347.912V598.285H366.445V584.586Z" fill="white"/>
<path d="M366.445 584.586H347.912V598.285H366.445V584.586Z" stroke="#757EB3" stroke-miterlimit="22.9256"/>
<path d="M366.445 584.586L347.912 598.285" stroke="#757EB3" stroke-miterlimit="22.9256"/>
<path d="M366.445 598.285L347.912 584.586" stroke="#757EB3" stroke-miterlimit="22.9256"/>
<path fill-rule="evenodd" clip-rule="evenodd" d="M337.273 816.784V830.483H349.196L337.273 816.784Z" fill="#272953"/>
<path fill-rule="evenodd" clip-rule="evenodd" d="M377.12 570.038H367.066V17.0051H377.12V570.038Z" fill="#FFEC08"/>
<path d="M377.12 570.038H367.066V17.0051H377.12V570.038Z" stroke="#757EB3" stroke-miterlimit="22.9256"/>
<path fill-rule="evenodd" clip-rule="evenodd" d="M377.12 570.033H367.066V634.071H377.12V570.033Z" fill="#00963F"/>
<path d="M377.12 570.033H367.066V634.071H377.12V570.033Z" stroke="#757EB3" stroke-miterlimit="22.9256"/>
<path fill-rule="evenodd" clip-rule="evenodd" d="M377.139 17.0004V99.9191V103.093V182.567V262.575V471.415V474.59V634.071H403.949C402.646 631.835 401.412 628.964 401.412 624.278V624.26C401.412 618.326 403.392 615.302 404.983 612.79C406.327 610.669 407.3 609.136 407.3 605.682C407.3 602.227 406.327 600.694 404.983 598.571C403.392 596.061 401.412 592.94 401.412 587.103C401.412 581.266 403.392 578.144 404.983 575.634C406.327 573.51 407.3 571.978 407.3 568.525C407.3 565.073 406.327 563.538 404.983 561.416C403.392 558.908 401.412 555.783 401.412 549.948C401.412 544.112 403.392 540.885 404.983 538.376C406.307 536.287 407.27 534.652 407.3 531.322V531.256C407.27 527.927 406.307 526.29 404.983 524.203C403.392 521.693 401.412 518.467 401.412 512.631C401.412 506.795 403.392 503.67 404.983 501.162C406.327 499.04 407.3 497.506 407.3 494.053C407.3 490.601 406.327 489.068 404.983 486.945C399.737 478.665 400.494 474.757 404.983 467.673C406.327 465.551 407.3 464.016 407.3 460.565C407.3 457.112 406.327 455.579 404.983 453.456C403.392 450.947 401.412 447.822 401.412 441.986C401.412 436.153 403.392 432.924 404.983 430.414C406.307 428.327 407.27 426.69 407.3 423.362V423.296C407.27 419.967 406.307 418.331 404.983 416.242C403.392 413.733 401.412 410.503 401.412 404.67C401.412 398.834 403.392 395.71 404.983 393.201C406.327 391.079 407.3 389.544 407.3 386.093C407.3 382.639 406.327 381.107 404.983 378.985C403.392 376.474 401.412 373.352 401.412 367.515C401.412 361.679 403.392 358.557 404.983 356.046C406.327 353.923 407.3 352.39 407.3 348.936C407.3 345.482 406.327 343.948 404.983 341.828C403.392 339.315 401.412 336.293 401.412 330.358V330.339C401.412 324.404 403.392 321.382 404.983 318.871C406.327 316.75 407.3 315.215 407.3 311.761C407.3 308.306 406.327 306.775 404.983 304.651C403.392 302.141 401.412 299.02 401.412 293.183C401.412 287.345 403.392 284.224 404.983 281.713C406.327 279.59 407.3 278.057 407.3 274.604C407.3 271.152 406.327 269.618 404.983 267.496C404.125 266.144 403.155 264.614 402.443 262.575H403.949C402.805 260.611 401.714 258.157 401.465 254.414C401.79 249.578 403.545 246.723 404.983 244.455C406.307 242.367 407.27 240.73 407.3 237.402V237.336C407.295 236.794 407.265 236.297 407.214 235.836C407.271 235.336 407.3 234.79 407.3 234.186C407.3 230.73 406.327 229.198 404.983 227.075C403.539 224.797 401.776 222.016 401.461 217.159C401.776 212.302 403.539 209.518 404.983 207.241C406.327 205.119 407.3 203.586 407.3 200.133C407.3 199.568 407.273 199.055 407.224 198.581C407.273 198.108 407.3 197.594 407.3 197.028C407.3 193.577 406.327 192.042 404.983 189.92C403.789 188.037 402.376 185.81 401.745 182.347L401.776 177.495C401.628 178.265 401.519 179.098 401.461 180.001C401.429 179.507 401.412 178.991 401.412 178.452C401.412 172.616 403.392 169.389 404.983 166.879C406.307 164.792 407.27 163.155 407.3 159.826V159.76C407.27 156.431 406.307 154.795 404.983 152.706C403.392 150.197 401.412 146.969 401.412 141.135C401.412 135.299 403.392 132.174 404.983 129.666C406.327 127.544 407.3 126.009 407.3 122.557C407.3 119.105 406.327 117.571 404.983 115.448C399.737 107.17 400.494 103.26 404.983 96.1767C406.327 94.0551 407.3 92.5193 407.3 89.0677C407.3 85.6151 406.327 84.0828 404.983 81.9596C403.392 79.4516 401.412 76.3261 401.412 70.49C401.412 64.6566 403.392 61.4277 404.983 58.9182C406.307 56.8308 407.27 55.194 407.3 51.8655V51.7997C407.27 48.4712 406.307 46.8348 404.983 44.7462C403.392 42.2362 401.412 39.0087 401.412 33.1735C401.412 27.3375 403.392 24.2141 404.983 21.7048C405.968 20.1508 406.753 18.9098 407.103 17.0004H377.139Z" fill="#CCCCCC"/>
<path d="M377.139 17.0004V99.9191V103.093V182.567V262.575V471.415V474.59V634.071H403.949C402.646 631.835 401.412 628.964 401.412 624.278V624.26C401.412 618.326 403.392 615.302 404.983 612.79C406.327 610.669 407.3 609.136 407.3 605.682C407.3 602.227 406.327 600.694 404.983 598.571C403.392 596.061 401.412 592.94 401.412 587.103C401.412 581.266 403.392 578.144 404.983 575.634C406.327 573.51 407.3 571.978 407.3 568.525C407.3 565.073 406.327 563.538 404.983 561.416C403.392 558.908 401.412 555.783 401.412 549.948C401.412 544.112 403.392 540.885 404.983 538.376C406.307 536.287 407.27 534.652 407.3 531.322V531.256C407.27 527.927 406.307 526.29 404.983 524.203C403.392 521.693 401.412 518.467 401.412 512.631C401.412 506.795 403.392 503.67 404.983 501.162C406.327 499.04 407.3 497.506 407.3 494.053C407.3 490.601 406.327 489.068 404.983 486.945C399.737 478.665 400.494 474.757 404.983 467.673C406.327 465.551 407.3 464.016 407.3 460.565C407.3 457.112 406.327 455.579 404.983 453.456C403.392 450.947 401.412 447.822 401.412 441.986C401.412 436.153 403.392 432.924 404.983 430.414C406.307 428.327 407.27 426.69 407.3 423.362V423.296C407.27 419.967 406.307 418.331 404.983 416.242C403.392 413.733 401.412 410.503 401.412 404.67C401.412 398.834 403.392 395.71 404.983 393.201C406.327 391.079 407.3 389.544 407.3 386.093C407.3 382.639 406.327 381.107 404.983 378.985C403.392 376.474 401.412 373.352 401.412 367.515C401.412 361.679 403.392 358.557 404.983 356.046C406.327 353.923 407.3 352.39 407.3 348.936C407.3 345.482 406.327 343.948 404.983 341.828C403.392 339.315 401.412 336.293 401.412 330.358V330.339C401.412 324.404 403.392 321.382 404.983 318.871C406.327 316.75 407.3 315.215 407.3 311.761C407.3 308.306 406.327 306.775 404.983 304.651C403.392 302.141 401.412 299.02 401.412 293.183C401.412 287.345 403.392 284.224 404.983 281.713C406.327 279.59 407.3 278.057 407.3 274.604C407.3 271.152 406.327 269.618 404.983 267.496C404.125 266.144 403.155 264.614 402.443 262.575H403.949C402.805 260.611 401.714 258.157 401.465 254.414C401.79 249.578 403.545 246.723 404.983 244.455C406.307 242.367 407.27 240.73 407.3 237.402V237.336C407.295 236.794 407.265 236.297 407.214 235.836C407.271 235.336 407.3 234.79 407.3 234.186C407.3 230.73 406.327 229.198 404.983 227.075C403.539 224.797 401.776 222.016 401.461 217.159C401.776 212.302 403.539 209.518 404.983 207.241C406.327 205.119 407.3 203.586 407.3 200.133C407.3 199.568 407.273 199.055 407.224 198.581C407.273 198.108 407.3 197.594 407.3 197.028C407.3 193.577 406.327 192.042 404.983 189.92C403.789 188.037 402.376 185.81 401.745 182.347L401.776 177.495C401.628 178.265 401.519 179.098 401.461 180.001C401.429 179.507 401.412 178.991 401.412 178.452C401.412 172.616 403.392 169.389 404.983 166.879C406.307 164.792 407.27 163.155 407.3 159.826V159.76C407.27 156.431 406.307 154.795 404.983 152.706C403.392 150.197 401.412 146.969 401.412 141.135C401.412 135.299 403.392 132.174 404.983 129.666C406.327 127.544 407.3 126.009 407.3 122.557C407.3 119.105 406.327 117.571 404.983 115.448C399.737 107.17 400.494 103.261 404.983 96.1767C406.327 94.0551 407.3 92.5194 407.3 89.0677C407.3 85.615 406.327 84.0828 404.983 81.9596C403.392 79.4516 401.412 76.3261 401.412 70.49C401.412 64.6566 403.392 61.4277 404.983 58.9182C406.307 56.8308 407.27 55.1939 407.3 51.8656V51.7997C407.27 48.4712 406.307 46.8348 404.983 44.7462C403.392 42.2362 401.412 39.0087 401.412 33.1735C401.412 27.3375 403.392 24.2141 404.983 21.7048C405.968 20.1508 406.753 18.9098 407.103 17.0004H377.139Z" stroke="#757EB3" stroke-miterlimit="22.9256"/>
<path fill-rule="evenodd" clip-rule="evenodd" d="M411.348 17.0027V273.636H436.087C436.767 270.949 438.075 269.155 439.192 267.625C440.536 265.78 441.509 264.448 441.509 261.447C441.509 258.447 440.536 257.115 439.192 255.269C437.601 253.09 435.621 250.373 435.621 245.302C435.621 240.232 437.601 237.427 439.192 235.246C440.516 233.431 441.479 232.01 441.509 229.116V229.059C441.479 226.167 440.516 224.744 439.192 222.929C437.601 220.748 435.621 217.942 435.621 212.872C435.621 207.802 437.601 205.086 439.192 202.905C440.536 201.061 441.509 199.728 441.509 196.728C441.509 193.726 440.536 192.395 439.192 190.551C437.601 188.369 435.621 185.655 435.621 180.584C435.621 175.51 437.601 172.798 439.192 170.616C440.536 168.772 441.509 167.439 441.509 164.437C441.509 161.435 440.536 160.103 439.192 158.259C437.601 156.076 435.621 153.45 435.621 148.293V148.276C435.621 143.119 437.601 140.492 439.192 138.31C440.536 136.466 441.509 135.133 441.509 132.132C441.509 129.129 440.536 127.797 439.192 125.952C437.601 123.771 435.621 121.058 435.621 115.985C435.621 110.912 437.601 108.2 439.192 106.018C440.536 104.172 441.509 102.841 441.509 99.8409C441.509 96.8405 440.536 95.5072 439.192 93.6627C439.065 93.4888 438.934 93.3108 438.804 93.1285L442.212 17.0027H411.348Z" fill="#CCCCCC"/>
<path d="M411.348 17.0027V273.636H436.087C436.767 270.949 438.075 269.155 439.192 267.625C440.536 265.78 441.509 264.448 441.509 261.447C441.509 258.447 440.536 257.115 439.192 255.269C437.601 253.09 435.621 250.373 435.621 245.302C435.621 240.232 437.601 237.427 439.192 235.246C440.516 233.431 441.479 232.01 441.509 229.116V229.059C441.479 226.167 440.516 224.744 439.192 222.929C437.601 220.748 435.621 217.942 435.621 212.872C435.621 207.802 437.601 205.086 439.192 202.905C440.536 201.061 441.509 199.728 441.509 196.728C441.509 193.726 440.536 192.395 439.192 190.551C437.601 188.369 435.621 185.655 435.621 180.584C435.621 175.51 437.601 172.798 439.192 170.616C440.536 168.772 441.509 167.439 441.509 164.437C441.509 161.435 440.536 160.103 439.192 158.259C437.601 156.076 435.621 153.45 435.621 148.293V148.276C435.621 143.119 437.601 140.492 439.192 138.31C440.536 136.466 441.509 135.133 441.509 132.132C441.509 129.129 440.536 127.797 439.192 125.952C437.601 123.771 435.621 121.058 435.621 115.985C435.621 110.912 437.601 108.2 439.192 106.018C440.536 104.172 441.509 102.841 441.509 99.8409C441.509 96.8405 440.536 95.5072 439.192 93.6627C439.065 93.4888 438.934 93.3108 438.804 93.1285L442.212 17.0027H411.348Z" stroke="#757EB3" stroke-miterlimit="22.9256"/>
<path fill-rule="evenodd" clip-rule="evenodd" d="M411.298 92.9834H401.244V17.004H411.298V92.9834Z" fill="#00963F"/>
<path d="M411.298 92.9834H401.244V17.004H411.298V92.9834Z" stroke="#757EB3" stroke-miterlimit="22.9256"/>
<path fill-rule="evenodd" clip-rule="evenodd" d="M411.298 247.236H401.244V273.636H411.298V247.236Z" fill="#E3000F"/>
<path d="M411.298 247.236H401.244V273.636H411.298V247.236Z" stroke="#757EB3" stroke-miterlimit="22.9256"/>
<path fill-rule="evenodd" clip-rule="evenodd" d="M411.298 247.232H401.244V91.9096H411.298V247.232Z" fill="#FFEC08"/>
<path d="M411.298 247.232H401.244V91.9096H411.298V247.232Z" stroke="#757EB3" stroke-miterlimit="22.9256"/>
<path fill-rule="evenodd" clip-rule="evenodd" d="M448.84 17.004V92.9834H476.191C474.712 90.9104 473.113 88.2563 473.113 83.6976C473.113 78.627 475.093 75.8216 476.684 73.6411C478.008 71.8272 478.971 70.404 479.001 67.5106V67.4543C478.971 64.5602 478.008 63.1381 476.684 61.3238C475.093 59.1428 473.113 56.338 473.113 51.2682C473.113 46.1961 475.093 43.4811 476.684 41.3C478.028 39.4558 479.001 38.1233 479.001 35.1228C479.001 32.1228 478.028 30.7893 476.684 28.9455C475.093 26.7627 473.113 24.05 473.113 18.9782C473.113 18.276 473.151 17.6204 473.221 17.004H448.84Z" fill="#CCCCCC"/>
<path d="M448.84 17.004V92.9834H476.191C474.712 90.9104 473.113 88.2563 473.113 83.6976C473.113 78.627 475.093 75.8216 476.684 73.6411C478.008 71.8272 478.971 70.404 479.001 67.5106V67.4543C478.971 64.5602 478.008 63.1381 476.684 61.3238C475.093 59.1428 473.113 56.338 473.113 51.2682C473.113 46.1961 475.093 43.4811 476.684 41.3C478.028 39.4558 479.001 38.1233 479.001 35.1228C479.001 32.1228 478.028 30.7893 476.684 28.9455C475.093 26.7627 473.113 24.05 473.113 18.9782C473.113 18.276 473.151 17.6204 473.221 17.004H448.84Z" stroke="#757EB3" stroke-miterlimit="22.9256"/>
<path fill-rule="evenodd" clip-rule="evenodd" d="M448.317 92.9834H438.264V17.004H448.317V92.9834Z" fill="#E3000F"/>
<path d="M448.317 92.9834H438.264V17.004H448.317V92.9834Z" stroke="#757EB3" stroke-miterlimit="22.9256"/>
<path d="M184 505L69 470" stroke="#454D7D" stroke-width="2" stroke-miterlimit="22.9256"/>
<path d="M150 247L35 212" stroke="#454D7D" stroke-width="2" stroke-miterlimit="22.9256"/>
<path d="M116 36L0.999998 1" stroke="#454D7D" stroke-width="2" stroke-miterlimit="22.9256"/>
</svg>
