<svg width="474" height="950" viewBox="0 0 474 950" fill="none" xmlns="http://www.w3.org/2000/svg">
<path fill-rule="evenodd" clip-rule="evenodd" d="M171.988 650.357H181.784V2.83887H171.988V650.357Z" fill="#FFEC08"/>
<path d="M171.988 650.357H181.784V2.83885H171.988V650.357Z" stroke="#757EB3" stroke-miterlimit="22.9256"/>
<path fill-rule="evenodd" clip-rule="evenodd" d="M171.988 650.362H181.784V700.901H171.988V650.362Z" fill="#00963F"/>
<path d="M171.988 650.362H181.784V700.901H171.988V650.362Z" stroke="#757EB3" stroke-miterlimit="22.9256"/>
<path fill-rule="evenodd" clip-rule="evenodd" d="M171.969 2.84308V279.342V281.847V344.569V407.712V572.531V575.036V700.901H145.847C147.116 699.136 148.318 696.871 148.318 693.172V693.158C148.318 688.474 146.39 686.089 144.839 684.107C143.53 682.432 142.582 681.222 142.582 678.496C142.582 675.769 143.53 674.56 144.839 672.885C146.39 670.903 148.318 668.44 148.318 663.833C148.318 659.226 146.39 656.763 144.839 654.781C143.53 653.106 142.582 651.897 142.582 649.171C142.582 646.447 143.53 645.236 144.839 643.561C146.39 641.582 148.318 639.116 148.318 634.51C148.318 629.905 146.39 627.357 144.839 625.377C143.549 623.73 142.611 622.438 142.582 619.81V619.758C142.611 617.131 143.549 615.84 144.839 614.192C146.39 612.211 148.318 609.664 148.318 605.059C148.318 600.453 146.39 597.987 144.839 596.008C143.53 594.333 142.582 593.122 142.582 590.398C142.582 587.673 143.53 586.462 144.839 584.787C149.95 578.253 149.213 575.168 144.839 569.578C143.53 567.903 142.582 566.692 142.582 563.968C142.582 561.243 143.53 560.033 144.839 558.357C146.39 556.378 148.318 553.911 148.318 549.305C148.318 544.702 146.39 542.154 144.839 540.173C143.549 538.525 142.611 537.234 142.582 534.606V534.554C142.611 531.928 143.549 530.636 144.839 528.988C146.39 527.007 148.318 524.459 148.318 519.855C148.318 515.249 146.39 512.783 144.839 510.804C143.53 509.129 142.582 507.918 142.582 505.194C142.582 502.468 143.53 501.259 144.839 499.584C146.39 497.602 148.318 495.139 148.318 490.532C148.318 485.925 146.39 483.462 144.839 481.48C143.53 479.805 142.582 478.596 142.582 475.869C142.582 473.144 143.53 471.933 144.839 470.259C146.39 468.276 148.318 465.891 148.318 461.207V461.192C148.318 456.509 146.39 454.123 144.839 452.141C143.53 450.467 142.582 449.257 142.582 446.531C142.582 443.804 143.53 442.595 144.839 440.919C146.39 438.938 148.318 436.474 148.318 431.868C148.318 427.261 146.39 424.798 144.839 422.816C143.53 421.141 142.582 419.931 142.582 417.206C142.582 414.481 143.53 413.27 144.839 411.596C145.675 410.529 146.62 409.321 147.314 407.712H145.847C146.962 406.162 148.024 404.225 148.266 401.271C147.95 397.454 146.24 395.201 144.839 393.412C143.549 391.764 142.611 390.472 142.582 387.845V387.793C142.587 387.365 142.615 386.974 142.666 386.61C142.61 386.215 142.582 385.784 142.582 385.307C142.582 382.58 143.53 381.371 144.839 379.695C146.246 377.897 147.964 375.703 148.27 371.869C147.964 368.035 146.246 365.838 144.839 364.042C143.53 362.367 142.582 361.157 142.582 358.432C142.582 357.986 142.607 357.581 142.655 357.207C142.607 356.833 142.582 356.428 142.582 355.982C142.582 353.258 143.53 352.047 144.839 350.372C146.003 348.886 147.379 347.127 147.994 344.395L147.964 340.566C148.108 341.173 148.214 341.83 148.271 342.543C148.302 342.153 148.318 341.747 148.318 341.321C148.318 336.716 146.39 334.168 144.839 332.188C143.549 330.54 142.611 329.248 142.582 326.621V326.569C142.611 323.942 143.549 322.651 144.839 321.002C146.39 319.022 148.318 316.475 148.318 311.87C148.318 307.264 146.39 304.798 144.839 302.819C143.53 301.143 142.582 299.933 142.582 297.208C142.582 294.484 143.53 293.273 144.839 291.598C149.95 285.064 149.213 281.979 144.839 276.389C143.53 274.713 142.582 273.503 142.582 270.778C142.582 268.054 143.53 266.843 144.839 265.168C146.39 263.189 148.318 260.722 148.318 256.116C148.318 251.512 146.39 248.964 144.839 246.984C143.549 245.336 142.611 244.045 142.582 241.417V241.365C142.611 238.739 143.549 237.447 144.839 235.799C146.39 233.818 148.318 231.27 148.318 226.665C148.318 222.06 146.39 219.594 144.839 217.615C143.53 215.939 142.582 214.729 142.582 212.004C142.582 209.279 143.53 208.07 144.839 206.395C146.39 204.413 148.318 201.949 148.318 197.343C148.318 192.736 146.39 190.272 144.839 188.291C143.53 186.616 142.582 185.406 142.582 182.68C142.582 179.954 143.53 178.744 144.839 177.07C146.39 175.087 148.318 172.702 148.318 168.018V168.003C148.318 163.319 146.39 160.934 144.839 158.952C143.53 157.278 142.582 156.067 142.582 153.341C142.582 150.615 143.53 149.406 144.839 147.73C146.39 145.749 148.318 143.285 148.318 138.678C148.318 134.072 146.39 131.608 144.839 129.627C143.53 127.951 142.582 126.742 142.582 124.016C142.582 121.292 143.53 120.081 144.839 118.406C146.39 116.427 148.318 113.961 148.318 109.355C148.318 104.75 146.39 102.203 144.839 100.222C143.549 98.5746 142.611 97.283 142.582 94.6554V94.6038C142.611 91.9765 143.549 90.6854 144.839 89.0367C146.39 87.0566 148.318 84.509 148.318 79.9045C148.318 75.2987 146.39 72.8321 144.839 70.8528C143.53 69.1779 142.582 67.9671 142.582 65.2428C142.582 62.5181 143.53 61.3075 144.839 59.6323C146.39 57.6506 148.318 55.1868 148.318 50.5807C148.318 49.3755 148.187 48.3177 147.964 47.3763L147.97 2.84308H171.969Z" fill="#CCCCCC"/>
<path d="M171.969 2.84309V279.342V281.847V344.569V407.712V572.531V575.037V700.901H145.847C147.116 699.136 148.318 696.871 148.318 693.172V693.158C148.318 688.474 146.39 686.089 144.839 684.107C143.53 682.432 142.582 681.222 142.582 678.496C142.582 675.769 143.53 674.56 144.839 672.885C146.39 670.903 148.318 668.44 148.318 663.833C148.318 659.226 146.39 656.763 144.839 654.781C143.53 653.106 142.582 651.897 142.582 649.171C142.582 646.447 143.53 645.236 144.839 643.561C146.39 641.582 148.318 639.116 148.318 634.51C148.318 629.905 146.39 627.357 144.839 625.377C143.549 623.73 142.611 622.438 142.582 619.81V619.758C142.611 617.131 143.549 615.84 144.839 614.192C146.39 612.211 148.318 609.664 148.318 605.059C148.318 600.453 146.39 597.987 144.839 596.008C143.53 594.333 142.582 593.122 142.582 590.398C142.582 587.673 143.53 586.462 144.839 584.787C149.95 578.253 149.213 575.168 144.839 569.578C143.53 567.903 142.582 566.692 142.582 563.968C142.582 561.243 143.53 560.033 144.839 558.357C146.39 556.378 148.318 553.911 148.318 549.305C148.318 544.702 146.39 542.154 144.839 540.173C143.549 538.525 142.611 537.234 142.582 534.606V534.554C142.611 531.928 143.549 530.636 144.839 528.988C146.39 527.007 148.318 524.459 148.318 519.855C148.318 515.249 146.39 512.783 144.839 510.804C143.53 509.129 142.582 507.918 142.582 505.194C142.582 502.468 143.53 501.259 144.839 499.584C146.39 497.602 148.318 495.139 148.318 490.532C148.318 485.925 146.39 483.462 144.839 481.48C143.53 479.805 142.582 478.596 142.582 475.869C142.582 473.144 143.53 471.933 144.839 470.259C146.39 468.276 148.318 465.891 148.318 461.207V461.192C148.318 456.509 146.39 454.123 144.839 452.141C143.53 450.467 142.582 449.257 142.582 446.531C142.582 443.804 143.53 442.595 144.839 440.919C146.39 438.938 148.318 436.474 148.318 431.868C148.318 427.261 146.39 424.798 144.839 422.816C143.53 421.141 142.582 419.931 142.582 417.206C142.582 414.481 143.53 413.27 144.839 411.596C145.675 410.529 146.62 409.321 147.314 407.712H145.847C146.962 406.162 148.024 404.225 148.266 401.271C147.95 397.454 146.24 395.201 144.839 393.412C143.549 391.764 142.611 390.472 142.582 387.845V387.793C142.587 387.365 142.615 386.974 142.666 386.61C142.61 386.215 142.582 385.784 142.582 385.307C142.582 382.58 143.53 381.371 144.839 379.695C146.246 377.897 147.964 375.703 148.27 371.869C147.964 368.035 146.246 365.838 144.839 364.042C143.53 362.367 142.582 361.157 142.582 358.432C142.582 357.986 142.607 357.581 142.655 357.207C142.607 356.834 142.582 356.428 142.582 355.982C142.582 353.258 143.53 352.047 144.839 350.372C146.003 348.886 147.379 347.127 147.994 344.395L147.964 340.566C148.108 341.173 148.214 341.83 148.271 342.543C148.302 342.153 148.318 341.747 148.318 341.321C148.318 336.716 146.39 334.168 144.839 332.188C143.549 330.54 142.611 329.248 142.582 326.621V326.569C142.611 323.942 143.549 322.651 144.839 321.002C146.39 319.022 148.318 316.475 148.318 311.87C148.318 307.264 146.39 304.798 144.839 302.819C143.53 301.143 142.582 299.933 142.582 297.208C142.582 294.484 143.53 293.273 144.839 291.598C149.95 285.064 149.213 281.979 144.839 276.389C143.53 274.713 142.582 273.503 142.582 270.778C142.582 268.054 143.53 266.843 144.839 265.168C146.39 263.189 148.318 260.722 148.318 256.116C148.318 251.512 146.39 248.964 144.839 246.984C143.549 245.336 142.611 244.045 142.582 241.417V241.365C142.611 238.739 143.549 237.447 144.839 235.799C146.39 233.818 148.318 231.27 148.318 226.665C148.318 222.06 146.39 219.594 144.839 217.615C143.53 215.939 142.582 214.729 142.582 212.004C142.582 209.279 143.53 208.07 144.839 206.395C146.39 204.413 148.318 201.949 148.318 197.343C148.318 192.736 146.39 190.272 144.839 188.291C143.53 186.616 142.582 185.406 142.582 182.68C142.582 179.954 143.53 178.744 144.839 177.07C146.39 175.087 148.318 172.702 148.318 168.018V168.003C148.318 163.319 146.39 160.934 144.839 158.952C143.53 157.278 142.582 156.067 142.582 153.341C142.582 150.615 143.53 149.406 144.839 147.73C146.39 145.749 148.318 143.285 148.318 138.678C148.318 134.072 146.39 131.608 144.839 129.627C143.53 127.951 142.582 126.742 142.582 124.016C142.582 121.292 143.53 120.081 144.839 118.406C146.39 116.427 148.318 113.961 148.318 109.355C148.318 104.75 146.39 102.203 144.839 100.222C143.549 98.5746 142.611 97.283 142.582 94.6554V94.6037C142.611 91.9765 143.549 90.6854 144.839 89.0367C146.39 87.0566 148.318 84.5091 148.318 79.9045C148.318 75.2987 146.39 72.8321 144.839 70.8528C143.53 69.1779 142.582 67.9671 142.582 65.2428C142.582 62.5181 143.53 61.3075 144.839 59.6323C146.39 57.6506 148.318 55.1868 148.318 50.5807C148.318 49.3755 148.187 48.3177 147.964 47.3764L147.97 2.84309H171.969Z" stroke="#757EB3" stroke-miterlimit="22.9256"/>
<path fill-rule="evenodd" clip-rule="evenodd" d="M143.169 338.118H152.965V2.84207H143.169V338.118Z" fill="#FFEC08"/>
<path d="M143.169 338.118H152.965V2.84208H143.169V338.118Z" stroke="#757EB3" stroke-miterlimit="22.9256"/>
<path fill-rule="evenodd" clip-rule="evenodd" d="M143.169 338.117H152.965V364.286H143.169V338.117Z" fill="#E3000F"/>
<path d="M143.169 338.117H152.965V364.286H143.169V338.117Z" stroke="#757EB3" stroke-miterlimit="22.9256"/>
<path fill-rule="evenodd" clip-rule="evenodd" d="M143.169 2.84116V7.95364V71.0968V235.916V238.421V364.286H117.046C118.315 362.521 119.518 360.256 119.518 356.557V356.543C119.518 351.859 117.589 349.473 116.039 347.491C114.729 345.817 113.781 344.607 113.781 341.881C113.781 339.154 114.729 337.945 116.039 336.269C117.589 334.288 119.518 331.824 119.518 327.218C119.518 322.611 117.589 320.148 116.039 318.167C114.729 316.491 113.781 315.281 113.781 312.556C113.781 309.832 114.729 308.621 116.039 306.946C117.589 304.967 119.518 302.5 119.518 297.895C119.518 293.29 117.589 290.742 116.039 288.762C114.749 287.114 113.81 285.822 113.781 283.195V283.143C113.81 280.516 114.749 279.225 116.039 277.576C117.589 275.596 119.518 273.049 119.518 268.444C119.518 263.838 117.589 261.372 116.039 259.393C114.729 257.717 113.781 256.506 113.781 253.782C113.781 251.058 114.729 249.847 116.039 248.172C121.15 241.638 120.412 238.553 116.039 232.963C114.729 231.288 113.781 230.077 113.781 227.353C113.781 224.628 114.729 223.418 116.039 221.742C117.589 219.763 119.518 217.296 119.518 212.69C119.518 208.086 117.589 205.538 116.039 203.558C114.749 201.91 113.81 200.619 113.781 197.991V197.939C113.81 195.313 114.749 194.021 116.039 192.373C117.589 190.392 119.518 187.844 119.518 183.239C119.518 178.634 117.589 176.169 116.039 174.189C114.729 172.514 113.781 171.303 113.781 168.579C113.781 165.853 114.729 164.644 116.039 162.969C117.589 160.987 119.518 158.523 119.518 153.917C119.518 149.31 117.589 146.846 116.039 144.865C114.729 143.19 113.781 141.98 113.781 139.254C113.781 136.528 114.729 135.318 116.039 133.644C117.589 131.661 119.518 129.276 119.518 124.592V124.577C119.518 119.893 117.589 117.508 116.039 115.526C114.729 113.852 113.781 112.641 113.781 109.915C113.781 107.189 114.729 105.98 116.039 104.304C117.589 102.323 119.518 99.8592 119.518 95.2527C119.518 90.6459 117.589 88.1825 116.039 86.2008C114.729 84.5252 113.781 83.3161 113.781 80.5904C113.781 77.8661 114.729 76.6555 116.039 74.9803C116.874 73.9135 117.819 72.7053 118.514 71.0968H117.046C118.161 69.5468 119.223 67.6101 119.466 64.6562C119.149 60.8392 117.439 58.5863 116.039 56.7964C114.749 55.1488 113.81 53.857 113.781 51.2296V51.1777C113.786 50.7501 113.815 50.3584 113.865 49.9945C113.81 49.5997 113.781 49.1685 113.781 48.6914C113.781 45.9647 114.729 44.7556 116.039 43.0801C117.445 41.2819 119.164 39.0873 119.47 35.2537C119.164 31.4201 117.445 29.223 116.039 27.4271C114.729 25.7519 113.781 24.5411 113.781 21.8168C113.781 21.3707 113.807 20.9657 113.855 20.592C113.807 20.2183 113.781 19.8125 113.781 19.3665C113.781 16.6422 114.729 15.4317 116.039 13.7567C117.202 12.2711 118.578 10.5121 119.193 7.77985C119.183 6.4563 119.153 1.9429 119.47 5.92838C119.501 5.53772 119.518 5.13144 119.518 4.70569C119.518 4.04306 119.477 3.42276 119.404 2.84116H143.169Z" fill="#CCCCCC"/>
<path d="M143.169 2.84115V7.95365V71.0968V235.916V238.421V364.286H117.046C118.315 362.521 119.518 360.256 119.518 356.557V356.543C119.518 351.859 117.589 349.473 116.039 347.491C114.729 345.817 113.781 344.607 113.781 341.881C113.781 339.154 114.729 337.945 116.039 336.269C117.589 334.288 119.518 331.824 119.518 327.218C119.518 322.611 117.589 320.148 116.039 318.167C114.729 316.491 113.781 315.281 113.781 312.556C113.781 309.832 114.729 308.621 116.039 306.946C117.589 304.967 119.518 302.5 119.518 297.895C119.518 293.29 117.589 290.742 116.039 288.762C114.749 287.114 113.81 285.822 113.781 283.195V283.143C113.81 280.516 114.749 279.225 116.039 277.576C117.589 275.596 119.518 273.049 119.518 268.444C119.518 263.838 117.589 261.372 116.039 259.393C114.729 257.717 113.781 256.506 113.781 253.782C113.781 251.058 114.729 249.847 116.039 248.172C121.15 241.638 120.412 238.553 116.039 232.963C114.729 231.288 113.781 230.077 113.781 227.353C113.781 224.628 114.729 223.418 116.039 221.742C117.589 219.763 119.518 217.296 119.518 212.69C119.518 208.086 117.589 205.538 116.039 203.558C114.749 201.91 113.81 200.619 113.781 197.991V197.939C113.81 195.313 114.749 194.021 116.039 192.373C117.589 190.392 119.518 187.844 119.518 183.239C119.518 178.634 117.589 176.169 116.039 174.189C114.729 172.514 113.781 171.303 113.781 168.579C113.781 165.853 114.729 164.644 116.039 162.969C117.589 160.987 119.518 158.523 119.518 153.917C119.518 149.31 117.589 146.846 116.039 144.865C114.729 143.19 113.781 141.98 113.781 139.254C113.781 136.528 114.729 135.318 116.039 133.644C117.589 131.661 119.518 129.276 119.518 124.592V124.577C119.518 119.893 117.589 117.508 116.039 115.526C114.729 113.852 113.781 112.641 113.781 109.915C113.781 107.189 114.729 105.98 116.039 104.304C117.589 102.323 119.518 99.8592 119.518 95.2527C119.518 90.6459 117.589 88.1825 116.039 86.2008C114.729 84.5252 113.781 83.3161 113.781 80.5904C113.781 77.8661 114.729 76.6555 116.039 74.9803C116.874 73.9135 117.819 72.7053 118.514 71.0968H117.046C118.161 69.5468 119.223 67.6101 119.466 64.6562C119.149 60.8392 117.439 58.5863 116.039 56.7965C114.749 55.1488 113.81 53.857 113.781 51.2296V51.1777C113.786 50.7501 113.815 50.3584 113.865 49.9945C113.81 49.5997 113.781 49.1685 113.781 48.6914C113.781 45.9647 114.729 44.7556 116.039 43.0801C117.445 41.2819 119.164 39.0873 119.47 35.2537C119.164 31.4201 117.445 29.223 116.039 27.4271C114.729 25.7519 113.781 24.5411 113.781 21.8168C113.781 21.3707 113.807 20.9657 113.855 20.592C113.807 20.2183 113.781 19.8125 113.781 19.3665C113.781 16.6422 114.729 15.4317 116.039 13.7567C117.202 12.2711 118.578 10.5121 119.193 7.77985C119.183 6.45631 119.153 1.94291 119.47 5.92839C119.501 5.53772 119.518 5.13143 119.518 4.70569C119.518 4.04305 119.477 3.42275 119.404 2.84115H143.169Z" stroke="#757EB3" stroke-miterlimit="22.9256"/>
<path fill-rule="evenodd" clip-rule="evenodd" d="M113.15 128.257H122.946V2.83859H113.15V128.257Z" fill="#FFEC08"/>
<path d="M113.15 128.257H122.946V2.8386H113.15V128.257Z" stroke="#757EB3" stroke-miterlimit="22.9256"/>
<path fill-rule="evenodd" clip-rule="evenodd" d="M113.15 128.26H122.946V154.429H113.15V128.26Z" fill="#E3000F"/>
<path d="M113.15 128.26H122.946V154.429H113.15V128.26Z" stroke="#757EB3" stroke-miterlimit="22.9256"/>
<path fill-rule="evenodd" clip-rule="evenodd" d="M113.15 2.84158V26.0586V28.5637V154.429H87.0277C88.2966 152.663 89.499 150.398 89.499 146.7V146.685C89.499 142.001 87.5704 139.616 86.0201 137.634C84.7104 135.96 83.7627 134.749 83.7627 132.023C83.7627 129.297 84.7104 128.088 86.0201 126.412C87.5704 124.431 89.499 121.967 89.499 117.361C89.499 112.754 87.5704 110.291 86.0201 108.309C84.7104 106.633 83.7627 105.424 83.7627 102.698C83.7627 99.9741 84.7104 98.7633 86.0201 97.0884C87.5704 95.1091 89.499 92.6434 89.499 88.0378C89.499 83.4322 87.5704 80.8846 86.0201 78.9045C84.7301 77.257 83.7916 75.9649 83.7627 73.3377V73.2858C83.7916 70.6586 84.7301 69.3675 86.0201 67.7188C87.5704 65.7386 89.499 63.1913 89.499 58.5868C89.499 53.9808 87.5704 51.5142 86.0201 49.5349C84.7104 47.8599 83.7627 46.6493 83.7627 43.9248C83.7627 41.2004 84.7104 39.9893 86.0201 38.3144C91.1312 31.7806 90.3935 28.6956 86.0201 23.1051C84.7104 21.4301 83.7627 20.2192 83.7627 17.4951C83.7627 14.7704 84.7104 13.5603 86.0201 11.8846C87.5693 9.90669 89.4966 7.44098 89.499 2.84158H113.15Z" fill="#CCCCCC"/>
<path d="M113.15 2.84158V26.0586V28.5637V154.429H87.0277C88.2966 152.663 89.499 150.398 89.499 146.7V146.685C89.499 142.001 87.5704 139.616 86.0201 137.634C84.7104 135.96 83.7627 134.749 83.7627 132.023C83.7627 129.297 84.7104 128.088 86.0201 126.412C87.5704 124.431 89.499 121.967 89.499 117.361C89.499 112.754 87.5704 110.291 86.0201 108.309C84.7104 106.633 83.7627 105.424 83.7627 102.698C83.7627 99.9741 84.7104 98.7633 86.0201 97.0884C87.5704 95.1091 89.499 92.6434 89.499 88.0378C89.499 83.4322 87.5704 80.8846 86.0201 78.9045C84.7301 77.257 83.7916 75.9649 83.7627 73.3377V73.2858C83.7916 70.6586 84.7301 69.3675 86.0201 67.7188C87.5704 65.7386 89.499 63.1913 89.499 58.5868C89.499 53.9808 87.5704 51.5142 86.0201 49.5349C84.7104 47.8599 83.7627 46.6493 83.7627 43.9248C83.7627 41.2004 84.7104 39.9894 86.0201 38.3144C91.1312 31.7806 90.3935 28.6956 86.0201 23.1051C84.7104 21.4301 83.7627 20.2192 83.7627 17.4951C83.7627 14.7704 84.7104 13.5603 86.0201 11.8846C87.5693 9.9067 89.4966 7.44097 89.499 2.84158H113.15Z" stroke="#757EB3" stroke-miterlimit="22.9256"/>
<path fill-rule="evenodd" clip-rule="evenodd" d="M113.15 2.84089H122.946V29.0098H113.15V2.84089Z" fill="#00963F"/>
<path d="M113.15 2.84089H122.946V29.0098H113.15V2.84089Z" stroke="#757EB3" stroke-miterlimit="22.9256"/>
<path fill-rule="evenodd" clip-rule="evenodd" d="M81.3867 2.84089H91.1825V29.0098H81.3867V2.84089Z" fill="#E3000F"/>
<path d="M81.3867 2.84089H91.1825V29.0098H81.3867V2.84089Z" stroke="#757EB3" stroke-miterlimit="22.9256"/>
<path fill-rule="evenodd" clip-rule="evenodd" d="M81.3872 2.84047V29.0098H55.2649C56.5341 27.2446 57.7365 24.9795 57.7365 21.281V21.2663C57.7365 16.5825 55.8077 14.1972 54.2574 12.215C52.9479 10.5409 52 9.33025 52 6.60455C52 4.93095 52.3571 3.82984 52.9356 2.84047H81.3872Z" fill="#CCCCCC"/>
<path d="M81.3872 2.84047V29.0098H55.2649C56.5341 27.2446 57.7365 24.9795 57.7365 21.281V21.2663C57.7365 16.5825 55.8077 14.1972 54.2574 12.215C52.9479 10.5409 52 9.33025 52 6.60455C52 4.93095 52.3571 3.82984 52.9356 2.84047H81.3872Z" stroke="#757EB3" stroke-miterlimit="22.9256"/>
<path fill-rule="evenodd" clip-rule="evenodd" d="M277.19 650.357H267.395V2.83887H277.19V650.357Z" fill="#FFEC08"/>
<path d="M277.19 650.357H267.395V2.83885H277.19V650.357Z" stroke="#757EB3" stroke-miterlimit="22.9256"/>
<path fill-rule="evenodd" clip-rule="evenodd" d="M277.19 650.362H267.395V700.901H277.19V650.362Z" fill="#00963F"/>
<path d="M277.19 650.362H267.395V700.901H277.19V650.362Z" stroke="#757EB3" stroke-miterlimit="22.9256"/>
<path fill-rule="evenodd" clip-rule="evenodd" d="M277.209 2.84308V279.342V281.847V344.569V407.712V572.531V575.036V700.901H303.331C302.062 699.136 300.86 696.871 300.86 693.172V693.158C300.86 688.474 302.789 686.089 304.339 684.107C305.649 682.432 306.596 681.222 306.596 678.496C306.596 675.769 305.649 674.56 304.339 672.885C302.789 670.903 300.86 668.44 300.86 663.833C300.86 659.226 302.789 656.763 304.339 654.781C305.649 653.106 306.596 651.897 306.596 649.171C306.596 646.447 305.649 645.236 304.339 643.561C302.789 641.582 300.86 639.116 300.86 634.51C300.86 629.905 302.789 627.357 304.339 625.377C305.629 623.73 306.567 622.438 306.596 619.81V619.758C306.567 617.131 305.629 615.84 304.339 614.192C302.789 612.211 300.86 609.664 300.86 605.059C300.86 600.453 302.789 597.987 304.339 596.008C305.649 594.333 306.596 593.122 306.596 590.398C306.596 587.673 305.649 586.462 304.339 584.787C299.228 578.253 299.965 575.168 304.339 569.578C305.649 567.903 306.596 566.692 306.596 563.968C306.596 561.243 305.649 560.033 304.339 558.357C302.789 556.378 300.86 553.911 300.86 549.305C300.86 544.702 302.789 542.154 304.339 540.173C305.629 538.525 306.567 537.234 306.596 534.606V534.554C306.567 531.928 305.629 530.636 304.339 528.988C302.789 527.007 300.86 524.459 300.86 519.855C300.86 515.249 302.789 512.783 304.339 510.804C305.649 509.129 306.596 507.918 306.596 505.194C306.596 502.468 305.649 501.259 304.339 499.584C302.789 497.602 300.86 495.139 300.86 490.532C300.86 485.925 302.789 483.462 304.339 481.48C305.649 479.805 306.596 478.596 306.596 475.869C306.596 473.144 305.649 471.933 304.339 470.259C302.789 468.276 300.86 465.891 300.86 461.207V461.192C300.86 456.509 302.789 454.123 304.339 452.141C305.649 450.467 306.596 449.257 306.596 446.531C306.596 443.804 305.649 442.595 304.339 440.919C302.789 438.938 300.86 436.474 300.86 431.868C300.86 427.261 302.789 424.798 304.339 422.816C305.649 421.141 306.596 419.931 306.596 417.206C306.596 414.481 305.649 413.27 304.339 411.596C303.503 410.529 302.558 409.321 301.864 407.712H303.331C302.216 406.162 301.154 404.225 300.912 401.271C301.228 397.454 302.938 395.201 304.339 393.412C305.629 391.764 306.567 390.472 306.596 387.845V387.793C306.591 387.365 306.563 386.974 306.512 386.61C306.568 386.215 306.596 385.784 306.596 385.307C306.596 382.58 305.649 381.371 304.339 379.695C302.932 377.897 301.214 375.703 300.908 371.869C301.214 368.035 302.932 365.838 304.339 364.042C305.649 362.367 306.596 361.157 306.596 358.432C306.596 357.986 306.571 357.581 306.523 357.207C306.571 356.833 306.596 356.428 306.596 355.982C306.596 353.258 305.649 352.047 304.339 350.372C303.176 348.886 301.799 347.127 301.185 344.395L301.214 340.566C301.07 341.173 300.964 341.83 300.907 342.543C300.876 342.153 300.86 341.747 300.86 341.321C300.86 336.716 302.789 334.168 304.339 332.188C305.629 330.54 306.567 329.248 306.596 326.621V326.569C306.567 323.942 305.629 322.651 304.339 321.002C302.789 319.022 300.86 316.475 300.86 311.87C300.86 307.264 302.789 304.798 304.339 302.819C305.649 301.143 306.596 299.933 306.596 297.208C306.596 294.484 305.649 293.273 304.339 291.598C299.228 285.064 299.965 281.979 304.339 276.389C305.649 274.713 306.596 273.503 306.596 270.778C306.596 268.054 305.649 266.843 304.339 265.168C302.789 263.189 300.86 260.722 300.86 256.116C300.86 251.512 302.789 248.964 304.339 246.984C305.629 245.336 306.567 244.045 306.596 241.417V241.365C306.567 238.739 305.629 237.447 304.339 235.799C302.789 233.818 300.86 231.27 300.86 226.665C300.86 222.06 302.789 219.594 304.339 217.615C305.649 215.939 306.596 214.729 306.596 212.004C306.596 209.279 305.649 208.07 304.339 206.395C302.789 204.413 300.86 201.949 300.86 197.343C300.86 192.736 302.789 190.272 304.339 188.291C305.649 186.616 306.596 185.406 306.596 182.68C306.596 179.954 305.649 178.744 304.339 177.07C302.789 175.087 300.86 172.702 300.86 168.018V168.003C300.86 163.319 302.789 160.934 304.339 158.952C305.649 157.278 306.596 156.067 306.596 153.341C306.596 150.615 305.649 149.406 304.339 147.73C302.789 145.749 300.86 143.285 300.86 138.678C300.86 134.072 302.789 131.608 304.339 129.627C305.649 127.951 306.596 126.742 306.596 124.016C306.596 121.292 305.649 120.081 304.339 118.406C302.789 116.427 300.86 113.961 300.86 109.355C300.86 104.75 302.789 102.203 304.339 100.222C305.629 98.5746 306.567 97.283 306.596 94.6554V94.6038C306.567 91.9765 305.629 90.6854 304.339 89.0367C302.789 87.0566 300.86 84.509 300.86 79.9045C300.86 75.2987 302.789 72.8321 304.339 70.8528C305.649 69.1779 306.596 67.9671 306.596 65.2428C306.596 62.5181 305.649 61.3075 304.339 59.6323C302.789 57.6506 300.86 55.1868 300.86 50.5807C300.86 49.3755 300.992 48.3177 301.214 47.3763L301.209 2.84308H277.209Z" fill="#CCCCCC"/>
<path d="M277.209 2.84309V279.342V281.847V344.569V407.712V572.531V575.037V700.901H303.331C302.062 699.136 300.86 696.871 300.86 693.172V693.158C300.86 688.474 302.789 686.089 304.339 684.107C305.649 682.432 306.596 681.222 306.596 678.496C306.596 675.769 305.649 674.56 304.339 672.885C302.789 670.903 300.86 668.44 300.86 663.833C300.86 659.226 302.789 656.763 304.339 654.781C305.649 653.106 306.596 651.897 306.596 649.171C306.596 646.447 305.649 645.236 304.339 643.561C302.789 641.582 300.86 639.116 300.86 634.51C300.86 629.905 302.789 627.357 304.339 625.377C305.629 623.73 306.567 622.438 306.596 619.81V619.758C306.567 617.131 305.629 615.84 304.339 614.192C302.789 612.211 300.86 609.664 300.86 605.059C300.86 600.453 302.789 597.987 304.339 596.008C305.649 594.333 306.596 593.122 306.596 590.398C306.596 587.673 305.649 586.462 304.339 584.787C299.228 578.253 299.965 575.168 304.339 569.578C305.649 567.903 306.596 566.692 306.596 563.968C306.596 561.243 305.649 560.033 304.339 558.357C302.789 556.378 300.86 553.911 300.86 549.305C300.86 544.702 302.789 542.154 304.339 540.173C305.629 538.525 306.567 537.234 306.596 534.606V534.554C306.567 531.928 305.629 530.636 304.339 528.988C302.789 527.007 300.86 524.459 300.86 519.855C300.86 515.249 302.789 512.783 304.339 510.804C305.649 509.129 306.596 507.918 306.596 505.194C306.596 502.468 305.649 501.259 304.339 499.584C302.789 497.602 300.86 495.139 300.86 490.532C300.86 485.925 302.789 483.462 304.339 481.48C305.649 479.805 306.596 478.596 306.596 475.869C306.596 473.144 305.649 471.933 304.339 470.259C302.789 468.276 300.86 465.891 300.86 461.207V461.192C300.86 456.509 302.789 454.123 304.339 452.141C305.649 450.467 306.596 449.257 306.596 446.531C306.596 443.804 305.649 442.595 304.339 440.919C302.789 438.938 300.86 436.474 300.86 431.868C300.86 427.261 302.789 424.798 304.339 422.816C305.649 421.141 306.596 419.931 306.596 417.206C306.596 414.481 305.649 413.27 304.339 411.596C303.503 410.529 302.558 409.321 301.864 407.712H303.331C302.216 406.162 301.154 404.225 300.912 401.271C301.228 397.454 302.938 395.201 304.339 393.412C305.629 391.764 306.567 390.472 306.596 387.845V387.793C306.591 387.365 306.563 386.974 306.512 386.61C306.568 386.215 306.596 385.784 306.596 385.307C306.596 382.58 305.649 381.371 304.339 379.695C302.932 377.897 301.214 375.703 300.908 371.869C301.214 368.035 302.932 365.838 304.339 364.042C305.649 362.367 306.596 361.157 306.596 358.432C306.596 357.986 306.571 357.581 306.523 357.207C306.571 356.834 306.596 356.428 306.596 355.982C306.596 353.258 305.649 352.047 304.339 350.372C303.176 348.886 301.799 347.127 301.185 344.395L301.214 340.566C301.07 341.173 300.964 341.83 300.907 342.543C300.876 342.153 300.86 341.747 300.86 341.321C300.86 336.716 302.789 334.168 304.339 332.188C305.629 330.54 306.567 329.248 306.596 326.621V326.569C306.567 323.942 305.629 322.651 304.339 321.002C302.789 319.022 300.86 316.475 300.86 311.87C300.86 307.264 302.789 304.798 304.339 302.819C305.649 301.143 306.596 299.933 306.596 297.208C306.596 294.484 305.649 293.273 304.339 291.598C299.228 285.064 299.965 281.979 304.339 276.389C305.649 274.713 306.596 273.503 306.596 270.778C306.596 268.054 305.649 266.843 304.339 265.168C302.789 263.189 300.86 260.722 300.86 256.116C300.86 251.512 302.789 248.964 304.339 246.984C305.629 245.336 306.567 244.045 306.596 241.417V241.365C306.567 238.739 305.629 237.447 304.339 235.799C302.789 233.818 300.86 231.27 300.86 226.665C300.86 222.06 302.789 219.594 304.339 217.615C305.649 215.939 306.596 214.729 306.596 212.004C306.596 209.279 305.649 208.07 304.339 206.395C302.789 204.413 300.86 201.949 300.86 197.343C300.86 192.736 302.789 190.272 304.339 188.291C305.649 186.616 306.596 185.406 306.596 182.68C306.596 179.954 305.649 178.744 304.339 177.07C302.789 175.087 300.86 172.702 300.86 168.018V168.003C300.86 163.319 302.789 160.934 304.339 158.952C305.649 157.278 306.596 156.067 306.596 153.341C306.596 150.615 305.649 149.406 304.339 147.73C302.789 145.749 300.86 143.285 300.86 138.678C300.86 134.072 302.789 131.608 304.339 129.627C305.649 127.951 306.596 126.742 306.596 124.016C306.596 121.292 305.649 120.081 304.339 118.406C302.789 116.427 300.86 113.961 300.86 109.355C300.86 104.75 302.789 102.203 304.339 100.222C305.629 98.5746 306.567 97.283 306.596 94.6554V94.6037C306.567 91.9765 305.629 90.6854 304.339 89.0367C302.789 87.0566 300.86 84.5091 300.86 79.9045C300.86 75.2987 302.789 72.8321 304.339 70.8528C305.649 69.1779 306.596 67.9671 306.596 65.2428C306.596 62.5181 305.649 61.3075 304.339 59.6323C302.789 57.6506 300.86 55.1868 300.86 50.5807C300.86 49.3755 300.992 48.3177 301.214 47.3764L301.209 2.84309H277.209Z" stroke="#757EB3" stroke-miterlimit="22.9256"/>
<path fill-rule="evenodd" clip-rule="evenodd" d="M306.01 338.118H296.214V2.84207H306.01V338.118Z" fill="#FFEC08"/>
<path d="M306.01 338.118H296.214V2.84208H306.01V338.118Z" stroke="#757EB3" stroke-miterlimit="22.9256"/>
<path fill-rule="evenodd" clip-rule="evenodd" d="M306.01 338.117H296.214V364.286H306.01V338.117Z" fill="#E3000F"/>
<path d="M306.01 338.117H296.214V364.286H306.01V338.117Z" stroke="#757EB3" stroke-miterlimit="22.9256"/>
<path fill-rule="evenodd" clip-rule="evenodd" d="M306.01 2.84116V7.95364V71.0968V235.916V238.421V364.286H332.132C330.863 362.521 329.661 360.256 329.661 356.557V356.543C329.661 351.859 331.589 349.473 333.14 347.491C334.449 345.817 335.397 344.607 335.397 341.881C335.397 339.154 334.449 337.945 333.14 336.269C331.589 334.288 329.661 331.824 329.661 327.218C329.661 322.611 331.589 320.148 333.14 318.167C334.449 316.491 335.397 315.281 335.397 312.556C335.397 309.832 334.449 308.621 333.14 306.946C331.589 304.967 329.661 302.5 329.661 297.895C329.661 293.29 331.589 290.742 333.14 288.762C334.43 287.114 335.368 285.822 335.397 283.195V283.143C335.368 280.516 334.43 279.225 333.14 277.576C331.589 275.596 329.661 273.049 329.661 268.444C329.661 263.838 331.589 261.372 333.14 259.393C334.449 257.717 335.397 256.506 335.397 253.782C335.397 251.058 334.449 249.847 333.14 248.172C328.029 241.638 328.766 238.553 333.14 232.963C334.449 231.288 335.397 230.077 335.397 227.353C335.397 224.628 334.449 223.418 333.14 221.742C331.589 219.763 329.661 217.296 329.661 212.69C329.661 208.086 331.589 205.538 333.14 203.558C334.43 201.91 335.368 200.619 335.397 197.991V197.939C335.368 195.313 334.43 194.021 333.14 192.373C331.589 190.392 329.661 187.844 329.661 183.239C329.661 178.634 331.589 176.169 333.14 174.189C334.449 172.514 335.397 171.303 335.397 168.579C335.397 165.853 334.449 164.644 333.14 162.969C331.589 160.987 329.661 158.523 329.661 153.917C329.661 149.31 331.589 146.846 333.14 144.865C334.449 143.19 335.397 141.98 335.397 139.254C335.397 136.528 334.449 135.318 333.14 133.644C331.589 131.661 329.661 129.276 329.661 124.592V124.577C329.661 119.893 331.589 117.508 333.14 115.526C334.449 113.852 335.397 112.641 335.397 109.915C335.397 107.189 334.449 105.98 333.14 104.304C331.589 102.323 329.661 99.8592 329.661 95.2527C329.661 90.6459 331.589 88.1825 333.14 86.2008C334.449 84.5252 335.397 83.3161 335.397 80.5904C335.397 77.8661 334.449 76.6555 333.14 74.9803C332.304 73.9135 331.359 72.7053 330.665 71.0968H332.132C331.017 69.5468 329.955 67.6101 329.713 64.6562C330.029 60.8392 331.739 58.5863 333.14 56.7964C334.43 55.1488 335.368 53.857 335.397 51.2296V51.1777C335.392 50.7501 335.364 50.3584 335.313 49.9945C335.368 49.5997 335.397 49.1685 335.397 48.6914C335.397 45.9647 334.449 44.7556 333.14 43.0801C331.733 41.2819 330.015 39.0873 329.709 35.2537C330.015 31.4201 331.733 29.223 333.14 27.4271C334.449 25.7519 335.397 24.5411 335.397 21.8168C335.397 21.3707 335.371 20.9657 335.323 20.592C335.371 20.2183 335.397 19.8125 335.397 19.3665C335.397 16.6422 334.449 15.4317 333.14 13.7567C331.976 12.2711 330.6 10.5121 329.985 7.77985C329.996 6.4563 330.025 1.9429 329.708 5.92838C329.677 5.53772 329.661 5.13144 329.661 4.70569C329.661 4.04306 329.701 3.42276 329.774 2.84116H306.01Z" fill="#CCCCCC"/>
<path d="M306.01 2.84115V7.95365V71.0968V235.916V238.421V364.286H332.132C330.863 362.521 329.661 360.256 329.661 356.557V356.543C329.661 351.859 331.589 349.473 333.14 347.491C334.449 345.817 335.397 344.607 335.397 341.881C335.397 339.154 334.449 337.945 333.14 336.269C331.589 334.288 329.661 331.824 329.661 327.218C329.661 322.611 331.589 320.148 333.14 318.167C334.449 316.491 335.397 315.281 335.397 312.556C335.397 309.832 334.449 308.621 333.14 306.946C331.589 304.967 329.661 302.5 329.661 297.895C329.661 293.29 331.589 290.742 333.14 288.762C334.43 287.114 335.368 285.822 335.397 283.195V283.143C335.368 280.516 334.43 279.225 333.14 277.576C331.589 275.596 329.661 273.049 329.661 268.444C329.661 263.838 331.589 261.372 333.14 259.393C334.449 257.717 335.397 256.506 335.397 253.782C335.397 251.058 334.449 249.847 333.14 248.172C328.029 241.638 328.766 238.553 333.14 232.963C334.449 231.288 335.397 230.077 335.397 227.353C335.397 224.628 334.449 223.418 333.14 221.742C331.589 219.763 329.661 217.296 329.661 212.69C329.661 208.086 331.589 205.538 333.14 203.558C334.43 201.91 335.368 200.619 335.397 197.991V197.939C335.368 195.313 334.43 194.021 333.14 192.373C331.589 190.392 329.661 187.844 329.661 183.239C329.661 178.634 331.589 176.169 333.14 174.189C334.449 172.514 335.397 171.303 335.397 168.579C335.397 165.853 334.449 164.644 333.14 162.969C331.589 160.987 329.661 158.523 329.661 153.917C329.661 149.31 331.589 146.846 333.14 144.865C334.449 143.19 335.397 141.98 335.397 139.254C335.397 136.528 334.449 135.318 333.14 133.644C331.589 131.661 329.661 129.276 329.661 124.592V124.577C329.661 119.893 331.589 117.508 333.14 115.526C334.449 113.852 335.397 112.641 335.397 109.915C335.397 107.189 334.449 105.98 333.14 104.304C331.589 102.323 329.661 99.8592 329.661 95.2527C329.661 90.6459 331.589 88.1825 333.14 86.2008C334.449 84.5252 335.397 83.3161 335.397 80.5904C335.397 77.8661 334.449 76.6555 333.14 74.9803C332.304 73.9135 331.359 72.7053 330.665 71.0968H332.132C331.017 69.5468 329.955 67.6101 329.713 64.6562C330.029 60.8392 331.739 58.5863 333.14 56.7965C334.43 55.1488 335.368 53.857 335.397 51.2296V51.1777C335.392 50.7501 335.364 50.3584 335.313 49.9945C335.368 49.5997 335.397 49.1685 335.397 48.6914C335.397 45.9647 334.449 44.7556 333.14 43.0801C331.733 41.2819 330.015 39.0873 329.709 35.2537C330.015 31.4201 331.733 29.223 333.14 27.4271C334.449 25.7519 335.397 24.5411 335.397 21.8168C335.397 21.3707 335.371 20.9657 335.323 20.592C335.371 20.2183 335.397 19.8125 335.397 19.3665C335.397 16.6422 334.449 15.4317 333.14 13.7567C331.976 12.2711 330.6 10.5121 329.985 7.77985C329.996 6.45631 330.025 1.94291 329.708 5.92839C329.677 5.53772 329.661 5.13143 329.661 4.70569C329.661 4.04305 329.701 3.42275 329.774 2.84115H306.01Z" stroke="#757EB3" stroke-miterlimit="22.9256"/>
<path fill-rule="evenodd" clip-rule="evenodd" d="M336.027 128.257H326.231V2.83859H336.027V128.257Z" fill="#FFEC08"/>
<path d="M336.027 128.257H326.231V2.8386H336.027V128.257Z" stroke="#757EB3" stroke-miterlimit="22.9256"/>
<path fill-rule="evenodd" clip-rule="evenodd" d="M336.027 128.26H326.231V154.429H336.027V128.26Z" fill="#E3000F"/>
<path d="M336.027 128.26H326.231V154.429H336.027V128.26Z" stroke="#757EB3" stroke-miterlimit="22.9256"/>
<path fill-rule="evenodd" clip-rule="evenodd" d="M336.028 2.84158V26.0586V28.5637V154.429H362.151C360.882 152.663 359.679 150.398 359.679 146.7V146.685C359.679 142.001 361.608 139.616 363.158 137.634C364.468 135.96 365.415 134.749 365.415 132.023C365.415 129.297 364.468 128.088 363.158 126.412C361.608 124.431 359.679 121.967 359.679 117.361C359.679 112.754 361.608 110.291 363.158 108.309C364.468 106.633 365.415 105.424 365.415 102.698C365.415 99.9741 364.468 98.7633 363.158 97.0884C361.608 95.1091 359.679 92.6434 359.679 88.0378C359.679 83.4322 361.608 80.8846 363.158 78.9045C364.448 77.257 365.387 75.9649 365.415 73.3377V73.2858C365.387 70.6586 364.448 69.3675 363.158 67.7188C361.608 65.7386 359.679 63.1913 359.679 58.5868C359.679 53.9808 361.608 51.5142 363.158 49.5349C364.468 47.8599 365.415 46.6493 365.415 43.9248C365.415 41.2004 364.468 39.9893 363.158 38.3144C358.047 31.7806 358.785 28.6956 363.158 23.1051C364.468 21.4301 365.415 20.2192 365.415 17.4951C365.415 14.7704 364.468 13.5603 363.158 11.8846C361.609 9.90669 359.681 7.44098 359.679 2.84158H336.028Z" fill="#CCCCCC"/>
<path d="M336.028 2.84158V26.0586V28.5637V154.429H362.151C360.882 152.663 359.679 150.398 359.679 146.7V146.685C359.679 142.001 361.608 139.616 363.158 137.634C364.468 135.96 365.415 134.749 365.415 132.023C365.415 129.297 364.468 128.088 363.158 126.412C361.608 124.431 359.679 121.967 359.679 117.361C359.679 112.754 361.608 110.291 363.158 108.309C364.468 106.633 365.415 105.424 365.415 102.698C365.415 99.9741 364.468 98.7633 363.158 97.0884C361.608 95.1091 359.679 92.6434 359.679 88.0378C359.679 83.4322 361.608 80.8846 363.158 78.9045C364.448 77.257 365.387 75.9649 365.415 73.3377V73.2858C365.387 70.6586 364.448 69.3675 363.158 67.7188C361.608 65.7386 359.679 63.1913 359.679 58.5868C359.679 53.9808 361.608 51.5142 363.158 49.5349C364.468 47.8599 365.415 46.6493 365.415 43.9248C365.415 41.2004 364.468 39.9894 363.158 38.3144C358.047 31.7806 358.785 28.6956 363.158 23.1051C364.468 21.4301 365.415 20.2192 365.415 17.4951C365.415 14.7704 364.468 13.5603 363.158 11.8846C361.609 9.9067 359.681 7.44097 359.679 2.84158H336.028Z" stroke="#757EB3" stroke-miterlimit="22.9256"/>
<path fill-rule="evenodd" clip-rule="evenodd" d="M336.027 2.84089H326.231V29.0098H336.027V2.84089Z" fill="#00963F"/>
<path d="M336.027 2.84089H326.231V29.0098H336.027V2.84089Z" stroke="#757EB3" stroke-miterlimit="22.9256"/>
<path fill-rule="evenodd" clip-rule="evenodd" d="M367.792 2.84089H357.996V29.0098H367.792V2.84089Z" fill="#E3000F"/>
<path d="M367.792 2.84089H357.996V29.0098H367.792V2.84089Z" stroke="#757EB3" stroke-miterlimit="22.9256"/>
<path fill-rule="evenodd" clip-rule="evenodd" d="M367.791 2.84047V29.0098H393.913C392.644 27.2446 391.442 24.9795 391.442 21.281V21.2663C391.442 16.5825 393.371 14.1972 394.921 12.215C396.231 10.5409 397.178 9.33025 397.178 6.60455C397.178 4.93095 396.821 3.82984 396.243 2.84047H367.791Z" fill="#CCCCCC"/>
<path d="M367.791 2.84047V29.0098H393.913C392.644 27.2446 391.442 24.9795 391.442 21.281V21.2663C391.442 16.5825 393.371 14.1972 394.921 12.215C396.231 10.5409 397.178 9.33025 397.178 6.60455C397.178 4.93095 396.821 3.82984 396.243 2.84047H367.791Z" stroke="#757EB3" stroke-miterlimit="22.9256"/>
<path fill-rule="evenodd" clip-rule="evenodd" d="M267 687.81V701.158H278.616L267 687.81Z" fill="#272953"/>
<path fill-rule="evenodd" clip-rule="evenodd" d="M182.616 687.81V701.158H171L182.616 687.81Z" fill="#272953"/>
<path d="M330 155.081H445.574" stroke="#454D7D" stroke-width="2" stroke-miterlimit="22.9256"/>
<path d="M306 364.839L446 364.839" stroke="#454D7D" stroke-width="2" stroke-miterlimit="22.9256"/>
<path d="M269 702L446 702" stroke="#454D7D" stroke-width="2" stroke-miterlimit="22.9256"/>
<path d="M358 30.0811H473.574" stroke="#454D7D" stroke-width="2" stroke-miterlimit="22.9256"/>
<path d="M113.637 128.028L31.0001 99.9996" stroke="#454D7D" stroke-width="2" stroke-miterlimit="22.9256"/>
<path d="M142.637 338.028L60.0001 310" stroke="#454D7D" stroke-width="2" stroke-miterlimit="22.9256"/>
<path d="M176.637 584.028L94.0001 556" stroke="#454D7D" stroke-width="2" stroke-miterlimit="22.9256"/>
<path d="M83.6367 29.0283L1.00006 0.999551" stroke="#454D7D" stroke-width="2" stroke-miterlimit="22.9256"/>
<mask id="path-59-outside-1_1270_16717" maskUnits="userSpaceOnUse" x="228" y="700" width="41" height="250" fill="black">
<rect fill="white" x="228" y="700" width="41" height="250"/>
<path d="M229.613 948.248H261.395L261.393 948.002C261.392 944.985 261.909 942.664 262.632 940.773C263.354 938.887 264.274 937.444 265.093 936.159C266.425 934.069 267.387 932.559 267.387 929.194C267.387 925.828 266.424 924.318 265.093 922.23L265.09 922.225C263.441 919.636 261.392 916.417 261.392 910.388C261.392 904.358 263.441 901.14 265.088 898.554L265.093 898.547C265.766 897.491 266.347 896.579 266.75 895.526C267.15 894.482 267.387 893.269 267.387 891.581C267.387 888.215 266.425 886.705 265.094 884.618L265.011 884.487C263.488 882.097 261.661 879.228 261.42 873.953H261.392V872.398H261.42C261.661 867.123 263.488 864.254 265.011 861.864L265.109 861.71C266.432 859.634 267.387 858.122 267.387 854.77C267.387 853.083 267.15 851.869 266.75 850.825C266.348 849.773 265.768 848.864 265.096 847.81L265.087 847.796C263.44 845.21 261.392 841.993 261.392 835.963C261.392 829.932 263.441 826.715 265.088 824.129L265.099 824.112C266.427 822.029 267.387 820.518 267.387 817.157C267.387 813.792 266.425 812.282 265.094 810.194C264.274 808.907 263.354 807.464 262.632 805.578C261.909 803.686 261.392 801.366 261.392 798.351C261.392 795.338 261.908 792.992 262.631 791.075C263.351 789.167 264.273 787.693 265.093 786.406C265.753 785.37 266.325 784.446 266.73 783.379C267.13 782.327 267.374 781.12 267.388 779.498L267.387 779.431C267.374 777.809 267.13 776.601 266.731 775.548C266.325 774.481 265.753 773.557 265.093 772.521C264.273 771.234 263.351 769.761 262.631 767.853C261.908 765.936 261.392 763.59 261.392 760.575C261.392 754.621 263.391 751.406 265.027 748.839L265.093 748.736C266.425 746.645 267.387 745.135 267.387 741.77C267.387 738.404 266.425 736.896 265.095 734.809L265.088 734.798C263.441 732.212 261.392 728.994 261.392 722.964C261.392 716.935 263.441 713.716 265.088 711.131L265.093 711.123C266.424 709.035 267.387 707.526 267.387 704.158C267.387 703.628 267.364 703.146 267.32 702.704C267.287 702.37 267.242 702.056 267.185 701.76L267.075 701L267.658 701.007L267.72 701.287C267.81 701.696 267.881 702.136 267.928 702.612C267.975 703.089 268 703.602 268 704.158C268 707.78 266.982 709.378 265.574 711.584L265.558 711.61C263.971 714.101 262.005 717.203 262.005 722.964C262.005 728.739 263.981 731.843 265.569 734.336L265.576 734.348C266.983 736.554 268 738.149 268 741.77C268 745.336 267.013 746.938 265.64 749.094L265.574 749.198C263.985 751.69 262.005 754.796 262.005 760.575C262.005 763.467 262.497 765.71 263.187 767.539C263.879 769.374 264.776 770.807 265.574 772.06C266.261 773.137 266.856 774.101 267.285 775.231C267.719 776.377 267.983 777.684 267.999 779.428L268 779.498C267.983 781.245 267.719 782.551 267.284 783.696C266.856 784.828 266.261 785.791 265.574 786.868C264.776 788.12 263.879 789.554 263.187 791.389C262.497 793.218 262.005 795.46 262.005 798.351C262.005 801.244 262.497 803.461 263.185 805.261C263.876 807.068 264.775 808.477 265.574 809.73C266.982 811.94 268 813.536 268 817.157C268 820.778 266.982 822.375 265.575 824.582L265.562 824.602C263.975 827.094 262.005 830.196 262.005 835.963C262.005 841.733 263.977 844.835 265.565 847.329L265.574 847.343C266.27 848.434 266.87 849.375 267.304 850.508C267.741 851.65 268 852.963 268 854.77C268 858.393 266.982 859.989 265.575 862.196L265.492 862.326C263.99 864.682 262.18 867.524 262.016 872.787C262.007 873.071 262.007 873.28 262.016 873.564C262.18 878.827 263.99 881.669 265.492 884.025L265.574 884.154C266.982 886.364 268 887.96 268 891.581C268 893.388 267.741 894.701 267.304 895.843C266.87 896.976 266.27 897.918 265.574 899.008L265.569 899.015C263.981 901.509 262.005 904.613 262.005 910.388C262.005 916.149 263.971 919.251 265.557 921.741L265.575 921.768C266.982 923.975 268 925.572 268 929.194C268 932.815 266.983 934.411 265.576 936.618C264.775 937.874 263.876 939.283 263.185 941.09C262.497 942.89 262.005 945.107 262.005 947.999L262.02 949H229V948.624V948.248H229.613Z"/>
</mask>
<path d="M229.613 948.248H261.395L261.393 948.002C261.392 944.985 261.909 942.664 262.632 940.773C263.354 938.887 264.274 937.444 265.093 936.159C266.425 934.069 267.387 932.559 267.387 929.194C267.387 925.828 266.424 924.318 265.093 922.23L265.09 922.225C263.441 919.636 261.392 916.417 261.392 910.388C261.392 904.358 263.441 901.14 265.088 898.554L265.093 898.547C265.766 897.491 266.347 896.579 266.75 895.526C267.15 894.482 267.387 893.269 267.387 891.581C267.387 888.215 266.425 886.705 265.094 884.618L265.011 884.487C263.488 882.097 261.661 879.228 261.42 873.953H261.392V872.398H261.42C261.661 867.123 263.488 864.254 265.011 861.864L265.109 861.71C266.432 859.634 267.387 858.122 267.387 854.77C267.387 853.083 267.15 851.869 266.75 850.825C266.348 849.773 265.768 848.864 265.096 847.81L265.087 847.796C263.44 845.21 261.392 841.993 261.392 835.963C261.392 829.932 263.441 826.715 265.088 824.129L265.099 824.112C266.427 822.029 267.387 820.518 267.387 817.157C267.387 813.792 266.425 812.282 265.094 810.194C264.274 808.907 263.354 807.464 262.632 805.578C261.909 803.686 261.392 801.366 261.392 798.351C261.392 795.338 261.908 792.992 262.631 791.075C263.351 789.167 264.273 787.693 265.093 786.406C265.753 785.37 266.325 784.446 266.73 783.379C267.13 782.327 267.374 781.12 267.388 779.498L267.387 779.431C267.374 777.809 267.13 776.601 266.731 775.548C266.325 774.481 265.753 773.557 265.093 772.521C264.273 771.234 263.351 769.761 262.631 767.853C261.908 765.936 261.392 763.59 261.392 760.575C261.392 754.621 263.391 751.406 265.027 748.839L265.093 748.736C266.425 746.645 267.387 745.135 267.387 741.77C267.387 738.404 266.425 736.896 265.095 734.809L265.088 734.798C263.441 732.212 261.392 728.994 261.392 722.964C261.392 716.935 263.441 713.716 265.088 711.131L265.093 711.123C266.424 709.035 267.387 707.526 267.387 704.158C267.387 703.628 267.364 703.146 267.32 702.704C267.287 702.37 267.242 702.056 267.185 701.76L267.075 701L267.658 701.007L267.72 701.287C267.81 701.696 267.881 702.136 267.928 702.612C267.975 703.089 268 703.602 268 704.158C268 707.78 266.982 709.378 265.574 711.584L265.558 711.61C263.971 714.101 262.005 717.203 262.005 722.964C262.005 728.739 263.981 731.843 265.569 734.336L265.576 734.348C266.983 736.554 268 738.149 268 741.77C268 745.336 267.013 746.938 265.64 749.094L265.574 749.198C263.985 751.69 262.005 754.796 262.005 760.575C262.005 763.467 262.497 765.71 263.187 767.539C263.879 769.374 264.776 770.807 265.574 772.06C266.261 773.137 266.856 774.101 267.285 775.231C267.719 776.377 267.983 777.684 267.999 779.428L268 779.498C267.983 781.245 267.719 782.551 267.284 783.696C266.856 784.828 266.261 785.791 265.574 786.868C264.776 788.12 263.879 789.554 263.187 791.389C262.497 793.218 262.005 795.46 262.005 798.351C262.005 801.244 262.497 803.461 263.185 805.261C263.876 807.068 264.775 808.477 265.574 809.73C266.982 811.94 268 813.536 268 817.157C268 820.778 266.982 822.375 265.575 824.582L265.562 824.602C263.975 827.094 262.005 830.196 262.005 835.963C262.005 841.733 263.977 844.835 265.565 847.329L265.574 847.343C266.27 848.434 266.87 849.375 267.304 850.508C267.741 851.65 268 852.963 268 854.77C268 858.393 266.982 859.989 265.575 862.196L265.492 862.326C263.99 864.682 262.18 867.524 262.016 872.787C262.007 873.071 262.007 873.28 262.016 873.564C262.18 878.827 263.99 881.669 265.492 884.025L265.574 884.154C266.982 886.364 268 887.96 268 891.581C268 893.388 267.741 894.701 267.304 895.843C266.87 896.976 266.27 897.918 265.574 899.008L265.569 899.015C263.981 901.509 262.005 904.613 262.005 910.388C262.005 916.149 263.971 919.251 265.557 921.741L265.575 921.768C266.982 923.975 268 925.572 268 929.194C268 932.815 266.983 934.411 265.576 936.618C264.775 937.874 263.876 939.283 263.185 941.09C262.497 942.89 262.005 945.107 262.005 947.999L262.02 949H229V948.624V948.248H229.613Z" fill="#FBA409"/>
<path d="M229.613 948.248H261.395L261.393 948.002C261.392 944.985 261.909 942.664 262.632 940.773C263.354 938.887 264.274 937.444 265.093 936.159C266.425 934.069 267.387 932.559 267.387 929.194C267.387 925.828 266.424 924.318 265.093 922.23L265.09 922.225C263.441 919.636 261.392 916.417 261.392 910.388C261.392 904.358 263.441 901.14 265.088 898.554L265.093 898.547C265.766 897.491 266.347 896.579 266.75 895.526C267.15 894.482 267.387 893.269 267.387 891.581C267.387 888.215 266.425 886.705 265.094 884.618L265.011 884.487C263.488 882.097 261.661 879.228 261.42 873.953H261.392V872.398H261.42C261.661 867.123 263.488 864.254 265.011 861.864L265.109 861.71C266.432 859.634 267.387 858.122 267.387 854.77C267.387 853.083 267.15 851.869 266.75 850.825C266.348 849.773 265.768 848.864 265.096 847.81L265.087 847.796C263.44 845.21 261.392 841.993 261.392 835.963C261.392 829.932 263.441 826.715 265.088 824.129L265.099 824.112C266.427 822.029 267.387 820.518 267.387 817.157C267.387 813.792 266.425 812.282 265.094 810.194C264.274 808.907 263.354 807.464 262.632 805.578C261.909 803.686 261.392 801.366 261.392 798.351C261.392 795.338 261.908 792.992 262.631 791.075C263.351 789.167 264.273 787.693 265.093 786.406C265.753 785.37 266.325 784.446 266.73 783.379C267.13 782.327 267.374 781.12 267.388 779.498L267.387 779.431C267.374 777.809 267.13 776.601 266.731 775.548C266.325 774.481 265.753 773.557 265.093 772.521C264.273 771.234 263.351 769.761 262.631 767.853C261.908 765.936 261.392 763.59 261.392 760.575C261.392 754.621 263.391 751.406 265.027 748.839L265.093 748.736C266.425 746.645 267.387 745.135 267.387 741.77C267.387 738.404 266.425 736.896 265.095 734.809L265.088 734.798C263.441 732.212 261.392 728.994 261.392 722.964C261.392 716.935 263.441 713.716 265.088 711.131L265.093 711.123C266.424 709.035 267.387 707.526 267.387 704.158C267.387 703.628 267.364 703.146 267.32 702.704C267.287 702.37 267.242 702.056 267.185 701.76L267.075 701L267.658 701.007L267.72 701.287C267.81 701.696 267.881 702.136 267.928 702.612C267.975 703.089 268 703.602 268 704.158C268 707.78 266.982 709.378 265.574 711.584L265.558 711.61C263.971 714.101 262.005 717.203 262.005 722.964C262.005 728.739 263.981 731.843 265.569 734.336L265.576 734.348C266.983 736.554 268 738.149 268 741.77C268 745.336 267.013 746.938 265.64 749.094L265.574 749.198C263.985 751.69 262.005 754.796 262.005 760.575C262.005 763.467 262.497 765.71 263.187 767.539C263.879 769.374 264.776 770.807 265.574 772.06C266.261 773.137 266.856 774.101 267.285 775.231C267.719 776.377 267.983 777.684 267.999 779.428L268 779.498C267.983 781.245 267.719 782.551 267.284 783.696C266.856 784.828 266.261 785.791 265.574 786.868C264.776 788.12 263.879 789.554 263.187 791.389C262.497 793.218 262.005 795.46 262.005 798.351C262.005 801.244 262.497 803.461 263.185 805.261C263.876 807.068 264.775 808.477 265.574 809.73C266.982 811.94 268 813.536 268 817.157C268 820.778 266.982 822.375 265.575 824.582L265.562 824.602C263.975 827.094 262.005 830.196 262.005 835.963C262.005 841.733 263.977 844.835 265.565 847.329L265.574 847.343C266.27 848.434 266.87 849.375 267.304 850.508C267.741 851.65 268 852.963 268 854.77C268 858.393 266.982 859.989 265.575 862.196L265.492 862.326C263.99 864.682 262.18 867.524 262.016 872.787C262.007 873.071 262.007 873.28 262.016 873.564C262.18 878.827 263.99 881.669 265.492 884.025L265.574 884.154C266.982 886.364 268 887.96 268 891.581C268 893.388 267.741 894.701 267.304 895.843C266.87 896.976 266.27 897.918 265.574 899.008L265.569 899.015C263.981 901.509 262.005 904.613 262.005 910.388C262.005 916.149 263.971 919.251 265.557 921.741L265.575 921.768C266.982 923.975 268 925.572 268 929.194C268 932.815 266.983 934.411 265.576 936.618C264.775 937.874 263.876 939.283 263.185 941.09C262.497 942.89 262.005 945.107 262.005 947.999L262.02 949H229V948.624V948.248H229.613Z" stroke="#FBA409" mask="url(#path-59-outside-1_1270_16717)"/>
<mask id="path-60-outside-2_1270_16717" maskUnits="userSpaceOnUse" x="180" y="701" width="41" height="249" fill="black">
<rect fill="white" x="180" y="701" width="41" height="249"/>
<path d="M219.387 948.251H187.605L187.607 948.006C187.608 945.001 187.091 942.69 186.368 940.806C185.646 938.928 184.726 937.491 183.907 936.211C182.575 934.129 181.613 932.625 181.613 929.274C181.613 925.921 182.576 924.417 183.907 922.338L183.91 922.332C185.559 919.754 187.608 916.549 187.608 910.544C187.608 904.538 185.559 901.333 183.912 898.758L183.907 898.751C183.234 897.699 182.653 896.791 182.25 895.742C181.85 894.702 181.613 893.494 181.613 891.813C181.613 888.46 182.575 886.956 183.906 884.877L183.989 884.747C185.512 882.367 187.339 879.509 187.58 874.256H187.608V872.707H187.58C187.339 867.453 185.512 864.595 183.989 862.216L183.891 862.062C182.568 859.994 181.613 858.489 181.613 855.15C181.613 853.469 181.85 852.261 182.25 851.221C182.652 850.173 183.232 849.267 183.904 848.218L183.913 848.204C185.56 845.628 187.608 842.424 187.608 836.419C187.608 830.412 185.559 827.208 183.912 824.632L183.901 824.616C182.573 822.541 181.613 821.036 181.613 817.689C181.613 814.337 182.575 812.833 183.906 810.754C184.726 809.472 185.646 808.035 186.368 806.157C187.091 804.272 187.608 801.961 187.608 798.959C187.608 795.957 187.092 793.621 186.369 791.712C185.649 789.812 184.727 788.344 183.907 787.062C183.247 786.03 182.675 785.11 182.27 784.047C181.87 782.999 181.626 781.797 181.612 780.182L181.613 780.115C181.626 778.499 181.87 777.296 182.269 776.248C182.675 775.185 183.247 774.264 183.907 773.233C184.727 771.951 185.649 770.484 186.369 768.583C187.092 766.674 187.608 764.338 187.608 761.335C187.608 755.404 185.609 752.202 183.973 749.646L183.907 749.544C182.575 747.461 181.613 745.958 181.613 742.606C181.613 739.254 182.575 737.751 183.905 735.673L183.912 735.661C185.559 733.086 187.608 729.881 187.608 723.876C187.608 717.87 185.559 714.665 183.912 712.09L183.907 712.082C182.576 710.003 181.613 708.5 181.613 705.145C181.613 704.617 181.636 704.137 181.68 703.697C181.713 703.364 181.758 703.052 181.815 702.756L181.925 702L181.342 702.007L181.28 702.285C181.19 702.694 181.119 703.132 181.072 703.606C181.025 704.081 181 704.591 181 705.145C181 708.753 182.018 710.344 183.426 712.541L183.442 712.567C185.029 715.048 186.995 718.138 186.995 723.876C186.995 729.627 185.019 732.718 183.431 735.202L183.424 735.213C182.017 737.41 181 738.999 181 742.606C181 746.157 181.987 747.753 183.36 749.9L183.426 750.003C185.015 752.486 186.995 755.579 186.995 761.335C186.995 764.215 186.503 766.449 185.813 768.27C185.121 770.098 184.224 771.526 183.426 772.773C182.739 773.846 182.144 774.806 181.715 775.932C181.281 777.073 181.017 778.374 181.001 780.112L181 780.182C181.017 781.921 181.281 783.222 181.716 784.363C182.144 785.49 182.739 786.449 183.426 787.521C184.224 788.769 185.121 790.197 185.813 792.025C186.503 793.846 186.995 796.079 186.995 798.959C186.995 801.84 186.503 804.047 185.815 805.841C185.124 807.64 184.225 809.043 183.426 810.292C182.018 812.493 181 814.083 181 817.689C181 821.295 182.018 822.886 183.425 825.084L183.438 825.104C185.025 827.585 186.995 830.675 186.995 836.419C186.995 842.166 185.023 845.255 183.435 847.739L183.426 847.753C182.73 848.839 182.13 849.776 181.696 850.905C181.259 852.043 181 853.35 181 855.15C181 858.758 182.018 860.348 183.425 862.547L183.508 862.675C185.01 865.022 186.82 867.852 186.984 873.094C186.993 873.378 186.993 873.585 186.984 873.868C186.82 879.11 185.01 881.94 183.508 884.287L183.426 884.415C182.018 886.616 181 888.206 181 891.813C181 893.612 181.259 894.92 181.696 896.057C182.13 897.186 182.73 898.124 183.426 899.21L183.431 899.217C185.019 901.701 186.995 904.792 186.995 910.544C186.995 916.281 185.029 919.371 183.443 921.851L183.425 921.878C182.018 924.076 181 925.667 181 929.274C181 932.88 182.017 934.47 183.424 936.668C184.225 937.919 185.124 939.322 185.815 941.122C186.503 942.915 186.995 945.122 186.995 948.003L186.98 949H220V948.625V948.251H219.387Z"/>
</mask>
<path d="M219.387 948.251H187.605L187.607 948.006C187.608 945.001 187.091 942.69 186.368 940.806C185.646 938.928 184.726 937.491 183.907 936.211C182.575 934.129 181.613 932.625 181.613 929.274C181.613 925.921 182.576 924.417 183.907 922.338L183.91 922.332C185.559 919.754 187.608 916.549 187.608 910.544C187.608 904.538 185.559 901.333 183.912 898.758L183.907 898.751C183.234 897.699 182.653 896.791 182.25 895.742C181.85 894.702 181.613 893.494 181.613 891.813C181.613 888.46 182.575 886.956 183.906 884.877L183.989 884.747C185.512 882.367 187.339 879.509 187.58 874.256H187.608V872.707H187.58C187.339 867.453 185.512 864.595 183.989 862.216L183.891 862.062C182.568 859.994 181.613 858.489 181.613 855.15C181.613 853.469 181.85 852.261 182.25 851.221C182.652 850.173 183.232 849.267 183.904 848.218L183.913 848.204C185.56 845.628 187.608 842.424 187.608 836.419C187.608 830.412 185.559 827.208 183.912 824.632L183.901 824.616C182.573 822.541 181.613 821.036 181.613 817.689C181.613 814.337 182.575 812.833 183.906 810.754C184.726 809.472 185.646 808.035 186.368 806.157C187.091 804.272 187.608 801.961 187.608 798.959C187.608 795.957 187.092 793.621 186.369 791.712C185.649 789.812 184.727 788.344 183.907 787.062C183.247 786.03 182.675 785.11 182.27 784.047C181.87 782.999 181.626 781.797 181.612 780.182L181.613 780.115C181.626 778.499 181.87 777.296 182.269 776.248C182.675 775.185 183.247 774.264 183.907 773.233C184.727 771.951 185.649 770.484 186.369 768.583C187.092 766.674 187.608 764.338 187.608 761.335C187.608 755.404 185.609 752.202 183.973 749.646L183.907 749.544C182.575 747.461 181.613 745.958 181.613 742.606C181.613 739.254 182.575 737.751 183.905 735.673L183.912 735.661C185.559 733.086 187.608 729.881 187.608 723.876C187.608 717.87 185.559 714.665 183.912 712.09L183.907 712.082C182.576 710.003 181.613 708.5 181.613 705.145C181.613 704.617 181.636 704.137 181.68 703.697C181.713 703.364 181.758 703.052 181.815 702.756L181.925 702L181.342 702.007L181.28 702.285C181.19 702.694 181.119 703.132 181.072 703.606C181.025 704.081 181 704.591 181 705.145C181 708.753 182.018 710.344 183.426 712.541L183.442 712.567C185.029 715.048 186.995 718.138 186.995 723.876C186.995 729.627 185.019 732.718 183.431 735.202L183.424 735.213C182.017 737.41 181 738.999 181 742.606C181 746.157 181.987 747.753 183.36 749.9L183.426 750.003C185.015 752.486 186.995 755.579 186.995 761.335C186.995 764.215 186.503 766.449 185.813 768.27C185.121 770.098 184.224 771.526 183.426 772.773C182.739 773.846 182.144 774.806 181.715 775.932C181.281 777.073 181.017 778.374 181.001 780.112L181 780.182C181.017 781.921 181.281 783.222 181.716 784.363C182.144 785.49 182.739 786.449 183.426 787.521C184.224 788.769 185.121 790.197 185.813 792.025C186.503 793.846 186.995 796.079 186.995 798.959C186.995 801.84 186.503 804.047 185.815 805.841C185.124 807.64 184.225 809.043 183.426 810.292C182.018 812.493 181 814.083 181 817.689C181 821.295 182.018 822.886 183.425 825.084L183.438 825.104C185.025 827.585 186.995 830.675 186.995 836.419C186.995 842.166 185.023 845.255 183.435 847.739L183.426 847.753C182.73 848.839 182.13 849.776 181.696 850.905C181.259 852.043 181 853.35 181 855.15C181 858.758 182.018 860.348 183.425 862.547L183.508 862.675C185.01 865.022 186.82 867.852 186.984 873.094C186.993 873.378 186.993 873.585 186.984 873.868C186.82 879.11 185.01 881.94 183.508 884.287L183.426 884.415C182.018 886.616 181 888.206 181 891.813C181 893.612 181.259 894.92 181.696 896.057C182.13 897.186 182.73 898.124 183.426 899.21L183.431 899.217C185.019 901.701 186.995 904.792 186.995 910.544C186.995 916.281 185.029 919.371 183.443 921.851L183.425 921.878C182.018 924.076 181 925.667 181 929.274C181 932.88 182.017 934.47 183.424 936.668C184.225 937.919 185.124 939.322 185.815 941.122C186.503 942.915 186.995 945.122 186.995 948.003L186.98 949H220V948.625V948.251H219.387Z" fill="#FBA409"/>
<path d="M219.387 948.251H187.605L187.607 948.006C187.608 945.001 187.091 942.69 186.368 940.806C185.646 938.928 184.726 937.491 183.907 936.211C182.575 934.129 181.613 932.625 181.613 929.274C181.613 925.921 182.576 924.417 183.907 922.338L183.91 922.332C185.559 919.754 187.608 916.549 187.608 910.544C187.608 904.538 185.559 901.333 183.912 898.758L183.907 898.751C183.234 897.699 182.653 896.791 182.25 895.742C181.85 894.702 181.613 893.494 181.613 891.813C181.613 888.46 182.575 886.956 183.906 884.877L183.989 884.747C185.512 882.367 187.339 879.509 187.58 874.256H187.608V872.707H187.58C187.339 867.453 185.512 864.595 183.989 862.216L183.891 862.062C182.568 859.994 181.613 858.489 181.613 855.15C181.613 853.469 181.85 852.261 182.25 851.221C182.652 850.173 183.232 849.267 183.904 848.218L183.913 848.204C185.56 845.628 187.608 842.424 187.608 836.419C187.608 830.412 185.559 827.208 183.912 824.632L183.901 824.616C182.573 822.541 181.613 821.036 181.613 817.689C181.613 814.337 182.575 812.833 183.906 810.754C184.726 809.472 185.646 808.035 186.368 806.157C187.091 804.272 187.608 801.961 187.608 798.959C187.608 795.957 187.092 793.621 186.369 791.712C185.649 789.812 184.727 788.344 183.907 787.062C183.247 786.03 182.675 785.11 182.27 784.047C181.87 782.999 181.626 781.797 181.612 780.182L181.613 780.115C181.626 778.499 181.87 777.296 182.269 776.248C182.675 775.185 183.247 774.264 183.907 773.233C184.727 771.951 185.649 770.484 186.369 768.583C187.092 766.674 187.608 764.338 187.608 761.335C187.608 755.404 185.609 752.202 183.973 749.646L183.907 749.544C182.575 747.461 181.613 745.958 181.613 742.606C181.613 739.254 182.575 737.751 183.905 735.673L183.912 735.661C185.559 733.086 187.608 729.881 187.608 723.876C187.608 717.87 185.559 714.665 183.912 712.09L183.907 712.082C182.576 710.003 181.613 708.5 181.613 705.145C181.613 704.617 181.636 704.137 181.68 703.697C181.713 703.364 181.758 703.052 181.815 702.756L181.925 702L181.342 702.007L181.28 702.285C181.19 702.694 181.119 703.132 181.072 703.606C181.025 704.081 181 704.591 181 705.145C181 708.753 182.018 710.344 183.426 712.541L183.442 712.567C185.029 715.048 186.995 718.138 186.995 723.876C186.995 729.627 185.019 732.718 183.431 735.202L183.424 735.213C182.017 737.41 181 738.999 181 742.606C181 746.157 181.987 747.753 183.36 749.9L183.426 750.003C185.015 752.486 186.995 755.579 186.995 761.335C186.995 764.215 186.503 766.449 185.813 768.27C185.121 770.098 184.224 771.526 183.426 772.773C182.739 773.846 182.144 774.806 181.715 775.932C181.281 777.073 181.017 778.374 181.001 780.112L181 780.182C181.017 781.921 181.281 783.222 181.716 784.363C182.144 785.49 182.739 786.449 183.426 787.521C184.224 788.769 185.121 790.197 185.813 792.025C186.503 793.846 186.995 796.079 186.995 798.959C186.995 801.84 186.503 804.047 185.815 805.841C185.124 807.64 184.225 809.043 183.426 810.292C182.018 812.493 181 814.083 181 817.689C181 821.295 182.018 822.886 183.425 825.084L183.438 825.104C185.025 827.585 186.995 830.675 186.995 836.419C186.995 842.166 185.023 845.255 183.435 847.739L183.426 847.753C182.73 848.839 182.13 849.776 181.696 850.905C181.259 852.043 181 853.35 181 855.15C181 858.758 182.018 860.348 183.425 862.547L183.508 862.675C185.01 865.022 186.82 867.852 186.984 873.094C186.993 873.378 186.993 873.585 186.984 873.868C186.82 879.11 185.01 881.94 183.508 884.287L183.426 884.415C182.018 886.616 181 888.206 181 891.813C181 893.612 181.259 894.92 181.696 896.057C182.13 897.186 182.73 898.124 183.426 899.21L183.431 899.217C185.019 901.701 186.995 904.792 186.995 910.544C186.995 916.281 185.029 919.371 183.443 921.851L183.425 921.878C182.018 924.076 181 925.667 181 929.274C181 932.88 182.017 934.47 183.424 936.668C184.225 937.919 185.124 939.322 185.815 941.122C186.503 942.915 186.995 945.122 186.995 948.003L186.98 949H220V948.625V948.251H219.387Z" stroke="#FBA409" mask="url(#path-60-outside-2_1270_16717)"/>
</svg>
