<svg width="540" height="895" viewBox="0 0 540 895" fill="none" xmlns="http://www.w3.org/2000/svg">
<path fill-rule="evenodd" clip-rule="evenodd" d="M204.934 3.03143V469.439V471.944V534.666V597.809V762.628V765.133V890.998H178.812C180.081 889.233 181.283 886.968 181.283 883.269V883.255C181.283 878.571 179.354 876.186 177.804 874.203C176.495 872.529 175.547 871.318 175.547 868.593C175.547 865.866 176.495 864.657 177.804 862.981C179.354 861 181.283 858.536 181.283 853.93C181.283 849.323 179.354 846.86 177.804 844.878C176.495 843.203 175.547 841.993 175.547 839.268C175.547 836.544 176.495 835.333 177.804 833.658C179.354 831.679 181.283 829.212 181.283 824.607C181.283 820.002 179.354 817.454 177.804 815.474C176.514 813.826 175.576 812.534 175.547 809.907V809.855C175.576 807.228 176.514 805.937 177.804 804.288C179.354 802.308 181.283 799.761 181.283 795.156C181.283 790.55 179.354 788.084 177.804 786.104C176.495 784.429 175.547 783.219 175.547 780.494C175.547 777.77 176.495 776.559 177.804 774.884C182.915 768.35 182.178 765.265 177.804 759.674C176.495 757.999 175.547 756.789 175.547 754.064C175.547 751.34 176.495 750.13 177.804 748.454C179.354 746.475 181.283 744.008 181.283 739.402C181.283 734.798 179.354 732.25 177.804 730.27C176.514 728.622 175.576 727.33 175.547 724.703V724.651C175.576 722.025 176.514 720.733 177.804 719.085C179.354 717.104 181.283 714.556 181.283 709.951C181.283 705.346 179.354 702.88 177.804 700.901C176.495 699.225 175.547 698.015 175.547 695.291C175.547 692.565 176.495 691.356 177.804 689.681C179.354 687.699 181.283 685.235 181.283 680.629C181.283 676.022 179.354 673.558 177.804 671.577C176.495 669.902 175.547 668.692 175.547 665.966C175.547 663.24 176.495 662.03 177.804 660.356C179.354 658.373 181.283 655.988 181.283 651.304V651.289C181.283 646.605 179.354 644.22 177.804 642.238C176.495 640.564 175.547 639.353 175.547 636.627C175.547 633.901 176.495 632.692 177.804 631.016C179.354 629.035 181.283 626.571 181.283 621.965C181.283 617.358 179.354 614.895 177.804 612.913C176.495 611.237 175.547 610.028 175.547 607.302C175.547 604.578 176.495 603.368 177.804 601.692C178.64 600.626 179.585 599.417 180.279 597.809H178.812C179.926 596.259 180.989 594.322 181.231 591.368C180.915 587.551 179.205 585.298 177.804 583.509C176.514 581.861 175.576 580.569 175.547 577.941V577.89C175.552 577.462 175.58 577.07 175.631 576.706C175.575 576.312 175.547 575.881 175.547 575.403C175.547 572.677 176.495 571.468 177.804 569.792C179.211 567.994 180.929 565.799 181.235 561.966C180.929 558.132 179.211 555.935 177.804 554.139C176.495 552.464 175.547 551.253 175.547 548.529C175.547 548.083 175.572 547.678 175.62 547.304C175.572 546.93 175.547 546.525 175.547 546.079C175.547 543.354 176.495 542.144 177.804 540.468C178.968 538.983 180.344 537.224 180.959 534.492L180.929 530.662C181.073 531.27 181.179 531.927 181.236 532.64C181.267 532.25 181.283 531.843 181.283 531.418C181.283 526.812 179.354 524.265 177.804 522.285C176.514 520.637 175.576 519.345 175.547 516.718V516.666C175.576 514.039 176.514 512.748 177.804 511.099C179.354 509.119 181.283 506.571 181.283 501.967C181.283 497.361 179.354 494.894 177.804 492.915C176.495 491.24 175.547 490.029 175.547 487.305C175.547 484.581 176.495 483.37 177.804 481.695C182.915 475.161 182.178 472.076 177.804 466.485C176.495 464.81 175.547 463.6 175.547 460.875C175.547 458.151 176.495 456.94 177.804 455.265C179.354 453.286 181.283 450.818 181.283 446.213C181.283 441.609 179.354 439.061 177.804 437.08C176.514 435.433 175.576 434.141 175.547 431.514V431.462C175.576 428.835 176.514 427.544 177.804 425.896C179.354 423.915 181.283 421.367 181.283 416.762C181.283 412.157 179.354 409.691 177.804 407.711C176.495 406.036 175.547 404.826 175.547 402.101C175.547 399.376 176.495 398.166 177.804 396.491C179.354 394.51 181.283 392.046 181.283 387.44C181.283 382.833 179.354 380.369 177.804 378.388C176.495 376.713 175.547 375.503 175.547 372.776C175.547 370.051 176.495 368.84 177.804 367.166C179.354 365.184 181.283 362.799 181.283 358.115V358.1C181.283 353.416 179.354 351.031 177.804 349.049C176.495 347.375 175.547 346.164 175.547 343.438C175.547 340.711 176.495 339.502 177.804 337.827C179.354 335.845 181.283 333.382 181.283 328.775C181.283 324.168 179.354 321.705 177.804 319.724C176.495 318.048 175.547 316.839 175.547 314.113C175.547 311.389 176.495 310.178 177.804 308.503C179.354 306.524 181.283 304.058 181.283 299.452C181.283 294.847 179.354 292.3 177.804 290.319C176.514 288.672 175.576 287.38 175.547 284.752V284.7C175.576 282.073 176.514 280.782 177.804 279.133C179.354 277.153 181.283 274.606 181.283 270.001C181.283 265.395 179.354 262.929 177.804 260.95C176.495 259.275 175.547 258.064 175.547 255.34C175.547 252.615 176.495 251.404 177.804 249.729C179.354 247.747 181.283 245.284 181.283 240.677C181.283 239.473 181.151 238.415 180.929 237.473L180.96 3.03143H204.934Z" fill="#E6E6E6"/>
<path d="M204.934 3.03146V469.439V471.944V534.666V597.809V762.628V765.133V890.998H178.812C180.081 889.233 181.283 886.968 181.283 883.269V883.255C181.283 878.571 179.354 876.186 177.804 874.203C176.495 872.529 175.547 871.318 175.547 868.593C175.547 865.866 176.495 864.657 177.804 862.981C179.354 861 181.283 858.536 181.283 853.93C181.283 849.323 179.354 846.86 177.804 844.878C176.495 843.203 175.547 841.993 175.547 839.268C175.547 836.544 176.495 835.333 177.804 833.658C179.354 831.679 181.283 829.212 181.283 824.607C181.283 820.002 179.354 817.454 177.804 815.474C176.514 813.826 175.576 812.534 175.547 809.907V809.855C175.576 807.228 176.514 805.937 177.804 804.288C179.354 802.308 181.283 799.761 181.283 795.156C181.283 790.55 179.354 788.084 177.804 786.104C176.495 784.429 175.547 783.219 175.547 780.494C175.547 777.77 176.495 776.559 177.804 774.884C182.915 768.35 182.178 765.265 177.804 759.674C176.495 757.999 175.547 756.789 175.547 754.064C175.547 751.34 176.495 750.13 177.804 748.454C179.354 746.475 181.283 744.008 181.283 739.402C181.283 734.798 179.354 732.25 177.804 730.27C176.514 728.622 175.576 727.33 175.547 724.703V724.651C175.576 722.025 176.514 720.733 177.804 719.085C179.354 717.104 181.283 714.556 181.283 709.951C181.283 705.346 179.354 702.88 177.804 700.901C176.495 699.225 175.547 698.015 175.547 695.291C175.547 692.565 176.495 691.356 177.804 689.681C179.354 687.699 181.283 685.235 181.283 680.629C181.283 676.022 179.354 673.558 177.804 671.577C176.495 669.902 175.547 668.692 175.547 665.966C175.547 663.24 176.495 662.03 177.804 660.356C179.354 658.373 181.283 655.988 181.283 651.304V651.289C181.283 646.605 179.354 644.22 177.804 642.238C176.495 640.564 175.547 639.353 175.547 636.627C175.547 633.901 176.495 632.692 177.804 631.016C179.354 629.035 181.283 626.571 181.283 621.965C181.283 617.358 179.354 614.895 177.804 612.913C176.495 611.237 175.547 610.028 175.547 607.302C175.547 604.578 176.495 603.368 177.804 601.692C178.64 600.626 179.585 599.417 180.279 597.809H178.812C179.926 596.259 180.989 594.322 181.231 591.368C180.915 587.551 179.205 585.298 177.804 583.509C176.514 581.861 175.576 580.569 175.547 577.941V577.89C175.552 577.462 175.58 577.07 175.631 576.706C175.575 576.312 175.547 575.881 175.547 575.403C175.547 572.677 176.495 571.468 177.804 569.792C179.211 567.994 180.929 565.799 181.235 561.966C180.929 558.132 179.211 555.935 177.804 554.139C176.495 552.464 175.547 551.253 175.547 548.529C175.547 548.083 175.572 547.678 175.62 547.304C175.572 546.93 175.547 546.525 175.547 546.079C175.547 543.354 176.495 542.144 177.804 540.468C178.968 538.983 180.344 537.224 180.959 534.492L180.929 530.662C181.073 531.27 181.179 531.927 181.236 532.64C181.267 532.25 181.283 531.843 181.283 531.418C181.283 526.812 179.354 524.265 177.804 522.285C176.514 520.637 175.576 519.345 175.547 516.718V516.666C175.576 514.039 176.514 512.748 177.804 511.099C179.354 509.119 181.283 506.571 181.283 501.967C181.283 497.361 179.354 494.894 177.804 492.915C176.495 491.24 175.547 490.029 175.547 487.305C175.547 484.58 176.495 483.37 177.804 481.695C182.915 475.161 182.178 472.076 177.804 466.485C176.495 464.81 175.547 463.6 175.547 460.875C175.547 458.151 176.495 456.94 177.804 455.265C179.354 453.286 181.283 450.818 181.283 446.213C181.283 441.609 179.354 439.061 177.804 437.08C176.514 435.433 175.576 434.141 175.547 431.514V431.462C175.576 428.835 176.514 427.544 177.804 425.896C179.354 423.915 181.283 421.367 181.283 416.762C181.283 412.157 179.354 409.691 177.804 407.711C176.495 406.036 175.547 404.826 175.547 402.101C175.547 399.376 176.495 398.166 177.804 396.491C179.354 394.51 181.283 392.046 181.283 387.44C181.283 382.833 179.354 380.369 177.804 378.388C176.495 376.713 175.547 375.503 175.547 372.776C175.547 370.051 176.495 368.84 177.804 367.166C179.354 365.184 181.283 362.799 181.283 358.115V358.1C181.283 353.416 179.354 351.031 177.804 349.049C176.495 347.375 175.547 346.164 175.547 343.438C175.547 340.711 176.495 339.502 177.804 337.827C179.354 335.845 181.283 333.382 181.283 328.775C181.283 324.168 179.354 321.705 177.804 319.724C176.495 318.048 175.547 316.839 175.547 314.113C175.547 311.389 176.495 310.178 177.804 308.503C179.354 306.524 181.283 304.058 181.283 299.452C181.283 294.847 179.354 292.3 177.804 290.319C176.514 288.672 175.576 287.38 175.547 284.752V284.7C175.576 282.073 176.514 280.782 177.804 279.133C179.354 277.153 181.283 274.606 181.283 270.001C181.283 265.395 179.354 262.929 177.804 260.95C176.495 259.275 175.547 258.064 175.547 255.34C175.547 252.615 176.495 251.404 177.804 249.729C179.354 247.747 181.283 245.284 181.283 240.677C181.283 239.473 181.151 238.415 180.929 237.473L180.96 3.03146H204.934Z" stroke="#757EB3" stroke-miterlimit="22.9256"/>
<path fill-rule="evenodd" clip-rule="evenodd" d="M205.506 891.026H215.302V3.02985H205.506V891.026Z" fill="#FFEC08"/>
<path d="M205.506 891.026H215.302V3.02988H205.506V891.026Z" stroke="#757EB3" stroke-miterlimit="22.9256"/>
<path fill-rule="evenodd" clip-rule="evenodd" d="M171.988 650.547H181.784V3.02832H171.988V650.547Z" fill="#FFEC08"/>
<path d="M171.988 650.547H181.784V3.0283H171.988V650.547Z" stroke="#757EB3" stroke-miterlimit="22.9256"/>
<path fill-rule="evenodd" clip-rule="evenodd" d="M171.988 650.551H181.784V701.091H171.988V650.551Z" fill="#00963F"/>
<path d="M171.988 650.551H181.784V701.091H171.988V650.551Z" stroke="#757EB3" stroke-miterlimit="22.9256"/>
<path fill-rule="evenodd" clip-rule="evenodd" d="M171.969 3.03253V279.531V282.037V344.758V407.902V572.721V575.226V701.091H145.847C147.116 699.326 148.318 697.06 148.318 693.362V693.347C148.318 688.663 146.39 686.278 144.839 684.296C143.53 682.622 142.582 681.411 142.582 678.686C142.582 675.959 143.53 674.75 144.839 673.074C146.39 671.093 148.318 668.629 148.318 664.023C148.318 659.416 146.39 656.953 144.839 654.971C143.53 653.295 142.582 652.086 142.582 649.36C142.582 646.636 143.53 645.426 144.839 643.75C146.39 641.771 148.318 639.305 148.318 634.7C148.318 630.094 146.39 627.547 144.839 625.567C143.549 623.919 142.611 622.627 142.582 620V619.948C142.611 617.321 143.549 616.03 144.839 614.381C146.39 612.401 148.318 609.853 148.318 605.249C148.318 600.643 146.39 598.176 144.839 596.197C143.53 594.522 142.582 593.311 142.582 590.587C142.582 587.862 143.53 586.652 144.839 584.977C149.95 578.443 149.213 575.358 144.839 569.767C143.53 568.092 142.582 566.881 142.582 564.157C142.582 561.432 143.53 560.222 144.839 558.547C146.39 556.568 148.318 554.1 148.318 549.495C148.318 544.891 146.39 542.343 144.839 540.362C143.549 538.715 142.611 537.423 142.582 534.796V534.744C142.611 532.117 143.549 530.826 144.839 529.178C146.39 527.197 148.318 524.649 148.318 520.044C148.318 515.439 146.39 512.973 144.839 510.993C143.53 509.318 142.582 508.108 142.582 505.383C142.582 502.658 143.53 501.448 144.839 499.773C146.39 497.792 148.318 495.328 148.318 490.721C148.318 486.115 146.39 483.651 144.839 481.67C143.53 479.995 142.582 478.785 142.582 476.058C142.582 473.333 143.53 472.122 144.839 470.448C146.39 468.466 148.318 466.081 148.318 461.397V461.382C148.318 456.698 146.39 454.313 144.839 452.331C143.53 450.657 142.582 449.446 142.582 446.72C142.582 443.993 143.53 442.784 144.839 441.108C146.39 439.127 148.318 436.664 148.318 432.057C148.318 427.45 146.39 424.987 144.839 423.006C143.53 421.33 142.582 420.121 142.582 417.395C142.582 414.671 143.53 413.46 144.839 411.785C145.675 410.718 146.62 409.51 147.314 407.902H145.847C146.962 406.351 148.024 404.415 148.266 401.461C147.95 397.644 146.24 395.391 144.839 393.601C143.549 391.953 142.611 390.661 142.582 388.034V387.982C142.587 387.555 142.615 387.163 142.666 386.799C142.61 386.404 142.582 385.973 142.582 385.496C142.582 382.77 143.53 381.56 144.839 379.885C146.246 378.087 147.964 375.892 148.27 372.058C147.964 368.225 146.246 366.028 144.839 364.232C143.53 362.557 142.582 361.346 142.582 358.622C142.582 358.176 142.607 357.77 142.655 357.397C142.607 357.023 142.582 356.617 142.582 356.171C142.582 353.447 143.53 352.236 144.839 350.561C146.003 349.076 147.379 347.317 147.994 344.584L147.964 340.755C148.108 341.363 148.214 342.02 148.271 342.733C148.302 342.342 148.318 341.936 148.318 341.51C148.318 336.905 146.39 334.358 144.839 332.377C143.549 330.73 142.611 329.438 142.582 326.811V326.758C142.611 324.131 143.549 322.84 144.839 321.192C146.39 319.211 148.318 316.664 148.318 312.06C148.318 307.454 146.39 304.987 144.839 303.008C143.53 301.333 142.582 300.122 142.582 297.398C142.582 294.673 143.53 293.462 144.839 291.787C149.95 285.254 149.213 282.168 144.839 276.578C143.53 274.903 142.582 273.692 142.582 270.968C142.582 268.243 143.53 267.033 144.839 265.357C146.39 263.378 148.318 260.911 148.318 256.306C148.318 251.702 146.39 249.154 144.839 247.173C143.549 245.525 142.611 244.234 142.582 241.607V241.555C142.611 238.928 143.549 237.637 144.839 235.988C146.39 234.008 148.318 231.459 148.318 226.855C148.318 222.249 146.39 219.784 144.839 217.804C143.53 216.129 142.582 214.918 142.582 212.194C142.582 209.468 143.53 208.259 144.839 206.584C146.39 204.602 148.318 202.139 148.318 197.532C148.318 192.926 146.39 190.462 144.839 188.481C143.53 186.805 142.582 185.596 142.582 182.869C142.582 180.144 143.53 178.933 144.839 177.259C146.39 175.276 148.318 172.892 148.318 168.207V168.193C148.318 163.509 146.39 161.124 144.839 159.141C143.53 157.467 142.582 156.256 142.582 153.531C142.582 150.804 143.53 149.595 144.839 147.919C146.39 145.938 148.318 143.474 148.318 138.868C148.318 134.261 146.39 131.798 144.839 129.816C143.53 128.141 142.582 126.932 142.582 124.206C142.582 121.482 143.53 120.271 144.839 118.596C146.39 116.617 148.318 114.15 148.318 109.545C148.318 104.94 146.39 102.392 144.839 100.412C143.549 98.764 142.611 97.4724 142.582 94.8448V94.7932C142.611 92.166 143.549 90.8749 144.839 89.2261C146.39 87.246 148.318 84.6985 148.318 80.0939C148.318 75.4882 146.39 73.0215 144.839 71.0423C143.53 69.3673 142.582 68.1566 142.582 65.4323C142.582 62.7076 143.53 61.4969 144.839 59.8218C146.39 57.8401 148.318 55.3762 148.318 50.7701C148.318 49.5649 148.187 48.5071 147.964 47.5658L147.97 3.03253H171.969Z" fill="#CCCCCC"/>
<path d="M171.969 3.03255V279.531V282.037V344.758V407.902V572.721V575.226V701.091H145.847C147.116 699.326 148.318 697.06 148.318 693.362V693.347C148.318 688.663 146.39 686.278 144.839 684.296C143.53 682.622 142.582 681.411 142.582 678.686C142.582 675.959 143.53 674.75 144.839 673.074C146.39 671.093 148.318 668.629 148.318 664.023C148.318 659.416 146.39 656.953 144.839 654.971C143.53 653.295 142.582 652.086 142.582 649.36C142.582 646.636 143.53 645.426 144.839 643.75C146.39 641.771 148.318 639.305 148.318 634.7C148.318 630.094 146.39 627.547 144.839 625.567C143.549 623.919 142.611 622.627 142.582 620V619.948C142.611 617.321 143.549 616.03 144.839 614.381C146.39 612.401 148.318 609.853 148.318 605.249C148.318 600.643 146.39 598.176 144.839 596.197C143.53 594.522 142.582 593.311 142.582 590.587C142.582 587.862 143.53 586.652 144.839 584.977C149.95 578.443 149.213 575.358 144.839 569.767C143.53 568.092 142.582 566.881 142.582 564.157C142.582 561.432 143.53 560.222 144.839 558.547C146.39 556.568 148.318 554.1 148.318 549.495C148.318 544.891 146.39 542.343 144.839 540.362C143.549 538.715 142.611 537.423 142.582 534.796V534.744C142.611 532.117 143.549 530.826 144.839 529.178C146.39 527.197 148.318 524.649 148.318 520.044C148.318 515.439 146.39 512.973 144.839 510.993C143.53 509.318 142.582 508.108 142.582 505.383C142.582 502.658 143.53 501.448 144.839 499.773C146.39 497.791 148.318 495.328 148.318 490.721C148.318 486.115 146.39 483.651 144.839 481.67C143.53 479.995 142.582 478.785 142.582 476.058C142.582 473.333 143.53 472.122 144.839 470.448C146.39 468.466 148.318 466.081 148.318 461.397V461.382C148.318 456.698 146.39 454.313 144.839 452.331C143.53 450.657 142.582 449.446 142.582 446.72C142.582 443.993 143.53 442.784 144.839 441.108C146.39 439.127 148.318 436.664 148.318 432.057C148.318 427.45 146.39 424.987 144.839 423.006C143.53 421.33 142.582 420.121 142.582 417.395C142.582 414.671 143.53 413.46 144.839 411.785C145.675 410.718 146.62 409.51 147.314 407.902H145.847C146.962 406.351 148.024 404.415 148.266 401.461C147.95 397.644 146.24 395.391 144.839 393.601C143.549 391.953 142.611 390.661 142.582 388.034V387.982C142.587 387.555 142.615 387.163 142.666 386.799C142.61 386.404 142.582 385.973 142.582 385.496C142.582 382.77 143.53 381.56 144.839 379.885C146.246 378.087 147.964 375.892 148.27 372.058C147.964 368.225 146.246 366.028 144.839 364.232C143.53 362.557 142.582 361.346 142.582 358.622C142.582 358.176 142.607 357.77 142.655 357.397C142.607 357.023 142.582 356.617 142.582 356.171C142.582 353.447 143.53 352.236 144.839 350.561C146.003 349.076 147.379 347.317 147.994 344.584L147.964 340.755C148.108 341.363 148.214 342.02 148.271 342.733C148.302 342.342 148.318 341.936 148.318 341.51C148.318 336.905 146.39 334.358 144.839 332.377C143.549 330.73 142.611 329.438 142.582 326.811V326.758C142.611 324.131 143.549 322.84 144.839 321.192C146.39 319.211 148.318 316.664 148.318 312.06C148.318 307.454 146.39 304.987 144.839 303.008C143.53 301.333 142.582 300.122 142.582 297.398C142.582 294.673 143.53 293.462 144.839 291.787C149.95 285.254 149.213 282.168 144.839 276.578C143.53 274.903 142.582 273.692 142.582 270.968C142.582 268.243 143.53 267.033 144.839 265.357C146.39 263.378 148.318 260.911 148.318 256.306C148.318 251.702 146.39 249.154 144.839 247.173C143.549 245.525 142.611 244.234 142.582 241.607V241.555C142.611 238.928 143.549 237.637 144.839 235.988C146.39 234.008 148.318 231.459 148.318 226.855C148.318 222.249 146.39 219.784 144.839 217.804C143.53 216.129 142.582 214.918 142.582 212.194C142.582 209.468 143.53 208.259 144.839 206.584C146.39 204.602 148.318 202.139 148.318 197.532C148.318 192.926 146.39 190.462 144.839 188.481C143.53 186.805 142.582 185.596 142.582 182.869C142.582 180.144 143.53 178.933 144.839 177.259C146.39 175.276 148.318 172.892 148.318 168.207V168.193C148.318 163.509 146.39 161.124 144.839 159.141C143.53 157.467 142.582 156.256 142.582 153.531C142.582 150.804 143.53 149.595 144.839 147.919C146.39 145.938 148.318 143.474 148.318 138.868C148.318 134.261 146.39 131.798 144.839 129.816C143.53 128.141 142.582 126.932 142.582 124.206C142.582 121.482 143.53 120.271 144.839 118.596C146.39 116.616 148.318 114.15 148.318 109.545C148.318 104.94 146.39 102.392 144.839 100.412C143.549 98.764 142.611 97.4724 142.582 94.8449V94.7932C142.611 92.166 143.549 90.8749 144.839 89.2262C146.39 87.246 148.318 84.6985 148.318 80.0939C148.318 75.4882 146.39 73.0216 144.839 71.0423C143.53 69.3673 142.582 68.1566 142.582 65.4322C142.582 62.7076 143.53 61.4969 144.839 59.8218C146.39 57.8401 148.318 55.3763 148.318 50.7701C148.318 49.5649 148.187 48.5072 147.964 47.5658L147.97 3.03255H171.969Z" stroke="#757EB3" stroke-miterlimit="22.9256"/>
<path fill-rule="evenodd" clip-rule="evenodd" d="M143.169 338.308H152.965V3.03152H143.169V338.308Z" fill="#FFEC08"/>
<path d="M143.169 338.308H152.965V3.03153H143.169V338.308Z" stroke="#757EB3" stroke-miterlimit="22.9256"/>
<path fill-rule="evenodd" clip-rule="evenodd" d="M143.169 338.307H152.965V364.476H143.169V338.307Z" fill="#E3000F"/>
<path d="M143.169 338.307H152.965V364.476H143.169V338.307Z" stroke="#757EB3" stroke-miterlimit="22.9256"/>
<path fill-rule="evenodd" clip-rule="evenodd" d="M143.169 3.03061V8.1431V71.2863V236.106V238.611V364.476H117.046C118.315 362.71 119.518 360.445 119.518 356.747V356.732C119.518 352.048 117.589 349.663 116.039 347.681C114.729 346.007 113.781 344.796 113.781 342.07C113.781 339.344 114.729 338.134 116.039 336.459C117.589 334.478 119.518 332.014 119.518 327.408C119.518 322.801 117.589 320.337 116.039 318.356C114.729 316.68 113.781 315.471 113.781 312.745C113.781 310.021 114.729 308.81 116.039 307.135C117.589 305.156 119.518 302.69 119.518 298.084C119.518 293.479 117.589 290.932 116.039 288.952C114.749 287.304 113.81 286.012 113.781 283.385V283.333C113.81 280.705 114.749 279.414 116.039 277.766C117.589 275.786 119.518 273.238 119.518 268.634C119.518 264.028 117.589 261.561 116.039 259.582C114.729 257.907 113.781 256.696 113.781 253.972C113.781 251.247 114.729 250.036 116.039 248.361C121.15 241.828 120.412 238.742 116.039 233.152C114.729 231.477 113.781 230.266 113.781 227.542C113.781 224.817 114.729 223.607 116.039 221.931C117.589 219.952 119.518 217.485 119.518 212.88C119.518 208.276 117.589 205.728 116.039 203.747C114.749 202.099 113.81 200.808 113.781 198.181V198.129C113.81 195.502 114.749 194.211 116.039 192.562C117.589 190.582 119.518 188.033 119.518 183.429C119.518 178.823 117.589 176.358 116.039 174.378C114.729 172.703 113.781 171.492 113.781 168.768C113.781 166.042 114.729 164.833 116.039 163.158C117.589 161.176 119.518 158.713 119.518 154.106C119.518 149.5 117.589 147.036 116.039 145.055C114.729 143.379 113.781 142.17 113.781 139.443C113.781 136.718 114.729 135.507 116.039 133.833C117.589 131.85 119.518 129.466 119.518 124.781V124.767C119.518 120.083 117.589 117.698 116.039 115.715C114.729 114.041 113.781 112.831 113.781 110.105C113.781 107.378 114.729 106.169 116.039 104.493C117.589 102.512 119.518 100.049 119.518 95.4421C119.518 90.8353 117.589 88.372 116.039 86.3903C114.729 84.7146 113.781 83.5055 113.781 80.7798C113.781 78.0555 114.729 76.8449 116.039 75.1698C116.874 74.103 117.819 72.8948 118.514 71.2863H117.046C118.161 69.7362 119.223 67.7996 119.466 64.8456C119.149 61.0286 117.439 58.7758 116.039 56.9859C114.749 55.3382 113.81 54.0465 113.781 51.4191V51.3672C113.786 50.9395 113.815 50.5478 113.865 50.1839C113.81 49.7891 113.781 49.3579 113.781 48.8809C113.781 46.1541 114.729 44.9451 116.039 43.2696C117.445 41.4714 119.164 39.2767 119.47 35.4431C119.164 31.6095 117.445 29.4124 116.039 27.6165C114.729 25.9414 113.781 24.7306 113.781 22.0063C113.781 21.5601 113.807 21.1552 113.855 20.7814C113.807 20.4077 113.781 20.002 113.781 19.556C113.781 16.8317 114.729 15.6211 116.039 13.9461C117.202 12.4605 118.578 10.7016 119.193 7.9693C119.183 6.64575 119.153 2.13235 119.47 6.11783C119.501 5.72717 119.518 5.32089 119.518 4.89514C119.518 4.23251 119.477 3.61221 119.404 3.03061H143.169Z" fill="#CCCCCC"/>
<path d="M143.169 3.0306V8.1431V71.2863V236.106V238.611V364.476H117.046C118.315 362.71 119.518 360.445 119.518 356.747V356.732C119.518 352.048 117.589 349.663 116.039 347.681C114.729 346.007 113.781 344.796 113.781 342.07C113.781 339.344 114.729 338.134 116.039 336.459C117.589 334.478 119.518 332.014 119.518 327.408C119.518 322.801 117.589 320.337 116.039 318.356C114.729 316.68 113.781 315.471 113.781 312.745C113.781 310.021 114.729 308.81 116.039 307.135C117.589 305.156 119.518 302.69 119.518 298.084C119.518 293.479 117.589 290.932 116.039 288.952C114.749 287.304 113.81 286.012 113.781 283.385V283.333C113.81 280.705 114.749 279.414 116.039 277.766C117.589 275.786 119.518 273.238 119.518 268.634C119.518 264.028 117.589 261.561 116.039 259.582C114.729 257.907 113.781 256.696 113.781 253.972C113.781 251.247 114.729 250.036 116.039 248.361C121.15 241.828 120.412 238.742 116.039 233.152C114.729 231.477 113.781 230.266 113.781 227.542C113.781 224.817 114.729 223.607 116.039 221.931C117.589 219.952 119.518 217.485 119.518 212.88C119.518 208.276 117.589 205.728 116.039 203.747C114.749 202.099 113.81 200.808 113.781 198.181V198.129C113.81 195.502 114.749 194.211 116.039 192.562C117.589 190.582 119.518 188.033 119.518 183.429C119.518 178.823 117.589 176.358 116.039 174.378C114.729 172.703 113.781 171.492 113.781 168.768C113.781 166.042 114.729 164.833 116.039 163.158C117.589 161.176 119.518 158.713 119.518 154.106C119.518 149.5 117.589 147.036 116.039 145.055C114.729 143.379 113.781 142.17 113.781 139.443C113.781 136.718 114.729 135.507 116.039 133.833C117.589 131.85 119.518 129.466 119.518 124.781V124.767C119.518 120.083 117.589 117.698 116.039 115.715C114.729 114.041 113.781 112.831 113.781 110.105C113.781 107.378 114.729 106.169 116.039 104.493C117.589 102.512 119.518 100.049 119.518 95.4422C119.518 90.8353 117.589 88.372 116.039 86.3903C114.729 84.7146 113.781 83.5055 113.781 80.7798C113.781 78.0555 114.729 76.8449 116.039 75.1698C116.874 74.103 117.819 72.8948 118.514 71.2863H117.046C118.161 69.7362 119.223 67.7996 119.466 64.8456C119.149 61.0286 117.439 58.7758 116.039 56.9859C114.749 55.3382 113.81 54.0465 113.781 51.4191V51.3672C113.786 50.9396 113.815 50.5478 113.865 50.1839C113.81 49.7891 113.781 49.3579 113.781 48.8809C113.781 46.1541 114.729 44.9451 116.039 43.2695C117.445 41.4714 119.164 39.2767 119.47 35.4431C119.164 31.6095 117.445 29.4125 116.039 27.6165C114.729 25.9414 113.781 24.7306 113.781 22.0063C113.781 21.5601 113.807 21.1552 113.855 20.7814C113.807 20.4077 113.781 20.002 113.781 19.556C113.781 16.8317 114.729 15.6211 116.039 13.9461C117.202 12.4605 118.578 10.7016 119.193 7.9693C119.183 6.64576 119.153 2.13236 119.47 6.11784C119.501 5.72717 119.518 5.32088 119.518 4.89514C119.518 4.2325 119.477 3.6122 119.404 3.0306H143.169Z" stroke="#757EB3" stroke-miterlimit="22.9256"/>
<path fill-rule="evenodd" clip-rule="evenodd" d="M113.15 128.446H122.946V3.02805H113.15V128.446Z" fill="#FFEC08"/>
<path d="M113.15 128.446H122.946V3.02805H113.15V128.446Z" stroke="#757EB3" stroke-miterlimit="22.9256"/>
<path fill-rule="evenodd" clip-rule="evenodd" d="M113.15 128.449H122.946V154.618H113.15V128.449Z" fill="#E3000F"/>
<path d="M113.15 128.449H122.946V154.618H113.15V128.449Z" stroke="#757EB3" stroke-miterlimit="22.9256"/>
<path fill-rule="evenodd" clip-rule="evenodd" d="M113.15 3.03104V26.2481V28.7532V154.618H87.0277C88.2966 152.853 89.499 150.588 89.499 146.889V146.875C89.499 142.191 87.5704 139.805 86.0201 137.823C84.7104 136.149 83.7627 134.939 83.7627 132.213C83.7627 129.486 84.7104 128.277 86.0201 126.601C87.5704 124.62 89.499 122.157 89.499 117.55C89.499 112.943 87.5704 110.48 86.0201 108.498C84.7104 106.823 83.7627 105.614 83.7627 102.888C83.7627 100.164 84.7104 98.9528 86.0201 97.2778C87.5704 95.2985 89.499 92.8328 89.499 88.2272C89.499 83.6216 87.5704 81.0741 86.0201 79.0939C84.7301 77.4464 83.7916 76.1543 83.7627 73.5271V73.4752C83.7916 70.848 84.7301 69.5569 86.0201 67.9082C87.5704 65.9281 89.499 63.3808 89.499 58.7762C89.499 54.1703 87.5704 51.7036 86.0201 49.7244C84.7104 48.0494 83.7627 46.8388 83.7627 44.1143C83.7627 41.3898 84.7104 40.1788 86.0201 38.5038C91.1312 31.9701 90.3935 28.8851 86.0201 23.2946C84.7104 21.6196 83.7627 20.4087 83.7627 17.6845C83.7627 14.9599 84.7104 13.7497 86.0201 12.074C87.5693 10.0961 89.4966 7.63043 89.499 3.03104H113.15Z" fill="#CCCCCC"/>
<path d="M113.15 3.03104V26.2481V28.7532V154.618H87.0277C88.2966 152.853 89.499 150.588 89.499 146.889V146.875C89.499 142.191 87.5704 139.805 86.0201 137.823C84.7104 136.149 83.7627 134.939 83.7627 132.213C83.7627 129.486 84.7104 128.277 86.0201 126.601C87.5704 124.62 89.499 122.157 89.499 117.55C89.499 112.943 87.5704 110.48 86.0201 108.498C84.7104 106.823 83.7627 105.614 83.7627 102.888C83.7627 100.164 84.7104 98.9528 86.0201 97.2778C87.5704 95.2985 89.499 92.8328 89.499 88.2272C89.499 83.6216 87.5704 81.0741 86.0201 79.0939C84.7301 77.4464 83.7916 76.1543 83.7627 73.5271V73.4752C83.7916 70.848 84.7301 69.5569 86.0201 67.9082C87.5704 65.9281 89.499 63.3808 89.499 58.7762C89.499 54.1703 87.5704 51.7036 86.0201 49.7244C84.7104 48.0494 83.7627 46.8388 83.7627 44.1143C83.7627 41.3898 84.7104 40.1788 86.0201 38.5038C91.1312 31.9701 90.3935 28.8851 86.0201 23.2946C84.7104 21.6196 83.7627 20.4087 83.7627 17.6845C83.7627 14.9599 84.7104 13.7497 86.0201 12.074C87.5693 10.0962 89.4966 7.63043 89.499 3.03104H113.15Z" stroke="#757EB3" stroke-miterlimit="22.9256"/>
<path fill-rule="evenodd" clip-rule="evenodd" d="M113.15 3.03034H122.946V29.1992H113.15V3.03034Z" fill="#00963F"/>
<path d="M113.15 3.03034H122.946V29.1992H113.15V3.03034Z" stroke="#757EB3" stroke-miterlimit="22.9256"/>
<path fill-rule="evenodd" clip-rule="evenodd" d="M81.3867 3.03034H91.1825V29.1992H81.3867V3.03034Z" fill="#E3000F"/>
<path d="M81.3867 3.03034H91.1825V29.1992H81.3867V3.03034Z" stroke="#757EB3" stroke-miterlimit="22.9256"/>
<path fill-rule="evenodd" clip-rule="evenodd" d="M81.3872 3.02992V29.1992H55.2649C56.5341 27.434 57.7365 25.1689 57.7365 21.4705V21.4557C57.7365 16.772 55.8077 14.3867 54.2574 12.4045C52.9479 10.7304 52 9.5197 52 6.794C52 5.1204 52.3571 4.01929 52.9356 3.02992H81.3872Z" fill="#CCCCCC"/>
<path d="M81.3872 3.02992V29.1992H55.2649C56.5341 27.434 57.7365 25.1689 57.7365 21.4705V21.4557C57.7365 16.772 55.8077 14.3867 54.2574 12.4045C52.9479 10.7304 52 9.5197 52 6.794C52 5.1204 52.3571 4.01929 52.9356 3.02992H81.3872Z" stroke="#757EB3" stroke-miterlimit="22.9256"/>
<path fill-rule="evenodd" clip-rule="evenodd" d="M310.244 3.03143V469.439V471.944V534.666V597.809V762.628V765.133V890.998H336.366C335.098 889.233 333.895 886.968 333.895 883.269V883.255C333.895 878.571 335.824 876.186 337.374 874.203C338.684 872.529 339.631 871.318 339.631 868.593C339.631 865.866 338.684 864.657 337.374 862.981C335.824 861 333.895 858.536 333.895 853.93C333.895 849.323 335.824 846.86 337.374 844.878C338.684 843.203 339.631 841.993 339.631 839.268C339.631 836.544 338.684 835.333 337.374 833.658C335.824 831.679 333.895 829.212 333.895 824.607C333.895 820.002 335.824 817.454 337.374 815.474C338.664 813.826 339.603 812.534 339.631 809.907V809.855C339.603 807.228 338.664 805.937 337.374 804.288C335.824 802.308 333.895 799.761 333.895 795.156C333.895 790.55 335.824 788.084 337.374 786.104C338.684 784.429 339.631 783.219 339.631 780.494C339.631 777.77 338.684 776.559 337.374 774.884C332.263 768.35 333.001 765.265 337.374 759.674C338.684 757.999 339.631 756.789 339.631 754.064C339.631 751.34 338.684 750.13 337.374 748.454C335.824 746.475 333.895 744.008 333.895 739.402C333.895 734.798 335.824 732.25 337.374 730.27C338.664 728.622 339.603 727.33 339.631 724.703V724.651C339.603 722.025 338.664 720.733 337.374 719.085C335.824 717.104 333.895 714.556 333.895 709.951C333.895 705.346 335.824 702.88 337.374 700.901C338.684 699.225 339.631 698.015 339.631 695.291C339.631 692.565 338.684 691.356 337.374 689.681C335.824 687.699 333.895 685.235 333.895 680.629C333.895 676.022 335.824 673.558 337.374 671.577C338.684 669.902 339.631 668.692 339.631 665.966C339.631 663.24 338.684 662.03 337.374 660.356C335.824 658.373 333.895 655.988 333.895 651.304V651.289C333.895 646.605 335.824 644.22 337.374 642.238C338.684 640.564 339.631 639.353 339.631 636.627C339.631 633.901 338.684 632.692 337.374 631.016C335.824 629.035 333.895 626.571 333.895 621.965C333.895 617.358 335.824 614.895 337.374 612.913C338.684 611.237 339.631 610.028 339.631 607.302C339.631 604.578 338.684 603.368 337.374 601.692C336.538 600.626 335.594 599.417 334.899 597.809H336.366C335.252 596.259 334.189 594.322 333.947 591.368C334.263 587.551 335.973 585.298 337.374 583.509C338.664 581.861 339.603 580.569 339.631 577.941V577.89C339.626 577.462 339.598 577.07 339.548 576.706C339.603 576.312 339.631 575.881 339.631 575.403C339.631 572.677 338.684 571.468 337.374 569.792C335.967 567.994 334.249 565.799 333.943 561.966C334.249 558.132 335.967 555.935 337.374 554.139C338.684 552.464 339.631 551.253 339.631 548.529C339.631 548.083 339.606 547.678 339.558 547.304C339.606 546.93 339.631 546.525 339.631 546.079C339.631 543.354 338.684 542.144 337.374 540.468C336.211 538.983 334.834 537.224 334.22 534.492L334.25 530.662C334.106 531.27 333.999 531.927 333.942 532.64C333.912 532.25 333.895 531.843 333.895 531.418C333.895 526.812 335.824 524.265 337.374 522.285C338.664 520.637 339.603 519.345 339.631 516.718V516.666C339.603 514.039 338.664 512.748 337.374 511.099C335.824 509.119 333.895 506.571 333.895 501.967C333.895 497.361 335.824 494.894 337.374 492.915C338.684 491.24 339.631 490.029 339.631 487.305C339.631 484.581 338.684 483.37 337.374 481.695C332.263 475.161 333.001 472.076 337.374 466.485C338.684 464.81 339.631 463.6 339.631 460.875C339.631 458.151 338.684 456.94 337.374 455.265C335.824 453.286 333.895 450.818 333.895 446.213C333.895 441.609 335.824 439.061 337.374 437.08C338.664 435.433 339.603 434.141 339.631 431.514V431.462C339.603 428.835 338.664 427.544 337.374 425.896C335.824 423.915 333.895 421.367 333.895 416.762C333.895 412.157 335.824 409.691 337.374 407.711C338.684 406.036 339.631 404.826 339.631 402.101C339.631 399.376 338.684 398.166 337.374 396.491C335.824 394.51 333.895 392.046 333.895 387.44C333.895 382.833 335.824 380.369 337.374 378.388C338.684 376.713 339.631 375.503 339.631 372.776C339.631 370.051 338.684 368.84 337.374 367.166C335.824 365.184 333.895 362.799 333.895 358.115V358.1C333.895 353.416 335.824 351.031 337.374 349.049C338.684 347.375 339.631 346.164 339.631 343.438C339.631 340.711 338.684 339.502 337.374 337.827C335.824 335.845 333.895 333.382 333.895 328.775C333.895 324.168 335.824 321.705 337.374 319.724C338.684 318.048 339.631 316.839 339.631 314.113C339.631 311.389 338.684 310.178 337.374 308.503C335.824 306.524 333.895 304.058 333.895 299.452C333.895 294.847 335.824 292.3 337.374 290.319C338.664 288.672 339.603 287.38 339.631 284.752V284.7C339.603 282.073 338.664 280.782 337.374 279.133C335.824 277.153 333.895 274.606 333.895 270.001C333.895 265.395 335.824 262.929 337.374 260.95C338.684 259.275 339.631 258.064 339.631 255.34C339.631 252.615 338.684 251.404 337.374 249.729C335.824 247.747 333.895 245.284 333.895 240.677C333.895 239.473 334.027 238.415 334.25 237.473L334.218 3.03143H310.244Z" fill="#E6E6E6"/>
<path d="M310.244 3.03146V469.439V471.944V534.666V597.809V762.628V765.133V890.998H336.366C335.098 889.233 333.895 886.968 333.895 883.269V883.255C333.895 878.571 335.824 876.186 337.374 874.203C338.684 872.529 339.631 871.318 339.631 868.593C339.631 865.866 338.684 864.657 337.374 862.981C335.824 861 333.895 858.536 333.895 853.93C333.895 849.323 335.824 846.86 337.374 844.878C338.684 843.203 339.631 841.993 339.631 839.268C339.631 836.544 338.684 835.333 337.374 833.658C335.824 831.679 333.895 829.212 333.895 824.607C333.895 820.002 335.824 817.454 337.374 815.474C338.664 813.826 339.603 812.534 339.631 809.907V809.855C339.603 807.228 338.664 805.937 337.374 804.288C335.824 802.308 333.895 799.761 333.895 795.156C333.895 790.55 335.824 788.084 337.374 786.104C338.684 784.429 339.631 783.219 339.631 780.494C339.631 777.77 338.684 776.559 337.374 774.884C332.263 768.35 333.001 765.265 337.374 759.674C338.684 757.999 339.631 756.789 339.631 754.064C339.631 751.34 338.684 750.13 337.374 748.454C335.824 746.475 333.895 744.008 333.895 739.402C333.895 734.798 335.824 732.25 337.374 730.27C338.664 728.622 339.603 727.33 339.631 724.703V724.651C339.603 722.025 338.664 720.733 337.374 719.085C335.824 717.104 333.895 714.556 333.895 709.951C333.895 705.346 335.824 702.88 337.374 700.901C338.684 699.225 339.631 698.015 339.631 695.291C339.631 692.565 338.684 691.356 337.374 689.681C335.824 687.699 333.895 685.235 333.895 680.629C333.895 676.022 335.824 673.558 337.374 671.577C338.684 669.902 339.631 668.692 339.631 665.966C339.631 663.24 338.684 662.03 337.374 660.356C335.824 658.373 333.895 655.988 333.895 651.304V651.289C333.895 646.605 335.824 644.22 337.374 642.238C338.684 640.564 339.631 639.353 339.631 636.627C339.631 633.901 338.684 632.692 337.374 631.016C335.824 629.035 333.895 626.571 333.895 621.965C333.895 617.358 335.824 614.895 337.374 612.913C338.684 611.237 339.631 610.028 339.631 607.302C339.631 604.578 338.684 603.368 337.374 601.692C336.538 600.626 335.594 599.417 334.899 597.809H336.366C335.252 596.259 334.189 594.322 333.947 591.368C334.263 587.551 335.973 585.298 337.374 583.509C338.664 581.861 339.603 580.569 339.631 577.941V577.89C339.626 577.462 339.598 577.07 339.548 576.706C339.603 576.312 339.631 575.881 339.631 575.403C339.631 572.677 338.684 571.468 337.374 569.792C335.967 567.994 334.249 565.799 333.943 561.966C334.249 558.132 335.967 555.935 337.374 554.139C338.684 552.464 339.631 551.253 339.631 548.529C339.631 548.083 339.606 547.678 339.558 547.304C339.606 546.93 339.631 546.525 339.631 546.079C339.631 543.354 338.684 542.144 337.374 540.468C336.211 538.983 334.834 537.224 334.22 534.492L334.25 530.662C334.106 531.27 333.999 531.927 333.942 532.64C333.912 532.25 333.895 531.843 333.895 531.418C333.895 526.812 335.824 524.265 337.374 522.285C338.664 520.637 339.603 519.345 339.631 516.718V516.666C339.603 514.039 338.664 512.748 337.374 511.099C335.824 509.119 333.895 506.571 333.895 501.967C333.895 497.361 335.824 494.894 337.374 492.915C338.684 491.24 339.631 490.029 339.631 487.305C339.631 484.58 338.684 483.37 337.374 481.695C332.263 475.161 333.001 472.076 337.374 466.485C338.684 464.81 339.631 463.6 339.631 460.875C339.631 458.151 338.684 456.94 337.374 455.265C335.824 453.286 333.895 450.818 333.895 446.213C333.895 441.609 335.824 439.061 337.374 437.08C338.664 435.433 339.603 434.141 339.631 431.514V431.462C339.603 428.835 338.664 427.544 337.374 425.896C335.824 423.915 333.895 421.367 333.895 416.762C333.895 412.157 335.824 409.691 337.374 407.711C338.684 406.036 339.631 404.826 339.631 402.101C339.631 399.376 338.684 398.166 337.374 396.491C335.824 394.51 333.895 392.046 333.895 387.44C333.895 382.833 335.824 380.369 337.374 378.388C338.684 376.713 339.631 375.503 339.631 372.776C339.631 370.051 338.684 368.84 337.374 367.166C335.824 365.184 333.895 362.799 333.895 358.115V358.1C333.895 353.416 335.824 351.031 337.374 349.049C338.684 347.375 339.631 346.164 339.631 343.438C339.631 340.711 338.684 339.502 337.374 337.827C335.824 335.845 333.895 333.382 333.895 328.775C333.895 324.168 335.824 321.705 337.374 319.724C338.684 318.048 339.631 316.839 339.631 314.113C339.631 311.389 338.684 310.178 337.374 308.503C335.824 306.524 333.895 304.058 333.895 299.452C333.895 294.847 335.824 292.3 337.374 290.319C338.664 288.672 339.603 287.38 339.631 284.752V284.7C339.603 282.073 338.664 280.782 337.374 279.133C335.824 277.153 333.895 274.606 333.895 270.001C333.895 265.395 335.824 262.929 337.374 260.95C338.684 259.275 339.631 258.064 339.631 255.34C339.631 252.615 338.684 251.404 337.374 249.729C335.824 247.747 333.895 245.284 333.895 240.677C333.895 239.473 334.027 238.415 334.25 237.473L334.218 3.03146H310.244Z" stroke="#757EB3" stroke-miterlimit="22.9256"/>
<path fill-rule="evenodd" clip-rule="evenodd" d="M309.673 891.026H299.877V3.02985H309.673V891.026Z" fill="#FFEC08"/>
<path d="M309.673 891.026H299.877V3.02988H309.673V891.026Z" stroke="#757EB3" stroke-miterlimit="22.9256"/>
<path fill-rule="evenodd" clip-rule="evenodd" d="M343.19 650.547H333.395V3.02832H343.19V650.547Z" fill="#FFEC08"/>
<path d="M343.19 650.547H333.395V3.0283H343.19V650.547Z" stroke="#757EB3" stroke-miterlimit="22.9256"/>
<path fill-rule="evenodd" clip-rule="evenodd" d="M343.19 650.551H333.395V701.091H343.19V650.551Z" fill="#00963F"/>
<path d="M343.19 650.551H333.395V701.091H343.19V650.551Z" stroke="#757EB3" stroke-miterlimit="22.9256"/>
<path fill-rule="evenodd" clip-rule="evenodd" d="M343.209 3.03253V279.531V282.037V344.758V407.902V572.721V575.226V701.091H369.331C368.062 699.326 366.86 697.06 366.86 693.362V693.347C366.86 688.663 368.789 686.278 370.339 684.296C371.649 682.622 372.596 681.411 372.596 678.686C372.596 675.959 371.649 674.75 370.339 673.074C368.789 671.093 366.86 668.629 366.86 664.023C366.86 659.416 368.789 656.953 370.339 654.971C371.649 653.295 372.596 652.086 372.596 649.36C372.596 646.636 371.649 645.426 370.339 643.75C368.789 641.771 366.86 639.305 366.86 634.7C366.86 630.094 368.789 627.547 370.339 625.567C371.629 623.919 372.567 622.627 372.596 620V619.948C372.567 617.321 371.629 616.03 370.339 614.381C368.789 612.401 366.86 609.853 366.86 605.249C366.86 600.643 368.789 598.176 370.339 596.197C371.649 594.522 372.596 593.311 372.596 590.587C372.596 587.862 371.649 586.652 370.339 584.977C365.228 578.443 365.965 575.358 370.339 569.767C371.649 568.092 372.596 566.881 372.596 564.157C372.596 561.432 371.649 560.222 370.339 558.547C368.789 556.568 366.86 554.1 366.86 549.495C366.86 544.891 368.789 542.343 370.339 540.362C371.629 538.715 372.567 537.423 372.596 534.796V534.744C372.567 532.117 371.629 530.826 370.339 529.178C368.789 527.197 366.86 524.649 366.86 520.044C366.86 515.439 368.789 512.973 370.339 510.993C371.649 509.318 372.596 508.108 372.596 505.383C372.596 502.658 371.649 501.448 370.339 499.773C368.789 497.792 366.86 495.328 366.86 490.721C366.86 486.115 368.789 483.651 370.339 481.67C371.649 479.995 372.596 478.785 372.596 476.058C372.596 473.333 371.649 472.122 370.339 470.448C368.789 468.466 366.86 466.081 366.86 461.397V461.382C366.86 456.698 368.789 454.313 370.339 452.331C371.649 450.657 372.596 449.446 372.596 446.72C372.596 443.993 371.649 442.784 370.339 441.108C368.789 439.127 366.86 436.664 366.86 432.057C366.86 427.45 368.789 424.987 370.339 423.006C371.649 421.33 372.596 420.121 372.596 417.395C372.596 414.671 371.649 413.46 370.339 411.785C369.503 410.718 368.558 409.51 367.864 407.902H369.331C368.216 406.351 367.154 404.415 366.912 401.461C367.228 397.644 368.938 395.391 370.339 393.601C371.629 391.953 372.567 390.661 372.596 388.034V387.982C372.591 387.555 372.563 387.163 372.512 386.799C372.568 386.404 372.596 385.973 372.596 385.496C372.596 382.77 371.649 381.56 370.339 379.885C368.932 378.087 367.214 375.892 366.908 372.058C367.214 368.225 368.932 366.028 370.339 364.232C371.649 362.557 372.596 361.346 372.596 358.622C372.596 358.176 372.571 357.77 372.523 357.397C372.571 357.023 372.596 356.617 372.596 356.171C372.596 353.447 371.649 352.236 370.339 350.561C369.176 349.076 367.799 347.317 367.185 344.584L367.214 340.755C367.07 341.363 366.964 342.02 366.907 342.733C366.876 342.342 366.86 341.936 366.86 341.51C366.86 336.905 368.789 334.358 370.339 332.377C371.629 330.73 372.567 329.438 372.596 326.811V326.758C372.567 324.131 371.629 322.84 370.339 321.192C368.789 319.211 366.86 316.664 366.86 312.06C366.86 307.454 368.789 304.987 370.339 303.008C371.649 301.333 372.596 300.122 372.596 297.398C372.596 294.673 371.649 293.462 370.339 291.787C365.228 285.254 365.965 282.168 370.339 276.578C371.649 274.903 372.596 273.692 372.596 270.968C372.596 268.243 371.649 267.033 370.339 265.357C368.789 263.378 366.86 260.911 366.86 256.306C366.86 251.702 368.789 249.154 370.339 247.173C371.629 245.525 372.567 244.234 372.596 241.607V241.555C372.567 238.928 371.629 237.637 370.339 235.988C368.789 234.008 366.86 231.459 366.86 226.855C366.86 222.249 368.789 219.784 370.339 217.804C371.649 216.129 372.596 214.918 372.596 212.194C372.596 209.468 371.649 208.259 370.339 206.584C368.789 204.602 366.86 202.139 366.86 197.532C366.86 192.926 368.789 190.462 370.339 188.481C371.649 186.805 372.596 185.596 372.596 182.869C372.596 180.144 371.649 178.933 370.339 177.259C368.789 175.276 366.86 172.892 366.86 168.207V168.193C366.86 163.509 368.789 161.124 370.339 159.141C371.649 157.467 372.596 156.256 372.596 153.531C372.596 150.804 371.649 149.595 370.339 147.919C368.789 145.938 366.86 143.474 366.86 138.868C366.86 134.261 368.789 131.798 370.339 129.816C371.649 128.141 372.596 126.932 372.596 124.206C372.596 121.482 371.649 120.271 370.339 118.596C368.789 116.617 366.86 114.15 366.86 109.545C366.86 104.94 368.789 102.392 370.339 100.412C371.629 98.764 372.567 97.4724 372.596 94.8448V94.7932C372.567 92.166 371.629 90.8749 370.339 89.2261C368.789 87.246 366.86 84.6985 366.86 80.0939C366.86 75.4882 368.789 73.0215 370.339 71.0423C371.649 69.3673 372.596 68.1566 372.596 65.4323C372.596 62.7076 371.649 61.4969 370.339 59.8218C368.789 57.8401 366.86 55.3762 366.86 50.7701C366.86 49.5649 366.992 48.5071 367.214 47.5658L367.209 3.03253H343.209Z" fill="#CCCCCC"/>
<path d="M343.209 3.03255V279.531V282.037V344.758V407.902V572.721V575.226V701.091H369.331C368.062 699.326 366.86 697.06 366.86 693.362V693.347C366.86 688.663 368.789 686.278 370.339 684.296C371.649 682.622 372.596 681.411 372.596 678.686C372.596 675.959 371.649 674.75 370.339 673.074C368.789 671.093 366.86 668.629 366.86 664.023C366.86 659.416 368.789 656.953 370.339 654.971C371.649 653.295 372.596 652.086 372.596 649.36C372.596 646.636 371.649 645.426 370.339 643.75C368.789 641.771 366.86 639.305 366.86 634.7C366.86 630.094 368.789 627.547 370.339 625.567C371.629 623.919 372.567 622.627 372.596 620V619.948C372.567 617.321 371.629 616.03 370.339 614.381C368.789 612.401 366.86 609.853 366.86 605.249C366.86 600.643 368.789 598.176 370.339 596.197C371.649 594.522 372.596 593.311 372.596 590.587C372.596 587.862 371.649 586.652 370.339 584.977C365.228 578.443 365.965 575.358 370.339 569.767C371.649 568.092 372.596 566.881 372.596 564.157C372.596 561.432 371.649 560.222 370.339 558.547C368.789 556.568 366.86 554.1 366.86 549.495C366.86 544.891 368.789 542.343 370.339 540.362C371.629 538.715 372.567 537.423 372.596 534.796V534.744C372.567 532.117 371.629 530.826 370.339 529.178C368.789 527.197 366.86 524.649 366.86 520.044C366.86 515.439 368.789 512.973 370.339 510.993C371.649 509.318 372.596 508.108 372.596 505.383C372.596 502.658 371.649 501.448 370.339 499.773C368.789 497.791 366.86 495.328 366.86 490.721C366.86 486.115 368.789 483.651 370.339 481.67C371.649 479.995 372.596 478.785 372.596 476.058C372.596 473.333 371.649 472.122 370.339 470.448C368.789 468.466 366.86 466.081 366.86 461.397V461.382C366.86 456.698 368.789 454.313 370.339 452.331C371.649 450.657 372.596 449.446 372.596 446.72C372.596 443.993 371.649 442.784 370.339 441.108C368.789 439.127 366.86 436.664 366.86 432.057C366.86 427.45 368.789 424.987 370.339 423.006C371.649 421.33 372.596 420.121 372.596 417.395C372.596 414.671 371.649 413.46 370.339 411.785C369.503 410.718 368.558 409.51 367.864 407.902H369.331C368.216 406.351 367.154 404.415 366.912 401.461C367.228 397.644 368.938 395.391 370.339 393.601C371.629 391.953 372.567 390.661 372.596 388.034V387.982C372.591 387.555 372.563 387.163 372.512 386.799C372.568 386.404 372.596 385.973 372.596 385.496C372.596 382.77 371.649 381.56 370.339 379.885C368.932 378.087 367.214 375.892 366.908 372.058C367.214 368.225 368.932 366.028 370.339 364.232C371.649 362.557 372.596 361.346 372.596 358.622C372.596 358.176 372.571 357.77 372.523 357.397C372.571 357.023 372.596 356.617 372.596 356.171C372.596 353.447 371.649 352.236 370.339 350.561C369.176 349.076 367.799 347.317 367.185 344.584L367.214 340.755C367.07 341.363 366.964 342.02 366.907 342.733C366.876 342.342 366.86 341.936 366.86 341.51C366.86 336.905 368.789 334.358 370.339 332.377C371.629 330.73 372.567 329.438 372.596 326.811V326.758C372.567 324.131 371.629 322.84 370.339 321.192C368.789 319.211 366.86 316.664 366.86 312.06C366.86 307.454 368.789 304.987 370.339 303.008C371.649 301.333 372.596 300.122 372.596 297.398C372.596 294.673 371.649 293.462 370.339 291.787C365.228 285.254 365.965 282.168 370.339 276.578C371.649 274.903 372.596 273.692 372.596 270.968C372.596 268.243 371.649 267.033 370.339 265.357C368.789 263.378 366.86 260.911 366.86 256.306C366.86 251.702 368.789 249.154 370.339 247.173C371.629 245.525 372.567 244.234 372.596 241.607V241.555C372.567 238.928 371.629 237.637 370.339 235.988C368.789 234.008 366.86 231.459 366.86 226.855C366.86 222.249 368.789 219.784 370.339 217.804C371.649 216.129 372.596 214.918 372.596 212.194C372.596 209.468 371.649 208.259 370.339 206.584C368.789 204.602 366.86 202.139 366.86 197.532C366.86 192.926 368.789 190.462 370.339 188.481C371.649 186.805 372.596 185.596 372.596 182.869C372.596 180.144 371.649 178.933 370.339 177.259C368.789 175.276 366.86 172.892 366.86 168.207V168.193C366.86 163.509 368.789 161.124 370.339 159.141C371.649 157.467 372.596 156.256 372.596 153.531C372.596 150.804 371.649 149.595 370.339 147.919C368.789 145.938 366.86 143.474 366.86 138.868C366.86 134.261 368.789 131.798 370.339 129.816C371.649 128.141 372.596 126.932 372.596 124.206C372.596 121.482 371.649 120.271 370.339 118.596C368.789 116.616 366.86 114.15 366.86 109.545C366.86 104.94 368.789 102.392 370.339 100.412C371.629 98.764 372.567 97.4724 372.596 94.8449V94.7932C372.567 92.166 371.629 90.8749 370.339 89.2262C368.789 87.246 366.86 84.6985 366.86 80.0939C366.86 75.4882 368.789 73.0216 370.339 71.0423C371.649 69.3673 372.596 68.1566 372.596 65.4322C372.596 62.7076 371.649 61.4969 370.339 59.8218C368.789 57.8401 366.86 55.3763 366.86 50.7701C366.86 49.5649 366.992 48.5072 367.214 47.5658L367.209 3.03255H343.209Z" stroke="#757EB3" stroke-miterlimit="22.9256"/>
<path fill-rule="evenodd" clip-rule="evenodd" d="M372.01 338.308H362.214V3.03152H372.01V338.308Z" fill="#FFEC08"/>
<path d="M372.01 338.308H362.214V3.03153H372.01V338.308Z" stroke="#757EB3" stroke-miterlimit="22.9256"/>
<path fill-rule="evenodd" clip-rule="evenodd" d="M372.01 338.307H362.214V364.476H372.01V338.307Z" fill="#E3000F"/>
<path d="M372.01 338.307H362.214V364.476H372.01V338.307Z" stroke="#757EB3" stroke-miterlimit="22.9256"/>
<path fill-rule="evenodd" clip-rule="evenodd" d="M372.01 3.03061V8.1431V71.2863V236.106V238.611V364.476H398.132C396.863 362.71 395.661 360.445 395.661 356.747V356.732C395.661 352.048 397.589 349.663 399.14 347.681C400.449 346.007 401.397 344.796 401.397 342.07C401.397 339.344 400.449 338.134 399.14 336.459C397.589 334.478 395.661 332.014 395.661 327.408C395.661 322.801 397.589 320.337 399.14 318.356C400.449 316.68 401.397 315.471 401.397 312.745C401.397 310.021 400.449 308.81 399.14 307.135C397.589 305.156 395.661 302.69 395.661 298.084C395.661 293.479 397.589 290.932 399.14 288.952C400.43 287.304 401.368 286.012 401.397 283.385V283.333C401.368 280.705 400.43 279.414 399.14 277.766C397.589 275.786 395.661 273.238 395.661 268.634C395.661 264.028 397.589 261.561 399.14 259.582C400.449 257.907 401.397 256.696 401.397 253.972C401.397 251.247 400.449 250.036 399.14 248.361C394.029 241.828 394.766 238.742 399.14 233.152C400.449 231.477 401.397 230.266 401.397 227.542C401.397 224.817 400.449 223.607 399.14 221.931C397.589 219.952 395.661 217.485 395.661 212.88C395.661 208.276 397.589 205.728 399.14 203.747C400.43 202.099 401.368 200.808 401.397 198.181V198.129C401.368 195.502 400.43 194.211 399.14 192.562C397.589 190.582 395.661 188.033 395.661 183.429C395.661 178.823 397.589 176.358 399.14 174.378C400.449 172.703 401.397 171.492 401.397 168.768C401.397 166.042 400.449 164.833 399.14 163.158C397.589 161.176 395.661 158.713 395.661 154.106C395.661 149.5 397.589 147.036 399.14 145.055C400.449 143.379 401.397 142.17 401.397 139.443C401.397 136.718 400.449 135.507 399.14 133.833C397.589 131.85 395.661 129.466 395.661 124.781V124.767C395.661 120.083 397.589 117.698 399.14 115.715C400.449 114.041 401.397 112.831 401.397 110.105C401.397 107.378 400.449 106.169 399.14 104.493C397.589 102.512 395.661 100.049 395.661 95.4421C395.661 90.8353 397.589 88.372 399.14 86.3903C400.449 84.7146 401.397 83.5055 401.397 80.7798C401.397 78.0555 400.449 76.8449 399.14 75.1698C398.304 74.103 397.359 72.8948 396.665 71.2863H398.132C397.017 69.7362 395.955 67.7996 395.713 64.8456C396.029 61.0286 397.739 58.7758 399.14 56.9859C400.43 55.3382 401.368 54.0465 401.397 51.4191V51.3672C401.392 50.9395 401.364 50.5478 401.313 50.1839C401.368 49.7891 401.397 49.3579 401.397 48.8809C401.397 46.1541 400.449 44.9451 399.14 43.2696C397.733 41.4714 396.015 39.2767 395.709 35.4431C396.015 31.6095 397.733 29.4124 399.14 27.6165C400.449 25.9414 401.397 24.7306 401.397 22.0063C401.397 21.5601 401.371 21.1552 401.323 20.7814C401.371 20.4077 401.397 20.002 401.397 19.556C401.397 16.8317 400.449 15.6211 399.14 13.9461C397.976 12.4605 396.6 10.7016 395.985 7.9693C395.996 6.64575 396.025 2.13235 395.708 6.11783C395.677 5.72717 395.661 5.32089 395.661 4.89514C395.661 4.23251 395.701 3.61221 395.774 3.03061H372.01Z" fill="#CCCCCC"/>
<path d="M372.01 3.0306V8.1431V71.2863V236.106V238.611V364.476H398.132C396.863 362.71 395.661 360.445 395.661 356.747V356.732C395.661 352.048 397.589 349.663 399.14 347.681C400.449 346.007 401.397 344.796 401.397 342.07C401.397 339.344 400.449 338.134 399.14 336.459C397.589 334.478 395.661 332.014 395.661 327.408C395.661 322.801 397.589 320.337 399.14 318.356C400.449 316.68 401.397 315.471 401.397 312.745C401.397 310.021 400.449 308.81 399.14 307.135C397.589 305.156 395.661 302.69 395.661 298.084C395.661 293.479 397.589 290.932 399.14 288.952C400.43 287.304 401.368 286.012 401.397 283.385V283.333C401.368 280.705 400.43 279.414 399.14 277.766C397.589 275.786 395.661 273.238 395.661 268.634C395.661 264.028 397.589 261.561 399.14 259.582C400.449 257.907 401.397 256.696 401.397 253.972C401.397 251.247 400.449 250.036 399.14 248.361C394.029 241.828 394.766 238.742 399.14 233.152C400.449 231.477 401.397 230.266 401.397 227.542C401.397 224.817 400.449 223.607 399.14 221.931C397.589 219.952 395.661 217.485 395.661 212.88C395.661 208.276 397.589 205.728 399.14 203.747C400.43 202.099 401.368 200.808 401.397 198.181V198.129C401.368 195.502 400.43 194.211 399.14 192.562C397.589 190.582 395.661 188.033 395.661 183.429C395.661 178.823 397.589 176.358 399.14 174.378C400.449 172.703 401.397 171.492 401.397 168.768C401.397 166.042 400.449 164.833 399.14 163.158C397.589 161.176 395.661 158.713 395.661 154.106C395.661 149.5 397.589 147.036 399.14 145.055C400.449 143.379 401.397 142.17 401.397 139.443C401.397 136.718 400.449 135.507 399.14 133.833C397.589 131.85 395.661 129.466 395.661 124.781V124.767C395.661 120.083 397.589 117.698 399.14 115.715C400.449 114.041 401.397 112.831 401.397 110.105C401.397 107.378 400.449 106.169 399.14 104.493C397.589 102.512 395.661 100.049 395.661 95.4422C395.661 90.8353 397.589 88.372 399.14 86.3903C400.449 84.7146 401.397 83.5055 401.397 80.7798C401.397 78.0555 400.449 76.8449 399.14 75.1698C398.304 74.103 397.359 72.8948 396.665 71.2863H398.132C397.017 69.7362 395.955 67.7996 395.713 64.8456C396.029 61.0286 397.739 58.7758 399.14 56.9859C400.43 55.3382 401.368 54.0465 401.397 51.4191V51.3672C401.392 50.9396 401.364 50.5478 401.313 50.1839C401.368 49.7891 401.397 49.3579 401.397 48.8809C401.397 46.1541 400.449 44.9451 399.14 43.2695C397.733 41.4714 396.015 39.2767 395.709 35.4431C396.015 31.6095 397.733 29.4125 399.14 27.6165C400.449 25.9414 401.397 24.7306 401.397 22.0063C401.397 21.5601 401.371 21.1552 401.323 20.7814C401.371 20.4077 401.397 20.002 401.397 19.556C401.397 16.8317 400.449 15.6211 399.14 13.9461C397.976 12.4605 396.6 10.7016 395.985 7.9693C395.996 6.64576 396.025 2.13236 395.708 6.11784C395.677 5.72717 395.661 5.32088 395.661 4.89514C395.661 4.2325 395.701 3.6122 395.774 3.0306H372.01Z" stroke="#757EB3" stroke-miterlimit="22.9256"/>
<path fill-rule="evenodd" clip-rule="evenodd" d="M402.027 128.446H392.231V3.02805H402.027V128.446Z" fill="#FFEC08"/>
<path d="M402.027 128.446H392.231V3.02805H402.027V128.446Z" stroke="#757EB3" stroke-miterlimit="22.9256"/>
<path fill-rule="evenodd" clip-rule="evenodd" d="M402.027 128.449H392.231V154.618H402.027V128.449Z" fill="#E3000F"/>
<path d="M402.027 128.449H392.231V154.618H402.027V128.449Z" stroke="#757EB3" stroke-miterlimit="22.9256"/>
<path fill-rule="evenodd" clip-rule="evenodd" d="M402.028 3.03104V26.2481V28.7532V154.618H428.151C426.882 152.853 425.679 150.588 425.679 146.889V146.875C425.679 142.191 427.608 139.805 429.158 137.823C430.468 136.149 431.415 134.939 431.415 132.213C431.415 129.486 430.468 128.277 429.158 126.601C427.608 124.62 425.679 122.157 425.679 117.55C425.679 112.943 427.608 110.48 429.158 108.498C430.468 106.823 431.415 105.614 431.415 102.888C431.415 100.164 430.468 98.9528 429.158 97.2778C427.608 95.2985 425.679 92.8328 425.679 88.2272C425.679 83.6216 427.608 81.0741 429.158 79.0939C430.448 77.4464 431.387 76.1543 431.415 73.5271V73.4752C431.387 70.848 430.448 69.5569 429.158 67.9082C427.608 65.9281 425.679 63.3808 425.679 58.7762C425.679 54.1703 427.608 51.7036 429.158 49.7244C430.468 48.0494 431.415 46.8388 431.415 44.1143C431.415 41.3898 430.468 40.1788 429.158 38.5038C424.047 31.9701 424.785 28.8851 429.158 23.2946C430.468 21.6196 431.415 20.4087 431.415 17.6845C431.415 14.9599 430.468 13.7497 429.158 12.074C427.609 10.0961 425.681 7.63043 425.679 3.03104H402.028Z" fill="#CCCCCC"/>
<path d="M402.028 3.03104V26.2481V28.7532V154.618H428.151C426.882 152.853 425.679 150.588 425.679 146.889V146.875C425.679 142.191 427.608 139.805 429.158 137.823C430.468 136.149 431.415 134.939 431.415 132.213C431.415 129.486 430.468 128.277 429.158 126.601C427.608 124.62 425.679 122.157 425.679 117.55C425.679 112.943 427.608 110.48 429.158 108.498C430.468 106.823 431.415 105.614 431.415 102.888C431.415 100.164 430.468 98.9528 429.158 97.2778C427.608 95.2985 425.679 92.8328 425.679 88.2272C425.679 83.6216 427.608 81.0741 429.158 79.0939C430.448 77.4464 431.387 76.1543 431.415 73.5271V73.4752C431.387 70.848 430.448 69.5569 429.158 67.9082C427.608 65.9281 425.679 63.3808 425.679 58.7762C425.679 54.1703 427.608 51.7036 429.158 49.7244C430.468 48.0494 431.415 46.8388 431.415 44.1143C431.415 41.3898 430.468 40.1788 429.158 38.5038C424.047 31.9701 424.785 28.8851 429.158 23.2946C430.468 21.6196 431.415 20.4087 431.415 17.6845C431.415 14.9599 430.468 13.7497 429.158 12.074C427.609 10.0962 425.681 7.63043 425.679 3.03104H402.028Z" stroke="#757EB3" stroke-miterlimit="22.9256"/>
<path fill-rule="evenodd" clip-rule="evenodd" d="M402.027 3.03034H392.231V29.1992H402.027V3.03034Z" fill="#00963F"/>
<path d="M402.027 3.03034H392.231V29.1992H402.027V3.03034Z" stroke="#757EB3" stroke-miterlimit="22.9256"/>
<path fill-rule="evenodd" clip-rule="evenodd" d="M433.792 3.03034H423.996V29.1992H433.792V3.03034Z" fill="#E3000F"/>
<path d="M433.792 3.03034H423.996V29.1992H433.792V3.03034Z" stroke="#757EB3" stroke-miterlimit="22.9256"/>
<path fill-rule="evenodd" clip-rule="evenodd" d="M433.791 3.02992V29.1992H459.913C458.644 27.434 457.442 25.1689 457.442 21.4705V21.4557C457.442 16.772 459.371 14.3867 460.921 12.4045C462.231 10.7304 463.178 9.5197 463.178 6.794C463.178 5.1204 462.821 4.01929 462.243 3.02992H433.791Z" fill="#CCCCCC"/>
<path d="M433.791 3.02992V29.1992H459.913C458.644 27.434 457.442 25.1689 457.442 21.4705V21.4557C457.442 16.772 459.371 14.3867 460.921 12.4045C462.231 10.7304 463.178 9.5197 463.178 6.794C463.178 5.1204 462.821 4.01929 462.243 3.02992H433.791Z" stroke="#757EB3" stroke-miterlimit="22.9256"/>
<path fill-rule="evenodd" clip-rule="evenodd" d="M310.648 877.679V891.026H322.265L310.648 877.679Z" fill="#272953"/>
<path fill-rule="evenodd" clip-rule="evenodd" d="M204.442 877.679V891.026H192.825L204.442 877.679Z" fill="#272953"/>
<path d="M396 155.271H511.574" stroke="#454D7D" stroke-width="2" stroke-miterlimit="22.9256"/>
<path d="M372 365.028L512 365.028" stroke="#454D7D" stroke-width="2" stroke-miterlimit="22.9256"/>
<path d="M338 702.028L512 702.028" stroke="#454D7D" stroke-width="2" stroke-miterlimit="22.9256"/>
<path d="M300 893.028L512 893.028" stroke="#454D7D" stroke-width="2" stroke-miterlimit="22.9256"/>
<path d="M424 30.2705H539.574" stroke="#454D7D" stroke-width="2" stroke-miterlimit="22.9256"/>
<path d="M113.637 128.218L31.0001 100.189" stroke="#454D7D" stroke-width="2" stroke-miterlimit="22.9256"/>
<path d="M142.637 338.218L60.0001 310.189" stroke="#454D7D" stroke-width="2" stroke-miterlimit="22.9256"/>
<path d="M176.637 584.218L94.0001 556.189" stroke="#454D7D" stroke-width="2" stroke-miterlimit="22.9256"/>
<path d="M205.637 764.218L123 736.189" stroke="#454D7D" stroke-width="2" stroke-miterlimit="22.9256"/>
<path d="M83.6367 29.2178L1.00006 1.189" stroke="#454D7D" stroke-width="2" stroke-miterlimit="22.9256"/>
</svg>
