<svg width="476" height="624" viewBox="0 0 476 624" fill="none" xmlns="http://www.w3.org/2000/svg">
<path d="M337 96.4297L424.633 96.4297" stroke="#454D7D" stroke-width="2" stroke-miterlimit="22.9256"/>
<path d="M301 260.189L425 260.189" stroke="#454D7D" stroke-width="2" stroke-miterlimit="22.9256"/>
<path d="M267 622.189L425 622.189" stroke="#454D7D" stroke-width="2" stroke-miterlimit="22.9256"/>
<path fill-rule="evenodd" clip-rule="evenodd" d="M138.916 26.4144V259.474H114.811C114.148 257.034 112.874 255.405 111.786 254.015C110.476 252.34 109.529 251.129 109.529 248.405C109.529 245.68 110.476 244.47 111.786 242.794C113.336 240.815 115.265 238.348 115.265 233.743C115.265 229.139 113.336 226.591 111.786 224.61C110.496 222.963 109.557 221.671 109.529 219.044V218.992C109.557 216.365 110.496 215.073 111.786 213.426C113.336 211.445 115.265 208.896 115.265 204.292C115.265 199.686 113.336 197.221 111.786 195.241C110.476 193.566 109.529 192.355 109.529 189.631C109.529 186.905 110.476 185.695 111.786 184.021C113.336 182.039 115.265 179.576 115.265 174.969C115.265 170.363 113.336 167.899 111.786 165.917C110.476 164.242 109.529 163.032 109.529 160.306C109.529 157.581 110.476 156.37 111.786 154.696C113.336 152.713 115.265 150.328 115.265 145.644V145.629C115.265 140.946 113.336 138.56 111.786 136.578C110.476 134.904 109.529 133.693 109.529 130.968C109.529 128.241 110.476 127.032 111.786 125.356C113.336 123.375 115.265 120.911 115.265 116.305C115.265 111.698 113.336 109.235 111.786 107.253C110.476 105.578 109.529 104.368 109.529 101.643C109.529 98.9185 110.476 97.7074 111.786 96.0328C111.91 95.8747 112.037 95.713 112.164 95.5473L108.843 26.4144H138.916Z" fill="#CCCCCC"/>
<path d="M138.916 26.4144V259.474H114.811C114.148 257.034 112.874 255.405 111.786 254.015C110.476 252.34 109.529 251.129 109.529 248.405C109.529 245.68 110.476 244.47 111.786 242.794C113.336 240.815 115.265 238.348 115.265 233.743C115.265 229.139 113.336 226.591 111.786 224.61C110.496 222.963 109.557 221.671 109.529 219.044V218.992C109.557 216.365 110.496 215.073 111.786 213.426C113.336 211.445 115.265 208.896 115.265 204.292C115.265 199.686 113.336 197.221 111.786 195.241C110.476 193.566 109.529 192.355 109.529 189.631C109.529 186.905 110.476 185.695 111.786 184.021C113.336 182.039 115.265 179.576 115.265 174.969C115.265 170.363 113.336 167.899 111.786 165.917C110.476 164.242 109.529 163.032 109.529 160.306C109.529 157.581 110.476 156.37 111.786 154.696C113.336 152.713 115.265 150.328 115.265 145.644V145.629C115.265 140.946 113.336 138.56 111.786 136.578C110.476 134.904 109.529 133.693 109.529 130.968C109.529 128.241 110.476 127.032 111.786 125.356C113.336 123.375 115.265 120.911 115.265 116.305C115.265 111.698 113.336 109.235 111.786 107.253C110.476 105.578 109.529 104.368 109.529 101.643C109.529 98.9185 110.476 97.7074 111.786 96.0328C111.91 95.8747 112.037 95.713 112.164 95.5473L108.843 26.4144H138.916Z" stroke="#757EB3" stroke-miterlimit="22.9256"/>
<path fill-rule="evenodd" clip-rule="evenodd" d="M172.738 26.4148V492.822V495.327V621.192H146.615C147.884 619.427 149.087 617.162 149.087 613.463V613.449C149.087 608.765 147.158 606.38 145.608 604.397C144.298 602.723 143.351 601.513 143.351 598.787C143.351 596.06 144.298 594.851 145.608 593.175C147.158 591.194 149.087 588.731 149.087 584.124C149.087 579.517 147.158 577.054 145.608 575.073C144.298 573.397 143.351 572.188 143.351 569.462C143.351 566.738 144.298 565.527 145.608 563.852C147.158 561.873 149.087 559.407 149.087 554.801C149.087 550.196 147.158 547.648 145.608 545.668C144.318 544.02 143.379 542.728 143.351 540.101V540.049C143.379 537.422 144.318 536.131 145.608 534.482C147.158 532.502 149.087 529.955 149.087 525.35C149.087 520.744 147.158 518.278 145.608 516.299C144.298 514.624 143.351 513.412 143.351 510.689C143.351 507.964 144.298 506.753 145.608 505.078C150.719 498.544 149.981 495.459 145.608 489.869C144.298 488.194 143.351 486.983 143.351 484.259C143.351 481.534 144.298 480.324 145.608 478.648C147.158 476.669 149.087 474.202 149.087 469.596C149.087 464.992 147.158 462.444 145.608 460.464C144.318 458.816 143.379 457.525 143.351 454.898V454.845C143.379 452.219 144.318 450.927 145.608 449.279C147.158 447.298 149.087 444.75 149.087 440.146C149.087 435.54 147.158 433.075 145.608 431.095C144.298 429.42 143.351 428.209 143.351 425.485C143.351 422.759 144.298 421.55 145.608 419.875C147.158 417.893 149.087 415.429 149.087 410.823C149.087 406.216 147.158 403.752 145.608 401.771C144.298 400.096 143.351 398.886 143.351 396.16C143.351 393.435 144.298 392.224 145.608 390.55C147.158 388.567 149.087 386.182 149.087 381.498V381.483C149.087 376.799 147.158 374.414 145.608 372.432C144.298 370.758 143.351 369.547 143.351 366.822C143.351 364.095 144.298 362.886 145.608 361.21C147.158 359.229 149.087 356.765 149.087 352.159C149.087 347.552 147.158 345.089 145.608 343.107C144.298 341.432 143.351 340.222 143.351 337.496C143.351 334.772 144.298 333.562 145.608 331.886C147.158 329.907 149.087 327.441 149.087 322.836C149.087 318.23 147.158 315.683 145.608 313.703C144.318 312.055 143.379 310.763 143.351 308.136V308.084C143.379 305.456 144.318 304.166 145.608 302.517C147.158 300.537 149.087 297.989 149.087 293.385C149.087 288.779 147.158 286.312 145.608 284.333C144.298 282.658 143.351 281.447 143.351 278.723C143.351 275.998 144.298 274.788 145.608 273.113C147.158 271.131 149.087 268.667 149.087 264.061C149.087 262.856 148.955 261.798 148.732 260.857L148.764 26.4148H172.738Z" fill="#CCCCCC"/>
<path d="M172.738 26.4148V492.822V495.327V621.192H146.615C147.884 619.427 149.087 617.162 149.087 613.463V613.449C149.087 608.765 147.158 606.38 145.608 604.397C144.298 602.723 143.351 601.513 143.351 598.787C143.351 596.06 144.298 594.851 145.608 593.175C147.158 591.194 149.087 588.731 149.087 584.124C149.087 579.517 147.158 577.054 145.608 575.073C144.298 573.397 143.351 572.188 143.351 569.462C143.351 566.738 144.298 565.527 145.608 563.852C147.158 561.873 149.087 559.407 149.087 554.801C149.087 550.196 147.158 547.648 145.608 545.668C144.318 544.02 143.379 542.728 143.351 540.101V540.049C143.379 537.422 144.318 536.131 145.608 534.482C147.158 532.502 149.087 529.955 149.087 525.35C149.087 520.744 147.158 518.278 145.608 516.299C144.298 514.624 143.351 513.412 143.351 510.689C143.351 507.964 144.298 506.753 145.608 505.078C150.719 498.544 149.981 495.459 145.608 489.869C144.298 488.194 143.351 486.983 143.351 484.259C143.351 481.534 144.298 480.324 145.608 478.648C147.158 476.669 149.087 474.202 149.087 469.596C149.087 464.992 147.158 462.444 145.608 460.464C144.318 458.816 143.379 457.525 143.351 454.898V454.845C143.379 452.219 144.318 450.927 145.608 449.279C147.158 447.298 149.087 444.75 149.087 440.146C149.087 435.54 147.158 433.075 145.608 431.095C144.298 429.42 143.351 428.209 143.351 425.485C143.351 422.759 144.298 421.55 145.608 419.875C147.158 417.893 149.087 415.429 149.087 410.823C149.087 406.216 147.158 403.752 145.608 401.771C144.298 400.096 143.351 398.886 143.351 396.16C143.351 393.435 144.298 392.224 145.608 390.55C147.158 388.567 149.087 386.182 149.087 381.498V381.483C149.087 376.799 147.158 374.414 145.608 372.432C144.298 370.758 143.351 369.547 143.351 366.822C143.351 364.095 144.298 362.886 145.608 361.21C147.158 359.229 149.087 356.765 149.087 352.159C149.087 347.552 147.158 345.089 145.608 343.107C144.298 341.432 143.351 340.222 143.351 337.496C143.351 334.772 144.298 333.562 145.608 331.886C147.158 329.907 149.087 327.441 149.087 322.836C149.087 318.23 147.158 315.683 145.608 313.703C144.318 312.055 143.379 310.763 143.351 308.136V308.084C143.379 305.456 144.318 304.166 145.608 302.517C147.158 300.537 149.087 297.989 149.087 293.385C149.087 288.779 147.158 286.312 145.608 284.333C144.298 282.658 143.351 281.447 143.351 278.723C143.351 275.998 144.298 274.788 145.608 273.113C147.158 271.131 149.087 268.667 149.087 264.061C149.087 262.856 148.955 261.798 148.732 260.857L148.764 26.4148H172.738Z" stroke="#757EB3" stroke-miterlimit="22.9256"/>
<path fill-rule="evenodd" clip-rule="evenodd" d="M138.966 95.4141H148.762V26.414H138.966V95.4141Z" fill="#00963F"/>
<path d="M138.966 95.4141H148.762V26.414H138.966V95.4141Z" stroke="#757EB3" stroke-miterlimit="22.9256"/>
<path fill-rule="evenodd" clip-rule="evenodd" d="M138.966 235.498H148.762V259.474H138.966V235.498Z" fill="#E3000F"/>
<path d="M138.966 235.498H148.762V259.474H138.966V235.498Z" stroke="#757EB3" stroke-miterlimit="22.9256"/>
<path fill-rule="evenodd" clip-rule="evenodd" d="M172.738 565.816H182.534V26.1892H172.738V565.816Z" fill="#FFEC08"/>
<path d="M172.738 565.816H182.534V26.1892H172.738V565.816Z" stroke="#757EB3" stroke-miterlimit="22.9256"/>
<path fill-rule="evenodd" clip-rule="evenodd" d="M172.738 565.817H182.534V621.192H172.738V565.817Z" fill="#00963F"/>
<path d="M172.738 565.817H182.534V621.192H172.738V565.817Z" stroke="#757EB3" stroke-miterlimit="22.9256"/>
<path fill-rule="evenodd" clip-rule="evenodd" d="M138.966 235.499H148.762V94.4431H138.966V235.499Z" fill="#FFEC08"/>
<path d="M138.966 235.499H148.762V94.4431H138.966V235.499Z" stroke="#757EB3" stroke-miterlimit="22.9256"/>
<path fill-rule="evenodd" clip-rule="evenodd" d="M102.387 26.414V95.4141H75.7375C77.1785 93.5321 78.7365 91.1211 78.7365 86.9815C78.7365 82.3764 76.8077 79.8287 75.2575 77.8486C73.9674 76.2011 73.0289 74.9088 73 72.2816V72.2297C73.0289 69.6025 73.9674 68.3116 75.2575 66.6627C76.8077 64.6826 78.7365 62.1354 78.7365 57.5307C78.7365 52.9245 76.8077 50.4581 75.2575 48.4788C73.9477 46.8042 73 45.5929 73 42.8688C73 40.1439 73.9477 38.9331 75.2575 37.2583C76.8077 35.2766 78.7365 32.8133 78.7365 28.2069C78.7365 27.5694 78.6997 26.9735 78.6321 26.414H102.387Z" fill="#CCCCCC"/>
<path d="M102.387 26.414V95.4141H75.7375C77.1785 93.5321 78.7365 91.1211 78.7365 86.9815C78.7365 82.3764 76.8077 79.8287 75.2575 77.8486C73.9674 76.2011 73.0289 74.9088 73 72.2816V72.2297C73.0289 69.6025 73.9674 68.3116 75.2575 66.6627C76.8077 64.6826 78.7365 62.1354 78.7365 57.5307C78.7365 52.9245 76.8077 50.4581 75.2575 48.4788C73.9477 46.8042 73 45.5929 73 42.8688C73 40.1439 73.9477 38.9331 75.2575 37.2583C76.8077 35.2766 78.7365 32.8133 78.7365 28.2069C78.7365 27.5694 78.6997 26.9735 78.6321 26.414H102.387Z" stroke="#757EB3" stroke-miterlimit="22.9256"/>
<path fill-rule="evenodd" clip-rule="evenodd" d="M102.896 95.4141H112.691V26.414H102.896V95.4141Z" fill="#E3000F"/>
<path d="M102.896 95.4141H112.691V26.414H102.896V95.4141Z" stroke="#757EB3" stroke-miterlimit="22.9256"/>
<path fill-rule="evenodd" clip-rule="evenodd" d="M310.726 26.4144V259.474H334.83C335.493 257.034 336.768 255.405 337.855 254.015C339.165 252.34 340.113 251.129 340.113 248.405C340.113 245.68 339.165 244.47 337.855 242.794C336.305 240.815 334.376 238.348 334.376 233.743C334.376 229.139 336.305 226.591 337.855 224.61C339.145 222.963 340.084 221.671 340.113 219.044V218.992C340.084 216.365 339.145 215.073 337.855 213.426C336.305 211.445 334.376 208.896 334.376 204.292C334.376 199.686 336.305 197.221 337.855 195.241C339.165 193.566 340.113 192.355 340.113 189.631C340.113 186.905 339.165 185.695 337.855 184.021C336.305 182.039 334.376 179.576 334.376 174.969C334.376 170.363 336.305 167.899 337.855 165.917C339.165 164.242 340.113 163.032 340.113 160.306C340.113 157.581 339.165 156.37 337.855 154.696C336.305 152.713 334.376 150.328 334.376 145.644V145.629C334.376 140.946 336.305 138.56 337.855 136.578C339.165 134.904 340.113 133.693 340.113 130.968C340.113 128.241 339.165 127.032 337.855 125.356C336.305 123.375 334.376 120.911 334.376 116.305C334.376 111.698 336.305 109.235 337.855 107.253C339.165 105.578 340.113 104.368 340.113 101.643C340.113 98.9185 339.165 97.7074 337.855 96.0328C337.731 95.8747 337.604 95.713 337.477 95.5473L340.798 26.4144H310.726Z" fill="#CCCCCC"/>
<path d="M310.726 26.4144V259.474H334.83C335.493 257.034 336.768 255.405 337.855 254.015C339.165 252.34 340.113 251.129 340.113 248.405C340.113 245.68 339.165 244.47 337.855 242.794C336.305 240.815 334.376 238.348 334.376 233.743C334.376 229.139 336.305 226.591 337.855 224.61C339.145 222.963 340.084 221.671 340.113 219.044V218.992C340.084 216.365 339.145 215.073 337.855 213.426C336.305 211.445 334.376 208.896 334.376 204.292C334.376 199.686 336.305 197.221 337.855 195.241C339.165 193.566 340.113 192.355 340.113 189.631C340.113 186.905 339.165 185.695 337.855 184.021C336.305 182.039 334.376 179.576 334.376 174.969C334.376 170.363 336.305 167.899 337.855 165.917C339.165 164.242 340.113 163.032 340.113 160.306C340.113 157.581 339.165 156.37 337.855 154.696C336.305 152.713 334.376 150.328 334.376 145.644V145.629C334.376 140.946 336.305 138.56 337.855 136.578C339.165 134.904 340.113 133.693 340.113 130.968C340.113 128.241 339.165 127.032 337.855 125.356C336.305 123.375 334.376 120.911 334.376 116.305C334.376 111.698 336.305 109.235 337.855 107.253C339.165 105.578 340.113 104.368 340.113 101.643C340.113 98.9185 339.165 97.7074 337.855 96.0328C337.731 95.8747 337.604 95.713 337.477 95.5473L340.798 26.4144H310.726Z" stroke="#757EB3" stroke-miterlimit="22.9256"/>
<path fill-rule="evenodd" clip-rule="evenodd" d="M276.904 26.4148V492.822V495.327V621.192H303.027C301.757 619.427 300.555 617.162 300.555 613.463V613.449C300.555 608.765 302.484 606.38 304.034 604.397C305.344 602.723 306.292 601.513 306.292 598.787C306.292 596.06 305.344 594.851 304.034 593.175C302.484 591.194 300.555 588.731 300.555 584.124C300.555 579.517 302.484 577.054 304.034 575.073C305.344 573.397 306.292 572.188 306.292 569.462C306.292 566.738 305.344 565.527 304.034 563.852C302.484 561.873 300.555 559.407 300.555 554.801C300.555 550.196 302.484 547.648 304.034 545.668C305.324 544.02 306.263 542.728 306.292 540.101V540.049C306.263 537.422 305.324 536.131 304.034 534.482C302.484 532.502 300.555 529.955 300.555 525.35C300.555 520.744 302.484 518.278 304.034 516.299C305.344 514.624 306.292 513.412 306.292 510.689C306.292 507.964 305.344 506.753 304.034 505.078C298.923 498.544 299.661 495.459 304.034 489.869C305.344 488.194 306.292 486.983 306.292 484.259C306.292 481.534 305.344 480.324 304.034 478.648C302.484 476.669 300.555 474.202 300.555 469.596C300.555 464.992 302.484 462.444 304.034 460.464C305.324 458.816 306.263 457.525 306.292 454.898V454.845C306.263 452.219 305.324 450.927 304.034 449.279C302.484 447.298 300.555 444.75 300.555 440.146C300.555 435.54 302.484 433.075 304.034 431.095C305.344 429.42 306.292 428.209 306.292 425.485C306.292 422.759 305.344 421.55 304.034 419.875C302.484 417.893 300.555 415.429 300.555 410.823C300.555 406.216 302.484 403.752 304.034 401.771C305.344 400.096 306.292 398.886 306.292 396.16C306.292 393.435 305.344 392.224 304.034 390.55C302.484 388.567 300.555 386.182 300.555 381.498V381.483C300.555 376.799 302.484 374.414 304.034 372.432C305.344 370.758 306.292 369.547 306.292 366.822C306.292 364.095 305.344 362.886 304.034 361.21C302.484 359.229 300.555 356.765 300.555 352.159C300.555 347.552 302.484 345.089 304.034 343.107C305.344 341.432 306.292 340.222 306.292 337.496C306.292 334.772 305.344 333.562 304.034 331.886C302.484 329.907 300.555 327.441 300.555 322.836C300.555 318.23 302.484 315.683 304.034 313.703C305.324 312.055 306.263 310.763 306.292 308.136V308.084C306.263 305.456 305.324 304.166 304.034 302.517C302.484 300.537 300.555 297.989 300.555 293.385C300.555 288.779 302.484 286.312 304.034 284.333C305.344 282.658 306.292 281.447 306.292 278.723C306.292 275.998 305.344 274.788 304.034 273.113C302.484 271.131 300.555 268.667 300.555 264.061C300.555 262.856 300.687 261.798 300.91 260.857L300.878 26.4148H276.904Z" fill="#CCCCCC"/>
<path d="M276.904 26.4148V492.822V495.327V621.192H303.027C301.757 619.427 300.555 617.162 300.555 613.463V613.449C300.555 608.765 302.484 606.38 304.034 604.397C305.344 602.723 306.292 601.513 306.292 598.787C306.292 596.06 305.344 594.851 304.034 593.175C302.484 591.194 300.555 588.731 300.555 584.124C300.555 579.517 302.484 577.054 304.034 575.073C305.344 573.397 306.292 572.188 306.292 569.462C306.292 566.738 305.344 565.527 304.034 563.852C302.484 561.873 300.555 559.407 300.555 554.801C300.555 550.196 302.484 547.648 304.034 545.668C305.324 544.02 306.263 542.728 306.292 540.101V540.049C306.263 537.422 305.324 536.131 304.034 534.482C302.484 532.502 300.555 529.955 300.555 525.35C300.555 520.744 302.484 518.278 304.034 516.299C305.344 514.624 306.292 513.412 306.292 510.689C306.292 507.964 305.344 506.753 304.034 505.078C298.923 498.544 299.661 495.459 304.034 489.869C305.344 488.194 306.292 486.983 306.292 484.259C306.292 481.534 305.344 480.324 304.034 478.648C302.484 476.669 300.555 474.202 300.555 469.596C300.555 464.992 302.484 462.444 304.034 460.464C305.324 458.816 306.263 457.525 306.292 454.898V454.845C306.263 452.219 305.324 450.927 304.034 449.279C302.484 447.298 300.555 444.75 300.555 440.146C300.555 435.54 302.484 433.075 304.034 431.095C305.344 429.42 306.292 428.209 306.292 425.485C306.292 422.759 305.344 421.55 304.034 419.875C302.484 417.893 300.555 415.429 300.555 410.823C300.555 406.216 302.484 403.752 304.034 401.771C305.344 400.096 306.292 398.886 306.292 396.16C306.292 393.435 305.344 392.224 304.034 390.55C302.484 388.567 300.555 386.182 300.555 381.498V381.483C300.555 376.799 302.484 374.414 304.034 372.432C305.344 370.758 306.292 369.547 306.292 366.822C306.292 364.095 305.344 362.886 304.034 361.21C302.484 359.229 300.555 356.765 300.555 352.159C300.555 347.552 302.484 345.089 304.034 343.107C305.344 341.432 306.292 340.222 306.292 337.496C306.292 334.772 305.344 333.562 304.034 331.886C302.484 329.907 300.555 327.441 300.555 322.836C300.555 318.23 302.484 315.683 304.034 313.703C305.324 312.055 306.263 310.763 306.292 308.136V308.084C306.263 305.456 305.324 304.166 304.034 302.517C302.484 300.537 300.555 297.989 300.555 293.385C300.555 288.779 302.484 286.312 304.034 284.333C305.344 282.658 306.292 281.447 306.292 278.723C306.292 275.998 305.344 274.788 304.034 273.113C302.484 271.131 300.555 268.667 300.555 264.061C300.555 262.856 300.687 261.798 300.91 260.857L300.878 26.4148H276.904Z" stroke="#757EB3" stroke-miterlimit="22.9256"/>
<path fill-rule="evenodd" clip-rule="evenodd" d="M310.678 95.4141H300.882V26.414H310.678V95.4141Z" fill="#00963F"/>
<path d="M310.678 95.4141H300.882V26.414H310.678V95.4141Z" stroke="#757EB3" stroke-miterlimit="22.9256"/>
<path fill-rule="evenodd" clip-rule="evenodd" d="M310.678 235.498H300.882V259.474H310.678V235.498Z" fill="#E3000F"/>
<path d="M310.678 235.498H300.882V259.474H310.678V235.498Z" stroke="#757EB3" stroke-miterlimit="22.9256"/>
<path fill-rule="evenodd" clip-rule="evenodd" d="M276.904 565.816H267.108V26.1892H276.904V565.816Z" fill="#FFEC08"/>
<path d="M276.904 565.816H267.108V26.1892H276.904V565.816Z" stroke="#757EB3" stroke-miterlimit="22.9256"/>
<path fill-rule="evenodd" clip-rule="evenodd" d="M276.904 565.817H267.108V621.192H276.904V565.817Z" fill="#00963F"/>
<path d="M276.904 565.817H267.108V621.192H276.904V565.817Z" stroke="#757EB3" stroke-miterlimit="22.9256"/>
<path fill-rule="evenodd" clip-rule="evenodd" d="M310.678 235.499H300.882V94.4431H310.678V235.499Z" fill="#FFEC08"/>
<path d="M310.678 235.499H300.882V94.4431H310.678V235.499Z" stroke="#757EB3" stroke-miterlimit="22.9256"/>
<path fill-rule="evenodd" clip-rule="evenodd" d="M347.255 26.414V95.4141H373.905C372.464 93.5321 370.906 91.1211 370.906 86.9815C370.906 82.3764 372.835 79.8287 374.385 77.8486C375.675 76.2011 376.613 74.9088 376.642 72.2816V72.2297C376.613 69.6025 375.675 68.3116 374.385 66.6627C372.835 64.6826 370.906 62.1354 370.906 57.5307C370.906 52.9245 372.835 50.4581 374.385 48.4788C375.694 46.8042 376.642 45.5929 376.642 42.8688C376.642 40.1439 375.694 38.9331 374.385 37.2583C372.835 35.2766 370.906 32.8133 370.906 28.2069C370.906 27.5694 370.942 26.9735 371.01 26.414H347.255Z" fill="#CCCCCC"/>
<path d="M347.255 26.414V95.4141H373.905C372.464 93.5321 370.906 91.1211 370.906 86.9815C370.906 82.3764 372.835 79.8287 374.385 77.8486C375.675 76.2011 376.613 74.9088 376.642 72.2816V72.2297C376.613 69.6025 375.675 68.3116 374.385 66.6627C372.835 64.6826 370.906 62.1354 370.906 57.5307C370.906 52.9245 372.835 50.4581 374.385 48.4788C375.694 46.8042 376.642 45.5929 376.642 42.8688C376.642 40.1439 375.694 38.9331 374.385 37.2583C372.835 35.2766 370.906 32.8133 370.906 28.2069C370.906 27.5694 370.942 26.9735 371.01 26.414H347.255Z" stroke="#757EB3" stroke-miterlimit="22.9256"/>
<path fill-rule="evenodd" clip-rule="evenodd" d="M346.749 95.4141H336.953V26.414H346.749V95.4141Z" fill="#E3000F"/>
<path d="M346.749 95.4141H336.953V26.414H346.749V95.4141Z" stroke="#757EB3" stroke-miterlimit="22.9256"/>
<path d="M375 38.7012L475.334 1.24092" stroke="#454D7D" stroke-width="2" stroke-miterlimit="22.9256"/>
<path d="M342 219.891L442.334 182.43" stroke="#454D7D" stroke-width="2" stroke-miterlimit="22.9256"/>
<path d="M301 493.891L401.334 456.43" stroke="#454D7D" stroke-width="2" stroke-miterlimit="22.9256"/>
<path d="M75.9756 446.24L177.636 502.744" stroke="#454D7D" stroke-width="2" stroke-miterlimit="22.9256"/>
<path d="M43.9756 178.24L145.636 234.744" stroke="#454D7D" stroke-width="2" stroke-miterlimit="22.9256"/>
<path d="M0.975586 5.24023L102.636 61.7435" stroke="#454D7D" stroke-width="2" stroke-miterlimit="22.9256"/>
</svg>
