<svg width="425" height="619" viewBox="0 0 425 619" fill="none" xmlns="http://www.w3.org/2000/svg">
<path d="M337 92.1895L424.633 92.1894" stroke="#454D7D" stroke-width="2" stroke-miterlimit="22.9256"/>
<path d="M301 255.949L425 255.949" stroke="#454D7D" stroke-width="2" stroke-miterlimit="22.9256"/>
<path d="M267 617.949L425 617.949" stroke="#454D7D" stroke-width="2" stroke-miterlimit="22.9256"/>
<path fill-rule="evenodd" clip-rule="evenodd" d="M138.916 22.1741V255.233H114.811C114.148 252.794 112.874 251.165 111.786 249.775C110.476 248.099 109.529 246.889 109.529 244.165C109.529 241.44 110.476 240.23 111.786 238.554C113.336 236.575 115.265 234.108 115.265 229.502C115.265 224.898 113.336 222.351 111.786 220.37C110.496 218.722 109.557 217.431 109.529 214.803V214.751C109.557 212.125 110.496 210.833 111.786 209.185C113.336 207.204 115.265 204.656 115.265 200.052C115.265 195.446 113.336 192.98 111.786 191.001C110.476 189.325 109.529 188.115 109.529 185.391C109.529 182.665 110.476 181.455 111.786 179.781C113.336 177.799 115.265 175.336 115.265 170.729C115.265 166.123 113.336 163.659 111.786 161.677C110.476 160.002 109.529 158.792 109.529 156.066C109.529 153.34 110.476 152.129 111.786 150.456C113.336 148.473 115.265 146.088 115.265 141.404V141.389C115.265 136.706 113.336 134.32 111.786 132.338C110.476 130.664 109.529 129.453 109.529 126.728C109.529 124.001 110.476 122.791 111.786 121.116C113.336 119.135 115.265 116.671 115.265 112.065C115.265 107.458 113.336 104.995 111.786 103.013C110.476 101.337 109.529 100.128 109.529 97.4026C109.529 94.6783 110.476 93.4672 111.786 91.7926C111.91 91.6345 112.037 91.4727 112.164 91.307L108.843 22.1741H138.916Z" fill="#CCCCCC"/>
<path d="M138.916 22.1741V255.233H114.811C114.148 252.794 112.874 251.165 111.786 249.775C110.476 248.099 109.529 246.889 109.529 244.165C109.529 241.44 110.476 240.23 111.786 238.554C113.336 236.575 115.265 234.108 115.265 229.502C115.265 224.898 113.336 222.351 111.786 220.37C110.496 218.722 109.557 217.431 109.529 214.803V214.751C109.557 212.125 110.496 210.833 111.786 209.185C113.336 207.204 115.265 204.656 115.265 200.052C115.265 195.446 113.336 192.98 111.786 191.001C110.476 189.325 109.529 188.115 109.529 185.391C109.529 182.665 110.476 181.455 111.786 179.781C113.336 177.799 115.265 175.336 115.265 170.729C115.265 166.123 113.336 163.659 111.786 161.677C110.476 160.002 109.529 158.792 109.529 156.066C109.529 153.34 110.476 152.129 111.786 150.456C113.336 148.473 115.265 146.088 115.265 141.404V141.389C115.265 136.706 113.336 134.32 111.786 132.338C110.476 130.664 109.529 129.453 109.529 126.728C109.529 124.001 110.476 122.791 111.786 121.116C113.336 119.135 115.265 116.671 115.265 112.065C115.265 107.458 113.336 104.995 111.786 103.013C110.476 101.337 109.529 100.128 109.529 97.4026C109.529 94.6783 110.476 93.4672 111.786 91.7926C111.91 91.6345 112.037 91.4727 112.164 91.307L108.843 22.1741H138.916Z" stroke="#757EB3" stroke-miterlimit="22.9256"/>
<path fill-rule="evenodd" clip-rule="evenodd" d="M172.738 22.1746V488.582V491.087V616.952H146.615C147.884 615.187 149.087 612.921 149.087 609.223V609.208C149.087 604.525 147.158 602.139 145.608 600.157C144.298 598.483 143.351 597.272 143.351 594.547C143.351 591.82 144.298 590.611 145.608 588.935C147.158 586.954 149.087 584.49 149.087 579.884C149.087 575.277 147.158 572.814 145.608 570.832C144.298 569.157 143.351 567.948 143.351 565.222C143.351 562.498 144.298 561.287 145.608 559.612C147.158 557.633 149.087 555.166 149.087 550.561C149.087 545.955 147.158 543.408 145.608 541.428C144.318 539.78 143.379 538.488 143.351 535.861V535.809C143.379 533.182 144.318 531.891 145.608 530.242C147.158 528.262 149.087 525.715 149.087 521.11C149.087 516.504 147.158 514.038 145.608 512.058C144.298 510.383 143.351 509.172 143.351 506.448C143.351 503.724 144.298 502.513 145.608 500.838C150.719 494.304 149.981 491.219 145.608 485.628C144.298 483.954 143.351 482.743 143.351 480.019C143.351 477.294 144.298 476.083 145.608 474.408C147.158 472.428 149.087 469.962 149.087 465.356C149.087 460.752 147.158 458.204 145.608 456.224C144.318 454.576 143.379 453.284 143.351 450.657V450.605C143.379 447.978 144.318 446.687 145.608 445.039C147.158 443.058 149.087 440.51 149.087 435.905C149.087 431.3 147.158 428.834 145.608 426.854C144.298 425.18 143.351 423.969 143.351 421.245C143.351 418.519 144.298 417.31 145.608 415.634C147.158 413.653 149.087 411.189 149.087 406.583C149.087 401.976 147.158 399.512 145.608 397.531C144.298 395.856 143.351 394.646 143.351 391.92C143.351 389.194 144.298 387.984 145.608 386.31C147.158 384.327 149.087 381.942 149.087 377.258V377.243C149.087 372.559 147.158 370.174 145.608 368.192C144.298 366.517 143.351 365.307 143.351 362.581C143.351 359.854 144.298 358.645 145.608 356.97C147.158 354.988 149.087 352.525 149.087 347.919C149.087 343.312 147.158 340.849 145.608 338.867C144.298 337.191 143.351 335.982 143.351 333.256C143.351 330.532 144.298 329.321 145.608 327.646C147.158 325.667 149.087 323.201 149.087 318.596C149.087 313.99 147.158 311.443 145.608 309.463C144.318 307.815 143.379 306.523 143.351 303.896V303.843C143.379 301.216 144.318 299.925 145.608 298.277C147.158 296.296 149.087 293.749 149.087 289.145C149.087 284.539 147.158 282.072 145.608 280.093C144.298 278.418 143.351 277.207 143.351 274.483C143.351 271.758 144.298 270.548 145.608 268.872C147.158 266.891 149.087 264.427 149.087 259.82C149.087 258.616 148.955 257.558 148.732 256.617L148.764 22.1746H172.738Z" fill="#CCCCCC"/>
<path d="M172.738 22.1746V488.582V491.087V616.952H146.615C147.884 615.187 149.087 612.921 149.087 609.223V609.208C149.087 604.525 147.158 602.139 145.608 600.157C144.298 598.483 143.351 597.272 143.351 594.547C143.351 591.82 144.298 590.611 145.608 588.935C147.158 586.954 149.087 584.49 149.087 579.884C149.087 575.277 147.158 572.814 145.608 570.832C144.298 569.157 143.351 567.948 143.351 565.222C143.351 562.498 144.298 561.287 145.608 559.612C147.158 557.633 149.087 555.166 149.087 550.561C149.087 545.955 147.158 543.408 145.608 541.428C144.318 539.78 143.379 538.488 143.351 535.861V535.809C143.379 533.182 144.318 531.891 145.608 530.242C147.158 528.262 149.087 525.715 149.087 521.11C149.087 516.504 147.158 514.038 145.608 512.058C144.298 510.383 143.351 509.172 143.351 506.448C143.351 503.724 144.298 502.513 145.608 500.838C150.719 494.304 149.981 491.219 145.608 485.628C144.298 483.954 143.351 482.743 143.351 480.019C143.351 477.294 144.298 476.083 145.608 474.408C147.158 472.428 149.087 469.962 149.087 465.356C149.087 460.752 147.158 458.204 145.608 456.224C144.318 454.576 143.379 453.284 143.351 450.657V450.605C143.379 447.978 144.318 446.687 145.608 445.039C147.158 443.058 149.087 440.51 149.087 435.905C149.087 431.3 147.158 428.834 145.608 426.854C144.298 425.18 143.351 423.969 143.351 421.245C143.351 418.519 144.298 417.31 145.608 415.634C147.158 413.653 149.087 411.189 149.087 406.583C149.087 401.976 147.158 399.512 145.608 397.531C144.298 395.856 143.351 394.646 143.351 391.92C143.351 389.194 144.298 387.984 145.608 386.31C147.158 384.327 149.087 381.942 149.087 377.258V377.243C149.087 372.559 147.158 370.174 145.608 368.192C144.298 366.517 143.351 365.307 143.351 362.581C143.351 359.854 144.298 358.645 145.608 356.97C147.158 354.988 149.087 352.525 149.087 347.919C149.087 343.312 147.158 340.849 145.608 338.867C144.298 337.191 143.351 335.982 143.351 333.256C143.351 330.532 144.298 329.321 145.608 327.646C147.158 325.667 149.087 323.201 149.087 318.596C149.087 313.99 147.158 311.443 145.608 309.463C144.318 307.815 143.379 306.523 143.351 303.896V303.843C143.379 301.216 144.318 299.925 145.608 298.277C147.158 296.296 149.087 293.749 149.087 289.145C149.087 284.539 147.158 282.072 145.608 280.093C144.298 278.418 143.351 277.207 143.351 274.483C143.351 271.758 144.298 270.548 145.608 268.872C147.158 266.891 149.087 264.427 149.087 259.821C149.087 258.616 148.955 257.558 148.732 256.617L148.764 22.1746H172.738Z" stroke="#757EB3" stroke-miterlimit="22.9256"/>
<path fill-rule="evenodd" clip-rule="evenodd" d="M138.966 91.1738H148.762V22.1738H138.966V91.1738Z" fill="#00963F"/>
<path d="M138.966 91.1738H148.762V22.1738H138.966V91.1738Z" stroke="#757EB3" stroke-miterlimit="22.9256"/>
<path fill-rule="evenodd" clip-rule="evenodd" d="M138.966 231.258H148.762V255.233H138.966V231.258Z" fill="#E3000F"/>
<path d="M138.966 231.258H148.762V255.233H138.966V231.258Z" stroke="#757EB3" stroke-miterlimit="22.9256"/>
<path fill-rule="evenodd" clip-rule="evenodd" d="M172.738 561.576H182.534V21.949H172.738V561.576Z" fill="#FFEC08"/>
<path d="M172.738 561.576H182.534V21.949H172.738V561.576Z" stroke="#757EB3" stroke-miterlimit="22.9256"/>
<path fill-rule="evenodd" clip-rule="evenodd" d="M172.738 561.576H182.534V616.952H172.738V561.576Z" fill="#00963F"/>
<path d="M172.738 561.576H182.534V616.952H172.738V561.576Z" stroke="#757EB3" stroke-miterlimit="22.9256"/>
<path fill-rule="evenodd" clip-rule="evenodd" d="M138.966 231.259H148.762V90.2029H138.966V231.259Z" fill="#FFEC08"/>
<path d="M138.966 231.259H148.762V90.2029H138.966V231.259Z" stroke="#757EB3" stroke-miterlimit="22.9256"/>
<path fill-rule="evenodd" clip-rule="evenodd" d="M102.387 22.1738V91.1738H75.7375C77.1785 89.2918 78.7365 86.8808 78.7365 82.7412C78.7365 78.1361 76.8077 75.5885 75.2575 73.6084C73.9674 71.9609 73.0289 70.6686 73 68.0414V67.9895C73.0289 65.3623 73.9674 64.0713 75.2575 62.4224C76.8077 60.4423 78.7365 57.8952 78.7365 53.2904C78.7365 48.6843 76.8077 46.2178 75.2575 44.2386C73.9477 42.5639 73 41.3527 73 38.6285C73 35.9037 73.9477 34.6929 75.2575 33.0181C76.8077 31.0364 78.7365 28.5731 78.7365 23.9666C78.7365 23.3292 78.6997 22.7333 78.6321 22.1738H102.387Z" fill="#CCCCCC"/>
<path d="M102.387 22.1738V91.1738H75.7375C77.1785 89.2918 78.7365 86.8808 78.7365 82.7412C78.7365 78.1361 76.8077 75.5885 75.2575 73.6084C73.9674 71.9609 73.0289 70.6686 73 68.0414V67.9895C73.0289 65.3623 73.9674 64.0713 75.2575 62.4224C76.8077 60.4423 78.7365 57.8952 78.7365 53.2904C78.7365 48.6843 76.8077 46.2178 75.2575 44.2386C73.9477 42.5639 73 41.3527 73 38.6285C73 35.9037 73.9477 34.6929 75.2575 33.018C76.8077 31.0364 78.7365 28.5731 78.7365 23.9666C78.7365 23.3292 78.6997 22.7333 78.6321 22.1738H102.387Z" stroke="#757EB3" stroke-miterlimit="22.9256"/>
<path fill-rule="evenodd" clip-rule="evenodd" d="M102.896 91.1738H112.691V22.1738H102.896V91.1738Z" fill="#E3000F"/>
<path d="M102.896 91.1738H112.691V22.1738H102.896V91.1738Z" stroke="#757EB3" stroke-miterlimit="22.9256"/>
<path fill-rule="evenodd" clip-rule="evenodd" d="M310.726 22.1741V255.233H334.83C335.493 252.794 336.768 251.165 337.855 249.775C339.165 248.099 340.113 246.889 340.113 244.165C340.113 241.44 339.165 240.23 337.855 238.554C336.305 236.575 334.376 234.108 334.376 229.502C334.376 224.898 336.305 222.351 337.855 220.37C339.145 218.722 340.084 217.431 340.113 214.803V214.751C340.084 212.125 339.145 210.833 337.855 209.185C336.305 207.204 334.376 204.656 334.376 200.052C334.376 195.446 336.305 192.98 337.855 191.001C339.165 189.325 340.113 188.115 340.113 185.391C340.113 182.665 339.165 181.455 337.855 179.781C336.305 177.799 334.376 175.336 334.376 170.729C334.376 166.123 336.305 163.659 337.855 161.677C339.165 160.002 340.113 158.792 340.113 156.066C340.113 153.34 339.165 152.129 337.855 150.456C336.305 148.473 334.376 146.088 334.376 141.404V141.389C334.376 136.706 336.305 134.32 337.855 132.338C339.165 130.664 340.113 129.453 340.113 126.728C340.113 124.001 339.165 122.791 337.855 121.116C336.305 119.135 334.376 116.671 334.376 112.065C334.376 107.458 336.305 104.995 337.855 103.013C339.165 101.337 340.113 100.128 340.113 97.4026C340.113 94.6783 339.165 93.4672 337.855 91.7926C337.731 91.6345 337.604 91.4727 337.477 91.307L340.798 22.1741H310.726Z" fill="#CCCCCC"/>
<path d="M310.726 22.1741V255.233H334.83C335.493 252.794 336.768 251.165 337.855 249.775C339.165 248.099 340.113 246.889 340.113 244.165C340.113 241.44 339.165 240.23 337.855 238.554C336.305 236.575 334.376 234.108 334.376 229.502C334.376 224.898 336.305 222.351 337.855 220.37C339.145 218.722 340.084 217.431 340.113 214.803V214.751C340.084 212.125 339.145 210.833 337.855 209.185C336.305 207.204 334.376 204.656 334.376 200.052C334.376 195.446 336.305 192.98 337.855 191.001C339.165 189.325 340.113 188.115 340.113 185.391C340.113 182.665 339.165 181.455 337.855 179.781C336.305 177.799 334.376 175.336 334.376 170.729C334.376 166.123 336.305 163.659 337.855 161.677C339.165 160.002 340.113 158.792 340.113 156.066C340.113 153.34 339.165 152.129 337.855 150.456C336.305 148.473 334.376 146.088 334.376 141.404V141.389C334.376 136.706 336.305 134.32 337.855 132.338C339.165 130.664 340.113 129.453 340.113 126.728C340.113 124.001 339.165 122.791 337.855 121.116C336.305 119.135 334.376 116.671 334.376 112.065C334.376 107.458 336.305 104.995 337.855 103.013C339.165 101.337 340.113 100.128 340.113 97.4026C340.113 94.6783 339.165 93.4672 337.855 91.7926C337.731 91.6345 337.604 91.4727 337.477 91.307L340.798 22.1741H310.726Z" stroke="#757EB3" stroke-miterlimit="22.9256"/>
<path fill-rule="evenodd" clip-rule="evenodd" d="M276.904 22.1746V488.582V491.087V616.952H303.027C301.757 615.187 300.555 612.921 300.555 609.223V609.208C300.555 604.525 302.484 602.139 304.034 600.157C305.344 598.483 306.292 597.272 306.292 594.547C306.292 591.82 305.344 590.611 304.034 588.935C302.484 586.954 300.555 584.49 300.555 579.884C300.555 575.277 302.484 572.814 304.034 570.832C305.344 569.157 306.292 567.948 306.292 565.222C306.292 562.498 305.344 561.287 304.034 559.612C302.484 557.633 300.555 555.166 300.555 550.561C300.555 545.955 302.484 543.408 304.034 541.428C305.324 539.78 306.263 538.488 306.292 535.861V535.809C306.263 533.182 305.324 531.891 304.034 530.242C302.484 528.262 300.555 525.715 300.555 521.11C300.555 516.504 302.484 514.038 304.034 512.058C305.344 510.383 306.292 509.172 306.292 506.448C306.292 503.724 305.344 502.513 304.034 500.838C298.923 494.304 299.661 491.219 304.034 485.628C305.344 483.954 306.292 482.743 306.292 480.019C306.292 477.294 305.344 476.083 304.034 474.408C302.484 472.428 300.555 469.962 300.555 465.356C300.555 460.752 302.484 458.204 304.034 456.224C305.324 454.576 306.263 453.284 306.292 450.657V450.605C306.263 447.978 305.324 446.687 304.034 445.039C302.484 443.058 300.555 440.51 300.555 435.905C300.555 431.3 302.484 428.834 304.034 426.854C305.344 425.18 306.292 423.969 306.292 421.245C306.292 418.519 305.344 417.31 304.034 415.634C302.484 413.653 300.555 411.189 300.555 406.583C300.555 401.976 302.484 399.512 304.034 397.531C305.344 395.856 306.292 394.646 306.292 391.92C306.292 389.194 305.344 387.984 304.034 386.31C302.484 384.327 300.555 381.942 300.555 377.258V377.243C300.555 372.559 302.484 370.174 304.034 368.192C305.344 366.517 306.292 365.307 306.292 362.581C306.292 359.854 305.344 358.645 304.034 356.97C302.484 354.988 300.555 352.525 300.555 347.919C300.555 343.312 302.484 340.849 304.034 338.867C305.344 337.191 306.292 335.982 306.292 333.256C306.292 330.532 305.344 329.321 304.034 327.646C302.484 325.667 300.555 323.201 300.555 318.596C300.555 313.99 302.484 311.443 304.034 309.463C305.324 307.815 306.263 306.523 306.292 303.896V303.843C306.263 301.216 305.324 299.925 304.034 298.277C302.484 296.296 300.555 293.749 300.555 289.145C300.555 284.539 302.484 282.072 304.034 280.093C305.344 278.418 306.292 277.207 306.292 274.483C306.292 271.758 305.344 270.548 304.034 268.872C302.484 266.891 300.555 264.427 300.555 259.82C300.555 258.616 300.687 257.558 300.91 256.617L300.878 22.1746H276.904Z" fill="#CCCCCC"/>
<path d="M276.904 22.1746V488.582V491.087V616.952H303.027C301.757 615.187 300.555 612.921 300.555 609.223V609.208C300.555 604.525 302.484 602.139 304.034 600.157C305.344 598.483 306.292 597.272 306.292 594.547C306.292 591.82 305.344 590.611 304.034 588.935C302.484 586.954 300.555 584.49 300.555 579.884C300.555 575.277 302.484 572.814 304.034 570.832C305.344 569.157 306.292 567.948 306.292 565.222C306.292 562.498 305.344 561.287 304.034 559.612C302.484 557.633 300.555 555.166 300.555 550.561C300.555 545.955 302.484 543.408 304.034 541.428C305.324 539.78 306.263 538.488 306.292 535.861V535.809C306.263 533.182 305.324 531.891 304.034 530.242C302.484 528.262 300.555 525.715 300.555 521.11C300.555 516.504 302.484 514.038 304.034 512.058C305.344 510.383 306.292 509.172 306.292 506.448C306.292 503.724 305.344 502.513 304.034 500.838C298.923 494.304 299.661 491.219 304.034 485.628C305.344 483.954 306.292 482.743 306.292 480.019C306.292 477.294 305.344 476.083 304.034 474.408C302.484 472.428 300.555 469.962 300.555 465.356C300.555 460.752 302.484 458.204 304.034 456.224C305.324 454.576 306.263 453.284 306.292 450.657V450.605C306.263 447.978 305.324 446.687 304.034 445.039C302.484 443.058 300.555 440.51 300.555 435.905C300.555 431.3 302.484 428.834 304.034 426.854C305.344 425.18 306.292 423.969 306.292 421.245C306.292 418.519 305.344 417.31 304.034 415.634C302.484 413.653 300.555 411.189 300.555 406.583C300.555 401.976 302.484 399.512 304.034 397.531C305.344 395.856 306.292 394.646 306.292 391.92C306.292 389.194 305.344 387.984 304.034 386.31C302.484 384.327 300.555 381.942 300.555 377.258V377.243C300.555 372.559 302.484 370.174 304.034 368.192C305.344 366.517 306.292 365.307 306.292 362.581C306.292 359.854 305.344 358.645 304.034 356.97C302.484 354.988 300.555 352.525 300.555 347.919C300.555 343.312 302.484 340.849 304.034 338.867C305.344 337.191 306.292 335.982 306.292 333.256C306.292 330.532 305.344 329.321 304.034 327.646C302.484 325.667 300.555 323.201 300.555 318.596C300.555 313.99 302.484 311.443 304.034 309.463C305.324 307.815 306.263 306.523 306.292 303.896V303.843C306.263 301.216 305.324 299.925 304.034 298.277C302.484 296.296 300.555 293.749 300.555 289.145C300.555 284.539 302.484 282.072 304.034 280.093C305.344 278.418 306.292 277.207 306.292 274.483C306.292 271.758 305.344 270.548 304.034 268.872C302.484 266.891 300.555 264.427 300.555 259.821C300.555 258.616 300.687 257.558 300.91 256.617L300.878 22.1746H276.904Z" stroke="#757EB3" stroke-miterlimit="22.9256"/>
<path fill-rule="evenodd" clip-rule="evenodd" d="M310.678 91.1738H300.882V22.1738H310.678V91.1738Z" fill="#00963F"/>
<path d="M310.678 91.1738H300.882V22.1738H310.678V91.1738Z" stroke="#757EB3" stroke-miterlimit="22.9256"/>
<path fill-rule="evenodd" clip-rule="evenodd" d="M310.678 231.258H300.882V255.233H310.678V231.258Z" fill="#E3000F"/>
<path d="M310.678 231.258H300.882V255.233H310.678V231.258Z" stroke="#757EB3" stroke-miterlimit="22.9256"/>
<path fill-rule="evenodd" clip-rule="evenodd" d="M276.904 561.576H267.108V21.949H276.904V561.576Z" fill="#FFEC08"/>
<path d="M276.904 561.576H267.108V21.949H276.904V561.576Z" stroke="#757EB3" stroke-miterlimit="22.9256"/>
<path fill-rule="evenodd" clip-rule="evenodd" d="M276.904 561.576H267.108V616.952H276.904V561.576Z" fill="#00963F"/>
<path d="M276.904 561.576H267.108V616.952H276.904V561.576Z" stroke="#757EB3" stroke-miterlimit="22.9256"/>
<path fill-rule="evenodd" clip-rule="evenodd" d="M310.678 231.259H300.882V90.2029H310.678V231.259Z" fill="#FFEC08"/>
<path d="M310.678 231.259H300.882V90.2029H310.678V231.259Z" stroke="#757EB3" stroke-miterlimit="22.9256"/>
<path fill-rule="evenodd" clip-rule="evenodd" d="M347.255 22.1738V91.1738H373.905C372.464 89.2918 370.906 86.8808 370.906 82.7412C370.906 78.1361 372.835 75.5885 374.385 73.6084C375.675 71.9609 376.613 70.6686 376.642 68.0414V67.9895C376.613 65.3623 375.675 64.0713 374.385 62.4224C372.835 60.4423 370.906 57.8952 370.906 53.2904C370.906 48.6843 372.835 46.2178 374.385 44.2386C375.694 42.5639 376.642 41.3527 376.642 38.6285C376.642 35.9037 375.694 34.6929 374.385 33.0181C372.835 31.0364 370.906 28.5731 370.906 23.9666C370.906 23.3292 370.942 22.7333 371.01 22.1738H347.255Z" fill="#CCCCCC"/>
<path d="M347.255 22.1738V91.1738H373.905C372.464 89.2918 370.906 86.8808 370.906 82.7412C370.906 78.1361 372.835 75.5885 374.385 73.6084C375.675 71.9609 376.613 70.6686 376.642 68.0414V67.9895C376.613 65.3623 375.675 64.0713 374.385 62.4224C372.835 60.4423 370.906 57.8952 370.906 53.2904C370.906 48.6843 372.835 46.2178 374.385 44.2386C375.694 42.5639 376.642 41.3527 376.642 38.6285C376.642 35.9037 375.694 34.6929 374.385 33.018C372.835 31.0364 370.906 28.5731 370.906 23.9666C370.906 23.3292 370.942 22.7333 371.01 22.1738H347.255Z" stroke="#757EB3" stroke-miterlimit="22.9256"/>
<path fill-rule="evenodd" clip-rule="evenodd" d="M346.749 91.1738H336.953V22.1738H346.749V91.1738Z" fill="#E3000F"/>
<path d="M346.749 91.1738H336.953V22.1738H346.749V91.1738Z" stroke="#757EB3" stroke-miterlimit="22.9256"/>
<path d="M75.9756 442L177.636 498.503" stroke="#454D7D" stroke-width="2" stroke-miterlimit="22.9256"/>
<path d="M43.9756 174L145.636 230.503" stroke="#454D7D" stroke-width="2" stroke-miterlimit="22.9256"/>
<path d="M0.975586 1L102.636 57.5033" stroke="#454D7D" stroke-width="2" stroke-miterlimit="22.9256"/>
</svg>
