<svg width="526" height="964" viewBox="0 0 526 964" fill="none" xmlns="http://www.w3.org/2000/svg">
<path d="M418 38.6826H526" stroke="#454D7D" stroke-width="2" stroke-miterlimit="22.9256"/>
<path d="M386 169.683L526 169.683" stroke="#454D7D" stroke-width="2" stroke-miterlimit="22.9256"/>
<path d="M362 510.683L526 510.683" stroke="#454D7D" stroke-width="2" stroke-miterlimit="22.9256"/>
<path d="M313 715.683L526 715.683" stroke="#454D7D" stroke-width="2" stroke-miterlimit="22.9256"/>
<path d="M443.976 23.0068L524.887 1.00008" stroke="#454D7D" stroke-width="2" stroke-miterlimit="22.9256"/>
<path d="M417 116.007L497.911 94.0001" stroke="#454D7D" stroke-width="2" stroke-miterlimit="22.9256"/>
<path d="M380 393.007L460.911 371" stroke="#454D7D" stroke-width="2" stroke-miterlimit="22.9256"/>
<path d="M358 612.007L438.911 590" stroke="#454D7D" stroke-width="2" stroke-miterlimit="22.9256"/>
<path fill-rule="evenodd" clip-rule="evenodd" d="M229.993 464.683V715.683H193.675C193.681 715.522 193.685 715.357 193.685 715.19C193.685 710.538 191.425 708.048 189.611 706.049C188.075 704.356 186.965 703.134 186.965 700.382C186.965 697.63 188.075 696.408 189.611 694.716C191.425 692.714 193.685 690.226 193.685 685.573C193.685 680.92 191.425 678.432 189.611 676.43C188.075 674.739 186.965 673.515 186.965 670.763C186.965 668.01 188.075 666.788 189.611 665.096C191.342 663.185 193.479 660.903 193.671 656.586H193.685V655.953H193.671C193.479 651.636 191.342 649.353 189.611 647.443C188.075 645.751 186.965 644.528 186.965 641.775C186.965 639.023 188.075 637.799 189.611 636.109C191.425 634.107 193.685 631.619 193.685 626.966C193.685 622.313 191.425 619.825 189.611 617.823C188.075 616.131 186.965 614.908 186.965 612.157C186.965 609.404 188.075 608.182 189.611 606.49C191.425 604.491 193.685 602 193.685 597.348C193.685 592.697 191.425 590.124 189.611 588.123C188.099 586.459 186.999 585.154 186.965 582.501V582.449C186.999 579.795 188.099 578.49 189.611 576.826C191.425 574.825 193.685 572.252 193.685 567.6C193.685 562.948 191.425 560.458 189.611 558.459C188.075 556.767 186.965 555.544 186.965 552.792C186.965 550.039 188.075 548.818 189.611 547.126C191.425 545.124 193.685 542.636 193.685 537.983C193.685 533.33 191.425 530.841 189.611 528.84C188.075 527.149 186.965 525.927 186.965 523.173C186.965 520.42 188.075 519.198 189.611 517.506C191.425 515.504 193.685 513.094 193.685 508.363V508.348C193.685 503.618 191.425 501.208 189.611 499.206C188.075 497.515 186.965 496.292 186.965 493.539C186.965 490.785 188.075 489.564 189.611 487.871C191.425 485.87 193.685 483.382 193.685 478.729C193.685 474.076 191.425 471.588 189.611 469.586C188.224 468.059 187.184 466.915 186.995 464.683H229.993Z" fill="#E6E6E6"/>
<path d="M229.993 464.683V715.683H193.675C193.681 715.522 193.685 715.357 193.685 715.19C193.685 710.538 191.425 708.048 189.611 706.049C188.075 704.356 186.965 703.134 186.965 700.382C186.965 697.63 188.075 696.408 189.611 694.716C191.425 692.714 193.685 690.226 193.685 685.573C193.685 680.92 191.425 678.432 189.611 676.43C188.075 674.739 186.965 673.515 186.965 670.763C186.965 668.01 188.075 666.788 189.611 665.096C191.342 663.185 193.479 660.903 193.671 656.586H193.685V655.953H193.671C193.479 651.636 191.342 649.353 189.611 647.443C188.075 645.751 186.965 644.528 186.965 641.775C186.965 639.023 188.075 637.799 189.611 636.109C191.425 634.107 193.685 631.619 193.685 626.966C193.685 622.313 191.425 619.825 189.611 617.823C188.075 616.131 186.965 614.908 186.965 612.157C186.965 609.404 188.075 608.182 189.611 606.49C191.425 604.491 193.685 602 193.685 597.348C193.685 592.697 191.425 590.124 189.611 588.123C188.099 586.459 186.999 585.154 186.965 582.501V582.449C186.999 579.795 188.099 578.49 189.611 576.826C191.425 574.825 193.685 572.252 193.685 567.6C193.685 562.948 191.425 560.458 189.611 558.459C188.075 556.767 186.965 555.544 186.965 552.792C186.965 550.039 188.075 548.818 189.611 547.126C191.425 545.124 193.685 542.636 193.685 537.983C193.685 533.33 191.425 530.841 189.611 528.84C188.075 527.149 186.965 525.927 186.965 523.173C186.965 520.42 188.075 519.198 189.611 517.506C191.425 515.504 193.685 513.094 193.685 508.363V508.348C193.685 503.618 191.425 501.208 189.611 499.206C188.075 497.515 186.965 496.292 186.965 493.539C186.965 490.787 188.075 489.564 189.611 487.871C191.425 485.87 193.685 483.382 193.685 478.729C193.685 474.076 191.425 471.588 189.611 469.586C188.224 468.059 187.184 466.915 186.995 464.683H229.993Z" stroke="#757EB3" stroke-miterlimit="22.9256"/>
<path fill-rule="evenodd" clip-rule="evenodd" d="M229.993 464.683H241V715.683H229.993V464.683Z" fill="#E3000F"/>
<path d="M229.993 464.683H241V715.683H229.993V464.683Z" stroke="#757EB3" stroke-miterlimit="22.9256"/>
<path fill-rule="evenodd" clip-rule="evenodd" d="M218.985 464.683H229.993V474.683H218.985V464.683Z" fill="#272953"/>
<path d="M218.985 464.683H229.993V474.683H218.985V464.683Z" stroke="#757EB3" stroke-miterlimit="22.9256"/>
<path fill-rule="evenodd" clip-rule="evenodd" d="M201.975 464.683H218.986V474.683H201.975V464.683Z" fill="#E6E6E6"/>
<path fill-rule="evenodd" clip-rule="evenodd" d="M201.975 464.683H218.986V474.683H201.975V464.683Z" fill="white"/>
<path d="M201.975 464.683H218.986V474.683H201.975V464.683Z" stroke="#757EB3" stroke-miterlimit="22.9256"/>
<path d="M201.975 464.683L218.986 474.683" stroke="#757EB3" stroke-miterlimit="22.9256"/>
<path d="M201.975 474.683L218.986 464.683" stroke="#757EB3" stroke-miterlimit="22.9256"/>
<path fill-rule="evenodd" clip-rule="evenodd" d="M228.993 704.683V714.683H217.985L228.993 704.683Z" fill="#272953"/>
<path fill-rule="evenodd" clip-rule="evenodd" d="M191.968 458.683H200.974V14.6826H191.968V458.683Z" fill="#FFEC08"/>
<path d="M191.968 458.683H200.974V14.6826H191.968V458.683Z" stroke="#757EB3" stroke-miterlimit="22.9256"/>
<path fill-rule="evenodd" clip-rule="evenodd" d="M191.968 458.683H200.974V509.683H191.968V458.683Z" fill="#00963F"/>
<path d="M191.968 458.683H200.974V509.683H191.968V458.683Z" stroke="#757EB3" stroke-miterlimit="22.9256"/>
<path fill-rule="evenodd" clip-rule="evenodd" d="M191.968 14.6826V81.1982V83.7446V147.496V211.677V379.204V381.75V509.683H167.952C169.119 507.888 170.224 505.586 170.224 501.827V501.812C170.224 497.051 168.451 494.626 167.026 492.612C165.822 490.91 164.95 489.68 164.95 486.909C164.95 484.138 165.822 482.908 167.026 481.205C168.451 479.192 170.224 476.688 170.224 472.006C170.224 467.323 168.451 464.819 167.026 462.805C165.822 461.102 164.95 459.873 164.95 457.103C164.95 454.334 165.822 453.102 167.026 451.4C168.451 449.389 170.224 446.882 170.224 442.201C170.224 437.52 168.451 434.93 167.026 432.918C165.84 431.243 164.977 429.929 164.95 427.259V427.207C164.977 424.536 165.84 423.224 167.026 421.548C168.451 419.535 170.224 416.946 170.224 412.266C170.224 407.584 168.451 405.077 167.026 403.066C165.822 401.364 164.95 400.133 164.95 397.363C164.95 394.594 165.822 393.363 167.026 391.661C171.724 385.02 171.046 381.884 167.026 376.202C165.822 374.499 164.95 373.268 164.95 370.5C164.95 367.73 165.822 366.5 167.026 364.797C168.451 362.785 170.224 360.277 170.224 355.596C170.224 350.917 168.451 348.327 167.026 346.314C165.84 344.639 164.977 343.326 164.95 340.656V340.603C164.977 337.934 165.84 336.62 167.026 334.945C168.451 332.932 170.224 330.342 170.224 325.662C170.224 320.98 168.451 318.474 167.026 316.462C165.822 314.76 164.95 313.529 164.95 310.76C164.95 307.99 165.822 306.76 167.026 305.058C168.451 303.044 170.224 300.54 170.224 295.858C170.224 291.175 168.451 288.671 167.026 286.657C165.822 284.955 164.95 283.725 164.95 280.954C164.95 278.184 165.822 276.953 167.026 275.251C168.451 273.236 170.224 270.812 170.224 266.051V266.036C170.224 261.275 168.451 258.85 167.026 256.836C165.822 255.134 164.95 253.904 164.95 251.133C164.95 248.362 165.822 247.133 167.026 245.43C168.451 243.416 170.224 240.912 170.224 236.23C170.224 231.547 168.451 229.043 167.026 227.029C165.822 225.326 164.95 224.097 164.95 221.327C164.95 218.558 165.822 217.327 167.026 215.624C167.794 214.54 168.662 213.312 169.301 211.677H167.952C168.977 210.101 169.953 208.133 170.176 205.131C169.885 201.251 168.313 198.961 167.026 197.142C165.84 195.467 164.977 194.154 164.95 191.483V191.431C164.955 190.996 164.981 190.598 165.027 190.228C164.976 189.826 164.95 189.389 164.95 188.904C164.95 186.133 165.822 184.903 167.026 183.2C168.319 181.373 169.898 179.142 170.18 175.245C169.898 171.349 168.319 169.115 167.026 167.29C165.822 165.587 164.95 164.356 164.95 161.588C164.95 161.134 164.974 160.723 165.018 160.343C164.974 159.963 164.95 159.55 164.95 159.097C164.95 156.328 165.822 155.098 167.026 153.395C168.095 151.885 169.36 150.097 169.925 147.32L169.898 143.428C170.03 144.045 170.128 144.714 170.18 145.438C170.209 145.041 170.224 144.628 170.224 144.196C170.224 139.514 168.451 136.925 167.026 134.912C165.84 133.237 164.977 131.925 164.95 129.254V129.201C164.977 126.531 165.84 125.219 167.026 123.543C168.451 121.53 170.224 118.941 170.224 114.261C170.224 109.579 168.451 107.072 167.026 105.06C165.822 103.358 164.95 102.127 164.95 99.3578C164.95 96.5884 165.822 95.3577 167.026 93.6552C171.724 87.0143 171.046 83.8785 167.026 78.1963C165.822 76.494 164.95 75.263 164.95 72.4941C164.95 69.7247 165.822 68.4945 167.026 66.7915C168.451 64.7799 170.224 62.272 170.224 57.5909C170.224 52.9114 168.451 50.3217 167.026 48.3085C165.84 46.6337 164.977 45.3208 164.95 42.6505V42.5977C164.977 39.9279 165.84 38.6146 167.026 36.9396C168.451 34.9263 170.224 32.3364 170.224 27.6563C170.224 22.9749 168.451 20.4687 167.026 18.4571C166.143 17.2093 165.44 16.2146 165.126 14.6826H191.968Z" fill="#CCCCCC"/>
<path d="M191.968 14.6826V81.5712V84.1155V147.812V211.937V379.317V381.861V509.683H167.952C169.119 507.89 170.224 505.589 170.224 501.834V501.819C170.224 497.062 168.451 494.64 167.026 492.627C165.822 490.927 164.95 489.697 164.95 486.929C164.95 484.16 165.822 482.932 167.026 481.23C168.451 479.218 170.224 476.716 170.224 472.039C170.224 467.36 168.451 464.858 167.026 462.846C165.822 461.144 164.95 459.916 164.95 457.148C164.95 454.382 165.822 453.152 167.026 451.451C168.451 449.441 170.224 446.937 170.224 442.26C170.224 437.583 168.451 434.996 167.026 432.985C165.84 431.311 164.977 429.999 164.95 427.331V427.278C164.977 424.61 165.84 423.299 167.026 421.625C168.451 419.614 170.224 417.026 170.224 412.351C170.224 407.673 168.451 405.169 167.026 403.158C165.822 401.458 164.95 400.228 164.95 397.461C164.95 394.694 165.822 393.464 167.026 391.763C171.724 385.129 171.046 381.995 167.026 376.318C165.822 374.617 164.95 373.387 164.95 370.621C164.95 367.854 165.822 366.625 167.026 364.923C168.451 362.913 170.224 360.407 170.224 355.731C170.224 351.055 168.451 348.467 167.026 346.456C165.84 344.783 164.977 343.471 164.95 340.803V340.75C164.977 338.083 165.84 336.771 167.026 335.097C168.451 333.086 170.224 330.498 170.224 325.822C170.224 321.145 168.451 318.641 167.026 316.63C165.822 314.93 164.95 313.7 164.95 310.933C164.95 308.165 165.822 306.937 167.026 305.236C168.451 303.224 170.224 300.722 170.224 296.044C170.224 291.366 168.451 288.863 167.026 286.851C165.822 285.15 164.95 283.921 164.95 281.153C164.95 278.385 165.822 277.155 167.026 275.455C168.451 273.442 170.224 271.02 170.224 266.263V266.248C170.224 261.492 168.451 259.069 167.026 257.056C165.822 255.356 164.95 254.127 164.95 251.358C164.95 248.59 165.822 247.361 167.026 245.66C168.451 243.648 170.224 241.146 170.224 236.468C170.224 231.789 168.451 229.288 167.026 227.275C165.822 225.574 164.95 224.346 164.95 221.578C164.95 218.811 165.822 217.582 167.026 215.88C167.794 214.797 168.662 213.57 169.301 211.937H167.952C168.977 210.362 169.953 208.396 170.176 205.396C169.885 201.52 168.313 199.231 167.026 197.414C165.84 195.741 164.977 194.428 164.95 191.76V191.708C164.955 191.274 164.981 190.875 165.027 190.506C164.976 190.105 164.95 189.667 164.95 189.183C164.95 186.414 165.822 185.186 167.026 183.484C168.319 181.658 169.898 179.429 170.18 175.536C169.898 171.643 168.319 169.412 167.026 167.588C165.822 165.887 164.95 164.657 164.95 161.891C164.95 161.438 164.974 161.026 165.018 160.647C164.974 160.267 164.95 159.855 164.95 159.402C164.95 156.636 165.822 155.406 167.026 153.705C168.095 152.196 169.36 150.41 169.925 147.635L169.898 143.747C170.03 144.364 170.128 145.031 170.18 145.755C170.209 145.359 170.224 144.946 170.224 144.514C170.224 139.837 168.451 137.25 167.026 135.239C165.84 133.565 164.977 132.253 164.95 129.585V129.532C164.977 126.864 165.84 125.553 167.026 123.879C168.451 121.868 170.224 119.281 170.224 114.605C170.224 109.927 168.451 107.422 167.026 105.412C165.822 103.712 164.95 102.482 164.95 99.7151C164.95 96.9481 165.822 95.7184 167.026 94.0174C171.724 87.3823 171.046 84.2492 167.026 78.572C165.822 76.8712 164.95 75.6413 164.95 72.8748C164.95 70.1078 165.822 68.8786 167.026 67.1771C168.451 65.1672 170.224 62.6616 170.224 57.9846C170.224 53.3091 168.451 50.7216 167.026 48.7102C165.84 47.0369 164.977 45.7251 164.95 43.0571V43.0044C164.977 40.3369 165.84 39.0247 167.026 37.3513C168.451 35.3396 170.224 32.752 170.224 28.076C170.224 23.3987 168.451 20.8946 167.026 18.8848C166.143 17.6381 165.44 16.2133 165.126 14.6826H191.968Z" stroke="#757EB3" stroke-miterlimit="22.9256"/>
<path fill-rule="evenodd" clip-rule="evenodd" d="M160.948 14.6826V168.683H138.49C137.873 166.787 136.685 165.521 135.672 164.441C134.452 163.139 133.569 162.198 133.569 160.082C133.569 157.965 134.452 157.024 135.672 155.722C137.116 154.184 138.913 152.267 138.913 148.688C138.913 145.111 137.116 143.131 135.672 141.592C134.47 140.311 133.595 139.308 133.569 137.266V137.226C133.595 135.185 134.47 134.182 135.672 132.901C137.116 131.362 138.913 129.381 138.913 125.804C138.913 122.225 137.116 120.309 135.672 118.771C134.452 117.469 133.569 116.528 133.569 114.411C133.569 112.293 134.452 111.354 135.672 110.052C137.116 108.512 138.913 106.598 138.913 103.019C138.913 99.439 137.116 97.5244 135.672 95.9848C134.452 94.6833 133.569 93.7429 133.569 91.6245C133.569 89.5069 134.452 88.5658 135.672 87.2652C137.116 85.7245 138.913 83.8715 138.913 80.2314V80.22C138.913 76.5806 137.116 74.7272 135.672 73.1869C134.452 71.8859 133.569 70.9452 133.569 68.8269C133.569 66.7084 134.452 65.7686 135.672 64.4667C137.116 62.9273 138.913 61.0128 138.913 57.4336C138.913 53.8538 137.116 51.9394 135.672 50.3998C134.452 49.0979 133.569 48.1581 133.569 46.0402C133.569 43.9234 134.452 42.9826 135.672 41.6809C135.787 41.5581 135.905 41.4324 136.024 41.3036L132.93 14.6826H160.948Z" fill="#CCCCCC"/>
<path d="M160.948 14.6826V168.683H138.49C137.873 166.787 136.685 165.521 135.672 164.441C134.452 163.139 133.569 162.198 133.569 160.082C133.569 157.965 134.452 157.024 135.672 155.722C137.116 154.184 138.913 152.267 138.913 148.688C138.913 145.111 137.116 143.131 135.672 141.592C134.47 140.311 133.595 139.308 133.569 137.266V137.226C133.595 135.185 134.47 134.182 135.672 132.901C137.116 131.362 138.913 129.381 138.913 125.804C138.913 122.225 137.116 120.309 135.672 118.771C134.452 117.469 133.569 116.528 133.569 114.411C133.569 112.293 134.452 111.354 135.672 110.052C137.116 108.512 138.913 106.598 138.913 103.019C138.913 99.439 137.116 97.5244 135.672 95.9848C134.452 94.6833 133.569 93.7429 133.569 91.6245C133.569 89.5069 134.452 88.5658 135.672 87.2652C137.116 85.7245 138.913 83.8715 138.913 80.2314V80.22C138.913 76.5806 137.116 74.7272 135.672 73.1869C134.452 71.8859 133.569 70.9452 133.569 68.8269C133.569 66.7084 134.452 65.7686 135.672 64.4667C137.116 62.9273 138.913 61.0128 138.913 57.4336C138.913 53.8538 137.116 51.9394 135.672 50.3998C134.452 49.0979 133.569 48.1581 133.569 46.0402C133.569 43.9234 134.452 42.9826 135.672 41.6809C135.787 41.5581 135.905 41.4324 136.024 41.3036L132.93 14.6826H160.948Z" stroke="#757EB3" stroke-miterlimit="22.9256"/>
<path fill-rule="evenodd" clip-rule="evenodd" d="M160.948 37.6826H169.954V14.6826H160.948V37.6826Z" fill="#00963F"/>
<path d="M160.95 37.6826H169.954L169.952 14.6826H160.948L160.95 37.6826Z" stroke="#757EB3" stroke-miterlimit="22.9256"/>
<path fill-rule="evenodd" clip-rule="evenodd" d="M160.948 148.683H169.954V168.683H160.948V148.683Z" fill="#E3000F"/>
<path d="M160.948 148.683H169.954V168.683H160.948V148.683Z" stroke="#757EB3" stroke-miterlimit="22.9256"/>
<path fill-rule="evenodd" clip-rule="evenodd" d="M160.948 148.683H169.954V37.6826H160.948V148.683Z" fill="#FFEC08"/>
<path d="M160.948 148.683H169.954V37.6826H160.948V148.683Z" stroke="#757EB3" stroke-miterlimit="22.9256"/>
<path d="M126.687 36.9727L105.794 36.9725C105.623 33.7643 103.821 31.9752 102.453 30.6163L102.441 30.6045C101.825 29.9916 101.351 29.516 101.018 28.9648C100.697 28.4345 100.5 27.8171 100.5 26.9218C100.5 26.0262 100.698 25.4086 101.018 24.8783C101.351 24.3272 101.825 23.8517 102.441 23.239L126.687 36.9727ZM126.687 36.9727V14.6826H105.774C105.796 14.9372 105.807 15.2004 105.807 15.4728C105.807 18.9649 103.933 21.7555 102.441 23.2389L126.687 36.9727Z" fill="#CCCCCC" stroke="#757EB3"/>
<path fill-rule="evenodd" clip-rule="evenodd" d="M126.926 36.6826H136.932V14.6826H126.926V36.6826Z" fill="#E3000F"/>
<path d="M126.926 37.1826H136.932V14.6826H126.926V37.1826Z" stroke="#757EB3" stroke-miterlimit="22.9256"/>
<path fill-rule="evenodd" clip-rule="evenodd" d="M324.007 464.683V715.683H360.325C360.319 715.522 360.315 715.357 360.315 715.19C360.315 710.538 362.575 708.048 364.389 706.049C365.925 704.356 367.035 703.134 367.035 700.382C367.035 697.63 365.925 696.408 364.389 694.716C362.575 692.714 360.315 690.226 360.315 685.573C360.315 680.92 362.575 678.432 364.389 676.43C365.925 674.739 367.035 673.515 367.035 670.763C367.035 668.01 365.925 666.788 364.389 665.096C362.658 663.185 360.521 660.903 360.329 656.586H360.315V655.953H360.329C360.521 651.636 362.658 649.353 364.389 647.443C365.925 645.751 367.035 644.528 367.035 641.775C367.035 639.023 365.925 637.799 364.389 636.109C362.575 634.107 360.315 631.619 360.315 626.966C360.315 622.313 362.575 619.825 364.389 617.823C365.925 616.131 367.035 614.908 367.035 612.157C367.035 609.404 365.925 608.182 364.389 606.49C362.575 604.491 360.315 602 360.315 597.348C360.315 592.697 362.575 590.124 364.389 588.123C365.901 586.459 367.001 585.154 367.035 582.501V582.449C367.001 579.795 365.901 578.49 364.389 576.826C362.575 574.825 360.315 572.252 360.315 567.6C360.315 562.948 362.575 560.458 364.389 558.459C365.925 556.767 367.035 555.544 367.035 552.792C367.035 550.039 365.925 548.818 364.389 547.126C362.575 545.124 360.315 542.636 360.315 537.983C360.315 533.33 362.575 530.841 364.389 528.84C365.925 527.149 367.035 525.927 367.035 523.173C367.035 520.42 365.925 519.198 364.389 517.506C362.575 515.504 360.315 513.094 360.315 508.363V508.348C360.315 503.618 362.575 501.208 364.389 499.206C365.925 497.515 367.035 496.292 367.035 493.539C367.035 490.785 365.925 489.564 364.389 487.871C362.575 485.87 360.315 483.382 360.315 478.729C360.315 474.076 362.575 471.588 364.389 469.586C365.776 468.059 366.816 466.915 367.005 464.683H324.007Z" fill="#E6E6E6"/>
<path d="M324.007 464.683V715.683H360.325C360.319 715.522 360.315 715.357 360.315 715.19C360.315 710.538 362.575 708.048 364.389 706.049C365.925 704.356 367.035 703.134 367.035 700.382C367.035 697.63 365.925 696.408 364.389 694.716C362.575 692.714 360.315 690.226 360.315 685.573C360.315 680.92 362.575 678.432 364.389 676.43C365.925 674.739 367.035 673.515 367.035 670.763C367.035 668.01 365.925 666.788 364.389 665.096C362.658 663.185 360.521 660.903 360.329 656.586H360.315V655.953H360.329C360.521 651.636 362.658 649.353 364.389 647.443C365.925 645.751 367.035 644.528 367.035 641.775C367.035 639.023 365.925 637.799 364.389 636.109C362.575 634.107 360.315 631.619 360.315 626.966C360.315 622.313 362.575 619.825 364.389 617.823C365.925 616.131 367.035 614.908 367.035 612.157C367.035 609.404 365.925 608.182 364.389 606.49C362.575 604.491 360.315 602 360.315 597.348C360.315 592.697 362.575 590.124 364.389 588.123C365.901 586.459 367.001 585.154 367.035 582.501V582.449C367.001 579.795 365.901 578.49 364.389 576.826C362.575 574.825 360.315 572.252 360.315 567.6C360.315 562.948 362.575 560.458 364.389 558.459C365.925 556.767 367.035 555.544 367.035 552.792C367.035 550.039 365.925 548.818 364.389 547.126C362.575 545.124 360.315 542.636 360.315 537.983C360.315 533.33 362.575 530.841 364.389 528.84C365.925 527.149 367.035 525.927 367.035 523.173C367.035 520.42 365.925 519.198 364.389 517.506C362.575 515.504 360.315 513.094 360.315 508.363V508.348C360.315 503.618 362.575 501.208 364.389 499.206C365.925 497.515 367.035 496.292 367.035 493.539C367.035 490.787 365.925 489.564 364.389 487.871C362.575 485.87 360.315 483.382 360.315 478.729C360.315 474.076 362.575 471.588 364.389 469.586C365.776 468.059 366.816 466.915 367.005 464.683H324.007Z" stroke="#757EB3" stroke-miterlimit="22.9256"/>
<path fill-rule="evenodd" clip-rule="evenodd" d="M324.007 464.683H313V715.683H324.007V464.683Z" fill="#E3000F"/>
<path d="M324.007 464.683H313V715.683H324.007V464.683Z" stroke="#757EB3" stroke-miterlimit="22.9256"/>
<path fill-rule="evenodd" clip-rule="evenodd" d="M335.014 464.683H324.007V474.683H335.014V464.683Z" fill="#272953"/>
<path d="M335.014 464.683H324.007V474.683H335.014V464.683Z" stroke="#757EB3" stroke-miterlimit="22.9256"/>
<path fill-rule="evenodd" clip-rule="evenodd" d="M352.025 464.683H335.014V474.683H352.025V464.683Z" fill="#E6E6E6"/>
<path fill-rule="evenodd" clip-rule="evenodd" d="M352.025 464.683H335.014V474.683H352.025V464.683Z" fill="white"/>
<path d="M352.025 464.683H335.014V474.683H352.025V464.683Z" stroke="#757EB3" stroke-miterlimit="22.9256"/>
<path d="M352.025 464.683L335.014 474.683" stroke="#757EB3" stroke-miterlimit="22.9256"/>
<path d="M352.025 474.683L335.014 464.683" stroke="#757EB3" stroke-miterlimit="22.9256"/>
<path fill-rule="evenodd" clip-rule="evenodd" d="M325.007 704.683V714.683H336.015L325.007 704.683Z" fill="#272953"/>
<path fill-rule="evenodd" clip-rule="evenodd" d="M362.032 458.683H353.026V14.6826H362.032V458.683Z" fill="#FFEC08"/>
<path d="M362.032 458.683H353.026V14.6826H362.032V458.683Z" stroke="#757EB3" stroke-miterlimit="22.9256"/>
<path fill-rule="evenodd" clip-rule="evenodd" d="M362.032 458.683H353.026V509.683H362.032V458.683Z" fill="#00963F"/>
<path d="M362.032 458.683H353.026V509.683H362.032V458.683Z" stroke="#757EB3" stroke-miterlimit="22.9256"/>
<path fill-rule="evenodd" clip-rule="evenodd" d="M362.032 14.6826V81.1982V83.7446V147.496V211.677V379.204V381.75V509.683H386.048C384.881 507.888 383.776 505.586 383.776 501.827V501.812C383.776 497.051 385.549 494.626 386.974 492.612C388.178 490.91 389.05 489.68 389.05 486.909C389.05 484.138 388.178 482.908 386.974 481.205C385.549 479.192 383.776 476.688 383.776 472.006C383.776 467.323 385.549 464.819 386.974 462.805C388.178 461.102 389.05 459.873 389.05 457.103C389.05 454.334 388.178 453.102 386.974 451.4C385.549 449.389 383.776 446.882 383.776 442.201C383.776 437.52 385.549 434.93 386.974 432.918C388.16 431.243 389.023 429.929 389.05 427.259V427.207C389.023 424.536 388.16 423.224 386.974 421.548C385.549 419.535 383.776 416.946 383.776 412.266C383.776 407.584 385.549 405.077 386.974 403.066C388.178 401.364 389.05 400.133 389.05 397.363C389.05 394.594 388.178 393.363 386.974 391.661C382.276 385.02 382.954 381.884 386.974 376.202C388.178 374.499 389.05 373.268 389.05 370.5C389.05 367.73 388.178 366.5 386.974 364.797C385.549 362.785 383.776 360.277 383.776 355.596C383.776 350.917 385.549 348.327 386.974 346.314C388.16 344.639 389.023 343.326 389.05 340.656V340.603C389.023 337.934 388.16 336.62 386.974 334.945C385.549 332.932 383.776 330.342 383.776 325.662C383.776 320.98 385.549 318.474 386.974 316.462C388.178 314.76 389.05 313.529 389.05 310.76C389.05 307.99 388.178 306.76 386.974 305.058C385.549 303.044 383.776 300.54 383.776 295.858C383.776 291.175 385.549 288.671 386.974 286.657C388.178 284.955 389.05 283.725 389.05 280.954C389.05 278.184 388.178 276.953 386.974 275.251C385.549 273.236 383.776 270.812 383.776 266.051V266.036C383.776 261.275 385.549 258.85 386.974 256.836C388.178 255.134 389.05 253.904 389.05 251.133C389.05 248.362 388.178 247.133 386.974 245.43C385.549 243.416 383.776 240.912 383.776 236.23C383.776 231.547 385.549 229.043 386.974 227.029C388.178 225.326 389.05 224.097 389.05 221.327C389.05 218.558 388.178 217.327 386.974 215.624C386.206 214.54 385.338 213.312 384.699 211.677H386.048C385.023 210.101 384.047 208.133 383.824 205.131C384.115 201.251 385.687 198.961 386.974 197.142C388.16 195.467 389.023 194.154 389.05 191.483V191.431C389.045 190.996 389.019 190.598 388.973 190.228C389.024 189.826 389.05 189.389 389.05 188.904C389.05 186.133 388.178 184.903 386.974 183.2C385.681 181.373 384.102 179.142 383.82 175.245C384.102 171.349 385.681 169.115 386.974 167.29C388.178 165.587 389.05 164.356 389.05 161.588C389.05 161.134 389.026 160.723 388.982 160.343C389.026 159.963 389.05 159.55 389.05 159.097C389.05 156.328 388.178 155.098 386.974 153.395C385.905 151.885 384.64 150.097 384.075 147.32L384.102 143.428C383.97 144.045 383.872 144.714 383.82 145.438C383.791 145.041 383.776 144.628 383.776 144.196C383.776 139.514 385.549 136.925 386.974 134.912C388.16 133.237 389.023 131.925 389.05 129.254V129.201C389.023 126.531 388.16 125.219 386.974 123.543C385.549 121.53 383.776 118.941 383.776 114.261C383.776 109.579 385.549 107.072 386.974 105.06C388.178 103.358 389.05 102.127 389.05 99.3578C389.05 96.5884 388.178 95.3577 386.974 93.6552C382.276 87.0143 382.954 83.8785 386.974 78.1963C388.178 76.494 389.05 75.263 389.05 72.4941C389.05 69.7247 388.178 68.4945 386.974 66.7915C385.549 64.7799 383.776 62.272 383.776 57.5909C383.776 52.9114 385.549 50.3217 386.974 48.3085C388.16 46.6337 389.023 45.3208 389.05 42.6505V42.5977C389.023 39.9279 388.16 38.6146 386.974 36.9396C385.549 34.9263 383.776 32.3364 383.776 27.6563C383.776 22.9749 385.549 20.4687 386.974 18.4571C387.857 17.2093 388.56 16.2146 388.874 14.6826H362.032Z" fill="#CCCCCC"/>
<path d="M362.032 14.6826V81.5712V84.1155V147.812V211.937V379.317V381.861V509.683H386.048C384.881 507.89 383.776 505.589 383.776 501.834V501.819C383.776 497.062 385.549 494.64 386.974 492.627C388.178 490.927 389.05 489.697 389.05 486.929C389.05 484.16 388.178 482.932 386.974 481.23C385.549 479.218 383.776 476.716 383.776 472.039C383.776 467.36 385.549 464.858 386.974 462.846C388.178 461.144 389.05 459.916 389.05 457.148C389.05 454.382 388.178 453.152 386.974 451.451C385.549 449.441 383.776 446.937 383.776 442.26C383.776 437.583 385.549 434.996 386.974 432.985C388.16 431.311 389.023 429.999 389.05 427.331V427.278C389.023 424.61 388.16 423.299 386.974 421.625C385.549 419.614 383.776 417.026 383.776 412.351C383.776 407.673 385.549 405.169 386.974 403.158C388.178 401.458 389.05 400.228 389.05 397.461C389.05 394.694 388.178 393.464 386.974 391.763C382.276 385.129 382.954 381.995 386.974 376.318C388.178 374.617 389.05 373.387 389.05 370.621C389.05 367.854 388.178 366.625 386.974 364.923C385.549 362.913 383.776 360.407 383.776 355.731C383.776 351.055 385.549 348.467 386.974 346.456C388.16 344.783 389.023 343.471 389.05 340.803V340.75C389.023 338.083 388.16 336.771 386.974 335.097C385.549 333.086 383.776 330.498 383.776 325.822C383.776 321.145 385.549 318.641 386.974 316.63C388.178 314.93 389.05 313.7 389.05 310.933C389.05 308.165 388.178 306.937 386.974 305.236C385.549 303.224 383.776 300.722 383.776 296.044C383.776 291.366 385.549 288.863 386.974 286.851C388.178 285.15 389.05 283.921 389.05 281.153C389.05 278.385 388.178 277.155 386.974 275.455C385.549 273.442 383.776 271.02 383.776 266.263V266.248C383.776 261.492 385.549 259.069 386.974 257.056C388.178 255.356 389.05 254.127 389.05 251.358C389.05 248.59 388.178 247.361 386.974 245.66C385.549 243.648 383.776 241.146 383.776 236.468C383.776 231.789 385.549 229.288 386.974 227.275C388.178 225.574 389.05 224.346 389.05 221.578C389.05 218.811 388.178 217.582 386.974 215.88C386.206 214.797 385.338 213.57 384.699 211.937H386.048C385.023 210.362 384.047 208.396 383.824 205.396C384.115 201.52 385.687 199.231 386.974 197.414C388.16 195.741 389.023 194.428 389.05 191.76V191.708C389.045 191.274 389.019 190.875 388.973 190.506C389.024 190.105 389.05 189.667 389.05 189.183C389.05 186.414 388.178 185.186 386.974 183.484C385.681 181.658 384.102 179.429 383.82 175.536C384.102 171.643 385.681 169.412 386.974 167.588C388.178 165.887 389.05 164.657 389.05 161.891C389.05 161.438 389.026 161.026 388.982 160.647C389.026 160.267 389.05 159.855 389.05 159.402C389.05 156.636 388.178 155.406 386.974 153.705C385.905 152.196 384.64 150.41 384.075 147.635L384.102 143.747C383.97 144.364 383.872 145.031 383.82 145.755C383.791 145.359 383.776 144.946 383.776 144.514C383.776 139.837 385.549 137.25 386.974 135.239C388.16 133.565 389.023 132.253 389.05 129.585V129.532C389.023 126.864 388.16 125.553 386.974 123.879C385.549 121.868 383.776 119.281 383.776 114.605C383.776 109.927 385.549 107.422 386.974 105.412C388.178 103.712 389.05 102.482 389.05 99.7151C389.05 96.9481 388.178 95.7184 386.974 94.0174C382.276 87.3823 382.954 84.2492 386.974 78.572C388.178 76.8712 389.05 75.6413 389.05 72.8748C389.05 70.1078 388.178 68.8786 386.974 67.1771C385.549 65.1672 383.776 62.6616 383.776 57.9846C383.776 53.3091 385.549 50.7216 386.974 48.7102C388.16 47.0369 389.023 45.7251 389.05 43.0571V43.0044C389.023 40.3369 388.16 39.0247 386.974 37.3513C385.549 35.3396 383.776 32.752 383.776 28.076C383.776 23.3987 385.549 20.8946 386.974 18.8848C387.857 17.6381 388.56 16.2133 388.874 14.6826H362.032Z" stroke="#757EB3" stroke-miterlimit="22.9256"/>
<path fill-rule="evenodd" clip-rule="evenodd" d="M393.052 14.6826V168.683H415.51C416.127 166.787 417.315 165.521 418.328 164.441C419.548 163.139 420.431 162.198 420.431 160.082C420.431 157.965 419.548 157.024 418.328 155.722C416.884 154.184 415.087 152.267 415.087 148.688C415.087 145.111 416.884 143.131 418.328 141.592C419.53 140.311 420.405 139.308 420.431 137.266V137.226C420.405 135.185 419.53 134.182 418.328 132.901C416.884 131.362 415.087 129.381 415.087 125.804C415.087 122.225 416.884 120.309 418.328 118.771C419.548 117.469 420.431 116.528 420.431 114.411C420.431 112.293 419.548 111.354 418.328 110.052C416.884 108.512 415.087 106.598 415.087 103.019C415.087 99.439 416.884 97.5244 418.328 95.9848C419.548 94.6833 420.431 93.7429 420.431 91.6245C420.431 89.5069 419.548 88.5658 418.328 87.2652C416.884 85.7245 415.087 83.8715 415.087 80.2314V80.22C415.087 76.5806 416.884 74.7272 418.328 73.1869C419.548 71.8859 420.431 70.9452 420.431 68.8269C420.431 66.7084 419.548 65.7686 418.328 64.4667C416.884 62.9273 415.087 61.0128 415.087 57.4336C415.087 53.8538 416.884 51.9394 418.328 50.3998C419.548 49.0979 420.431 48.1581 420.431 46.0402C420.431 43.9234 419.548 42.9826 418.328 41.6809C418.213 41.5581 418.095 41.4324 417.976 41.3036L421.07 14.6826H393.052Z" fill="#CCCCCC"/>
<path d="M393.052 14.6826V168.683H415.51C416.127 166.787 417.315 165.521 418.328 164.441C419.548 163.139 420.431 162.198 420.431 160.082C420.431 157.965 419.548 157.024 418.328 155.722C416.884 154.184 415.087 152.267 415.087 148.688C415.087 145.111 416.884 143.131 418.328 141.592C419.53 140.311 420.405 139.308 420.431 137.266V137.226C420.405 135.185 419.53 134.182 418.328 132.901C416.884 131.362 415.087 129.381 415.087 125.804C415.087 122.225 416.884 120.309 418.328 118.771C419.548 117.469 420.431 116.528 420.431 114.411C420.431 112.293 419.548 111.354 418.328 110.052C416.884 108.512 415.087 106.598 415.087 103.019C415.087 99.439 416.884 97.5244 418.328 95.9848C419.548 94.6833 420.431 93.7429 420.431 91.6245C420.431 89.5069 419.548 88.5658 418.328 87.2652C416.884 85.7245 415.087 83.8715 415.087 80.2314V80.22C415.087 76.5806 416.884 74.7272 418.328 73.1869C419.548 71.8859 420.431 70.9452 420.431 68.8269C420.431 66.7084 419.548 65.7686 418.328 64.4667C416.884 62.9273 415.087 61.0128 415.087 57.4336C415.087 53.8538 416.884 51.9394 418.328 50.3998C419.548 49.0979 420.431 48.1581 420.431 46.0402C420.431 43.9234 419.548 42.9826 418.328 41.6809C418.213 41.5581 418.095 41.4324 417.976 41.3036L421.07 14.6826H393.052Z" stroke="#757EB3" stroke-miterlimit="22.9256"/>
<path fill-rule="evenodd" clip-rule="evenodd" d="M393.053 37.6826H384.047V14.6826H393.053V37.6826Z" fill="#00963F"/>
<path d="M393.051 37.6826H384.047L384.049 14.6826H393.053L393.051 37.6826Z" stroke="#757EB3" stroke-miterlimit="22.9256"/>
<path fill-rule="evenodd" clip-rule="evenodd" d="M393.053 148.683H384.047V168.683H393.053V148.683Z" fill="#E3000F"/>
<path d="M393.053 148.683H384.047V168.683H393.053V148.683Z" stroke="#757EB3" stroke-miterlimit="22.9256"/>
<path fill-rule="evenodd" clip-rule="evenodd" d="M393.053 148.683H384.047V37.6826H393.053V148.683Z" fill="#FFEC08"/>
<path d="M393.053 148.683H384.047V37.6826H393.053V148.683Z" stroke="#757EB3" stroke-miterlimit="22.9256"/>
<path d="M427.313 36.9727L448.206 36.9725C448.377 33.7643 450.179 31.9752 451.547 30.6163L451.559 30.6045C452.175 29.9916 452.649 29.516 452.982 28.9648C453.303 28.4345 453.5 27.8171 453.5 26.9218C453.5 26.0262 453.302 25.4086 452.982 24.8783C452.649 24.3272 452.175 23.8517 451.559 23.239L427.313 36.9727ZM427.313 36.9727V14.6826H448.226C448.204 14.9372 448.193 15.2004 448.193 15.4728C448.193 18.9649 450.067 21.7555 451.559 23.2389L427.313 36.9727Z" fill="#CCCCCC" stroke="#757EB3"/>
<path fill-rule="evenodd" clip-rule="evenodd" d="M427.074 36.6826H417.068V14.6826H427.074V36.6826Z" fill="#E3000F"/>
<path d="M427.074 37.1826H417.068V14.6826H427.074V37.1826Z" stroke="#757EB3" stroke-miterlimit="22.9256"/>
<path d="M230.064 567.683L103.976 532" stroke="#454D7D" stroke-width="2" stroke-miterlimit="22.9256"/>
<path d="M192.064 388.683L65.9755 353" stroke="#454D7D" stroke-width="2" stroke-miterlimit="22.9256"/>
<path d="M161.064 148.683L34.9755 113" stroke="#454D7D" stroke-width="2" stroke-miterlimit="22.9256"/>
<path d="M127.064 37.6826L0.975508 2.00008" stroke="#454D7D" stroke-width="2" stroke-miterlimit="22.9256"/>
<mask id="path-71-outside-1_1029_14229" maskUnits="userSpaceOnUse" x="284" y="714.683" width="37" height="249" fill="black">
<rect fill="white" x="284" y="714.683" width="37" height="249"/>
<path d="M285.55 961.933H314.073L314.071 961.688C314.07 958.683 314.534 956.372 315.183 954.488C315.83 952.61 316.656 951.173 317.391 949.894C318.586 947.812 319.45 946.308 319.45 942.956C319.45 939.604 318.586 938.1 317.392 936.021L317.389 936.015C315.908 933.437 314.07 930.231 314.07 924.226C314.07 918.221 315.908 915.016 317.386 912.44L317.391 912.433C317.995 911.381 318.517 910.473 318.879 909.424C319.238 908.384 319.45 907.176 319.45 905.496C319.45 902.143 318.586 900.639 317.392 898.56L317.317 898.429C315.951 896.05 314.311 893.192 314.095 887.938H314.07V886.389H314.095C314.311 881.136 315.951 878.278 317.317 875.898L317.405 875.745C318.593 873.677 319.45 872.171 319.45 868.832C319.45 867.152 319.238 865.943 318.879 864.903C318.517 863.856 317.997 862.95 317.394 861.901L317.386 861.887C315.908 859.311 314.07 856.107 314.07 850.101C314.07 844.095 315.909 840.891 317.387 838.315L317.397 838.298C318.588 836.223 319.45 834.719 319.45 831.371C319.45 828.02 318.586 826.516 317.392 824.437C316.656 823.155 315.83 821.717 315.183 819.839C314.534 817.955 314.07 815.644 314.07 812.641C314.07 809.64 314.533 807.304 315.182 805.395C315.828 803.494 316.655 802.026 317.391 800.745C317.984 799.713 318.496 798.793 318.86 797.73C319.22 796.682 319.438 795.479 319.451 793.864L319.45 793.797C319.438 792.182 319.22 790.978 318.861 789.93C318.496 788.868 317.984 787.947 317.391 786.915C316.655 785.634 315.828 784.167 315.182 782.266C314.533 780.357 314.07 778.02 314.07 775.018C314.07 769.087 315.864 765.885 317.332 763.329L317.391 763.226C318.586 761.144 319.45 759.64 319.45 756.288C319.45 752.936 318.587 751.433 317.393 749.356L317.386 749.344C315.908 746.769 314.07 743.563 314.07 737.558C314.07 731.553 315.908 728.348 317.386 725.772L317.392 725.764C318.586 723.686 319.45 722.182 319.45 718.828C319.45 718.3 319.429 717.82 319.39 717.379C319.36 717.047 319.319 716.734 319.269 716.439L319.17 715.683L319.693 715.69L319.749 715.968C319.829 716.376 319.893 716.814 319.936 717.288C319.977 717.764 320 718.274 320 718.828C320 722.436 319.086 724.026 317.823 726.224L317.809 726.25C316.384 728.731 314.62 731.82 314.62 737.558C314.62 743.31 316.393 746.401 317.818 748.884L317.825 748.896C319.087 751.093 320 752.682 320 756.288C320 759.839 319.114 761.435 317.882 763.582L317.823 763.686C316.396 766.168 314.62 769.261 314.62 775.018C314.62 777.898 315.062 780.132 315.68 781.953C316.302 783.781 317.107 785.208 317.823 786.456C318.44 787.529 318.973 788.489 319.359 789.615C319.748 790.756 319.985 792.057 319.999 793.794L320 793.864C319.985 795.604 319.748 796.905 319.358 798.045C318.973 799.172 318.439 800.131 317.823 801.204C317.107 802.452 316.302 803.879 315.68 805.707C315.062 807.528 314.62 809.762 314.62 812.641C314.62 815.522 315.062 817.73 315.679 819.524C316.299 821.323 317.106 822.726 317.823 823.974C319.087 826.176 320 827.765 320 831.371C320 834.978 319.086 836.568 317.824 838.766L317.812 838.786C316.388 841.268 314.62 844.357 314.62 850.101C314.62 855.848 316.39 858.938 317.815 861.421L317.823 861.435C318.447 862.522 318.986 863.459 319.375 864.588C319.767 865.725 320 867.033 320 868.832C320 872.441 319.086 874.031 317.824 876.229L317.749 876.358C316.401 878.705 314.777 881.535 314.63 886.777C314.622 887.06 314.622 887.267 314.63 887.551C314.777 892.793 316.401 895.623 317.749 897.97L317.823 898.098C319.087 900.299 320 901.889 320 905.496C320 907.295 319.767 908.603 319.375 909.74C318.986 910.868 318.447 911.806 317.823 912.893L317.818 912.9C316.393 915.383 314.62 918.474 314.62 924.226C314.62 929.964 316.384 933.054 317.808 935.534L317.824 935.561C319.086 937.759 320 939.349 320 942.956C320 946.562 319.087 948.152 317.824 950.351C317.106 951.602 316.299 953.005 315.679 954.804C315.061 956.598 314.62 958.805 314.62 961.685L314.633 962.683H285V962.308V961.933H285.55Z"/>
</mask>
<path d="M285.55 961.933H314.073L314.071 961.688C314.07 958.683 314.534 956.372 315.183 954.488C315.83 952.61 316.656 951.173 317.391 949.894C318.586 947.812 319.45 946.308 319.45 942.956C319.45 939.604 318.586 938.1 317.392 936.021L317.389 936.015C315.908 933.437 314.07 930.231 314.07 924.226C314.07 918.221 315.908 915.016 317.386 912.44L317.391 912.433C317.995 911.381 318.517 910.473 318.879 909.424C319.238 908.384 319.45 907.176 319.45 905.496C319.45 902.143 318.586 900.639 317.392 898.56L317.317 898.429C315.951 896.05 314.311 893.192 314.095 887.938H314.07V886.389H314.095C314.311 881.136 315.951 878.278 317.317 875.898L317.405 875.745C318.593 873.677 319.45 872.171 319.45 868.832C319.45 867.152 319.238 865.943 318.879 864.903C318.517 863.856 317.997 862.95 317.394 861.901L317.386 861.887C315.908 859.311 314.07 856.107 314.07 850.101C314.07 844.095 315.909 840.891 317.387 838.315L317.397 838.298C318.588 836.223 319.45 834.719 319.45 831.371C319.45 828.02 318.586 826.516 317.392 824.437C316.656 823.155 315.83 821.717 315.183 819.839C314.534 817.955 314.07 815.644 314.07 812.641C314.07 809.64 314.533 807.304 315.182 805.395C315.828 803.494 316.655 802.026 317.391 800.745C317.984 799.713 318.496 798.793 318.86 797.73C319.22 796.682 319.438 795.479 319.451 793.864L319.45 793.797C319.438 792.182 319.22 790.978 318.861 789.93C318.496 788.868 317.984 787.947 317.391 786.915C316.655 785.634 315.828 784.167 315.182 782.266C314.533 780.357 314.07 778.02 314.07 775.018C314.07 769.087 315.864 765.885 317.332 763.329L317.391 763.226C318.586 761.144 319.45 759.64 319.45 756.288C319.45 752.936 318.587 751.433 317.393 749.356L317.386 749.344C315.908 746.769 314.07 743.563 314.07 737.558C314.07 731.553 315.908 728.348 317.386 725.772L317.392 725.764C318.586 723.686 319.45 722.182 319.45 718.828C319.45 718.3 319.429 717.82 319.39 717.379C319.36 717.047 319.319 716.734 319.269 716.439L319.17 715.683L319.693 715.69L319.749 715.968C319.829 716.376 319.893 716.814 319.936 717.288C319.977 717.764 320 718.274 320 718.828C320 722.436 319.086 724.026 317.823 726.224L317.809 726.25C316.384 728.731 314.62 731.82 314.62 737.558C314.62 743.31 316.393 746.401 317.818 748.884L317.825 748.896C319.087 751.093 320 752.682 320 756.288C320 759.839 319.114 761.435 317.882 763.582L317.823 763.686C316.396 766.168 314.62 769.261 314.62 775.018C314.62 777.898 315.062 780.132 315.68 781.953C316.302 783.781 317.107 785.208 317.823 786.456C318.44 787.529 318.973 788.489 319.359 789.615C319.748 790.756 319.985 792.057 319.999 793.794L320 793.864C319.985 795.604 319.748 796.905 319.358 798.045C318.973 799.172 318.439 800.131 317.823 801.204C317.107 802.452 316.302 803.879 315.68 805.707C315.062 807.528 314.62 809.762 314.62 812.641C314.62 815.522 315.062 817.73 315.679 819.524C316.299 821.323 317.106 822.726 317.823 823.974C319.087 826.176 320 827.765 320 831.371C320 834.978 319.086 836.568 317.824 838.766L317.812 838.786C316.388 841.268 314.62 844.357 314.62 850.101C314.62 855.848 316.39 858.938 317.815 861.421L317.823 861.435C318.447 862.522 318.986 863.459 319.375 864.588C319.767 865.725 320 867.033 320 868.832C320 872.441 319.086 874.031 317.824 876.229L317.749 876.358C316.401 878.705 314.777 881.535 314.63 886.777C314.622 887.06 314.622 887.267 314.63 887.551C314.777 892.793 316.401 895.623 317.749 897.97L317.823 898.098C319.087 900.299 320 901.889 320 905.496C320 907.295 319.767 908.603 319.375 909.74C318.986 910.868 318.447 911.806 317.823 912.893L317.818 912.9C316.393 915.383 314.62 918.474 314.62 924.226C314.62 929.964 316.384 933.054 317.808 935.534L317.824 935.561C319.086 937.759 320 939.349 320 942.956C320 946.562 319.087 948.152 317.824 950.351C317.106 951.602 316.299 953.005 315.679 954.804C315.061 956.598 314.62 958.805 314.62 961.685L314.633 962.683H285V962.308V961.933H285.55Z" fill="#FBA409"/>
<path d="M285.55 961.933H314.073L314.071 961.688C314.07 958.683 314.534 956.372 315.183 954.488C315.83 952.61 316.656 951.173 317.391 949.894C318.586 947.812 319.45 946.308 319.45 942.956C319.45 939.604 318.586 938.1 317.392 936.021L317.389 936.015C315.908 933.437 314.07 930.231 314.07 924.226C314.07 918.221 315.908 915.016 317.386 912.44L317.391 912.433C317.995 911.381 318.517 910.473 318.879 909.424C319.238 908.384 319.45 907.176 319.45 905.496C319.45 902.143 318.586 900.639 317.392 898.56L317.317 898.429C315.951 896.05 314.311 893.192 314.095 887.938H314.07V886.389H314.095C314.311 881.136 315.951 878.278 317.317 875.898L317.405 875.745C318.593 873.677 319.45 872.171 319.45 868.832C319.45 867.152 319.238 865.943 318.879 864.903C318.517 863.856 317.997 862.95 317.394 861.901L317.386 861.887C315.908 859.311 314.07 856.107 314.07 850.101C314.07 844.095 315.909 840.891 317.387 838.315L317.397 838.298C318.588 836.223 319.45 834.719 319.45 831.371C319.45 828.02 318.586 826.516 317.392 824.437C316.656 823.155 315.83 821.717 315.183 819.839C314.534 817.955 314.07 815.644 314.07 812.641C314.07 809.64 314.533 807.304 315.182 805.395C315.828 803.494 316.655 802.026 317.391 800.745C317.984 799.713 318.496 798.793 318.86 797.73C319.22 796.682 319.438 795.479 319.451 793.864L319.45 793.797C319.438 792.182 319.22 790.978 318.861 789.93C318.496 788.868 317.984 787.947 317.391 786.915C316.655 785.634 315.828 784.167 315.182 782.266C314.533 780.357 314.07 778.02 314.07 775.018C314.07 769.087 315.864 765.885 317.332 763.329L317.391 763.226C318.586 761.144 319.45 759.64 319.45 756.288C319.45 752.936 318.587 751.433 317.393 749.356L317.386 749.344C315.908 746.769 314.07 743.563 314.07 737.558C314.07 731.553 315.908 728.348 317.386 725.772L317.392 725.764C318.586 723.686 319.45 722.182 319.45 718.828C319.45 718.3 319.429 717.82 319.39 717.379C319.36 717.047 319.319 716.734 319.269 716.439L319.17 715.683L319.693 715.69L319.749 715.968C319.829 716.376 319.893 716.814 319.936 717.288C319.977 717.764 320 718.274 320 718.828C320 722.436 319.086 724.026 317.823 726.224L317.809 726.25C316.384 728.731 314.62 731.82 314.62 737.558C314.62 743.31 316.393 746.401 317.818 748.884L317.825 748.896C319.087 751.093 320 752.682 320 756.288C320 759.839 319.114 761.435 317.882 763.582L317.823 763.686C316.396 766.168 314.62 769.261 314.62 775.018C314.62 777.898 315.062 780.132 315.68 781.953C316.302 783.781 317.107 785.208 317.823 786.456C318.44 787.529 318.973 788.489 319.359 789.615C319.748 790.756 319.985 792.057 319.999 793.794L320 793.864C319.985 795.604 319.748 796.905 319.358 798.045C318.973 799.172 318.439 800.131 317.823 801.204C317.107 802.452 316.302 803.879 315.68 805.707C315.062 807.528 314.62 809.762 314.62 812.641C314.62 815.522 315.062 817.73 315.679 819.524C316.299 821.323 317.106 822.726 317.823 823.974C319.087 826.176 320 827.765 320 831.371C320 834.978 319.086 836.568 317.824 838.766L317.812 838.786C316.388 841.268 314.62 844.357 314.62 850.101C314.62 855.848 316.39 858.938 317.815 861.421L317.823 861.435C318.447 862.522 318.986 863.459 319.375 864.588C319.767 865.725 320 867.033 320 868.832C320 872.441 319.086 874.031 317.824 876.229L317.749 876.358C316.401 878.705 314.777 881.535 314.63 886.777C314.622 887.06 314.622 887.267 314.63 887.551C314.777 892.793 316.401 895.623 317.749 897.97L317.823 898.098C319.087 900.299 320 901.889 320 905.496C320 907.295 319.767 908.603 319.375 909.74C318.986 910.868 318.447 911.806 317.823 912.893L317.818 912.9C316.393 915.383 314.62 918.474 314.62 924.226C314.62 929.964 316.384 933.054 317.808 935.534L317.824 935.561C319.086 937.759 320 939.349 320 942.956C320 946.562 319.087 948.152 317.824 950.351C317.106 951.602 316.299 953.005 315.679 954.804C315.061 956.598 314.62 958.805 314.62 961.685L314.633 962.683H285V962.308V961.933H285.55Z" stroke="#FBA409" mask="url(#path-71-outside-1_1029_14229)"/>
<mask id="path-72-outside-2_1029_14229" maskUnits="userSpaceOnUse" x="234" y="714.683" width="37" height="249" fill="black">
<rect fill="white" x="234" y="714.683" width="37" height="249"/>
<path d="M269.45 961.933H240.927L240.929 961.688C240.93 958.683 240.466 956.372 239.817 954.488C239.17 952.61 238.344 951.173 237.609 949.894C236.414 947.812 235.55 946.308 235.55 942.956C235.55 939.604 236.414 938.1 237.608 936.021L237.611 936.015C239.092 933.437 240.93 930.231 240.93 924.226C240.93 918.221 239.092 915.016 237.614 912.44L237.609 912.433C237.005 911.381 236.483 910.473 236.121 909.424C235.762 908.384 235.55 907.176 235.55 905.496C235.55 902.143 236.414 900.639 237.608 898.56L237.683 898.429C239.049 896.05 240.689 893.192 240.905 887.938H240.93V886.389H240.905C240.689 881.136 239.049 878.278 237.683 875.898L237.595 875.745C236.407 873.677 235.55 872.171 235.55 868.832C235.55 867.152 235.762 865.943 236.121 864.903C236.483 863.856 237.003 862.95 237.606 861.901L237.614 861.887C239.092 859.311 240.93 856.107 240.93 850.101C240.93 844.095 239.091 840.891 237.613 838.315L237.603 838.298C236.412 836.223 235.55 834.719 235.55 831.371C235.55 828.02 236.414 826.516 237.608 824.437C238.344 823.155 239.17 821.717 239.817 819.839C240.466 817.955 240.93 815.644 240.93 812.641C240.93 809.64 240.467 807.304 239.818 805.395C239.172 803.494 238.345 802.026 237.609 800.745C237.016 799.713 236.504 798.793 236.14 797.73C235.78 796.682 235.562 795.479 235.549 793.864L235.55 793.797C235.562 792.182 235.78 790.978 236.139 789.93C236.504 788.868 237.016 787.947 237.609 786.915C238.345 785.634 239.172 784.167 239.818 782.266C240.467 780.357 240.93 778.02 240.93 775.018C240.93 769.087 239.136 765.885 237.668 763.329L237.609 763.226C236.414 761.144 235.55 759.64 235.55 756.288C235.55 752.936 236.413 751.433 237.607 749.356L237.614 749.344C239.092 746.769 240.93 743.563 240.93 737.558C240.93 731.553 239.092 728.348 237.614 725.772L237.608 725.764C236.414 723.686 235.55 722.182 235.55 718.828C235.55 718.3 235.571 717.82 235.61 717.379C235.64 717.047 235.681 716.734 235.731 716.439L235.83 715.683L235.307 715.69L235.251 715.968C235.171 716.376 235.107 716.814 235.064 717.288C235.023 717.764 235 718.274 235 718.828C235 722.436 235.914 724.026 237.177 726.224L237.191 726.25C238.616 728.731 240.38 731.82 240.38 737.558C240.38 743.31 238.607 746.401 237.182 748.884L237.175 748.896C235.913 751.093 235 752.682 235 756.288C235 759.839 235.886 761.435 237.118 763.582L237.177 763.686C238.603 766.168 240.38 769.261 240.38 775.018C240.38 777.898 239.938 780.132 239.32 781.953C238.698 783.781 237.893 785.208 237.177 786.456C236.56 787.529 236.027 788.489 235.641 789.615C235.252 790.756 235.015 792.057 235.001 793.794L235 793.864C235.015 795.604 235.252 796.905 235.642 798.045C236.027 799.172 236.561 800.131 237.177 801.204C237.893 802.452 238.698 803.879 239.32 805.707C239.938 807.528 240.38 809.762 240.38 812.641C240.38 815.522 239.938 817.73 239.321 819.524C238.701 821.323 237.894 822.726 237.177 823.974C235.913 826.176 235 827.765 235 831.371C235 834.978 235.914 836.568 237.176 838.766L237.188 838.786C238.612 841.268 240.38 844.357 240.38 850.101C240.38 855.848 238.61 858.938 237.185 861.421L237.177 861.435C236.553 862.522 236.014 863.459 235.625 864.588C235.233 865.725 235 867.033 235 868.832C235 872.441 235.914 874.031 237.176 876.229L237.251 876.358C238.599 878.705 240.223 881.535 240.37 886.777C240.378 887.06 240.378 887.267 240.37 887.551C240.223 892.793 238.599 895.623 237.251 897.97L237.177 898.098C235.913 900.299 235 901.889 235 905.496C235 907.295 235.233 908.603 235.625 909.74C236.014 910.868 236.553 911.806 237.177 912.893L237.182 912.9C238.607 915.383 240.38 918.474 240.38 924.226C240.38 929.964 238.616 933.054 237.192 935.534L237.176 935.561C235.914 937.759 235 939.349 235 942.956C235 946.562 235.913 948.152 237.176 950.351C237.894 951.602 238.701 953.005 239.321 954.804C239.939 956.598 240.38 958.805 240.38 961.685L240.367 962.683H270V962.308V961.933H269.45Z"/>
</mask>
<path d="M269.45 961.933H240.927L240.929 961.688C240.93 958.683 240.466 956.372 239.817 954.488C239.17 952.61 238.344 951.173 237.609 949.894C236.414 947.812 235.55 946.308 235.55 942.956C235.55 939.604 236.414 938.1 237.608 936.021L237.611 936.015C239.092 933.437 240.93 930.231 240.93 924.226C240.93 918.221 239.092 915.016 237.614 912.44L237.609 912.433C237.005 911.381 236.483 910.473 236.121 909.424C235.762 908.384 235.55 907.176 235.55 905.496C235.55 902.143 236.414 900.639 237.608 898.56L237.683 898.429C239.049 896.05 240.689 893.192 240.905 887.938H240.93V886.389H240.905C240.689 881.136 239.049 878.278 237.683 875.898L237.595 875.745C236.407 873.677 235.55 872.171 235.55 868.832C235.55 867.152 235.762 865.943 236.121 864.903C236.483 863.856 237.003 862.95 237.606 861.901L237.614 861.887C239.092 859.311 240.93 856.107 240.93 850.101C240.93 844.095 239.091 840.891 237.613 838.315L237.603 838.298C236.412 836.223 235.55 834.719 235.55 831.371C235.55 828.02 236.414 826.516 237.608 824.437C238.344 823.155 239.17 821.717 239.817 819.839C240.466 817.955 240.93 815.644 240.93 812.641C240.93 809.64 240.467 807.304 239.818 805.395C239.172 803.494 238.345 802.026 237.609 800.745C237.016 799.713 236.504 798.793 236.14 797.73C235.78 796.682 235.562 795.479 235.549 793.864L235.55 793.797C235.562 792.182 235.78 790.978 236.139 789.93C236.504 788.868 237.016 787.947 237.609 786.915C238.345 785.634 239.172 784.167 239.818 782.266C240.467 780.357 240.93 778.02 240.93 775.018C240.93 769.087 239.136 765.885 237.668 763.329L237.609 763.226C236.414 761.144 235.55 759.64 235.55 756.288C235.55 752.936 236.413 751.433 237.607 749.356L237.614 749.344C239.092 746.769 240.93 743.563 240.93 737.558C240.93 731.553 239.092 728.348 237.614 725.772L237.608 725.764C236.414 723.686 235.55 722.182 235.55 718.828C235.55 718.3 235.571 717.82 235.61 717.379C235.64 717.047 235.681 716.734 235.731 716.439L235.83 715.683L235.307 715.69L235.251 715.968C235.171 716.376 235.107 716.814 235.064 717.288C235.023 717.764 235 718.274 235 718.828C235 722.436 235.914 724.026 237.177 726.224L237.191 726.25C238.616 728.731 240.38 731.82 240.38 737.558C240.38 743.31 238.607 746.401 237.182 748.884L237.175 748.896C235.913 751.093 235 752.682 235 756.288C235 759.839 235.886 761.435 237.118 763.582L237.177 763.686C238.603 766.168 240.38 769.261 240.38 775.018C240.38 777.898 239.938 780.132 239.32 781.953C238.698 783.781 237.893 785.208 237.177 786.456C236.56 787.529 236.027 788.489 235.641 789.615C235.252 790.756 235.015 792.057 235.001 793.794L235 793.864C235.015 795.604 235.252 796.905 235.642 798.045C236.027 799.172 236.561 800.131 237.177 801.204C237.893 802.452 238.698 803.879 239.32 805.707C239.938 807.528 240.38 809.762 240.38 812.641C240.38 815.522 239.938 817.73 239.321 819.524C238.701 821.323 237.894 822.726 237.177 823.974C235.913 826.176 235 827.765 235 831.371C235 834.978 235.914 836.568 237.176 838.766L237.188 838.786C238.612 841.268 240.38 844.357 240.38 850.101C240.38 855.848 238.61 858.938 237.185 861.421L237.177 861.435C236.553 862.522 236.014 863.459 235.625 864.588C235.233 865.725 235 867.033 235 868.832C235 872.441 235.914 874.031 237.176 876.229L237.251 876.358C238.599 878.705 240.223 881.535 240.37 886.777C240.378 887.06 240.378 887.267 240.37 887.551C240.223 892.793 238.599 895.623 237.251 897.97L237.177 898.098C235.913 900.299 235 901.889 235 905.496C235 907.295 235.233 908.603 235.625 909.74C236.014 910.868 236.553 911.806 237.177 912.893L237.182 912.9C238.607 915.383 240.38 918.474 240.38 924.226C240.38 929.964 238.616 933.054 237.192 935.534L237.176 935.561C235.914 937.759 235 939.349 235 942.956C235 946.562 235.913 948.152 237.176 950.351C237.894 951.602 238.701 953.005 239.321 954.804C239.939 956.598 240.38 958.805 240.38 961.685L240.367 962.683H270V962.308V961.933H269.45Z" fill="#FBA409"/>
<path d="M269.45 961.933H240.927L240.929 961.688C240.93 958.683 240.466 956.372 239.817 954.488C239.17 952.61 238.344 951.173 237.609 949.894C236.414 947.812 235.55 946.308 235.55 942.956C235.55 939.604 236.414 938.1 237.608 936.021L237.611 936.015C239.092 933.437 240.93 930.231 240.93 924.226C240.93 918.221 239.092 915.016 237.614 912.44L237.609 912.433C237.005 911.381 236.483 910.473 236.121 909.424C235.762 908.384 235.55 907.176 235.55 905.496C235.55 902.143 236.414 900.639 237.608 898.56L237.683 898.429C239.049 896.05 240.689 893.192 240.905 887.938H240.93V886.389H240.905C240.689 881.136 239.049 878.278 237.683 875.898L237.595 875.745C236.407 873.677 235.55 872.171 235.55 868.832C235.55 867.152 235.762 865.943 236.121 864.903C236.483 863.856 237.003 862.95 237.606 861.901L237.614 861.887C239.092 859.311 240.93 856.107 240.93 850.101C240.93 844.095 239.091 840.891 237.613 838.315L237.603 838.298C236.412 836.223 235.55 834.719 235.55 831.371C235.55 828.02 236.414 826.516 237.608 824.437C238.344 823.155 239.17 821.717 239.817 819.839C240.466 817.955 240.93 815.644 240.93 812.641C240.93 809.64 240.467 807.304 239.818 805.395C239.172 803.494 238.345 802.026 237.609 800.745C237.016 799.713 236.504 798.793 236.14 797.73C235.78 796.682 235.562 795.479 235.549 793.864L235.55 793.797C235.562 792.182 235.78 790.978 236.139 789.93C236.504 788.868 237.016 787.947 237.609 786.915C238.345 785.634 239.172 784.167 239.818 782.266C240.467 780.357 240.93 778.02 240.93 775.018C240.93 769.087 239.136 765.885 237.668 763.329L237.609 763.226C236.414 761.144 235.55 759.64 235.55 756.288C235.55 752.936 236.413 751.433 237.607 749.356L237.614 749.344C239.092 746.769 240.93 743.563 240.93 737.558C240.93 731.553 239.092 728.348 237.614 725.772L237.608 725.764C236.414 723.686 235.55 722.182 235.55 718.828C235.55 718.3 235.571 717.82 235.61 717.379C235.64 717.047 235.681 716.734 235.731 716.439L235.83 715.683L235.307 715.69L235.251 715.968C235.171 716.376 235.107 716.814 235.064 717.288C235.023 717.764 235 718.274 235 718.828C235 722.436 235.914 724.026 237.177 726.224L237.191 726.25C238.616 728.731 240.38 731.82 240.38 737.558C240.38 743.31 238.607 746.401 237.182 748.884L237.175 748.896C235.913 751.093 235 752.682 235 756.288C235 759.839 235.886 761.435 237.118 763.582L237.177 763.686C238.603 766.168 240.38 769.261 240.38 775.018C240.38 777.898 239.938 780.132 239.32 781.953C238.698 783.781 237.893 785.208 237.177 786.456C236.56 787.529 236.027 788.489 235.641 789.615C235.252 790.756 235.015 792.057 235.001 793.794L235 793.864C235.015 795.604 235.252 796.905 235.642 798.045C236.027 799.172 236.561 800.131 237.177 801.204C237.893 802.452 238.698 803.879 239.32 805.707C239.938 807.528 240.38 809.762 240.38 812.641C240.38 815.522 239.938 817.73 239.321 819.524C238.701 821.323 237.894 822.726 237.177 823.974C235.913 826.176 235 827.765 235 831.371C235 834.978 235.914 836.568 237.176 838.766L237.188 838.786C238.612 841.268 240.38 844.357 240.38 850.101C240.38 855.848 238.61 858.938 237.185 861.421L237.177 861.435C236.553 862.522 236.014 863.459 235.625 864.588C235.233 865.725 235 867.033 235 868.832C235 872.441 235.914 874.031 237.176 876.229L237.251 876.358C238.599 878.705 240.223 881.535 240.37 886.777C240.378 887.06 240.378 887.267 240.37 887.551C240.223 892.793 238.599 895.623 237.251 897.97L237.177 898.098C235.913 900.299 235 901.889 235 905.496C235 907.295 235.233 908.603 235.625 909.74C236.014 910.868 236.553 911.806 237.177 912.893L237.182 912.9C238.607 915.383 240.38 918.474 240.38 924.226C240.38 929.964 238.616 933.054 237.192 935.534L237.176 935.561C235.914 937.759 235 939.349 235 942.956C235 946.562 235.913 948.152 237.176 950.351C237.894 951.602 238.701 953.005 239.321 954.804C239.939 956.598 240.38 958.805 240.38 961.685L240.367 962.683H270V962.308V961.933H269.45Z" stroke="#FBA409" mask="url(#path-72-outside-2_1029_14229)"/>
</svg>
