<svg width="526" height="963" viewBox="0 0 526 963" fill="none" xmlns="http://www.w3.org/2000/svg">
<path d="M418 37.6826H526" stroke="#454D7D" stroke-width="2" stroke-miterlimit="22.9256"/>
<path d="M386 168.683L526 168.683" stroke="#454D7D" stroke-width="2" stroke-miterlimit="22.9256"/>
<path d="M362 509.683L526 509.683" stroke="#454D7D" stroke-width="2" stroke-miterlimit="22.9256"/>
<path d="M313 714.683L526 714.683" stroke="#454D7D" stroke-width="2" stroke-miterlimit="22.9256"/>
<path fill-rule="evenodd" clip-rule="evenodd" d="M229.993 463.683V714.683H193.675C193.681 714.522 193.685 714.357 193.685 714.19C193.685 709.538 191.425 707.048 189.611 705.049C188.075 703.356 186.965 702.134 186.965 699.382C186.965 696.63 188.075 695.408 189.611 693.716C191.425 691.714 193.685 689.226 193.685 684.573C193.685 679.92 191.425 677.432 189.611 675.43C188.075 673.739 186.965 672.515 186.965 669.763C186.965 667.01 188.075 665.788 189.611 664.096C191.342 662.185 193.479 659.903 193.671 655.586H193.685V654.953H193.671C193.479 650.636 191.342 648.353 189.611 646.443C188.075 644.751 186.965 643.528 186.965 640.775C186.965 638.023 188.075 636.799 189.611 635.109C191.425 633.107 193.685 630.619 193.685 625.966C193.685 621.313 191.425 618.825 189.611 616.823C188.075 615.131 186.965 613.908 186.965 611.157C186.965 608.404 188.075 607.182 189.611 605.49C191.425 603.491 193.685 601 193.685 596.348C193.685 591.697 191.425 589.124 189.611 587.123C188.099 585.459 186.999 584.154 186.965 581.501V581.449C186.999 578.795 188.099 577.49 189.611 575.826C191.425 573.825 193.685 571.252 193.685 566.6C193.685 561.948 191.425 559.458 189.611 557.459C188.075 555.767 186.965 554.544 186.965 551.792C186.965 549.039 188.075 547.818 189.611 546.126C191.425 544.124 193.685 541.636 193.685 536.983C193.685 532.33 191.425 529.841 189.611 527.84C188.075 526.149 186.965 524.927 186.965 522.173C186.965 519.42 188.075 518.198 189.611 516.506C191.425 514.504 193.685 512.094 193.685 507.363V507.348C193.685 502.618 191.425 500.208 189.611 498.206C188.075 496.515 186.965 495.292 186.965 492.539C186.965 489.785 188.075 488.564 189.611 486.871C191.425 484.87 193.685 482.382 193.685 477.729C193.685 473.076 191.425 470.588 189.611 468.586C188.224 467.059 187.184 465.915 186.995 463.683H229.993Z" fill="#E6E6E6"/>
<path d="M229.993 463.683V714.683H193.675C193.681 714.522 193.685 714.357 193.685 714.19C193.685 709.538 191.425 707.048 189.611 705.049C188.075 703.356 186.965 702.134 186.965 699.382C186.965 696.63 188.075 695.408 189.611 693.716C191.425 691.714 193.685 689.226 193.685 684.573C193.685 679.92 191.425 677.432 189.611 675.43C188.075 673.739 186.965 672.515 186.965 669.763C186.965 667.01 188.075 665.788 189.611 664.096C191.342 662.185 193.479 659.903 193.671 655.586H193.685V654.953H193.671C193.479 650.636 191.342 648.353 189.611 646.443C188.075 644.751 186.965 643.528 186.965 640.775C186.965 638.023 188.075 636.799 189.611 635.109C191.425 633.107 193.685 630.619 193.685 625.966C193.685 621.313 191.425 618.825 189.611 616.823C188.075 615.131 186.965 613.908 186.965 611.157C186.965 608.404 188.075 607.182 189.611 605.49C191.425 603.491 193.685 601 193.685 596.348C193.685 591.697 191.425 589.124 189.611 587.123C188.099 585.459 186.999 584.154 186.965 581.501V581.449C186.999 578.795 188.099 577.49 189.611 575.826C191.425 573.825 193.685 571.252 193.685 566.6C193.685 561.948 191.425 559.458 189.611 557.459C188.075 555.767 186.965 554.544 186.965 551.792C186.965 549.039 188.075 547.818 189.611 546.126C191.425 544.124 193.685 541.636 193.685 536.983C193.685 532.33 191.425 529.841 189.611 527.84C188.075 526.149 186.965 524.927 186.965 522.173C186.965 519.42 188.075 518.198 189.611 516.506C191.425 514.504 193.685 512.094 193.685 507.363V507.348C193.685 502.618 191.425 500.208 189.611 498.206C188.075 496.515 186.965 495.292 186.965 492.539C186.965 489.787 188.075 488.564 189.611 486.871C191.425 484.87 193.685 482.382 193.685 477.729C193.685 473.076 191.425 470.588 189.611 468.586C188.224 467.059 187.184 465.915 186.995 463.683H229.993Z" stroke="#757EB3" stroke-miterlimit="22.9256"/>
<path fill-rule="evenodd" clip-rule="evenodd" d="M229.993 463.683H241V714.683H229.993V463.683Z" fill="#E3000F"/>
<path d="M229.993 463.683H241V714.683H229.993V463.683Z" stroke="#757EB3" stroke-miterlimit="22.9256"/>
<path fill-rule="evenodd" clip-rule="evenodd" d="M218.985 463.683H229.993V473.683H218.985V463.683Z" fill="#272953"/>
<path d="M218.985 463.683H229.993V473.683H218.985V463.683Z" stroke="#757EB3" stroke-miterlimit="22.9256"/>
<path fill-rule="evenodd" clip-rule="evenodd" d="M201.975 463.683H218.986V473.683H201.975V463.683Z" fill="#E6E6E6"/>
<path fill-rule="evenodd" clip-rule="evenodd" d="M201.975 463.683H218.986V473.683H201.975V463.683Z" fill="white"/>
<path d="M201.975 463.683H218.986V473.683H201.975V463.683Z" stroke="#757EB3" stroke-miterlimit="22.9256"/>
<path d="M201.975 463.683L218.986 473.683" stroke="#757EB3" stroke-miterlimit="22.9256"/>
<path d="M201.975 473.683L218.986 463.683" stroke="#757EB3" stroke-miterlimit="22.9256"/>
<path fill-rule="evenodd" clip-rule="evenodd" d="M228.993 703.683V713.683H217.985L228.993 703.683Z" fill="#272953"/>
<path fill-rule="evenodd" clip-rule="evenodd" d="M191.968 457.683H200.974V13.6826H191.968V457.683Z" fill="#FFEC08"/>
<path d="M191.968 457.683H200.974V13.6826H191.968V457.683Z" stroke="#757EB3" stroke-miterlimit="22.9256"/>
<path fill-rule="evenodd" clip-rule="evenodd" d="M191.968 457.683H200.974V508.683H191.968V457.683Z" fill="#00963F"/>
<path d="M191.968 457.683H200.974V508.683H191.968V457.683Z" stroke="#757EB3" stroke-miterlimit="22.9256"/>
<path fill-rule="evenodd" clip-rule="evenodd" d="M191.968 13.6826V80.1982V82.7446V146.496V210.677V378.204V380.75V508.683H167.952C169.119 506.888 170.224 504.586 170.224 500.827V500.812C170.224 496.051 168.451 493.626 167.026 491.612C165.822 489.91 164.95 488.68 164.95 485.909C164.95 483.138 165.822 481.908 167.026 480.205C168.451 478.192 170.224 475.688 170.224 471.006C170.224 466.323 168.451 463.819 167.026 461.805C165.822 460.102 164.95 458.873 164.95 456.103C164.95 453.334 165.822 452.102 167.026 450.4C168.451 448.389 170.224 445.882 170.224 441.201C170.224 436.52 168.451 433.93 167.026 431.918C165.84 430.243 164.977 428.929 164.95 426.259V426.207C164.977 423.536 165.84 422.224 167.026 420.548C168.451 418.535 170.224 415.946 170.224 411.266C170.224 406.584 168.451 404.077 167.026 402.066C165.822 400.364 164.95 399.133 164.95 396.363C164.95 393.594 165.822 392.363 167.026 390.661C171.724 384.02 171.046 380.884 167.026 375.202C165.822 373.499 164.95 372.268 164.95 369.5C164.95 366.73 165.822 365.5 167.026 363.797C168.451 361.785 170.224 359.277 170.224 354.596C170.224 349.917 168.451 347.327 167.026 345.314C165.84 343.639 164.977 342.326 164.95 339.656V339.603C164.977 336.934 165.84 335.62 167.026 333.945C168.451 331.932 170.224 329.342 170.224 324.662C170.224 319.98 168.451 317.474 167.026 315.462C165.822 313.76 164.95 312.529 164.95 309.76C164.95 306.99 165.822 305.76 167.026 304.058C168.451 302.044 170.224 299.54 170.224 294.858C170.224 290.175 168.451 287.671 167.026 285.657C165.822 283.955 164.95 282.725 164.95 279.954C164.95 277.184 165.822 275.953 167.026 274.251C168.451 272.236 170.224 269.812 170.224 265.051V265.036C170.224 260.275 168.451 257.85 167.026 255.836C165.822 254.134 164.95 252.904 164.95 250.133C164.95 247.362 165.822 246.133 167.026 244.43C168.451 242.416 170.224 239.912 170.224 235.23C170.224 230.547 168.451 228.043 167.026 226.029C165.822 224.326 164.95 223.097 164.95 220.327C164.95 217.558 165.822 216.327 167.026 214.624C167.794 213.54 168.662 212.312 169.301 210.677H167.952C168.977 209.101 169.953 207.133 170.176 204.131C169.885 200.251 168.313 197.961 167.026 196.142C165.84 194.467 164.977 193.154 164.95 190.483V190.431C164.955 189.996 164.981 189.598 165.027 189.228C164.976 188.826 164.95 188.389 164.95 187.904C164.95 185.133 165.822 183.903 167.026 182.2C168.319 180.373 169.898 178.142 170.18 174.245C169.898 170.349 168.319 168.115 167.026 166.29C165.822 164.587 164.95 163.356 164.95 160.588C164.95 160.134 164.974 159.723 165.018 159.343C164.974 158.963 164.95 158.55 164.95 158.097C164.95 155.328 165.822 154.098 167.026 152.395C168.095 150.885 169.36 149.097 169.925 146.32L169.898 142.428C170.03 143.045 170.128 143.714 170.18 144.438C170.209 144.041 170.224 143.628 170.224 143.196C170.224 138.514 168.451 135.925 167.026 133.912C165.84 132.237 164.977 130.925 164.95 128.254V128.201C164.977 125.531 165.84 124.219 167.026 122.543C168.451 120.53 170.224 117.941 170.224 113.261C170.224 108.579 168.451 106.072 167.026 104.06C165.822 102.358 164.95 101.127 164.95 98.3578C164.95 95.5884 165.822 94.3577 167.026 92.6552C171.724 86.0143 171.046 82.8785 167.026 77.1963C165.822 75.494 164.95 74.263 164.95 71.4941C164.95 68.7247 165.822 67.4945 167.026 65.7915C168.451 63.7799 170.224 61.272 170.224 56.5909C170.224 51.9114 168.451 49.3217 167.026 47.3085C165.84 45.6337 164.977 44.3208 164.95 41.6505V41.5977C164.977 38.9279 165.84 37.6146 167.026 35.9396C168.451 33.9263 170.224 31.3364 170.224 26.6563C170.224 21.9749 168.451 19.4687 167.026 17.4571C166.143 16.2093 165.44 15.2146 165.126 13.6826H191.968Z" fill="#CCCCCC"/>
<path d="M191.968 13.6826V80.5712V83.1155V146.812V210.937V378.317V380.861V508.683H167.952C169.119 506.89 170.224 504.589 170.224 500.834V500.819C170.224 496.062 168.451 493.64 167.026 491.627C165.822 489.927 164.95 488.697 164.95 485.929C164.95 483.16 165.822 481.932 167.026 480.23C168.451 478.218 170.224 475.716 170.224 471.039C170.224 466.36 168.451 463.858 167.026 461.846C165.822 460.144 164.95 458.916 164.95 456.148C164.95 453.382 165.822 452.152 167.026 450.451C168.451 448.441 170.224 445.937 170.224 441.26C170.224 436.583 168.451 433.996 167.026 431.985C165.84 430.311 164.977 428.999 164.95 426.331V426.278C164.977 423.61 165.84 422.299 167.026 420.625C168.451 418.614 170.224 416.026 170.224 411.351C170.224 406.673 168.451 404.169 167.026 402.158C165.822 400.458 164.95 399.228 164.95 396.461C164.95 393.694 165.822 392.464 167.026 390.763C171.724 384.129 171.046 380.995 167.026 375.318C165.822 373.617 164.95 372.387 164.95 369.621C164.95 366.854 165.822 365.625 167.026 363.923C168.451 361.913 170.224 359.407 170.224 354.731C170.224 350.055 168.451 347.467 167.026 345.456C165.84 343.783 164.977 342.471 164.95 339.803V339.75C164.977 337.083 165.84 335.771 167.026 334.097C168.451 332.086 170.224 329.498 170.224 324.822C170.224 320.145 168.451 317.641 167.026 315.63C165.822 313.93 164.95 312.7 164.95 309.933C164.95 307.165 165.822 305.937 167.026 304.236C168.451 302.224 170.224 299.722 170.224 295.044C170.224 290.366 168.451 287.863 167.026 285.851C165.822 284.15 164.95 282.921 164.95 280.153C164.95 277.385 165.822 276.155 167.026 274.455C168.451 272.442 170.224 270.02 170.224 265.263V265.248C170.224 260.492 168.451 258.069 167.026 256.056C165.822 254.356 164.95 253.127 164.95 250.358C164.95 247.59 165.822 246.361 167.026 244.66C168.451 242.648 170.224 240.146 170.224 235.468C170.224 230.789 168.451 228.288 167.026 226.275C165.822 224.574 164.95 223.346 164.95 220.578C164.95 217.811 165.822 216.582 167.026 214.88C167.794 213.797 168.662 212.57 169.301 210.937H167.952C168.977 209.362 169.953 207.396 170.176 204.396C169.885 200.52 168.313 198.231 167.026 196.414C165.84 194.741 164.977 193.428 164.95 190.76V190.708C164.955 190.274 164.981 189.875 165.027 189.506C164.976 189.105 164.95 188.667 164.95 188.183C164.95 185.414 165.822 184.186 167.026 182.484C168.319 180.658 169.898 178.429 170.18 174.536C169.898 170.643 168.319 168.412 167.026 166.588C165.822 164.887 164.95 163.657 164.95 160.891C164.95 160.438 164.974 160.026 165.018 159.647C164.974 159.267 164.95 158.855 164.95 158.402C164.95 155.636 165.822 154.406 167.026 152.705C168.095 151.196 169.36 149.41 169.925 146.635L169.898 142.747C170.03 143.364 170.128 144.031 170.18 144.755C170.209 144.359 170.224 143.946 170.224 143.514C170.224 138.837 168.451 136.25 167.026 134.239C165.84 132.565 164.977 131.253 164.95 128.585V128.532C164.977 125.864 165.84 124.553 167.026 122.879C168.451 120.868 170.224 118.281 170.224 113.605C170.224 108.927 168.451 106.422 167.026 104.412C165.822 102.712 164.95 101.482 164.95 98.7151C164.95 95.9481 165.822 94.7184 167.026 93.0174C171.724 86.3823 171.046 83.2492 167.026 77.572C165.822 75.8712 164.95 74.6413 164.95 71.8748C164.95 69.1078 165.822 67.8786 167.026 66.1771C168.451 64.1672 170.224 61.6616 170.224 56.9846C170.224 52.3091 168.451 49.7216 167.026 47.7102C165.84 46.0369 164.977 44.7251 164.95 42.0571V42.0044C164.977 39.3369 165.84 38.0247 167.026 36.3513C168.451 34.3396 170.224 31.752 170.224 27.076C170.224 22.3987 168.451 19.8946 167.026 17.8848C166.143 16.6381 165.44 15.2133 165.126 13.6826H191.968Z" stroke="#757EB3" stroke-miterlimit="22.9256"/>
<path fill-rule="evenodd" clip-rule="evenodd" d="M160.948 13.6826V167.683H138.49C137.873 165.787 136.685 164.521 135.672 163.441C134.452 162.139 133.569 161.198 133.569 159.082C133.569 156.965 134.452 156.024 135.672 154.722C137.116 153.184 138.913 151.267 138.913 147.688C138.913 144.111 137.116 142.131 135.672 140.592C134.47 139.311 133.595 138.308 133.569 136.266V136.226C133.595 134.185 134.47 133.182 135.672 131.901C137.116 130.362 138.913 128.381 138.913 124.804C138.913 121.225 137.116 119.309 135.672 117.771C134.452 116.469 133.569 115.528 133.569 113.411C133.569 111.293 134.452 110.354 135.672 109.052C137.116 107.512 138.913 105.598 138.913 102.019C138.913 98.439 137.116 96.5244 135.672 94.9848C134.452 93.6833 133.569 92.7429 133.569 90.6245C133.569 88.5069 134.452 87.5658 135.672 86.2652C137.116 84.7245 138.913 82.8715 138.913 79.2314V79.22C138.913 75.5806 137.116 73.7272 135.672 72.1869C134.452 70.8859 133.569 69.9452 133.569 67.8269C133.569 65.7084 134.452 64.7686 135.672 63.4667C137.116 61.9273 138.913 60.0128 138.913 56.4336C138.913 52.8538 137.116 50.9394 135.672 49.3998C134.452 48.0979 133.569 47.1581 133.569 45.0402C133.569 42.9234 134.452 41.9826 135.672 40.6809C135.787 40.5581 135.905 40.4324 136.024 40.3036L132.93 13.6826H160.948Z" fill="#CCCCCC"/>
<path d="M160.948 13.6826V167.683H138.49C137.873 165.787 136.685 164.521 135.672 163.441C134.452 162.139 133.569 161.198 133.569 159.082C133.569 156.965 134.452 156.024 135.672 154.722C137.116 153.184 138.913 151.267 138.913 147.688C138.913 144.111 137.116 142.131 135.672 140.592C134.47 139.311 133.595 138.308 133.569 136.266V136.226C133.595 134.185 134.47 133.182 135.672 131.901C137.116 130.362 138.913 128.381 138.913 124.804C138.913 121.225 137.116 119.309 135.672 117.771C134.452 116.469 133.569 115.528 133.569 113.411C133.569 111.293 134.452 110.354 135.672 109.052C137.116 107.512 138.913 105.598 138.913 102.019C138.913 98.439 137.116 96.5244 135.672 94.9848C134.452 93.6833 133.569 92.7429 133.569 90.6245C133.569 88.5069 134.452 87.5658 135.672 86.2652C137.116 84.7245 138.913 82.8715 138.913 79.2314V79.22C138.913 75.5806 137.116 73.7272 135.672 72.1869C134.452 70.8859 133.569 69.9452 133.569 67.8269C133.569 65.7084 134.452 64.7686 135.672 63.4667C137.116 61.9273 138.913 60.0128 138.913 56.4336C138.913 52.8538 137.116 50.9394 135.672 49.3998C134.452 48.0979 133.569 47.1581 133.569 45.0402C133.569 42.9234 134.452 41.9826 135.672 40.6809C135.787 40.5581 135.905 40.4324 136.024 40.3036L132.93 13.6826H160.948Z" stroke="#757EB3" stroke-miterlimit="22.9256"/>
<path fill-rule="evenodd" clip-rule="evenodd" d="M160.948 36.6826H169.954V13.6826H160.948V36.6826Z" fill="#00963F"/>
<path d="M160.95 36.6826H169.954L169.952 13.6826H160.948L160.95 36.6826Z" stroke="#757EB3" stroke-miterlimit="22.9256"/>
<path fill-rule="evenodd" clip-rule="evenodd" d="M160.948 147.683H169.954V167.683H160.948V147.683Z" fill="#E3000F"/>
<path d="M160.948 147.683H169.954V167.683H160.948V147.683Z" stroke="#757EB3" stroke-miterlimit="22.9256"/>
<path fill-rule="evenodd" clip-rule="evenodd" d="M160.948 147.683H169.954V36.6826H160.948V147.683Z" fill="#FFEC08"/>
<path d="M160.948 147.683H169.954V36.6826H160.948V147.683Z" stroke="#757EB3" stroke-miterlimit="22.9256"/>
<path d="M126.687 35.9727L105.794 35.9725C105.623 32.7643 103.821 30.9752 102.453 29.6163L102.441 29.6045C101.825 28.9916 101.351 28.516 101.018 27.9648C100.697 27.4345 100.5 26.8171 100.5 25.9218C100.5 25.0262 100.698 24.4086 101.018 23.8783C101.351 23.3272 101.825 22.8517 102.441 22.239L126.687 35.9727ZM126.687 35.9727V13.6826H105.774C105.796 13.9372 105.807 14.2004 105.807 14.4728C105.807 17.9649 103.933 20.7555 102.441 22.2389L126.687 35.9727Z" fill="#CCCCCC" stroke="#757EB3"/>
<path fill-rule="evenodd" clip-rule="evenodd" d="M126.926 35.6826H136.932V13.6826H126.926V35.6826Z" fill="#E3000F"/>
<path d="M126.926 36.1826H136.932V13.6826H126.926V36.1826Z" stroke="#757EB3" stroke-miterlimit="22.9256"/>
<path fill-rule="evenodd" clip-rule="evenodd" d="M324.007 463.683V714.683H360.325C360.319 714.522 360.315 714.357 360.315 714.19C360.315 709.538 362.575 707.048 364.389 705.049C365.925 703.356 367.035 702.134 367.035 699.382C367.035 696.63 365.925 695.408 364.389 693.716C362.575 691.714 360.315 689.226 360.315 684.573C360.315 679.92 362.575 677.432 364.389 675.43C365.925 673.739 367.035 672.515 367.035 669.763C367.035 667.01 365.925 665.788 364.389 664.096C362.658 662.185 360.521 659.903 360.329 655.586H360.315V654.953H360.329C360.521 650.636 362.658 648.353 364.389 646.443C365.925 644.751 367.035 643.528 367.035 640.775C367.035 638.023 365.925 636.799 364.389 635.109C362.575 633.107 360.315 630.619 360.315 625.966C360.315 621.313 362.575 618.825 364.389 616.823C365.925 615.131 367.035 613.908 367.035 611.157C367.035 608.404 365.925 607.182 364.389 605.49C362.575 603.491 360.315 601 360.315 596.348C360.315 591.697 362.575 589.124 364.389 587.123C365.901 585.459 367.001 584.154 367.035 581.501V581.449C367.001 578.795 365.901 577.49 364.389 575.826C362.575 573.825 360.315 571.252 360.315 566.6C360.315 561.948 362.575 559.458 364.389 557.459C365.925 555.767 367.035 554.544 367.035 551.792C367.035 549.039 365.925 547.818 364.389 546.126C362.575 544.124 360.315 541.636 360.315 536.983C360.315 532.33 362.575 529.841 364.389 527.84C365.925 526.149 367.035 524.927 367.035 522.173C367.035 519.42 365.925 518.198 364.389 516.506C362.575 514.504 360.315 512.094 360.315 507.363V507.348C360.315 502.618 362.575 500.208 364.389 498.206C365.925 496.515 367.035 495.292 367.035 492.539C367.035 489.785 365.925 488.564 364.389 486.871C362.575 484.87 360.315 482.382 360.315 477.729C360.315 473.076 362.575 470.588 364.389 468.586C365.776 467.059 366.816 465.915 367.005 463.683H324.007Z" fill="#E6E6E6"/>
<path d="M324.007 463.683V714.683H360.325C360.319 714.522 360.315 714.357 360.315 714.19C360.315 709.538 362.575 707.048 364.389 705.049C365.925 703.356 367.035 702.134 367.035 699.382C367.035 696.63 365.925 695.408 364.389 693.716C362.575 691.714 360.315 689.226 360.315 684.573C360.315 679.92 362.575 677.432 364.389 675.43C365.925 673.739 367.035 672.515 367.035 669.763C367.035 667.01 365.925 665.788 364.389 664.096C362.658 662.185 360.521 659.903 360.329 655.586H360.315V654.953H360.329C360.521 650.636 362.658 648.353 364.389 646.443C365.925 644.751 367.035 643.528 367.035 640.775C367.035 638.023 365.925 636.799 364.389 635.109C362.575 633.107 360.315 630.619 360.315 625.966C360.315 621.313 362.575 618.825 364.389 616.823C365.925 615.131 367.035 613.908 367.035 611.157C367.035 608.404 365.925 607.182 364.389 605.49C362.575 603.491 360.315 601 360.315 596.348C360.315 591.697 362.575 589.124 364.389 587.123C365.901 585.459 367.001 584.154 367.035 581.501V581.449C367.001 578.795 365.901 577.49 364.389 575.826C362.575 573.825 360.315 571.252 360.315 566.6C360.315 561.948 362.575 559.458 364.389 557.459C365.925 555.767 367.035 554.544 367.035 551.792C367.035 549.039 365.925 547.818 364.389 546.126C362.575 544.124 360.315 541.636 360.315 536.983C360.315 532.33 362.575 529.841 364.389 527.84C365.925 526.149 367.035 524.927 367.035 522.173C367.035 519.42 365.925 518.198 364.389 516.506C362.575 514.504 360.315 512.094 360.315 507.363V507.348C360.315 502.618 362.575 500.208 364.389 498.206C365.925 496.515 367.035 495.292 367.035 492.539C367.035 489.787 365.925 488.564 364.389 486.871C362.575 484.87 360.315 482.382 360.315 477.729C360.315 473.076 362.575 470.588 364.389 468.586C365.776 467.059 366.816 465.915 367.005 463.683H324.007Z" stroke="#757EB3" stroke-miterlimit="22.9256"/>
<path fill-rule="evenodd" clip-rule="evenodd" d="M324.007 463.683H313V714.683H324.007V463.683Z" fill="#E3000F"/>
<path d="M324.007 463.683H313V714.683H324.007V463.683Z" stroke="#757EB3" stroke-miterlimit="22.9256"/>
<path fill-rule="evenodd" clip-rule="evenodd" d="M335.014 463.683H324.007V473.683H335.014V463.683Z" fill="#272953"/>
<path d="M335.014 463.683H324.007V473.683H335.014V463.683Z" stroke="#757EB3" stroke-miterlimit="22.9256"/>
<path fill-rule="evenodd" clip-rule="evenodd" d="M352.025 463.683H335.014V473.683H352.025V463.683Z" fill="#E6E6E6"/>
<path fill-rule="evenodd" clip-rule="evenodd" d="M352.025 463.683H335.014V473.683H352.025V463.683Z" fill="white"/>
<path d="M352.025 463.683H335.014V473.683H352.025V463.683Z" stroke="#757EB3" stroke-miterlimit="22.9256"/>
<path d="M352.025 463.683L335.014 473.683" stroke="#757EB3" stroke-miterlimit="22.9256"/>
<path d="M352.025 473.683L335.014 463.683" stroke="#757EB3" stroke-miterlimit="22.9256"/>
<path fill-rule="evenodd" clip-rule="evenodd" d="M325.007 703.683V713.683H336.015L325.007 703.683Z" fill="#272953"/>
<path fill-rule="evenodd" clip-rule="evenodd" d="M362.032 457.683H353.026V13.6826H362.032V457.683Z" fill="#FFEC08"/>
<path d="M362.032 457.683H353.026V13.6826H362.032V457.683Z" stroke="#757EB3" stroke-miterlimit="22.9256"/>
<path fill-rule="evenodd" clip-rule="evenodd" d="M362.032 457.683H353.026V508.683H362.032V457.683Z" fill="#00963F"/>
<path d="M362.032 457.683H353.026V508.683H362.032V457.683Z" stroke="#757EB3" stroke-miterlimit="22.9256"/>
<path fill-rule="evenodd" clip-rule="evenodd" d="M362.032 13.6826V80.1982V82.7446V146.496V210.677V378.204V380.75V508.683H386.048C384.881 506.888 383.776 504.586 383.776 500.827V500.812C383.776 496.051 385.549 493.626 386.974 491.612C388.178 489.91 389.05 488.68 389.05 485.909C389.05 483.138 388.178 481.908 386.974 480.205C385.549 478.192 383.776 475.688 383.776 471.006C383.776 466.323 385.549 463.819 386.974 461.805C388.178 460.102 389.05 458.873 389.05 456.103C389.05 453.334 388.178 452.102 386.974 450.4C385.549 448.389 383.776 445.882 383.776 441.201C383.776 436.52 385.549 433.93 386.974 431.918C388.16 430.243 389.023 428.929 389.05 426.259V426.207C389.023 423.536 388.16 422.224 386.974 420.548C385.549 418.535 383.776 415.946 383.776 411.266C383.776 406.584 385.549 404.077 386.974 402.066C388.178 400.364 389.05 399.133 389.05 396.363C389.05 393.594 388.178 392.363 386.974 390.661C382.276 384.02 382.954 380.884 386.974 375.202C388.178 373.499 389.05 372.268 389.05 369.5C389.05 366.73 388.178 365.5 386.974 363.797C385.549 361.785 383.776 359.277 383.776 354.596C383.776 349.917 385.549 347.327 386.974 345.314C388.16 343.639 389.023 342.326 389.05 339.656V339.603C389.023 336.934 388.16 335.62 386.974 333.945C385.549 331.932 383.776 329.342 383.776 324.662C383.776 319.98 385.549 317.474 386.974 315.462C388.178 313.76 389.05 312.529 389.05 309.76C389.05 306.99 388.178 305.76 386.974 304.058C385.549 302.044 383.776 299.54 383.776 294.858C383.776 290.175 385.549 287.671 386.974 285.657C388.178 283.955 389.05 282.725 389.05 279.954C389.05 277.184 388.178 275.953 386.974 274.251C385.549 272.236 383.776 269.812 383.776 265.051V265.036C383.776 260.275 385.549 257.85 386.974 255.836C388.178 254.134 389.05 252.904 389.05 250.133C389.05 247.362 388.178 246.133 386.974 244.43C385.549 242.416 383.776 239.912 383.776 235.23C383.776 230.547 385.549 228.043 386.974 226.029C388.178 224.326 389.05 223.097 389.05 220.327C389.05 217.558 388.178 216.327 386.974 214.624C386.206 213.54 385.338 212.312 384.699 210.677H386.048C385.023 209.101 384.047 207.133 383.824 204.131C384.115 200.251 385.687 197.961 386.974 196.142C388.16 194.467 389.023 193.154 389.05 190.483V190.431C389.045 189.996 389.019 189.598 388.973 189.228C389.024 188.826 389.05 188.389 389.05 187.904C389.05 185.133 388.178 183.903 386.974 182.2C385.681 180.373 384.102 178.142 383.82 174.245C384.102 170.349 385.681 168.115 386.974 166.29C388.178 164.587 389.05 163.356 389.05 160.588C389.05 160.134 389.026 159.723 388.982 159.343C389.026 158.963 389.05 158.55 389.05 158.097C389.05 155.328 388.178 154.098 386.974 152.395C385.905 150.885 384.64 149.097 384.075 146.32L384.102 142.428C383.97 143.045 383.872 143.714 383.82 144.438C383.791 144.041 383.776 143.628 383.776 143.196C383.776 138.514 385.549 135.925 386.974 133.912C388.16 132.237 389.023 130.925 389.05 128.254V128.201C389.023 125.531 388.16 124.219 386.974 122.543C385.549 120.53 383.776 117.941 383.776 113.261C383.776 108.579 385.549 106.072 386.974 104.06C388.178 102.358 389.05 101.127 389.05 98.3578C389.05 95.5884 388.178 94.3577 386.974 92.6552C382.276 86.0143 382.954 82.8785 386.974 77.1963C388.178 75.494 389.05 74.263 389.05 71.4941C389.05 68.7247 388.178 67.4945 386.974 65.7915C385.549 63.7799 383.776 61.272 383.776 56.5909C383.776 51.9114 385.549 49.3217 386.974 47.3085C388.16 45.6337 389.023 44.3208 389.05 41.6505V41.5977C389.023 38.9279 388.16 37.6146 386.974 35.9396C385.549 33.9263 383.776 31.3364 383.776 26.6563C383.776 21.9749 385.549 19.4687 386.974 17.4571C387.857 16.2093 388.56 15.2146 388.874 13.6826H362.032Z" fill="#CCCCCC"/>
<path d="M362.032 13.6826V80.5712V83.1155V146.812V210.937V378.317V380.861V508.683H386.048C384.881 506.89 383.776 504.589 383.776 500.834V500.819C383.776 496.062 385.549 493.64 386.974 491.627C388.178 489.927 389.05 488.697 389.05 485.929C389.05 483.16 388.178 481.932 386.974 480.23C385.549 478.218 383.776 475.716 383.776 471.039C383.776 466.36 385.549 463.858 386.974 461.846C388.178 460.144 389.05 458.916 389.05 456.148C389.05 453.382 388.178 452.152 386.974 450.451C385.549 448.441 383.776 445.937 383.776 441.26C383.776 436.583 385.549 433.996 386.974 431.985C388.16 430.311 389.023 428.999 389.05 426.331V426.278C389.023 423.61 388.16 422.299 386.974 420.625C385.549 418.614 383.776 416.026 383.776 411.351C383.776 406.673 385.549 404.169 386.974 402.158C388.178 400.458 389.05 399.228 389.05 396.461C389.05 393.694 388.178 392.464 386.974 390.763C382.276 384.129 382.954 380.995 386.974 375.318C388.178 373.617 389.05 372.387 389.05 369.621C389.05 366.854 388.178 365.625 386.974 363.923C385.549 361.913 383.776 359.407 383.776 354.731C383.776 350.055 385.549 347.467 386.974 345.456C388.16 343.783 389.023 342.471 389.05 339.803V339.75C389.023 337.083 388.16 335.771 386.974 334.097C385.549 332.086 383.776 329.498 383.776 324.822C383.776 320.145 385.549 317.641 386.974 315.63C388.178 313.93 389.05 312.7 389.05 309.933C389.05 307.165 388.178 305.937 386.974 304.236C385.549 302.224 383.776 299.722 383.776 295.044C383.776 290.366 385.549 287.863 386.974 285.851C388.178 284.15 389.05 282.921 389.05 280.153C389.05 277.385 388.178 276.155 386.974 274.455C385.549 272.442 383.776 270.02 383.776 265.263V265.248C383.776 260.492 385.549 258.069 386.974 256.056C388.178 254.356 389.05 253.127 389.05 250.358C389.05 247.59 388.178 246.361 386.974 244.66C385.549 242.648 383.776 240.146 383.776 235.468C383.776 230.789 385.549 228.288 386.974 226.275C388.178 224.574 389.05 223.346 389.05 220.578C389.05 217.811 388.178 216.582 386.974 214.88C386.206 213.797 385.338 212.57 384.699 210.937H386.048C385.023 209.362 384.047 207.396 383.824 204.396C384.115 200.52 385.687 198.231 386.974 196.414C388.16 194.741 389.023 193.428 389.05 190.76V190.708C389.045 190.274 389.019 189.875 388.973 189.506C389.024 189.105 389.05 188.667 389.05 188.183C389.05 185.414 388.178 184.186 386.974 182.484C385.681 180.658 384.102 178.429 383.82 174.536C384.102 170.643 385.681 168.412 386.974 166.588C388.178 164.887 389.05 163.657 389.05 160.891C389.05 160.438 389.026 160.026 388.982 159.647C389.026 159.267 389.05 158.855 389.05 158.402C389.05 155.636 388.178 154.406 386.974 152.705C385.905 151.196 384.64 149.41 384.075 146.635L384.102 142.747C383.97 143.364 383.872 144.031 383.82 144.755C383.791 144.359 383.776 143.946 383.776 143.514C383.776 138.837 385.549 136.25 386.974 134.239C388.16 132.565 389.023 131.253 389.05 128.585V128.532C389.023 125.864 388.16 124.553 386.974 122.879C385.549 120.868 383.776 118.281 383.776 113.605C383.776 108.927 385.549 106.422 386.974 104.412C388.178 102.712 389.05 101.482 389.05 98.7151C389.05 95.9481 388.178 94.7184 386.974 93.0174C382.276 86.3823 382.954 83.2492 386.974 77.572C388.178 75.8712 389.05 74.6413 389.05 71.8748C389.05 69.1078 388.178 67.8786 386.974 66.1771C385.549 64.1672 383.776 61.6616 383.776 56.9846C383.776 52.3091 385.549 49.7216 386.974 47.7102C388.16 46.0369 389.023 44.7251 389.05 42.0571V42.0044C389.023 39.3369 388.16 38.0247 386.974 36.3513C385.549 34.3396 383.776 31.752 383.776 27.076C383.776 22.3987 385.549 19.8946 386.974 17.8848C387.857 16.6381 388.56 15.2133 388.874 13.6826H362.032Z" stroke="#757EB3" stroke-miterlimit="22.9256"/>
<path fill-rule="evenodd" clip-rule="evenodd" d="M393.052 13.6826V167.683H415.51C416.127 165.787 417.315 164.521 418.328 163.441C419.548 162.139 420.431 161.198 420.431 159.082C420.431 156.965 419.548 156.024 418.328 154.722C416.884 153.184 415.087 151.267 415.087 147.688C415.087 144.111 416.884 142.131 418.328 140.592C419.53 139.311 420.405 138.308 420.431 136.266V136.226C420.405 134.185 419.53 133.182 418.328 131.901C416.884 130.362 415.087 128.381 415.087 124.804C415.087 121.225 416.884 119.309 418.328 117.771C419.548 116.469 420.431 115.528 420.431 113.411C420.431 111.293 419.548 110.354 418.328 109.052C416.884 107.512 415.087 105.598 415.087 102.019C415.087 98.439 416.884 96.5244 418.328 94.9848C419.548 93.6833 420.431 92.7429 420.431 90.6245C420.431 88.5069 419.548 87.5658 418.328 86.2652C416.884 84.7245 415.087 82.8715 415.087 79.2314V79.22C415.087 75.5806 416.884 73.7272 418.328 72.1869C419.548 70.8859 420.431 69.9452 420.431 67.8269C420.431 65.7084 419.548 64.7686 418.328 63.4667C416.884 61.9273 415.087 60.0128 415.087 56.4336C415.087 52.8538 416.884 50.9394 418.328 49.3998C419.548 48.0979 420.431 47.1581 420.431 45.0402C420.431 42.9234 419.548 41.9826 418.328 40.6809C418.213 40.5581 418.095 40.4324 417.976 40.3036L421.07 13.6826H393.052Z" fill="#CCCCCC"/>
<path d="M393.052 13.6826V167.683H415.51C416.127 165.787 417.315 164.521 418.328 163.441C419.548 162.139 420.431 161.198 420.431 159.082C420.431 156.965 419.548 156.024 418.328 154.722C416.884 153.184 415.087 151.267 415.087 147.688C415.087 144.111 416.884 142.131 418.328 140.592C419.53 139.311 420.405 138.308 420.431 136.266V136.226C420.405 134.185 419.53 133.182 418.328 131.901C416.884 130.362 415.087 128.381 415.087 124.804C415.087 121.225 416.884 119.309 418.328 117.771C419.548 116.469 420.431 115.528 420.431 113.411C420.431 111.293 419.548 110.354 418.328 109.052C416.884 107.512 415.087 105.598 415.087 102.019C415.087 98.439 416.884 96.5244 418.328 94.9848C419.548 93.6833 420.431 92.7429 420.431 90.6245C420.431 88.5069 419.548 87.5658 418.328 86.2652C416.884 84.7245 415.087 82.8715 415.087 79.2314V79.22C415.087 75.5806 416.884 73.7272 418.328 72.1869C419.548 70.8859 420.431 69.9452 420.431 67.8269C420.431 65.7084 419.548 64.7686 418.328 63.4667C416.884 61.9273 415.087 60.0128 415.087 56.4336C415.087 52.8538 416.884 50.9394 418.328 49.3998C419.548 48.0979 420.431 47.1581 420.431 45.0402C420.431 42.9234 419.548 41.9826 418.328 40.6809C418.213 40.5581 418.095 40.4324 417.976 40.3036L421.07 13.6826H393.052Z" stroke="#757EB3" stroke-miterlimit="22.9256"/>
<path fill-rule="evenodd" clip-rule="evenodd" d="M393.053 36.6826H384.047V13.6826H393.053V36.6826Z" fill="#00963F"/>
<path d="M393.051 36.6826H384.047L384.049 13.6826H393.053L393.051 36.6826Z" stroke="#757EB3" stroke-miterlimit="22.9256"/>
<path fill-rule="evenodd" clip-rule="evenodd" d="M393.053 147.683H384.047V167.683H393.053V147.683Z" fill="#E3000F"/>
<path d="M393.053 147.683H384.047V167.683H393.053V147.683Z" stroke="#757EB3" stroke-miterlimit="22.9256"/>
<path fill-rule="evenodd" clip-rule="evenodd" d="M393.053 147.683H384.047V36.6826H393.053V147.683Z" fill="#FFEC08"/>
<path d="M393.053 147.683H384.047V36.6826H393.053V147.683Z" stroke="#757EB3" stroke-miterlimit="22.9256"/>
<path d="M427.313 35.9727L448.206 35.9725C448.377 32.7643 450.179 30.9752 451.547 29.6163L451.559 29.6045C452.175 28.9916 452.649 28.516 452.982 27.9648C453.303 27.4345 453.5 26.8171 453.5 25.9218C453.5 25.0262 453.302 24.4086 452.982 23.8783C452.649 23.3272 452.175 22.8517 451.559 22.239L427.313 35.9727ZM427.313 35.9727V13.6826H448.226C448.204 13.9372 448.193 14.2004 448.193 14.4728C448.193 17.9649 450.067 20.7555 451.559 22.2389L427.313 35.9727Z" fill="#CCCCCC" stroke="#757EB3"/>
<path fill-rule="evenodd" clip-rule="evenodd" d="M427.074 35.6826H417.068V13.6826H427.074V35.6826Z" fill="#E3000F"/>
<path d="M427.074 36.1826H417.068V13.6826H427.074V36.1826Z" stroke="#757EB3" stroke-miterlimit="22.9256"/>
<path d="M230.064 566.683L103.976 531" stroke="#454D7D" stroke-width="2" stroke-miterlimit="22.9256"/>
<path d="M192.064 387.683L65.9755 352" stroke="#454D7D" stroke-width="2" stroke-miterlimit="22.9256"/>
<path d="M161.064 147.683L34.9755 112" stroke="#454D7D" stroke-width="2" stroke-miterlimit="22.9256"/>
<path d="M127.064 36.6826L0.975508 1.00008" stroke="#454D7D" stroke-width="2" stroke-miterlimit="22.9256"/>
<mask id="path-67-outside-1_1029_14229" maskUnits="userSpaceOnUse" x="284" y="713.683" width="37" height="249" fill="black">
<rect fill="white" x="284" y="713.683" width="37" height="249"/>
<path d="M285.55 960.933H314.073L314.071 960.688C314.07 957.683 314.534 955.372 315.183 953.488C315.83 951.61 316.656 950.173 317.391 948.894C318.586 946.812 319.45 945.308 319.45 941.956C319.45 938.604 318.586 937.1 317.392 935.021L317.389 935.015C315.908 932.437 314.07 929.231 314.07 923.226C314.07 917.221 315.908 914.016 317.386 911.44L317.391 911.433C317.995 910.381 318.517 909.473 318.879 908.424C319.238 907.384 319.45 906.176 319.45 904.496C319.45 901.143 318.586 899.639 317.392 897.56L317.317 897.429C315.951 895.05 314.311 892.192 314.095 886.938H314.07V885.389H314.095C314.311 880.136 315.951 877.278 317.317 874.898L317.405 874.745C318.593 872.677 319.45 871.171 319.45 867.832C319.45 866.152 319.238 864.943 318.879 863.903C318.517 862.856 317.997 861.95 317.394 860.901L317.386 860.887C315.908 858.311 314.07 855.107 314.07 849.101C314.07 843.095 315.909 839.891 317.387 837.315L317.397 837.298C318.588 835.223 319.45 833.719 319.45 830.371C319.45 827.02 318.586 825.516 317.392 823.437C316.656 822.155 315.83 820.717 315.183 818.839C314.534 816.955 314.07 814.644 314.07 811.641C314.07 808.64 314.533 806.304 315.182 804.395C315.828 802.494 316.655 801.026 317.391 799.745C317.984 798.713 318.496 797.793 318.86 796.73C319.22 795.682 319.438 794.479 319.451 792.864L319.45 792.797C319.438 791.182 319.22 789.978 318.861 788.93C318.496 787.868 317.984 786.947 317.391 785.915C316.655 784.634 315.828 783.167 315.182 781.266C314.533 779.357 314.07 777.02 314.07 774.018C314.07 768.087 315.864 764.885 317.332 762.329L317.391 762.226C318.586 760.144 319.45 758.64 319.45 755.288C319.45 751.936 318.587 750.433 317.393 748.356L317.386 748.344C315.908 745.769 314.07 742.563 314.07 736.558C314.07 730.553 315.908 727.348 317.386 724.772L317.392 724.764C318.586 722.686 319.45 721.182 319.45 717.828C319.45 717.3 319.429 716.82 319.39 716.379C319.36 716.047 319.319 715.734 319.269 715.439L319.17 714.683L319.693 714.69L319.749 714.968C319.829 715.376 319.893 715.814 319.936 716.288C319.977 716.764 320 717.274 320 717.828C320 721.436 319.086 723.026 317.823 725.224L317.809 725.25C316.384 727.731 314.62 730.82 314.62 736.558C314.62 742.31 316.393 745.401 317.818 747.884L317.825 747.896C319.087 750.093 320 751.682 320 755.288C320 758.839 319.114 760.435 317.882 762.582L317.823 762.686C316.396 765.168 314.62 768.261 314.62 774.018C314.62 776.898 315.062 779.132 315.68 780.953C316.302 782.781 317.107 784.208 317.823 785.456C318.44 786.529 318.973 787.489 319.359 788.615C319.748 789.756 319.985 791.057 319.999 792.794L320 792.864C319.985 794.604 319.748 795.905 319.358 797.045C318.973 798.172 318.439 799.131 317.823 800.204C317.107 801.452 316.302 802.879 315.68 804.707C315.062 806.528 314.62 808.762 314.62 811.641C314.62 814.522 315.062 816.73 315.679 818.524C316.299 820.323 317.106 821.726 317.823 822.974C319.087 825.176 320 826.765 320 830.371C320 833.978 319.086 835.568 317.824 837.766L317.812 837.786C316.388 840.268 314.62 843.357 314.62 849.101C314.62 854.848 316.39 857.938 317.815 860.421L317.823 860.435C318.447 861.522 318.986 862.459 319.375 863.588C319.767 864.725 320 866.033 320 867.832C320 871.441 319.086 873.031 317.824 875.229L317.749 875.358C316.401 877.705 314.777 880.535 314.63 885.777C314.622 886.06 314.622 886.267 314.63 886.551C314.777 891.793 316.401 894.623 317.749 896.97L317.823 897.098C319.087 899.299 320 900.889 320 904.496C320 906.295 319.767 907.603 319.375 908.74C318.986 909.868 318.447 910.806 317.823 911.893L317.818 911.9C316.393 914.383 314.62 917.474 314.62 923.226C314.62 928.964 316.384 932.054 317.808 934.534L317.824 934.561C319.086 936.759 320 938.349 320 941.956C320 945.562 319.087 947.152 317.824 949.351C317.106 950.602 316.299 952.005 315.679 953.804C315.061 955.598 314.62 957.805 314.62 960.685L314.633 961.683H285V961.308V960.933H285.55Z"/>
</mask>
<path d="M285.55 960.933H314.073L314.071 960.688C314.07 957.683 314.534 955.372 315.183 953.488C315.83 951.61 316.656 950.173 317.391 948.894C318.586 946.812 319.45 945.308 319.45 941.956C319.45 938.604 318.586 937.1 317.392 935.021L317.389 935.015C315.908 932.437 314.07 929.231 314.07 923.226C314.07 917.221 315.908 914.016 317.386 911.44L317.391 911.433C317.995 910.381 318.517 909.473 318.879 908.424C319.238 907.384 319.45 906.176 319.45 904.496C319.45 901.143 318.586 899.639 317.392 897.56L317.317 897.429C315.951 895.05 314.311 892.192 314.095 886.938H314.07V885.389H314.095C314.311 880.136 315.951 877.278 317.317 874.898L317.405 874.745C318.593 872.677 319.45 871.171 319.45 867.832C319.45 866.152 319.238 864.943 318.879 863.903C318.517 862.856 317.997 861.95 317.394 860.901L317.386 860.887C315.908 858.311 314.07 855.107 314.07 849.101C314.07 843.095 315.909 839.891 317.387 837.315L317.397 837.298C318.588 835.223 319.45 833.719 319.45 830.371C319.45 827.02 318.586 825.516 317.392 823.437C316.656 822.155 315.83 820.717 315.183 818.839C314.534 816.955 314.07 814.644 314.07 811.641C314.07 808.64 314.533 806.304 315.182 804.395C315.828 802.494 316.655 801.026 317.391 799.745C317.984 798.713 318.496 797.793 318.86 796.73C319.22 795.682 319.438 794.479 319.451 792.864L319.45 792.797C319.438 791.182 319.22 789.978 318.861 788.93C318.496 787.868 317.984 786.947 317.391 785.915C316.655 784.634 315.828 783.167 315.182 781.266C314.533 779.357 314.07 777.02 314.07 774.018C314.07 768.087 315.864 764.885 317.332 762.329L317.391 762.226C318.586 760.144 319.45 758.64 319.45 755.288C319.45 751.936 318.587 750.433 317.393 748.356L317.386 748.344C315.908 745.769 314.07 742.563 314.07 736.558C314.07 730.553 315.908 727.348 317.386 724.772L317.392 724.764C318.586 722.686 319.45 721.182 319.45 717.828C319.45 717.3 319.429 716.82 319.39 716.379C319.36 716.047 319.319 715.734 319.269 715.439L319.17 714.683L319.693 714.69L319.749 714.968C319.829 715.376 319.893 715.814 319.936 716.288C319.977 716.764 320 717.274 320 717.828C320 721.436 319.086 723.026 317.823 725.224L317.809 725.25C316.384 727.731 314.62 730.82 314.62 736.558C314.62 742.31 316.393 745.401 317.818 747.884L317.825 747.896C319.087 750.093 320 751.682 320 755.288C320 758.839 319.114 760.435 317.882 762.582L317.823 762.686C316.396 765.168 314.62 768.261 314.62 774.018C314.62 776.898 315.062 779.132 315.68 780.953C316.302 782.781 317.107 784.208 317.823 785.456C318.44 786.529 318.973 787.489 319.359 788.615C319.748 789.756 319.985 791.057 319.999 792.794L320 792.864C319.985 794.604 319.748 795.905 319.358 797.045C318.973 798.172 318.439 799.131 317.823 800.204C317.107 801.452 316.302 802.879 315.68 804.707C315.062 806.528 314.62 808.762 314.62 811.641C314.62 814.522 315.062 816.73 315.679 818.524C316.299 820.323 317.106 821.726 317.823 822.974C319.087 825.176 320 826.765 320 830.371C320 833.978 319.086 835.568 317.824 837.766L317.812 837.786C316.388 840.268 314.62 843.357 314.62 849.101C314.62 854.848 316.39 857.938 317.815 860.421L317.823 860.435C318.447 861.522 318.986 862.459 319.375 863.588C319.767 864.725 320 866.033 320 867.832C320 871.441 319.086 873.031 317.824 875.229L317.749 875.358C316.401 877.705 314.777 880.535 314.63 885.777C314.622 886.06 314.622 886.267 314.63 886.551C314.777 891.793 316.401 894.623 317.749 896.97L317.823 897.098C319.087 899.299 320 900.889 320 904.496C320 906.295 319.767 907.603 319.375 908.74C318.986 909.868 318.447 910.806 317.823 911.893L317.818 911.9C316.393 914.383 314.62 917.474 314.62 923.226C314.62 928.964 316.384 932.054 317.808 934.534L317.824 934.561C319.086 936.759 320 938.349 320 941.956C320 945.562 319.087 947.152 317.824 949.351C317.106 950.602 316.299 952.005 315.679 953.804C315.061 955.598 314.62 957.805 314.62 960.685L314.633 961.683H285V961.308V960.933H285.55Z" fill="#FBA409"/>
<path d="M285.55 960.933H314.073L314.071 960.688C314.07 957.683 314.534 955.372 315.183 953.488C315.83 951.61 316.656 950.173 317.391 948.894C318.586 946.812 319.45 945.308 319.45 941.956C319.45 938.604 318.586 937.1 317.392 935.021L317.389 935.015C315.908 932.437 314.07 929.231 314.07 923.226C314.07 917.221 315.908 914.016 317.386 911.44L317.391 911.433C317.995 910.381 318.517 909.473 318.879 908.424C319.238 907.384 319.45 906.176 319.45 904.496C319.45 901.143 318.586 899.639 317.392 897.56L317.317 897.429C315.951 895.05 314.311 892.192 314.095 886.938H314.07V885.389H314.095C314.311 880.136 315.951 877.278 317.317 874.898L317.405 874.745C318.593 872.677 319.45 871.171 319.45 867.832C319.45 866.152 319.238 864.943 318.879 863.903C318.517 862.856 317.997 861.95 317.394 860.901L317.386 860.887C315.908 858.311 314.07 855.107 314.07 849.101C314.07 843.095 315.909 839.891 317.387 837.315L317.397 837.298C318.588 835.223 319.45 833.719 319.45 830.371C319.45 827.02 318.586 825.516 317.392 823.437C316.656 822.155 315.83 820.717 315.183 818.839C314.534 816.955 314.07 814.644 314.07 811.641C314.07 808.64 314.533 806.304 315.182 804.395C315.828 802.494 316.655 801.026 317.391 799.745C317.984 798.713 318.496 797.793 318.86 796.73C319.22 795.682 319.438 794.479 319.451 792.864L319.45 792.797C319.438 791.182 319.22 789.978 318.861 788.93C318.496 787.868 317.984 786.947 317.391 785.915C316.655 784.634 315.828 783.167 315.182 781.266C314.533 779.357 314.07 777.02 314.07 774.018C314.07 768.087 315.864 764.885 317.332 762.329L317.391 762.226C318.586 760.144 319.45 758.64 319.45 755.288C319.45 751.936 318.587 750.433 317.393 748.356L317.386 748.344C315.908 745.769 314.07 742.563 314.07 736.558C314.07 730.553 315.908 727.348 317.386 724.772L317.392 724.764C318.586 722.686 319.45 721.182 319.45 717.828C319.45 717.3 319.429 716.82 319.39 716.379C319.36 716.047 319.319 715.734 319.269 715.439L319.17 714.683L319.693 714.69L319.749 714.968C319.829 715.376 319.893 715.814 319.936 716.288C319.977 716.764 320 717.274 320 717.828C320 721.436 319.086 723.026 317.823 725.224L317.809 725.25C316.384 727.731 314.62 730.82 314.62 736.558C314.62 742.31 316.393 745.401 317.818 747.884L317.825 747.896C319.087 750.093 320 751.682 320 755.288C320 758.839 319.114 760.435 317.882 762.582L317.823 762.686C316.396 765.168 314.62 768.261 314.62 774.018C314.62 776.898 315.062 779.132 315.68 780.953C316.302 782.781 317.107 784.208 317.823 785.456C318.44 786.529 318.973 787.489 319.359 788.615C319.748 789.756 319.985 791.057 319.999 792.794L320 792.864C319.985 794.604 319.748 795.905 319.358 797.045C318.973 798.172 318.439 799.131 317.823 800.204C317.107 801.452 316.302 802.879 315.68 804.707C315.062 806.528 314.62 808.762 314.62 811.641C314.62 814.522 315.062 816.73 315.679 818.524C316.299 820.323 317.106 821.726 317.823 822.974C319.087 825.176 320 826.765 320 830.371C320 833.978 319.086 835.568 317.824 837.766L317.812 837.786C316.388 840.268 314.62 843.357 314.62 849.101C314.62 854.848 316.39 857.938 317.815 860.421L317.823 860.435C318.447 861.522 318.986 862.459 319.375 863.588C319.767 864.725 320 866.033 320 867.832C320 871.441 319.086 873.031 317.824 875.229L317.749 875.358C316.401 877.705 314.777 880.535 314.63 885.777C314.622 886.06 314.622 886.267 314.63 886.551C314.777 891.793 316.401 894.623 317.749 896.97L317.823 897.098C319.087 899.299 320 900.889 320 904.496C320 906.295 319.767 907.603 319.375 908.74C318.986 909.868 318.447 910.806 317.823 911.893L317.818 911.9C316.393 914.383 314.62 917.474 314.62 923.226C314.62 928.964 316.384 932.054 317.808 934.534L317.824 934.561C319.086 936.759 320 938.349 320 941.956C320 945.562 319.087 947.152 317.824 949.351C317.106 950.602 316.299 952.005 315.679 953.804C315.061 955.598 314.62 957.805 314.62 960.685L314.633 961.683H285V961.308V960.933H285.55Z" stroke="#FBA409" mask="url(#path-67-outside-1_1029_14229)"/>
<mask id="path-68-outside-2_1029_14229" maskUnits="userSpaceOnUse" x="234" y="713.683" width="37" height="249" fill="black">
<rect fill="white" x="234" y="713.683" width="37" height="249"/>
<path d="M269.45 960.933H240.927L240.929 960.688C240.93 957.683 240.466 955.372 239.817 953.488C239.17 951.61 238.344 950.173 237.609 948.894C236.414 946.812 235.55 945.308 235.55 941.956C235.55 938.604 236.414 937.1 237.608 935.021L237.611 935.015C239.092 932.437 240.93 929.231 240.93 923.226C240.93 917.221 239.092 914.016 237.614 911.44L237.609 911.433C237.005 910.381 236.483 909.473 236.121 908.424C235.762 907.384 235.55 906.176 235.55 904.496C235.55 901.143 236.414 899.639 237.608 897.56L237.683 897.429C239.049 895.05 240.689 892.192 240.905 886.938H240.93V885.389H240.905C240.689 880.136 239.049 877.278 237.683 874.898L237.595 874.745C236.407 872.677 235.55 871.171 235.55 867.832C235.55 866.152 235.762 864.943 236.121 863.903C236.483 862.856 237.003 861.95 237.606 860.901L237.614 860.887C239.092 858.311 240.93 855.107 240.93 849.101C240.93 843.095 239.091 839.891 237.613 837.315L237.603 837.298C236.412 835.223 235.55 833.719 235.55 830.371C235.55 827.02 236.414 825.516 237.608 823.437C238.344 822.155 239.17 820.717 239.817 818.839C240.466 816.955 240.93 814.644 240.93 811.641C240.93 808.64 240.467 806.304 239.818 804.395C239.172 802.494 238.345 801.026 237.609 799.745C237.016 798.713 236.504 797.793 236.14 796.73C235.78 795.682 235.562 794.479 235.549 792.864L235.55 792.797C235.562 791.182 235.78 789.978 236.139 788.93C236.504 787.868 237.016 786.947 237.609 785.915C238.345 784.634 239.172 783.167 239.818 781.266C240.467 779.357 240.93 777.02 240.93 774.018C240.93 768.087 239.136 764.885 237.668 762.329L237.609 762.226C236.414 760.144 235.55 758.64 235.55 755.288C235.55 751.936 236.413 750.433 237.607 748.356L237.614 748.344C239.092 745.769 240.93 742.563 240.93 736.558C240.93 730.553 239.092 727.348 237.614 724.772L237.608 724.764C236.414 722.686 235.55 721.182 235.55 717.828C235.55 717.3 235.571 716.82 235.61 716.379C235.64 716.047 235.681 715.734 235.731 715.439L235.83 714.683L235.307 714.69L235.251 714.968C235.171 715.376 235.107 715.814 235.064 716.288C235.023 716.764 235 717.274 235 717.828C235 721.436 235.914 723.026 237.177 725.224L237.191 725.25C238.616 727.731 240.38 730.82 240.38 736.558C240.38 742.31 238.607 745.401 237.182 747.884L237.175 747.896C235.913 750.093 235 751.682 235 755.288C235 758.839 235.886 760.435 237.118 762.582L237.177 762.686C238.603 765.168 240.38 768.261 240.38 774.018C240.38 776.898 239.938 779.132 239.32 780.953C238.698 782.781 237.893 784.208 237.177 785.456C236.56 786.529 236.027 787.489 235.641 788.615C235.252 789.756 235.015 791.057 235.001 792.794L235 792.864C235.015 794.604 235.252 795.905 235.642 797.045C236.027 798.172 236.561 799.131 237.177 800.204C237.893 801.452 238.698 802.879 239.32 804.707C239.938 806.528 240.38 808.762 240.38 811.641C240.38 814.522 239.938 816.73 239.321 818.524C238.701 820.323 237.894 821.726 237.177 822.974C235.913 825.176 235 826.765 235 830.371C235 833.978 235.914 835.568 237.176 837.766L237.188 837.786C238.612 840.268 240.38 843.357 240.38 849.101C240.38 854.848 238.61 857.938 237.185 860.421L237.177 860.435C236.553 861.522 236.014 862.459 235.625 863.588C235.233 864.725 235 866.033 235 867.832C235 871.441 235.914 873.031 237.176 875.229L237.251 875.358C238.599 877.705 240.223 880.535 240.37 885.777C240.378 886.06 240.378 886.267 240.37 886.551C240.223 891.793 238.599 894.623 237.251 896.97L237.177 897.098C235.913 899.299 235 900.889 235 904.496C235 906.295 235.233 907.603 235.625 908.74C236.014 909.868 236.553 910.806 237.177 911.893L237.182 911.9C238.607 914.383 240.38 917.474 240.38 923.226C240.38 928.964 238.616 932.054 237.192 934.534L237.176 934.561C235.914 936.759 235 938.349 235 941.956C235 945.562 235.913 947.152 237.176 949.351C237.894 950.602 238.701 952.005 239.321 953.804C239.939 955.598 240.38 957.805 240.38 960.685L240.367 961.683H270V961.308V960.933H269.45Z"/>
</mask>
<path d="M269.45 960.933H240.927L240.929 960.688C240.93 957.683 240.466 955.372 239.817 953.488C239.17 951.61 238.344 950.173 237.609 948.894C236.414 946.812 235.55 945.308 235.55 941.956C235.55 938.604 236.414 937.1 237.608 935.021L237.611 935.015C239.092 932.437 240.93 929.231 240.93 923.226C240.93 917.221 239.092 914.016 237.614 911.44L237.609 911.433C237.005 910.381 236.483 909.473 236.121 908.424C235.762 907.384 235.55 906.176 235.55 904.496C235.55 901.143 236.414 899.639 237.608 897.56L237.683 897.429C239.049 895.05 240.689 892.192 240.905 886.938H240.93V885.389H240.905C240.689 880.136 239.049 877.278 237.683 874.898L237.595 874.745C236.407 872.677 235.55 871.171 235.55 867.832C235.55 866.152 235.762 864.943 236.121 863.903C236.483 862.856 237.003 861.95 237.606 860.901L237.614 860.887C239.092 858.311 240.93 855.107 240.93 849.101C240.93 843.095 239.091 839.891 237.613 837.315L237.603 837.298C236.412 835.223 235.55 833.719 235.55 830.371C235.55 827.02 236.414 825.516 237.608 823.437C238.344 822.155 239.17 820.717 239.817 818.839C240.466 816.955 240.93 814.644 240.93 811.641C240.93 808.64 240.467 806.304 239.818 804.395C239.172 802.494 238.345 801.026 237.609 799.745C237.016 798.713 236.504 797.793 236.14 796.73C235.78 795.682 235.562 794.479 235.549 792.864L235.55 792.797C235.562 791.182 235.78 789.978 236.139 788.93C236.504 787.868 237.016 786.947 237.609 785.915C238.345 784.634 239.172 783.167 239.818 781.266C240.467 779.357 240.93 777.02 240.93 774.018C240.93 768.087 239.136 764.885 237.668 762.329L237.609 762.226C236.414 760.144 235.55 758.64 235.55 755.288C235.55 751.936 236.413 750.433 237.607 748.356L237.614 748.344C239.092 745.769 240.93 742.563 240.93 736.558C240.93 730.553 239.092 727.348 237.614 724.772L237.608 724.764C236.414 722.686 235.55 721.182 235.55 717.828C235.55 717.3 235.571 716.82 235.61 716.379C235.64 716.047 235.681 715.734 235.731 715.439L235.83 714.683L235.307 714.69L235.251 714.968C235.171 715.376 235.107 715.814 235.064 716.288C235.023 716.764 235 717.274 235 717.828C235 721.436 235.914 723.026 237.177 725.224L237.191 725.25C238.616 727.731 240.38 730.82 240.38 736.558C240.38 742.31 238.607 745.401 237.182 747.884L237.175 747.896C235.913 750.093 235 751.682 235 755.288C235 758.839 235.886 760.435 237.118 762.582L237.177 762.686C238.603 765.168 240.38 768.261 240.38 774.018C240.38 776.898 239.938 779.132 239.32 780.953C238.698 782.781 237.893 784.208 237.177 785.456C236.56 786.529 236.027 787.489 235.641 788.615C235.252 789.756 235.015 791.057 235.001 792.794L235 792.864C235.015 794.604 235.252 795.905 235.642 797.045C236.027 798.172 236.561 799.131 237.177 800.204C237.893 801.452 238.698 802.879 239.32 804.707C239.938 806.528 240.38 808.762 240.38 811.641C240.38 814.522 239.938 816.73 239.321 818.524C238.701 820.323 237.894 821.726 237.177 822.974C235.913 825.176 235 826.765 235 830.371C235 833.978 235.914 835.568 237.176 837.766L237.188 837.786C238.612 840.268 240.38 843.357 240.38 849.101C240.38 854.848 238.61 857.938 237.185 860.421L237.177 860.435C236.553 861.522 236.014 862.459 235.625 863.588C235.233 864.725 235 866.033 235 867.832C235 871.441 235.914 873.031 237.176 875.229L237.251 875.358C238.599 877.705 240.223 880.535 240.37 885.777C240.378 886.06 240.378 886.267 240.37 886.551C240.223 891.793 238.599 894.623 237.251 896.97L237.177 897.098C235.913 899.299 235 900.889 235 904.496C235 906.295 235.233 907.603 235.625 908.74C236.014 909.868 236.553 910.806 237.177 911.893L237.182 911.9C238.607 914.383 240.38 917.474 240.38 923.226C240.38 928.964 238.616 932.054 237.192 934.534L237.176 934.561C235.914 936.759 235 938.349 235 941.956C235 945.562 235.913 947.152 237.176 949.351C237.894 950.602 238.701 952.005 239.321 953.804C239.939 955.598 240.38 957.805 240.38 960.685L240.367 961.683H270V961.308V960.933H269.45Z" fill="#FBA409"/>
<path d="M269.45 960.933H240.927L240.929 960.688C240.93 957.683 240.466 955.372 239.817 953.488C239.17 951.61 238.344 950.173 237.609 948.894C236.414 946.812 235.55 945.308 235.55 941.956C235.55 938.604 236.414 937.1 237.608 935.021L237.611 935.015C239.092 932.437 240.93 929.231 240.93 923.226C240.93 917.221 239.092 914.016 237.614 911.44L237.609 911.433C237.005 910.381 236.483 909.473 236.121 908.424C235.762 907.384 235.55 906.176 235.55 904.496C235.55 901.143 236.414 899.639 237.608 897.56L237.683 897.429C239.049 895.05 240.689 892.192 240.905 886.938H240.93V885.389H240.905C240.689 880.136 239.049 877.278 237.683 874.898L237.595 874.745C236.407 872.677 235.55 871.171 235.55 867.832C235.55 866.152 235.762 864.943 236.121 863.903C236.483 862.856 237.003 861.95 237.606 860.901L237.614 860.887C239.092 858.311 240.93 855.107 240.93 849.101C240.93 843.095 239.091 839.891 237.613 837.315L237.603 837.298C236.412 835.223 235.55 833.719 235.55 830.371C235.55 827.02 236.414 825.516 237.608 823.437C238.344 822.155 239.17 820.717 239.817 818.839C240.466 816.955 240.93 814.644 240.93 811.641C240.93 808.64 240.467 806.304 239.818 804.395C239.172 802.494 238.345 801.026 237.609 799.745C237.016 798.713 236.504 797.793 236.14 796.73C235.78 795.682 235.562 794.479 235.549 792.864L235.55 792.797C235.562 791.182 235.78 789.978 236.139 788.93C236.504 787.868 237.016 786.947 237.609 785.915C238.345 784.634 239.172 783.167 239.818 781.266C240.467 779.357 240.93 777.02 240.93 774.018C240.93 768.087 239.136 764.885 237.668 762.329L237.609 762.226C236.414 760.144 235.55 758.64 235.55 755.288C235.55 751.936 236.413 750.433 237.607 748.356L237.614 748.344C239.092 745.769 240.93 742.563 240.93 736.558C240.93 730.553 239.092 727.348 237.614 724.772L237.608 724.764C236.414 722.686 235.55 721.182 235.55 717.828C235.55 717.3 235.571 716.82 235.61 716.379C235.64 716.047 235.681 715.734 235.731 715.439L235.83 714.683L235.307 714.69L235.251 714.968C235.171 715.376 235.107 715.814 235.064 716.288C235.023 716.764 235 717.274 235 717.828C235 721.436 235.914 723.026 237.177 725.224L237.191 725.25C238.616 727.731 240.38 730.82 240.38 736.558C240.38 742.31 238.607 745.401 237.182 747.884L237.175 747.896C235.913 750.093 235 751.682 235 755.288C235 758.839 235.886 760.435 237.118 762.582L237.177 762.686C238.603 765.168 240.38 768.261 240.38 774.018C240.38 776.898 239.938 779.132 239.32 780.953C238.698 782.781 237.893 784.208 237.177 785.456C236.56 786.529 236.027 787.489 235.641 788.615C235.252 789.756 235.015 791.057 235.001 792.794L235 792.864C235.015 794.604 235.252 795.905 235.642 797.045C236.027 798.172 236.561 799.131 237.177 800.204C237.893 801.452 238.698 802.879 239.32 804.707C239.938 806.528 240.38 808.762 240.38 811.641C240.38 814.522 239.938 816.73 239.321 818.524C238.701 820.323 237.894 821.726 237.177 822.974C235.913 825.176 235 826.765 235 830.371C235 833.978 235.914 835.568 237.176 837.766L237.188 837.786C238.612 840.268 240.38 843.357 240.38 849.101C240.38 854.848 238.61 857.938 237.185 860.421L237.177 860.435C236.553 861.522 236.014 862.459 235.625 863.588C235.233 864.725 235 866.033 235 867.832C235 871.441 235.914 873.031 237.176 875.229L237.251 875.358C238.599 877.705 240.223 880.535 240.37 885.777C240.378 886.06 240.378 886.267 240.37 886.551C240.223 891.793 238.599 894.623 237.251 896.97L237.177 897.098C235.913 899.299 235 900.889 235 904.496C235 906.295 235.233 907.603 235.625 908.74C236.014 909.868 236.553 910.806 237.177 911.893L237.182 911.9C238.607 914.383 240.38 917.474 240.38 923.226C240.38 928.964 238.616 932.054 237.192 934.534L237.176 934.561C235.914 936.759 235 938.349 235 941.956C235 945.562 235.913 947.152 237.176 949.351C237.894 950.602 238.701 952.005 239.321 953.804C239.939 955.598 240.38 957.805 240.38 960.685L240.367 961.683H270V961.308V960.933H269.45Z" stroke="#FBA409" mask="url(#path-68-outside-2_1029_14229)"/>
</svg>
