<svg width="376" height="618" viewBox="0 0 376 618" fill="none" xmlns="http://www.w3.org/2000/svg">
<path d="M260 254.191H375.574" stroke="#454D7D" stroke-width="2" stroke-miterlimit="22.9256"/>
<path d="M260 616.191H375.574" stroke="#454D7D" stroke-width="2" stroke-miterlimit="22.9256"/>
<path fill-rule="evenodd" clip-rule="evenodd" d="M98.3872 20.1755V253.234H74.2829C73.6198 250.795 72.3453 249.166 71.2574 247.776C69.9477 246.101 69 244.89 69 242.166C69 239.441 69.9477 238.231 71.2574 236.555C72.8077 234.576 74.7365 232.109 74.7365 227.503C74.7365 222.899 72.8077 220.351 71.2574 218.371C69.9674 216.723 69.029 215.432 69 212.804V212.753C69.029 210.126 69.9674 208.834 71.2574 207.186C72.8077 205.206 74.7365 202.657 74.7365 198.053C74.7365 193.447 72.8077 190.981 71.2574 189.002C69.9477 187.327 69 186.116 69 183.392C69 180.666 69.9477 179.457 71.2574 177.782C72.8077 175.8 74.7365 173.336 74.7365 168.73C74.7365 164.124 72.8077 161.659 71.2574 159.679C69.9477 158.003 69 156.794 69 154.067C69 151.342 69.9477 150.131 71.2574 148.457C72.8077 146.474 74.7365 144.09 74.7365 139.405V139.391C74.7365 134.707 72.8077 132.322 71.2574 130.339C69.9477 128.665 69 127.454 69 124.729C69 122.002 69.9477 120.793 71.2574 119.117C72.8077 117.136 74.7365 114.672 74.7365 110.066C74.7365 105.459 72.8077 102.996 71.2574 101.014C69.9477 99.3386 69 98.1291 69 95.4036C69 92.6795 69.9477 91.4685 71.2574 89.7935C72.8077 87.8141 74.7365 85.3479 74.7365 80.743C74.7365 76.137 72.8077 73.5901 71.2574 71.6097C69.9674 69.962 69.029 68.6703 69 66.0431V65.9908C69.029 63.3636 69.9674 62.0727 71.2574 60.4242C72.8077 58.444 74.7365 55.8966 74.7365 51.2922C74.7365 46.686 72.8077 44.2197 71.2574 42.2403C69.9477 40.5653 69 39.3546 69 36.6302C69 33.9056 69.9477 32.6949 71.2574 31.0198C72.8077 29.0379 74.7365 26.5744 74.7365 21.9679C74.7365 21.3309 74.6997 20.7348 74.6321 20.1755H98.3872Z" fill="#CCCCCC"/>
<path d="M98.3872 20.1755V253.234H74.2829C73.6198 250.795 72.3453 249.166 71.2574 247.776C69.9477 246.101 69 244.89 69 242.166C69 239.441 69.9477 238.231 71.2574 236.555C72.8077 234.576 74.7365 232.109 74.7365 227.503C74.7365 222.899 72.8077 220.351 71.2574 218.371C69.9674 216.723 69.029 215.432 69 212.804V212.753C69.029 210.126 69.9674 208.834 71.2574 207.186C72.8077 205.206 74.7365 202.657 74.7365 198.053C74.7365 193.447 72.8077 190.981 71.2574 189.002C69.9477 187.327 69 186.116 69 183.392C69 180.666 69.9477 179.457 71.2574 177.782C72.8077 175.8 74.7365 173.336 74.7365 168.73C74.7365 164.124 72.8077 161.659 71.2574 159.679C69.9477 158.003 69 156.794 69 154.067C69 151.342 69.9477 150.131 71.2574 148.457C72.8077 146.474 74.7365 144.09 74.7365 139.405V139.391C74.7365 134.707 72.8077 132.322 71.2574 130.339C69.9477 128.665 69 127.454 69 124.729C69 122.002 69.9477 120.793 71.2574 119.117C72.8077 117.136 74.7365 114.672 74.7365 110.066C74.7365 105.459 72.8077 102.996 71.2574 101.014C69.9477 99.3386 69 98.1291 69 95.4036C69 92.6795 69.9477 91.4685 71.2574 89.7935C72.8077 87.8141 74.7365 85.3479 74.7365 80.743C74.7365 76.137 72.8077 73.5902 71.2574 71.6097C69.9674 69.962 69.029 68.6703 69 66.0431V65.9908C69.029 63.3636 69.9674 62.0727 71.2574 60.4242C72.8077 58.444 74.7365 55.8966 74.7365 51.2922C74.7365 46.686 72.8077 44.2197 71.2574 42.2403C69.9477 40.5653 69 39.3546 69 36.6302C69 33.9056 69.9477 32.6949 71.2574 31.0198C72.8077 29.0379 74.7365 26.5744 74.7365 21.9679C74.7365 21.3309 74.6997 20.7348 74.6321 20.1755H98.3872Z" stroke="#757EB3" stroke-miterlimit="22.9256"/>
<path fill-rule="evenodd" clip-rule="evenodd" d="M132.08 20.1787V486.586V489.091V614.956H105.958C107.227 613.191 108.43 610.925 108.43 607.227V607.212C108.43 602.529 106.501 600.143 104.951 598.161C103.641 596.487 102.693 595.276 102.693 592.55C102.693 589.824 103.641 588.615 104.951 586.939C106.501 584.958 108.43 582.494 108.43 577.888C108.43 573.281 106.501 570.818 104.951 568.836C103.641 567.161 102.693 565.952 102.693 563.225C102.693 560.502 103.641 559.291 104.951 557.616C106.501 555.636 108.43 553.17 108.43 548.565C108.43 543.959 106.501 541.412 104.951 539.432C103.661 537.784 102.722 536.492 102.693 533.865V533.813C102.722 531.186 103.661 529.894 104.951 528.246C106.501 526.266 108.43 523.718 108.43 519.114C108.43 514.508 106.501 512.041 104.951 510.062C103.641 508.387 102.693 507.176 102.693 504.452C102.693 501.727 103.641 500.517 104.951 498.842C110.062 492.308 109.324 489.223 104.951 483.632C103.641 481.957 102.693 480.747 102.693 478.022C102.693 475.298 103.641 474.087 104.951 472.412C106.501 470.433 108.43 467.966 108.43 463.36C108.43 458.756 106.501 456.208 104.951 454.228C103.661 452.58 102.722 451.288 102.693 448.661V448.609C102.722 445.982 103.661 444.691 104.951 443.043C106.501 441.062 108.43 438.514 108.43 433.909C108.43 429.304 106.501 426.838 104.951 424.858C103.641 423.183 102.693 421.973 102.693 419.248C102.693 416.523 103.641 415.313 104.951 413.639C106.501 411.657 108.43 409.193 108.43 404.587C108.43 399.98 106.501 397.516 104.951 395.535C103.641 393.86 102.693 392.65 102.693 389.924C102.693 387.198 103.641 385.987 104.951 384.314C106.501 382.331 108.43 379.946 108.43 375.262V375.247C108.43 370.563 106.501 368.178 104.951 366.196C103.641 364.522 102.693 363.311 102.693 360.585C102.693 357.859 103.641 356.649 104.951 354.974C106.501 352.992 108.43 350.529 108.43 345.922C108.43 341.315 106.501 338.852 104.951 336.871C103.641 335.195 102.693 333.986 102.693 331.26C102.693 328.536 103.641 327.326 104.951 325.65C106.501 323.671 108.43 321.205 108.43 316.599C108.43 311.994 106.501 309.447 104.951 307.466C103.661 305.819 102.722 304.527 102.693 301.899V301.848C102.722 299.22 103.661 297.93 104.951 296.28C106.501 294.3 108.43 291.753 108.43 287.148C108.43 282.543 106.501 280.076 104.951 278.097C103.641 276.422 102.693 275.211 102.693 272.487C102.693 269.762 103.641 268.551 104.951 266.876C106.501 264.895 108.43 262.431 108.43 257.825C108.43 256.619 108.298 255.562 108.075 254.62L108.106 20.1787H132.08Z" fill="#CCCCCC"/>
<path d="M132.08 20.1787V486.586V489.091V614.956H105.958C107.227 613.191 108.43 610.925 108.43 607.227V607.212C108.43 602.529 106.501 600.143 104.951 598.161C103.641 596.487 102.693 595.276 102.693 592.55C102.693 589.824 103.641 588.615 104.951 586.939C106.501 584.958 108.43 582.494 108.43 577.888C108.43 573.281 106.501 570.818 104.951 568.836C103.641 567.161 102.693 565.952 102.693 563.225C102.693 560.502 103.641 559.291 104.951 557.616C106.501 555.636 108.43 553.17 108.43 548.565C108.43 543.959 106.501 541.412 104.951 539.432C103.661 537.784 102.722 536.492 102.693 533.865V533.813C102.722 531.186 103.661 529.894 104.951 528.246C106.501 526.266 108.43 523.718 108.43 519.114C108.43 514.508 106.501 512.041 104.951 510.062C103.641 508.387 102.693 507.176 102.693 504.452C102.693 501.727 103.641 500.517 104.951 498.842C110.062 492.308 109.324 489.223 104.951 483.632C103.641 481.957 102.693 480.747 102.693 478.022C102.693 475.298 103.641 474.087 104.951 472.412C106.501 470.433 108.43 467.966 108.43 463.36C108.43 458.756 106.501 456.208 104.951 454.228C103.661 452.58 102.722 451.288 102.693 448.661V448.609C102.722 445.982 103.661 444.691 104.951 443.043C106.501 441.062 108.43 438.514 108.43 433.909C108.43 429.304 106.501 426.838 104.951 424.858C103.641 423.183 102.693 421.973 102.693 419.248C102.693 416.523 103.641 415.313 104.951 413.639C106.501 411.657 108.43 409.193 108.43 404.587C108.43 399.98 106.501 397.516 104.951 395.535C103.641 393.86 102.693 392.65 102.693 389.924C102.693 387.198 103.641 385.987 104.951 384.314C106.501 382.331 108.43 379.946 108.43 375.262V375.247C108.43 370.563 106.501 368.178 104.951 366.196C103.641 364.522 102.693 363.311 102.693 360.585C102.693 357.859 103.641 356.649 104.951 354.974C106.501 352.992 108.43 350.529 108.43 345.922C108.43 341.315 106.501 338.852 104.951 336.871C103.641 335.195 102.693 333.986 102.693 331.26C102.693 328.536 103.641 327.326 104.951 325.65C106.501 323.671 108.43 321.205 108.43 316.599C108.43 311.994 106.501 309.447 104.951 307.466C103.661 305.819 102.722 304.527 102.693 301.899V301.848C102.722 299.22 103.661 297.93 104.951 296.28C106.501 294.3 108.43 291.753 108.43 287.148C108.43 282.543 106.501 280.076 104.951 278.097C103.641 276.422 102.693 275.211 102.693 272.487C102.693 269.762 103.641 268.551 104.951 266.876C106.501 264.895 108.43 262.431 108.43 257.825C108.43 256.619 108.298 255.562 108.075 254.62L108.106 20.1787H132.08Z" stroke="#757EB3" stroke-miterlimit="22.9256"/>
<path fill-rule="evenodd" clip-rule="evenodd" d="M98.2432 229.467H108.039V19.9521H98.2432V229.467Z" fill="#FFEC08"/>
<path d="M98.2432 229.467H108.039V19.9521H98.2432V229.467Z" stroke="#757EB3" stroke-miterlimit="22.9256"/>
<path fill-rule="evenodd" clip-rule="evenodd" d="M98.2432 229.468H108.039V253.442H98.2432V229.468Z" fill="#E3000F"/>
<path d="M98.2432 229.468H108.039V253.442H98.2432V229.468Z" stroke="#757EB3" stroke-miterlimit="22.9256"/>
<path fill-rule="evenodd" clip-rule="evenodd" d="M132.081 525.423H141.877V19.95H132.081V525.423Z" fill="#FFEC08"/>
<path d="M132.081 525.423H141.877V19.95H132.081V525.423Z" stroke="#757EB3" stroke-miterlimit="22.9256"/>
<path fill-rule="evenodd" clip-rule="evenodd" d="M132.081 524.243H141.877V614.956H132.081V524.243Z" fill="#00963F"/>
<path d="M132.081 524.243H141.877V614.956H132.081V524.243Z" stroke="#757EB3" stroke-miterlimit="22.9256"/>
<path fill-rule="evenodd" clip-rule="evenodd" d="M269.939 20.1755V253.234H294.044C294.707 250.795 295.981 249.166 297.069 247.776C298.379 246.101 299.327 244.89 299.327 242.166C299.327 239.441 298.379 238.231 297.069 236.555C295.519 234.576 293.59 232.109 293.59 227.503C293.59 222.899 295.519 220.351 297.069 218.371C298.359 216.723 299.298 215.432 299.327 212.804V212.753C299.298 210.126 298.359 208.834 297.069 207.186C295.519 205.206 293.59 202.657 293.59 198.053C293.59 193.447 295.519 190.981 297.069 189.002C298.379 187.327 299.327 186.116 299.327 183.392C299.327 180.666 298.379 179.457 297.069 177.782C295.519 175.8 293.59 173.336 293.59 168.73C293.59 164.124 295.519 161.659 297.069 159.679C298.379 158.003 299.327 156.794 299.327 154.067C299.327 151.342 298.379 150.131 297.069 148.457C295.519 146.474 293.59 144.09 293.59 139.405V139.391C293.59 134.707 295.519 132.322 297.069 130.339C298.379 128.665 299.327 127.454 299.327 124.729C299.327 122.002 298.379 120.793 297.069 119.117C295.519 117.136 293.59 114.672 293.59 110.066C293.59 105.459 295.519 102.996 297.069 101.014C298.379 99.3386 299.327 98.1291 299.327 95.4036C299.327 92.6795 298.379 91.4685 297.069 89.7935C295.519 87.8141 293.59 85.3479 293.59 80.743C293.59 76.137 295.519 73.5901 297.069 71.6097C298.359 69.962 299.298 68.6703 299.327 66.0431V65.9908C299.298 63.3636 298.359 62.0727 297.069 60.4242C295.519 58.444 293.59 55.8966 293.59 51.2922C293.59 46.686 295.519 44.2197 297.069 42.2403C298.379 40.5653 299.327 39.3546 299.327 36.6302C299.327 33.9056 298.379 32.6949 297.069 31.0198C295.519 29.0379 293.59 26.5744 293.59 21.9679C293.59 21.3309 293.627 20.7348 293.695 20.1755H269.939Z" fill="#CCCCCC"/>
<path d="M269.939 20.1755V253.234H294.044C294.707 250.795 295.981 249.166 297.069 247.776C298.379 246.101 299.327 244.89 299.327 242.166C299.327 239.441 298.379 238.231 297.069 236.555C295.519 234.576 293.59 232.109 293.59 227.503C293.59 222.899 295.519 220.351 297.069 218.371C298.359 216.723 299.298 215.432 299.327 212.804V212.753C299.298 210.126 298.359 208.834 297.069 207.186C295.519 205.206 293.59 202.657 293.59 198.053C293.59 193.447 295.519 190.981 297.069 189.002C298.379 187.327 299.327 186.116 299.327 183.392C299.327 180.666 298.379 179.457 297.069 177.782C295.519 175.8 293.59 173.336 293.59 168.73C293.59 164.124 295.519 161.659 297.069 159.679C298.379 158.003 299.327 156.794 299.327 154.067C299.327 151.342 298.379 150.131 297.069 148.457C295.519 146.474 293.59 144.09 293.59 139.405V139.391C293.59 134.707 295.519 132.322 297.069 130.339C298.379 128.665 299.327 127.454 299.327 124.729C299.327 122.002 298.379 120.793 297.069 119.117C295.519 117.136 293.59 114.672 293.59 110.066C293.59 105.459 295.519 102.996 297.069 101.014C298.379 99.3386 299.327 98.1291 299.327 95.4036C299.327 92.6795 298.379 91.4685 297.069 89.7935C295.519 87.8141 293.59 85.3479 293.59 80.743C293.59 76.137 295.519 73.5902 297.069 71.6097C298.359 69.962 299.298 68.6703 299.327 66.0431V65.9908C299.298 63.3636 298.359 62.0727 297.069 60.4242C295.519 58.444 293.59 55.8966 293.59 51.2922C293.59 46.686 295.519 44.2197 297.069 42.2403C298.379 40.5653 299.327 39.3546 299.327 36.6302C299.327 33.9056 298.379 32.6949 297.069 31.0198C295.519 29.0379 293.59 26.5744 293.59 21.9679C293.59 21.3309 293.627 20.7348 293.695 20.1755H269.939Z" stroke="#757EB3" stroke-miterlimit="22.9256"/>
<path fill-rule="evenodd" clip-rule="evenodd" d="M236.246 20.1787V486.586V489.091V614.956H262.368C261.099 613.191 259.897 610.925 259.897 607.227V607.212C259.897 602.529 261.826 600.143 263.376 598.161C264.686 596.487 265.633 595.276 265.633 592.55C265.633 589.824 264.686 588.615 263.376 586.939C261.826 584.958 259.897 582.494 259.897 577.888C259.897 573.281 261.826 570.818 263.376 568.836C264.686 567.161 265.633 565.952 265.633 563.225C265.633 560.502 264.686 559.291 263.376 557.616C261.826 555.636 259.897 553.17 259.897 548.565C259.897 543.959 261.826 541.412 263.376 539.432C264.666 537.784 265.604 536.492 265.633 533.865V533.813C265.604 531.186 264.666 529.894 263.376 528.246C261.826 526.266 259.897 523.718 259.897 519.114C259.897 514.508 261.826 512.041 263.376 510.062C264.686 508.387 265.633 507.176 265.633 504.452C265.633 501.727 264.686 500.517 263.376 498.842C258.265 492.308 259.002 489.223 263.376 483.632C264.686 481.957 265.633 480.747 265.633 478.022C265.633 475.298 264.686 474.087 263.376 472.412C261.826 470.433 259.897 467.966 259.897 463.36C259.897 458.756 261.826 456.208 263.376 454.228C264.666 452.58 265.604 451.288 265.633 448.661V448.609C265.604 445.982 264.666 444.691 263.376 443.043C261.826 441.062 259.897 438.514 259.897 433.909C259.897 429.304 261.826 426.838 263.376 424.858C264.686 423.183 265.633 421.973 265.633 419.248C265.633 416.523 264.686 415.313 263.376 413.639C261.826 411.657 259.897 409.193 259.897 404.587C259.897 399.98 261.826 397.516 263.376 395.535C264.686 393.86 265.633 392.65 265.633 389.924C265.633 387.198 264.686 385.987 263.376 384.314C261.826 382.331 259.897 379.946 259.897 375.262V375.247C259.897 370.563 261.826 368.178 263.376 366.196C264.686 364.522 265.633 363.311 265.633 360.585C265.633 357.859 264.686 356.649 263.376 354.974C261.826 352.992 259.897 350.529 259.897 345.922C259.897 341.315 261.826 338.852 263.376 336.871C264.686 335.195 265.633 333.986 265.633 331.26C265.633 328.536 264.686 327.326 263.376 325.65C261.826 323.671 259.897 321.205 259.897 316.599C259.897 311.994 261.826 309.447 263.376 307.466C264.666 305.819 265.604 304.527 265.633 301.899V301.848C265.604 299.22 264.666 297.93 263.376 296.28C261.826 294.3 259.897 291.753 259.897 287.148C259.897 282.543 261.826 280.076 263.376 278.097C264.686 276.422 265.633 275.211 265.633 272.487C265.633 269.762 264.686 268.551 263.376 266.876C261.826 264.895 259.897 262.431 259.897 257.825C259.897 256.619 260.029 255.562 260.252 254.62L260.22 20.1787H236.246Z" fill="#CCCCCC"/>
<path d="M236.246 20.1787V486.586V489.091V614.956H262.368C261.099 613.191 259.897 610.925 259.897 607.227V607.212C259.897 602.529 261.826 600.143 263.376 598.161C264.686 596.487 265.633 595.276 265.633 592.55C265.633 589.824 264.686 588.615 263.376 586.939C261.826 584.958 259.897 582.494 259.897 577.888C259.897 573.281 261.826 570.818 263.376 568.836C264.686 567.161 265.633 565.952 265.633 563.225C265.633 560.502 264.686 559.291 263.376 557.616C261.826 555.636 259.897 553.17 259.897 548.565C259.897 543.959 261.826 541.412 263.376 539.432C264.666 537.784 265.604 536.492 265.633 533.865V533.813C265.604 531.186 264.666 529.894 263.376 528.246C261.826 526.266 259.897 523.718 259.897 519.114C259.897 514.508 261.826 512.041 263.376 510.062C264.686 508.387 265.633 507.176 265.633 504.452C265.633 501.727 264.686 500.517 263.376 498.842C258.265 492.308 259.002 489.223 263.376 483.632C264.686 481.957 265.633 480.747 265.633 478.022C265.633 475.298 264.686 474.087 263.376 472.412C261.826 470.433 259.897 467.966 259.897 463.36C259.897 458.756 261.826 456.208 263.376 454.228C264.666 452.58 265.604 451.288 265.633 448.661V448.609C265.604 445.982 264.666 444.691 263.376 443.043C261.826 441.062 259.897 438.514 259.897 433.909C259.897 429.304 261.826 426.838 263.376 424.858C264.686 423.183 265.633 421.973 265.633 419.248C265.633 416.523 264.686 415.313 263.376 413.639C261.826 411.657 259.897 409.193 259.897 404.587C259.897 399.98 261.826 397.516 263.376 395.535C264.686 393.86 265.633 392.65 265.633 389.924C265.633 387.198 264.686 385.987 263.376 384.314C261.826 382.331 259.897 379.946 259.897 375.262V375.247C259.897 370.563 261.826 368.178 263.376 366.196C264.686 364.522 265.633 363.311 265.633 360.585C265.633 357.859 264.686 356.649 263.376 354.974C261.826 352.992 259.897 350.529 259.897 345.922C259.897 341.315 261.826 338.852 263.376 336.871C264.686 335.195 265.633 333.986 265.633 331.26C265.633 328.536 264.686 327.326 263.376 325.65C261.826 323.671 259.897 321.205 259.897 316.599C259.897 311.994 261.826 309.447 263.376 307.466C264.666 305.819 265.604 304.527 265.633 301.899V301.848C265.604 299.22 264.666 297.93 263.376 296.28C261.826 294.3 259.897 291.753 259.897 287.148C259.897 282.543 261.826 280.076 263.376 278.097C264.686 276.422 265.633 275.211 265.633 272.487C265.633 269.762 264.686 268.551 263.376 266.876C261.826 264.895 259.897 262.431 259.897 257.825C259.897 256.619 260.029 255.562 260.252 254.62L260.22 20.1787H236.246Z" stroke="#757EB3" stroke-miterlimit="22.9256"/>
<path fill-rule="evenodd" clip-rule="evenodd" d="M270.083 229.467H260.287V19.9521H270.083V229.467Z" fill="#FFEC08"/>
<path d="M270.083 229.467H260.287V19.9521H270.083V229.467Z" stroke="#757EB3" stroke-miterlimit="22.9256"/>
<path fill-rule="evenodd" clip-rule="evenodd" d="M270.083 229.468H260.287V253.442H270.083V229.468Z" fill="#E3000F"/>
<path d="M270.083 229.468H260.287V253.442H270.083V229.468Z" stroke="#757EB3" stroke-miterlimit="22.9256"/>
<path fill-rule="evenodd" clip-rule="evenodd" d="M236.247 525.423H226.451V19.95H236.247V525.423Z" fill="#FFEC08"/>
<path d="M236.247 525.423H226.451V19.9499H236.247V525.423Z" stroke="#757EB3" stroke-miterlimit="22.9256"/>
<path fill-rule="evenodd" clip-rule="evenodd" d="M236.247 524.243H226.451V614.956H236.247V524.243Z" fill="#00963F"/>
<path d="M236.247 524.243H226.451V614.956H236.247V524.243Z" stroke="#757EB3" stroke-miterlimit="22.9256"/>
<path d="M0.975586 1.00098L102.636 57.5042" stroke="#454D7D" stroke-width="2" stroke-miterlimit="22.9256"/>
<path d="M35.2744 407.812L136.935 464.315" stroke="#454D7D" stroke-width="2" stroke-miterlimit="22.9256"/>
</svg>
