<svg width="42" height="44" viewBox="0 0 42 44" fill="none" xmlns="http://www.w3.org/2000/svg">
<path d="M20.783 8.6H27.3298L30.0739 15.776C30.5118 15.5918 30.9697 15.4499 31.4384 15.3338L25.5761 0H13.1233L3.80664 24.3667H5.34102L11.3696 8.6H17.9164V13.6167H13.6164V16.4833H17.199L17.1976 18.6333H21.4997V16.4833H25.083V13.6167H20.783V8.6ZM26.7823 7.16667H20.783V1.43333H24.59L26.7823 7.16667ZM11.9179 7.16667L14.1102 1.43333H17.9164V7.16667H11.9179Z" fill="white"/>
<path d="M10.0333 25.8008H0V27.2341H10.0333V25.8008Z" fill="white"/>
<path d="M0 43.0013H10.0333V28.668H0V43.0013ZM1.43333 34.4013H2.86667V35.8346H1.43333V34.4013ZM1.43333 37.268H2.86667V38.7013H1.43333V37.268ZM1.43333 40.1346H2.86667V41.568H1.43333V40.1346Z" fill="white"/>
<path d="M24.3663 40.1328H14.333V42.9995H24.3663V40.1328Z" fill="white"/>
<path d="M17.1969 20.0664L17.1797 32.9664H21.5005V20.0664H17.1969Z" fill="white"/>
<path d="M15.9678 38.6984H22.736L21.6767 34.3984H17.0428L15.9678 38.6984Z" fill="white"/>
<path d="M33.6831 16.4844C29.3366 16.4844 25.7998 20.0211 25.7998 24.3677C25.7998 28.7143 29.3366 32.251 33.6831 32.251C38.0297 32.251 41.5665 28.7143 41.5665 24.3677C41.5665 20.0211 38.0297 16.4844 33.6831 16.4844ZM33.6831 30.8177C31.3117 30.8177 29.3831 28.8892 29.3831 26.5177V25.6649L32.0176 18.9906C32.3136 18.3384 32.9672 17.9177 33.6831 17.9177C34.3991 17.9177 35.0527 18.3384 35.3487 18.9898L37.6836 24.9038C37.8821 25.409 37.9831 25.9401 37.9831 26.4826C37.9831 28.8892 36.0546 30.8177 33.6831 30.8177Z" fill="white"/>
<path d="M34.0292 19.5497C33.931 19.3383 33.4631 19.2989 33.3276 19.5705L30.8164 25.9374V26.5179C30.8164 28.0988 32.1021 29.3845 33.6831 29.3845C35.264 29.3845 36.5497 28.0988 36.5497 26.5179C36.5497 26.1208 36.4824 25.7668 36.3498 25.4293L34.0292 19.5497Z" fill="white"/>
<path d="M28.667 32.2031V42.9983H38.7003V32.2031C37.2505 33.1341 35.5312 33.6816 33.6837 33.6816C31.8361 33.6816 30.1168 33.1341 28.667 32.2031ZM35.8337 34.3983H37.267V35.8316H35.8337V34.3983ZM35.8337 37.2649H37.267V38.6983H35.8337V37.2649ZM35.8337 40.1316H37.267V41.5649H35.8337V40.1316Z" fill="white"/>
</svg>
