<svg width="13" height="29" viewBox="0 0 13 29" fill="none" xmlns="http://www.w3.org/2000/svg">
<path fill-rule="evenodd" clip-rule="evenodd" d="M1.93095 1.2838C1.52929 1.18862 1.10995 0.892445 0.707739 0.892445C0.265197 0.892445 0 1.24513 0 1.74005C0 2.40124 1.25579 2.68513 1.99502 3.04455V6.50052C1.7011 6.47588 0.379564 5.53869 0.0745911 6.64721C-0.0259615 7.01279 0.0663124 7.27591 0.332058 7.46906C0.549738 7.62694 1.69447 8.12522 1.99502 8.19632V11.5874C1.64806 11.5056 1.11215 11.1311 0.772375 11.1311C0.325966 11.1311 -0.627617 12.2054 0.864097 12.7989C1.26686 12.959 1.65579 13.188 2.05966 13.2832V16.7397C1.64364 16.7044 1.18288 16.2829 0.707739 16.2829C0.265197 16.2829 0 16.6361 0 17.1311C0 17.8174 1.31767 18.1058 1.99502 18.435C1.99502 19.6958 1.99502 20.9566 1.99502 22.2174C1.99502 24.4462 1.74808 23.5358 2.92322 25.0597L4.6431 27.0993C4.91603 27.4414 6.01768 29 6.5 29C7.27459 29 7.13758 28.8041 7.86797 27.9732L10.3757 24.9713C10.9 24.3717 10.9133 23.7486 10.1972 23.4272L4.99836 21.0002C4.81051 20.9112 4.67183 20.8681 4.50387 20.7836C4.19337 20.6285 3.84032 20.4874 3.53977 20.3262V19.0872C3.73259 19.1813 3.92376 19.2507 4.11824 19.3487C4.31161 19.4466 4.52486 19.5317 4.74475 19.6269L7.16576 20.6951C7.37902 20.7914 7.53591 20.8597 7.75027 20.9504L10.7934 22.3019C11.179 22.4693 11.6459 22.696 12.0343 22.8103C12.6249 22.9833 13 22.6613 13 21.9565C13 21.3434 12.0503 21.2001 11.3265 20.848C11.3265 18.0716 11.8028 18.9237 8.23591 17.3282C7.86022 17.1602 7.48785 17.0224 7.09724 16.8517C6.68288 16.6703 6.30829 16.523 5.91878 16.35C5.52596 16.1754 5.14916 16.0338 4.74032 15.849C4.379 15.6855 3.91602 15.4588 3.53977 15.3698V14.1308C4.40055 14.334 11.9254 17.7178 12.0989 17.7178C13.1834 17.7178 13.0663 16.7688 12.8199 16.4654C12.6729 16.284 11.6 15.826 11.3265 15.7611C11.3265 14.1134 11.5718 13.6617 10.5271 13.2457L5.87459 11.308C5.46078 11.1423 3.74199 10.3708 3.47514 10.3484V8.84858L9.9293 11.6994C10.2718 11.8488 11.9094 12.6309 12.1636 12.6309C12.8879 12.6309 13.4066 11.5185 12.3398 11.0824C12.0961 10.9827 11.5746 10.7604 11.3265 10.7397C11.3265 8.2159 11.7017 8.46784 9.44199 7.56255C9.00442 7.38731 8.62267 7.19304 8.2293 7.03069C7.8083 6.85713 7.47571 6.7116 7.05748 6.52293C6.46355 6.25588 3.70773 5.02026 3.47514 5.00066V3.76171C3.71657 3.78186 6.23426 4.95699 6.67459 5.15014L8.82597 6.10025C9.55415 6.40313 11.6553 7.47917 12.2923 7.47917C12.9254 7.47917 13.1856 6.67745 12.8199 6.22677C12.6674 6.0381 12.353 5.94067 12.1077 5.8399C11.8807 5.7464 11.5879 5.58405 11.3265 5.52246C11.3265 2.88834 11.6945 3.83616 7.01326 1.74174C6.36299 1.45118 2.92652 -0.00446853 2.7105 1.03134e-05C1.88564 0.0162461 1.93095 0.823596 1.93095 1.2838Z" fill="#FFEC08"/>
</svg>
