<svg width="36" height="40" viewBox="0 0 36 40" fill="none" xmlns="http://www.w3.org/2000/svg">
<path fill-rule="evenodd" clip-rule="evenodd" d="M14.4654 9.06245C14.1275 8.98369 13.7746 8.73857 13.4362 8.73857C13.0638 8.73857 12.8407 9.03046 12.8407 9.44004C12.8407 9.98723 13.8973 10.2222 14.5194 10.5196V13.3797C14.272 13.3594 13.1601 12.5837 12.9035 13.5011C12.8188 13.8037 12.8965 14.0214 13.1201 14.1813C13.3033 14.3119 14.2665 14.7243 14.5194 14.7832V17.5896C14.2274 17.5219 13.7765 17.2119 13.4906 17.2119C13.115 17.2119 12.3126 18.1011 13.5678 18.5922C13.9067 18.7247 14.2339 18.9142 14.5737 18.993V21.8535C14.2237 21.8244 13.836 21.4755 13.4362 21.4755C13.0638 21.4755 12.8407 21.7678 12.8407 22.1774C12.8407 22.7455 13.9494 22.9841 14.5194 23.2565C14.5194 24.2999 14.5194 25.3434 14.5194 26.3868C14.5194 28.2313 14.3116 27.4779 15.3004 28.7391L16.7475 30.427C16.9772 30.7101 17.9041 32 18.31 32C18.9617 32 18.8464 31.8378 19.461 31.1503L21.5711 28.6659C22.0122 28.1697 22.0234 27.654 21.4209 27.388L17.0464 25.3795C16.8884 25.3058 16.7717 25.2702 16.6304 25.2002C16.3691 25.0719 16.072 24.9551 15.8191 24.8217V23.7963C15.9814 23.8742 16.1422 23.9316 16.3059 24.0127C16.4686 24.0938 16.648 24.1642 16.833 24.2429L18.8702 25.127C19.0496 25.2067 19.1816 25.2632 19.362 25.3383L21.9225 26.4567C22.247 26.5953 22.6398 26.7829 22.9666 26.8775C23.4636 27.0206 23.7792 26.7542 23.7792 26.1709C23.7792 25.6635 22.9801 25.5449 22.3711 25.2535C22.3711 22.9558 22.7718 23.661 19.7706 22.3405C19.4545 22.2015 19.1412 22.0875 18.8125 21.9462C18.4638 21.7961 18.1486 21.6742 17.8209 21.5311C17.4904 21.3865 17.1733 21.2693 16.8293 21.1164C16.5253 20.9811 16.1357 20.7935 15.8191 20.7198V19.6945C16.5434 19.8626 22.8751 22.663 23.021 22.663C23.9336 22.663 23.835 21.8777 23.6277 21.6265C23.504 21.4764 22.6013 21.0974 22.3711 21.0437C22.3711 19.6801 22.5775 19.3062 21.6985 18.9619L17.7837 17.3583C17.4355 17.2212 15.9893 16.5828 15.7648 16.5642V15.323L21.1955 17.6822C21.4837 17.8059 22.8616 18.4532 23.0754 18.4532C23.6849 18.4532 24.1214 17.5325 23.2237 17.1716C23.0187 17.0891 22.5799 16.9052 22.3711 16.8881C22.3711 14.7994 22.6868 15.0079 20.7854 14.2587C20.4172 14.1136 20.096 13.9529 19.765 13.8185C19.4108 13.6749 19.1309 13.5544 18.779 13.3983C18.2793 13.1773 15.9605 12.1547 15.7648 12.1385V11.1131C15.9679 11.1298 18.0864 12.1023 18.4569 12.2622L20.2671 13.0485C20.8798 13.2991 22.6477 14.1897 23.1837 14.1897C23.7165 14.1897 23.9354 13.5262 23.6277 13.1532C23.4994 12.997 23.2349 12.9164 23.0285 12.833C22.8374 12.7556 22.591 12.6213 22.3711 12.5703C22.3711 10.3904 22.6807 11.1748 18.7418 9.44144C18.1947 9.20097 15.3031 7.9963 15.1214 8.00001C14.4273 8.01344 14.4654 8.6816 14.4654 9.06245Z" fill="#999DC0"/>
<path d="M26.7421 4.99975L26.7415 5.0008L35.3536 10.0009V29.9937L26.7415 34.9938L26.7421 34.9949L18.1306 39.9946L9.51919 34.9949L9.5198 34.9938L0.907715 29.9937V10.0009L9.5198 5.0008L9.51919 4.99975L18.1306 0L26.7421 4.99975ZM18.1306 2.13791L12.0371 5.67579L12.0377 5.67686L2.74887 11.0698V28.9248L12.0377 34.3178L12.0371 34.3189L18.1307 37.8568L24.2242 34.3189L24.2236 34.3178L33.5124 28.9248V11.0698L24.2236 5.67686L24.2242 5.67581L18.1306 2.13791Z" fill="#999DC0"/>
</svg>
