<svg width="42" height="42" viewBox="0 0 42 42" fill="none" xmlns="http://www.w3.org/2000/svg">
<path d="M41.5 20.9991C41.5 32.3218 32.3219 41.5 20.9992 41.5C9.677 41.5 0.5 32.3219 0.5 20.9991C0.5 9.67685 9.67695 0.5 20.9992 0.5C32.322 0.5 41.5 9.67689 41.5 20.9991Z" fill="#2E50E9" stroke="#9EA4C9"/>
<path fill-rule="evenodd" clip-rule="evenodd" d="M32.5566 28.9343H31.3233V23.783C31.3233 23.6481 31.1886 23.5371 31.0251 23.5371H29.6357V19.6016L29.7822 19.6506C29.8584 19.6751 29.9353 19.689 30.0108 19.689C30.2438 19.689 30.468 19.5744 30.562 19.385L31.4114 17.6954C31.4713 17.5739 31.4713 17.4389 31.4114 17.3195C31.3514 17.2 31.2338 17.1022 31.0873 17.0533L18.194 12.6545C18.666 11.9125 19.0892 11.1599 19.4525 10.4129C19.5768 10.1613 19.4303 9.87841 19.1292 9.77569L14.0369 8.03779C13.7335 7.93438 13.3872 8.05042 13.2563 8.29778C11.9963 10.7323 11.1825 13.4435 10.6979 16.8325C10.6683 17.0512 10.817 17.2609 11.0634 17.344L13.2467 18.0888C13.4938 18.1733 13.7764 18.1119 13.9429 17.9393C14.8899 16.9506 15.7067 16.0205 16.4428 15.0982L19.0167 15.9786L18.8909 16.7011L18.507 18.8939L16.7484 28.9343H12.6296H9.59556C9.26781 28.9343 9 29.1552 9 29.427V31.6595C9 31.9299 9.26781 32.15 9.59556 32.15H32.5566C32.8829 32.15 33.15 31.9299 33.15 31.6595V29.427C33.15 29.1552 32.8829 28.9343 32.5566 28.9343ZM28.4438 23.5371H27.0573C26.8909 23.5371 26.7563 23.6481 26.7563 23.783V28.9343H25.4023L23.6437 18.8939L23.3951 17.4719L28.4438 19.1942V23.5371ZM22.5532 20.2074L20.4572 18.9203L22.1241 17.7584L22.5532 20.2074ZM21.854 21.1229L19.1958 22.5169L19.6723 19.7841L21.854 21.1229ZM22.8469 21.8811L23.4876 25.5362L20.0355 23.3534L22.8469 21.8811ZM20.2863 28.9343L23.7236 26.8849L24.0824 28.9343H20.2863ZM21.4589 16.8115L20.0199 17.8135L20.2656 16.4027L21.4589 16.8115ZM18.9316 24.013L22.5088 26.2763L18.0727 28.9267L18.9316 24.013Z" fill="#FEFEFE"/>
</svg>
