<svg width="42" height="42" viewBox="0 0 42 42" fill="none" xmlns="http://www.w3.org/2000/svg">
<path d="M41.5 20.9991C41.5 32.3218 32.3219 41.5 20.9992 41.5C9.677 41.5 0.5 32.3219 0.5 20.9991C0.5 9.67685 9.67695 0.5 20.9992 0.5C32.322 0.5 41.5 9.67689 41.5 20.9991Z" fill="#2E50E9" stroke="#9EA4C9"/>
<path fill-rule="evenodd" clip-rule="evenodd" d="M13 36H30V32.7954C30 32.5803 29.8217 32.4043 29.6037 32.4043H27.4907L26.891 27.0471H27.2589C27.3853 27.0471 27.4887 26.945 27.4887 26.8203V25.1884C27.4887 25.0636 27.3853 24.9616 27.2589 24.9616H26.6576L26.2104 20.9668H26.4862C26.6126 20.9668 26.7161 20.8647 26.7161 20.7399V19.1081C26.7161 18.9833 26.6126 18.8813 26.4862 18.8813H25.9769L25.532 14.9061H25.8072C25.9296 14.9061 26.0298 14.8073 26.0298 14.6864V13.106C26.0298 12.9852 25.9296 12.8864 25.8072 12.8864H25.3059L24.5445 6.08462H24.0717H23.7251H22.6197V5.54558H20.3812V6.08462H19.2435H18.7891H18.4242L17.6628 12.8864H17.1928C17.0703 12.8864 16.9702 12.9852 16.9702 13.106V14.6864C16.9702 14.8073 17.0703 14.9061 17.1928 14.9061H17.4367L16.9917 18.8813H16.5138C16.3874 18.8813 16.284 18.9833 16.284 19.1081V20.7399C16.284 20.8647 16.3874 20.9668 16.5138 20.9668H16.7583L16.3111 24.9616H15.7411C15.6147 24.9616 15.5113 25.0636 15.5113 25.1884V26.8203C15.5113 26.945 15.6147 27.0471 15.7411 27.0471H16.0777L15.5083 32.1336L15.4412 32.1721L15.4935 32.2658L15.478 32.4043H13.3963C13.1783 32.4043 13 32.5803 13 32.7954V36ZM26.1433 32.4043L21.9001 29.9359V32.4043H26.1433ZM20.6225 29.1927L16.9341 27.0471H16.897L16.384 31.63L20.6225 29.1927ZM18.5402 27.0471L21.1007 28.5366V27.0471H18.5402ZM22.2355 29.1968L26.5963 31.7336L26.0717 27.0471H25.9286L25.9396 27.0668L22.2355 29.1968ZM16.6576 32.4043L21.1007 29.8493V32.4043H16.6576ZM24.3538 27.0471L21.9001 28.458V27.0471H24.3538ZM23.9177 24.9616L21.9001 23.8017V24.9616H23.9177ZM20.7253 23.1263L17.5408 21.2956L17.1304 24.9616H17.637L20.7253 23.1263ZM18.5893 20.9668L21.1007 22.4106V20.9668H18.5893ZM22.3254 23.1146L25.5382 24.9616H25.8382L25.4253 21.2724L22.3254 23.1146ZM19.2174 24.9616L21.1007 23.8424V24.9616H19.2174ZM24.3592 20.9668L21.9001 22.4281V20.9668H24.3592ZM23.9944 18.8813L21.9001 17.6806V18.8813H23.9944ZM20.7461 17.019L18.1839 15.5502L17.8284 18.727L20.7461 17.019ZM18.6843 14.9061L21.1007 16.2914V14.9061H18.6843ZM22.3571 17.0117L25.126 18.599L24.789 15.5882L22.3571 17.0117ZM19.1633 18.8813L21.1007 17.7471V18.8813H19.1633ZM24.3557 14.9061L21.9001 16.3435V14.9061H24.3557ZM24.0776 12.8864L21.9001 11.6106V12.8864H24.0776ZM20.7246 10.9219L18.8265 9.80975L18.5601 12.1901L20.7246 10.9219ZM18.9249 8.93143L21.1007 10.2063V8.05659H19.0228L18.9249 8.93143ZM22.322 10.9219L24.4031 12.1412L24.1469 9.8526L22.322 10.9219ZM18.969 12.8864L21.1007 11.6374V12.8864H18.969ZM24.0486 8.9743L21.9001 10.2331V8.05659H23.9459L24.0486 8.9743ZM20.9874 5.53904H22.0135V5H20.9874V5.53904Z" fill="white"/>
</svg>
