<svg width="36" height="41" viewBox="0 0 36 41" fill="none" xmlns="http://www.w3.org/2000/svg">
<path fill-rule="evenodd" clip-rule="evenodd" d="M14.6026 9.88472C14.2628 9.80595 13.9079 9.56084 13.5676 9.56084C13.1931 9.56084 12.9688 9.85272 12.9688 10.2623C12.9688 10.8095 14.0313 11.0444 14.6568 11.3419V14.202C14.4081 14.1816 13.2899 13.406 13.0319 14.3234C12.9468 14.626 13.0249 14.8437 13.2497 15.0036C13.4339 15.1342 14.4025 15.5466 14.6568 15.6054V18.4118C14.3633 18.3442 13.9098 18.0342 13.6223 18.0342C13.2446 18.0342 12.4377 18.9233 13.6999 19.4145C14.0407 19.547 14.3698 19.7365 14.7115 19.8153V22.6758C14.3595 22.6466 13.9696 22.2978 13.5676 22.2978C13.1931 22.2978 12.9688 22.5901 12.9688 22.9997C12.9688 23.5677 14.0837 23.8063 14.6568 24.0788C14.6568 25.1222 14.6568 26.1656 14.6568 27.2091C14.6568 29.0536 14.4479 28.3002 15.4422 29.5614L16.8975 31.2493C17.1285 31.5323 18.0606 32.8223 18.4688 32.8223C19.1242 32.8223 19.0082 32.6601 19.6263 31.9725L21.7482 29.4882C22.1918 28.9919 22.203 28.4762 21.5972 28.2103L17.1981 26.2018C17.0392 26.1281 16.9218 26.0924 16.7797 26.0225C16.517 25.8941 16.2183 25.7774 15.9639 25.6439V24.6186C16.1271 24.6964 16.2889 24.7539 16.4534 24.835C16.617 24.916 16.7975 24.9864 16.9835 25.0652L19.0321 25.9492C19.2125 26.0289 19.3453 26.0855 19.5267 26.1606L22.1016 27.279C22.4279 27.4175 22.8229 27.6052 23.1516 27.6997C23.6513 27.8429 23.9688 27.5765 23.9688 26.9931C23.9688 26.4858 23.1652 26.3672 22.5527 26.0758C22.5527 23.7781 22.9557 24.4833 19.9376 23.1628C19.6197 23.0238 19.3046 22.9098 18.9741 22.7685C18.6235 22.6184 18.3065 22.4965 17.977 22.3533C17.6446 22.2088 17.3257 22.0916 16.9798 21.9387C16.6741 21.8034 16.2823 21.6157 15.9639 21.5421V20.5167C16.6923 20.6849 23.0595 23.4853 23.2063 23.4853C24.124 23.4853 24.0249 22.6999 23.8164 22.4488C23.692 22.2987 22.7842 21.9197 22.5527 21.8659C22.5527 20.5024 22.7603 20.1285 21.8763 19.7842L17.9396 18.1806C17.5894 18.0435 16.135 17.405 15.9092 17.3865V16.1452L21.3705 18.5045C21.6603 18.6282 23.0459 19.2755 23.261 19.2755C23.8739 19.2755 24.3128 18.3548 23.4101 17.9939C23.204 17.9114 22.7626 17.7275 22.5527 17.7103C22.5527 15.6216 22.8702 15.8301 20.9581 15.0809C20.5879 14.9359 20.2649 14.7751 19.932 14.6408C19.5758 14.4971 19.2944 14.3767 18.9405 14.2206C18.4379 13.9995 16.1061 12.977 15.9092 12.9607V11.9354C16.1135 11.9521 18.2439 12.9246 18.6165 13.0844L20.4369 13.8708C21.053 14.1214 22.8309 15.0119 23.3699 15.0119C23.9057 15.0119 24.1258 14.3484 23.8164 13.9755C23.6873 13.8193 23.4213 13.7387 23.2138 13.6553C23.0216 13.5779 22.7739 13.4435 22.5527 13.3926C22.5527 11.2126 22.8641 11.997 18.903 10.2637C18.3528 10.0232 15.445 8.81857 15.2623 8.82227C14.5643 8.83571 14.6026 9.50386 14.6026 9.88472Z" fill="#009847"/>
<path d="M18.597 1.00041L26.9483 5.82202L26.9477 5.82306L35.2971 10.6436L35.6081 10.8231V11.1764V20.8196V30.4628V30.816L35.2971 30.9956L26.9477 35.8161L26.9483 35.8171L18.597 40.6387L18.2884 40.8169L17.9799 40.6387L9.62861 35.8171L9.62922 35.8161L1.27975 30.9956L0.96875 30.816V30.4628V20.8196V11.1764V10.8231L1.27975 10.6436L9.62922 5.82306L9.62861 5.82202L17.9799 1.00041L18.2884 0.822266L18.597 1.00041ZM18.2884 2.96017L12.1606 6.49806L12.1612 6.49912L2.82025 11.8921V29.7471L12.1612 35.1401L12.1606 35.1411L18.2885 38.679L24.4163 35.1412L24.4156 35.1401L33.7566 29.7471V11.8921L24.4156 6.49912L24.4163 6.49807L18.2884 2.96017Z" fill="#009847"/>
</svg>
