<svg width="16" height="26" viewBox="0 0 16 26" fill="none" xmlns="http://www.w3.org/2000/svg">
<path fill-rule="evenodd" clip-rule="evenodd" d="M7.55153 2.59246H4.8081L7.55153 4.8119V2.59246ZM2.29355 0H13.7065V1.81467H12.4544L16 26H0L3.57093 1.81467H2.29355V0ZM14.6287 22.9396L14.0675 19.158L8.95459 22.073L10.5694 22.9396H14.6287ZM5.60382 22.9396L7.08028 22.111L1.95445 19.2773L1.41403 22.9396H5.60382ZM10.9931 2.59246H8.48137V4.75967L10.9931 2.59246ZM7.55153 10.7595H4.20188L7.55181 12.9463L7.55153 10.7595ZM11.9418 10.7595H8.48137V13.0567L11.9418 10.7595ZM8.48137 9.78465H12.0371L8.48137 6.86991V9.78465ZM4.01996 9.78465H7.55153V6.8521L4.01996 9.78465ZM7.55153 18.6847H2.98102L7.55181 21.2851L7.55153 18.6847ZM13.0201 18.6847H8.48137V21.2884L13.0201 18.6847ZM8.48137 17.7095H12.7347L8.48137 14.7992V17.7095ZM3.16716 17.7095H7.55153V14.9197L3.16716 17.7095ZM3.15394 11.1533L2.26346 17.1858L7.18937 13.9152L3.15394 11.1533ZM4.29271 3.43614L7.22761 5.84195L3.45733 9.09588L4.29271 3.43614ZM12.5373 8.84393L11.7273 3.3854L8.79657 5.8185L12.5373 8.84393ZM13.7461 16.9902L12.931 11.4972L9.08253 13.9458L13.7461 16.9902Z" fill="white"/>
</svg>
