<svg width="42" height="42" viewBox="0 0 42 42" fill="none" xmlns="http://www.w3.org/2000/svg">
<path d="M41.5 20.9991C41.5 32.3218 32.3219 41.5 20.9992 41.5C9.677 41.5 0.5 32.3219 0.5 20.9991C0.5 9.67685 9.67695 0.5 20.9992 0.5C32.322 0.5 41.5 9.67689 41.5 20.9991Z" fill="#2E50E9" stroke="#9EA4C9"/>
<path fill-rule="evenodd" clip-rule="evenodd" d="M15.1437 28.201C15.5262 28.201 15.8267 27.9005 15.8267 27.5187C15.8267 27.314 15.54 26.7131 15.1437 26.0576C14.7482 26.7131 14.4614 27.314 14.4614 27.5187C14.4614 27.9005 14.7619 28.201 15.1437 28.201Z" fill="white"/>
<path fill-rule="evenodd" clip-rule="evenodd" d="M17.19 20.2983V17.2815H15.8254V11.0477C15.8254 10.6714 16.1307 10.3654 16.5076 10.3654H20.6029C20.9792 10.3654 21.2853 10.6714 21.2853 11.0477V11.799C19.7283 12.1153 18.5553 13.493 18.5553 15.143V20.8441C20.7938 21.991 22.3777 24.2157 22.623 26.8367C22.6368 27.0552 22.6505 27.2875 22.6505 27.5197V26.8367C22.6505 26.5624 22.6505 10.1586 22.6505 11.0477C22.6505 9.91878 21.7318 9 20.6029 9H16.5076C15.3787 9 14.46 9.91878 14.46 11.0477V17.2815H13.0947V20.2983C13.7502 20.1074 14.4325 20.0116 15.1424 20.0116C15.8522 20.0116 16.5352 20.1074 17.19 20.2983Z" fill="white"/>
<path fill-rule="evenodd" clip-rule="evenodd" d="M30.8871 12.5024V28.2004H29.5218V10.4547H28.1564V11.8194H25.381V10.4547H24.0158V28.2004H21.2127C21.2382 27.973 21.2858 27.7497 21.2858 27.5181C21.2858 24.1327 18.5283 21.3751 15.1429 21.3751C11.7575 21.3751 9 24.1327 9 27.5181C9 28.747 9.39215 29.9255 10.0628 30.9303H9V32.2957H9.3687C9.71261 32.2957 22.9647 32.2957 22.6511 32.2957V30.9303H20.2237C20.5077 30.5051 20.7268 30.0462 20.8984 29.5658H24.0158V32.2957H29.5218V29.5658H30.8871V32.2957H32.2518V15.2323C32.2518 14.113 31.7197 13.1303 30.8871 12.5024ZM14.5832 24.4056L15.1429 23.5869L15.7025 24.4056C16.1533 25.0473 17.1905 26.6442 17.1905 27.5181C17.1905 28.6512 16.2759 29.5658 15.1429 29.5658C14.0098 29.5658 13.0953 28.6512 13.0953 27.5181C13.0953 26.6442 14.1332 25.0473 14.5832 24.4056ZM28.1564 30.9303H25.381V29.5658H28.1564V30.9303ZM28.1564 28.2004H25.381V26.8351H28.1564V28.2004ZM28.1564 25.4704H25.381V24.1052H28.1564V25.4704ZM28.1564 22.7405H25.381V21.3751H28.1564V22.7405ZM28.1564 20.0099H25.381V18.6452H28.1564V20.0099ZM28.1564 17.2799H25.381V15.9147H28.1564V17.2799ZM28.1564 14.55H25.381V13.1846H28.1564V14.55Z" fill="white"/>
</svg>
