<svg width="14" height="8" viewBox="0 0 14 8" fill="none" xmlns="http://www.w3.org/2000/svg">
<path d="M13.776 0.668566L13.3178 0.222111C13.1731 0.0826158 12.9813 0.00540055 12.776 0.00540055C12.5711 0.00540055 12.3788 0.0826158 12.2342 0.222111L7.00328 5.28322L1.76585 0.216242C1.62165 0.0767468 1.42938 0 1.22404 0C1.01918 0 0.826894 0.0767468 0.682694 0.216242L0.224001 0.660465C-0.0746669 0.948936 -0.0746669 1.41933 0.224001 1.70825L6.45959 7.76207C6.60379 7.90157 6.79562 8 7.00282 8H7.00516C7.21003 8 7.40225 7.90157 7.54645 7.76207L13.776 1.72451C13.9207 1.58501 13.9995 1.3936 14 1.19542C14 0.996788 13.9207 0.808061 13.776 0.668566Z" fill="#9EA4C9"/>
</svg>
