<svg width="25" height="24" viewBox="0 0 25 24" fill="none" xmlns="http://www.w3.org/2000/svg">
<g clip-path="url(#clip0_105_5043)">
<path d="M14.3062 0.609875C14.1875 0.5135 14.0313 0.476656 13.8822 0.50989L0.882194 3.50989C0.653397 3.56248 0.49196 3.76714 0.494163 4.00189V21.0019C0.494257 21.2486 0.674303 21.4584 0.918147 21.4959L13.9181 23.4959C14.1911 23.5379 14.4464 23.3507 14.4883 23.0778C14.4922 23.0527 14.4941 23.0273 14.4941 23.002V1.00189C14.4946 0.849406 14.4254 0.705078 14.3062 0.609875Z" fill="#4CAF50"/>
<path d="M23.9942 21.5017H13.9942C13.718 21.5017 13.4941 21.2778 13.4941 21.0017C13.4941 20.7255 13.718 20.5017 13.9942 20.5017H23.4942V3.50169H13.9942C13.718 3.50169 13.4941 3.27782 13.4941 3.00168C13.4941 2.72554 13.718 2.50171 13.9942 2.50171H23.9941C24.2703 2.50171 24.4942 2.72558 24.4942 3.00172V21.0017C24.4942 21.2779 24.2703 21.5017 23.9942 21.5017Z" fill="#4CAF50"/>
<path d="M9.99498 16.5029C9.82258 16.5029 9.66236 16.414 9.571 16.2679L4.57098 8.26786C4.41728 8.03845 4.47869 7.72786 4.70809 7.57416C4.9375 7.42045 5.24809 7.48186 5.4018 7.71127C5.40784 7.72027 5.41356 7.72945 5.419 7.73883L10.419 15.7388C10.5648 15.9734 10.4929 16.2817 10.2584 16.4275C10.1793 16.4766 10.0881 16.5027 9.99498 16.5029Z" fill="#FAFAFA"/>
<path d="M4.99703 16.5019C4.72089 16.5014 4.49749 16.2771 4.49805 16.0009C4.49824 15.9075 4.52458 15.8161 4.57403 15.7369L9.57405 7.73691C9.71252 7.49799 10.0185 7.41657 10.2573 7.55504C10.4963 7.69351 10.5777 7.99946 10.4392 8.23833C10.4338 8.24771 10.4281 8.2569 10.422 8.2659L5.42205 16.2659C5.33074 16.4128 5.17 16.5021 4.99703 16.5019Z" fill="#FAFAFA"/>
<path d="M17.9942 21.502C17.718 21.502 17.4941 21.2781 17.4941 21.002V3.00197C17.4941 2.72583 17.718 2.50195 17.9942 2.50195C18.2703 2.50195 18.4942 2.72583 18.4942 3.00197V21.002C18.4941 21.2782 18.2703 21.502 17.9942 21.502Z" fill="#4CAF50"/>
<path d="M23.9942 18.502H13.9942C13.718 18.502 13.4941 18.2781 13.4941 18.002C13.4941 17.7258 13.718 17.502 13.9942 17.502H23.9941C24.2703 17.502 24.4942 17.7258 24.4942 18.002C24.4942 18.2782 24.2703 18.502 23.9942 18.502Z" fill="#4CAF50"/>
<path d="M23.9942 15.502H13.9942C13.718 15.502 13.4941 15.2781 13.4941 15.002C13.4941 14.7258 13.718 14.502 13.9942 14.502H23.9941C24.2703 14.502 24.4942 14.7258 24.4942 15.002C24.4942 15.2782 24.2703 15.502 23.9942 15.502Z" fill="#4CAF50"/>
<path d="M23.9942 12.502H13.9942C13.718 12.502 13.4941 12.2781 13.4941 12.002C13.4941 11.7258 13.718 11.502 13.9942 11.502H23.9941C24.2703 11.502 24.4942 11.7258 24.4942 12.002C24.4942 12.2782 24.2703 12.502 23.9942 12.502Z" fill="#4CAF50"/>
<path d="M23.9942 9.50198H13.9942C13.718 9.50198 13.4941 9.27811 13.4941 9.00197C13.4941 8.72583 13.718 8.50195 13.9942 8.50195H23.9941C24.2703 8.50195 24.4942 8.72583 24.4942 9.00197C24.4942 9.27811 24.2703 9.50198 23.9942 9.50198Z" fill="#4CAF50"/>
<path d="M23.9942 6.50198H13.9942C13.718 6.50198 13.4941 6.27811 13.4941 6.00197C13.4941 5.72583 13.718 5.50195 13.9942 5.50195H23.9941C24.2703 5.50195 24.4942 5.72583 24.4942 6.00197C24.4942 6.27816 24.2703 6.50198 23.9942 6.50198Z" fill="#4CAF50"/>
</g>
<defs>
<clipPath id="clip0_105_5043">
<rect width="24" height="24" fill="white" transform="translate(0.494141)"/>
</clipPath>
</defs>
</svg>
