<svg width="31" height="10" viewBox="0 0 31 10" fill="none" xmlns="http://www.w3.org/2000/svg">
<path fill-rule="evenodd" clip-rule="evenodd" d="M5.02575 0.714678H25.931C28.3309 0.714678 30.2938 2.67752 30.2938 5.07774V5.62366C30.2938 8.02308 28.3309 9.98633 25.931 9.98633H5.02575C2.6258 9.98633 0.662964 8.02308 0.662964 5.62366V5.07774C0.662964 2.67752 2.6258 0.714678 5.02575 0.714678Z" fill="#9EA4C9" fill-opacity="0.3"/>
<path fill-rule="evenodd" clip-rule="evenodd" d="M5.81431 2.2514H25.1426C26.7472 2.2514 28.06 3.56419 28.06 5.16874V5.53344C28.06 7.13838 26.7472 8.45117 25.1426 8.45117H5.81431C4.20977 8.45117 2.89697 7.13838 2.89697 5.53344V5.16874C2.89697 3.56419 4.20977 2.2514 5.81431 2.2514Z" fill="#9EA4C9"/>
</svg>
