<svg width="23" height="23" viewBox="0 0 23 23" fill="none" xmlns="http://www.w3.org/2000/svg">
<path d="M22.9794 11.3502C22.9794 17.4317 18.0496 22.3613 11.9683 22.3613C5.88676 22.3613 0.95813 17.4317 0.95813 11.3502C0.95813 5.26883 5.88676 0.340241 11.9683 0.340241C18.0496 0.340241 22.9794 5.26883 22.9794 11.3502Z" fill="#2E50E9" fill-opacity="0.3"/>
<path d="M20.4057 11.3502C20.4057 16.0105 16.6285 19.7876 11.9683 19.7876C7.30841 19.7876 3.53149 16.0105 3.53149 11.3502C3.53149 6.6904 7.30841 2.91352 11.9683 2.91352C16.6285 2.91352 20.4057 6.6904 20.4057 11.3502Z" fill="#2E50E9"/>
<path fill-rule="evenodd" clip-rule="evenodd" d="M9.58853 16.1235C9.75441 16.1235 9.88486 15.9931 9.88486 15.8272C9.88486 15.7384 9.76041 15.4776 9.58853 15.1931C9.41651 15.4776 9.29211 15.7384 9.29211 15.8272C9.29211 15.9931 9.42251 16.1235 9.58853 16.1235Z" fill="white"/>
<path fill-rule="evenodd" clip-rule="evenodd" d="M10.4773 10.9024V9.5927H9.88467V6.88632C9.88467 6.7231 10.0173 6.59003 10.1809 6.59003H11.9587C12.1223 6.59003 12.255 6.7231 12.255 6.88632V7.21262C11.5792 7.35009 11.0697 7.94815 11.0697 8.66435V11.1395C12.0418 11.6373 12.729 12.603 12.8355 13.7408C12.8415 13.8356 12.8478 13.9362 12.8478 14.0371V13.7408C12.8478 13.6217 12.8478 6.50042 12.8478 6.88632C12.8478 6.39654 12.4489 5.9977 11.9587 5.9977H10.1809C9.69074 5.9977 9.29192 6.39654 9.29192 6.88632V9.5927H8.69934V10.9024C8.9839 10.8193 9.28018 10.7777 9.58834 10.7777C9.89637 10.7777 10.1926 10.8193 10.4773 10.9024Z" fill="white"/>
<path fill-rule="evenodd" clip-rule="evenodd" d="M16.4233 7.51805V14.3331H15.8305V6.6293H15.2379V7.22202H14.0328V6.6293H13.4406V14.3331H12.2234C12.2344 14.2345 12.2552 14.1373 12.2552 14.0368C12.2552 12.5672 11.0581 11.3701 9.5885 11.3701C8.1189 11.3701 6.92175 12.5672 6.92175 14.0368C6.92175 14.5706 7.09185 15.0819 7.38281 15.5181H6.92175V16.1108H7.0816C7.23095 16.1108 12.9839 16.1108 12.8479 16.1108V15.5181H11.794C11.9172 15.3337 12.0125 15.1345 12.087 14.9258H13.4406V16.1108H15.8305V14.9258H16.4233V16.1108H17.0156V8.70336C17.0156 8.21732 16.7846 7.79088 16.4233 7.51805ZM9.3454 12.6855L9.5885 12.3302L9.83144 12.6855C10.0269 12.964 10.4775 13.6577 10.4775 14.0368C10.4775 14.5286 10.0803 14.9258 9.5885 14.9258C9.09672 14.9258 8.6995 14.5286 8.6995 14.0368C8.6995 13.6577 9.14991 12.964 9.3454 12.6855ZM15.2379 15.5181H14.0328V14.9258H15.2379V15.5181ZM15.2379 14.3331H14.0328V13.7405H15.2379V14.3331ZM15.2379 13.1478H14.0328V12.5554H15.2379V13.1478ZM15.2379 11.9627H14.0328V11.3701H15.2379V11.9627ZM15.2379 10.7774H14.0328V10.1847H15.2379V10.7774ZM15.2379 9.59238H14.0328V8.99979H15.2379V9.59238ZM15.2379 8.40707H14.0328V7.81435H15.2379V8.40707Z" fill="white"/>
</svg>
