<svg width="23" height="23" viewBox="0 0 23 23" fill="none" xmlns="http://www.w3.org/2000/svg">
<path d="M22.8612 11.3502C22.8612 17.4317 17.9315 22.3613 11.85 22.3613C5.76896 22.3613 0.840088 17.4317 0.840088 11.3502C0.840088 5.26883 5.76896 0.340241 11.85 0.340241C17.9315 0.340241 22.8612 5.26883 22.8612 11.3502Z" fill="#2E50E9" fill-opacity="0.3"/>
<path d="M20.2877 11.3502C20.2877 16.0105 16.5102 19.7876 11.8503 19.7876C7.1905 19.7876 3.41321 16.0105 3.41321 11.3502C3.41321 6.6904 7.1905 2.91352 11.8503 2.91352C16.5102 2.91352 20.2877 6.6904 20.2877 11.3502Z" fill="#2E50E9"/>
<path fill-rule="evenodd" clip-rule="evenodd" d="M14.2204 7.49673L14.0714 10.1816L14.7575 9.85281L14.6268 7.49673H14.2204Z" fill="white"/>
<path fill-rule="evenodd" clip-rule="evenodd" d="M15.7617 7.49654L15.6552 9.42285L16.2588 9.13363L16.168 7.49654H15.7617Z" fill="white"/>
<path fill-rule="evenodd" clip-rule="evenodd" d="M8.38184 13.4702H15.3194L15.3192 13.0847H8.38184V13.4702Z" fill="white"/>
<path fill-rule="evenodd" clip-rule="evenodd" d="M17.5065 8.96498L13.9372 10.6727C13.9349 10.6727 13.933 10.675 13.9303 10.6761L13.5848 10.8413L13.6279 11.1577H15.8793L17.5062 9.35048L17.5065 8.96498Z" fill="white"/>
<path fill-rule="evenodd" clip-rule="evenodd" d="M16.0902 12.6997V11.5435H13.368L13.1012 9.58809C13.1692 9.55075 13.2071 9.47555 13.1968 9.39834C13.1863 9.32166 13.1296 9.25926 13.054 9.24152L12.8123 7.47069C12.7995 7.37495 12.718 7.30401 12.6216 7.30401V6.91878C12.6216 6.70556 12.4491 6.53328 12.2363 6.53328H12.0436V6.34046C12.0436 6.23418 11.957 6.14764 11.8508 6.14764C11.7445 6.14764 11.658 6.23418 11.658 6.34046V6.53328H11.4653C11.2525 6.53328 11.0801 6.70556 11.0801 6.91878V7.30401C10.9837 7.30401 10.902 7.37495 10.8892 7.47069L10.6476 9.24032C10.572 9.25819 10.5154 9.32046 10.5048 9.39767C10.4942 9.47435 10.5324 9.54995 10.6004 9.58742L10.3336 11.5435H7.61133V12.6997H16.0902ZM12.6128 8.85936L12.1343 8.44918L12.5058 8.07688L12.6128 8.85936ZM12.5418 9.61649L12.0436 10.1147V9.61649H12.5418ZM12.0436 9.23099V8.87896L12.4545 9.23099H12.0436ZM12.349 7.68951L12.0436 7.99488V7.69031L12.349 7.68951ZM11.4653 6.91878H12.2363V7.30401H11.4653V6.91878ZM11.1956 8.07688L11.5677 8.44918L11.0891 8.85936L11.1956 8.07688ZM10.9414 9.94225L11.5677 10.569L10.7618 11.26L10.9414 9.94225ZM8.38191 12.3142H8.18967C8.08299 12.3142 7.99686 12.2279 7.99686 12.1214C7.99686 12.0152 8.08299 11.9286 8.18967 11.9286H8.38191C8.48858 11.9286 8.5748 12.0152 8.5748 12.1214C8.5748 12.2279 8.48858 12.3142 8.38191 12.3142ZM10.8873 12.3142H9.15305C9.04651 12.3142 8.96025 12.2279 8.96025 12.1214C8.96025 12.0152 9.04651 11.9286 9.15305 11.9286H10.8873C10.9939 11.9286 11.0801 12.0152 11.0801 12.1214C11.0801 12.2279 10.9939 12.3142 10.8873 12.3142ZM11.658 11.5435H11.0222L11.658 10.9988V11.5435ZM11.658 10.1147L11.1598 9.61649H11.658V10.1147ZM11.658 9.23099H11.2472L11.658 8.87896V9.23099ZM11.658 7.99488L11.3552 7.69218H11.658V7.99488ZM12.0436 11.5435V10.9988L12.6793 11.5435H12.0436ZM12.1343 10.569L12.7606 9.94225L12.9401 11.26L12.1343 10.569Z" fill="white"/>
<path fill-rule="evenodd" clip-rule="evenodd" d="M9.73099 11.1577V9.23074H7.61133V11.1577H9.73099ZM9.15305 10.0013C9.15305 9.8952 9.23919 9.80866 9.34586 9.80866C9.45201 9.80866 9.53834 9.8952 9.53834 10.0013V10.1942C9.53834 10.3007 9.45201 10.387 9.34586 10.387C9.23919 10.387 9.15305 10.3007 9.15305 10.1942V10.0013ZM8.5748 10.0013C8.5748 9.8952 8.66133 9.80866 8.7676 9.80866C8.87415 9.80866 8.96025 9.8952 8.96025 10.0013V10.1942C8.96025 10.3007 8.87415 10.387 8.7676 10.387C8.66133 10.387 8.5748 10.3007 8.5748 10.1942V10.0013ZM7.99686 10.0013C7.99686 9.8952 8.08299 9.80866 8.18967 9.80866C8.29581 9.80866 8.38191 9.8952 8.38191 10.0013V10.1942C8.38191 10.3007 8.29581 10.387 8.18967 10.387C8.08299 10.387 7.99686 10.3007 7.99686 10.1942V10.0013Z" fill="white"/>
<path fill-rule="evenodd" clip-rule="evenodd" d="M9.73081 8.26729H6.4613L7.4697 8.84521H9.73081V8.26729Z" fill="white"/>
<path fill-rule="evenodd" clip-rule="evenodd" d="M17.4389 15.7826C17.234 15.7846 17.0398 15.8744 16.9052 16.0294C16.8092 16.1231 16.7563 16.1682 16.6395 16.1682C16.5227 16.1682 16.4706 16.1231 16.3733 16.0294C16.2404 15.873 16.0453 15.7826 15.8401 15.7826C15.6345 15.7826 15.4398 15.873 15.3067 16.0294C15.2103 16.1231 15.1578 16.1682 15.0409 16.1682C14.9741 16.1701 14.9087 16.147 14.858 16.1031C14.8815 16.1213 14.9068 16.1361 14.934 16.1474V13.8556H14.3557V14.4339C14.3557 14.5402 14.2695 14.6263 14.1629 14.6263C14.0567 14.6263 13.9705 14.5402 13.9705 14.4339V13.8556H13.5849V16.1334C13.5422 16.1579 13.4934 16.1701 13.4444 16.1682C13.3286 16.1682 13.2758 16.1231 13.179 16.0294C13.046 15.873 12.8508 15.7826 12.6456 15.7826C12.4404 15.7826 12.2454 15.873 12.1127 16.0294C12.0163 16.1231 11.9637 16.1682 11.8473 16.1682C11.7305 16.1682 11.6787 16.1231 11.5816 16.0294C11.449 15.873 11.2539 15.7826 11.0487 15.7826C10.8435 15.7826 10.6488 15.873 10.5161 16.0294C10.4197 16.1231 10.3672 16.1682 10.2508 16.1682C10.2039 16.1697 10.1575 16.1587 10.1158 16.1361V13.8556H9.53832V15.2047C9.53832 15.3109 9.45198 15.3975 9.34584 15.3975C9.23916 15.3975 9.15303 15.3109 9.15303 15.2047V13.8556H8.76758V16.1451C8.73198 16.1606 8.6934 16.1686 8.65486 16.1682C8.53925 16.1682 8.48675 16.1231 8.38994 16.0294C8.25726 15.873 8.06256 15.7826 7.85734 15.7826C7.65212 15.7826 7.45701 15.873 7.32433 16.0294C7.22793 16.1231 7.17583 16.1682 7.05942 16.1682C6.94301 16.1682 6.8915 16.1231 6.79483 16.0294C6.66135 15.8744 6.4671 15.7846 6.26255 15.7826C6.15601 15.7826 6.06982 15.8692 6.06982 15.9754C6.06982 16.0819 6.15601 16.1682 6.26255 16.1682C6.37829 16.1682 6.43041 16.2131 6.52722 16.3065C6.66057 16.4618 6.85486 16.5518 7.05942 16.5537C7.26424 16.5518 7.45814 16.4618 7.59202 16.3065C7.68843 16.2131 7.74052 16.1682 7.85693 16.1682C7.97335 16.1682 8.02512 16.2131 8.12193 16.3065C8.25461 16.4634 8.44964 16.5533 8.65486 16.5533C8.86008 16.5533 9.05479 16.4634 9.18787 16.3065C9.28388 16.2131 9.33637 16.1682 9.45278 16.1682C9.5692 16.1682 9.62097 16.2131 9.71778 16.3065C9.85046 16.4634 10.0456 16.5533 10.2508 16.5533C10.4556 16.5533 10.6506 16.4634 10.7833 16.3065C10.8797 16.2131 10.9323 16.1682 11.0487 16.1682C11.1651 16.1682 11.2168 16.2131 11.314 16.3065C11.447 16.4634 11.6417 16.5533 11.847 16.5533C12.0523 16.5533 12.2472 16.4634 12.3799 16.3065C12.4763 16.2131 12.5292 16.1682 12.6452 16.1682C12.7616 16.1682 12.814 16.2131 12.911 16.3065C13.0437 16.4634 13.2387 16.5533 13.444 16.5533C13.6492 16.5533 13.8443 16.4634 13.977 16.3065C14.0734 16.2131 14.1259 16.1682 14.2423 16.1682C14.3591 16.1682 14.4105 16.2131 14.5077 16.3065C14.6404 16.4634 14.8353 16.5533 15.0405 16.5533C15.2463 16.5533 15.4409 16.4634 15.574 16.3065C15.6704 16.2127 15.7229 16.1678 15.8397 16.1678C15.9565 16.1678 16.0086 16.2131 16.1058 16.3065C16.2388 16.463 16.4339 16.5533 16.6391 16.5533C16.8447 16.5533 17.0398 16.463 17.1729 16.3065C17.27 16.2131 17.3218 16.1678 17.4389 16.1678C17.5451 16.1678 17.6317 16.0817 17.6317 15.9754C17.6317 15.8688 17.5451 15.7826 17.4389 15.7826Z" fill="white"/>
</svg>
