<svg width="30" height="10" viewBox="0 0 30 10" fill="none" xmlns="http://www.w3.org/2000/svg">
<path fill-rule="evenodd" clip-rule="evenodd" d="M4.61624 0.714678H25.5216C27.9214 0.714678 29.8843 2.67752 29.8843 5.07774V5.62366C29.8843 8.02308 27.9214 9.98633 25.5216 9.98633H4.61624C2.21642 9.98633 0.253174 8.02308 0.253174 5.62366V5.07774C0.253174 2.67752 2.21642 0.714678 4.61624 0.714678Z" fill="#2E50E9" fill-opacity="0.3"/>
<path fill-rule="evenodd" clip-rule="evenodd" d="M5.40465 2.2514H24.7331C26.3376 2.2514 27.65 3.56419 27.65 5.16874V5.53344C27.65 7.13838 26.3376 8.45117 24.7331 8.45117H5.40465C3.8001 8.45117 2.4873 7.13838 2.4873 5.53344V5.16874C2.4873 3.56419 3.8001 2.2514 5.40465 2.2514Z" fill="#2E50E9"/>
</svg>
