<svg width="23" height="23" viewBox="0 0 23 23" fill="none" xmlns="http://www.w3.org/2000/svg">
<path d="M22.5493 11.3502C22.5493 17.4317 17.6194 22.3613 11.538 22.3613C5.457 22.3613 0.528076 17.4317 0.528076 11.3502C0.528076 5.26883 5.457 0.340241 11.538 0.340241C17.6194 0.340241 22.5493 5.26883 22.5493 11.3502Z" fill="#2E50E9" fill-opacity="0.3"/>
<path d="M19.9757 11.3502C19.9757 16.0105 16.1982 19.7876 11.5379 19.7876C6.87812 19.7876 3.10132 16.0105 3.10132 11.3502C3.10132 6.6904 6.87812 2.91352 11.5379 2.91352C16.1982 2.91352 19.9757 6.6904 19.9757 11.3502Z" fill="#2E50E9"/>
<path fill-rule="evenodd" clip-rule="evenodd" d="M16.1816 15.1446H15.683V12.9386C15.683 12.8811 15.6282 12.8335 15.5621 12.8335H15.0004V11.1485L15.0594 11.1693C15.0903 11.1802 15.1218 11.1858 15.1521 11.1858C15.2461 11.1858 15.3368 11.1367 15.375 11.0555L15.7187 10.3324C15.7424 10.2802 15.7424 10.2224 15.7187 10.1713C15.6944 10.12 15.6467 10.0784 15.5874 10.0572L10.3735 8.17405C10.5643 7.85616 10.7357 7.53372 10.8822 7.21396C10.9325 7.10622 10.8731 6.98488 10.7515 6.94101L8.69216 6.1968C8.56975 6.15293 8.42943 6.20254 8.37662 6.30828C7.86698 7.35078 7.53777 8.51155 7.34202 9.96275C7.32989 10.0565 7.39002 10.146 7.4895 10.1816L8.3728 10.5009C8.47267 10.5368 8.58705 10.5108 8.65399 10.4367C9.03723 10.0133 9.36766 9.61538 9.66515 9.22028L10.706 9.59712L10.6552 9.90634L10.4998 10.8452L9.78878 15.1446H8.12326H6.89594C6.76326 15.1446 6.65527 15.239 6.65527 15.3554V16.3113C6.65527 16.4271 6.76326 16.5215 6.89594 16.5215H16.1816C16.3135 16.5215 16.4216 16.4271 16.4216 16.3113V15.3554C16.4216 15.239 16.3135 15.1446 16.1816 15.1446ZM14.5185 12.8335H13.9579C13.8906 12.8335 13.8358 12.8811 13.8358 12.9386V15.1446H13.2885L12.5772 10.8452L12.4766 10.2364L14.5185 10.9738V12.8335ZM12.1361 11.4081L11.2887 10.8567L11.9626 10.3592L12.1361 11.4081ZM11.8533 11.7997L10.7784 12.3966L10.9712 11.2263L11.8533 11.7997ZM12.2547 12.1244L12.5141 13.6896L11.1181 12.7549L12.2547 12.1244ZM11.2198 15.1446L12.6093 14.2669L12.7548 15.1446H11.2198ZM11.6937 9.95395L11.1117 10.3831L11.2112 9.7786L11.6937 9.95395ZM10.6717 13.0373L12.1183 14.0065L10.3243 15.1411L10.6717 13.0373Z" fill="#FEFEFE"/>
</svg>
