<svg width="27" height="14" viewBox="0 0 27 14" fill="none" xmlns="http://www.w3.org/2000/svg">
<path fill-rule="evenodd" clip-rule="evenodd" d="M13.2477 1.39594H11.7046L13.2477 2.59103V1.39594ZM10.2901 0H16.7099V0.977128H16.0056L18 14H9L11.0086 0.977128H10.2901V0ZM17.2286 12.3521L16.913 10.3158L14.037 11.8855L14.9453 12.3521H17.2286ZM12.1522 12.3521L12.9827 11.9059L10.0994 10.3801L9.79539 12.3521H12.1522ZM15.1836 1.39594H13.7708V2.5629L15.1836 1.39594ZM13.2477 5.79357H11.3636L13.2479 6.97108L13.2477 5.79357ZM15.7173 5.79357H13.7708V7.03052L15.7173 5.79357ZM13.7708 5.26866H15.7709L13.7708 3.69918V5.26866ZM11.2612 5.26866H13.2477V3.68959L11.2612 5.26866ZM13.2477 10.061H10.6768L13.2479 11.4612L13.2477 10.061ZM16.3238 10.061H13.7708V11.463L16.3238 10.061ZM13.7708 9.5359H16.1633L13.7708 7.96882V9.5359ZM10.7815 9.5359H13.2477V8.03369L10.7815 9.5359ZM10.7741 6.00562L10.2732 9.25387L13.044 7.4928L10.7741 6.00562ZM11.4146 1.85023L13.0655 3.14566L10.9447 4.89778L11.4146 1.85023ZM16.0522 4.76212L15.5966 1.82291L13.9481 3.13304L16.0522 4.76212ZM16.7322 9.14856L16.2737 6.19082L14.1089 7.50926L16.7322 9.14856Z" fill="white"/>
<path d="M0 6.5H27" stroke="white" stroke-dasharray="2 2"/>
</svg>
