<svg width="16" height="16" viewBox="0 0 16 16" fill="none" xmlns="http://www.w3.org/2000/svg">
<path fill-rule="evenodd" clip-rule="evenodd" d="M7.9928 0.00127717C7.8536 0.00357609 7.72105 0.0582925 7.62408 0.153467C7.52712 0.248641 7.47363 0.376524 7.47538 0.50914V8.85462C6.99536 8.96669 6.56838 9.22829 6.26225 9.59792C5.95612 9.96754 5.78841 10.424 5.78568 10.8948C5.78568 11.8806 6.51001 12.7092 7.47538 12.935V15.4781C7.4649 16.1569 8.53643 16.1569 8.52726 15.4781V12.935C9.00666 12.8224 9.43283 12.5606 9.73823 12.191C10.0436 11.8214 10.2108 11.3652 10.213 10.8948C10.213 9.91028 9.48996 9.08297 8.5259 8.85462V0.50914C8.52695 0.44211 8.51392 0.375566 8.48752 0.313425C8.46112 0.251284 8.42194 0.194816 8.37224 0.147355C8.32254 0.0998937 8.26336 0.0623953 8.19819 0.0370921C8.13303 0.0117889 8.06317 -0.000801803 7.9928 3.95473e-05V0.00127717ZM2.20577 0.00752241C2.06657 0.00982133 1.93401 0.0645377 1.83705 0.159712C1.74009 0.254886 1.68667 0.382769 1.68842 0.515386V3.05722C1.20853 3.16977 0.781793 3.43173 0.475931 3.80154C0.170068 4.17136 0.00259068 4.62786 0 5.09866C0 6.08445 0.724359 6.91175 1.68842 7.13886V15.4856C1.67794 16.1644 2.74939 16.1644 2.74022 15.4856V7.13886C3.21976 7.02631 3.64613 6.76449 3.95175 6.39491C4.25737 6.02533 4.42478 5.56914 4.42736 5.09866C4.42736 4.11288 3.70428 3.28432 2.74022 3.05722V0.515386C2.7411 0.448353 2.72793 0.381825 2.70136 0.319746C2.6748 0.257667 2.63542 0.201287 2.5856 0.153943C2.53578 0.106598 2.47646 0.0692497 2.41123 0.0440989C2.346 0.0189481 2.27613 0.00651656 2.20577 0.00752241ZM13.7785 0.0137486C13.6393 0.0160475 13.5067 0.0707829 13.4098 0.165957C13.3128 0.261131 13.2593 0.389014 13.2611 0.521631V3.0647C12.7813 3.177 12.3546 3.43872 12.0487 3.80832C11.7429 4.17792 11.5753 4.63424 11.5726 5.10489C11.5726 6.09068 12.297 6.91924 13.2611 7.14634V15.4918C13.2506 16.1694 14.3221 16.1694 14.3129 15.4918V7.14634C14.7926 7.03355 15.2189 6.7715 15.5245 6.40171C15.8302 6.03192 15.9975 5.57553 16 5.10489C16 4.11911 15.277 3.2918 14.3129 3.0647V0.521631C14.3138 0.454598 14.3006 0.38807 14.274 0.325991C14.2474 0.263912 14.2081 0.207533 14.1583 0.160188C14.1085 0.112843 14.0492 0.0754949 13.984 0.0503442C13.9187 0.0251934 13.8488 0.0127428 13.7785 0.0137486Z" fill="#868BB2"/>
</svg>
