<svg width="22" height="22" viewBox="0 0 22 22" fill="none" xmlns="http://www.w3.org/2000/svg">
<path d="M11.1979 13.5273C11.0441 13.5273 10.9193 13.6521 10.9193 13.806V13.8413C10.7816 13.8413 10.6699 13.953 10.6699 14.0907V14.334H11.1305V14.163H11.2527V14.334H11.3035V14.163H11.4257V14.334H11.4766V13.806C11.4766 13.6521 11.3518 13.5273 11.1979 13.5273ZM10.8455 14.2829H10.7412V14.2319H10.8455V14.2829ZM10.8455 14.1706H10.7412V14.1196H10.8455V14.1706ZM10.8455 14.0558H10.7412V14.0047H10.8455V14.0558ZM10.8455 13.9434H10.7412V13.8924H10.8455V13.9434ZM11.0618 14.2829H10.9575V14.2319H11.0618V14.2829ZM11.0618 14.1706H10.9575V14.1196H11.0618V14.1706ZM11.0618 14.0558H10.9575V14.0047H11.0618V14.0558ZM11.0618 13.9434H10.9575V13.8924H11.0618V13.9434ZM11.4231 14.1145H11.1305V14.0016C11.1305 13.9131 11.0587 13.8413 10.9702 13.8413V13.5784H11.4257V14.1145H11.4231Z" fill="white"/>
<path d="M10.7437 13.701C10.7437 13.7151 10.7551 13.7265 10.7692 13.7265C10.7832 13.7265 10.7946 13.7151 10.7946 13.701V13.6524H10.8429C10.857 13.6524 10.8684 13.641 10.8684 13.6269C10.8684 13.6128 10.857 13.6014 10.8429 13.6014H10.7946V13.5528C10.7946 13.5387 10.7832 13.5273 10.7692 13.5273C10.7551 13.5273 10.7437 13.5387 10.7437 13.5528V13.6014H10.6954C10.6814 13.6014 10.6699 13.6128 10.6699 13.6269C10.6699 13.641 10.6814 13.6524 10.6954 13.6524H10.7437V13.701Z" fill="white"/>
<path d="M11.3465 13.6328H11.2422V13.6839H11.3465V13.6328Z" fill="white"/>
<path d="M11.3465 13.7578H11.2422V13.8089H11.3465V13.7578Z" fill="white"/>
<path d="M11.3465 13.8828H11.2422V13.9339H11.3465V13.8828Z" fill="white"/>
<path d="M11.3465 14.0039H11.2422V14.055H11.3465V14.0039Z" fill="white"/>
<path d="M11.1483 13.6328H11.0439V13.6839H11.1483V13.6328Z" fill="white"/>
<path d="M11.1483 13.7578H11.0439V13.8089H11.1483V13.7578Z" fill="white"/>
<path d="M0.353989 10.9949H0.36688C0.564534 10.9952 0.726669 10.8385 0.733544 10.6409C0.868751 6.77586 3.16455 3.31475 6.67278 1.68696C10.181 0.0594644 14.3061 0.541284 17.3446 2.93362H15.3934C15.1908 2.93362 15.0267 3.09776 15.0267 3.30029C15.0267 3.50281 15.1908 3.66695 15.3934 3.66695H18.3317C18.3605 3.66466 18.3887 3.65893 18.4162 3.65019C18.4348 3.64747 18.4531 3.64332 18.4715 3.63802C18.4817 3.63372 18.4894 3.62441 18.4993 3.61897C18.5322 3.60293 18.5624 3.58173 18.5888 3.55638L18.5925 3.55366C18.6018 3.54091 18.6103 3.52745 18.6177 3.5137C18.6369 3.49021 18.653 3.46471 18.6657 3.43707C18.6759 3.40785 18.682 3.37734 18.6842 3.34655C18.6883 3.33151 18.6913 3.3159 18.6933 3.30029V0.366975C18.6933 0.164594 18.5291 0.000311221 18.3267 0.000311221C18.1242 0.000311221 17.96 0.164594 17.96 0.366975V2.49076C14.7252 -0.159531 10.2674 -0.745907 6.45737 0.977843C2.6475 2.70159 0.144876 6.43712 0.000215761 10.6164C-0.00665921 10.8186 0.151608 10.9881 0.353989 10.9949Z" fill="white"/>
<path d="M3.3222 17.8229C3.18756 17.6711 2.95539 17.6572 2.80357 17.7915C2.65146 17.9262 2.63757 18.1585 2.7722 18.3103C3.02443 18.5935 3.29126 18.8637 3.57098 19.1198C3.72109 19.2516 3.94896 19.2388 4.0836 19.0915C4.21823 18.9442 4.21035 18.7162 4.06569 18.5786C3.80502 18.3397 3.55695 18.0873 3.3222 17.8229Z" fill="white"/>
<path d="M7.69788 20.7269C7.36272 20.6133 7.03359 20.4827 6.7119 20.3351C6.5923 20.2758 6.44993 20.2861 6.34022 20.3623C6.23065 20.4383 6.17092 20.5679 6.18453 20.7007C6.19814 20.8336 6.28264 20.9485 6.40539 21.0008C6.75014 21.1596 7.10319 21.3001 7.46298 21.4217C7.65462 21.4867 7.86288 21.3838 7.9279 21.1918C7.99264 20.9999 7.8898 20.7919 7.69788 20.7269Z" fill="white"/>
<path d="M5.77174 19.8412C5.4671 19.6608 5.17162 19.4651 4.88659 19.2547C4.78175 19.1718 4.6401 19.1526 4.51692 19.2047C4.39375 19.2569 4.30867 19.3717 4.29492 19.5048C4.28117 19.6379 4.34089 19.7676 4.45075 19.844C4.75554 20.0696 5.07164 20.2794 5.39777 20.4727C5.57223 20.576 5.79709 20.5186 5.90036 20.3441C6.00363 20.17 5.94619 19.9449 5.77174 19.8418V19.8412Z" fill="white"/>
<path d="M2.65867 16.9979C2.45185 16.7104 2.25992 16.4128 2.08361 16.1057C1.98249 15.9301 1.75791 15.8697 1.58231 15.9711C1.40671 16.0722 1.34627 16.2968 1.44753 16.4724C1.63631 16.8005 1.84213 17.1189 2.06356 17.4261C2.18329 17.5858 2.40888 17.6202 2.57087 17.5036C2.73286 17.3869 2.77182 17.1622 2.65867 16.9979Z" fill="white"/>
<path d="M1.60395 15.1588C1.46029 14.8357 1.33382 14.5051 1.2244 14.169C1.18888 14.0385 1.08432 13.938 0.95255 13.9077C0.82078 13.8775 0.683138 13.9222 0.594193 14.0243C0.505392 14.1262 0.479754 14.2687 0.527735 14.395C0.644609 14.7564 0.78039 15.1111 0.93393 15.4585C0.992653 15.5912 1.12428 15.6767 1.26951 15.6766C1.39341 15.6766 1.50899 15.6139 1.57674 15.5099C1.64434 15.4059 1.6548 15.2748 1.60467 15.1615L1.60395 15.1588Z" fill="white"/>
<path d="M0.667847 13.5767C0.865645 13.5346 0.992115 13.3402 0.950149 13.1421C0.877103 12.7959 0.821817 12.4459 0.784434 12.0938C0.763093 11.8924 0.582483 11.7464 0.381104 11.7677C0.179439 11.7892 0.0333464 11.9698 0.0548307 12.1712C0.0949345 12.5483 0.154374 12.923 0.233006 13.2939C0.275115 13.4922 0.469619 13.6188 0.667847 13.5767Z" fill="white"/>
<path d="M21.4062 13.2022C21.2097 13.1535 21.0109 13.2736 20.9622 13.4699C20.8771 13.8137 20.7746 14.153 20.6547 14.4859C20.5859 14.6766 20.6847 14.8866 20.8754 14.9554C21.0659 15.024 21.276 14.9251 21.3446 14.7346C21.4734 14.3777 21.5835 14.0145 21.6746 13.6463C21.6981 13.5519 21.6828 13.452 21.6325 13.3688C21.5821 13.2853 21.5007 13.2256 21.4062 13.2022Z" fill="white"/>
<path d="M9.76575 21.1926C9.41441 21.1508 9.06536 21.0909 8.72004 21.013C8.52253 20.9684 8.32616 21.0923 8.28162 21.2897C8.23679 21.4873 8.36097 21.6836 8.55833 21.7284C8.92843 21.8118 9.30269 21.8759 9.67938 21.9209C9.69385 21.9226 9.70845 21.9233 9.72321 21.9233C9.91728 21.923 10.0773 21.7715 10.0886 21.578C10.0999 21.3845 9.95839 21.2155 9.76575 21.1926Z" fill="white"/>
<path d="M20.7312 15.2943C20.5488 15.2065 20.3297 15.2827 20.2415 15.4647C20.0875 15.7837 19.9169 16.0941 19.7304 16.395C19.628 16.5669 19.6823 16.7891 19.8525 16.8944C20.0223 16.9998 20.2456 16.9493 20.3538 16.7813C20.5533 16.4586 20.7359 16.1257 20.9012 15.7841C20.9894 15.6019 20.9134 15.3826 20.7312 15.2943Z" fill="white"/>
<path d="M19.1261 17.2671C18.9098 17.5479 18.6792 17.8171 18.435 18.0738C18.2954 18.2206 18.3012 18.4529 18.448 18.5924C18.5948 18.7321 18.827 18.7262 18.9667 18.5794C19.2278 18.3043 19.4746 18.0162 19.7064 17.716C19.7888 17.6125 19.809 17.4727 19.7594 17.3501C19.7096 17.2276 19.5977 17.1412 19.4667 17.1242C19.3355 17.107 19.2053 17.162 19.1261 17.2679V17.2671Z" fill="white"/>
<path d="M21.6332 11.0161C21.5355 11.0111 21.44 11.0459 21.3687 11.1125C21.297 11.1791 21.2556 11.2719 21.2536 11.3696C21.2412 11.7234 21.2105 12.0763 21.1617 12.427C21.134 12.6274 21.2737 12.8123 21.4741 12.8403C21.4911 12.8427 21.5083 12.844 21.5255 12.844C21.7081 12.8437 21.8628 12.7088 21.888 12.5279C21.9403 12.1522 21.9731 11.7742 21.9867 11.3952C21.9936 11.193 21.8353 11.0233 21.6332 11.0161Z" fill="white"/>
<path d="M17.6669 18.804C17.3971 19.0343 17.1156 19.2508 16.8236 19.4521C16.6566 19.5676 16.6149 19.7966 16.7303 19.9635C16.8458 20.1305 17.0746 20.1723 17.2416 20.057C17.5539 19.8401 17.8548 19.6075 18.1437 19.3602C18.2974 19.2286 18.3156 18.9971 18.1839 18.8433C18.0523 18.6893 17.8209 18.6713 17.6669 18.8027V18.804Z" fill="white"/>
<path d="M13.9674 20.8296C13.6287 20.9316 13.2847 21.0161 12.9371 21.0826C12.7516 21.1183 12.6235 21.289 12.6413 21.477C12.6591 21.6652 12.8167 21.8089 13.0057 21.8093C13.0289 21.8093 13.0522 21.8073 13.0748 21.803C13.4477 21.732 13.8163 21.6412 14.1794 21.5315C14.3682 21.4692 14.4732 21.2675 14.4155 21.0773C14.358 20.8868 14.1591 20.7768 13.9674 20.8296Z" fill="white"/>
<path d="M11.8864 21.2303C11.5929 21.2553 11.2927 21.267 10.9935 21.267H10.8259C10.6259 21.2699 10.4625 21.4274 10.4522 21.6271C10.4485 21.8296 10.6098 21.9968 10.8123 22.0003H10.9935C11.3139 22.0003 11.6351 21.986 11.9468 21.9594C12.08 21.9516 12.1983 21.8721 12.2562 21.752C12.3139 21.6317 12.3019 21.4896 12.2245 21.3809C12.1472 21.272 12.017 21.2139 11.8843 21.2289L11.8864 21.2303Z" fill="white"/>
<path d="M15.9216 20.0099C15.6111 20.1801 15.2923 20.3341 14.9662 20.4714C14.8437 20.521 14.7576 20.6325 14.7404 20.7636C14.7232 20.8944 14.7778 21.0244 14.8832 21.1039C14.9886 21.1834 15.1287 21.2 15.2499 21.1474C15.5994 21.0004 15.9411 20.8354 16.2735 20.6533C16.4511 20.5559 16.5163 20.3329 16.4189 20.1553C16.3218 19.9777 16.0988 19.9128 15.9212 20.0099H15.9216Z" fill="white"/>
<path d="M11.3603 10.9995C11.3603 11.2019 11.1961 11.3661 10.9936 11.3661C10.7911 11.3661 10.627 11.2019 10.627 10.9995C10.627 10.797 10.7911 10.6328 10.9936 10.6328C11.1961 10.6328 11.3603 10.797 11.3603 10.9995Z" fill="white"/>
<path d="M16.8595 10.6321H17.9406C17.7501 7.07934 14.9124 4.24127 11.3596 4.05078V5.13215C11.3596 5.33468 11.1954 5.49882 10.9929 5.49882C10.7904 5.49882 10.6263 5.33468 10.6263 5.13215V4.05078C7.07334 4.24127 4.23542 7.07934 4.04492 10.6321H5.12629C5.32882 10.6321 5.49296 10.7963 5.49296 10.9988C5.49296 11.2012 5.32882 11.3654 5.12629 11.3654H4.04492C4.23542 14.9181 7.07334 17.7561 10.6263 17.9466V16.8653C10.6263 16.6629 10.7904 16.4986 10.9929 16.4986C11.1954 16.4986 11.3596 16.6629 11.3596 16.8653V17.9466C14.9124 17.7561 17.7501 14.9181 17.9406 11.3654H16.8595C16.657 11.3654 16.4929 11.2012 16.4929 10.9988C16.4929 10.7963 16.657 10.6321 16.8595 10.6321ZM10.9929 12.0988C10.5283 12.0968 10.1151 11.8033 9.96038 11.3654H8.0596C7.85708 11.3654 7.69294 11.2012 7.69294 10.9988C7.69294 10.7963 7.85708 10.6321 8.0596 10.6321H9.96038C10.0712 10.3216 10.3156 10.0771 10.6263 9.96624V6.59881C10.6263 6.39628 10.7904 6.23214 10.9929 6.23214C11.1954 6.23214 11.3596 6.39628 11.3596 6.59881V9.96624C11.8643 10.144 12.1672 10.6598 12.0764 11.1873C11.9858 11.7146 11.528 12.0998 10.9929 12.0988Z" fill="white"/>
</svg>
