<svg width="22" height="22" viewBox="0 0 22 22" fill="none" xmlns="http://www.w3.org/2000/svg">
<path fill-rule="evenodd" clip-rule="evenodd" d="M18.0217 3.87298C18.0217 1.7341 13.9875 2.38419e-06 9.01133 2.38419e-06C4.03514 2.38419e-06 0.000976562 1.7341 0.000976562 3.87298C0.000976562 6.01157 4.03514 7.74561 9.01133 7.74561C13.9875 7.74561 18.0217 6.01157 18.0217 3.87298Z" fill="white"/>
<path fill-rule="evenodd" clip-rule="evenodd" d="M9.01016 12.189C9.10064 12.189 9.18928 12.1826 9.27986 12.1815C10.513 9.92564 12.907 8.392 15.6526 8.392C16.4599 8.392 17.2339 8.52956 17.9596 8.77373C17.9979 8.62286 18.0199 8.47045 18.0199 8.31657V6.01312C16.5052 7.63764 13.2204 8.66227 9.01181 8.66227C4.79978 8.66227 1.51336 7.63598 0 6.00933V8.31657C0 10.524 3.8732 12.189 9.01016 12.189Z" fill="white"/>
<path fill-rule="evenodd" clip-rule="evenodd" d="M8.416 16.1064C8.40687 15.9567 8.39309 15.8081 8.39309 15.6562C8.39309 14.7572 8.56512 13.899 8.86482 13.1037C4.72473 13.08 1.49598 12.0615 0 10.4549V12.2461C0 14.3671 3.57962 15.9829 8.416 16.1064Z" fill="white"/>
<path fill-rule="evenodd" clip-rule="evenodd" d="M0 14.3838V16.1751C0 18.3824 3.8732 20.0474 9.01016 20.0474C9.2983 20.0474 9.58286 20.0347 9.86761 20.0234C9.20996 19.1546 8.74075 18.1374 8.52745 17.0275C4.54998 16.9516 1.4553 15.9466 0 14.3838Z" fill="white"/>
<path fill-rule="evenodd" clip-rule="evenodd" d="M15.6525 14.1618C14.8321 14.1618 14.1628 14.8311 14.1628 15.6514C14.1628 16.4762 14.8321 17.1455 15.6525 17.1455C16.4772 17.1455 17.1466 16.4762 17.1466 15.6514C17.1466 14.8311 16.4772 14.1618 15.6525 14.1618Z" fill="white"/>
<path fill-rule="evenodd" clip-rule="evenodd" d="M15.6521 9.3082C12.1552 9.3082 9.30908 12.1543 9.30908 15.6557C9.30908 19.1527 12.1552 21.9985 15.6521 21.9985C19.1536 21.9985 21.9997 19.1527 21.9997 15.6557C21.9997 12.1543 19.1536 9.3082 15.6521 9.3082ZM19.8176 15.8987C18.7223 17.6356 17.2417 18.5935 15.6516 18.5935C14.0659 18.5935 12.5853 17.6356 11.49 15.8987L11.3343 15.6513L11.49 15.4083C12.5853 13.6713 14.0659 12.7135 15.6516 12.7135C17.2417 12.7135 18.7223 13.6713 19.8176 15.4083L19.9734 15.6513L19.8176 15.8987Z" fill="white"/>
</svg>
