<svg width="19" height="20" viewBox="0 0 19 20" fill="none" xmlns="http://www.w3.org/2000/svg">
<path fill-rule="evenodd" clip-rule="evenodd" d="M18.3099 3.0989C18.3099 1.38747 14.2109 0 9.15501 0C4.09912 0 0 1.38747 0 3.0989C0 4.80972 4.09912 6.19718 9.15501 6.19718C14.2109 6.19718 18.3099 4.80972 18.3099 3.0989Z" fill="white"/>
<path fill-rule="evenodd" clip-rule="evenodd" d="M0 6.19727V9.96021C0 11.6141 4.09041 12.9578 9.15501 12.9578C14.2196 12.9578 18.3099 11.6141 18.3099 9.96021V6.19727C16.1269 7.56164 12.4609 8.09938 9.15501 8.09938C5.84912 8.07874 2.18298 7.541 0 6.19727ZM14.326 9.19549C14.8131 9.19549 15.1945 9.56753 15.1945 10.0428C15.1945 10.5186 14.8131 10.8906 14.326 10.8906C13.8383 10.8906 13.4568 10.5186 13.4568 10.0428C13.4568 9.56753 13.8383 9.19549 14.326 9.19549Z" fill="white"/>
<path fill-rule="evenodd" clip-rule="evenodd" d="M0 12.9575V16.8647C0 18.6043 4.09041 19.9998 9.15501 19.9998C14.2196 19.9998 18.3099 18.5829 18.3099 16.8647V12.9575C16.1269 14.3744 12.4609 14.9322 9.15501 14.9322C5.84912 14.9108 2.18298 14.353 0 12.9575ZM14.326 16.0705C14.8131 16.0705 15.1945 16.4569 15.1945 16.9511C15.1945 17.4446 14.8131 17.8309 14.326 17.8309C13.8383 17.8309 13.4568 17.4446 13.4568 16.9511C13.4568 16.4569 13.8383 16.0705 14.326 16.0705Z" fill="white"/>
</svg>
