<svg width="22" height="23" viewBox="0 0 22 23" fill="none" xmlns="http://www.w3.org/2000/svg">
<path fill-rule="evenodd" clip-rule="evenodd" d="M1.26032 5.91448H2.07972V9.88281C2.1761 9.88281 2.32072 9.83548 2.4169 9.83548C2.56152 9.83548 2.75439 9.88281 2.89901 9.88281V5.86727H7.62169V5.81988C7.62169 4.7332 8.53757 3.88289 9.59766 3.88289C10.7061 3.88289 11.5735 4.78069 11.5735 5.81988V5.86727H16.4892C16.3928 5.63102 16.5373 3.55236 16.5373 3.50497H1.26032C1.06766 3.50497 0.875 3.64664 0.875 3.88289V5.53644C0.875 5.7256 1.01962 5.91448 1.26032 5.91448Z" fill="white"/>
<path fill-rule="evenodd" clip-rule="evenodd" d="M18.9954 10.3559V22.686H20.1038V10.4977C19.8148 10.5447 19.5256 10.4505 18.9954 10.3559Z" fill="white"/>
<path fill-rule="evenodd" clip-rule="evenodd" d="M20.6822 0.292355C20.5857 0.103494 20.3447 -0.0382757 20.1039 0.00891495L19.2366 0.198058C19.0916 0.245148 18.9471 0.339726 18.8509 0.481497L17.1158 3.45758C17.0676 3.50477 17.0196 3.59929 17.0196 3.69387L16.9231 5.58335C16.9231 5.67793 16.9231 5.72542 16.9711 5.8197L18.4653 9.5518C18.5133 9.74066 18.7063 9.83525 18.899 9.88264L19.8629 10.0715C20.1039 10.1187 20.393 9.97695 20.4893 9.7407C22.7062 4.02448 20.7785 0.434025 20.6822 0.292355ZM19.6702 1.23727L19.8629 1.19007C19.9594 1.47351 20.152 1.99329 20.2485 2.60726L18.128 3.88271L19.6702 1.23727ZM19.5737 8.89038L19.4292 8.84317L18.3688 6.19774L20.0555 7.3315C19.911 7.85119 19.7664 8.3235 19.5737 8.89038ZM20.2485 6.48118L18.128 5.15822V4.68594L20.393 3.55218C20.4412 4.35532 20.4412 5.34741 20.2485 6.48118Z" fill="white"/>
<path fill-rule="evenodd" clip-rule="evenodd" d="M11.0917 5.86714C11.0917 5.05829 10.4227 4.40255 9.59762 4.40255C8.7725 4.40255 8.10376 5.05829 8.10376 5.86714C8.10376 6.67568 8.7725 7.33154 9.59762 7.33154C10.4227 7.33154 11.0917 6.67568 11.0917 5.86714Z" fill="white"/>
<path fill-rule="evenodd" clip-rule="evenodd" d="M16.4893 20.4182H13.5495L11.2363 7.75707C11.1883 7.52081 10.9953 7.37902 10.7543 7.37902H8.39303C8.15202 7.37902 7.95936 7.5682 7.91092 7.75707L6.03153 20.3706H2.89909V13.2844C2.75446 13.3315 2.60994 13.3315 2.41697 13.3315C2.27245 13.3315 2.17617 13.3315 2.07979 13.2844V20.3706H0.441108C0.200308 20.3706 0.00734043 20.5598 0.00734043 20.7958V22.1659C-0.0406969 22.4967 0.151964 22.6855 0.441108 22.6855H16.4893C16.7304 22.6855 16.923 22.4967 16.923 22.2604V20.8904C16.923 20.607 16.7304 20.4182 16.4893 20.4182ZM8.58569 10.1666L9.21242 10.7335L8.34468 11.6309L8.58569 10.1666ZM12.0557 17.4889L12.4894 19.9455L10.4652 18.5754L12.0557 17.4889ZM9.79071 18.1503L7.71826 16.7803L9.64609 14.985L11.8146 16.8277L9.79071 18.1503ZM10.176 14.4656L11.3328 13.379L11.7666 15.7882L10.176 14.4656ZM10.9473 11.4421L10.2244 10.7806L10.7543 10.2608L10.9473 11.4421ZM11.0918 12.5757L9.59774 13.993L8.24851 12.8592L9.74227 11.3003L11.0918 12.5757ZM8.05554 13.6149L9.0678 14.4656L7.7664 15.6936L8.05554 13.6149ZM7.47725 17.5362L9.11594 18.6229L7.13997 19.9929L7.47725 17.5362ZM9.79071 19.048L11.8628 20.4182H7.81474L9.79071 19.048ZM10.417 8.27674L10.6097 9.2688L9.74227 10.2137L8.73031 9.2688L8.87483 8.27674H10.417Z" fill="white"/>
<path fill-rule="evenodd" clip-rule="evenodd" d="M1.11597 11.5839C1.11597 12.2925 1.69425 12.8594 2.41706 12.8594C3.14018 12.8594 3.71847 12.2925 3.71847 11.5839C3.71847 10.8754 3.14018 10.3085 2.41706 10.3085C1.69425 10.3085 1.11597 10.8754 1.11597 11.5839ZM3.14018 11.5839C3.14018 11.962 2.80269 12.2924 2.41706 12.2924C2.03174 12.2924 1.69425 11.962 1.69425 11.5839C1.69425 11.2059 2.03174 10.8754 2.41706 10.8754C2.80269 10.8754 3.14018 11.2059 3.14018 11.5839Z" fill="white"/>
</svg>
