<svg width="22" height="22" viewBox="0 0 22 22" fill="none" xmlns="http://www.w3.org/2000/svg">
<path fill-rule="evenodd" clip-rule="evenodd" d="M18.0217 3.87249C18.0217 1.73361 13.9875 -0.000485897 9.01133 -0.000485897C4.03514 -0.000485897 0.000976562 1.73361 0.000976562 3.87249C0.000976562 6.01109 4.03514 7.74512 9.01133 7.74512C13.9875 7.74512 18.0217 6.01109 18.0217 3.87249Z" fill="white"/>
<path fill-rule="evenodd" clip-rule="evenodd" d="M9.01016 12.1885C9.10064 12.1885 9.18928 12.1821 9.27986 12.181C10.513 9.92515 12.907 8.39151 15.6526 8.39151C16.4599 8.39151 17.2339 8.52907 17.9596 8.77324C17.9979 8.62237 18.0199 8.46996 18.0199 8.31608V6.01263C16.5052 7.63715 13.2204 8.66178 9.01181 8.66178C4.79978 8.66178 1.51336 7.63549 0 6.00884V8.31608C0 10.5235 3.8732 12.1885 9.01016 12.1885Z" fill="white"/>
<path fill-rule="evenodd" clip-rule="evenodd" d="M8.416 16.1064C8.40687 15.9567 8.39309 15.8081 8.39309 15.6562C8.39309 14.7572 8.56512 13.899 8.86482 13.1037C4.72473 13.08 1.49598 12.0615 0 10.4549V12.2461C0 14.3671 3.57962 15.9829 8.416 16.1064Z" fill="white"/>
<path fill-rule="evenodd" clip-rule="evenodd" d="M0 14.3833V16.1746C0 18.3819 3.8732 20.0469 9.01016 20.0469C9.2983 20.0469 9.58286 20.0342 9.86761 20.0229C9.20996 19.1541 8.74075 18.1369 8.52745 17.0271C4.54998 16.9511 1.4553 15.9461 0 14.3833Z" fill="white"/>
<path fill-rule="evenodd" clip-rule="evenodd" d="M15.6525 14.1618C14.8321 14.1618 14.1628 14.8311 14.1628 15.6514C14.1628 16.4762 14.8321 17.1455 15.6525 17.1455C16.4772 17.1455 17.1466 16.4762 17.1466 15.6514C17.1466 14.8311 16.4772 14.1618 15.6525 14.1618Z" fill="white"/>
<path fill-rule="evenodd" clip-rule="evenodd" d="M15.6521 9.30869C12.1552 9.30869 9.30908 12.1548 9.30908 15.6562C9.30908 19.1532 12.1552 21.999 15.6521 21.999C19.1536 21.999 21.9997 19.1532 21.9997 15.6562C21.9997 12.1548 19.1536 9.30869 15.6521 9.30869ZM19.8176 15.8992C18.7223 17.636 17.2417 18.594 15.6516 18.594C14.0659 18.594 12.5853 17.636 11.49 15.8992L11.3343 15.6518L11.49 15.4088C12.5853 13.6717 14.0659 12.714 15.6516 12.714C17.2417 12.714 18.7223 13.6717 19.8176 15.4088L19.9734 15.6518L19.8176 15.8992Z" fill="white"/>
</svg>
