<svg width="24" height="24" viewBox="0 0 24 24" fill="none" xmlns="http://www.w3.org/2000/svg">
<path d="M12 23C18.0751 23 23 18.0751 23 12C23 5.92487 18.0751 1 12 1C5.92487 1 1 5.92487 1 12C1 18.0751 5.92487 23 12 23Z" stroke="white" stroke-miterlimit="10"/>
<path fill-rule="evenodd" clip-rule="evenodd" d="M6.49947 3.77001C8.12752 2.68219 10.0416 2.10156 11.9996 2.10156C13.2997 2.10156 14.5871 2.35763 15.7882 2.85516C16.9893 3.35268 18.0807 4.08191 19 5.00121C19.9193 5.92051 20.6485 7.01187 21.146 8.213C21.6435 9.41412 21.8996 10.7015 21.8996 12.0016C21.8996 13.9596 21.319 15.8737 20.2312 17.5017C19.1433 19.1298 17.5972 20.3987 15.7882 21.148C13.9792 21.8973 11.9886 22.0933 10.0682 21.7113C8.14781 21.3293 6.3838 20.3865 4.99926 19.0019C3.61472 17.6174 2.67183 15.8534 2.28984 13.933C1.90785 12.0125 2.1039 10.022 2.85321 8.213C3.60251 6.40401 4.87142 4.85784 6.49947 3.77001ZM11.9996 3.10156C10.2394 3.10156 8.51864 3.62354 7.05504 4.60148C5.59144 5.57943 4.45071 6.96942 3.77709 8.59568C3.10347 10.2219 2.92722 12.0114 3.27062 13.7379C3.61403 15.4643 4.46168 17.0501 5.70636 18.2948C6.95105 19.5395 8.53688 20.3871 10.2633 20.7306C11.9897 21.074 13.7792 20.8977 15.4055 20.2241C17.0318 19.5505 18.4217 18.4097 19.3997 16.9461C20.3776 15.4825 20.8996 13.7618 20.8996 12.0016C20.8996 10.8328 20.6694 9.67548 20.2221 8.59568C19.7749 7.51588 19.1193 6.53475 18.2929 5.70831C17.4664 4.88187 16.4853 4.2263 15.4055 3.77903C14.3257 3.33177 13.1684 3.10156 11.9996 3.10156ZM16.8464 9.48L16.8902 11.312H13.7332V19H10.2866V11.312H7.18691L7.17944 9.48H16.8464ZM16.855 8.48V6.5H7.17501V8.39296L7.17537 8.48H16.855Z" fill="white"/>
</svg>
