<svg width="22" height="22" viewBox="0 0 22 22" fill="none" xmlns="http://www.w3.org/2000/svg">
<path d="M22.0001 19.861C21.6182 20.0139 21.236 20.1668 20.7778 20.1668C19.861 20.1668 19.2501 19.5557 18.3333 19.5557C17.4168 19.5557 16.8057 20.1668 15.8891 20.1668C14.9724 20.1668 14.3612 19.5557 13.4447 19.5557C12.528 19.5557 11.917 20.1668 11.0003 20.1668C10.0835 20.1668 9.4726 19.5557 8.55585 19.5557C7.63911 19.5557 7.02817 20.1668 6.11142 20.1668C5.19468 20.1668 4.58374 19.5557 3.667 19.5557C2.75025 19.5557 2.13931 20.1668 1.22257 20.1668C0.764307 20.1668 0.382385 20.0146 0.000244141 19.8617V21.6952C0.381945 21.8481 0.763867 22.0001 1.22235 22.0001C2.13909 22.0001 2.75003 21.3891 3.66678 21.3891C4.58352 21.3891 5.19468 22.0001 6.1112 22.0001C7.02773 22.0001 7.63889 21.3891 8.55563 21.3891C9.47238 21.3891 10.0833 22.0001 11.0001 22.0001C11.9168 22.0001 12.5277 21.3891 13.4445 21.3891C14.361 21.3891 14.9722 22.0001 15.8889 22.0001C16.8054 22.0001 17.4166 21.3891 18.3331 21.3891C19.2499 21.3891 19.8608 22.0001 20.7776 22.0001C21.2358 22.0001 21.6177 21.8474 21.9999 21.6945V19.861H22.0001Z" fill="white"/>
<path d="M19.861 2.75L18.0277 5.80559L15.8889 6.72233L15.2777 11.9168L14.9721 14.9724L11 16.1945L7.0277 14.9721L6.11096 9.16654L4.58328 7.94444L3.05537 4.58327L0 3.97232V18.0286C0.381921 18.1813 0.763843 18.3335 1.22232 18.3335C2.13907 18.3335 2.75001 17.7226 3.66675 17.7226C4.5835 17.7226 5.19466 18.3335 6.11118 18.3335C7.0277 18.3335 7.63887 17.7226 8.55561 17.7226C9.47235 17.7226 10.0835 18.3335 11 18.3335C11.9168 18.3335 12.5277 17.7226 13.4445 17.7226C14.361 17.7226 14.9721 18.3335 15.8889 18.3335C16.8054 18.3335 17.4166 17.7226 18.3331 17.7226C19.2498 17.7226 19.8608 18.3335 20.7775 18.3335C21.2358 18.3335 21.6177 18.1809 21.9999 18.028V2.75H19.861Z" fill="white"/>
<path d="M13.6111 7.6151L14.6028 6.67548L13.2918 6.20226V4.74982L13.6111 4.86488L14.6028 3.92525L13.2918 3.45203V0H8.70835V1.79785L7.55444 1.38116L7.71086 2.73857L8.70835 3.09827V4.54785L7.55444 4.13117L7.71086 5.48858L8.70835 5.84828V7.29786L7.55444 6.88118L7.71086 8.23859L8.70835 8.59829V10.0532L7.55444 9.63647L7.71086 10.9939L8.70835 11.3536V13.0047L11.0001 15.2777L13.2912 13.0051L13.6111 13.1202L14.6028 12.1806L13.2918 11.7073V10.2498L13.6111 10.3649L14.6028 9.42527L13.2918 8.95205V7.49982L13.6111 7.6151ZM9.62509 0.916743H12.3751V3.12137L9.62509 2.12895V0.916743ZM9.62509 3.42849L12.3751 4.41959V5.87116L9.62509 4.87874V3.42849ZM11.0001 13.9817L9.62509 12.6252V11.684L12.3381 12.6615L11.0001 13.9817ZM12.3751 11.3767L9.62509 10.3843V8.92873L12.3751 9.91983V11.3767ZM12.3751 8.62139L9.62509 7.62896V6.17872L12.3751 7.16982V8.62139Z" fill="white"/>
</svg>
