<svg width="17" height="20" viewBox="0 0 17 20" fill="none" xmlns="http://www.w3.org/2000/svg">
<path fill-rule="evenodd" clip-rule="evenodd" d="M15.9859 17.3372H15.1494V13.0709C15.1494 12.9589 15.0581 12.8675 14.9463 12.8675H14.0039V9.60776L14.1034 9.6487C14.1552 9.66937 14.2066 9.68048 14.2583 9.68048C14.4164 9.68048 14.5685 9.58551 14.6321 9.42855L15.2086 8.02977C15.2489 7.92883 15.2489 7.81718 15.2086 7.71784C15.1679 7.61849 15.0885 7.53822 14.9889 7.49768L6.23992 3.8545C6.55919 3.24016 6.84685 2.61708 7.09381 1.99756C7.17679 1.79013 7.0776 1.55527 6.87332 1.47023L3.41749 0.0309463C3.21202 -0.0540927 2.97732 0.0420605 2.88841 0.246711C2.03335 2.26222 1.48056 4.5082 1.15181 7.31449C1.13206 7.4957 1.23281 7.66896 1.39995 7.7385L2.8821 8.35562C3.04884 8.42516 3.24127 8.3743 3.35388 8.23125C3.99676 7.41225 4.55112 6.64253 5.05057 5.87797L6.79824 6.60756L6.71171 7.20562L6.45172 9.02164L5.25723 17.3372H2.46326H0.40461C0.18136 17.3372 0 17.5196 0 17.7449V19.5939C0 19.8172 0.18136 20 0.40461 20H15.9859C16.2075 20 16.3889 19.8172 16.3889 19.5939V17.7449C16.3889 17.5196 16.2075 17.3372 15.9859 17.3372ZM13.195 12.8675H12.2542C12.1416 12.8675 12.0499 12.9589 12.0499 13.0709V17.3372H11.1317L9.93717 9.02164L9.76885 7.84379L13.195 9.27078V12.8675ZM9.19709 10.11L7.77462 9.04388L8.90549 8.08143L9.19709 10.11ZM8.72253 10.8674L6.91837 12.0218L7.24198 9.75877L8.72253 10.8674ZM9.39584 11.4957L9.83089 14.5225L7.48854 12.7145L9.39584 11.4957ZM7.65924 17.3372L9.9913 15.6392L10.2351 17.3372H7.65924ZM8.45504 7.29739L7.47787 8.12754L7.64461 6.95883L8.45504 7.29739ZM6.73937 13.2613L9.16706 15.1353L6.15615 17.3308L6.73937 13.2613Z" fill="white"/>
</svg>
