<svg width="16" height="23" viewBox="0 0 16 23" fill="none" xmlns="http://www.w3.org/2000/svg">
<path fill-rule="evenodd" clip-rule="evenodd" d="M16 21.5625H15.4746L11.241 4.38435H11.6789C12.0439 4.38435 12.4088 4.02495 12.4088 3.66567V2.15623C12.4088 1.72503 12.0439 1.43753 11.6789 1.43753H8.75919V0H7.29929V1.43753H4.37952C4.01465 1.43753 3.64966 1.79695 3.64966 2.15623V3.66567C3.64966 4.09687 4.01465 4.38435 4.37952 4.38435H4.81756L0.583899 21.5625H0V23H16V21.5625ZM12.9198 17.3219L9.41614 15.0219L11.9709 13.3687L12.9198 17.3219ZM10.803 8.62497L9.41614 7.69061L10.4381 7.04372L10.803 8.62497ZM8.75919 4.38435H9.78113L10.0731 5.46249L8.75919 6.32504V4.38435ZM8.75919 9.05622L11.314 10.7094L11.387 10.9969H8.75919V9.05622ZM8.75919 11.7157H11.533V11.7875L8.75919 13.5844V11.7157ZM6.27745 4.38435H7.29929V6.25308L6.05844 5.46249L6.27745 4.38435ZM5.69343 7.04372L6.71542 7.69061L5.25552 8.62497L5.69343 7.04372ZM4.74453 10.7094L7.29929 9.05622V10.9969H4.67162L4.74453 10.7094ZM4.52561 11.7157H7.29929V13.6562L4.52553 11.8594L4.52561 11.7157ZM4.16063 13.2969L6.71542 14.95L3.13866 17.2501L4.16063 13.2969ZM2.11685 21.5625L2.62772 19.4063L7.29929 16.3157V17.9687C6.9343 17.9687 6.56943 18.3281 6.56943 18.6875V20.1249C6.56943 20.4843 6.9343 20.8438 7.29929 20.8438H8.75919C9.12418 20.8438 9.48905 20.4843 9.48905 20.1249V18.6875C9.48905 18.3281 9.12418 17.9687 8.75919 17.9687V16.3157L13.4308 19.4063L13.9418 21.5625H2.11685Z" fill="white"/>
</svg>
