<svg width="27" height="23" viewBox="0 0 27 23" fill="none" xmlns="http://www.w3.org/2000/svg">
<path d="M19.6701 15.1151C18.9498 14.2286 18.5619 13.1481 18.5619 12.0122V9.85127C18.5619 7.24706 16.7334 5.08612 14.2954 4.55974V3.53468C14.2954 2.89748 13.769 2.37109 13.1318 2.37109C12.4946 2.37109 11.9683 2.89748 11.9683 3.53468V4.55974C9.53027 5.08612 7.70178 7.24706 7.70178 9.85127V12.0122C7.70178 13.1481 7.31392 14.2286 6.59361 15.1151L5.67937 16.2787C5.01446 17.1098 5.59625 18.3288 6.64902 18.3288H19.6701C20.7228 18.3288 21.3046 17.1098 20.6397 16.2787L19.6701 15.1151Z" fill="white"/>
<path d="M18.2848 3.19843C17.9247 3.58629 17.9247 4.19579 18.3125 4.55594C19.6146 5.80264 20.3903 7.49261 20.5012 9.26569C20.5289 9.76436 20.9721 10.1522 21.4708 10.1522C21.4985 10.1522 21.5262 10.1522 21.5262 10.1522C22.0526 10.1245 22.4682 9.65355 22.4128 9.12716C22.2465 6.88311 21.2769 4.74988 19.6423 3.17073C19.2545 2.81057 18.645 2.83827 18.2848 3.19843Z" fill="white"/>
<path d="M5.84549 9.2953C5.98401 7.52222 6.75974 5.83226 8.03414 4.58556C8.422 4.22541 8.422 3.58821 8.06184 3.22805C7.70168 2.84019 7.06448 2.84019 6.70433 3.20034C5.06977 4.77949 4.10012 6.91273 3.93389 9.15678C3.90619 9.68317 4.29405 10.1541 4.82043 10.1818C4.84813 10.1818 4.87584 10.1818 4.87584 10.1818C5.37452 10.2095 5.79008 9.79398 5.84549 9.2953Z" fill="white"/>
<path d="M5.48546 1.67831C5.87332 1.31815 5.90103 0.708656 5.54087 0.320795C5.18072 -0.0670661 4.57122 -0.0947704 4.18336 0.265386C1.52374 2.73107 0 6.22182 0 9.8511V10.1004C0 10.6268 0.44327 11.0701 0.969653 11.0701C1.49604 11.0701 1.93931 10.6268 1.93931 10.1004V9.8511C1.93931 6.7205 3.186 3.81154 5.48546 1.67831Z" fill="white"/>
<path d="M22.1631 0.263563C21.7752 -0.0965939 21.1657 -0.0965939 20.8056 0.318971C20.4454 0.706832 20.4454 1.31633 20.861 1.67648C23.1604 3.80972 24.4071 6.71868 24.4071 9.84927V10.0986C24.4071 10.625 24.8504 11.0683 25.3768 11.0683C25.9032 11.0683 26.3464 10.625 26.3464 10.0986V9.84927C26.3187 6.22 24.795 2.72925 22.1631 0.263563Z" fill="white"/>
<path d="M13.1592 22.6493C14.683 22.6493 15.9297 21.4026 15.9297 19.8789H10.3888C10.3888 21.4026 11.6355 22.6493 13.1592 22.6493Z" fill="white"/>
</svg>
