<svg width="19" height="23" viewBox="0 0 19 23" fill="none" xmlns="http://www.w3.org/2000/svg">
<path fill-rule="evenodd" clip-rule="evenodd" d="M17.4794 -0.000255585H10.4391V2.99586H14.0789L9.03072 8.36591L5.80302 4.93178C5.53892 4.65082 5.18028 4.49242 4.80681 4.49242C4.43331 4.49242 4.0742 4.65122 3.81048 4.93178L0 8.9877V12.8555L4.80681 8.11131L8.03485 11.5454C8.29849 11.8264 8.65722 11.9848 9.03072 11.9848C9.40456 11.9848 9.76329 11.8264 10.0271 11.5454L16.0714 5.11524V8.9877H18.8874V1.49768C18.8874 0.670663 18.2568 -0.000255585 17.4794 -0.000255585Z" fill="white"/>
<path fill-rule="evenodd" clip-rule="evenodd" d="M10.4382 22.8438H13.2544V16.8521H10.4382V22.8438Z" fill="white"/>
<path fill-rule="evenodd" clip-rule="evenodd" d="M16.0714 22.8438H18.8875V12.3581H16.0714V22.8438Z" fill="white"/>
<path fill-rule="evenodd" clip-rule="evenodd" d="M4.94165 22.8438H7.75776V14.7143H4.94165V22.8438Z" fill="white"/>
<path fill-rule="evenodd" clip-rule="evenodd" d="M0 22.5273H2.81611V14.3979H0V22.5273Z" fill="white"/>
</svg>
