<svg width="22" height="24" viewBox="0 0 22 24" fill="none" xmlns="http://www.w3.org/2000/svg">
<path d="M1.28664 6.25699H2.12299V10.4553C2.22139 10.4553 2.36898 10.4053 2.46737 10.4053C2.61496 10.4053 2.81175 10.4553 2.95934 10.4553V6.20701H7.78066V6.15703C7.78066 5.00749 8.71541 4.10785 9.79774 4.10785C10.9293 4.10785 11.8148 5.05747 11.8148 6.15703V6.20701H16.8329C16.7345 5.95711 16.8821 3.75799 16.8821 3.70801H1.28664C1.08985 3.70801 0.893066 3.85795 0.893066 4.10785V5.85715C0.893066 6.05707 1.04066 6.25699 1.28664 6.25699Z" fill="white"/>
<path d="M19.3914 10.9551V23.9999H20.5229V11.105C20.2277 11.155 19.9325 11.055 19.3914 10.9551Z" fill="white"/>
<path d="M21.113 0.309567C21.0146 0.109647 20.7686 -0.0402932 20.5226 0.00968688L19.6371 0.209607C19.4895 0.259587 19.3419 0.359547 19.2435 0.509488L17.4724 3.65823C17.4232 3.70821 17.374 3.80817 17.374 3.90813L17.2756 5.90733C17.2756 6.0073 17.2756 6.05728 17.3248 6.15724L18.8499 10.1057C18.8991 10.3056 19.0959 10.4055 19.2927 10.4555L20.2767 10.6554C20.5226 10.7054 20.8178 10.5555 20.9162 10.3056C23.1793 4.25799 21.2114 0.459507 21.113 0.309567ZM20.0799 1.30917L20.2767 1.25919C20.3751 1.55907 20.5718 2.10885 20.6702 2.75859L18.5056 4.10805L20.0799 1.30917ZM19.9815 9.40594L19.8339 9.35596L18.7515 6.55708L20.4734 7.7566C20.3259 8.30638 20.1783 8.80618 19.9815 9.40594ZM20.6702 6.85696L18.5056 5.45751V4.95771L20.8178 3.75819C20.867 4.60785 20.867 5.65743 20.6702 6.85696Z" fill="white"/>
<path d="M9.79806 7.75697C10.6404 7.75697 11.3232 7.06328 11.3232 6.20758C11.3232 5.35188 10.6404 4.6582 9.79806 4.6582C8.95576 4.6582 8.27295 5.35188 8.27295 6.20758C8.27295 7.06328 8.95576 7.75697 9.79806 7.75697Z" fill="white"/>
<path d="M16.8329 21.6011H13.8319L11.4705 8.20648C11.4213 7.95658 11.2245 7.80664 10.9785 7.80664H8.56783C8.32185 7.80664 8.12506 8.00656 8.07586 8.20648L6.15717 21.5512H2.95936V14.0541C2.81177 14.1041 2.66418 14.1041 2.46739 14.1041C2.3198 14.1041 2.2214 14.1041 2.12301 14.0541V21.5512H0.450308C0.204323 21.5512 0.00753423 21.7511 0.00753423 22.001V23.4504C-0.0416629 23.8003 0.155125 24.0002 0.450308 24.0002H16.8329C17.0789 24.0002 17.2757 23.8003 17.2757 23.5504V22.1009C17.2757 21.8011 17.0789 21.6011 16.8329 21.6011ZM8.76462 10.7555L9.40418 11.3552L8.51863 12.3048L8.76462 10.7555ZM12.3068 18.5024L12.7496 21.1013L10.6833 19.6519L12.3068 18.5024ZM9.99455 19.2021L7.87907 17.7527L9.84696 15.8534L12.0608 17.8027L9.99455 19.2021ZM10.3881 15.3037L11.5689 14.1541L12.0116 16.7031L10.3881 15.3037ZM11.1753 12.1049L10.4373 11.4052L10.9785 10.8554L11.1753 12.1049ZM11.3229 13.3044L9.79776 14.8039L8.42024 13.6043L9.94535 11.955L11.3229 13.3044ZM8.22345 14.404L9.25659 15.3037L7.92827 16.6031L8.22345 14.404ZM7.63309 18.5524L9.30579 19.7019L7.28871 21.1513L7.63309 18.5524ZM9.99455 20.1517L12.11 21.6011H7.97747L9.99455 20.1517ZM10.6341 8.75626L10.8309 9.80584L9.94535 10.8054L8.91221 9.80584L9.0598 8.75626H10.6341Z" fill="white"/>
<path d="M1.13916 12.2557C1.13916 13.0054 1.72953 13.6052 2.46748 13.6052C3.20544 13.6052 3.7958 13.0054 3.7958 12.2557C3.7958 11.506 3.20544 10.9062 2.46748 10.9062C1.72953 10.9062 1.13916 11.506 1.13916 12.2557ZM3.20544 12.2557C3.20544 12.6556 2.86106 13.0054 2.46748 13.0054C2.07391 13.0054 1.72953 12.6556 1.72953 12.2557C1.72953 11.8559 2.07391 11.506 2.46748 11.506C2.86106 11.506 3.20544 11.8559 3.20544 12.2557Z" fill="white"/>
</svg>
