<svg width="26" height="20" viewBox="0 0 26 20" fill="none" xmlns="http://www.w3.org/2000/svg">
<path d="M21.4842 12.7933V12.9054C21.4842 13.1297 21.4021 13.4943 21.6484 13.4943H26V14.8402H21.6484C21.4294 14.8402 21.4842 15.1486 21.4842 15.3729V15.4851C21.4842 15.7094 21.32 15.8216 21.1284 15.7094L18.8568 14.3635C18.6652 14.2513 18.6652 14.0551 18.8568 13.9429L21.1284 12.597C21.32 12.4568 21.4842 12.569 21.4842 12.7933Z" fill="white"/>
<path d="M4.51579 15.2336V15.1214C4.51579 14.8971 4.59789 14.5326 4.35158 14.5326H0V13.1867H4.35158C4.57053 13.1867 4.51579 12.8782 4.51579 12.6539V12.5418C4.51579 12.3174 4.68 12.2053 4.87158 12.3174L7.14316 13.6634C7.33474 13.7755 7.33474 13.9718 7.14316 14.084L4.87158 15.4299C4.68 15.5701 4.51579 15.4859 4.51579 15.2336Z" fill="white"/>
<path d="M13.0001 8.70015C13.3285 9.20487 13.6296 9.68155 13.9306 10.1863C14.1496 10.5227 14.3685 10.8873 14.5875 11.2237C15.1075 12.0369 15.6001 12.8501 15.9559 13.6632C16.0927 13.9997 16.1748 14.3081 16.2022 14.6446C16.2296 14.897 16.2022 15.1493 16.1475 15.4017V15.5699C15.7643 17.028 14.5327 18.0094 13.0001 18.0655C11.4127 18.0094 10.1538 16.9719 9.82537 15.4297C9.82537 15.4017 9.82537 15.3736 9.798 15.3456C9.74327 15.0932 9.74327 14.8409 9.77063 14.5885C9.798 14.2801 9.88011 13.9717 10.0169 13.6352C10.3727 12.822 10.8654 12.0369 11.3854 11.1957C11.6043 10.8592 11.8233 10.4947 12.0422 10.1582C12.3706 9.68155 12.6991 9.20487 13.0001 8.70015ZM13.0001 5.08301C12.8359 5.36341 12.6991 5.64381 12.5348 5.89617C11.878 6.98972 11.1664 8.08328 10.4822 9.14879C10.2633 9.48527 10.0443 9.84979 9.82537 10.1863C9.25063 11.0835 8.73063 11.9528 8.32011 12.8781C8.10116 13.3828 7.96432 13.9156 7.90958 14.4203C7.85484 14.8409 7.88221 15.2895 7.96432 15.7382C7.96432 15.7942 7.99169 15.8223 7.99169 15.8784C8.53905 18.2898 10.5369 19.9441 12.9727 20.0002H13.0275C15.4085 19.9441 17.3517 18.3459 17.9538 16.0466L18.0085 15.7662C18.0906 15.3176 18.118 14.897 18.0906 14.4483C18.0359 13.9156 17.8991 13.4109 17.6801 12.8781C17.2696 11.9528 16.7496 11.0835 16.1748 10.1863C15.9559 9.82175 15.7369 9.48527 15.518 9.14879C14.8338 8.08328 14.1496 7.01776 13.4927 5.9242C13.3012 5.64381 13.1643 5.36341 13.0001 5.08301Z" fill="white"/>
<path d="M15.1074 5.92396C15.1895 5.92396 15.2716 5.92396 15.3263 5.89592C15.3537 5.89592 15.381 5.86788 15.381 5.83984C15.381 5.8118 15.381 5.8118 15.4084 5.78376C15.4905 5.22296 14.9705 4.85844 14.7516 4.4098C14.7242 4.35372 14.6968 4.26961 14.6968 4.18549C14.6968 3.96117 14.9431 3.79293 15.08 3.68077C15.3537 3.40037 15.6547 3.14801 15.6821 2.78349C15.7095 2.36289 15.4631 1.99837 15.2168 1.6619C15.1074 1.49366 14.9158 1.35346 14.9431 1.12914C14.9705 0.904819 15.1621 0.764619 15.3263 0.6805C15.4905 0.56834 15.2716 -0.0765776 15.08 0.00754208C14.8884 0.0916618 14.6695 0.259901 14.5326 0.428141C14.3684 0.62442 14.2863 0.876779 14.2589 1.12914C14.2316 1.46562 14.4505 1.77406 14.6695 2.08249C14.7789 2.25073 14.9431 2.41897 14.9705 2.64329C15.0252 2.92369 14.7789 3.03585 14.6147 3.20409C14.3137 3.48449 14.04 3.76489 13.9852 4.15745C13.9579 4.55 14.2042 4.88648 14.4231 5.19492C14.4779 5.27904 14.56 5.3912 14.6147 5.47532C14.6421 5.5314 14.6968 5.58748 14.6968 5.6716C14.7242 5.78376 14.7242 5.86788 14.861 5.92396C14.9431 5.92396 15.0252 5.92396 15.1074 5.92396Z" fill="white"/>
<path d="M16.7221 9.17689C16.7221 9.17689 16.7495 9.17689 16.7221 9.17689C16.8042 9.17689 16.8863 9.17689 16.941 9.14885C16.9684 9.14885 16.9958 9.12081 16.9958 9.09277C16.9958 9.06473 16.9958 9.06473 17.0231 9.03669C17.1053 8.47589 16.5853 8.11137 16.3663 7.66273C16.3389 7.60666 16.3116 7.52254 16.3116 7.43842C16.3116 7.2141 16.5579 7.04586 16.6947 6.9337C16.9684 6.6533 17.2695 6.40094 17.2968 6.03642C17.3242 5.61582 17.0779 5.2513 16.8316 4.91483C16.7221 4.74659 16.5305 4.60639 16.5579 4.38207C16.5853 4.15775 16.7768 4.01755 16.941 3.93343C17.1053 3.82127 16.8863 3.17635 16.6947 3.26047C16.5032 3.34459 16.2842 3.51283 16.1474 3.68107C15.9832 3.87735 15.901 4.12971 15.8737 4.38207C15.8463 4.71855 16.0653 5.02699 16.2842 5.33542C16.3937 5.50366 16.5579 5.6719 16.5853 5.89622C16.64 6.17662 16.3937 6.28878 16.2295 6.45702C15.9284 6.73742 15.6547 7.01782 15.6 7.41038C15.5726 7.80293 15.8189 8.13941 16.0379 8.44785C16.0926 8.53197 16.1747 8.64413 16.2295 8.72825C16.2568 8.78433 16.3116 8.84041 16.3116 8.92453C16.3389 9.03669 16.3389 9.12081 16.4758 9.17689C16.5853 9.17689 16.64 9.17689 16.7221 9.17689Z" fill="white"/>
<path d="M18.4736 12.3449C18.4736 12.3449 18.5009 12.3449 18.4736 12.3449C18.5557 12.3449 18.6378 12.3449 18.6925 12.3168C18.7199 12.3168 18.7472 12.2888 18.7472 12.2607C18.7472 12.2327 18.7472 12.2327 18.7746 12.2047C18.8567 11.6439 18.3367 11.2793 18.1178 10.8307C18.0904 10.7746 18.063 10.6905 18.063 10.6064C18.063 10.3821 18.3094 10.2138 18.4462 10.1017C18.7199 9.82127 19.0209 9.56891 19.0483 9.20439C19.0757 8.78379 18.8294 8.41927 18.583 8.08279C18.4736 7.91456 18.282 7.77436 18.3094 7.55004C18.3367 7.32572 18.5283 7.18552 18.6925 7.1014C18.8567 6.98924 18.6378 6.34432 18.4462 6.42844C18.2546 6.51256 18.0357 6.6808 17.8988 6.84904C17.7346 7.04532 17.6525 7.29768 17.6251 7.55004C17.5978 7.88651 17.8167 8.19495 18.0357 8.50339C18.1451 8.67163 18.3094 8.83987 18.3367 9.06419C18.3915 9.34459 18.1451 9.45675 17.9809 9.62499C17.6799 9.90539 17.4062 10.1858 17.3515 10.5783C17.3241 10.9709 17.5704 11.3074 17.7894 11.6158C17.8441 11.6999 17.9262 11.8121 17.9809 11.8962C18.0083 11.9523 18.063 12.0084 18.063 12.0925C18.0904 12.2047 18.0904 12.2888 18.2272 12.3449C18.3094 12.3449 18.3915 12.3449 18.4736 12.3449Z" fill="white"/>
<path d="M10.9201 5.92396C10.9201 5.92396 10.8927 5.92396 10.9201 5.92396C10.838 5.92396 10.7559 5.92396 10.7011 5.89592C10.6738 5.89592 10.6464 5.86788 10.6464 5.83984C10.6464 5.8118 10.6464 5.8118 10.619 5.78376C10.5369 5.22296 11.0569 4.85844 11.2759 4.4098C11.3032 4.35372 11.3306 4.26961 11.3306 4.18549C11.3306 3.96117 11.0843 3.79293 10.9475 3.68077C10.6738 3.40037 10.3727 3.14801 10.3453 2.78349C10.318 2.36289 10.5643 1.99837 10.8106 1.6619C10.9201 1.49366 11.1117 1.35346 11.0843 1.12914C11.0569 0.904819 10.8653 0.764619 10.7011 0.6805C10.5369 0.56834 10.7559 -0.0765776 10.9475 0.00754208C11.139 0.0916618 11.358 0.259901 11.4948 0.428141C11.659 0.62442 11.7411 0.876779 11.7685 1.12914C11.7959 1.46562 11.5769 1.77406 11.358 2.08249C11.2485 2.25073 11.0843 2.41897 11.0569 2.64329C11.0022 2.92369 11.2485 3.03585 11.4127 3.20409C11.7138 3.48449 11.9875 3.76489 12.0422 4.15745C12.0696 4.55 11.8232 4.88648 11.6043 5.19492C11.5496 5.27904 11.4675 5.3912 11.4127 5.47532C11.3854 5.5314 11.3306 5.58748 11.3306 5.6716C11.3032 5.78376 11.3032 5.86788 11.1664 5.92396C11.0843 5.92396 11.0022 5.92396 10.9201 5.92396Z" fill="white"/>
<path d="M9.30534 9.17689C9.30534 9.17689 9.27797 9.17689 9.30534 9.17689C9.22323 9.17689 9.14113 9.17689 9.08639 9.14885C9.05902 9.14885 9.03166 9.12081 9.03166 9.09277C9.03166 9.06473 9.03166 9.06473 9.00429 9.03669C8.92218 8.47589 9.44218 8.11137 9.66113 7.66273C9.6885 7.60666 9.71587 7.52254 9.71587 7.43842C9.71587 7.2141 9.46955 7.04586 9.33271 6.9337C9.05902 6.6533 8.75797 6.40094 8.7306 6.03642C8.70324 5.61582 8.94955 5.2513 9.19587 4.91483C9.30534 4.74659 9.49692 4.60639 9.46955 4.38207C9.44218 4.15775 9.2506 4.01755 9.08639 3.93343C8.92218 3.82127 9.14113 3.17635 9.33271 3.26047C9.52429 3.34459 9.74323 3.51283 9.88008 3.68107C10.0443 3.87735 10.1264 4.12971 10.1538 4.38207C10.1811 4.71855 9.96218 5.02699 9.74323 5.33542C9.63376 5.50366 9.46955 5.6719 9.44218 5.89622C9.38745 6.17662 9.63376 6.28878 9.79797 6.45702C10.099 6.73742 10.3727 7.01782 10.4274 7.41038C10.4548 7.80293 10.2085 8.13941 9.98955 8.44785C9.93481 8.53197 9.85271 8.64413 9.79797 8.72825C9.7706 8.78433 9.71587 8.84041 9.71587 8.92453C9.6885 9.03669 9.6885 9.12081 9.55166 9.17689C9.44218 9.17689 9.38745 9.17689 9.30534 9.17689Z" fill="white"/>
<path d="M7.55363 12.3449C7.55363 12.3449 7.52626 12.3449 7.55363 12.3449C7.47153 12.3449 7.38942 12.3449 7.33468 12.3168C7.30732 12.3168 7.27995 12.2888 7.27995 12.2607C7.27995 12.2327 7.27995 12.2327 7.25258 12.2047C7.17047 11.6439 7.69047 11.2793 7.90942 10.8307C7.93679 10.7746 7.96416 10.6905 7.96416 10.6064C7.96416 10.3821 7.71784 10.2138 7.581 10.1017C7.30732 9.82127 7.00626 9.56891 6.97889 9.20439C6.95153 8.78379 7.19784 8.41927 7.44416 8.08279C7.55363 7.91456 7.74521 7.77436 7.71784 7.55004C7.69047 7.32572 7.49889 7.18552 7.33468 7.1014C7.17047 6.98924 7.38942 6.34432 7.581 6.42844C7.77258 6.51256 7.99153 6.6808 8.12837 6.84904C8.29258 7.04532 8.37468 7.29768 8.40205 7.55004C8.42942 7.88651 8.21047 8.19495 7.99153 8.50339C7.88205 8.67163 7.71784 8.83987 7.69047 9.06419C7.63574 9.34459 7.88205 9.45675 8.04626 9.62499C8.34732 9.90539 8.621 10.1858 8.67574 10.5783C8.70311 10.9709 8.45679 11.3074 8.23784 11.6158C8.1831 11.6999 8.101 11.8121 8.04626 11.8962C8.0189 11.9523 7.96416 12.0084 7.96416 12.0925C7.93679 12.2047 7.93679 12.2888 7.79995 12.3449C7.71784 12.3449 7.63574 12.3449 7.55363 12.3449Z" fill="white"/>
</svg>
