<svg width="19" height="23" viewBox="0 0 19 23" fill="none" xmlns="http://www.w3.org/2000/svg">
<path d="M17.6737 21.4021C17.2379 21.1116 16.9958 20.6274 16.9958 20.1189C16.9958 19.6105 17.2379 19.1263 17.6737 18.8358C17.9158 18.6663 18.0611 18.4 18.0611 18.1095V2.49368C18.0611 1.11368 16.9474 0 15.5674 0H2.49368C1.11368 0 0 1.11368 0 2.49368V20.0947C0 21.6926 1.30737 23 2.90526 23H17.1895C17.5768 23 17.9158 22.7579 18.0368 22.3705C18.1337 22.0074 18.0126 21.62 17.6737 21.4021ZM1.5 2.5C1.5 2.08842 2.11263 1.5 2.5 1.5H15.7737C16.1853 1.5 16.5 1.81474 16.5 2.22632V17.2838H2.63789C2.25053 17.2838 1.86316 17.3564 1.5 17.5259V2.5ZM15.4056 20.1189C15.4056 20.7708 15.723 21.394 15.723 21.394H2.63789C2.00842 21.394 1.5 20.8295 1.5 20.2C1.5 19.5705 2.00842 18.9568 2.63789 18.9568H15.6988C15.6988 18.9568 15.4056 19.4671 15.4056 20.1189Z" fill="white"/>
<path d="M3.77691 10.5316L5.06007 10.7253C5.18112 11.0158 5.20533 11.1126 5.35059 11.4032L4.57586 12.4442C4.52743 12.5169 4.52743 12.6137 4.60007 12.6863L5.8348 13.9211C5.90743 13.9937 6.00428 13.9937 6.07691 13.9453L7.11796 13.1705C7.40849 13.2916 7.50533 13.3158 7.79586 13.4611L7.98954 14.7442C8.01375 14.8411 8.08638 14.8895 8.15901 14.8895H9.92638C10.0232 14.8895 10.0959 14.8169 10.0959 14.7442L10.2895 13.4611C10.5801 13.34 10.6769 13.3158 10.9674 13.1705L12.0085 13.9453C12.0811 13.9937 12.178 13.9937 12.2506 13.9211L13.4853 12.6863C13.558 12.6137 13.558 12.5169 13.5095 12.4442L12.7348 11.4032C12.8559 11.1126 12.8801 11.0158 13.0253 10.7253L14.3085 10.5316C14.4053 10.5074 14.4538 10.4348 14.4538 10.3621V8.59475C14.4538 8.49791 14.3811 8.42528 14.3085 8.42528L13.0253 8.23159C12.9043 7.94107 12.8801 7.84423 12.7348 7.5537L13.5095 6.51265C13.558 6.44001 13.558 6.34317 13.4853 6.27054L12.2506 5.0358C12.178 4.96317 12.0811 4.96317 12.0085 5.01159L10.9674 5.78633C10.6769 5.66528 10.5801 5.64107 10.2895 5.4958L10.0959 4.21265C10.0716 4.1158 9.99901 4.06738 9.92638 4.06738H8.15901C8.06217 4.06738 7.98954 4.14001 7.98954 4.21265L7.79586 5.4958C7.50533 5.61686 7.40849 5.64107 7.11796 5.78633L6.07691 5.01159C6.00428 4.96317 5.90743 4.96317 5.8348 5.0358L4.60007 6.27054C4.52743 6.34317 4.52743 6.44001 4.57586 6.51265L5.35059 7.5537C5.22954 7.84423 5.20533 7.94107 5.06007 8.23159L3.77691 8.42528C3.68007 8.44949 3.63165 8.52212 3.63165 8.59475V10.3621C3.60743 10.459 3.68007 10.5316 3.77691 10.5316ZM9.03059 7.45686C10.1443 7.45686 11.0643 8.35265 11.0643 9.49054C11.0643 10.6042 10.1685 11.5242 9.03059 11.5242C7.91691 11.5242 6.99691 10.6284 6.99691 9.49054C6.99691 8.35265 7.91691 7.45686 9.03059 7.45686Z" fill="white"/>
</svg>
