<svg width="20" height="20" viewBox="0 0 20 20" fill="none" xmlns="http://www.w3.org/2000/svg">
<path d="M10 0C8.02219 0 6.08879 0.58649 4.4443 1.6853C2.79981 2.78412 1.51809 4.3459 0.761209 6.17316C0.00433284 8.00042 -0.1937 10.0111 0.192152 11.9509C0.578004 13.8907 1.53041 15.6725 2.92894 17.0711C4.32746 18.4696 6.10929 19.422 8.0491 19.8078C9.98891 20.1937 11.9996 19.9957 13.8268 19.2388C15.6541 18.4819 17.2159 17.2002 18.3147 15.5557C19.4135 13.9112 20 11.9778 20 10C20 7.34783 18.9464 4.8043 17.0711 2.92893C15.1957 1.05357 12.6522 0 10 0ZM9.27007 18.5158C7.14224 18.3221 5.16299 17.3423 3.71881 15.7677C2.27463 14.193 1.46922 12.1366 1.45986 10C1.45784 9.25223 1.55604 8.50757 1.75183 7.78589L9.27007 10.5109V18.5158ZM12.3601 18.1995L10.7299 16.5693V15.2068L13.382 17.8345L12.3601 18.1995ZM14.7202 17.129L10.7299 13.1387V11.7518L15.4988 16.5207C15.2499 16.7368 14.9901 16.9398 14.7202 17.129ZM16.5207 15.4988L11.2409 10.219L12.1655 9.75669L17.129 14.7202C16.9398 14.9901 16.7368 15.2499 16.5207 15.4988ZM17.8346 13.382L13.5523 9.07542L14.4769 8.63747L18.1995 12.3601C18.0996 12.7081 17.9777 13.0494 17.8346 13.382ZM18.5401 10C18.5442 10.2031 18.5361 10.4062 18.5158 10.6083L15.8637 7.9562L16.7883 7.51825L18.4915 9.22141C18.5158 9.46472 18.5401 9.73236 18.5401 10ZM10.7299 8.83212V1.48418C12.0776 1.60382 13.3777 2.04102 14.5238 2.75998C15.6699 3.47894 16.6294 4.45919 17.3236 5.62044L10.7299 8.83212Z" fill="white"/>
</svg>
