<svg width="24" height="24" viewBox="0 0 24 24" fill="none" xmlns="http://www.w3.org/2000/svg">
<path fill-rule="evenodd" clip-rule="evenodd" d="M22.1193 10.019C22.3038 9.96566 22.4952 9.93769 22.6875 9.93769C22.749 9.93769 22.8096 9.9416 22.8699 9.94671C22.0186 5.47976 18.5209 1.98314 14.0536 1.13158C14.0585 1.19134 14.0624 1.25164 14.0624 1.31247C14.0624 1.50451 14.0343 1.69626 13.981 1.88044C18.0904 2.69276 21.3069 5.90938 22.1187 10.0184L22.1193 10.019Z" fill="white"/>
<path fill-rule="evenodd" clip-rule="evenodd" d="M13.3126 1.31255C13.3126 0.587641 12.7251 0.00013113 12.0002 0.00013113C11.2753 0.00013113 10.6877 0.587641 10.6877 1.31255C10.6877 2.03756 11.2753 2.625 12.0002 2.625C12.7251 2.625 13.3126 2.03756 13.3126 1.31255Z" fill="white"/>
<path fill-rule="evenodd" clip-rule="evenodd" d="M13.3126 22.6876C13.3126 21.9626 12.7251 21.3752 12.0002 21.3752C11.2753 21.3752 10.6877 21.9626 10.6877 22.6876C10.6877 23.4125 11.2753 24 12.0002 24C12.7251 24 13.3126 23.4125 13.3126 22.6876Z" fill="white"/>
<path fill-rule="evenodd" clip-rule="evenodd" d="M2.62487 11.9996C2.62487 11.2747 2.03733 10.6872 1.31242 10.6872C0.587404 10.6872 0 11.2747 0 11.9996C0 12.7246 0.587404 13.312 1.31242 13.312C2.03733 13.312 2.62487 12.7246 2.62487 11.9996Z" fill="white"/>
<path fill-rule="evenodd" clip-rule="evenodd" d="M24.0001 11.9996C24.0001 11.2747 23.4126 10.6872 22.6877 10.6872C21.9628 10.6872 21.3752 11.2747 21.3752 11.9996C21.3752 12.7246 21.9628 13.312 22.6877 13.312C23.4126 13.312 24.0001 12.7246 24.0001 11.9996Z" fill="white"/>
<path fill-rule="evenodd" clip-rule="evenodd" d="M22.1199 13.9814C21.9673 14.772 21.7192 15.547 21.3855 16.2794C20.3673 18.5058 18.5891 20.3029 16.3727 21.3423C15.6116 21.6979 14.8059 21.9608 13.9814 22.119C14.0342 22.3038 14.0623 22.4955 14.0623 22.6876C14.0623 22.749 14.0583 22.8093 14.0532 22.8696C14.9648 22.7006 15.8522 22.4144 16.6913 22.0217C19.0681 20.9067 20.9755 18.979 22.0673 16.5908C22.4353 15.7821 22.7079 14.9266 22.8698 14.054C22.8091 14.0584 22.7486 14.0624 22.6874 14.0624C22.4953 14.0624 22.3039 14.0346 22.1199 13.9814Z" fill="white"/>
<path fill-rule="evenodd" clip-rule="evenodd" d="M1.88056 10.019C2.69288 5.90939 5.90952 2.69275 10.019 1.88096C9.96558 1.69625 9.93783 1.50451 9.93751 1.31247C9.93751 1.25132 9.94143 1.19134 9.94653 1.13158C5.47905 1.98314 1.98127 5.47976 1.12939 9.94703C1.19033 9.94161 1.25082 9.93769 1.31239 9.93769C1.50465 9.93769 1.69606 9.96566 1.88056 10.019Z" fill="white"/>
<path fill-rule="evenodd" clip-rule="evenodd" d="M1.88064 13.9808C1.69614 14.0341 1.50473 14.0622 1.31247 14.0622C1.2509 14.0622 1.19042 14.0582 1.13013 14.0531C1.98136 18.5201 5.47915 22.0167 9.94642 22.8682C9.94153 22.8085 9.93759 22.7482 9.93759 22.6874C9.93791 22.4953 9.96567 22.3036 10.019 22.1194C5.90961 21.3071 2.69297 18.0905 1.88129 13.9814L1.88064 13.9808Z" fill="white"/>
<path fill-rule="evenodd" clip-rule="evenodd" d="M11.3857 18.5573C11.6211 19.0538 12.3529 19.0538 12.588 18.5573C12.588 18.5573 15.4369 13.0165 16.0901 11.7098C16.7436 10.403 16.7698 8.93923 16.0901 7.58044C14.9401 5.33266 12.1959 4.41784 9.92224 5.56778C7.6482 6.71772 6.78578 9.54069 7.88361 11.7098C9.0074 13.8792 11.3857 18.5573 11.3857 18.5573ZM11.987 7.55419C13.1891 7.55419 14.1561 8.52123 14.1561 9.7236C14.1561 10.9257 13.1891 11.8927 11.987 11.8927C10.7846 11.8927 9.81758 10.9257 9.81758 9.7236C9.81758 8.54739 10.7846 7.55419 11.987 7.55419Z" fill="white"/>
</svg>
