<svg width="23" height="27" viewBox="0 0 23 27" fill="none" xmlns="http://www.w3.org/2000/svg">
<path fill-rule="evenodd" clip-rule="evenodd" d="M21.7369 17.5635C21.4109 17.5635 21.1664 17.6858 20.9217 17.849L17.7432 15.6075C17.8248 15.404 17.9064 15.2003 17.9879 14.9964L19.7402 14.4667C19.8215 14.426 19.8625 14.3444 19.8625 14.2628V11.7773C19.8625 11.6956 19.8215 11.6141 19.7402 11.5735L17.9879 11.0437C17.9064 10.8398 17.8248 10.636 17.7432 10.4322L20.9627 8.19112C21.1664 8.35395 21.4515 8.47614 21.7369 8.47614C22.4296 8.47614 23 7.90569 23 7.21305C23 6.52041 22.4296 5.94961 21.7369 5.94961C21.2887 5.94961 20.9218 6.15343 20.6773 6.52041C20.3923 6.9277 20.3923 7.49839 20.6773 7.90569L17.5804 10.0656C17.5397 10.0249 17.5397 9.94338 17.4987 9.9024L18.3952 8.3133C18.4362 8.23166 18.4362 8.15014 18.3546 8.06884L16.5617 6.27561C16.5207 6.23496 16.3985 6.1944 16.317 6.23494L14.6872 7.1314C14.2796 6.9277 13.9126 6.76476 13.5053 6.64259L12.9755 4.89033C12.9348 4.80869 12.8533 4.76816 12.7717 4.76816H11.7121V2.52661C12.079 2.48596 12.405 2.24162 12.6088 1.91551C12.731 1.71181 12.7717 1.508 12.7717 1.30418C12.8124 0.570555 12.2419 0.000104904 11.5492 0.000104904C10.8566 0.000104904 10.2858 0.570538 10.2858 1.26351C10.2858 1.83397 10.6934 2.40443 11.3454 2.52661V4.72718H10.2858C10.2046 4.72718 10.1229 4.76817 10.0823 4.84936L9.5525 6.60161C9.14487 6.7239 8.77823 6.88705 8.37071 7.09087L6.74067 6.19441C6.65903 6.15342 6.57781 6.15341 6.49617 6.23494L4.70291 8.02797C4.62172 8.10949 4.6217 8.19114 4.66224 8.27266L5.55874 9.86176C5.5182 9.90241 5.51818 9.98406 5.47719 10.0656L2.33953 7.90569C2.82846 7.1724 2.46183 6.15342 1.56538 5.94961C1.15775 5.86831 0.709444 5.99059 0.383451 6.31659C-0.431365 7.1314 0.139137 8.47614 1.27995 8.47614C1.5654 8.47614 1.80976 8.39482 2.05423 8.19112L5.27371 10.4322C5.19207 10.636 5.11058 10.8398 5.02895 11.0437L3.27669 11.5735C3.1955 11.6141 3.11381 11.6957 3.11381 11.777V14.2628C3.11381 14.3444 3.1955 14.426 3.27669 14.4667L5.02895 14.9964C5.11058 15.2003 5.19207 15.404 5.27371 15.6075L2.05423 17.849C1.85041 17.6858 1.5654 17.5635 1.27995 17.5635C0.587308 17.5635 0.0168143 18.134 0.0168143 18.827C0.0168143 19.5197 0.587308 20.0901 1.27995 20.0901C1.72823 20.0901 2.09517 19.8864 2.33953 19.5197C2.46182 19.3159 2.54335 19.0714 2.54335 18.827C2.54335 18.5826 2.46182 18.3378 2.33953 18.134L5.43652 15.9745C5.47718 16.0561 5.47722 16.0967 5.5182 16.1373L4.62171 17.7267C4.58072 17.8083 4.58071 17.8896 4.66224 17.9712L6.4553 19.7641C6.53683 19.8457 6.61847 19.8457 6.7 19.8051L8.33004 18.9493C8.69668 19.1531 9.10431 19.3159 9.51149 19.4381L10.0414 21.1903C10.0823 21.272 10.1636 21.3535 10.2452 21.3535H11.3048V23.554C10.6934 23.6357 10.2452 24.1655 10.2452 24.8171C10.2452 25.5101 10.8156 26.0806 11.5086 26.0806C12.2012 26.0806 12.7717 25.5101 12.7717 24.8171C12.7717 24.6136 12.731 24.369 12.6088 24.1655C12.405 23.8394 12.079 23.5947 11.7121 23.554V21.3535H12.7717C12.8533 21.3535 12.9348 21.272 12.9755 21.1903L13.5053 19.4381C13.9126 19.3159 14.3202 19.1531 14.6872 18.9493L16.317 19.8051C16.3985 19.8457 16.4801 19.8457 16.5617 19.7641L18.3546 17.9712C18.3952 17.8896 18.4362 17.8083 18.3952 17.7267L17.4987 16.1373C17.5397 16.0967 17.5397 16.0151 17.5804 15.9745L20.6773 18.134C20.5551 18.3378 20.4735 18.5416 20.4735 18.827C20.4735 19.0714 20.5551 19.3159 20.6773 19.5197C20.9218 19.8864 21.3293 20.0901 21.7369 20.0901C22.4296 20.0901 23 19.5197 23 18.827C23 18.175 22.4296 17.5635 21.7369 17.5635ZM15.1354 13.9777C14.85 15.3224 13.7497 16.4227 12.405 16.7081C9.75629 17.2785 7.3926 14.9965 7.96306 12.3068C8.2484 10.962 9.34868 9.86175 10.6934 9.53576C13.3421 8.9653 15.7465 11.288 15.1354 13.9777Z" fill="white"/>
</svg>
