<svg width="20" height="21" viewBox="0 0 20 21" fill="none" xmlns="http://www.w3.org/2000/svg">
<path d="M13.9999 0.84082V10.0008C13.9926 10.7052 13.7994 11.3951 13.4399 12.0008H19.7999C20.2565 9.75776 19.9297 7.42597 18.8741 5.39484C17.8185 3.36372 16.098 1.75623 13.9999 0.84082Z" fill="white"/>
<path d="M10 12.001C11.1046 12.001 12 11.1055 12 10.001C12 8.89641 11.1046 8.00098 10 8.00098C8.89543 8.00098 8 8.89641 8 10.001C8 11.1055 8.89543 12.001 10 12.001Z" fill="white"/>
<path d="M0.840088 6.00092H10.0001C10.7044 6.00824 11.3944 6.20142 12.0001 6.56092V0.200924C9.75703 -0.255616 7.42523 0.0712038 5.39411 1.1268C3.36299 2.18241 1.7555 3.90288 0.840088 6.00092Z" fill="white"/>
<path d="M5.00053e-06 10.001C0.001007 11.9459 0.569133 13.8483 1.63481 15.4752C2.7005 17.1021 4.21748 18.383 6 19.161V10.001C6.00732 9.29663 6.2005 8.60671 6.56001 8.00098H0.200005C0.0663384 8.65923 -0.000666725 9.32928 5.00053e-06 10.001Z" fill="white"/>
<path d="M10 14.0009C9.29566 13.9936 8.60573 13.8004 8 13.4409V19.8009C10.2431 20.2575 12.5749 19.9306 14.606 18.875C16.6371 17.8194 18.2446 16.099 19.16 14.0009H10Z" fill="white"/>
</svg>
