<svg width="22" height="22" viewBox="0 0 22 22" fill="none" xmlns="http://www.w3.org/2000/svg">
<path d="M11 0C10.6798 0 10.4211 0.258789 10.4211 0.578947V3.35268C9.47737 3.157 8.679 3.00242 8.10526 2.89474L6.36842 4.05263L5.21053 5.21053H3.47368L2.89474 7.52632L1.73684 8.68421V10.4211H0.578947C0.258789 10.4211 0 10.6798 0 11C0 17.0656 4.93437 22 11 22C17.0656 22 22 17.0656 22 11C22 4.93437 17.0656 0 11 0ZM20.6673 12.815C19.8122 17.3771 15.8064 20.8421 11 20.8421C9.99263 20.8421 9.02116 20.6869 8.10526 20.4044V18.5263C8.10526 18.2067 8.36463 17.9474 8.68421 17.9474H9.8421L12.1579 19.1053L13.8947 17.9474V16.2105L15.6316 15.6316L14.4737 13.8947H12.7368L10.4211 13.3158L8.10526 14.4737H5.78947L4.05263 16.2105H2.66316C1.81037 14.8512 1.27368 13.2741 1.17526 11.5789H11C11.3202 11.5789 11.5789 11.3202 11.5789 11V1.17468C12.9233 1.25284 14.1929 1.60774 15.3398 2.17395L14.4737 3.47368L13.3158 4.63158L14.4737 6.94737H16.7895L17.9474 8.10526V9.8421L17.3684 11L18.5263 12.7368C19.0549 12.8231 19.8 12.8827 20.6673 12.815Z" fill="white"/>
</svg>
