<svg width="19" height="23" viewBox="0 0 19 23" fill="none" xmlns="http://www.w3.org/2000/svg">
<path fill-rule="evenodd" clip-rule="evenodd" d="M17.4794 0.000232697H10.4391V2.99635H14.0789L9.03072 8.3664L5.80302 4.93227C5.53892 4.65131 5.18028 4.49291 4.80681 4.49291C4.43331 4.49291 4.0742 4.65171 3.81048 4.93227L0 8.98819V12.856L4.80681 8.11179L8.03485 11.5459C8.29849 11.8269 8.65722 11.9853 9.03072 11.9853C9.40456 11.9853 9.76329 11.8269 10.0271 11.5459L16.0714 5.11573V8.98819H18.8874V1.49817C18.8874 0.671151 18.2568 0.000232697 17.4794 0.000232697Z" fill="white"/>
<path fill-rule="evenodd" clip-rule="evenodd" d="M10.4382 22.8433H13.2544V16.8516H10.4382V22.8433Z" fill="white"/>
<path fill-rule="evenodd" clip-rule="evenodd" d="M16.0715 22.8433H18.8876V12.3576H16.0715V22.8433Z" fill="white"/>
<path fill-rule="evenodd" clip-rule="evenodd" d="M4.94165 22.8433H7.75776V14.7138H4.94165V22.8433Z" fill="white"/>
<path fill-rule="evenodd" clip-rule="evenodd" d="M0 22.5278H2.81611V14.3984H0V22.5278Z" fill="white"/>
</svg>
