<svg width="215" height="130" viewBox="0 0 215 130" fill="none" xmlns="http://www.w3.org/2000/svg">
<path fill-rule="evenodd" clip-rule="evenodd" d="M87.6567 71.6807C87.6 71.7332 87.5045 71.7816 87.4974 71.84C87.4909 71.8984 87.5723 71.9674 87.616 72.0317C87.6726 71.9792 87.7682 71.9308 87.7753 71.8724C87.7817 71.814 87.6997 71.745 87.6567 71.6807ZM73.7168 53.292C73.6584 53.1422 73.5994 52.9923 73.541 52.8425C73.4419 52.9292 73.2614 53.0159 73.2614 53.1027C73.262 53.2572 73.3711 53.4112 73.4348 53.5658C73.5298 53.4761 73.6248 53.3858 73.7168 53.292ZM50.8847 73.7543C55.6184 75.4174 60.3516 77.0816 65.0853 78.7447C61.174 74.6989 56.3087 73.4175 50.8847 73.7543ZM133.993 63.2008C133.929 65.7942 133.989 65.852 136.164 65.1883C137.379 64.8178 138.566 64.3553 139.786 64.0108C140.702 63.7518 141.2 63.3359 140.746 62.3465C139.871 60.4369 139.489 57.6222 137.022 57.5869C134.363 57.5491 134.691 60.4676 134.081 62.3088C133.962 62.6698 134.003 63.084 133.993 63.2008ZM54.1365 36.7252C60.4058 41.725 65.1909 47.8917 69.9954 54.0613C67.0852 47.2893 62.8848 41.4559 57.7658 36.2638C56.5446 35.0255 55.5081 35.8184 54.1365 36.7252ZM72.9658 52.564C73.5451 50.9169 72.9174 49.9435 72.5788 48.9565C70.1647 41.9232 66.4003 35.668 61.5498 30.0499C58.5393 26.5627 58.4921 26.5557 54.2303 29.1532C61.9981 35.6273 68.0114 43.4783 72.9658 52.564ZM159.518 42.0671C164.244 32.6126 171.231 25.5811 181.186 21.0284C178.871 19.8444 176.933 18.9294 175.076 17.8728C174.041 17.284 173.321 17.461 172.47 18.1961C165.134 24.5351 160.986 32.5967 159.518 42.0671ZM129.791 10.4436C126.226 9.6755 122.787 9.68553 119.366 9.44955C117.728 9.33628 116.863 9.99584 116.152 11.374C113.725 16.0811 112.875 21.1889 112.181 26.3456C112.085 27.0601 112.314 27.6724 112.65 28.2995C114.595 31.9318 116.269 35.6839 117.537 39.6118C117.772 40.3386 117.968 41.1804 119.103 40.9079C120.068 40.6766 120.23 39.9651 120.33 39.1439C120.508 37.6856 120.656 36.2178 120.951 34.7813C121.293 33.1159 120.786 32.3088 119.062 31.8546C118.077 31.595 115.867 31.9017 116.467 29.9785C116.961 28.3916 118.483 29.916 119.544 29.8652C119.724 29.8564 119.914 29.9844 120.095 30.0576C121.043 30.4369 121.815 30.4593 122.091 29.208C122.32 28.1697 122.111 27.5043 120.916 27.3409C120.144 27.2353 119.378 27.0199 118.641 26.7645C117.713 26.4436 116.014 26.6772 116.323 25.1935C116.639 23.6785 118.045 24.541 119.014 24.7486C119.971 24.9534 120.908 25.2525 121.865 25.4578C123.614 25.8336 123.302 24.2372 123.721 23.4071C124.239 22.3788 123.544 22.1092 122.658 21.8868C120.76 21.4101 118.887 20.8355 117.011 20.2768C116.319 20.0704 115.654 19.7087 115.973 18.8397C116.279 18.0079 116.958 18.1235 117.693 18.3395C119.477 18.8627 121.338 19.1642 123.069 19.8161C125.375 20.6833 125.538 18.8462 125.94 17.6091C126.607 15.5472 124.743 16.4369 123.959 16.1968C123.033 15.9136 122.012 15.9525 121.071 15.7071C119.781 15.3714 117.465 15.6953 117.858 13.7839C118.176 12.24 120.032 13.5633 121.185 13.7113C128.768 14.6859 127.102 15.2481 129.791 10.4436ZM163.937 45.1042C168.725 43.4865 173.552 41.9763 178.285 40.2135C181.302 39.0897 183.471 40.0135 185.148 42.4394C185.914 43.5473 186.549 44.8369 186.874 46.1366C187.34 47.9961 188.185 48.1489 189.845 47.5707C195.019 45.7679 200.253 44.1349 205.444 42.378C206.1 42.1562 207.089 42.2878 207.308 41.1008C200.225 38.5729 193.139 36.0237 186.031 33.5383C185.231 33.2586 184.25 33.1088 183.444 33.2928C175.706 35.058 169.203 38.9705 163.937 45.1042ZM54.1807 70.5433C51.7525 68.4313 48.7161 67.78 45.7221 67.2838C43.3233 66.8868 41.9606 65.9617 41.2721 63.5046C40.399 60.3862 38.5471 57.6812 36.7808 54.9575C33.8936 50.5063 30.177 47.6592 24.6273 47.5159C21.2051 47.428 17.794 46.9537 14.3735 46.7159C13.8024 46.6764 12.9824 46.2611 12.6261 47.3312C21.7649 53.262 28.6219 61.0976 32.2382 71.509C32.83 73.2145 33.801 72.8063 34.9833 72.496C41.2456 70.8536 47.5621 69.751 54.1807 70.5433ZM143.889 72.9544C144.54 72.8812 144.926 72.9054 145.264 72.7898C157.501 68.6377 169.726 64.4532 181.971 60.3272C184.18 59.5826 184.978 57.932 185.193 55.879C185.556 52.4166 185.154 49.0155 183.829 45.7856C182.491 42.5273 181.515 42.1185 178.185 43.2405C167.517 46.8351 156.855 50.4438 146.194 54.056C144.526 54.6212 142.268 54.7675 141.368 55.9397C140.244 57.4046 142.795 58.7337 143.018 60.4192C143.069 60.7985 143.277 61.1543 143.397 61.5265C144.585 65.2255 144.704 68.9976 143.889 72.9544ZM23.6374 39.8613C33.1739 45.4369 40.219 52.6567 43.9935 62.7094C44.5062 64.0757 45.4253 64.2898 46.6341 64.5647C56.6054 66.8331 65.162 71.4152 71.2491 79.9193C71.9033 80.8337 72.7658 81.308 73.7664 81.803C77.6111 83.7056 81.3041 83.7469 85.2934 82.0319C88.9109 80.4774 89.0324 80.7193 87.1481 77.1336C82.6144 68.5044 75.9657 61.8056 67.9867 56.3668C56.8243 48.7589 44.3988 44.093 31.3663 40.9037C29.0077 40.3268 26.6839 39.377 23.6374 39.8613ZM129.341 40.6489C118.376 44.0682 108.055 47.189 97.8067 50.5311C93.8075 51.8355 91.8223 55.1516 90.9203 59.0948C89.551 65.0762 90.3403 70.9916 91.5609 76.8994C91.9881 78.9683 92.6665 79.6025 94.9219 78.8244C104.101 75.6552 113.358 72.7072 122.589 69.6831C127.171 68.1823 127.162 68.19 126.44 63.5264C126.306 62.6557 126.287 61.766 126.233 60.8841C125.814 54.1504 126.882 47.6197 129.341 40.6489ZM175.386 12.5002C165.879 9.41415 156.971 6.74405 148.245 3.57309C145.037 2.40736 142.568 2.89288 140.029 4.63322C138.737 5.51873 137.426 6.42784 136.32 7.52396C127.923 15.8463 125.028 26.5604 123.29 37.7664C123.068 39.2 123.679 39.5174 124.934 39.115C126.521 38.6059 128.1 38.0661 129.705 37.6219C130.697 37.347 131.811 36.6597 132.717 37.6809C133.54 38.6065 132.759 39.5245 132.419 40.4058C131.073 43.8936 130.021 47.4716 129.449 51.1617C128.707 55.9444 128.554 60.7419 129.714 65.4986C129.838 66.0072 129.711 66.8449 130.575 66.7505C131.405 66.6602 131.141 65.8957 131.186 65.3529C131.316 63.7907 131.329 62.2079 131.602 60.6711C132.192 57.345 133.829 54.9946 137.372 54.0377C141.151 53.0177 144.748 51.2709 148.553 50.4149C153.645 49.2692 157.149 47.1731 156.527 41.25C156.508 41.0666 156.622 40.8719 156.661 40.6796C159.014 28.9939 164.928 19.6161 175.386 12.5002ZM87.416 71.8181C87.416 68.4826 87.2815 66.0591 87.4402 63.655C88.0189 54.8784 91.2211 48.9146 100.384 46.7035C104.66 45.6717 108.782 44.021 113.023 42.824C114.808 42.3196 115.405 41.7969 114.7 39.8088C110.878 29.0476 104.869 19.8049 96.3224 12.1904C94.6924 10.738 93.2635 10.3138 91.0978 10.9822C83.7046 13.2653 76.2359 15.3018 68.8008 17.451C64.8346 18.5979 60.8802 19.7836 56.6479 21.032C57.3847 21.7547 57.7912 22.17 58.2166 22.567C68.8114 32.4651 75.7439 44.3355 77.7715 58.8511C77.8907 59.7042 77.811 60.5979 78.5591 61.2935C81.7194 64.2297 84.4067 67.5864 87.416 71.8181ZM78.4753 106.069C78.4753 100.274 78.4057 94.4786 78.5166 88.6865C78.5508 86.8931 77.9096 86.1314 76.2489 85.5598C66.884 82.3381 57.4679 79.2296 48.2647 75.5903C43.7434 73.8027 39.576 73.8417 35.126 75.2416C31.0578 76.5212 31.0643 76.4221 29.5746 72.2771C28.9676 70.5869 28.741 68.7309 26.4992 67.9847C19.6146 65.6921 12.7741 63.2598 5.96615 60.7472C3.80812 59.9508 3.46713 60.7106 3.47598 62.6516C3.5273 74.044 3.54323 85.4371 3.4575 96.8289C3.44412 98.6601 4.17448 99.3923 5.775 99.9386C10.6934 101.617 15.5675 103.426 20.457 105.191C38.8144 111.817 57.1853 118.407 75.5126 125.116C78.1101 126.067 78.6116 125.453 78.5302 122.862C78.3532 117.269 78.4753 111.667 78.4753 106.069ZM211.171 63.3453C211.171 58.0411 211.171 52.7375 211.171 47.4333C211.17 43.4275 211.164 43.4122 207.51 44.6086C202.012 46.4091 196.554 48.3436 191.011 49.9942C188.747 50.6685 188.01 51.6602 188.064 54.0932C188.189 59.6995 186.522 61.7 181.177 63.5194C173.564 66.1104 165.956 68.7156 158.349 71.3244C152.321 73.3921 146.292 75.454 140.281 77.5689C139.228 77.9394 138.295 78.0598 137.763 76.9542C137.252 75.8941 138.048 75.3985 138.893 74.9484C141.25 73.6912 141.294 71.3367 141.6 69.1044C141.902 66.8868 141.189 66.4248 139.019 67.1475C120.507 73.3178 101.972 79.4202 83.4167 85.4595C81.6888 86.0223 81.1563 86.8636 81.1655 88.6069C81.2268 100.196 81.2445 111.786 81.1563 123.375C81.1389 125.666 81.746 125.968 83.8456 125.271C125.543 111.425 167.257 97.6307 208.983 83.8714C210.658 83.3186 211.246 82.5009 211.213 80.7287C211.102 74.936 211.171 69.1398 211.171 63.3453ZM165.238 39.1776C172.735 33.6132 180.935 29.8381 190.51 29.2511C187.197 27.699 183.863 26.417 180.53 25.1356C179.691 24.8129 178.998 25.2041 178.321 25.6082C172.764 28.9231 168.058 33.1035 164.911 38.8549C164.705 39.0761 164.514 39.3103 164.872 39.541C164.903 39.561 165.112 39.3056 165.238 39.1776ZM25.4356 64.4904C25.5117 64.5229 25.5872 64.5547 25.6633 64.5866C25.5772 64.5659 25.4904 64.5447 25.4043 64.524C24.1695 60.4853 20.9148 58.0039 18.1438 55.1563C17.9191 54.925 17.381 54.7758 17.0831 54.8737C13.9882 55.8943 10.7075 56.4028 7.18144 58.2281C13.6372 60.513 19.3957 62.8922 25.4356 64.4904ZM62.0064 49.1518C62.037 49.2202 62.0559 49.2981 62.1025 49.3524C62.1273 49.3813 62.1993 49.3701 62.2506 49.3766C62.1562 49.3152 62.0624 49.2539 61.9686 49.1925C61.8028 47.4557 60.2926 46.6498 59.3292 45.4906C56.5553 42.1497 55.9075 42.1078 52.1147 44.7307C55.4768 46.2333 58.7416 47.6929 62.0064 49.1518ZM214.172 72.7526C214.115 75.6947 213.803 78.6609 214.076 81.5717C214.344 84.4401 213.102 85.4955 210.59 86.3114C193.238 91.9495 175.927 97.7133 158.604 103.443C132.989 111.914 107.372 120.378 81.7719 128.895C80.3832 129.356 79.2175 129.39 77.8252 128.885C53.0109 119.899 28.1912 110.928 3.32554 102.086C1.11029 101.298 0.585829 100.242 0.604708 98.0714C0.681401 89.2328 0.571081 80.393 0.529785 71.5538C0.571081 67.5286 0.706179 63.5017 0.612967 59.48C0.567541 57.5184 0.989944 56.5592 3.15505 56.0689C7.02333 55.1928 10.7766 53.8071 14.9109 52.531C11.9895 50.0473 9.01086 48.3902 5.93134 46.8958C5.12665 46.5059 4.16268 46.1761 4.33022 45.0782C4.52786 43.7833 5.65465 43.8376 6.64281 43.8193C12.6868 43.7101 18.7232 43.7673 24.7093 44.929C24.8633 43.378 23.6722 43.1975 22.9017 42.7267C19.4576 40.6223 15.7964 38.9752 11.9777 37.6702C10.9943 37.334 9.61733 37.1953 9.95537 35.6786C10.2816 34.212 11.5565 34.5341 12.6225 34.6574C23.2805 35.8921 33.7851 37.9676 43.849 41.6789C47.5792 43.0547 50.454 41.5804 53.8433 40.7079C53.2846 39.161 51.9189 38.6472 50.9289 37.7918C48.9939 36.1187 49.1054 35.3594 51.5024 34.3695C52.3112 34.0356 53.1188 33.6975 53.9217 33.3489C53.999 33.3158 54.0386 33.1955 54.1353 33.0586C53.3088 31.7029 51.8988 30.9478 50.7166 29.9661C49.057 28.5886 49.2087 27.555 51.1773 26.784C52.8026 26.1468 54.4562 25.5811 56.1388 24.9687C55.5665 23.6124 54.445 23.0915 53.6002 22.3027C52.9708 21.7151 52.0003 21.311 52.1613 20.2532C52.3478 19.0256 53.5188 18.9353 54.4167 18.6746C62.7981 16.2422 71.1913 13.8482 79.5815 11.4436C83.7282 10.2542 87.908 9.1652 92.0081 7.83133C93.8328 7.23843 95.1348 7.6101 96.5607 8.75282C101.499 12.7108 105.58 17.4463 109.567 23.0101C110.29 20.183 110.816 17.7737 111.526 15.4198C114.059 7.02015 115.575 6.02373 124.226 6.86617C124.421 6.88505 124.62 6.89272 124.811 6.93284C129.262 7.85846 133.442 7.99297 136.526 3.70996C137.167 2.81737 138.444 2.38376 139.426 1.73423C142.293 -0.163634 145.119 -0.504033 148.547 0.714207C157.968 4.06157 167.535 6.99183 177.033 10.1262C178.275 10.5356 180.118 10.4188 180.383 12.0435C180.678 13.8565 178.592 13.7798 177.62 14.611C177.398 14.801 177.17 14.985 176.775 15.3136C178.954 17.0811 181.544 17.9513 183.893 19.2279C186.838 20.8284 186.91 21.0933 184.499 23.6419C189.867 25.6784 195.167 27.6707 200.449 29.7101C201.478 30.1071 203.107 30.2292 202.774 31.8256C202.43 33.4787 200.962 32.7713 199.832 32.7436C197.734 32.6911 195.652 31.8144 193.454 32.4929C193.91 33.74 195.022 33.7076 195.879 34.0208C201.129 35.9376 206.368 37.8897 211.666 39.6643C213.442 40.2589 214.072 41.0371 214.058 43.0051C213.984 52.9204 214.114 62.8368 214.172 72.7526Z" fill="#282D53"/>
<path fill-rule="evenodd" clip-rule="evenodd" d="M86.2296 119.894C86.1712 118.926 85.8025 118.113 84.7193 118.154C83.4905 118.201 83.1394 119.132 83.2114 120.203C83.2775 121.185 83.7725 121.902 84.8574 121.788C85.9311 121.676 86.2184 120.855 86.2296 119.894ZM86.252 90.1613C86.2213 89.1578 85.9494 88.2699 84.8857 88.1838C83.6551 88.0841 83.222 88.9708 83.1784 90.0604C83.1394 91.0397 83.5312 91.8934 84.5429 91.9878C85.7629 92.1022 86.1682 91.1819 86.252 90.1613ZM208.828 79.1553C208.573 78.4857 208.356 77.5223 207.25 77.54C206.018 77.5595 205.613 78.5281 205.621 79.5629C205.628 80.4897 206.067 81.3947 207.137 81.364C208.306 81.3316 208.72 80.4101 208.828 79.1553ZM207.239 51.1528C208.352 50.9735 208.799 50.1694 208.761 49.1193C208.728 48.1919 208.298 47.3813 207.226 47.3931C205.973 47.4067 205.635 48.3559 205.671 49.3836C205.704 50.2945 206.071 51.0797 207.239 51.1528ZM122.215 92.0373C122.517 93.3411 121.465 95.4201 122.787 95.872C126.284 97.069 129.697 99.4329 133.664 98.1586C145.505 94.3552 157.293 90.3873 169.15 86.6364C171.107 86.0175 171.779 85.2294 171.711 83.1793C171.479 76.2504 172.731 78.0178 166.169 76.3436C165.126 76.0775 164.036 75.976 163.016 75.648C160.699 74.9029 159.539 75.6162 159.916 78.0969C160.239 80.2166 159.213 80.9741 157.349 81.5416C152.011 83.1669 146.712 84.9249 141.432 86.7361C135.89 88.6375 130.439 90.9448 124.555 87.7673C123.228 87.0511 122.295 87.8517 122.222 89.3855C122.18 90.2657 122.215 91.1501 122.215 92.0373ZM211.171 63.3453C211.171 69.1397 211.102 74.936 211.213 80.7286C211.246 82.5008 210.658 83.3185 208.983 83.8707C167.258 97.6306 125.544 111.425 83.8462 125.271C81.7466 125.968 81.1395 125.665 81.1569 123.375C81.2451 111.786 81.2274 100.196 81.1661 88.6068C81.1568 86.8635 81.6894 86.0222 83.4173 85.4594C101.972 79.4202 120.508 73.3177 139.02 67.1475C141.19 66.4248 141.903 66.8861 141.6 69.1043C141.295 71.3367 141.25 73.6912 138.894 74.9478C138.049 75.3985 137.253 75.894 137.764 76.9542C138.296 78.0597 139.229 77.9394 140.282 77.5689C146.293 75.4539 152.322 73.3921 158.349 71.3243C165.957 68.7156 173.565 66.1104 181.178 63.5187C186.523 61.6993 188.19 59.6994 188.064 54.0931C188.01 51.6602 188.748 50.6685 191.012 49.9942C196.555 48.3435 202.013 46.4085 207.511 44.6086C211.165 43.4116 211.171 43.4275 211.171 47.4332C211.172 52.7374 211.171 58.0411 211.171 63.3453Z" fill="#656A8A"/>
<path fill-rule="evenodd" clip-rule="evenodd" d="M74.8543 121.768C75.9257 121.663 76.2389 120.944 76.1852 119.956C76.1321 118.977 75.7221 118.2 74.6573 118.209C73.5635 118.217 73.1865 119.044 73.2332 120.009C73.2803 120.969 73.7476 121.652 74.8543 121.768ZM9.49294 95.7589C9.33365 94.7436 8.96494 93.851 7.7762 93.8274C6.80337 93.8074 6.51489 94.5501 6.49011 95.3955C6.45943 96.4444 6.72609 97.4007 7.94492 97.4721C9.01272 97.5352 9.36846 96.7005 9.49294 95.7589ZM9.49648 67.1955C9.25814 66.2167 8.83102 65.274 7.62812 65.4162C6.51902 65.5471 6.4146 66.5211 6.49011 67.4397C6.56916 68.4102 7.02106 69.2101 8.08238 69.1187C9.10357 69.0308 9.4717 68.1984 9.49648 67.1955ZM75.0708 91.9779C76.1103 91.7142 76.554 90.9827 76.472 90.0476C76.3817 89.0223 75.8454 88.0996 74.6909 88.181C73.6974 88.2512 73.2455 89.1285 73.3364 90.0718C73.4337 91.0889 73.9317 91.8883 75.0708 91.9779ZM78.476 106.069C78.476 111.667 78.3539 117.27 78.5303 122.862C78.6123 125.453 78.1102 126.067 75.5127 125.116C57.1854 118.408 38.8151 111.817 20.4571 105.191C15.5676 103.426 10.6941 101.617 5.7751 99.9387C4.17457 99.3924 3.44481 98.6603 3.45819 96.8297C3.54392 85.4372 3.5274 74.0441 3.47607 62.6517C3.46781 60.7108 3.80821 59.9509 5.96624 60.7473C12.7742 63.2599 19.6147 65.6923 26.4993 67.9848C28.7411 68.7311 28.9677 70.5871 29.5753 72.2773C31.0643 76.4222 31.0579 76.5213 35.1261 75.2417C39.5761 73.8418 43.7435 73.8029 48.2648 75.591C57.468 79.2304 66.8841 82.3382 76.249 85.5599C77.9097 86.1316 78.5509 86.8932 78.5167 88.6866C78.4058 94.4787 78.4754 100.274 78.476 106.069Z" fill="#5B607E"/>
<path fill-rule="evenodd" clip-rule="evenodd" d="M69.6681 26.5936C77.9427 25.688 85.668 22.7825 93.4895 20.2268C94.1143 20.0227 94.565 19.6363 94.355 18.9384C94.1597 18.2912 93.5715 18.0334 92.9491 18.1839C91.6165 18.506 90.2495 18.785 88.9924 19.3107C84.261 21.2917 79.3892 22.7017 74.3039 23.4338C72.5694 23.6833 70.8786 24.2562 69.1843 24.7388C68.579 24.911 68.1702 25.3901 68.3159 26.0738C68.4782 26.839 69.0905 26.8396 69.6681 26.5936ZM100.308 32.2529C99.9294 32.3573 99.5383 32.4287 99.1754 32.5715C92.3161 35.2675 85.209 37.0586 77.9763 38.3954C77.5917 38.4662 77.1964 38.5465 76.8424 38.704C76.2165 38.9824 75.4826 39.2963 75.7251 40.1665C75.9681 41.0402 76.7008 40.9352 77.4176 40.806C85.4344 39.3671 93.204 37.0327 100.877 34.349C101.446 34.1496 102.057 33.8564 101.896 33.1461C101.721 32.3721 101.097 32.0907 100.308 32.2529ZM96.4033 24.9494C95.9703 25.0709 95.0936 25.2278 94.2871 25.5582C88.3759 27.9817 82.2546 29.617 75.9475 30.5975C75.085 30.7314 74.2484 31.0471 73.4077 31.3049C72.629 31.5438 71.7984 31.8576 72.186 32.8989C72.5039 33.7526 73.2626 33.4653 73.9505 33.342C81.8599 31.9243 89.5575 29.7468 97.0935 26.9741C97.736 26.7375 98.5212 26.6048 98.2675 25.6508C98.0829 24.9594 97.4658 24.875 96.4033 24.9494ZM87.4154 71.8183C84.4061 67.5866 81.7189 64.2298 78.5586 61.293C77.8105 60.5981 77.8908 59.7043 77.771 58.8512C75.7433 44.3356 68.8109 32.4653 58.216 22.5672C57.7913 22.1701 57.3842 21.7542 56.6479 21.0321C60.8802 19.7838 64.8346 18.5974 68.8009 17.4511C76.2354 15.3014 83.7047 13.2655 91.0979 10.9824C93.2636 10.314 94.6918 10.7381 96.3225 12.1906C104.869 19.805 110.878 29.0477 114.7 39.8084C115.405 41.7971 114.808 42.3198 113.023 42.8242C108.782 44.0212 104.66 45.6713 100.384 46.7031C91.2212 48.9148 88.019 54.8786 87.4402 63.6546C87.2809 66.0586 87.4154 68.4821 87.4154 71.8183Z" fill="white" fill-opacity="0.6"/>
<path fill-rule="evenodd" clip-rule="evenodd" d="M145.787 33.0542C145.603 31.9003 144.559 31.8548 143.802 31.5563C140.082 30.0891 136.148 29.2077 132.537 27.4279C131.887 27.1075 131.038 26.484 130.486 27.4715C129.843 28.6231 130.836 29.0473 131.653 29.3523C135.765 30.8861 139.887 32.3946 144.023 33.866C144.778 34.135 145.606 34.1798 145.787 33.0542ZM133.833 20.6866C133.072 20.6234 132.518 20.8016 132.336 21.4724C132.184 22.0381 132.571 22.4163 133.054 22.5809C137.763 24.1838 142.475 25.7819 147.201 27.3329C147.798 27.5293 148.393 27.2114 148.573 26.5483C148.724 25.989 148.341 25.6126 147.854 25.4462C143.148 23.8369 138.436 22.2458 133.833 20.6866ZM154.488 23.3124C155.364 23.3909 156.156 23.5956 156.352 22.657C156.586 21.5396 155.642 21.4305 154.908 21.2305C151.321 20.2512 147.818 19.0312 144.397 17.5787C141.968 16.5475 139.553 15.4868 137.108 14.4962C136.388 14.2048 135.487 13.9859 135.168 15.049C134.897 15.9493 135.714 16.1847 136.324 16.4531C138.023 17.2006 139.738 17.912 141.44 18.6536C145.745 20.5279 150.11 22.2299 154.488 23.3124ZM141.378 8.48704C140.756 8.42274 140.289 8.53306 140.055 9.05457C139.74 9.7572 140.195 10.169 140.708 10.487C142.302 11.4716 144.006 12.2303 145.815 12.7081C150.74 14.0084 155.667 15.3015 160.612 16.5227C161.497 16.7416 162.794 18.0377 163.316 16.3681C163.774 14.9039 162.106 14.8066 161.201 14.4791C159.64 13.9146 158.003 13.5541 156.386 13.1559C151.732 12.0096 146.931 11.3642 142.605 9.1C142.172 8.87287 141.731 8.66285 141.378 8.48704ZM175.385 12.5005C164.928 19.6164 159.014 28.9942 156.661 40.6793C156.622 40.8716 156.507 41.0669 156.527 41.2503C157.149 47.1734 153.644 49.2689 148.552 50.4146C144.747 51.2706 141.151 53.0174 137.372 54.038C133.828 54.9949 132.191 57.3453 131.601 60.6714C131.328 62.2076 131.316 63.791 131.186 65.3532C131.141 65.8954 131.404 66.6599 130.575 66.7508C129.711 66.8446 129.837 66.0074 129.714 65.4983C128.554 60.7422 128.706 55.9441 129.449 51.1614C130.02 47.4713 131.073 43.8939 132.419 40.4055C132.759 39.5247 133.539 38.6068 132.717 37.6806C131.81 36.6594 130.697 37.3467 129.704 37.6222C128.099 38.0664 126.52 38.6062 124.933 39.1147C123.678 39.5177 123.067 39.1997 123.29 37.7667C125.028 26.5607 127.923 15.8466 136.32 7.52366C137.426 6.42754 138.737 5.51843 140.028 4.63351C142.567 2.89317 145.037 2.40764 148.245 3.57338C156.97 6.74434 165.878 9.41385 175.385 12.5005Z" fill="white" fill-opacity="0.6"/>
<path fill-rule="evenodd" clip-rule="evenodd" d="M50.2287 50.0415C48.9308 50.4338 49.2282 51.2639 49.7155 52.091C51.7579 55.5551 53.8215 59.0063 55.8716 62.4658C56.304 63.1949 56.8379 63.8498 57.7311 63.2716C58.5275 62.7566 58.0473 62.0274 57.7104 61.4552C55.671 57.9898 53.6026 54.5416 51.5472 51.0863C51.2422 50.5736 50.9308 50.0798 50.2287 50.0415ZM57.4402 52.6231C56.255 53.2366 56.6934 54.1635 57.1948 55.0242C59.3074 58.6524 61.4418 62.2676 63.591 65.8739C64.0099 66.5765 64.3343 67.7346 65.5001 66.9936C66.6263 66.2774 65.7597 65.4114 65.3685 64.7147C63.2654 60.9697 60.6731 57.5108 58.862 53.5918C58.616 53.0602 58.2791 52.5494 57.4402 52.6231ZM41.1943 46.293C39.576 47.1968 40.2911 48.0964 40.9866 48.9719C43.7812 52.4892 46.5799 56.0035 48.8559 59.8942C49.2547 60.575 49.65 61.4228 50.6151 60.9608C51.9077 60.342 51.047 59.4565 50.657 58.7692C48.2872 54.5894 45.2395 50.8916 42.2556 47.1531C41.9712 46.7968 41.5335 46.5626 41.1943 46.293ZM23.6375 39.862C26.6839 39.377 29.0077 40.3268 31.3663 40.9038C44.3989 44.0931 56.8243 48.7589 67.9867 56.3675C75.9651 61.8056 82.6144 68.5045 87.1482 77.1336C89.0325 80.7193 88.9109 80.4774 85.2934 82.0325C81.3042 83.7469 77.6111 83.7056 73.7658 81.803C72.7659 81.3081 71.9034 80.8338 71.2491 79.9199C65.162 71.4153 56.6054 66.8331 46.6342 64.5648C45.4248 64.2899 44.5062 64.0757 43.9936 62.71C40.2191 52.6573 33.1739 45.437 23.6375 39.862Z" fill="white" fill-opacity="0.6"/>
<path fill-rule="evenodd" clip-rule="evenodd" d="M168.039 59.1395C168.171 58.2747 167.471 57.7915 166.097 58.1171C160.947 59.3389 155.899 60.8864 151.122 63.2184C150.499 63.5222 149.719 63.816 150.045 64.6732C150.418 65.6561 151.261 65.4814 152.024 65.1228C156.742 62.911 161.675 61.3477 166.74 60.1631C167.286 60.0356 167.893 59.8427 168.039 59.1395ZM180.814 49.3051C180.329 47.4249 178.93 48.3812 178.005 48.6585C168.259 51.5811 158.533 54.5745 148.813 57.5886C148.054 57.8239 146.742 57.9083 147.049 59.1112C147.412 60.53 148.666 59.877 149.508 59.6209C159.431 56.6051 169.339 53.5386 179.255 50.4962C179.909 50.295 180.622 50.226 180.814 49.3051ZM143.889 72.9543C144.704 68.9975 144.586 65.2254 143.397 61.5264C143.278 61.1548 143.069 60.7984 143.019 60.4191C142.795 58.7342 140.244 57.4051 141.368 55.9396C142.268 54.7674 144.527 54.6211 146.195 54.0559C156.855 50.4437 167.518 46.835 178.185 43.2405C181.515 42.1184 182.492 42.5272 183.829 45.7861C185.154 49.0154 185.556 52.4165 185.194 55.8795C184.979 57.9319 184.18 59.5826 181.971 60.3271C169.726 64.4532 157.501 68.6383 145.265 72.7903C144.926 72.9053 144.54 72.8812 143.889 72.9543Z" fill="white" fill-opacity="0.6"/>
<path fill-rule="evenodd" clip-rule="evenodd" d="M116.645 66.7841C116.315 65.9717 115.705 65.7404 114.809 65.957C108.925 67.3781 103.035 68.7745 97.1516 70.1975C96.4153 70.3757 95.4378 70.4948 95.6555 71.5927C95.8726 72.6865 96.7593 72.454 97.5374 72.2694C103.427 70.8736 109.315 69.4736 115.206 68.0819C115.896 67.9185 116.533 67.725 116.645 66.7841ZM97.5203 64.7417C101.258 64.0963 105.807 63.3901 110.319 62.4957C112.226 62.1176 114.062 61.3678 115.915 60.7389C116.478 60.5483 117.029 60.1631 116.838 59.4498C116.608 58.5938 115.902 58.4693 115.193 58.7608C109.222 61.2185 102.807 61.5483 96.5587 62.6763C95.7652 62.819 94.8514 62.8822 95.0655 63.9983C95.223 64.8213 95.9847 64.8956 97.5203 64.7417ZM116.856 51.9498C116.567 50.6295 115.756 50.8773 114.909 51.39C111.463 53.4754 107.589 54.0141 103.708 54.6164C101.202 55.0058 98.7332 55.6494 96.2602 56.234C95.4431 56.427 94.7375 56.9125 95.1446 57.9054C95.5045 58.7832 96.2242 58.4422 96.8967 58.2416C100.475 57.1726 104.181 56.762 107.845 56.1261C110.453 55.673 113.021 55.0087 115.333 53.6424C115.981 53.2589 116.784 52.9533 116.856 51.9498ZM129.341 40.6494C126.883 47.6196 125.815 54.1503 126.233 60.8846C126.288 61.7666 126.306 62.6556 126.441 63.527C127.162 68.1899 127.171 68.1828 122.589 69.6837C113.359 72.7071 104.102 75.6551 94.9222 78.8243C92.6668 79.603 91.9884 78.9682 91.5613 76.8993C90.3407 70.9916 89.5519 65.0762 90.9206 59.0947C91.8226 55.1515 93.8078 51.8354 97.807 50.5316C108.056 47.189 118.377 44.0682 129.341 40.6494Z" fill="#555975"/>
<path fill-rule="evenodd" clip-rule="evenodd" d="M33.3247 55.1689C32.6375 55.3577 32.2516 55.9152 32.5254 56.4869C33.5725 58.6773 34.4793 60.9545 36.0249 62.873C36.429 63.3745 36.9936 63.6411 37.5588 63.3043C38.167 62.9415 38.0762 62.3214 37.7688 61.7592C36.7417 59.8832 35.7199 58.0042 34.6669 56.1423C34.3808 55.6362 34.0238 55.1435 33.3247 55.1689ZM36.032 66.5384C33.7218 62.0312 30.9591 57.4579 27.7675 53.1472C27.4406 52.7059 26.9032 52.8109 26.4725 53.1755C26.0188 53.5584 26.0135 54.0179 26.2985 54.4704C28.9963 58.7593 31.831 62.9645 34.1501 67.4829C34.4002 67.9696 34.835 68.1572 35.3683 68.0103C35.9429 67.8522 36.0556 67.3956 36.032 66.5384ZM54.1811 70.5429C47.5625 69.7506 41.2454 70.8532 34.9837 72.4962C33.8014 72.806 32.8304 73.2142 32.2381 71.5093C28.6223 61.0973 21.7647 53.2622 12.6265 47.3309C12.9828 46.2607 13.8028 46.676 14.3733 46.7156C17.7938 46.9533 21.2055 47.4276 24.6278 47.5155C30.1774 47.6589 33.8935 50.506 36.7812 54.9577C38.5475 57.6809 40.3994 60.3864 41.2725 63.5043C41.9604 65.9614 43.3238 66.8864 45.7225 67.2841C48.7159 67.7796 51.7523 68.4309 54.1811 70.5429Z" fill="#ACAEBF" fill-opacity="0.8"/>
<path fill-rule="evenodd" clip-rule="evenodd" d="M72.966 52.5641C68.0116 43.4783 61.9983 35.6273 54.2305 29.1527C58.4922 26.5557 58.5389 26.5628 61.5494 30.05C66.4005 35.6675 70.1649 41.9227 72.579 48.9566C72.917 49.9436 73.5453 50.917 72.966 52.5641Z" fill="#ACAEBF" fill-opacity="0.8"/>
<path fill-rule="evenodd" clip-rule="evenodd" d="M163.938 45.1043C169.203 38.9706 175.706 35.0581 183.444 33.2929C184.251 33.1089 185.231 33.2587 186.031 33.5384C193.139 36.0238 200.225 38.573 207.309 41.1003C207.09 42.2879 206.1 42.1557 205.444 42.3775C200.253 44.135 195.02 45.768 189.845 47.5708C188.186 48.149 187.34 47.9962 186.875 46.1367C186.549 44.837 185.914 43.5468 185.148 42.4389C183.471 40.0136 181.303 39.0898 178.286 40.213C173.552 41.9764 168.725 43.4866 163.938 45.1043Z" fill="#9599B4"/>
<path fill-rule="evenodd" clip-rule="evenodd" d="M129.791 10.4434C127.103 15.248 128.769 14.6857 121.185 13.7111C120.032 13.5631 118.177 12.2398 117.859 13.7837C117.466 15.6951 119.782 15.3718 121.071 15.7069C122.013 15.9524 123.034 15.9134 123.96 16.1966C124.744 16.4367 126.608 15.5471 125.94 17.6089C125.539 18.846 125.376 20.6831 123.07 19.8159C121.339 19.1646 119.478 18.8626 117.694 18.3393C116.959 18.1234 116.28 18.0077 115.974 18.8396C115.654 19.7091 116.32 20.0702 117.012 20.2767C118.888 20.8359 120.761 21.41 122.659 21.8866C123.544 22.109 124.239 22.3786 123.721 23.4075C123.303 24.237 123.615 25.8334 121.865 25.4582C120.909 25.2529 119.972 24.9538 119.015 24.7485C118.045 24.5408 116.64 23.6789 116.324 25.1933C116.015 26.6776 117.714 26.4434 118.641 26.7649C119.379 27.0203 120.145 27.2351 120.916 27.3407C122.112 27.5041 122.321 28.1696 122.091 29.2079C121.815 30.4592 121.044 30.4373 120.096 30.0574C119.914 29.9848 119.725 29.8568 119.545 29.8651C118.483 29.9158 116.962 28.3914 116.467 29.9783C115.868 31.9016 118.079 31.5954 119.063 31.8544C120.787 32.3086 121.294 33.1157 120.952 34.7811C120.657 36.2176 120.509 37.686 120.331 39.1438C120.231 39.965 120.069 40.677 119.103 40.9083C117.968 41.1803 117.773 40.3384 117.538 39.6116C116.269 35.6843 114.596 31.9317 112.65 28.2994C112.315 27.6722 112.086 27.0599 112.182 26.346C112.876 21.1887 113.725 16.0816 116.153 11.3738C116.863 9.99566 117.729 9.33669 119.367 9.44937C122.788 9.68535 126.227 9.67591 129.791 10.4434Z" fill="#ACAEBF" fill-opacity="0.8"/>
<path fill-rule="evenodd" clip-rule="evenodd" d="M159.518 42.0673C160.986 32.5963 165.134 24.5352 172.47 18.1963C173.321 17.4612 174.041 17.2842 175.076 17.8724C176.933 18.9296 178.871 19.8446 181.186 21.028C171.232 25.5812 164.244 32.6128 159.518 42.0673Z" fill="#5F6380"/>
<path fill-rule="evenodd" clip-rule="evenodd" d="M164.904 38.8533C168.059 33.1037 172.764 28.9233 178.321 25.6084C178.999 25.2043 179.691 24.8132 180.53 25.1359C183.864 26.4172 187.197 27.6992 190.51 29.2513C180.936 29.8383 172.735 33.6134 165.238 39.1778C165.138 39.058 165.027 38.9501 164.904 38.8533Z" fill="#5F6380"/>
<path fill-rule="evenodd" clip-rule="evenodd" d="M25.4363 64.4908C19.3964 62.892 13.6379 60.5133 7.18213 58.2285C10.7082 56.4032 13.9889 55.894 17.0838 54.874C17.3817 54.7755 17.9197 54.9254 18.1445 55.156C20.9149 58.0037 24.1702 60.4856 25.405 64.5244L25.4363 64.4908Z" fill="#9599B4"/>
<path fill-rule="evenodd" clip-rule="evenodd" d="M54.1365 36.7252C55.5081 35.8185 56.5452 35.0256 57.7658 36.2639C62.8848 41.456 67.0858 47.2894 69.996 54.0614C65.1909 47.8917 60.4058 41.725 54.1365 36.7252Z" fill="#555975"/>
<path fill-rule="evenodd" clip-rule="evenodd" d="M133.993 63.2012C134.003 63.0844 133.961 62.6703 134.08 62.3092C134.69 60.468 134.363 57.5489 137.021 57.5873C139.489 57.6227 139.871 60.4367 140.746 62.347C141.2 63.3363 140.702 63.7516 139.786 64.0106C138.565 64.3557 137.378 64.8183 136.164 65.1888C133.988 65.8519 133.928 65.7946 133.993 63.2012Z" fill="#555975"/>
<path fill-rule="evenodd" clip-rule="evenodd" d="M62.0071 49.1523C58.7424 47.6928 55.4776 46.2339 52.1155 44.7307C55.9077 42.1078 56.5554 42.1502 59.3299 45.4905C60.2927 46.6504 61.8036 47.4556 61.9688 49.193L62.0071 49.1523Z" fill="#9599B4"/>
<path fill-rule="evenodd" clip-rule="evenodd" d="M50.8855 73.7545C56.3095 73.4176 61.1748 74.699 65.0861 78.7449C60.3524 77.0818 55.6186 75.4176 50.8855 73.7545Z" fill="#9599B4"/>
<path fill-rule="evenodd" clip-rule="evenodd" d="M25.4048 64.5239C25.4909 64.5445 25.5771 64.5657 25.6632 64.5864C25.5877 64.5545 25.5122 64.5227 25.4361 64.4902L25.4048 64.5239Z" fill="#A1BCB4"/>
<path fill-rule="evenodd" clip-rule="evenodd" d="M165.237 39.1779C165.112 39.3053 164.903 39.5608 164.872 39.5413C164.514 39.3106 164.705 39.0764 164.907 38.854C165.027 38.9496 165.138 39.0575 165.237 39.1779Z" fill="#D6DADA"/>
<path fill-rule="evenodd" clip-rule="evenodd" d="M61.9688 49.1926C62.0631 49.2539 62.1569 49.3153 62.2507 49.3766C62.2 49.3695 62.1274 49.3813 62.1027 49.3524C62.0561 49.2982 62.0372 49.2197 62.0071 49.1519L61.9688 49.1926Z" fill="#A1BCB4"/>
<path fill-rule="evenodd" clip-rule="evenodd" d="M130.069 95.4436C131.301 92.5021 129.465 91.7682 127.3 91.311C126.533 91.1493 125.495 90.4727 125.149 91.7877C124.841 92.9587 124.902 94.1309 126.473 94.5014C127.684 94.7864 128.879 95.1303 130.069 95.4436ZM168.912 82.4954C168.891 80.2011 167.517 80.9674 166.475 81.3031C160.873 83.1072 155.289 84.9614 149.696 86.7908C144.662 88.4368 139.634 90.1028 134.582 91.695C133.165 92.1422 132.701 93.0165 132.998 94.3551C133.318 95.7993 134.333 95.1568 135.095 94.9097C145.822 91.4243 156.541 87.9117 167.263 84.408C168.258 84.0824 169.106 83.6446 168.912 82.4954ZM122.215 92.0354C122.215 91.1505 122.181 90.2662 122.222 89.3854C122.294 87.8515 123.228 87.051 124.555 87.7672C130.439 90.9446 135.889 88.6373 141.432 86.7359C146.711 84.9248 152.011 83.1668 157.349 81.5421C159.213 80.9745 160.239 80.2164 159.917 78.0974C159.538 75.6166 160.699 74.9034 163.016 75.6479C164.036 75.9759 165.126 76.0774 166.169 76.3434C172.73 78.0177 171.478 76.2502 171.71 83.1792C171.779 85.2298 171.107 86.0174 169.15 86.6362C157.292 90.3877 145.505 94.3551 133.664 98.1591C129.696 99.4334 126.284 97.0689 122.786 95.8725C121.465 95.42 122.516 93.3416 122.215 92.0354Z" fill="#282D53"/>
<path fill-rule="evenodd" clip-rule="evenodd" d="M207.239 51.153C206.072 51.0793 205.704 50.2941 205.672 49.3838C205.635 48.3561 205.973 47.4069 207.226 47.3927C208.298 47.3815 208.728 48.1921 208.761 49.1189C208.799 50.1696 208.352 50.9737 207.239 51.153Z" fill="#282D53"/>
<path fill-rule="evenodd" clip-rule="evenodd" d="M208.827 79.1556C208.719 80.4104 208.305 81.3313 207.136 81.3643C206.066 81.395 205.627 80.49 205.62 79.5626C205.613 78.5285 206.017 77.5598 207.249 77.5403C208.355 77.522 208.572 78.4854 208.827 79.1556Z" fill="#282D53"/>
<path fill-rule="evenodd" clip-rule="evenodd" d="M86.252 90.1609C86.1683 91.1815 85.763 92.1019 84.543 91.988C83.5312 91.8936 83.1395 91.0394 83.1784 90.0601C83.2221 88.9704 83.6551 88.0837 84.8857 88.1834C85.9494 88.2696 86.2214 89.158 86.252 90.1609Z" fill="#282D53"/>
<path fill-rule="evenodd" clip-rule="evenodd" d="M86.2305 119.898C86.2181 120.855 85.9308 121.677 84.8571 121.788C83.7728 121.902 83.2773 121.186 83.2112 120.204C83.1398 119.132 83.4908 118.201 84.7197 118.154C85.8022 118.114 86.1715 118.927 86.2305 119.898Z" fill="#282D53"/>
<path fill-rule="evenodd" clip-rule="evenodd" d="M75.0709 91.9777C73.9317 91.888 73.4338 91.0886 73.3365 90.0722C73.2462 89.1282 73.6975 88.2516 74.691 88.1808C75.8455 88.0994 76.3818 89.0221 76.472 90.048C76.5546 90.9824 76.1104 91.714 75.0709 91.9777Z" fill="#282D53"/>
<path fill-rule="evenodd" clip-rule="evenodd" d="M9.49719 67.1954C9.47241 68.1983 9.10369 69.0307 8.08308 69.1186C7.02118 69.2101 6.56987 68.4101 6.49023 67.4397C6.41471 66.5211 6.51972 65.5471 7.62882 65.4161C8.83173 65.274 9.25826 66.2167 9.49719 67.1954Z" fill="#282D53"/>
<path fill-rule="evenodd" clip-rule="evenodd" d="M9.49291 95.7585C9.36843 96.7001 9.0127 97.5349 7.94489 97.4718C6.72606 97.4004 6.45941 96.4441 6.49008 95.3951C6.51486 94.5497 6.80335 93.807 7.77617 93.8271C8.96491 93.8507 9.33363 94.7432 9.49291 95.7585Z" fill="#282D53"/>
<path fill-rule="evenodd" clip-rule="evenodd" d="M74.8547 121.768C73.748 121.652 73.2807 120.968 73.2335 120.009C73.1869 119.043 73.5639 118.217 74.6577 118.209C75.7225 118.2 76.1325 118.977 76.1856 119.955C76.2393 120.944 75.9261 121.663 74.8547 121.768Z" fill="#282D53"/>
<path fill-rule="evenodd" clip-rule="evenodd" d="M96.4036 24.9493C97.4661 24.875 98.0832 24.9599 98.2678 25.6508C98.5215 26.6047 97.7363 26.7374 97.0938 26.974C89.5578 29.7468 81.8602 31.9243 73.9508 33.3419C73.2629 33.4652 72.5042 33.7525 72.1863 32.8989C71.7987 31.8576 72.6293 31.5437 73.408 31.3048C74.2487 31.047 75.0853 30.7314 75.9478 30.5975C82.2555 29.6176 88.3768 27.9816 94.288 25.5581C95.0939 25.2278 95.9711 25.0708 96.4036 24.9493Z" fill="#282D53"/>
<path fill-rule="evenodd" clip-rule="evenodd" d="M100.309 32.2516C101.098 32.0906 101.722 32.3726 101.897 33.1466C102.058 33.8563 101.447 34.1495 100.878 34.3489C93.2047 37.0326 85.4351 39.3676 77.4183 40.8059C76.7015 40.9351 75.9688 41.0401 75.7257 40.1664C75.4832 39.2962 76.2171 38.9823 76.8431 38.7039C77.197 38.5464 77.5923 38.4667 77.9769 38.3953C85.2097 37.0585 92.3168 35.2674 99.1761 32.5714C99.5389 32.4286 99.93 32.3572 100.309 32.2516Z" fill="#282D53"/>
<path fill-rule="evenodd" clip-rule="evenodd" d="M69.6689 26.5935C69.0913 26.8395 68.4789 26.8389 68.3167 26.0737C68.171 25.39 68.5798 24.9109 69.1851 24.7387C70.8794 24.2561 72.5702 23.6833 74.3047 23.4337C79.39 22.7016 84.2618 21.2916 88.9932 19.3106C90.2503 18.7849 91.6172 18.5059 92.9499 18.1838C93.5723 18.0333 94.1605 18.2912 94.3558 18.9383C94.5658 19.6362 94.1151 20.0226 93.4903 20.2268C85.6688 22.7824 77.9435 25.6879 69.6689 26.5935Z" fill="#282D53"/>
<path fill-rule="evenodd" clip-rule="evenodd" d="M141.379 8.48672C141.732 8.66252 142.173 8.87255 142.606 9.09968C146.932 11.3639 151.733 12.0093 156.387 13.1556C158.004 13.5538 159.641 13.9142 161.202 14.4788C162.107 14.8062 163.775 14.9036 163.317 16.3678C162.795 18.0374 161.498 16.7413 160.613 16.5224C155.668 15.3012 150.741 14.008 145.816 12.7078C144.007 12.2299 142.303 11.4713 140.709 10.4866C140.196 10.1692 139.741 9.75688 140.056 9.05425C140.289 8.53274 140.756 8.42242 141.379 8.48672Z" fill="#282D53"/>
<path fill-rule="evenodd" clip-rule="evenodd" d="M154.489 23.3125C150.111 22.2299 145.746 20.5279 141.441 18.6537C139.739 17.9127 138.024 17.2012 136.325 16.4532C135.715 16.1847 134.898 15.9493 135.168 15.0491C135.488 13.986 136.388 14.2049 137.109 14.4969C139.553 15.4868 141.969 16.5476 144.398 17.5788C147.819 19.0312 151.322 20.2518 154.909 21.2306C155.642 21.4305 156.586 21.5397 156.353 22.657C156.156 23.5956 155.365 23.3909 154.489 23.3125Z" fill="#282D53"/>
<path fill-rule="evenodd" clip-rule="evenodd" d="M133.834 20.6865C138.437 22.2463 143.149 23.8368 147.855 25.4462C148.342 25.6126 148.725 25.9895 148.574 26.5482C148.394 27.2113 147.8 27.5293 147.202 27.3334C142.475 25.7819 137.765 24.1843 133.055 22.5808C132.571 22.4168 132.185 22.0381 132.338 21.4729C132.519 20.8016 133.073 20.624 133.834 20.6865Z" fill="#282D53"/>
<path fill-rule="evenodd" clip-rule="evenodd" d="M145.787 33.054C145.606 34.1796 144.779 34.1347 144.023 33.8657C139.888 32.3944 135.766 30.8859 131.653 29.352C130.836 29.047 129.844 28.6229 130.487 27.4713C131.038 26.4837 131.888 27.1073 132.537 27.4276C136.149 29.2075 140.083 30.0889 143.803 31.5561C144.559 31.8546 145.603 31.9 145.787 33.054Z" fill="#282D53"/>
<path fill-rule="evenodd" clip-rule="evenodd" d="M116.856 51.9502C116.784 52.9531 115.981 53.2592 115.333 53.6427C113.022 55.009 110.453 55.6733 107.846 56.1258C104.181 56.7618 100.475 57.173 96.8973 58.2414C96.2248 58.4419 95.5044 58.7835 95.1446 57.9051C94.7381 56.9122 95.4437 56.4267 96.2607 56.2338C98.7332 55.6497 101.202 55.0055 103.708 54.6167C107.589 54.0144 111.462 53.4758 114.909 51.3903C115.757 50.877 116.568 50.6299 116.856 51.9502Z" fill="#282D53"/>
<path fill-rule="evenodd" clip-rule="evenodd" d="M97.5199 64.7412C95.9842 64.8952 95.2232 64.8208 95.0651 63.9984C94.8509 62.8817 95.7653 62.8191 96.5582 62.6758C102.806 61.5484 109.221 61.2186 115.193 58.7609C115.903 58.4695 116.608 58.5939 116.838 59.4494C117.029 60.1626 116.478 60.5478 115.914 60.739C114.063 61.3673 112.225 62.1177 110.319 62.4953C105.806 63.3896 101.257 64.0964 97.5199 64.7412Z" fill="#282D53"/>
<path fill-rule="evenodd" clip-rule="evenodd" d="M116.645 66.7837C116.533 67.7247 115.896 67.9182 115.206 68.0816C109.315 69.4733 103.427 70.8732 97.5374 72.269C96.7592 72.4537 95.8725 72.6861 95.6554 71.5924C95.4377 70.4945 96.4153 70.3753 97.1515 70.1971C103.035 68.7742 108.925 67.3778 114.809 65.9566C115.705 65.7401 116.315 65.9714 116.645 66.7837Z" fill="#282D53"/>
<path fill-rule="evenodd" clip-rule="evenodd" d="M41.1947 46.293C41.5339 46.5626 41.9717 46.7968 42.2566 47.1531C45.2406 50.8916 48.2876 54.5894 50.658 58.7692C51.048 59.4565 51.9087 60.342 50.6156 60.9608C49.6504 61.4227 49.2557 60.575 48.8569 59.8942C46.5803 56.0035 43.7822 52.4892 40.9876 48.9719C40.2921 48.0964 39.5765 47.1968 41.1947 46.293Z" fill="#282D53"/>
<path fill-rule="evenodd" clip-rule="evenodd" d="M57.4406 52.6228C58.2801 52.5491 58.617 53.06 58.8624 53.5915C60.6735 57.5106 63.2657 60.9694 65.3689 64.7144C65.7606 65.4111 66.6272 66.2772 65.501 66.9934C64.3353 67.7343 64.0108 66.5763 63.592 65.8736C61.4428 62.2673 59.3084 58.6521 57.1952 55.0239C56.6937 54.1632 56.256 53.2364 57.4406 52.6228Z" fill="#282D53"/>
<path fill-rule="evenodd" clip-rule="evenodd" d="M50.2291 50.0415C50.9311 50.0799 51.2426 50.5736 51.5476 51.0863C53.603 54.5416 55.6714 57.9899 57.7108 61.4552C58.0477 62.0275 58.5279 62.7566 57.7314 63.2717C56.8383 63.8498 56.3044 63.195 55.8719 62.4658C53.8219 59.0063 51.7582 55.5552 49.7158 52.091C49.2285 51.2639 48.9312 50.4338 50.2291 50.0415Z" fill="#282D53"/>
<path fill-rule="evenodd" clip-rule="evenodd" d="M180.814 49.3048C180.623 50.2263 179.91 50.2947 179.255 50.4959C169.339 53.5383 159.431 56.6054 149.508 59.6212C148.667 59.8767 147.412 60.5303 147.05 59.1109C146.743 57.908 148.055 57.8236 148.814 57.5882C158.533 54.5748 168.259 51.5814 178.005 48.6582C178.93 48.3809 180.329 47.4246 180.814 49.3048Z" fill="#282D53"/>
<path fill-rule="evenodd" clip-rule="evenodd" d="M168.041 59.1416C167.893 59.8425 167.286 60.036 166.74 60.1634C161.675 61.348 156.742 62.9108 152.025 65.1231C151.261 65.4812 150.418 65.6558 150.044 64.673C149.719 63.8164 150.499 63.5226 151.122 63.2182C155.898 60.8867 160.947 59.3387 166.097 58.1175C167.471 57.7912 168.17 58.275 168.041 59.1416Z" fill="#282D53"/>
<path fill-rule="evenodd" clip-rule="evenodd" d="M36.0323 66.5387C36.0559 67.3959 35.9439 67.8525 35.3687 68.0106C34.8353 68.1575 34.4006 67.9699 34.1504 67.4832C31.8313 62.9648 28.9966 58.7597 26.2988 54.4708C26.0139 54.0183 26.0192 53.5587 26.4729 53.1758C26.9035 52.8112 27.441 52.7062 27.7678 53.1475C30.9594 57.4583 33.7221 62.0315 36.0323 66.5387Z" fill="#282D53"/>
<path fill-rule="evenodd" clip-rule="evenodd" d="M33.3229 55.1705C34.0238 55.1434 34.3801 55.6366 34.6668 56.1421C35.7193 58.004 36.7416 59.883 37.7687 61.7596C38.0761 62.3212 38.1669 62.9419 37.5587 63.3047C36.9935 63.6415 36.429 63.3749 36.0249 62.8734C34.4792 60.9549 33.5724 58.6771 32.5247 56.4873C32.2516 55.9156 32.6374 55.3581 33.3229 55.1705Z" fill="#282D53"/>
<path fill-rule="evenodd" clip-rule="evenodd" d="M168.912 82.4954C169.105 83.6446 168.259 84.0823 167.263 84.408C156.541 87.9122 145.822 91.4242 135.095 94.9096C134.334 95.1568 133.317 95.7992 132.998 94.3556C132.701 93.0165 133.165 92.1428 134.583 91.6956C139.633 90.1033 144.662 88.4367 149.696 86.7908C155.289 84.9619 160.873 83.1071 166.475 81.3031C167.516 80.9674 168.89 80.2011 168.912 82.4954Z" fill="#9599B4"/>
<path fill-rule="evenodd" clip-rule="evenodd" d="M130.069 95.4436C128.879 95.1303 127.684 94.7864 126.473 94.5014C124.902 94.131 124.841 92.9587 125.149 91.7877C125.495 90.4727 126.533 91.1494 127.3 91.311C129.465 91.7682 131.301 92.5021 130.069 95.4436Z" fill="#5B607E"/>
</svg>
