<svg width="12" height="8" viewBox="0 0 12 8" fill="none" xmlns="http://www.w3.org/2000/svg">
<path d="M11.73 0.588475L11.3401 0.195401C11.2168 0.0737001 11.0531 0.00567483 10.8783 0.00567483C10.7035 0.00567483 10.5399 0.0737001 10.417 0.195401L5.96288 4.64655L1.50316 0.190499C1.38176 0.0703099 1.2215 0.00226772 1.05004 0L1.04179 0L1.03358 0C0.8625 0.00226772 0.701116 0.0703099 0.580835 0.190499L0.189736 0.581301C0.0631045 0.708293 0 0.875349 0 1.0424C0 1.20908 0.0631045 1.37575 0.189736 1.50236L5.49969 6.82697C5.62072 6.94829 5.78095 7.03333 5.9539 7.03598H5.96211H5.96398H5.97223C6.14406 7.03333 6.30468 6.94829 6.42571 6.82697L11.73 1.51711C11.8514 1.39692 11.9183 1.23138 11.9205 1.05979V1.05185V1.04353C11.9183 0.871943 11.8514 0.70942 11.73 0.588475Z" fill="#FEFEFE"/>
</svg>
